<?xml version="1.0" encoding="utf-8" standalone="no"?>
<!DOCTYPE svg PUBLIC "-//W3C//DTD SVG 1.1//EN"
  "http://www.w3.org/Graphics/SVG/1.1/DTD/svg11.dtd">
<!-- Created with matplotlib (https://matplotlib.org/) -->
<svg height="503.6725pt" version="1.1" viewBox="0 0 666.067125 503.6725" width="666.067125pt" xmlns="http://www.w3.org/2000/svg" xmlns:xlink="http://www.w3.org/1999/xlink">
 <metadata>
  <rdf:RDF xmlns:cc="http://creativecommons.org/ns#" xmlns:dc="http://purl.org/dc/elements/1.1/" xmlns:rdf="http://www.w3.org/1999/02/22-rdf-syntax-ns#">
   <cc:Work>
    <dc:type rdf:resource="http://purl.org/dc/dcmitype/StillImage"/>
    <dc:date>2022-12-07T15:49:33.514596</dc:date>
    <dc:format>image/svg+xml</dc:format>
    <dc:creator>
     <cc:Agent>
      <dc:title>Matplotlib v3.3.4, https://matplotlib.org/</dc:title>
     </cc:Agent>
    </dc:creator>
   </cc:Work>
  </rdf:RDF>
 </metadata>
 <defs>
  <style type="text/css">*{stroke-linecap:butt;stroke-linejoin:round;}</style>
 </defs>
 <g id="figure_1">
  <g id="patch_1">
   <path d="M 0 503.6725 
L 666.067125 503.6725 
L 666.067125 0 
L 0 0 
z
" style="fill:#ffffff;"/>
  </g>
  <g id="axes_1">
   <g id="patch_2">
    <path d="M 40.603125 465.838125 
L 487.003125 465.838125 
L 487.003125 22.318125 
L 40.603125 22.318125 
z
" style="fill:#ffffff;"/>
   </g>
   <g id="patch_3">
    <path clip-path="url(#pab88cb2d2e)" d="M 60.894034 465.838125 
L 62.69767 465.838125 
L 62.69767 465.838125 
L 60.894034 465.838125 
z
" style="fill:#0000ff;fill-opacity:0.5;stroke:#000000;stroke-linejoin:miter;stroke-width:1.2;"/>
   </g>
   <g id="patch_4">
    <path clip-path="url(#pab88cb2d2e)" d="M 62.69767 465.838125 
L 64.501307 465.838125 
L 64.501307 465.838125 
L 62.69767 465.838125 
z
" style="fill:#0000ff;fill-opacity:0.5;stroke:#000000;stroke-linejoin:miter;stroke-width:1.2;"/>
   </g>
   <g id="patch_5">
    <path clip-path="url(#pab88cb2d2e)" d="M 64.501307 465.838125 
L 66.304943 465.838125 
L 66.304943 465.838125 
L 64.501307 465.838125 
z
" style="fill:#0000ff;fill-opacity:0.5;stroke:#000000;stroke-linejoin:miter;stroke-width:1.2;"/>
   </g>
   <g id="patch_6">
    <path clip-path="url(#pab88cb2d2e)" d="M 66.304943 465.838125 
L 68.10858 465.838125 
L 68.10858 465.838125 
L 66.304943 465.838125 
z
" style="fill:#0000ff;fill-opacity:0.5;stroke:#000000;stroke-linejoin:miter;stroke-width:1.2;"/>
   </g>
   <g id="patch_7">
    <path clip-path="url(#pab88cb2d2e)" d="M 68.10858 465.838125 
L 69.912216 465.838125 
L 69.912216 465.838125 
L 68.10858 465.838125 
z
" style="fill:#0000ff;fill-opacity:0.5;stroke:#000000;stroke-linejoin:miter;stroke-width:1.2;"/>
   </g>
   <g id="patch_8">
    <path clip-path="url(#pab88cb2d2e)" d="M 69.912216 465.838125 
L 71.715852 465.838125 
L 71.715852 465.838125 
L 69.912216 465.838125 
z
" style="fill:#0000ff;fill-opacity:0.5;stroke:#000000;stroke-linejoin:miter;stroke-width:1.2;"/>
   </g>
   <g id="patch_9">
    <path clip-path="url(#pab88cb2d2e)" d="M 71.715852 465.838125 
L 73.519489 465.838125 
L 73.519489 465.838125 
L 71.715852 465.838125 
z
" style="fill:#0000ff;fill-opacity:0.5;stroke:#000000;stroke-linejoin:miter;stroke-width:1.2;"/>
   </g>
   <g id="patch_10">
    <path clip-path="url(#pab88cb2d2e)" d="M 73.519489 465.838125 
L 75.323125 465.838125 
L 75.323125 465.838125 
L 73.519489 465.838125 
z
" style="fill:#0000ff;fill-opacity:0.5;stroke:#000000;stroke-linejoin:miter;stroke-width:1.2;"/>
   </g>
   <g id="patch_11">
    <path clip-path="url(#pab88cb2d2e)" d="M 75.323125 465.838125 
L 77.126761 465.838125 
L 77.126761 465.838125 
L 75.323125 465.838125 
z
" style="fill:#0000ff;fill-opacity:0.5;stroke:#000000;stroke-linejoin:miter;stroke-width:1.2;"/>
   </g>
   <g id="patch_12">
    <path clip-path="url(#pab88cb2d2e)" d="M 77.126761 465.838125 
L 78.930398 465.838125 
L 78.930398 465.838125 
L 77.126761 465.838125 
z
" style="fill:#0000ff;fill-opacity:0.5;stroke:#000000;stroke-linejoin:miter;stroke-width:1.2;"/>
   </g>
   <g id="patch_13">
    <path clip-path="url(#pab88cb2d2e)" d="M 78.930398 465.838125 
L 80.734034 465.838125 
L 80.734034 453.038125 
L 78.930398 453.038125 
z
" style="fill:#0000ff;fill-opacity:0.5;stroke:#000000;stroke-linejoin:miter;stroke-width:1.2;"/>
   </g>
   <g id="patch_14">
    <path clip-path="url(#pab88cb2d2e)" d="M 80.734034 465.838125 
L 82.53767 465.838125 
L 82.53767 465.838125 
L 80.734034 465.838125 
z
" style="fill:#0000ff;fill-opacity:0.5;stroke:#000000;stroke-linejoin:miter;stroke-width:1.2;"/>
   </g>
   <g id="patch_15">
    <path clip-path="url(#pab88cb2d2e)" d="M 82.53767 465.838125 
L 84.341307 465.838125 
L 84.341307 465.838125 
L 82.53767 465.838125 
z
" style="fill:#0000ff;fill-opacity:0.5;stroke:#000000;stroke-linejoin:miter;stroke-width:1.2;"/>
   </g>
   <g id="patch_16">
    <path clip-path="url(#pab88cb2d2e)" d="M 84.341307 465.838125 
L 86.144943 465.838125 
L 86.144943 465.838125 
L 84.341307 465.838125 
z
" style="fill:#0000ff;fill-opacity:0.5;stroke:#000000;stroke-linejoin:miter;stroke-width:1.2;"/>
   </g>
   <g id="patch_17">
    <path clip-path="url(#pab88cb2d2e)" d="M 86.144943 465.838125 
L 87.94858 465.838125 
L 87.94858 465.838125 
L 86.144943 465.838125 
z
" style="fill:#0000ff;fill-opacity:0.5;stroke:#000000;stroke-linejoin:miter;stroke-width:1.2;"/>
   </g>
   <g id="patch_18">
    <path clip-path="url(#pab88cb2d2e)" d="M 87.94858 465.838125 
L 89.752216 465.838125 
L 89.752216 465.838125 
L 87.94858 465.838125 
z
" style="fill:#0000ff;fill-opacity:0.5;stroke:#000000;stroke-linejoin:miter;stroke-width:1.2;"/>
   </g>
   <g id="patch_19">
    <path clip-path="url(#pab88cb2d2e)" d="M 89.752216 465.838125 
L 91.555852 465.838125 
L 91.555852 453.038125 
L 89.752216 453.038125 
z
" style="fill:#0000ff;fill-opacity:0.5;stroke:#000000;stroke-linejoin:miter;stroke-width:1.2;"/>
   </g>
   <g id="patch_20">
    <path clip-path="url(#pab88cb2d2e)" d="M 91.555852 465.838125 
L 93.359489 465.838125 
L 93.359489 465.838125 
L 91.555852 465.838125 
z
" style="fill:#0000ff;fill-opacity:0.5;stroke:#000000;stroke-linejoin:miter;stroke-width:1.2;"/>
   </g>
   <g id="patch_21">
    <path clip-path="url(#pab88cb2d2e)" d="M 93.359489 465.838125 
L 95.163125 465.838125 
L 95.163125 453.038125 
L 93.359489 453.038125 
z
" style="fill:#0000ff;fill-opacity:0.5;stroke:#000000;stroke-linejoin:miter;stroke-width:1.2;"/>
   </g>
   <g id="patch_22">
    <path clip-path="url(#pab88cb2d2e)" d="M 95.163125 465.838125 
L 96.966761 465.838125 
L 96.966761 465.838125 
L 95.163125 465.838125 
z
" style="fill:#0000ff;fill-opacity:0.5;stroke:#000000;stroke-linejoin:miter;stroke-width:1.2;"/>
   </g>
   <g id="patch_23">
    <path clip-path="url(#pab88cb2d2e)" d="M 96.966761 465.838125 
L 98.770398 465.838125 
L 98.770398 453.038125 
L 96.966761 453.038125 
z
" style="fill:#0000ff;fill-opacity:0.5;stroke:#000000;stroke-linejoin:miter;stroke-width:1.2;"/>
   </g>
   <g id="patch_24">
    <path clip-path="url(#pab88cb2d2e)" d="M 98.770398 465.838125 
L 100.574034 465.838125 
L 100.574034 465.838125 
L 98.770398 465.838125 
z
" style="fill:#0000ff;fill-opacity:0.5;stroke:#000000;stroke-linejoin:miter;stroke-width:1.2;"/>
   </g>
   <g id="patch_25">
    <path clip-path="url(#pab88cb2d2e)" d="M 100.574034 465.838125 
L 102.37767 465.838125 
L 102.37767 440.238125 
L 100.574034 440.238125 
z
" style="fill:#0000ff;fill-opacity:0.5;stroke:#000000;stroke-linejoin:miter;stroke-width:1.2;"/>
   </g>
   <g id="patch_26">
    <path clip-path="url(#pab88cb2d2e)" d="M 102.37767 465.838125 
L 104.181307 465.838125 
L 104.181307 440.238125 
L 102.37767 440.238125 
z
" style="fill:#0000ff;fill-opacity:0.5;stroke:#000000;stroke-linejoin:miter;stroke-width:1.2;"/>
   </g>
   <g id="patch_27">
    <path clip-path="url(#pab88cb2d2e)" d="M 104.181307 465.838125 
L 105.984943 465.838125 
L 105.984943 453.038125 
L 104.181307 453.038125 
z
" style="fill:#0000ff;fill-opacity:0.5;stroke:#000000;stroke-linejoin:miter;stroke-width:1.2;"/>
   </g>
   <g id="patch_28">
    <path clip-path="url(#pab88cb2d2e)" d="M 105.984943 465.838125 
L 107.78858 465.838125 
L 107.78858 465.838125 
L 105.984943 465.838125 
z
" style="fill:#0000ff;fill-opacity:0.5;stroke:#000000;stroke-linejoin:miter;stroke-width:1.2;"/>
   </g>
   <g id="patch_29">
    <path clip-path="url(#pab88cb2d2e)" d="M 107.78858 465.838125 
L 109.592216 465.838125 
L 109.592216 465.838125 
L 107.78858 465.838125 
z
" style="fill:#0000ff;fill-opacity:0.5;stroke:#000000;stroke-linejoin:miter;stroke-width:1.2;"/>
   </g>
   <g id="patch_30">
    <path clip-path="url(#pab88cb2d2e)" d="M 109.592216 465.838125 
L 111.395852 465.838125 
L 111.395852 427.438125 
L 109.592216 427.438125 
z
" style="fill:#0000ff;fill-opacity:0.5;stroke:#000000;stroke-linejoin:miter;stroke-width:1.2;"/>
   </g>
   <g id="patch_31">
    <path clip-path="url(#pab88cb2d2e)" d="M 111.395852 465.838125 
L 113.199489 465.838125 
L 113.199489 453.038125 
L 111.395852 453.038125 
z
" style="fill:#0000ff;fill-opacity:0.5;stroke:#000000;stroke-linejoin:miter;stroke-width:1.2;"/>
   </g>
   <g id="patch_32">
    <path clip-path="url(#pab88cb2d2e)" d="M 113.199489 465.838125 
L 115.003125 465.838125 
L 115.003125 465.838125 
L 113.199489 465.838125 
z
" style="fill:#0000ff;fill-opacity:0.5;stroke:#000000;stroke-linejoin:miter;stroke-width:1.2;"/>
   </g>
   <g id="patch_33">
    <path clip-path="url(#pab88cb2d2e)" d="M 115.003125 465.838125 
L 116.806761 465.838125 
L 116.806761 465.838125 
L 115.003125 465.838125 
z
" style="fill:#0000ff;fill-opacity:0.5;stroke:#000000;stroke-linejoin:miter;stroke-width:1.2;"/>
   </g>
   <g id="patch_34">
    <path clip-path="url(#pab88cb2d2e)" d="M 116.806761 465.838125 
L 118.610398 465.838125 
L 118.610398 453.038125 
L 116.806761 453.038125 
z
" style="fill:#0000ff;fill-opacity:0.5;stroke:#000000;stroke-linejoin:miter;stroke-width:1.2;"/>
   </g>
   <g id="patch_35">
    <path clip-path="url(#pab88cb2d2e)" d="M 118.610398 465.838125 
L 120.414034 465.838125 
L 120.414034 465.838125 
L 118.610398 465.838125 
z
" style="fill:#0000ff;fill-opacity:0.5;stroke:#000000;stroke-linejoin:miter;stroke-width:1.2;"/>
   </g>
   <g id="patch_36">
    <path clip-path="url(#pab88cb2d2e)" d="M 120.414034 465.838125 
L 122.21767 465.838125 
L 122.21767 440.238125 
L 120.414034 440.238125 
z
" style="fill:#0000ff;fill-opacity:0.5;stroke:#000000;stroke-linejoin:miter;stroke-width:1.2;"/>
   </g>
   <g id="patch_37">
    <path clip-path="url(#pab88cb2d2e)" d="M 122.21767 465.838125 
L 124.021307 465.838125 
L 124.021307 465.838125 
L 122.21767 465.838125 
z
" style="fill:#0000ff;fill-opacity:0.5;stroke:#000000;stroke-linejoin:miter;stroke-width:1.2;"/>
   </g>
   <g id="patch_38">
    <path clip-path="url(#pab88cb2d2e)" d="M 124.021307 465.838125 
L 125.824943 465.838125 
L 125.824943 453.038125 
L 124.021307 453.038125 
z
" style="fill:#0000ff;fill-opacity:0.5;stroke:#000000;stroke-linejoin:miter;stroke-width:1.2;"/>
   </g>
   <g id="patch_39">
    <path clip-path="url(#pab88cb2d2e)" d="M 125.824943 465.838125 
L 127.62858 465.838125 
L 127.62858 440.238125 
L 125.824943 440.238125 
z
" style="fill:#0000ff;fill-opacity:0.5;stroke:#000000;stroke-linejoin:miter;stroke-width:1.2;"/>
   </g>
   <g id="patch_40">
    <path clip-path="url(#pab88cb2d2e)" d="M 127.62858 465.838125 
L 129.432216 465.838125 
L 129.432216 453.038125 
L 127.62858 453.038125 
z
" style="fill:#0000ff;fill-opacity:0.5;stroke:#000000;stroke-linejoin:miter;stroke-width:1.2;"/>
   </g>
   <g id="patch_41">
    <path clip-path="url(#pab88cb2d2e)" d="M 129.432216 465.838125 
L 131.235852 465.838125 
L 131.235852 427.438125 
L 129.432216 427.438125 
z
" style="fill:#0000ff;fill-opacity:0.5;stroke:#000000;stroke-linejoin:miter;stroke-width:1.2;"/>
   </g>
   <g id="patch_42">
    <path clip-path="url(#pab88cb2d2e)" d="M 131.235852 465.838125 
L 133.039489 465.838125 
L 133.039489 465.838125 
L 131.235852 465.838125 
z
" style="fill:#0000ff;fill-opacity:0.5;stroke:#000000;stroke-linejoin:miter;stroke-width:1.2;"/>
   </g>
   <g id="patch_43">
    <path clip-path="url(#pab88cb2d2e)" d="M 133.039489 465.838125 
L 134.843125 465.838125 
L 134.843125 440.238125 
L 133.039489 440.238125 
z
" style="fill:#0000ff;fill-opacity:0.5;stroke:#000000;stroke-linejoin:miter;stroke-width:1.2;"/>
   </g>
   <g id="patch_44">
    <path clip-path="url(#pab88cb2d2e)" d="M 134.843125 465.838125 
L 136.646761 465.838125 
L 136.646761 427.438125 
L 134.843125 427.438125 
z
" style="fill:#0000ff;fill-opacity:0.5;stroke:#000000;stroke-linejoin:miter;stroke-width:1.2;"/>
   </g>
   <g id="patch_45">
    <path clip-path="url(#pab88cb2d2e)" d="M 136.646761 465.838125 
L 138.450398 465.838125 
L 138.450398 427.438125 
L 136.646761 427.438125 
z
" style="fill:#0000ff;fill-opacity:0.5;stroke:#000000;stroke-linejoin:miter;stroke-width:1.2;"/>
   </g>
   <g id="patch_46">
    <path clip-path="url(#pab88cb2d2e)" d="M 138.450398 465.838125 
L 140.254034 465.838125 
L 140.254034 465.838125 
L 138.450398 465.838125 
z
" style="fill:#0000ff;fill-opacity:0.5;stroke:#000000;stroke-linejoin:miter;stroke-width:1.2;"/>
   </g>
   <g id="patch_47">
    <path clip-path="url(#pab88cb2d2e)" d="M 140.254034 465.838125 
L 142.05767 465.838125 
L 142.05767 465.838125 
L 140.254034 465.838125 
z
" style="fill:#0000ff;fill-opacity:0.5;stroke:#000000;stroke-linejoin:miter;stroke-width:1.2;"/>
   </g>
   <g id="patch_48">
    <path clip-path="url(#pab88cb2d2e)" d="M 142.05767 465.838125 
L 143.861307 465.838125 
L 143.861307 414.638125 
L 142.05767 414.638125 
z
" style="fill:#0000ff;fill-opacity:0.5;stroke:#000000;stroke-linejoin:miter;stroke-width:1.2;"/>
   </g>
   <g id="patch_49">
    <path clip-path="url(#pab88cb2d2e)" d="M 143.861307 465.838125 
L 145.664943 465.838125 
L 145.664943 427.438125 
L 143.861307 427.438125 
z
" style="fill:#0000ff;fill-opacity:0.5;stroke:#000000;stroke-linejoin:miter;stroke-width:1.2;"/>
   </g>
   <g id="patch_50">
    <path clip-path="url(#pab88cb2d2e)" d="M 145.664943 465.838125 
L 147.46858 465.838125 
L 147.46858 440.238125 
L 145.664943 440.238125 
z
" style="fill:#0000ff;fill-opacity:0.5;stroke:#000000;stroke-linejoin:miter;stroke-width:1.2;"/>
   </g>
   <g id="patch_51">
    <path clip-path="url(#pab88cb2d2e)" d="M 147.46858 465.838125 
L 149.272216 465.838125 
L 149.272216 440.238125 
L 147.46858 440.238125 
z
" style="fill:#0000ff;fill-opacity:0.5;stroke:#000000;stroke-linejoin:miter;stroke-width:1.2;"/>
   </g>
   <g id="patch_52">
    <path clip-path="url(#pab88cb2d2e)" d="M 149.272216 465.838125 
L 151.075852 465.838125 
L 151.075852 414.638125 
L 149.272216 414.638125 
z
" style="fill:#0000ff;fill-opacity:0.5;stroke:#000000;stroke-linejoin:miter;stroke-width:1.2;"/>
   </g>
   <g id="patch_53">
    <path clip-path="url(#pab88cb2d2e)" d="M 151.075852 465.838125 
L 152.879489 465.838125 
L 152.879489 440.238125 
L 151.075852 440.238125 
z
" style="fill:#0000ff;fill-opacity:0.5;stroke:#000000;stroke-linejoin:miter;stroke-width:1.2;"/>
   </g>
   <g id="patch_54">
    <path clip-path="url(#pab88cb2d2e)" d="M 152.879489 465.838125 
L 154.683125 465.838125 
L 154.683125 440.238125 
L 152.879489 440.238125 
z
" style="fill:#0000ff;fill-opacity:0.5;stroke:#000000;stroke-linejoin:miter;stroke-width:1.2;"/>
   </g>
   <g id="patch_55">
    <path clip-path="url(#pab88cb2d2e)" d="M 154.683125 465.838125 
L 156.486761 465.838125 
L 156.486761 440.238125 
L 154.683125 440.238125 
z
" style="fill:#0000ff;fill-opacity:0.5;stroke:#000000;stroke-linejoin:miter;stroke-width:1.2;"/>
   </g>
   <g id="patch_56">
    <path clip-path="url(#pab88cb2d2e)" d="M 156.486761 465.838125 
L 158.290398 465.838125 
L 158.290398 401.838125 
L 156.486761 401.838125 
z
" style="fill:#0000ff;fill-opacity:0.5;stroke:#000000;stroke-linejoin:miter;stroke-width:1.2;"/>
   </g>
   <g id="patch_57">
    <path clip-path="url(#pab88cb2d2e)" d="M 158.290398 465.838125 
L 160.094034 465.838125 
L 160.094034 427.438125 
L 158.290398 427.438125 
z
" style="fill:#0000ff;fill-opacity:0.5;stroke:#000000;stroke-linejoin:miter;stroke-width:1.2;"/>
   </g>
   <g id="patch_58">
    <path clip-path="url(#pab88cb2d2e)" d="M 160.094034 465.838125 
L 161.89767 465.838125 
L 161.89767 427.438125 
L 160.094034 427.438125 
z
" style="fill:#0000ff;fill-opacity:0.5;stroke:#000000;stroke-linejoin:miter;stroke-width:1.2;"/>
   </g>
   <g id="patch_59">
    <path clip-path="url(#pab88cb2d2e)" d="M 161.89767 465.838125 
L 163.701307 465.838125 
L 163.701307 401.838125 
L 161.89767 401.838125 
z
" style="fill:#0000ff;fill-opacity:0.5;stroke:#000000;stroke-linejoin:miter;stroke-width:1.2;"/>
   </g>
   <g id="patch_60">
    <path clip-path="url(#pab88cb2d2e)" d="M 163.701307 465.838125 
L 165.504943 465.838125 
L 165.504943 401.838125 
L 163.701307 401.838125 
z
" style="fill:#0000ff;fill-opacity:0.5;stroke:#000000;stroke-linejoin:miter;stroke-width:1.2;"/>
   </g>
   <g id="patch_61">
    <path clip-path="url(#pab88cb2d2e)" d="M 165.504943 465.838125 
L 167.30858 465.838125 
L 167.30858 401.838125 
L 165.504943 401.838125 
z
" style="fill:#0000ff;fill-opacity:0.5;stroke:#000000;stroke-linejoin:miter;stroke-width:1.2;"/>
   </g>
   <g id="patch_62">
    <path clip-path="url(#pab88cb2d2e)" d="M 167.30858 465.838125 
L 169.112216 465.838125 
L 169.112216 401.838125 
L 167.30858 401.838125 
z
" style="fill:#0000ff;fill-opacity:0.5;stroke:#000000;stroke-linejoin:miter;stroke-width:1.2;"/>
   </g>
   <g id="patch_63">
    <path clip-path="url(#pab88cb2d2e)" d="M 169.112216 465.838125 
L 170.915852 465.838125 
L 170.915852 427.438125 
L 169.112216 427.438125 
z
" style="fill:#0000ff;fill-opacity:0.5;stroke:#000000;stroke-linejoin:miter;stroke-width:1.2;"/>
   </g>
   <g id="patch_64">
    <path clip-path="url(#pab88cb2d2e)" d="M 170.915852 465.838125 
L 172.719489 465.838125 
L 172.719489 389.038125 
L 170.915852 389.038125 
z
" style="fill:#0000ff;fill-opacity:0.5;stroke:#000000;stroke-linejoin:miter;stroke-width:1.2;"/>
   </g>
   <g id="patch_65">
    <path clip-path="url(#pab88cb2d2e)" d="M 172.719489 465.838125 
L 174.523125 465.838125 
L 174.523125 350.638125 
L 172.719489 350.638125 
z
" style="fill:#0000ff;fill-opacity:0.5;stroke:#000000;stroke-linejoin:miter;stroke-width:1.2;"/>
   </g>
   <g id="patch_66">
    <path clip-path="url(#pab88cb2d2e)" d="M 174.523125 465.838125 
L 176.326761 465.838125 
L 176.326761 299.438125 
L 174.523125 299.438125 
z
" style="fill:#0000ff;fill-opacity:0.5;stroke:#000000;stroke-linejoin:miter;stroke-width:1.2;"/>
   </g>
   <g id="patch_67">
    <path clip-path="url(#pab88cb2d2e)" d="M 176.326761 465.838125 
L 178.130398 465.838125 
L 178.130398 363.438125 
L 176.326761 363.438125 
z
" style="fill:#0000ff;fill-opacity:0.5;stroke:#000000;stroke-linejoin:miter;stroke-width:1.2;"/>
   </g>
   <g id="patch_68">
    <path clip-path="url(#pab88cb2d2e)" d="M 178.130398 465.838125 
L 179.934034 465.838125 
L 179.934034 337.838125 
L 178.130398 337.838125 
z
" style="fill:#0000ff;fill-opacity:0.5;stroke:#000000;stroke-linejoin:miter;stroke-width:1.2;"/>
   </g>
   <g id="patch_69">
    <path clip-path="url(#pab88cb2d2e)" d="M 179.934034 465.838125 
L 181.73767 465.838125 
L 181.73767 350.638125 
L 179.934034 350.638125 
z
" style="fill:#0000ff;fill-opacity:0.5;stroke:#000000;stroke-linejoin:miter;stroke-width:1.2;"/>
   </g>
   <g id="patch_70">
    <path clip-path="url(#pab88cb2d2e)" d="M 181.73767 465.838125 
L 183.541307 465.838125 
L 183.541307 414.638125 
L 181.73767 414.638125 
z
" style="fill:#0000ff;fill-opacity:0.5;stroke:#000000;stroke-linejoin:miter;stroke-width:1.2;"/>
   </g>
   <g id="patch_71">
    <path clip-path="url(#pab88cb2d2e)" d="M 183.541307 465.838125 
L 185.344943 465.838125 
L 185.344943 286.638125 
L 183.541307 286.638125 
z
" style="fill:#0000ff;fill-opacity:0.5;stroke:#000000;stroke-linejoin:miter;stroke-width:1.2;"/>
   </g>
   <g id="patch_72">
    <path clip-path="url(#pab88cb2d2e)" d="M 185.344943 465.838125 
L 187.14858 465.838125 
L 187.14858 363.438125 
L 185.344943 363.438125 
z
" style="fill:#0000ff;fill-opacity:0.5;stroke:#000000;stroke-linejoin:miter;stroke-width:1.2;"/>
   </g>
   <g id="patch_73">
    <path clip-path="url(#pab88cb2d2e)" d="M 187.14858 465.838125 
L 188.952216 465.838125 
L 188.952216 273.838125 
L 187.14858 273.838125 
z
" style="fill:#0000ff;fill-opacity:0.5;stroke:#000000;stroke-linejoin:miter;stroke-width:1.2;"/>
   </g>
   <g id="patch_74">
    <path clip-path="url(#pab88cb2d2e)" d="M 188.952216 465.838125 
L 190.755852 465.838125 
L 190.755852 325.038125 
L 188.952216 325.038125 
z
" style="fill:#0000ff;fill-opacity:0.5;stroke:#000000;stroke-linejoin:miter;stroke-width:1.2;"/>
   </g>
   <g id="patch_75">
    <path clip-path="url(#pab88cb2d2e)" d="M 190.755852 465.838125 
L 192.559489 465.838125 
L 192.559489 312.238125 
L 190.755852 312.238125 
z
" style="fill:#0000ff;fill-opacity:0.5;stroke:#000000;stroke-linejoin:miter;stroke-width:1.2;"/>
   </g>
   <g id="patch_76">
    <path clip-path="url(#pab88cb2d2e)" d="M 192.559489 465.838125 
L 194.363125 465.838125 
L 194.363125 209.838125 
L 192.559489 209.838125 
z
" style="fill:#0000ff;fill-opacity:0.5;stroke:#000000;stroke-linejoin:miter;stroke-width:1.2;"/>
   </g>
   <g id="patch_77">
    <path clip-path="url(#pab88cb2d2e)" d="M 194.363125 465.838125 
L 196.166761 465.838125 
L 196.166761 248.238125 
L 194.363125 248.238125 
z
" style="fill:#0000ff;fill-opacity:0.5;stroke:#000000;stroke-linejoin:miter;stroke-width:1.2;"/>
   </g>
   <g id="patch_78">
    <path clip-path="url(#pab88cb2d2e)" d="M 196.166761 465.838125 
L 197.970398 465.838125 
L 197.970398 389.038125 
L 196.166761 389.038125 
z
" style="fill:#0000ff;fill-opacity:0.5;stroke:#000000;stroke-linejoin:miter;stroke-width:1.2;"/>
   </g>
   <g id="patch_79">
    <path clip-path="url(#pab88cb2d2e)" d="M 197.970398 465.838125 
L 199.774034 465.838125 
L 199.774034 209.838125 
L 197.970398 209.838125 
z
" style="fill:#0000ff;fill-opacity:0.5;stroke:#000000;stroke-linejoin:miter;stroke-width:1.2;"/>
   </g>
   <g id="patch_80">
    <path clip-path="url(#pab88cb2d2e)" d="M 199.774034 465.838125 
L 201.57767 465.838125 
L 201.57767 209.838125 
L 199.774034 209.838125 
z
" style="fill:#0000ff;fill-opacity:0.5;stroke:#000000;stroke-linejoin:miter;stroke-width:1.2;"/>
   </g>
   <g id="patch_81">
    <path clip-path="url(#pab88cb2d2e)" d="M 201.57767 465.838125 
L 203.381307 465.838125 
L 203.381307 222.638125 
L 201.57767 222.638125 
z
" style="fill:#0000ff;fill-opacity:0.5;stroke:#000000;stroke-linejoin:miter;stroke-width:1.2;"/>
   </g>
   <g id="patch_82">
    <path clip-path="url(#pab88cb2d2e)" d="M 203.381307 465.838125 
L 205.184943 465.838125 
L 205.184943 197.038125 
L 203.381307 197.038125 
z
" style="fill:#0000ff;fill-opacity:0.5;stroke:#000000;stroke-linejoin:miter;stroke-width:1.2;"/>
   </g>
   <g id="patch_83">
    <path clip-path="url(#pab88cb2d2e)" d="M 205.184943 465.838125 
L 206.98858 465.838125 
L 206.98858 235.438125 
L 205.184943 235.438125 
z
" style="fill:#0000ff;fill-opacity:0.5;stroke:#000000;stroke-linejoin:miter;stroke-width:1.2;"/>
   </g>
   <g id="patch_84">
    <path clip-path="url(#pab88cb2d2e)" d="M 206.98858 465.838125 
L 208.792216 465.838125 
L 208.792216 43.438125 
L 206.98858 43.438125 
z
" style="fill:#0000ff;fill-opacity:0.5;stroke:#000000;stroke-linejoin:miter;stroke-width:1.2;"/>
   </g>
   <g id="patch_85">
    <path clip-path="url(#pab88cb2d2e)" d="M 208.792216 465.838125 
L 210.595852 465.838125 
L 210.595852 43.438125 
L 208.792216 43.438125 
z
" style="fill:#0000ff;fill-opacity:0.5;stroke:#000000;stroke-linejoin:miter;stroke-width:1.2;"/>
   </g>
   <g id="patch_86">
    <path clip-path="url(#pab88cb2d2e)" d="M 210.595852 465.838125 
L 212.399489 465.838125 
L 212.399489 261.038125 
L 210.595852 261.038125 
z
" style="fill:#0000ff;fill-opacity:0.5;stroke:#000000;stroke-linejoin:miter;stroke-width:1.2;"/>
   </g>
   <g id="patch_87">
    <path clip-path="url(#pab88cb2d2e)" d="M 212.399489 465.838125 
L 214.203125 465.838125 
L 214.203125 222.638125 
L 212.399489 222.638125 
z
" style="fill:#0000ff;fill-opacity:0.5;stroke:#000000;stroke-linejoin:miter;stroke-width:1.2;"/>
   </g>
   <g id="patch_88">
    <path clip-path="url(#pab88cb2d2e)" d="M 214.203125 465.838125 
L 216.006761 465.838125 
L 216.006761 145.838125 
L 214.203125 145.838125 
z
" style="fill:#0000ff;fill-opacity:0.5;stroke:#000000;stroke-linejoin:miter;stroke-width:1.2;"/>
   </g>
   <g id="patch_89">
    <path clip-path="url(#pab88cb2d2e)" d="M 216.006761 465.838125 
L 217.810398 465.838125 
L 217.810398 158.638125 
L 216.006761 158.638125 
z
" style="fill:#0000ff;fill-opacity:0.5;stroke:#000000;stroke-linejoin:miter;stroke-width:1.2;"/>
   </g>
   <g id="patch_90">
    <path clip-path="url(#pab88cb2d2e)" d="M 217.810398 465.838125 
L 219.614034 465.838125 
L 219.614034 312.238125 
L 217.810398 312.238125 
z
" style="fill:#0000ff;fill-opacity:0.5;stroke:#000000;stroke-linejoin:miter;stroke-width:1.2;"/>
   </g>
   <g id="patch_91">
    <path clip-path="url(#pab88cb2d2e)" d="M 219.614034 465.838125 
L 221.41767 465.838125 
L 221.41767 222.638125 
L 219.614034 222.638125 
z
" style="fill:#0000ff;fill-opacity:0.5;stroke:#000000;stroke-linejoin:miter;stroke-width:1.2;"/>
   </g>
   <g id="patch_92">
    <path clip-path="url(#pab88cb2d2e)" d="M 221.41767 465.838125 
L 223.221307 465.838125 
L 223.221307 120.238125 
L 221.41767 120.238125 
z
" style="fill:#0000ff;fill-opacity:0.5;stroke:#000000;stroke-linejoin:miter;stroke-width:1.2;"/>
   </g>
   <g id="patch_93">
    <path clip-path="url(#pab88cb2d2e)" d="M 223.221307 465.838125 
L 225.024943 465.838125 
L 225.024943 209.838125 
L 223.221307 209.838125 
z
" style="fill:#0000ff;fill-opacity:0.5;stroke:#000000;stroke-linejoin:miter;stroke-width:1.2;"/>
   </g>
   <g id="patch_94">
    <path clip-path="url(#pab88cb2d2e)" d="M 225.024943 465.838125 
L 226.82858 465.838125 
L 226.82858 209.838125 
L 225.024943 209.838125 
z
" style="fill:#0000ff;fill-opacity:0.5;stroke:#000000;stroke-linejoin:miter;stroke-width:1.2;"/>
   </g>
   <g id="patch_95">
    <path clip-path="url(#pab88cb2d2e)" d="M 226.82858 465.838125 
L 228.632216 465.838125 
L 228.632216 197.038125 
L 226.82858 197.038125 
z
" style="fill:#0000ff;fill-opacity:0.5;stroke:#000000;stroke-linejoin:miter;stroke-width:1.2;"/>
   </g>
   <g id="patch_96">
    <path clip-path="url(#pab88cb2d2e)" d="M 228.632216 465.838125 
L 230.435852 465.838125 
L 230.435852 158.638125 
L 228.632216 158.638125 
z
" style="fill:#0000ff;fill-opacity:0.5;stroke:#000000;stroke-linejoin:miter;stroke-width:1.2;"/>
   </g>
   <g id="patch_97">
    <path clip-path="url(#pab88cb2d2e)" d="M 230.435852 465.838125 
L 232.239489 465.838125 
L 232.239489 197.038125 
L 230.435852 197.038125 
z
" style="fill:#0000ff;fill-opacity:0.5;stroke:#000000;stroke-linejoin:miter;stroke-width:1.2;"/>
   </g>
   <g id="patch_98">
    <path clip-path="url(#pab88cb2d2e)" d="M 232.239489 465.838125 
L 234.043125 465.838125 
L 234.043125 184.238125 
L 232.239489 184.238125 
z
" style="fill:#0000ff;fill-opacity:0.5;stroke:#000000;stroke-linejoin:miter;stroke-width:1.2;"/>
   </g>
   <g id="patch_99">
    <path clip-path="url(#pab88cb2d2e)" d="M 234.043125 465.838125 
L 235.846761 465.838125 
L 235.846761 312.238125 
L 234.043125 312.238125 
z
" style="fill:#0000ff;fill-opacity:0.5;stroke:#000000;stroke-linejoin:miter;stroke-width:1.2;"/>
   </g>
   <g id="patch_100">
    <path clip-path="url(#pab88cb2d2e)" d="M 235.846761 465.838125 
L 237.650398 465.838125 
L 237.650398 145.838125 
L 235.846761 145.838125 
z
" style="fill:#0000ff;fill-opacity:0.5;stroke:#000000;stroke-linejoin:miter;stroke-width:1.2;"/>
   </g>
   <g id="patch_101">
    <path clip-path="url(#pab88cb2d2e)" d="M 237.650398 465.838125 
L 239.454034 465.838125 
L 239.454034 273.838125 
L 237.650398 273.838125 
z
" style="fill:#0000ff;fill-opacity:0.5;stroke:#000000;stroke-linejoin:miter;stroke-width:1.2;"/>
   </g>
   <g id="patch_102">
    <path clip-path="url(#pab88cb2d2e)" d="M 239.454034 465.838125 
L 241.25767 465.838125 
L 241.25767 401.838125 
L 239.454034 401.838125 
z
" style="fill:#0000ff;fill-opacity:0.5;stroke:#000000;stroke-linejoin:miter;stroke-width:1.2;"/>
   </g>
   <g id="patch_103">
    <path clip-path="url(#pab88cb2d2e)" d="M 241.25767 465.838125 
L 243.061307 465.838125 
L 243.061307 325.038125 
L 241.25767 325.038125 
z
" style="fill:#0000ff;fill-opacity:0.5;stroke:#000000;stroke-linejoin:miter;stroke-width:1.2;"/>
   </g>
   <g id="patch_104">
    <path clip-path="url(#pab88cb2d2e)" d="M 243.061307 465.838125 
L 244.864943 465.838125 
L 244.864943 235.438125 
L 243.061307 235.438125 
z
" style="fill:#0000ff;fill-opacity:0.5;stroke:#000000;stroke-linejoin:miter;stroke-width:1.2;"/>
   </g>
   <g id="patch_105">
    <path clip-path="url(#pab88cb2d2e)" d="M 244.864943 465.838125 
L 246.66858 465.838125 
L 246.66858 286.638125 
L 244.864943 286.638125 
z
" style="fill:#0000ff;fill-opacity:0.5;stroke:#000000;stroke-linejoin:miter;stroke-width:1.2;"/>
   </g>
   <g id="patch_106">
    <path clip-path="url(#pab88cb2d2e)" d="M 246.66858 465.838125 
L 248.472216 465.838125 
L 248.472216 337.838125 
L 246.66858 337.838125 
z
" style="fill:#0000ff;fill-opacity:0.5;stroke:#000000;stroke-linejoin:miter;stroke-width:1.2;"/>
   </g>
   <g id="patch_107">
    <path clip-path="url(#pab88cb2d2e)" d="M 248.472216 465.838125 
L 250.275852 465.838125 
L 250.275852 325.038125 
L 248.472216 325.038125 
z
" style="fill:#0000ff;fill-opacity:0.5;stroke:#000000;stroke-linejoin:miter;stroke-width:1.2;"/>
   </g>
   <g id="patch_108">
    <path clip-path="url(#pab88cb2d2e)" d="M 250.275852 465.838125 
L 252.079489 465.838125 
L 252.079489 261.038125 
L 250.275852 261.038125 
z
" style="fill:#0000ff;fill-opacity:0.5;stroke:#000000;stroke-linejoin:miter;stroke-width:1.2;"/>
   </g>
   <g id="patch_109">
    <path clip-path="url(#pab88cb2d2e)" d="M 252.079489 465.838125 
L 253.883125 465.838125 
L 253.883125 350.638125 
L 252.079489 350.638125 
z
" style="fill:#0000ff;fill-opacity:0.5;stroke:#000000;stroke-linejoin:miter;stroke-width:1.2;"/>
   </g>
   <g id="patch_110">
    <path clip-path="url(#pab88cb2d2e)" d="M 253.883125 465.838125 
L 255.686761 465.838125 
L 255.686761 414.638125 
L 253.883125 414.638125 
z
" style="fill:#0000ff;fill-opacity:0.5;stroke:#000000;stroke-linejoin:miter;stroke-width:1.2;"/>
   </g>
   <g id="patch_111">
    <path clip-path="url(#pab88cb2d2e)" d="M 255.686761 465.838125 
L 257.490398 465.838125 
L 257.490398 273.838125 
L 255.686761 273.838125 
z
" style="fill:#0000ff;fill-opacity:0.5;stroke:#000000;stroke-linejoin:miter;stroke-width:1.2;"/>
   </g>
   <g id="patch_112">
    <path clip-path="url(#pab88cb2d2e)" d="M 257.490398 465.838125 
L 259.294034 465.838125 
L 259.294034 299.438125 
L 257.490398 299.438125 
z
" style="fill:#0000ff;fill-opacity:0.5;stroke:#000000;stroke-linejoin:miter;stroke-width:1.2;"/>
   </g>
   <g id="patch_113">
    <path clip-path="url(#pab88cb2d2e)" d="M 259.294034 465.838125 
L 261.09767 465.838125 
L 261.09767 376.238125 
L 259.294034 376.238125 
z
" style="fill:#0000ff;fill-opacity:0.5;stroke:#000000;stroke-linejoin:miter;stroke-width:1.2;"/>
   </g>
   <g id="patch_114">
    <path clip-path="url(#pab88cb2d2e)" d="M 261.09767 465.838125 
L 262.901307 465.838125 
L 262.901307 376.238125 
L 261.09767 376.238125 
z
" style="fill:#0000ff;fill-opacity:0.5;stroke:#000000;stroke-linejoin:miter;stroke-width:1.2;"/>
   </g>
   <g id="patch_115">
    <path clip-path="url(#pab88cb2d2e)" d="M 262.901307 465.838125 
L 264.704943 465.838125 
L 264.704943 376.238125 
L 262.901307 376.238125 
z
" style="fill:#0000ff;fill-opacity:0.5;stroke:#000000;stroke-linejoin:miter;stroke-width:1.2;"/>
   </g>
   <g id="patch_116">
    <path clip-path="url(#pab88cb2d2e)" d="M 264.704943 465.838125 
L 266.50858 465.838125 
L 266.50858 414.638125 
L 264.704943 414.638125 
z
" style="fill:#0000ff;fill-opacity:0.5;stroke:#000000;stroke-linejoin:miter;stroke-width:1.2;"/>
   </g>
   <g id="patch_117">
    <path clip-path="url(#pab88cb2d2e)" d="M 266.50858 465.838125 
L 268.312216 465.838125 
L 268.312216 350.638125 
L 266.50858 350.638125 
z
" style="fill:#0000ff;fill-opacity:0.5;stroke:#000000;stroke-linejoin:miter;stroke-width:1.2;"/>
   </g>
   <g id="patch_118">
    <path clip-path="url(#pab88cb2d2e)" d="M 268.312216 465.838125 
L 270.115852 465.838125 
L 270.115852 427.438125 
L 268.312216 427.438125 
z
" style="fill:#0000ff;fill-opacity:0.5;stroke:#000000;stroke-linejoin:miter;stroke-width:1.2;"/>
   </g>
   <g id="patch_119">
    <path clip-path="url(#pab88cb2d2e)" d="M 270.115852 465.838125 
L 271.919489 465.838125 
L 271.919489 363.438125 
L 270.115852 363.438125 
z
" style="fill:#0000ff;fill-opacity:0.5;stroke:#000000;stroke-linejoin:miter;stroke-width:1.2;"/>
   </g>
   <g id="patch_120">
    <path clip-path="url(#pab88cb2d2e)" d="M 271.919489 465.838125 
L 273.723125 465.838125 
L 273.723125 401.838125 
L 271.919489 401.838125 
z
" style="fill:#0000ff;fill-opacity:0.5;stroke:#000000;stroke-linejoin:miter;stroke-width:1.2;"/>
   </g>
   <g id="patch_121">
    <path clip-path="url(#pab88cb2d2e)" d="M 273.723125 465.838125 
L 275.526761 465.838125 
L 275.526761 376.238125 
L 273.723125 376.238125 
z
" style="fill:#0000ff;fill-opacity:0.5;stroke:#000000;stroke-linejoin:miter;stroke-width:1.2;"/>
   </g>
   <g id="patch_122">
    <path clip-path="url(#pab88cb2d2e)" d="M 275.526761 465.838125 
L 277.330398 465.838125 
L 277.330398 440.238125 
L 275.526761 440.238125 
z
" style="fill:#0000ff;fill-opacity:0.5;stroke:#000000;stroke-linejoin:miter;stroke-width:1.2;"/>
   </g>
   <g id="patch_123">
    <path clip-path="url(#pab88cb2d2e)" d="M 277.330398 465.838125 
L 279.134034 465.838125 
L 279.134034 376.238125 
L 277.330398 376.238125 
z
" style="fill:#0000ff;fill-opacity:0.5;stroke:#000000;stroke-linejoin:miter;stroke-width:1.2;"/>
   </g>
   <g id="patch_124">
    <path clip-path="url(#pab88cb2d2e)" d="M 279.134034 465.838125 
L 280.93767 465.838125 
L 280.93767 389.038125 
L 279.134034 389.038125 
z
" style="fill:#0000ff;fill-opacity:0.5;stroke:#000000;stroke-linejoin:miter;stroke-width:1.2;"/>
   </g>
   <g id="patch_125">
    <path clip-path="url(#pab88cb2d2e)" d="M 280.93767 465.838125 
L 282.741307 465.838125 
L 282.741307 401.838125 
L 280.93767 401.838125 
z
" style="fill:#0000ff;fill-opacity:0.5;stroke:#000000;stroke-linejoin:miter;stroke-width:1.2;"/>
   </g>
   <g id="patch_126">
    <path clip-path="url(#pab88cb2d2e)" d="M 282.741307 465.838125 
L 284.544943 465.838125 
L 284.544943 427.438125 
L 282.741307 427.438125 
z
" style="fill:#0000ff;fill-opacity:0.5;stroke:#000000;stroke-linejoin:miter;stroke-width:1.2;"/>
   </g>
   <g id="patch_127">
    <path clip-path="url(#pab88cb2d2e)" d="M 284.544943 465.838125 
L 286.34858 465.838125 
L 286.34858 401.838125 
L 284.544943 401.838125 
z
" style="fill:#0000ff;fill-opacity:0.5;stroke:#000000;stroke-linejoin:miter;stroke-width:1.2;"/>
   </g>
   <g id="patch_128">
    <path clip-path="url(#pab88cb2d2e)" d="M 286.34858 465.838125 
L 288.152216 465.838125 
L 288.152216 427.438125 
L 286.34858 427.438125 
z
" style="fill:#0000ff;fill-opacity:0.5;stroke:#000000;stroke-linejoin:miter;stroke-width:1.2;"/>
   </g>
   <g id="patch_129">
    <path clip-path="url(#pab88cb2d2e)" d="M 288.152216 465.838125 
L 289.955852 465.838125 
L 289.955852 401.838125 
L 288.152216 401.838125 
z
" style="fill:#0000ff;fill-opacity:0.5;stroke:#000000;stroke-linejoin:miter;stroke-width:1.2;"/>
   </g>
   <g id="patch_130">
    <path clip-path="url(#pab88cb2d2e)" d="M 289.955852 465.838125 
L 291.759489 465.838125 
L 291.759489 440.238125 
L 289.955852 440.238125 
z
" style="fill:#0000ff;fill-opacity:0.5;stroke:#000000;stroke-linejoin:miter;stroke-width:1.2;"/>
   </g>
   <g id="patch_131">
    <path clip-path="url(#pab88cb2d2e)" d="M 291.759489 465.838125 
L 293.563125 465.838125 
L 293.563125 453.038125 
L 291.759489 453.038125 
z
" style="fill:#0000ff;fill-opacity:0.5;stroke:#000000;stroke-linejoin:miter;stroke-width:1.2;"/>
   </g>
   <g id="patch_132">
    <path clip-path="url(#pab88cb2d2e)" d="M 293.563125 465.838125 
L 295.366761 465.838125 
L 295.366761 440.238125 
L 293.563125 440.238125 
z
" style="fill:#0000ff;fill-opacity:0.5;stroke:#000000;stroke-linejoin:miter;stroke-width:1.2;"/>
   </g>
   <g id="patch_133">
    <path clip-path="url(#pab88cb2d2e)" d="M 295.366761 465.838125 
L 297.170398 465.838125 
L 297.170398 453.038125 
L 295.366761 453.038125 
z
" style="fill:#0000ff;fill-opacity:0.5;stroke:#000000;stroke-linejoin:miter;stroke-width:1.2;"/>
   </g>
   <g id="patch_134">
    <path clip-path="url(#pab88cb2d2e)" d="M 297.170398 465.838125 
L 298.974034 465.838125 
L 298.974034 465.838125 
L 297.170398 465.838125 
z
" style="fill:#0000ff;fill-opacity:0.5;stroke:#000000;stroke-linejoin:miter;stroke-width:1.2;"/>
   </g>
   <g id="patch_135">
    <path clip-path="url(#pab88cb2d2e)" d="M 298.974034 465.838125 
L 300.77767 465.838125 
L 300.77767 465.838125 
L 298.974034 465.838125 
z
" style="fill:#0000ff;fill-opacity:0.5;stroke:#000000;stroke-linejoin:miter;stroke-width:1.2;"/>
   </g>
   <g id="patch_136">
    <path clip-path="url(#pab88cb2d2e)" d="M 300.77767 465.838125 
L 302.581307 465.838125 
L 302.581307 465.838125 
L 300.77767 465.838125 
z
" style="fill:#0000ff;fill-opacity:0.5;stroke:#000000;stroke-linejoin:miter;stroke-width:1.2;"/>
   </g>
   <g id="patch_137">
    <path clip-path="url(#pab88cb2d2e)" d="M 302.581307 465.838125 
L 304.384943 465.838125 
L 304.384943 453.038125 
L 302.581307 453.038125 
z
" style="fill:#0000ff;fill-opacity:0.5;stroke:#000000;stroke-linejoin:miter;stroke-width:1.2;"/>
   </g>
   <g id="patch_138">
    <path clip-path="url(#pab88cb2d2e)" d="M 304.384943 465.838125 
L 306.18858 465.838125 
L 306.18858 440.238125 
L 304.384943 440.238125 
z
" style="fill:#0000ff;fill-opacity:0.5;stroke:#000000;stroke-linejoin:miter;stroke-width:1.2;"/>
   </g>
   <g id="patch_139">
    <path clip-path="url(#pab88cb2d2e)" d="M 306.18858 465.838125 
L 307.992216 465.838125 
L 307.992216 440.238125 
L 306.18858 440.238125 
z
" style="fill:#0000ff;fill-opacity:0.5;stroke:#000000;stroke-linejoin:miter;stroke-width:1.2;"/>
   </g>
   <g id="patch_140">
    <path clip-path="url(#pab88cb2d2e)" d="M 307.992216 465.838125 
L 309.795852 465.838125 
L 309.795852 414.638125 
L 307.992216 414.638125 
z
" style="fill:#0000ff;fill-opacity:0.5;stroke:#000000;stroke-linejoin:miter;stroke-width:1.2;"/>
   </g>
   <g id="patch_141">
    <path clip-path="url(#pab88cb2d2e)" d="M 309.795852 465.838125 
L 311.599489 465.838125 
L 311.599489 465.838125 
L 309.795852 465.838125 
z
" style="fill:#0000ff;fill-opacity:0.5;stroke:#000000;stroke-linejoin:miter;stroke-width:1.2;"/>
   </g>
   <g id="patch_142">
    <path clip-path="url(#pab88cb2d2e)" d="M 311.599489 465.838125 
L 313.403125 465.838125 
L 313.403125 453.038125 
L 311.599489 453.038125 
z
" style="fill:#0000ff;fill-opacity:0.5;stroke:#000000;stroke-linejoin:miter;stroke-width:1.2;"/>
   </g>
   <g id="patch_143">
    <path clip-path="url(#pab88cb2d2e)" d="M 313.403125 465.838125 
L 315.206761 465.838125 
L 315.206761 440.238125 
L 313.403125 440.238125 
z
" style="fill:#0000ff;fill-opacity:0.5;stroke:#000000;stroke-linejoin:miter;stroke-width:1.2;"/>
   </g>
   <g id="patch_144">
    <path clip-path="url(#pab88cb2d2e)" d="M 315.206761 465.838125 
L 317.010398 465.838125 
L 317.010398 453.038125 
L 315.206761 453.038125 
z
" style="fill:#0000ff;fill-opacity:0.5;stroke:#000000;stroke-linejoin:miter;stroke-width:1.2;"/>
   </g>
   <g id="patch_145">
    <path clip-path="url(#pab88cb2d2e)" d="M 317.010398 465.838125 
L 318.814034 465.838125 
L 318.814034 465.838125 
L 317.010398 465.838125 
z
" style="fill:#0000ff;fill-opacity:0.5;stroke:#000000;stroke-linejoin:miter;stroke-width:1.2;"/>
   </g>
   <g id="patch_146">
    <path clip-path="url(#pab88cb2d2e)" d="M 318.814034 465.838125 
L 320.61767 465.838125 
L 320.61767 453.038125 
L 318.814034 453.038125 
z
" style="fill:#0000ff;fill-opacity:0.5;stroke:#000000;stroke-linejoin:miter;stroke-width:1.2;"/>
   </g>
   <g id="patch_147">
    <path clip-path="url(#pab88cb2d2e)" d="M 320.61767 465.838125 
L 322.421307 465.838125 
L 322.421307 440.238125 
L 320.61767 440.238125 
z
" style="fill:#0000ff;fill-opacity:0.5;stroke:#000000;stroke-linejoin:miter;stroke-width:1.2;"/>
   </g>
   <g id="patch_148">
    <path clip-path="url(#pab88cb2d2e)" d="M 322.421307 465.838125 
L 324.224943 465.838125 
L 324.224943 453.038125 
L 322.421307 453.038125 
z
" style="fill:#0000ff;fill-opacity:0.5;stroke:#000000;stroke-linejoin:miter;stroke-width:1.2;"/>
   </g>
   <g id="patch_149">
    <path clip-path="url(#pab88cb2d2e)" d="M 324.224943 465.838125 
L 326.02858 465.838125 
L 326.02858 453.038125 
L 324.224943 453.038125 
z
" style="fill:#0000ff;fill-opacity:0.5;stroke:#000000;stroke-linejoin:miter;stroke-width:1.2;"/>
   </g>
   <g id="patch_150">
    <path clip-path="url(#pab88cb2d2e)" d="M 326.02858 465.838125 
L 327.832216 465.838125 
L 327.832216 453.038125 
L 326.02858 453.038125 
z
" style="fill:#0000ff;fill-opacity:0.5;stroke:#000000;stroke-linejoin:miter;stroke-width:1.2;"/>
   </g>
   <g id="patch_151">
    <path clip-path="url(#pab88cb2d2e)" d="M 327.832216 465.838125 
L 329.635852 465.838125 
L 329.635852 440.238125 
L 327.832216 440.238125 
z
" style="fill:#0000ff;fill-opacity:0.5;stroke:#000000;stroke-linejoin:miter;stroke-width:1.2;"/>
   </g>
   <g id="patch_152">
    <path clip-path="url(#pab88cb2d2e)" d="M 329.635852 465.838125 
L 331.439489 465.838125 
L 331.439489 453.038125 
L 329.635852 453.038125 
z
" style="fill:#0000ff;fill-opacity:0.5;stroke:#000000;stroke-linejoin:miter;stroke-width:1.2;"/>
   </g>
   <g id="patch_153">
    <path clip-path="url(#pab88cb2d2e)" d="M 331.439489 465.838125 
L 333.243125 465.838125 
L 333.243125 453.038125 
L 331.439489 453.038125 
z
" style="fill:#0000ff;fill-opacity:0.5;stroke:#000000;stroke-linejoin:miter;stroke-width:1.2;"/>
   </g>
   <g id="patch_154">
    <path clip-path="url(#pab88cb2d2e)" d="M 333.243125 465.838125 
L 335.046761 465.838125 
L 335.046761 465.838125 
L 333.243125 465.838125 
z
" style="fill:#0000ff;fill-opacity:0.5;stroke:#000000;stroke-linejoin:miter;stroke-width:1.2;"/>
   </g>
   <g id="patch_155">
    <path clip-path="url(#pab88cb2d2e)" d="M 335.046761 465.838125 
L 336.850398 465.838125 
L 336.850398 453.038125 
L 335.046761 453.038125 
z
" style="fill:#0000ff;fill-opacity:0.5;stroke:#000000;stroke-linejoin:miter;stroke-width:1.2;"/>
   </g>
   <g id="patch_156">
    <path clip-path="url(#pab88cb2d2e)" d="M 336.850398 465.838125 
L 338.654034 465.838125 
L 338.654034 440.238125 
L 336.850398 440.238125 
z
" style="fill:#0000ff;fill-opacity:0.5;stroke:#000000;stroke-linejoin:miter;stroke-width:1.2;"/>
   </g>
   <g id="patch_157">
    <path clip-path="url(#pab88cb2d2e)" d="M 338.654034 465.838125 
L 340.45767 465.838125 
L 340.45767 453.038125 
L 338.654034 453.038125 
z
" style="fill:#0000ff;fill-opacity:0.5;stroke:#000000;stroke-linejoin:miter;stroke-width:1.2;"/>
   </g>
   <g id="patch_158">
    <path clip-path="url(#pab88cb2d2e)" d="M 340.45767 465.838125 
L 342.261307 465.838125 
L 342.261307 440.238125 
L 340.45767 440.238125 
z
" style="fill:#0000ff;fill-opacity:0.5;stroke:#000000;stroke-linejoin:miter;stroke-width:1.2;"/>
   </g>
   <g id="patch_159">
    <path clip-path="url(#pab88cb2d2e)" d="M 342.261307 465.838125 
L 344.064943 465.838125 
L 344.064943 453.038125 
L 342.261307 453.038125 
z
" style="fill:#0000ff;fill-opacity:0.5;stroke:#000000;stroke-linejoin:miter;stroke-width:1.2;"/>
   </g>
   <g id="patch_160">
    <path clip-path="url(#pab88cb2d2e)" d="M 344.064943 465.838125 
L 345.86858 465.838125 
L 345.86858 465.838125 
L 344.064943 465.838125 
z
" style="fill:#0000ff;fill-opacity:0.5;stroke:#000000;stroke-linejoin:miter;stroke-width:1.2;"/>
   </g>
   <g id="patch_161">
    <path clip-path="url(#pab88cb2d2e)" d="M 345.86858 465.838125 
L 347.672216 465.838125 
L 347.672216 465.838125 
L 345.86858 465.838125 
z
" style="fill:#0000ff;fill-opacity:0.5;stroke:#000000;stroke-linejoin:miter;stroke-width:1.2;"/>
   </g>
   <g id="patch_162">
    <path clip-path="url(#pab88cb2d2e)" d="M 347.672216 465.838125 
L 349.475852 465.838125 
L 349.475852 440.238125 
L 347.672216 440.238125 
z
" style="fill:#0000ff;fill-opacity:0.5;stroke:#000000;stroke-linejoin:miter;stroke-width:1.2;"/>
   </g>
   <g id="patch_163">
    <path clip-path="url(#pab88cb2d2e)" d="M 349.475852 465.838125 
L 351.279489 465.838125 
L 351.279489 465.838125 
L 349.475852 465.838125 
z
" style="fill:#0000ff;fill-opacity:0.5;stroke:#000000;stroke-linejoin:miter;stroke-width:1.2;"/>
   </g>
   <g id="patch_164">
    <path clip-path="url(#pab88cb2d2e)" d="M 351.279489 465.838125 
L 353.083125 465.838125 
L 353.083125 465.838125 
L 351.279489 465.838125 
z
" style="fill:#0000ff;fill-opacity:0.5;stroke:#000000;stroke-linejoin:miter;stroke-width:1.2;"/>
   </g>
   <g id="patch_165">
    <path clip-path="url(#pab88cb2d2e)" d="M 353.083125 465.838125 
L 354.886761 465.838125 
L 354.886761 453.038125 
L 353.083125 453.038125 
z
" style="fill:#0000ff;fill-opacity:0.5;stroke:#000000;stroke-linejoin:miter;stroke-width:1.2;"/>
   </g>
   <g id="patch_166">
    <path clip-path="url(#pab88cb2d2e)" d="M 354.886761 465.838125 
L 356.690398 465.838125 
L 356.690398 465.838125 
L 354.886761 465.838125 
z
" style="fill:#0000ff;fill-opacity:0.5;stroke:#000000;stroke-linejoin:miter;stroke-width:1.2;"/>
   </g>
   <g id="patch_167">
    <path clip-path="url(#pab88cb2d2e)" d="M 356.690398 465.838125 
L 358.494034 465.838125 
L 358.494034 465.838125 
L 356.690398 465.838125 
z
" style="fill:#0000ff;fill-opacity:0.5;stroke:#000000;stroke-linejoin:miter;stroke-width:1.2;"/>
   </g>
   <g id="patch_168">
    <path clip-path="url(#pab88cb2d2e)" d="M 358.494034 465.838125 
L 360.29767 465.838125 
L 360.29767 465.838125 
L 358.494034 465.838125 
z
" style="fill:#0000ff;fill-opacity:0.5;stroke:#000000;stroke-linejoin:miter;stroke-width:1.2;"/>
   </g>
   <g id="patch_169">
    <path clip-path="url(#pab88cb2d2e)" d="M 360.29767 465.838125 
L 362.101307 465.838125 
L 362.101307 465.838125 
L 360.29767 465.838125 
z
" style="fill:#0000ff;fill-opacity:0.5;stroke:#000000;stroke-linejoin:miter;stroke-width:1.2;"/>
   </g>
   <g id="patch_170">
    <path clip-path="url(#pab88cb2d2e)" d="M 362.101307 465.838125 
L 363.904943 465.838125 
L 363.904943 465.838125 
L 362.101307 465.838125 
z
" style="fill:#0000ff;fill-opacity:0.5;stroke:#000000;stroke-linejoin:miter;stroke-width:1.2;"/>
   </g>
   <g id="patch_171">
    <path clip-path="url(#pab88cb2d2e)" d="M 363.904943 465.838125 
L 365.70858 465.838125 
L 365.70858 465.838125 
L 363.904943 465.838125 
z
" style="fill:#0000ff;fill-opacity:0.5;stroke:#000000;stroke-linejoin:miter;stroke-width:1.2;"/>
   </g>
   <g id="patch_172">
    <path clip-path="url(#pab88cb2d2e)" d="M 365.70858 465.838125 
L 367.512216 465.838125 
L 367.512216 453.038125 
L 365.70858 453.038125 
z
" style="fill:#0000ff;fill-opacity:0.5;stroke:#000000;stroke-linejoin:miter;stroke-width:1.2;"/>
   </g>
   <g id="patch_173">
    <path clip-path="url(#pab88cb2d2e)" d="M 367.512216 465.838125 
L 369.315852 465.838125 
L 369.315852 440.238125 
L 367.512216 440.238125 
z
" style="fill:#0000ff;fill-opacity:0.5;stroke:#000000;stroke-linejoin:miter;stroke-width:1.2;"/>
   </g>
   <g id="patch_174">
    <path clip-path="url(#pab88cb2d2e)" d="M 369.315852 465.838125 
L 371.119489 465.838125 
L 371.119489 465.838125 
L 369.315852 465.838125 
z
" style="fill:#0000ff;fill-opacity:0.5;stroke:#000000;stroke-linejoin:miter;stroke-width:1.2;"/>
   </g>
   <g id="patch_175">
    <path clip-path="url(#pab88cb2d2e)" d="M 371.119489 465.838125 
L 372.923125 465.838125 
L 372.923125 465.838125 
L 371.119489 465.838125 
z
" style="fill:#0000ff;fill-opacity:0.5;stroke:#000000;stroke-linejoin:miter;stroke-width:1.2;"/>
   </g>
   <g id="patch_176">
    <path clip-path="url(#pab88cb2d2e)" d="M 372.923125 465.838125 
L 374.726761 465.838125 
L 374.726761 465.838125 
L 372.923125 465.838125 
z
" style="fill:#0000ff;fill-opacity:0.5;stroke:#000000;stroke-linejoin:miter;stroke-width:1.2;"/>
   </g>
   <g id="patch_177">
    <path clip-path="url(#pab88cb2d2e)" d="M 374.726761 465.838125 
L 376.530398 465.838125 
L 376.530398 465.838125 
L 374.726761 465.838125 
z
" style="fill:#0000ff;fill-opacity:0.5;stroke:#000000;stroke-linejoin:miter;stroke-width:1.2;"/>
   </g>
   <g id="patch_178">
    <path clip-path="url(#pab88cb2d2e)" d="M 376.530398 465.838125 
L 378.334034 465.838125 
L 378.334034 465.838125 
L 376.530398 465.838125 
z
" style="fill:#0000ff;fill-opacity:0.5;stroke:#000000;stroke-linejoin:miter;stroke-width:1.2;"/>
   </g>
   <g id="patch_179">
    <path clip-path="url(#pab88cb2d2e)" d="M 378.334034 465.838125 
L 380.13767 465.838125 
L 380.13767 465.838125 
L 378.334034 465.838125 
z
" style="fill:#0000ff;fill-opacity:0.5;stroke:#000000;stroke-linejoin:miter;stroke-width:1.2;"/>
   </g>
   <g id="patch_180">
    <path clip-path="url(#pab88cb2d2e)" d="M 380.13767 465.838125 
L 381.941307 465.838125 
L 381.941307 453.038125 
L 380.13767 453.038125 
z
" style="fill:#0000ff;fill-opacity:0.5;stroke:#000000;stroke-linejoin:miter;stroke-width:1.2;"/>
   </g>
   <g id="patch_181">
    <path clip-path="url(#pab88cb2d2e)" d="M 381.941307 465.838125 
L 383.744943 465.838125 
L 383.744943 465.838125 
L 381.941307 465.838125 
z
" style="fill:#0000ff;fill-opacity:0.5;stroke:#000000;stroke-linejoin:miter;stroke-width:1.2;"/>
   </g>
   <g id="patch_182">
    <path clip-path="url(#pab88cb2d2e)" d="M 383.744943 465.838125 
L 385.54858 465.838125 
L 385.54858 465.838125 
L 383.744943 465.838125 
z
" style="fill:#0000ff;fill-opacity:0.5;stroke:#000000;stroke-linejoin:miter;stroke-width:1.2;"/>
   </g>
   <g id="patch_183">
    <path clip-path="url(#pab88cb2d2e)" d="M 385.54858 465.838125 
L 387.352216 465.838125 
L 387.352216 465.838125 
L 385.54858 465.838125 
z
" style="fill:#0000ff;fill-opacity:0.5;stroke:#000000;stroke-linejoin:miter;stroke-width:1.2;"/>
   </g>
   <g id="patch_184">
    <path clip-path="url(#pab88cb2d2e)" d="M 387.352216 465.838125 
L 389.155852 465.838125 
L 389.155852 465.838125 
L 387.352216 465.838125 
z
" style="fill:#0000ff;fill-opacity:0.5;stroke:#000000;stroke-linejoin:miter;stroke-width:1.2;"/>
   </g>
   <g id="patch_185">
    <path clip-path="url(#pab88cb2d2e)" d="M 389.155852 465.838125 
L 390.959489 465.838125 
L 390.959489 465.838125 
L 389.155852 465.838125 
z
" style="fill:#0000ff;fill-opacity:0.5;stroke:#000000;stroke-linejoin:miter;stroke-width:1.2;"/>
   </g>
   <g id="patch_186">
    <path clip-path="url(#pab88cb2d2e)" d="M 390.959489 465.838125 
L 392.763125 465.838125 
L 392.763125 465.838125 
L 390.959489 465.838125 
z
" style="fill:#0000ff;fill-opacity:0.5;stroke:#000000;stroke-linejoin:miter;stroke-width:1.2;"/>
   </g>
   <g id="patch_187">
    <path clip-path="url(#pab88cb2d2e)" d="M 392.763125 465.838125 
L 394.566761 465.838125 
L 394.566761 465.838125 
L 392.763125 465.838125 
z
" style="fill:#0000ff;fill-opacity:0.5;stroke:#000000;stroke-linejoin:miter;stroke-width:1.2;"/>
   </g>
   <g id="patch_188">
    <path clip-path="url(#pab88cb2d2e)" d="M 394.566761 465.838125 
L 396.370398 465.838125 
L 396.370398 465.838125 
L 394.566761 465.838125 
z
" style="fill:#0000ff;fill-opacity:0.5;stroke:#000000;stroke-linejoin:miter;stroke-width:1.2;"/>
   </g>
   <g id="patch_189">
    <path clip-path="url(#pab88cb2d2e)" d="M 396.370398 465.838125 
L 398.174034 465.838125 
L 398.174034 465.838125 
L 396.370398 465.838125 
z
" style="fill:#0000ff;fill-opacity:0.5;stroke:#000000;stroke-linejoin:miter;stroke-width:1.2;"/>
   </g>
   <g id="patch_190">
    <path clip-path="url(#pab88cb2d2e)" d="M 398.174034 465.838125 
L 399.97767 465.838125 
L 399.97767 465.838125 
L 398.174034 465.838125 
z
" style="fill:#0000ff;fill-opacity:0.5;stroke:#000000;stroke-linejoin:miter;stroke-width:1.2;"/>
   </g>
   <g id="patch_191">
    <path clip-path="url(#pab88cb2d2e)" d="M 399.97767 465.838125 
L 401.781307 465.838125 
L 401.781307 453.038125 
L 399.97767 453.038125 
z
" style="fill:#0000ff;fill-opacity:0.5;stroke:#000000;stroke-linejoin:miter;stroke-width:1.2;"/>
   </g>
   <g id="patch_192">
    <path clip-path="url(#pab88cb2d2e)" d="M 401.781307 465.838125 
L 403.584943 465.838125 
L 403.584943 465.838125 
L 401.781307 465.838125 
z
" style="fill:#0000ff;fill-opacity:0.5;stroke:#000000;stroke-linejoin:miter;stroke-width:1.2;"/>
   </g>
   <g id="patch_193">
    <path clip-path="url(#pab88cb2d2e)" d="M 403.584943 465.838125 
L 405.38858 465.838125 
L 405.38858 453.038125 
L 403.584943 453.038125 
z
" style="fill:#0000ff;fill-opacity:0.5;stroke:#000000;stroke-linejoin:miter;stroke-width:1.2;"/>
   </g>
   <g id="patch_194">
    <path clip-path="url(#pab88cb2d2e)" d="M 405.38858 465.838125 
L 407.192216 465.838125 
L 407.192216 465.838125 
L 405.38858 465.838125 
z
" style="fill:#0000ff;fill-opacity:0.5;stroke:#000000;stroke-linejoin:miter;stroke-width:1.2;"/>
   </g>
   <g id="patch_195">
    <path clip-path="url(#pab88cb2d2e)" d="M 407.192216 465.838125 
L 408.995852 465.838125 
L 408.995852 465.838125 
L 407.192216 465.838125 
z
" style="fill:#0000ff;fill-opacity:0.5;stroke:#000000;stroke-linejoin:miter;stroke-width:1.2;"/>
   </g>
   <g id="patch_196">
    <path clip-path="url(#pab88cb2d2e)" d="M 408.995852 465.838125 
L 410.799489 465.838125 
L 410.799489 465.838125 
L 408.995852 465.838125 
z
" style="fill:#0000ff;fill-opacity:0.5;stroke:#000000;stroke-linejoin:miter;stroke-width:1.2;"/>
   </g>
   <g id="patch_197">
    <path clip-path="url(#pab88cb2d2e)" d="M 410.799489 465.838125 
L 412.603125 465.838125 
L 412.603125 465.838125 
L 410.799489 465.838125 
z
" style="fill:#0000ff;fill-opacity:0.5;stroke:#000000;stroke-linejoin:miter;stroke-width:1.2;"/>
   </g>
   <g id="patch_198">
    <path clip-path="url(#pab88cb2d2e)" d="M 412.603125 465.838125 
L 414.406761 465.838125 
L 414.406761 465.838125 
L 412.603125 465.838125 
z
" style="fill:#0000ff;fill-opacity:0.5;stroke:#000000;stroke-linejoin:miter;stroke-width:1.2;"/>
   </g>
   <g id="patch_199">
    <path clip-path="url(#pab88cb2d2e)" d="M 414.406761 465.838125 
L 416.210398 465.838125 
L 416.210398 465.838125 
L 414.406761 465.838125 
z
" style="fill:#0000ff;fill-opacity:0.5;stroke:#000000;stroke-linejoin:miter;stroke-width:1.2;"/>
   </g>
   <g id="patch_200">
    <path clip-path="url(#pab88cb2d2e)" d="M 416.210398 465.838125 
L 418.014034 465.838125 
L 418.014034 465.838125 
L 416.210398 465.838125 
z
" style="fill:#0000ff;fill-opacity:0.5;stroke:#000000;stroke-linejoin:miter;stroke-width:1.2;"/>
   </g>
   <g id="patch_201">
    <path clip-path="url(#pab88cb2d2e)" d="M 418.014034 465.838125 
L 419.81767 465.838125 
L 419.81767 465.838125 
L 418.014034 465.838125 
z
" style="fill:#0000ff;fill-opacity:0.5;stroke:#000000;stroke-linejoin:miter;stroke-width:1.2;"/>
   </g>
   <g id="patch_202">
    <path clip-path="url(#pab88cb2d2e)" d="M 419.81767 465.838125 
L 421.621307 465.838125 
L 421.621307 465.838125 
L 419.81767 465.838125 
z
" style="fill:#0000ff;fill-opacity:0.5;stroke:#000000;stroke-linejoin:miter;stroke-width:1.2;"/>
   </g>
   <g id="patch_203">
    <path clip-path="url(#pab88cb2d2e)" d="M 421.621307 465.838125 
L 423.424943 465.838125 
L 423.424943 465.838125 
L 421.621307 465.838125 
z
" style="fill:#0000ff;fill-opacity:0.5;stroke:#000000;stroke-linejoin:miter;stroke-width:1.2;"/>
   </g>
   <g id="patch_204">
    <path clip-path="url(#pab88cb2d2e)" d="M 423.424943 465.838125 
L 425.22858 465.838125 
L 425.22858 465.838125 
L 423.424943 465.838125 
z
" style="fill:#0000ff;fill-opacity:0.5;stroke:#000000;stroke-linejoin:miter;stroke-width:1.2;"/>
   </g>
   <g id="patch_205">
    <path clip-path="url(#pab88cb2d2e)" d="M 425.22858 465.838125 
L 427.032216 465.838125 
L 427.032216 465.838125 
L 425.22858 465.838125 
z
" style="fill:#0000ff;fill-opacity:0.5;stroke:#000000;stroke-linejoin:miter;stroke-width:1.2;"/>
   </g>
   <g id="patch_206">
    <path clip-path="url(#pab88cb2d2e)" d="M 427.032216 465.838125 
L 428.835852 465.838125 
L 428.835852 465.838125 
L 427.032216 465.838125 
z
" style="fill:#0000ff;fill-opacity:0.5;stroke:#000000;stroke-linejoin:miter;stroke-width:1.2;"/>
   </g>
   <g id="patch_207">
    <path clip-path="url(#pab88cb2d2e)" d="M 428.835852 465.838125 
L 430.639489 465.838125 
L 430.639489 465.838125 
L 428.835852 465.838125 
z
" style="fill:#0000ff;fill-opacity:0.5;stroke:#000000;stroke-linejoin:miter;stroke-width:1.2;"/>
   </g>
   <g id="patch_208">
    <path clip-path="url(#pab88cb2d2e)" d="M 430.639489 465.838125 
L 432.443125 465.838125 
L 432.443125 465.838125 
L 430.639489 465.838125 
z
" style="fill:#0000ff;fill-opacity:0.5;stroke:#000000;stroke-linejoin:miter;stroke-width:1.2;"/>
   </g>
   <g id="patch_209">
    <path clip-path="url(#pab88cb2d2e)" d="M 432.443125 465.838125 
L 434.246761 465.838125 
L 434.246761 465.838125 
L 432.443125 465.838125 
z
" style="fill:#0000ff;fill-opacity:0.5;stroke:#000000;stroke-linejoin:miter;stroke-width:1.2;"/>
   </g>
   <g id="patch_210">
    <path clip-path="url(#pab88cb2d2e)" d="M 434.246761 465.838125 
L 436.050398 465.838125 
L 436.050398 453.038125 
L 434.246761 453.038125 
z
" style="fill:#0000ff;fill-opacity:0.5;stroke:#000000;stroke-linejoin:miter;stroke-width:1.2;"/>
   </g>
   <g id="patch_211">
    <path clip-path="url(#pab88cb2d2e)" d="M 436.050398 465.838125 
L 437.854034 465.838125 
L 437.854034 465.838125 
L 436.050398 465.838125 
z
" style="fill:#0000ff;fill-opacity:0.5;stroke:#000000;stroke-linejoin:miter;stroke-width:1.2;"/>
   </g>
   <g id="patch_212">
    <path clip-path="url(#pab88cb2d2e)" d="M 437.854034 465.838125 
L 439.65767 465.838125 
L 439.65767 465.838125 
L 437.854034 465.838125 
z
" style="fill:#0000ff;fill-opacity:0.5;stroke:#000000;stroke-linejoin:miter;stroke-width:1.2;"/>
   </g>
   <g id="patch_213">
    <path clip-path="url(#pab88cb2d2e)" d="M 439.65767 465.838125 
L 441.461307 465.838125 
L 441.461307 465.838125 
L 439.65767 465.838125 
z
" style="fill:#0000ff;fill-opacity:0.5;stroke:#000000;stroke-linejoin:miter;stroke-width:1.2;"/>
   </g>
   <g id="patch_214">
    <path clip-path="url(#pab88cb2d2e)" d="M 441.461307 465.838125 
L 443.264943 465.838125 
L 443.264943 465.838125 
L 441.461307 465.838125 
z
" style="fill:#0000ff;fill-opacity:0.5;stroke:#000000;stroke-linejoin:miter;stroke-width:1.2;"/>
   </g>
   <g id="patch_215">
    <path clip-path="url(#pab88cb2d2e)" d="M 443.264943 465.838125 
L 445.06858 465.838125 
L 445.06858 465.838125 
L 443.264943 465.838125 
z
" style="fill:#0000ff;fill-opacity:0.5;stroke:#000000;stroke-linejoin:miter;stroke-width:1.2;"/>
   </g>
   <g id="patch_216">
    <path clip-path="url(#pab88cb2d2e)" d="M 445.06858 465.838125 
L 446.872216 465.838125 
L 446.872216 465.838125 
L 445.06858 465.838125 
z
" style="fill:#0000ff;fill-opacity:0.5;stroke:#000000;stroke-linejoin:miter;stroke-width:1.2;"/>
   </g>
   <g id="patch_217">
    <path clip-path="url(#pab88cb2d2e)" d="M 446.872216 465.838125 
L 448.675852 465.838125 
L 448.675852 453.038125 
L 446.872216 453.038125 
z
" style="fill:#0000ff;fill-opacity:0.5;stroke:#000000;stroke-linejoin:miter;stroke-width:1.2;"/>
   </g>
   <g id="patch_218">
    <path clip-path="url(#pab88cb2d2e)" d="M 448.675852 465.838125 
L 450.479489 465.838125 
L 450.479489 465.838125 
L 448.675852 465.838125 
z
" style="fill:#0000ff;fill-opacity:0.5;stroke:#000000;stroke-linejoin:miter;stroke-width:1.2;"/>
   </g>
   <g id="patch_219">
    <path clip-path="url(#pab88cb2d2e)" d="M 450.479489 465.838125 
L 452.283125 465.838125 
L 452.283125 465.838125 
L 450.479489 465.838125 
z
" style="fill:#0000ff;fill-opacity:0.5;stroke:#000000;stroke-linejoin:miter;stroke-width:1.2;"/>
   </g>
   <g id="patch_220">
    <path clip-path="url(#pab88cb2d2e)" d="M 452.283125 465.838125 
L 454.086761 465.838125 
L 454.086761 465.838125 
L 452.283125 465.838125 
z
" style="fill:#0000ff;fill-opacity:0.5;stroke:#000000;stroke-linejoin:miter;stroke-width:1.2;"/>
   </g>
   <g id="patch_221">
    <path clip-path="url(#pab88cb2d2e)" d="M 454.086761 465.838125 
L 455.890398 465.838125 
L 455.890398 465.838125 
L 454.086761 465.838125 
z
" style="fill:#0000ff;fill-opacity:0.5;stroke:#000000;stroke-linejoin:miter;stroke-width:1.2;"/>
   </g>
   <g id="patch_222">
    <path clip-path="url(#pab88cb2d2e)" d="M 455.890398 465.838125 
L 457.694034 465.838125 
L 457.694034 465.838125 
L 455.890398 465.838125 
z
" style="fill:#0000ff;fill-opacity:0.5;stroke:#000000;stroke-linejoin:miter;stroke-width:1.2;"/>
   </g>
   <g id="patch_223">
    <path clip-path="url(#pab88cb2d2e)" d="M 457.694034 465.838125 
L 459.49767 465.838125 
L 459.49767 465.838125 
L 457.694034 465.838125 
z
" style="fill:#0000ff;fill-opacity:0.5;stroke:#000000;stroke-linejoin:miter;stroke-width:1.2;"/>
   </g>
   <g id="patch_224">
    <path clip-path="url(#pab88cb2d2e)" d="M 459.49767 465.838125 
L 461.301307 465.838125 
L 461.301307 465.838125 
L 459.49767 465.838125 
z
" style="fill:#0000ff;fill-opacity:0.5;stroke:#000000;stroke-linejoin:miter;stroke-width:1.2;"/>
   </g>
   <g id="patch_225">
    <path clip-path="url(#pab88cb2d2e)" d="M 461.301307 465.838125 
L 463.104943 465.838125 
L 463.104943 465.838125 
L 461.301307 465.838125 
z
" style="fill:#0000ff;fill-opacity:0.5;stroke:#000000;stroke-linejoin:miter;stroke-width:1.2;"/>
   </g>
   <g id="patch_226">
    <path clip-path="url(#pab88cb2d2e)" d="M 463.104943 465.838125 
L 464.90858 465.838125 
L 464.90858 465.838125 
L 463.104943 465.838125 
z
" style="fill:#0000ff;fill-opacity:0.5;stroke:#000000;stroke-linejoin:miter;stroke-width:1.2;"/>
   </g>
   <g id="patch_227">
    <path clip-path="url(#pab88cb2d2e)" d="M 464.90858 465.838125 
L 466.712216 465.838125 
L 466.712216 465.838125 
L 464.90858 465.838125 
z
" style="fill:#0000ff;fill-opacity:0.5;stroke:#000000;stroke-linejoin:miter;stroke-width:1.2;"/>
   </g>
   <g id="matplotlib.axis_1">
    <g id="xtick_1">
     <g id="line2d_1">
      <path clip-path="url(#pab88cb2d2e)" d="M 100.751177 465.838125 
L 100.751177 22.318125 
" style="fill:none;stroke:#b0b0b0;stroke-linecap:square;stroke-width:0.8;"/>
     </g>
     <g id="line2d_2">
      <defs>
       <path d="M 0 0 
L 0 3.5 
" id="mc8b39ebaf3" style="stroke:#000000;stroke-width:0.8;"/>
      </defs>
      <g>
       <use style="stroke:#000000;stroke-width:0.8;" x="100.751177" xlink:href="#mc8b39ebaf3" y="465.838125"/>
      </g>
     </g>
     <g id="text_1">
      <!-- 50 -->
      <g transform="translate(94.388677 480.436562)scale(0.1 -0.1)">
       <defs>
        <path d="M 10.796875 72.90625 
L 49.515625 72.90625 
L 49.515625 64.59375 
L 19.828125 64.59375 
L 19.828125 46.734375 
Q 21.96875 47.46875 24.109375 47.828125 
Q 26.265625 48.1875 28.421875 48.1875 
Q 40.625 48.1875 47.75 41.5 
Q 54.890625 34.8125 54.890625 23.390625 
Q 54.890625 11.625 47.5625 5.09375 
Q 40.234375 -1.421875 26.90625 -1.421875 
Q 22.3125 -1.421875 17.546875 -0.640625 
Q 12.796875 0.140625 7.71875 1.703125 
L 7.71875 11.625 
Q 12.109375 9.234375 16.796875 8.0625 
Q 21.484375 6.890625 26.703125 6.890625 
Q 35.15625 6.890625 40.078125 11.328125 
Q 45.015625 15.765625 45.015625 23.390625 
Q 45.015625 31 40.078125 35.4375 
Q 35.15625 39.890625 26.703125 39.890625 
Q 22.75 39.890625 18.8125 39.015625 
Q 14.890625 38.140625 10.796875 36.28125 
z
" id="DejaVuSans-53"/>
        <path d="M 31.78125 66.40625 
Q 24.171875 66.40625 20.328125 58.90625 
Q 16.5 51.421875 16.5 36.375 
Q 16.5 21.390625 20.328125 13.890625 
Q 24.171875 6.390625 31.78125 6.390625 
Q 39.453125 6.390625 43.28125 13.890625 
Q 47.125 21.390625 47.125 36.375 
Q 47.125 51.421875 43.28125 58.90625 
Q 39.453125 66.40625 31.78125 66.40625 
z
M 31.78125 74.21875 
Q 44.046875 74.21875 50.515625 64.515625 
Q 56.984375 54.828125 56.984375 36.375 
Q 56.984375 17.96875 50.515625 8.265625 
Q 44.046875 -1.421875 31.78125 -1.421875 
Q 19.53125 -1.421875 13.0625 8.265625 
Q 6.59375 17.96875 6.59375 36.375 
Q 6.59375 54.828125 13.0625 64.515625 
Q 19.53125 74.21875 31.78125 74.21875 
z
" id="DejaVuSans-48"/>
       </defs>
       <use xlink:href="#DejaVuSans-53"/>
       <use x="63.623047" xlink:href="#DejaVuSans-48"/>
      </g>
     </g>
    </g>
    <g id="xtick_2">
     <g id="line2d_3">
      <path clip-path="url(#pab88cb2d2e)" d="M 191.335593 465.838125 
L 191.335593 22.318125 
" style="fill:none;stroke:#b0b0b0;stroke-linecap:square;stroke-width:0.8;"/>
     </g>
     <g id="line2d_4">
      <g>
       <use style="stroke:#000000;stroke-width:0.8;" x="191.335593" xlink:href="#mc8b39ebaf3" y="465.838125"/>
      </g>
     </g>
     <g id="text_2">
      <!-- 100 -->
      <g transform="translate(181.791843 480.436562)scale(0.1 -0.1)">
       <defs>
        <path d="M 12.40625 8.296875 
L 28.515625 8.296875 
L 28.515625 63.921875 
L 10.984375 60.40625 
L 10.984375 69.390625 
L 28.421875 72.90625 
L 38.28125 72.90625 
L 38.28125 8.296875 
L 54.390625 8.296875 
L 54.390625 0 
L 12.40625 0 
z
" id="DejaVuSans-49"/>
       </defs>
       <use xlink:href="#DejaVuSans-49"/>
       <use x="63.623047" xlink:href="#DejaVuSans-48"/>
       <use x="127.246094" xlink:href="#DejaVuSans-48"/>
      </g>
     </g>
    </g>
    <g id="xtick_3">
     <g id="line2d_5">
      <path clip-path="url(#pab88cb2d2e)" d="M 281.920008 465.838125 
L 281.920008 22.318125 
" style="fill:none;stroke:#b0b0b0;stroke-linecap:square;stroke-width:0.8;"/>
     </g>
     <g id="line2d_6">
      <g>
       <use style="stroke:#000000;stroke-width:0.8;" x="281.920008" xlink:href="#mc8b39ebaf3" y="465.838125"/>
      </g>
     </g>
     <g id="text_3">
      <!-- 150 -->
      <g transform="translate(272.376258 480.436562)scale(0.1 -0.1)">
       <use xlink:href="#DejaVuSans-49"/>
       <use x="63.623047" xlink:href="#DejaVuSans-53"/>
       <use x="127.246094" xlink:href="#DejaVuSans-48"/>
      </g>
     </g>
    </g>
    <g id="xtick_4">
     <g id="line2d_7">
      <path clip-path="url(#pab88cb2d2e)" d="M 372.504424 465.838125 
L 372.504424 22.318125 
" style="fill:none;stroke:#b0b0b0;stroke-linecap:square;stroke-width:0.8;"/>
     </g>
     <g id="line2d_8">
      <g>
       <use style="stroke:#000000;stroke-width:0.8;" x="372.504424" xlink:href="#mc8b39ebaf3" y="465.838125"/>
      </g>
     </g>
     <g id="text_4">
      <!-- 200 -->
      <g transform="translate(362.960674 480.436562)scale(0.1 -0.1)">
       <defs>
        <path d="M 19.1875 8.296875 
L 53.609375 8.296875 
L 53.609375 0 
L 7.328125 0 
L 7.328125 8.296875 
Q 12.9375 14.109375 22.625 23.890625 
Q 32.328125 33.6875 34.8125 36.53125 
Q 39.546875 41.84375 41.421875 45.53125 
Q 43.3125 49.21875 43.3125 52.78125 
Q 43.3125 58.59375 39.234375 62.25 
Q 35.15625 65.921875 28.609375 65.921875 
Q 23.96875 65.921875 18.8125 64.3125 
Q 13.671875 62.703125 7.8125 59.421875 
L 7.8125 69.390625 
Q 13.765625 71.78125 18.9375 73 
Q 24.125 74.21875 28.421875 74.21875 
Q 39.75 74.21875 46.484375 68.546875 
Q 53.21875 62.890625 53.21875 53.421875 
Q 53.21875 48.921875 51.53125 44.890625 
Q 49.859375 40.875 45.40625 35.40625 
Q 44.1875 33.984375 37.640625 27.21875 
Q 31.109375 20.453125 19.1875 8.296875 
z
" id="DejaVuSans-50"/>
       </defs>
       <use xlink:href="#DejaVuSans-50"/>
       <use x="63.623047" xlink:href="#DejaVuSans-48"/>
       <use x="127.246094" xlink:href="#DejaVuSans-48"/>
      </g>
     </g>
    </g>
    <g id="xtick_5">
     <g id="line2d_9">
      <path clip-path="url(#pab88cb2d2e)" d="M 463.088839 465.838125 
L 463.088839 22.318125 
" style="fill:none;stroke:#b0b0b0;stroke-linecap:square;stroke-width:0.8;"/>
     </g>
     <g id="line2d_10">
      <g>
       <use style="stroke:#000000;stroke-width:0.8;" x="463.088839" xlink:href="#mc8b39ebaf3" y="465.838125"/>
      </g>
     </g>
     <g id="text_5">
      <!-- 250 -->
      <g transform="translate(453.545089 480.436562)scale(0.1 -0.1)">
       <use xlink:href="#DejaVuSans-50"/>
       <use x="63.623047" xlink:href="#DejaVuSans-53"/>
       <use x="127.246094" xlink:href="#DejaVuSans-48"/>
      </g>
     </g>
    </g>
    <g id="text_6">
     <!-- Channel_out [ADC code] -->
     <g transform="translate(202.686719 494.114687)scale(0.1 -0.1)">
      <defs>
       <path d="M 64.40625 67.28125 
L 64.40625 56.890625 
Q 59.421875 61.53125 53.78125 63.8125 
Q 48.140625 66.109375 41.796875 66.109375 
Q 29.296875 66.109375 22.65625 58.46875 
Q 16.015625 50.828125 16.015625 36.375 
Q 16.015625 21.96875 22.65625 14.328125 
Q 29.296875 6.6875 41.796875 6.6875 
Q 48.140625 6.6875 53.78125 8.984375 
Q 59.421875 11.28125 64.40625 15.921875 
L 64.40625 5.609375 
Q 59.234375 2.09375 53.4375 0.328125 
Q 47.65625 -1.421875 41.21875 -1.421875 
Q 24.65625 -1.421875 15.125 8.703125 
Q 5.609375 18.84375 5.609375 36.375 
Q 5.609375 53.953125 15.125 64.078125 
Q 24.65625 74.21875 41.21875 74.21875 
Q 47.75 74.21875 53.53125 72.484375 
Q 59.328125 70.75 64.40625 67.28125 
z
" id="DejaVuSans-67"/>
       <path d="M 54.890625 33.015625 
L 54.890625 0 
L 45.90625 0 
L 45.90625 32.71875 
Q 45.90625 40.484375 42.875 44.328125 
Q 39.84375 48.1875 33.796875 48.1875 
Q 26.515625 48.1875 22.3125 43.546875 
Q 18.109375 38.921875 18.109375 30.90625 
L 18.109375 0 
L 9.078125 0 
L 9.078125 75.984375 
L 18.109375 75.984375 
L 18.109375 46.1875 
Q 21.34375 51.125 25.703125 53.5625 
Q 30.078125 56 35.796875 56 
Q 45.21875 56 50.046875 50.171875 
Q 54.890625 44.34375 54.890625 33.015625 
z
" id="DejaVuSans-104"/>
       <path d="M 34.28125 27.484375 
Q 23.390625 27.484375 19.1875 25 
Q 14.984375 22.515625 14.984375 16.5 
Q 14.984375 11.71875 18.140625 8.90625 
Q 21.296875 6.109375 26.703125 6.109375 
Q 34.1875 6.109375 38.703125 11.40625 
Q 43.21875 16.703125 43.21875 25.484375 
L 43.21875 27.484375 
z
M 52.203125 31.203125 
L 52.203125 0 
L 43.21875 0 
L 43.21875 8.296875 
Q 40.140625 3.328125 35.546875 0.953125 
Q 30.953125 -1.421875 24.3125 -1.421875 
Q 15.921875 -1.421875 10.953125 3.296875 
Q 6 8.015625 6 15.921875 
Q 6 25.140625 12.171875 29.828125 
Q 18.359375 34.515625 30.609375 34.515625 
L 43.21875 34.515625 
L 43.21875 35.40625 
Q 43.21875 41.609375 39.140625 45 
Q 35.0625 48.390625 27.6875 48.390625 
Q 23 48.390625 18.546875 47.265625 
Q 14.109375 46.140625 10.015625 43.890625 
L 10.015625 52.203125 
Q 14.9375 54.109375 19.578125 55.046875 
Q 24.21875 56 28.609375 56 
Q 40.484375 56 46.34375 49.84375 
Q 52.203125 43.703125 52.203125 31.203125 
z
" id="DejaVuSans-97"/>
       <path d="M 54.890625 33.015625 
L 54.890625 0 
L 45.90625 0 
L 45.90625 32.71875 
Q 45.90625 40.484375 42.875 44.328125 
Q 39.84375 48.1875 33.796875 48.1875 
Q 26.515625 48.1875 22.3125 43.546875 
Q 18.109375 38.921875 18.109375 30.90625 
L 18.109375 0 
L 9.078125 0 
L 9.078125 54.6875 
L 18.109375 54.6875 
L 18.109375 46.1875 
Q 21.34375 51.125 25.703125 53.5625 
Q 30.078125 56 35.796875 56 
Q 45.21875 56 50.046875 50.171875 
Q 54.890625 44.34375 54.890625 33.015625 
z
" id="DejaVuSans-110"/>
       <path d="M 56.203125 29.59375 
L 56.203125 25.203125 
L 14.890625 25.203125 
Q 15.484375 15.921875 20.484375 11.0625 
Q 25.484375 6.203125 34.421875 6.203125 
Q 39.59375 6.203125 44.453125 7.46875 
Q 49.3125 8.734375 54.109375 11.28125 
L 54.109375 2.78125 
Q 49.265625 0.734375 44.1875 -0.34375 
Q 39.109375 -1.421875 33.890625 -1.421875 
Q 20.796875 -1.421875 13.15625 6.1875 
Q 5.515625 13.8125 5.515625 26.8125 
Q 5.515625 40.234375 12.765625 48.109375 
Q 20.015625 56 32.328125 56 
Q 43.359375 56 49.78125 48.890625 
Q 56.203125 41.796875 56.203125 29.59375 
z
M 47.21875 32.234375 
Q 47.125 39.59375 43.09375 43.984375 
Q 39.0625 48.390625 32.421875 48.390625 
Q 24.90625 48.390625 20.390625 44.140625 
Q 15.875 39.890625 15.1875 32.171875 
z
" id="DejaVuSans-101"/>
       <path d="M 9.421875 75.984375 
L 18.40625 75.984375 
L 18.40625 0 
L 9.421875 0 
z
" id="DejaVuSans-108"/>
       <path d="M 50.984375 -16.609375 
L 50.984375 -23.578125 
L -0.984375 -23.578125 
L -0.984375 -16.609375 
z
" id="DejaVuSans-95"/>
       <path d="M 30.609375 48.390625 
Q 23.390625 48.390625 19.1875 42.75 
Q 14.984375 37.109375 14.984375 27.296875 
Q 14.984375 17.484375 19.15625 11.84375 
Q 23.34375 6.203125 30.609375 6.203125 
Q 37.796875 6.203125 41.984375 11.859375 
Q 46.1875 17.53125 46.1875 27.296875 
Q 46.1875 37.015625 41.984375 42.703125 
Q 37.796875 48.390625 30.609375 48.390625 
z
M 30.609375 56 
Q 42.328125 56 49.015625 48.375 
Q 55.71875 40.765625 55.71875 27.296875 
Q 55.71875 13.875 49.015625 6.21875 
Q 42.328125 -1.421875 30.609375 -1.421875 
Q 18.84375 -1.421875 12.171875 6.21875 
Q 5.515625 13.875 5.515625 27.296875 
Q 5.515625 40.765625 12.171875 48.375 
Q 18.84375 56 30.609375 56 
z
" id="DejaVuSans-111"/>
       <path d="M 8.5 21.578125 
L 8.5 54.6875 
L 17.484375 54.6875 
L 17.484375 21.921875 
Q 17.484375 14.15625 20.5 10.265625 
Q 23.53125 6.390625 29.59375 6.390625 
Q 36.859375 6.390625 41.078125 11.03125 
Q 45.3125 15.671875 45.3125 23.6875 
L 45.3125 54.6875 
L 54.296875 54.6875 
L 54.296875 0 
L 45.3125 0 
L 45.3125 8.40625 
Q 42.046875 3.421875 37.71875 1 
Q 33.40625 -1.421875 27.6875 -1.421875 
Q 18.265625 -1.421875 13.375 4.4375 
Q 8.5 10.296875 8.5 21.578125 
z
M 31.109375 56 
z
" id="DejaVuSans-117"/>
       <path d="M 18.3125 70.21875 
L 18.3125 54.6875 
L 36.8125 54.6875 
L 36.8125 47.703125 
L 18.3125 47.703125 
L 18.3125 18.015625 
Q 18.3125 11.328125 20.140625 9.421875 
Q 21.96875 7.515625 27.59375 7.515625 
L 36.8125 7.515625 
L 36.8125 0 
L 27.59375 0 
Q 17.1875 0 13.234375 3.875 
Q 9.28125 7.765625 9.28125 18.015625 
L 9.28125 47.703125 
L 2.6875 47.703125 
L 2.6875 54.6875 
L 9.28125 54.6875 
L 9.28125 70.21875 
z
" id="DejaVuSans-116"/>
       <path id="DejaVuSans-32"/>
       <path d="M 8.59375 75.984375 
L 29.296875 75.984375 
L 29.296875 69 
L 17.578125 69 
L 17.578125 -6.203125 
L 29.296875 -6.203125 
L 29.296875 -13.1875 
L 8.59375 -13.1875 
z
" id="DejaVuSans-91"/>
       <path d="M 34.1875 63.1875 
L 20.796875 26.90625 
L 47.609375 26.90625 
z
M 28.609375 72.90625 
L 39.796875 72.90625 
L 67.578125 0 
L 57.328125 0 
L 50.6875 18.703125 
L 17.828125 18.703125 
L 11.1875 0 
L 0.78125 0 
z
" id="DejaVuSans-65"/>
       <path d="M 19.671875 64.796875 
L 19.671875 8.109375 
L 31.59375 8.109375 
Q 46.6875 8.109375 53.6875 14.9375 
Q 60.6875 21.78125 60.6875 36.53125 
Q 60.6875 51.171875 53.6875 57.984375 
Q 46.6875 64.796875 31.59375 64.796875 
z
M 9.8125 72.90625 
L 30.078125 72.90625 
Q 51.265625 72.90625 61.171875 64.09375 
Q 71.09375 55.28125 71.09375 36.53125 
Q 71.09375 17.671875 61.125 8.828125 
Q 51.171875 0 30.078125 0 
L 9.8125 0 
z
" id="DejaVuSans-68"/>
       <path d="M 48.78125 52.59375 
L 48.78125 44.1875 
Q 44.96875 46.296875 41.140625 47.34375 
Q 37.3125 48.390625 33.40625 48.390625 
Q 24.65625 48.390625 19.8125 42.84375 
Q 14.984375 37.3125 14.984375 27.296875 
Q 14.984375 17.28125 19.8125 11.734375 
Q 24.65625 6.203125 33.40625 6.203125 
Q 37.3125 6.203125 41.140625 7.25 
Q 44.96875 8.296875 48.78125 10.40625 
L 48.78125 2.09375 
Q 45.015625 0.34375 40.984375 -0.53125 
Q 36.96875 -1.421875 32.421875 -1.421875 
Q 20.0625 -1.421875 12.78125 6.34375 
Q 5.515625 14.109375 5.515625 27.296875 
Q 5.515625 40.671875 12.859375 48.328125 
Q 20.21875 56 33.015625 56 
Q 37.15625 56 41.109375 55.140625 
Q 45.0625 54.296875 48.78125 52.59375 
z
" id="DejaVuSans-99"/>
       <path d="M 45.40625 46.390625 
L 45.40625 75.984375 
L 54.390625 75.984375 
L 54.390625 0 
L 45.40625 0 
L 45.40625 8.203125 
Q 42.578125 3.328125 38.25 0.953125 
Q 33.9375 -1.421875 27.875 -1.421875 
Q 17.96875 -1.421875 11.734375 6.484375 
Q 5.515625 14.40625 5.515625 27.296875 
Q 5.515625 40.1875 11.734375 48.09375 
Q 17.96875 56 27.875 56 
Q 33.9375 56 38.25 53.625 
Q 42.578125 51.265625 45.40625 46.390625 
z
M 14.796875 27.296875 
Q 14.796875 17.390625 18.875 11.75 
Q 22.953125 6.109375 30.078125 6.109375 
Q 37.203125 6.109375 41.296875 11.75 
Q 45.40625 17.390625 45.40625 27.296875 
Q 45.40625 37.203125 41.296875 42.84375 
Q 37.203125 48.484375 30.078125 48.484375 
Q 22.953125 48.484375 18.875 42.84375 
Q 14.796875 37.203125 14.796875 27.296875 
z
" id="DejaVuSans-100"/>
       <path d="M 30.421875 75.984375 
L 30.421875 -13.1875 
L 9.71875 -13.1875 
L 9.71875 -6.203125 
L 21.390625 -6.203125 
L 21.390625 69 
L 9.71875 69 
L 9.71875 75.984375 
z
" id="DejaVuSans-93"/>
      </defs>
      <use xlink:href="#DejaVuSans-67"/>
      <use x="69.824219" xlink:href="#DejaVuSans-104"/>
      <use x="133.203125" xlink:href="#DejaVuSans-97"/>
      <use x="194.482422" xlink:href="#DejaVuSans-110"/>
      <use x="257.861328" xlink:href="#DejaVuSans-110"/>
      <use x="321.240234" xlink:href="#DejaVuSans-101"/>
      <use x="382.763672" xlink:href="#DejaVuSans-108"/>
      <use x="410.546875" xlink:href="#DejaVuSans-95"/>
      <use x="460.546875" xlink:href="#DejaVuSans-111"/>
      <use x="521.728516" xlink:href="#DejaVuSans-117"/>
      <use x="585.107422" xlink:href="#DejaVuSans-116"/>
      <use x="624.316406" xlink:href="#DejaVuSans-32"/>
      <use x="656.103516" xlink:href="#DejaVuSans-91"/>
      <use x="695.117188" xlink:href="#DejaVuSans-65"/>
      <use x="763.525391" xlink:href="#DejaVuSans-68"/>
      <use x="840.527344" xlink:href="#DejaVuSans-67"/>
      <use x="910.351562" xlink:href="#DejaVuSans-32"/>
      <use x="942.138672" xlink:href="#DejaVuSans-99"/>
      <use x="997.119141" xlink:href="#DejaVuSans-111"/>
      <use x="1058.300781" xlink:href="#DejaVuSans-100"/>
      <use x="1121.777344" xlink:href="#DejaVuSans-101"/>
      <use x="1183.300781" xlink:href="#DejaVuSans-93"/>
     </g>
    </g>
   </g>
   <g id="matplotlib.axis_2">
    <g id="ytick_1">
     <g id="line2d_11">
      <path clip-path="url(#pab88cb2d2e)" d="M 40.603125 465.838125 
L 487.003125 465.838125 
" style="fill:none;stroke:#b0b0b0;stroke-linecap:square;stroke-width:0.8;"/>
     </g>
     <g id="line2d_12">
      <defs>
       <path d="M 0 0 
L -3.5 0 
" id="mefe8c36833" style="stroke:#000000;stroke-width:0.8;"/>
      </defs>
      <g>
       <use style="stroke:#000000;stroke-width:0.8;" x="40.603125" xlink:href="#mefe8c36833" y="465.838125"/>
      </g>
     </g>
     <g id="text_7">
      <!-- 0 -->
      <g transform="translate(27.240625 469.637344)scale(0.1 -0.1)">
       <use xlink:href="#DejaVuSans-48"/>
      </g>
     </g>
    </g>
    <g id="ytick_2">
     <g id="line2d_13">
      <path clip-path="url(#pab88cb2d2e)" d="M 40.603125 401.838125 
L 487.003125 401.838125 
" style="fill:none;stroke:#b0b0b0;stroke-linecap:square;stroke-width:0.8;"/>
     </g>
     <g id="line2d_14">
      <g>
       <use style="stroke:#000000;stroke-width:0.8;" x="40.603125" xlink:href="#mefe8c36833" y="401.838125"/>
      </g>
     </g>
     <g id="text_8">
      <!-- 5 -->
      <g transform="translate(27.240625 405.637344)scale(0.1 -0.1)">
       <use xlink:href="#DejaVuSans-53"/>
      </g>
     </g>
    </g>
    <g id="ytick_3">
     <g id="line2d_15">
      <path clip-path="url(#pab88cb2d2e)" d="M 40.603125 337.838125 
L 487.003125 337.838125 
" style="fill:none;stroke:#b0b0b0;stroke-linecap:square;stroke-width:0.8;"/>
     </g>
     <g id="line2d_16">
      <g>
       <use style="stroke:#000000;stroke-width:0.8;" x="40.603125" xlink:href="#mefe8c36833" y="337.838125"/>
      </g>
     </g>
     <g id="text_9">
      <!-- 10 -->
      <g transform="translate(20.878125 341.637344)scale(0.1 -0.1)">
       <use xlink:href="#DejaVuSans-49"/>
       <use x="63.623047" xlink:href="#DejaVuSans-48"/>
      </g>
     </g>
    </g>
    <g id="ytick_4">
     <g id="line2d_17">
      <path clip-path="url(#pab88cb2d2e)" d="M 40.603125 273.838125 
L 487.003125 273.838125 
" style="fill:none;stroke:#b0b0b0;stroke-linecap:square;stroke-width:0.8;"/>
     </g>
     <g id="line2d_18">
      <g>
       <use style="stroke:#000000;stroke-width:0.8;" x="40.603125" xlink:href="#mefe8c36833" y="273.838125"/>
      </g>
     </g>
     <g id="text_10">
      <!-- 15 -->
      <g transform="translate(20.878125 277.637344)scale(0.1 -0.1)">
       <use xlink:href="#DejaVuSans-49"/>
       <use x="63.623047" xlink:href="#DejaVuSans-53"/>
      </g>
     </g>
    </g>
    <g id="ytick_5">
     <g id="line2d_19">
      <path clip-path="url(#pab88cb2d2e)" d="M 40.603125 209.838125 
L 487.003125 209.838125 
" style="fill:none;stroke:#b0b0b0;stroke-linecap:square;stroke-width:0.8;"/>
     </g>
     <g id="line2d_20">
      <g>
       <use style="stroke:#000000;stroke-width:0.8;" x="40.603125" xlink:href="#mefe8c36833" y="209.838125"/>
      </g>
     </g>
     <g id="text_11">
      <!-- 20 -->
      <g transform="translate(20.878125 213.637344)scale(0.1 -0.1)">
       <use xlink:href="#DejaVuSans-50"/>
       <use x="63.623047" xlink:href="#DejaVuSans-48"/>
      </g>
     </g>
    </g>
    <g id="ytick_6">
     <g id="line2d_21">
      <path clip-path="url(#pab88cb2d2e)" d="M 40.603125 145.838125 
L 487.003125 145.838125 
" style="fill:none;stroke:#b0b0b0;stroke-linecap:square;stroke-width:0.8;"/>
     </g>
     <g id="line2d_22">
      <g>
       <use style="stroke:#000000;stroke-width:0.8;" x="40.603125" xlink:href="#mefe8c36833" y="145.838125"/>
      </g>
     </g>
     <g id="text_12">
      <!-- 25 -->
      <g transform="translate(20.878125 149.637344)scale(0.1 -0.1)">
       <use xlink:href="#DejaVuSans-50"/>
       <use x="63.623047" xlink:href="#DejaVuSans-53"/>
      </g>
     </g>
    </g>
    <g id="ytick_7">
     <g id="line2d_23">
      <path clip-path="url(#pab88cb2d2e)" d="M 40.603125 81.838125 
L 487.003125 81.838125 
" style="fill:none;stroke:#b0b0b0;stroke-linecap:square;stroke-width:0.8;"/>
     </g>
     <g id="line2d_24">
      <g>
       <use style="stroke:#000000;stroke-width:0.8;" x="40.603125" xlink:href="#mefe8c36833" y="81.838125"/>
      </g>
     </g>
     <g id="text_13">
      <!-- 30 -->
      <g transform="translate(20.878125 85.637344)scale(0.1 -0.1)">
       <defs>
        <path d="M 40.578125 39.3125 
Q 47.65625 37.796875 51.625 33 
Q 55.609375 28.21875 55.609375 21.1875 
Q 55.609375 10.40625 48.1875 4.484375 
Q 40.765625 -1.421875 27.09375 -1.421875 
Q 22.515625 -1.421875 17.65625 -0.515625 
Q 12.796875 0.390625 7.625 2.203125 
L 7.625 11.71875 
Q 11.71875 9.328125 16.59375 8.109375 
Q 21.484375 6.890625 26.8125 6.890625 
Q 36.078125 6.890625 40.9375 10.546875 
Q 45.796875 14.203125 45.796875 21.1875 
Q 45.796875 27.640625 41.28125 31.265625 
Q 36.765625 34.90625 28.71875 34.90625 
L 20.21875 34.90625 
L 20.21875 43.015625 
L 29.109375 43.015625 
Q 36.375 43.015625 40.234375 45.921875 
Q 44.09375 48.828125 44.09375 54.296875 
Q 44.09375 59.90625 40.109375 62.90625 
Q 36.140625 65.921875 28.71875 65.921875 
Q 24.65625 65.921875 20.015625 65.03125 
Q 15.375 64.15625 9.8125 62.3125 
L 9.8125 71.09375 
Q 15.4375 72.65625 20.34375 73.4375 
Q 25.25 74.21875 29.59375 74.21875 
Q 40.828125 74.21875 47.359375 69.109375 
Q 53.90625 64.015625 53.90625 55.328125 
Q 53.90625 49.265625 50.4375 45.09375 
Q 46.96875 40.921875 40.578125 39.3125 
z
" id="DejaVuSans-51"/>
       </defs>
       <use xlink:href="#DejaVuSans-51"/>
       <use x="63.623047" xlink:href="#DejaVuSans-48"/>
      </g>
     </g>
    </g>
    <g id="text_14">
     <!-- Counts -->
     <g transform="translate(14.798437 261.53125)rotate(-90)scale(0.1 -0.1)">
      <defs>
       <path d="M 44.28125 53.078125 
L 44.28125 44.578125 
Q 40.484375 46.53125 36.375 47.5 
Q 32.28125 48.484375 27.875 48.484375 
Q 21.1875 48.484375 17.84375 46.4375 
Q 14.5 44.390625 14.5 40.28125 
Q 14.5 37.15625 16.890625 35.375 
Q 19.28125 33.59375 26.515625 31.984375 
L 29.59375 31.296875 
Q 39.15625 29.25 43.1875 25.515625 
Q 47.21875 21.78125 47.21875 15.09375 
Q 47.21875 7.46875 41.1875 3.015625 
Q 35.15625 -1.421875 24.609375 -1.421875 
Q 20.21875 -1.421875 15.453125 -0.5625 
Q 10.6875 0.296875 5.421875 2 
L 5.421875 11.28125 
Q 10.40625 8.6875 15.234375 7.390625 
Q 20.0625 6.109375 24.8125 6.109375 
Q 31.15625 6.109375 34.5625 8.28125 
Q 37.984375 10.453125 37.984375 14.40625 
Q 37.984375 18.0625 35.515625 20.015625 
Q 33.0625 21.96875 24.703125 23.78125 
L 21.578125 24.515625 
Q 13.234375 26.265625 9.515625 29.90625 
Q 5.8125 33.546875 5.8125 39.890625 
Q 5.8125 47.609375 11.28125 51.796875 
Q 16.75 56 26.8125 56 
Q 31.78125 56 36.171875 55.265625 
Q 40.578125 54.546875 44.28125 53.078125 
z
" id="DejaVuSans-115"/>
      </defs>
      <use xlink:href="#DejaVuSans-67"/>
      <use x="69.824219" xlink:href="#DejaVuSans-111"/>
      <use x="131.005859" xlink:href="#DejaVuSans-117"/>
      <use x="194.384766" xlink:href="#DejaVuSans-110"/>
      <use x="257.763672" xlink:href="#DejaVuSans-116"/>
      <use x="296.972656" xlink:href="#DejaVuSans-115"/>
     </g>
    </g>
   </g>
   <g id="patch_228">
    <path d="M 40.603125 465.838125 
L 40.603125 22.318125 
" style="fill:none;stroke:#000000;stroke-linecap:square;stroke-linejoin:miter;stroke-width:0.8;"/>
   </g>
   <g id="patch_229">
    <path d="M 487.003125 465.838125 
L 487.003125 22.318125 
" style="fill:none;stroke:#000000;stroke-linecap:square;stroke-linejoin:miter;stroke-width:0.8;"/>
   </g>
   <g id="patch_230">
    <path d="M 40.603125 465.838125 
L 487.003125 465.838125 
" style="fill:none;stroke:#000000;stroke-linecap:square;stroke-linejoin:miter;stroke-width:0.8;"/>
   </g>
   <g id="patch_231">
    <path d="M 40.603125 22.318125 
L 487.003125 22.318125 
" style="fill:none;stroke:#000000;stroke-linecap:square;stroke-linejoin:miter;stroke-width:0.8;"/>
   </g>
   <g id="text_15">
    <!-- Pedestal of channel #21 -->
    <g transform="translate(190.479375 16.318125)scale(0.12 -0.12)">
     <defs>
      <path d="M 19.671875 64.796875 
L 19.671875 37.40625 
L 32.078125 37.40625 
Q 38.96875 37.40625 42.71875 40.96875 
Q 46.484375 44.53125 46.484375 51.125 
Q 46.484375 57.671875 42.71875 61.234375 
Q 38.96875 64.796875 32.078125 64.796875 
z
M 9.8125 72.90625 
L 32.078125 72.90625 
Q 44.34375 72.90625 50.609375 67.359375 
Q 56.890625 61.8125 56.890625 51.125 
Q 56.890625 40.328125 50.609375 34.8125 
Q 44.34375 29.296875 32.078125 29.296875 
L 19.671875 29.296875 
L 19.671875 0 
L 9.8125 0 
z
" id="DejaVuSans-80"/>
      <path d="M 37.109375 75.984375 
L 37.109375 68.5 
L 28.515625 68.5 
Q 23.6875 68.5 21.796875 66.546875 
Q 19.921875 64.59375 19.921875 59.515625 
L 19.921875 54.6875 
L 34.71875 54.6875 
L 34.71875 47.703125 
L 19.921875 47.703125 
L 19.921875 0 
L 10.890625 0 
L 10.890625 47.703125 
L 2.296875 47.703125 
L 2.296875 54.6875 
L 10.890625 54.6875 
L 10.890625 58.5 
Q 10.890625 67.625 15.140625 71.796875 
Q 19.390625 75.984375 28.609375 75.984375 
z
" id="DejaVuSans-102"/>
      <path d="M 51.125 44 
L 36.921875 44 
L 32.8125 27.6875 
L 47.125 27.6875 
z
M 43.796875 71.78125 
L 38.71875 51.515625 
L 52.984375 51.515625 
L 58.109375 71.78125 
L 65.921875 71.78125 
L 60.890625 51.515625 
L 76.125 51.515625 
L 76.125 44 
L 58.984375 44 
L 54.984375 27.6875 
L 70.515625 27.6875 
L 70.515625 20.21875 
L 53.078125 20.21875 
L 48 0 
L 40.1875 0 
L 45.21875 20.21875 
L 30.90625 20.21875 
L 25.875 0 
L 18.015625 0 
L 23.09375 20.21875 
L 7.71875 20.21875 
L 7.71875 27.6875 
L 24.90625 27.6875 
L 29 44 
L 13.28125 44 
L 13.28125 51.515625 
L 30.90625 51.515625 
L 35.890625 71.78125 
z
" id="DejaVuSans-35"/>
     </defs>
     <use xlink:href="#DejaVuSans-80"/>
     <use x="56.677734" xlink:href="#DejaVuSans-101"/>
     <use x="118.201172" xlink:href="#DejaVuSans-100"/>
     <use x="181.677734" xlink:href="#DejaVuSans-101"/>
     <use x="243.201172" xlink:href="#DejaVuSans-115"/>
     <use x="295.300781" xlink:href="#DejaVuSans-116"/>
     <use x="334.509766" xlink:href="#DejaVuSans-97"/>
     <use x="395.789062" xlink:href="#DejaVuSans-108"/>
     <use x="423.572266" xlink:href="#DejaVuSans-32"/>
     <use x="455.359375" xlink:href="#DejaVuSans-111"/>
     <use x="516.541016" xlink:href="#DejaVuSans-102"/>
     <use x="551.746094" xlink:href="#DejaVuSans-32"/>
     <use x="583.533203" xlink:href="#DejaVuSans-99"/>
     <use x="638.513672" xlink:href="#DejaVuSans-104"/>
     <use x="701.892578" xlink:href="#DejaVuSans-97"/>
     <use x="763.171875" xlink:href="#DejaVuSans-110"/>
     <use x="826.550781" xlink:href="#DejaVuSans-110"/>
     <use x="889.929688" xlink:href="#DejaVuSans-101"/>
     <use x="951.453125" xlink:href="#DejaVuSans-108"/>
     <use x="979.236328" xlink:href="#DejaVuSans-32"/>
     <use x="1011.023438" xlink:href="#DejaVuSans-35"/>
     <use x="1094.8125" xlink:href="#DejaVuSans-50"/>
     <use x="1158.435547" xlink:href="#DejaVuSans-49"/>
    </g>
   </g>
   <g id="legend_1">
    <g id="patch_232">
     <path d="M 491.367125 252.928125 
L 656.867125 252.928125 
Q 658.867125 252.928125 658.867125 250.928125 
L 658.867125 237.228125 
Q 658.867125 235.228125 656.867125 235.228125 
L 491.367125 235.228125 
Q 489.367125 235.228125 489.367125 237.228125 
L 489.367125 250.928125 
Q 489.367125 252.928125 491.367125 252.928125 
z
" style="fill:#ffffff;opacity:0.8;stroke:#cccccc;stroke-linejoin:miter;"/>
    </g>
    <g id="patch_233">
     <path d="M 493.367125 246.828125 
L 513.367125 246.828125 
L 513.367125 239.828125 
L 493.367125 239.828125 
z
" style="fill:#0000ff;fill-opacity:0.5;stroke:#000000;stroke-linejoin:miter;stroke-width:1.2;"/>
    </g>
    <g id="text_16">
     <!-- $\tau_0\quad(\mu=116.26,\sigma=23.85$) -->
     <g transform="translate(521.367125 246.828125)scale(0.1 -0.1)">
      <defs>
       <path d="M 32.859375 9.96875 
Q 34.1875 7.625 39.453125 7.625 
L 43.75 7.625 
L 42.28125 0 
L 36.921875 0 
Q 28.125 0 25 4.6875 
Q 21.921875 9.46875 23.96875 19.828125 
L 29 45.703125 
L 8.453125 45.703125 
L 10.203125 54.6875 
L 60.640625 54.6875 
L 58.890625 45.703125 
L 38.1875 45.703125 
L 33.015625 19.28125 
Q 31.640625 12.203125 32.859375 9.96875 
z
" id="DejaVuSans-Oblique-964"/>
       <path d="M 31 75.875 
Q 24.46875 64.65625 21.28125 53.65625 
Q 18.109375 42.671875 18.109375 31.390625 
Q 18.109375 20.125 21.3125 9.0625 
Q 24.515625 -2 31 -13.1875 
L 23.1875 -13.1875 
Q 15.875 -1.703125 12.234375 9.375 
Q 8.59375 20.453125 8.59375 31.390625 
Q 8.59375 42.28125 12.203125 53.3125 
Q 15.828125 64.359375 23.1875 75.875 
z
" id="DejaVuSans-40"/>
       <path d="M -1.3125 -20.796875 
L 13.375 54.6875 
L 22.40625 54.6875 
L 15.765625 20.65625 
Q 15.578125 19.625 15.421875 18.359375 
Q 15.28125 17.09375 15.28125 15.828125 
Q 15.28125 11.28125 18.140625 8.828125 
Q 21 6.390625 26.3125 6.390625 
Q 33.546875 6.390625 37.984375 10.484375 
Q 42.4375 14.59375 44 22.796875 
L 50.203125 54.6875 
L 59.1875 54.6875 
L 51.03125 12.640625 
Q 50.828125 11.71875 50.75 11.03125 
Q 50.6875 10.359375 50.6875 9.8125 
Q 50.6875 8.296875 51.296875 7.59375 
Q 51.90625 6.890625 53.21875 6.890625 
Q 53.71875 6.890625 54.5625 7.125 
Q 55.421875 7.375 56.984375 8.015625 
L 55.609375 0.78125 
Q 53.46875 -0.296875 51.515625 -0.859375 
Q 49.5625 -1.421875 47.703125 -1.421875 
Q 44.484375 -1.421875 42.65625 0.625 
Q 40.828125 2.6875 40.828125 6.296875 
Q 38.09375 2.390625 34.296875 0.484375 
Q 30.515625 -1.421875 25.390625 -1.421875 
Q 20.84375 -1.421875 17.453125 0.671875 
Q 14.0625 2.78125 12.984375 6.203125 
L 7.71875 -20.796875 
z
" id="DejaVuSans-Oblique-956"/>
       <path d="M 10.59375 45.40625 
L 73.1875 45.40625 
L 73.1875 37.203125 
L 10.59375 37.203125 
z
M 10.59375 25.484375 
L 73.1875 25.484375 
L 73.1875 17.1875 
L 10.59375 17.1875 
z
" id="DejaVuSans-61"/>
       <path d="M 33.015625 40.375 
Q 26.375 40.375 22.484375 35.828125 
Q 18.609375 31.296875 18.609375 23.390625 
Q 18.609375 15.53125 22.484375 10.953125 
Q 26.375 6.390625 33.015625 6.390625 
Q 39.65625 6.390625 43.53125 10.953125 
Q 47.40625 15.53125 47.40625 23.390625 
Q 47.40625 31.296875 43.53125 35.828125 
Q 39.65625 40.375 33.015625 40.375 
z
M 52.59375 71.296875 
L 52.59375 62.3125 
Q 48.875 64.0625 45.09375 64.984375 
Q 41.3125 65.921875 37.59375 65.921875 
Q 27.828125 65.921875 22.671875 59.328125 
Q 17.53125 52.734375 16.796875 39.40625 
Q 19.671875 43.65625 24.015625 45.921875 
Q 28.375 48.1875 33.59375 48.1875 
Q 44.578125 48.1875 50.953125 41.515625 
Q 57.328125 34.859375 57.328125 23.390625 
Q 57.328125 12.15625 50.6875 5.359375 
Q 44.046875 -1.421875 33.015625 -1.421875 
Q 20.359375 -1.421875 13.671875 8.265625 
Q 6.984375 17.96875 6.984375 36.375 
Q 6.984375 53.65625 15.1875 63.9375 
Q 23.390625 74.21875 37.203125 74.21875 
Q 40.921875 74.21875 44.703125 73.484375 
Q 48.484375 72.75 52.59375 71.296875 
z
" id="DejaVuSans-54"/>
       <path d="M 10.6875 12.40625 
L 21 12.40625 
L 21 0 
L 10.6875 0 
z
" id="DejaVuSans-46"/>
       <path d="M 11.71875 12.40625 
L 22.015625 12.40625 
L 22.015625 4 
L 14.015625 -11.625 
L 7.71875 -11.625 
L 11.71875 4 
z
" id="DejaVuSans-44"/>
       <path d="M 34.671875 47.5625 
Q 27.25 47.5625 22.21875 42.1875 
Q 16.890625 36.578125 15.140625 27.296875 
Q 13.1875 17.484375 16.3125 11.8125 
Q 19.390625 6.203125 26.65625 6.203125 
Q 33.84375 6.203125 39.109375 11.859375 
Q 44.4375 17.53125 46.34375 27.296875 
Q 48.046875 36.234375 45.015625 42.1875 
Q 42.1875 47.5625 34.671875 47.5625 
z
M 36.078125 54.734375 
L 65.921875 54.6875 
L 64.15625 45.703125 
L 54.109375 45.703125 
Q 57.90625 38.09375 55.859375 27.296875 
Q 53.21875 13.875 45.0625 6.25 
Q 36.859375 -1.421875 25.140625 -1.421875 
Q 13.375 -1.421875 8.203125 6.25 
Q 3.03125 13.875 5.671875 27.296875 
Q 8.25 40.765625 16.40625 48.390625 
Q 23.1875 54.734375 36.078125 54.734375 
z
" id="DejaVuSans-Oblique-963"/>
       <path d="M 31.78125 34.625 
Q 24.75 34.625 20.71875 30.859375 
Q 16.703125 27.09375 16.703125 20.515625 
Q 16.703125 13.921875 20.71875 10.15625 
Q 24.75 6.390625 31.78125 6.390625 
Q 38.8125 6.390625 42.859375 10.171875 
Q 46.921875 13.96875 46.921875 20.515625 
Q 46.921875 27.09375 42.890625 30.859375 
Q 38.875 34.625 31.78125 34.625 
z
M 21.921875 38.8125 
Q 15.578125 40.375 12.03125 44.71875 
Q 8.5 49.078125 8.5 55.328125 
Q 8.5 64.0625 14.71875 69.140625 
Q 20.953125 74.21875 31.78125 74.21875 
Q 42.671875 74.21875 48.875 69.140625 
Q 55.078125 64.0625 55.078125 55.328125 
Q 55.078125 49.078125 51.53125 44.71875 
Q 48 40.375 41.703125 38.8125 
Q 48.828125 37.15625 52.796875 32.3125 
Q 56.78125 27.484375 56.78125 20.515625 
Q 56.78125 9.90625 50.3125 4.234375 
Q 43.84375 -1.421875 31.78125 -1.421875 
Q 19.734375 -1.421875 13.25 4.234375 
Q 6.78125 9.90625 6.78125 20.515625 
Q 6.78125 27.484375 10.78125 32.3125 
Q 14.796875 37.15625 21.921875 38.8125 
z
M 18.3125 54.390625 
Q 18.3125 48.734375 21.84375 45.5625 
Q 25.390625 42.390625 31.78125 42.390625 
Q 38.140625 42.390625 41.71875 45.5625 
Q 45.3125 48.734375 45.3125 54.390625 
Q 45.3125 60.0625 41.71875 63.234375 
Q 38.140625 66.40625 31.78125 66.40625 
Q 25.390625 66.40625 21.84375 63.234375 
Q 18.3125 60.0625 18.3125 54.390625 
z
" id="DejaVuSans-56"/>
       <path d="M 8.015625 75.875 
L 15.828125 75.875 
Q 23.140625 64.359375 26.78125 53.3125 
Q 30.421875 42.28125 30.421875 31.390625 
Q 30.421875 20.453125 26.78125 9.375 
Q 23.140625 -1.703125 15.828125 -13.1875 
L 8.015625 -13.1875 
Q 14.5 -2 17.703125 9.0625 
Q 20.90625 20.125 20.90625 31.390625 
Q 20.90625 42.671875 17.703125 53.65625 
Q 14.5 64.65625 8.015625 75.875 
z
" id="DejaVuSans-41"/>
      </defs>
      <use transform="translate(0 0.125)" xlink:href="#DejaVuSans-Oblique-964"/>
      <use transform="translate(60.205078 -16.28125)scale(0.7)" xlink:href="#DejaVuSans-48"/>
      <use transform="translate(204.887695 0.125)" xlink:href="#DejaVuSans-40"/>
      <use transform="translate(243.901367 0.125)" xlink:href="#DejaVuSans-Oblique-956"/>
      <use transform="translate(327.006836 0.125)" xlink:href="#DejaVuSans-61"/>
      <use transform="translate(430.27832 0.125)" xlink:href="#DejaVuSans-49"/>
      <use transform="translate(493.901367 0.125)" xlink:href="#DejaVuSans-49"/>
      <use transform="translate(557.524414 0.125)" xlink:href="#DejaVuSans-54"/>
      <use transform="translate(621.147461 0.125)" xlink:href="#DejaVuSans-46"/>
      <use transform="translate(647.43457 0.125)" xlink:href="#DejaVuSans-50"/>
      <use transform="translate(711.057617 0.125)" xlink:href="#DejaVuSans-54"/>
      <use transform="translate(774.680664 0.125)" xlink:href="#DejaVuSans-44"/>
      <use transform="translate(825.950195 0.125)" xlink:href="#DejaVuSans-Oblique-963"/>
      <use transform="translate(908.811523 0.125)" xlink:href="#DejaVuSans-61"/>
      <use transform="translate(1012.083008 0.125)" xlink:href="#DejaVuSans-50"/>
      <use transform="translate(1075.706055 0.125)" xlink:href="#DejaVuSans-51"/>
      <use transform="translate(1139.329102 0.125)" xlink:href="#DejaVuSans-46"/>
      <use transform="translate(1168.491211 0.125)" xlink:href="#DejaVuSans-56"/>
      <use transform="translate(1232.114258 0.125)" xlink:href="#DejaVuSans-53"/>
      <use transform="translate(1295.737305 0.125)" xlink:href="#DejaVuSans-41"/>
     </g>
    </g>
   </g>
  </g>
 </g>
 <defs>
  <clipPath id="pab88cb2d2e">
   <rect height="443.52" width="446.4" x="40.603125" y="22.318125"/>
  </clipPath>
 </defs>
</svg>
