<?xml version="1.0" encoding="utf-8" standalone="no"?>
<!DOCTYPE svg PUBLIC "-//W3C//DTD SVG 1.1//EN"
  "http://www.w3.org/Graphics/SVG/1.1/DTD/svg11.dtd">
<!-- Created with matplotlib (https://matplotlib.org/) -->
<svg height="393.53625pt" version="1.1" viewBox="0 0 670.42125 393.53625" width="670.42125pt" xmlns="http://www.w3.org/2000/svg" xmlns:xlink="http://www.w3.org/1999/xlink">
 <metadata>
  <rdf:RDF xmlns:cc="http://creativecommons.org/ns#" xmlns:dc="http://purl.org/dc/elements/1.1/" xmlns:rdf="http://www.w3.org/1999/02/22-rdf-syntax-ns#">
   <cc:Work>
    <dc:type rdf:resource="http://purl.org/dc/dcmitype/StillImage"/>
    <dc:date>2022-12-07T16:00:06.098561</dc:date>
    <dc:format>image/svg+xml</dc:format>
    <dc:creator>
     <cc:Agent>
      <dc:title>Matplotlib v3.3.4, https://matplotlib.org/</dc:title>
     </cc:Agent>
    </dc:creator>
   </cc:Work>
  </rdf:RDF>
 </metadata>
 <defs>
  <style type="text/css">*{stroke-linecap:butt;stroke-linejoin:round;}</style>
 </defs>
 <g id="figure_1">
  <g id="patch_1">
   <path d="M 0 393.53625 
L 670.42125 393.53625 
L 670.42125 0 
L 0 0 
z
" style="fill:#ffffff;"/>
  </g>
  <g id="axes_1">
   <g id="patch_2">
    <path d="M 53.60625 354.958125 
L 583.70625 354.958125 
L 583.70625 22.318125 
L 53.60625 22.318125 
z
" style="fill:#ffffff;"/>
   </g>
   <g id="matplotlib.axis_1">
    <g id="xtick_1">
     <g id="line2d_1">
      <path clip-path="url(#p49d5c16454)" d="M 77.626394 354.958125 
L 77.626394 22.318125 
" style="fill:none;stroke:#b0b0b0;stroke-linecap:square;stroke-width:0.8;"/>
     </g>
     <g id="line2d_2">
      <defs>
       <path d="M 0 0 
L 0 3.5 
" id="ma67875ed10" style="stroke:#000000;stroke-width:0.8;"/>
      </defs>
      <g>
       <use style="stroke:#000000;stroke-width:0.8;" x="77.626394" xlink:href="#ma67875ed10" y="354.958125"/>
      </g>
     </g>
     <g id="text_1">
      <!-- 0 -->
      <g transform="translate(74.445144 369.556562)scale(0.1 -0.1)">
       <defs>
        <path d="M 31.78125 66.40625 
Q 24.171875 66.40625 20.328125 58.90625 
Q 16.5 51.421875 16.5 36.375 
Q 16.5 21.390625 20.328125 13.890625 
Q 24.171875 6.390625 31.78125 6.390625 
Q 39.453125 6.390625 43.28125 13.890625 
Q 47.125 21.390625 47.125 36.375 
Q 47.125 51.421875 43.28125 58.90625 
Q 39.453125 66.40625 31.78125 66.40625 
z
M 31.78125 74.21875 
Q 44.046875 74.21875 50.515625 64.515625 
Q 56.984375 54.828125 56.984375 36.375 
Q 56.984375 17.96875 50.515625 8.265625 
Q 44.046875 -1.421875 31.78125 -1.421875 
Q 19.53125 -1.421875 13.0625 8.265625 
Q 6.59375 17.96875 6.59375 36.375 
Q 6.59375 54.828125 13.0625 64.515625 
Q 19.53125 74.21875 31.78125 74.21875 
z
" id="DejaVuSans-48"/>
       </defs>
       <use xlink:href="#DejaVuSans-48"/>
      </g>
     </g>
    </g>
    <g id="xtick_2">
     <g id="line2d_3">
      <path clip-path="url(#p49d5c16454)" d="M 152.936457 354.958125 
L 152.936457 22.318125 
" style="fill:none;stroke:#b0b0b0;stroke-linecap:square;stroke-width:0.8;"/>
     </g>
     <g id="line2d_4">
      <g>
       <use style="stroke:#000000;stroke-width:0.8;" x="152.936457" xlink:href="#ma67875ed10" y="354.958125"/>
      </g>
     </g>
     <g id="text_2">
      <!-- 10000 -->
      <g transform="translate(137.030207 369.556562)scale(0.1 -0.1)">
       <defs>
        <path d="M 12.40625 8.296875 
L 28.515625 8.296875 
L 28.515625 63.921875 
L 10.984375 60.40625 
L 10.984375 69.390625 
L 28.421875 72.90625 
L 38.28125 72.90625 
L 38.28125 8.296875 
L 54.390625 8.296875 
L 54.390625 0 
L 12.40625 0 
z
" id="DejaVuSans-49"/>
       </defs>
       <use xlink:href="#DejaVuSans-49"/>
       <use x="63.623047" xlink:href="#DejaVuSans-48"/>
       <use x="127.246094" xlink:href="#DejaVuSans-48"/>
       <use x="190.869141" xlink:href="#DejaVuSans-48"/>
       <use x="254.492188" xlink:href="#DejaVuSans-48"/>
      </g>
     </g>
    </g>
    <g id="xtick_3">
     <g id="line2d_5">
      <path clip-path="url(#p49d5c16454)" d="M 228.24652 354.958125 
L 228.24652 22.318125 
" style="fill:none;stroke:#b0b0b0;stroke-linecap:square;stroke-width:0.8;"/>
     </g>
     <g id="line2d_6">
      <g>
       <use style="stroke:#000000;stroke-width:0.8;" x="228.24652" xlink:href="#ma67875ed10" y="354.958125"/>
      </g>
     </g>
     <g id="text_3">
      <!-- 20000 -->
      <g transform="translate(212.34027 369.556562)scale(0.1 -0.1)">
       <defs>
        <path d="M 19.1875 8.296875 
L 53.609375 8.296875 
L 53.609375 0 
L 7.328125 0 
L 7.328125 8.296875 
Q 12.9375 14.109375 22.625 23.890625 
Q 32.328125 33.6875 34.8125 36.53125 
Q 39.546875 41.84375 41.421875 45.53125 
Q 43.3125 49.21875 43.3125 52.78125 
Q 43.3125 58.59375 39.234375 62.25 
Q 35.15625 65.921875 28.609375 65.921875 
Q 23.96875 65.921875 18.8125 64.3125 
Q 13.671875 62.703125 7.8125 59.421875 
L 7.8125 69.390625 
Q 13.765625 71.78125 18.9375 73 
Q 24.125 74.21875 28.421875 74.21875 
Q 39.75 74.21875 46.484375 68.546875 
Q 53.21875 62.890625 53.21875 53.421875 
Q 53.21875 48.921875 51.53125 44.890625 
Q 49.859375 40.875 45.40625 35.40625 
Q 44.1875 33.984375 37.640625 27.21875 
Q 31.109375 20.453125 19.1875 8.296875 
z
" id="DejaVuSans-50"/>
       </defs>
       <use xlink:href="#DejaVuSans-50"/>
       <use x="63.623047" xlink:href="#DejaVuSans-48"/>
       <use x="127.246094" xlink:href="#DejaVuSans-48"/>
       <use x="190.869141" xlink:href="#DejaVuSans-48"/>
       <use x="254.492188" xlink:href="#DejaVuSans-48"/>
      </g>
     </g>
    </g>
    <g id="xtick_4">
     <g id="line2d_7">
      <path clip-path="url(#p49d5c16454)" d="M 303.556582 354.958125 
L 303.556582 22.318125 
" style="fill:none;stroke:#b0b0b0;stroke-linecap:square;stroke-width:0.8;"/>
     </g>
     <g id="line2d_8">
      <g>
       <use style="stroke:#000000;stroke-width:0.8;" x="303.556582" xlink:href="#ma67875ed10" y="354.958125"/>
      </g>
     </g>
     <g id="text_4">
      <!-- 30000 -->
      <g transform="translate(287.650332 369.556562)scale(0.1 -0.1)">
       <defs>
        <path d="M 40.578125 39.3125 
Q 47.65625 37.796875 51.625 33 
Q 55.609375 28.21875 55.609375 21.1875 
Q 55.609375 10.40625 48.1875 4.484375 
Q 40.765625 -1.421875 27.09375 -1.421875 
Q 22.515625 -1.421875 17.65625 -0.515625 
Q 12.796875 0.390625 7.625 2.203125 
L 7.625 11.71875 
Q 11.71875 9.328125 16.59375 8.109375 
Q 21.484375 6.890625 26.8125 6.890625 
Q 36.078125 6.890625 40.9375 10.546875 
Q 45.796875 14.203125 45.796875 21.1875 
Q 45.796875 27.640625 41.28125 31.265625 
Q 36.765625 34.90625 28.71875 34.90625 
L 20.21875 34.90625 
L 20.21875 43.015625 
L 29.109375 43.015625 
Q 36.375 43.015625 40.234375 45.921875 
Q 44.09375 48.828125 44.09375 54.296875 
Q 44.09375 59.90625 40.109375 62.90625 
Q 36.140625 65.921875 28.71875 65.921875 
Q 24.65625 65.921875 20.015625 65.03125 
Q 15.375 64.15625 9.8125 62.3125 
L 9.8125 71.09375 
Q 15.4375 72.65625 20.34375 73.4375 
Q 25.25 74.21875 29.59375 74.21875 
Q 40.828125 74.21875 47.359375 69.109375 
Q 53.90625 64.015625 53.90625 55.328125 
Q 53.90625 49.265625 50.4375 45.09375 
Q 46.96875 40.921875 40.578125 39.3125 
z
" id="DejaVuSans-51"/>
       </defs>
       <use xlink:href="#DejaVuSans-51"/>
       <use x="63.623047" xlink:href="#DejaVuSans-48"/>
       <use x="127.246094" xlink:href="#DejaVuSans-48"/>
       <use x="190.869141" xlink:href="#DejaVuSans-48"/>
       <use x="254.492188" xlink:href="#DejaVuSans-48"/>
      </g>
     </g>
    </g>
    <g id="xtick_5">
     <g id="line2d_9">
      <path clip-path="url(#p49d5c16454)" d="M 378.866645 354.958125 
L 378.866645 22.318125 
" style="fill:none;stroke:#b0b0b0;stroke-linecap:square;stroke-width:0.8;"/>
     </g>
     <g id="line2d_10">
      <g>
       <use style="stroke:#000000;stroke-width:0.8;" x="378.866645" xlink:href="#ma67875ed10" y="354.958125"/>
      </g>
     </g>
     <g id="text_5">
      <!-- 40000 -->
      <g transform="translate(362.960395 369.556562)scale(0.1 -0.1)">
       <defs>
        <path d="M 37.796875 64.3125 
L 12.890625 25.390625 
L 37.796875 25.390625 
z
M 35.203125 72.90625 
L 47.609375 72.90625 
L 47.609375 25.390625 
L 58.015625 25.390625 
L 58.015625 17.1875 
L 47.609375 17.1875 
L 47.609375 0 
L 37.796875 0 
L 37.796875 17.1875 
L 4.890625 17.1875 
L 4.890625 26.703125 
z
" id="DejaVuSans-52"/>
       </defs>
       <use xlink:href="#DejaVuSans-52"/>
       <use x="63.623047" xlink:href="#DejaVuSans-48"/>
       <use x="127.246094" xlink:href="#DejaVuSans-48"/>
       <use x="190.869141" xlink:href="#DejaVuSans-48"/>
       <use x="254.492188" xlink:href="#DejaVuSans-48"/>
      </g>
     </g>
    </g>
    <g id="xtick_6">
     <g id="line2d_11">
      <path clip-path="url(#p49d5c16454)" d="M 454.176708 354.958125 
L 454.176708 22.318125 
" style="fill:none;stroke:#b0b0b0;stroke-linecap:square;stroke-width:0.8;"/>
     </g>
     <g id="line2d_12">
      <g>
       <use style="stroke:#000000;stroke-width:0.8;" x="454.176708" xlink:href="#ma67875ed10" y="354.958125"/>
      </g>
     </g>
     <g id="text_6">
      <!-- 50000 -->
      <g transform="translate(438.270458 369.556562)scale(0.1 -0.1)">
       <defs>
        <path d="M 10.796875 72.90625 
L 49.515625 72.90625 
L 49.515625 64.59375 
L 19.828125 64.59375 
L 19.828125 46.734375 
Q 21.96875 47.46875 24.109375 47.828125 
Q 26.265625 48.1875 28.421875 48.1875 
Q 40.625 48.1875 47.75 41.5 
Q 54.890625 34.8125 54.890625 23.390625 
Q 54.890625 11.625 47.5625 5.09375 
Q 40.234375 -1.421875 26.90625 -1.421875 
Q 22.3125 -1.421875 17.546875 -0.640625 
Q 12.796875 0.140625 7.71875 1.703125 
L 7.71875 11.625 
Q 12.109375 9.234375 16.796875 8.0625 
Q 21.484375 6.890625 26.703125 6.890625 
Q 35.15625 6.890625 40.078125 11.328125 
Q 45.015625 15.765625 45.015625 23.390625 
Q 45.015625 31 40.078125 35.4375 
Q 35.15625 39.890625 26.703125 39.890625 
Q 22.75 39.890625 18.8125 39.015625 
Q 14.890625 38.140625 10.796875 36.28125 
z
" id="DejaVuSans-53"/>
       </defs>
       <use xlink:href="#DejaVuSans-53"/>
       <use x="63.623047" xlink:href="#DejaVuSans-48"/>
       <use x="127.246094" xlink:href="#DejaVuSans-48"/>
       <use x="190.869141" xlink:href="#DejaVuSans-48"/>
       <use x="254.492188" xlink:href="#DejaVuSans-48"/>
      </g>
     </g>
    </g>
    <g id="xtick_7">
     <g id="line2d_13">
      <path clip-path="url(#p49d5c16454)" d="M 529.48677 354.958125 
L 529.48677 22.318125 
" style="fill:none;stroke:#b0b0b0;stroke-linecap:square;stroke-width:0.8;"/>
     </g>
     <g id="line2d_14">
      <g>
       <use style="stroke:#000000;stroke-width:0.8;" x="529.48677" xlink:href="#ma67875ed10" y="354.958125"/>
      </g>
     </g>
     <g id="text_7">
      <!-- 60000 -->
      <g transform="translate(513.58052 369.556562)scale(0.1 -0.1)">
       <defs>
        <path d="M 33.015625 40.375 
Q 26.375 40.375 22.484375 35.828125 
Q 18.609375 31.296875 18.609375 23.390625 
Q 18.609375 15.53125 22.484375 10.953125 
Q 26.375 6.390625 33.015625 6.390625 
Q 39.65625 6.390625 43.53125 10.953125 
Q 47.40625 15.53125 47.40625 23.390625 
Q 47.40625 31.296875 43.53125 35.828125 
Q 39.65625 40.375 33.015625 40.375 
z
M 52.59375 71.296875 
L 52.59375 62.3125 
Q 48.875 64.0625 45.09375 64.984375 
Q 41.3125 65.921875 37.59375 65.921875 
Q 27.828125 65.921875 22.671875 59.328125 
Q 17.53125 52.734375 16.796875 39.40625 
Q 19.671875 43.65625 24.015625 45.921875 
Q 28.375 48.1875 33.59375 48.1875 
Q 44.578125 48.1875 50.953125 41.515625 
Q 57.328125 34.859375 57.328125 23.390625 
Q 57.328125 12.15625 50.6875 5.359375 
Q 44.046875 -1.421875 33.015625 -1.421875 
Q 20.359375 -1.421875 13.671875 8.265625 
Q 6.984375 17.96875 6.984375 36.375 
Q 6.984375 53.65625 15.1875 63.9375 
Q 23.390625 74.21875 37.203125 74.21875 
Q 40.921875 74.21875 44.703125 73.484375 
Q 48.484375 72.75 52.59375 71.296875 
z
" id="DejaVuSans-54"/>
       </defs>
       <use xlink:href="#DejaVuSans-54"/>
       <use x="63.623047" xlink:href="#DejaVuSans-48"/>
       <use x="127.246094" xlink:href="#DejaVuSans-48"/>
       <use x="190.869141" xlink:href="#DejaVuSans-48"/>
       <use x="254.492188" xlink:href="#DejaVuSans-48"/>
      </g>
     </g>
    </g>
    <g id="text_8">
     <!-- Cal_Voltage [$DAC_{inj}$ code] -->
     <g transform="translate(254.85625 383.23625)scale(0.1 -0.1)">
      <defs>
       <path d="M 64.40625 67.28125 
L 64.40625 56.890625 
Q 59.421875 61.53125 53.78125 63.8125 
Q 48.140625 66.109375 41.796875 66.109375 
Q 29.296875 66.109375 22.65625 58.46875 
Q 16.015625 50.828125 16.015625 36.375 
Q 16.015625 21.96875 22.65625 14.328125 
Q 29.296875 6.6875 41.796875 6.6875 
Q 48.140625 6.6875 53.78125 8.984375 
Q 59.421875 11.28125 64.40625 15.921875 
L 64.40625 5.609375 
Q 59.234375 2.09375 53.4375 0.328125 
Q 47.65625 -1.421875 41.21875 -1.421875 
Q 24.65625 -1.421875 15.125 8.703125 
Q 5.609375 18.84375 5.609375 36.375 
Q 5.609375 53.953125 15.125 64.078125 
Q 24.65625 74.21875 41.21875 74.21875 
Q 47.75 74.21875 53.53125 72.484375 
Q 59.328125 70.75 64.40625 67.28125 
z
" id="DejaVuSans-67"/>
       <path d="M 34.28125 27.484375 
Q 23.390625 27.484375 19.1875 25 
Q 14.984375 22.515625 14.984375 16.5 
Q 14.984375 11.71875 18.140625 8.90625 
Q 21.296875 6.109375 26.703125 6.109375 
Q 34.1875 6.109375 38.703125 11.40625 
Q 43.21875 16.703125 43.21875 25.484375 
L 43.21875 27.484375 
z
M 52.203125 31.203125 
L 52.203125 0 
L 43.21875 0 
L 43.21875 8.296875 
Q 40.140625 3.328125 35.546875 0.953125 
Q 30.953125 -1.421875 24.3125 -1.421875 
Q 15.921875 -1.421875 10.953125 3.296875 
Q 6 8.015625 6 15.921875 
Q 6 25.140625 12.171875 29.828125 
Q 18.359375 34.515625 30.609375 34.515625 
L 43.21875 34.515625 
L 43.21875 35.40625 
Q 43.21875 41.609375 39.140625 45 
Q 35.0625 48.390625 27.6875 48.390625 
Q 23 48.390625 18.546875 47.265625 
Q 14.109375 46.140625 10.015625 43.890625 
L 10.015625 52.203125 
Q 14.9375 54.109375 19.578125 55.046875 
Q 24.21875 56 28.609375 56 
Q 40.484375 56 46.34375 49.84375 
Q 52.203125 43.703125 52.203125 31.203125 
z
" id="DejaVuSans-97"/>
       <path d="M 9.421875 75.984375 
L 18.40625 75.984375 
L 18.40625 0 
L 9.421875 0 
z
" id="DejaVuSans-108"/>
       <path d="M 50.984375 -16.609375 
L 50.984375 -23.578125 
L -0.984375 -23.578125 
L -0.984375 -16.609375 
z
" id="DejaVuSans-95"/>
       <path d="M 28.609375 0 
L 0.78125 72.90625 
L 11.078125 72.90625 
L 34.1875 11.53125 
L 57.328125 72.90625 
L 67.578125 72.90625 
L 39.796875 0 
z
" id="DejaVuSans-86"/>
       <path d="M 30.609375 48.390625 
Q 23.390625 48.390625 19.1875 42.75 
Q 14.984375 37.109375 14.984375 27.296875 
Q 14.984375 17.484375 19.15625 11.84375 
Q 23.34375 6.203125 30.609375 6.203125 
Q 37.796875 6.203125 41.984375 11.859375 
Q 46.1875 17.53125 46.1875 27.296875 
Q 46.1875 37.015625 41.984375 42.703125 
Q 37.796875 48.390625 30.609375 48.390625 
z
M 30.609375 56 
Q 42.328125 56 49.015625 48.375 
Q 55.71875 40.765625 55.71875 27.296875 
Q 55.71875 13.875 49.015625 6.21875 
Q 42.328125 -1.421875 30.609375 -1.421875 
Q 18.84375 -1.421875 12.171875 6.21875 
Q 5.515625 13.875 5.515625 27.296875 
Q 5.515625 40.765625 12.171875 48.375 
Q 18.84375 56 30.609375 56 
z
" id="DejaVuSans-111"/>
       <path d="M 18.3125 70.21875 
L 18.3125 54.6875 
L 36.8125 54.6875 
L 36.8125 47.703125 
L 18.3125 47.703125 
L 18.3125 18.015625 
Q 18.3125 11.328125 20.140625 9.421875 
Q 21.96875 7.515625 27.59375 7.515625 
L 36.8125 7.515625 
L 36.8125 0 
L 27.59375 0 
Q 17.1875 0 13.234375 3.875 
Q 9.28125 7.765625 9.28125 18.015625 
L 9.28125 47.703125 
L 2.6875 47.703125 
L 2.6875 54.6875 
L 9.28125 54.6875 
L 9.28125 70.21875 
z
" id="DejaVuSans-116"/>
       <path d="M 45.40625 27.984375 
Q 45.40625 37.75 41.375 43.109375 
Q 37.359375 48.484375 30.078125 48.484375 
Q 22.859375 48.484375 18.828125 43.109375 
Q 14.796875 37.75 14.796875 27.984375 
Q 14.796875 18.265625 18.828125 12.890625 
Q 22.859375 7.515625 30.078125 7.515625 
Q 37.359375 7.515625 41.375 12.890625 
Q 45.40625 18.265625 45.40625 27.984375 
z
M 54.390625 6.78125 
Q 54.390625 -7.171875 48.1875 -13.984375 
Q 42 -20.796875 29.203125 -20.796875 
Q 24.46875 -20.796875 20.265625 -20.09375 
Q 16.0625 -19.390625 12.109375 -17.921875 
L 12.109375 -9.1875 
Q 16.0625 -11.328125 19.921875 -12.34375 
Q 23.78125 -13.375 27.78125 -13.375 
Q 36.625 -13.375 41.015625 -8.765625 
Q 45.40625 -4.15625 45.40625 5.171875 
L 45.40625 9.625 
Q 42.625 4.78125 38.28125 2.390625 
Q 33.9375 0 27.875 0 
Q 17.828125 0 11.671875 7.65625 
Q 5.515625 15.328125 5.515625 27.984375 
Q 5.515625 40.671875 11.671875 48.328125 
Q 17.828125 56 27.875 56 
Q 33.9375 56 38.28125 53.609375 
Q 42.625 51.21875 45.40625 46.390625 
L 45.40625 54.6875 
L 54.390625 54.6875 
z
" id="DejaVuSans-103"/>
       <path d="M 56.203125 29.59375 
L 56.203125 25.203125 
L 14.890625 25.203125 
Q 15.484375 15.921875 20.484375 11.0625 
Q 25.484375 6.203125 34.421875 6.203125 
Q 39.59375 6.203125 44.453125 7.46875 
Q 49.3125 8.734375 54.109375 11.28125 
L 54.109375 2.78125 
Q 49.265625 0.734375 44.1875 -0.34375 
Q 39.109375 -1.421875 33.890625 -1.421875 
Q 20.796875 -1.421875 13.15625 6.1875 
Q 5.515625 13.8125 5.515625 26.8125 
Q 5.515625 40.234375 12.765625 48.109375 
Q 20.015625 56 32.328125 56 
Q 43.359375 56 49.78125 48.890625 
Q 56.203125 41.796875 56.203125 29.59375 
z
M 47.21875 32.234375 
Q 47.125 39.59375 43.09375 43.984375 
Q 39.0625 48.390625 32.421875 48.390625 
Q 24.90625 48.390625 20.390625 44.140625 
Q 15.875 39.890625 15.1875 32.171875 
z
" id="DejaVuSans-101"/>
       <path id="DejaVuSans-32"/>
       <path d="M 8.59375 75.984375 
L 29.296875 75.984375 
L 29.296875 69 
L 17.578125 69 
L 17.578125 -6.203125 
L 29.296875 -6.203125 
L 29.296875 -13.1875 
L 8.59375 -13.1875 
z
" id="DejaVuSans-91"/>
       <path d="M 16.890625 72.90625 
L 38.09375 72.90625 
Q 54.984375 72.90625 63.59375 65.75 
Q 72.21875 58.59375 72.21875 44.484375 
Q 72.21875 35.15625 68.9375 26.53125 
Q 65.671875 17.921875 59.90625 12.015625 
Q 54.109375 5.953125 45.171875 2.96875 
Q 36.234375 0 24.03125 0 
L 2.6875 0 
z
M 25.203125 64.796875 
L 14.203125 8.109375 
L 27.09375 8.109375 
Q 43.65625 8.109375 52.734375 17.625 
Q 61.8125 27.15625 61.8125 44.484375 
Q 61.8125 54.984375 55.953125 59.890625 
Q 50.09375 64.796875 37.59375 64.796875 
z
" id="DejaVuSans-Oblique-68"/>
       <path d="M 36.8125 72.90625 
L 48 72.90625 
L 61.53125 0 
L 51.21875 0 
L 48.1875 18.703125 
L 15.375 18.703125 
L 5.078125 0 
L -5.328125 0 
z
M 40.375 63.1875 
L 19.921875 26.90625 
L 46.6875 26.90625 
z
" id="DejaVuSans-Oblique-65"/>
       <path d="M 69.484375 67.28125 
L 67.484375 56.890625 
Q 62.796875 61.625 57.546875 63.921875 
Q 52.296875 66.21875 46.1875 66.21875 
Q 37.84375 66.21875 31.515625 62.203125 
Q 25.203125 58.203125 20.609375 50 
Q 17.671875 44.734375 16.125 38.84375 
Q 14.59375 32.953125 14.59375 27 
Q 14.59375 17.046875 19.75 11.8125 
Q 24.90625 6.59375 34.71875 6.59375 
Q 41.5 6.59375 47.75 8.765625 
Q 54 10.9375 59.90625 15.28125 
L 57.625 3.609375 
Q 51.8125 1.125 45.875 -0.140625 
Q 39.9375 -1.421875 33.984375 -1.421875 
Q 19.96875 -1.421875 12.078125 6.1875 
Q 4.203125 13.8125 4.203125 27.390625 
Q 4.203125 36.078125 7.203125 44.46875 
Q 10.203125 52.875 15.828125 59.8125 
Q 21.78125 67.1875 29.421875 70.703125 
Q 37.0625 74.21875 47.21875 74.21875 
Q 53.46875 74.21875 59.0625 72.484375 
Q 64.65625 70.75 69.484375 67.28125 
z
" id="DejaVuSans-Oblique-67"/>
       <path d="M 18.3125 75.984375 
L 27.296875 75.984375 
L 25.09375 64.59375 
L 16.109375 64.59375 
z
M 14.203125 54.6875 
L 23.1875 54.6875 
L 12.5 0 
L 3.515625 0 
z
" id="DejaVuSans-Oblique-105"/>
       <path d="M 55.71875 33.015625 
L 49.3125 0 
L 40.28125 0 
L 46.6875 32.671875 
Q 47.125 34.96875 47.359375 36.71875 
Q 47.609375 38.484375 47.609375 39.5 
Q 47.609375 43.609375 45.015625 45.890625 
Q 42.4375 48.1875 37.796875 48.1875 
Q 30.5625 48.1875 25.34375 43.375 
Q 20.125 38.578125 18.5 30.328125 
L 12.5 0 
L 3.515625 0 
L 14.109375 54.6875 
L 23.09375 54.6875 
L 21.296875 46.09375 
Q 25.046875 50.828125 30.3125 53.40625 
Q 35.59375 56 41.40625 56 
Q 48.640625 56 52.609375 52.09375 
Q 56.59375 48.1875 56.59375 41.109375 
Q 56.59375 39.359375 56.375 37.359375 
Q 56.15625 35.359375 55.71875 33.015625 
z
" id="DejaVuSans-Oblique-110"/>
       <path d="M 14.5 54.6875 
L 23.484375 54.6875 
L 12.703125 -0.984375 
L 12.640625 -1.21875 
Q 10.84375 -10.546875 8.5 -14.015625 
Q 6.296875 -17.28125 2.0625 -19.03125 
Q -2.15625 -20.796875 -7.90625 -20.796875 
L -11.28125 -20.796875 
L -9.8125 -13.1875 
L -7.515625 -13.1875 
Q -2.25 -13.1875 -0.015625 -10.984375 
Q 2.203125 -8.796875 3.71875 -0.984375 
z
M 18.703125 75.984375 
L 27.6875 75.984375 
L 25.484375 64.59375 
L 16.5 64.59375 
z
" id="DejaVuSans-Oblique-106"/>
       <path d="M 48.78125 52.59375 
L 48.78125 44.1875 
Q 44.96875 46.296875 41.140625 47.34375 
Q 37.3125 48.390625 33.40625 48.390625 
Q 24.65625 48.390625 19.8125 42.84375 
Q 14.984375 37.3125 14.984375 27.296875 
Q 14.984375 17.28125 19.8125 11.734375 
Q 24.65625 6.203125 33.40625 6.203125 
Q 37.3125 6.203125 41.140625 7.25 
Q 44.96875 8.296875 48.78125 10.40625 
L 48.78125 2.09375 
Q 45.015625 0.34375 40.984375 -0.53125 
Q 36.96875 -1.421875 32.421875 -1.421875 
Q 20.0625 -1.421875 12.78125 6.34375 
Q 5.515625 14.109375 5.515625 27.296875 
Q 5.515625 40.671875 12.859375 48.328125 
Q 20.21875 56 33.015625 56 
Q 37.15625 56 41.109375 55.140625 
Q 45.0625 54.296875 48.78125 52.59375 
z
" id="DejaVuSans-99"/>
       <path d="M 45.40625 46.390625 
L 45.40625 75.984375 
L 54.390625 75.984375 
L 54.390625 0 
L 45.40625 0 
L 45.40625 8.203125 
Q 42.578125 3.328125 38.25 0.953125 
Q 33.9375 -1.421875 27.875 -1.421875 
Q 17.96875 -1.421875 11.734375 6.484375 
Q 5.515625 14.40625 5.515625 27.296875 
Q 5.515625 40.1875 11.734375 48.09375 
Q 17.96875 56 27.875 56 
Q 33.9375 56 38.25 53.625 
Q 42.578125 51.265625 45.40625 46.390625 
z
M 14.796875 27.296875 
Q 14.796875 17.390625 18.875 11.75 
Q 22.953125 6.109375 30.078125 6.109375 
Q 37.203125 6.109375 41.296875 11.75 
Q 45.40625 17.390625 45.40625 27.296875 
Q 45.40625 37.203125 41.296875 42.84375 
Q 37.203125 48.484375 30.078125 48.484375 
Q 22.953125 48.484375 18.875 42.84375 
Q 14.796875 37.203125 14.796875 27.296875 
z
" id="DejaVuSans-100"/>
       <path d="M 30.421875 75.984375 
L 30.421875 -13.1875 
L 9.71875 -13.1875 
L 9.71875 -6.203125 
L 21.390625 -6.203125 
L 21.390625 69 
L 9.71875 69 
L 9.71875 75.984375 
z
" id="DejaVuSans-93"/>
      </defs>
      <use transform="translate(0 0.015625)" xlink:href="#DejaVuSans-67"/>
      <use transform="translate(69.824219 0.015625)" xlink:href="#DejaVuSans-97"/>
      <use transform="translate(131.103516 0.015625)" xlink:href="#DejaVuSans-108"/>
      <use transform="translate(158.886719 0.015625)" xlink:href="#DejaVuSans-95"/>
      <use transform="translate(208.886719 0.015625)" xlink:href="#DejaVuSans-86"/>
      <use transform="translate(277.294922 0.015625)" xlink:href="#DejaVuSans-111"/>
      <use transform="translate(338.476562 0.015625)" xlink:href="#DejaVuSans-108"/>
      <use transform="translate(366.259766 0.015625)" xlink:href="#DejaVuSans-116"/>
      <use transform="translate(405.46875 0.015625)" xlink:href="#DejaVuSans-97"/>
      <use transform="translate(466.748047 0.015625)" xlink:href="#DejaVuSans-103"/>
      <use transform="translate(530.224609 0.015625)" xlink:href="#DejaVuSans-101"/>
      <use transform="translate(591.748047 0.015625)" xlink:href="#DejaVuSans-32"/>
      <use transform="translate(623.535156 0.015625)" xlink:href="#DejaVuSans-91"/>
      <use transform="translate(662.548828 0.015625)" xlink:href="#DejaVuSans-Oblique-68"/>
      <use transform="translate(739.550781 0.015625)" xlink:href="#DejaVuSans-Oblique-65"/>
      <use transform="translate(807.958984 0.015625)" xlink:href="#DejaVuSans-Oblique-67"/>
      <use transform="translate(877.783203 -16.390625)scale(0.7)" xlink:href="#DejaVuSans-Oblique-105"/>
      <use transform="translate(897.231445 -16.390625)scale(0.7)" xlink:href="#DejaVuSans-Oblique-110"/>
      <use transform="translate(941.59668 -16.390625)scale(0.7)" xlink:href="#DejaVuSans-Oblique-106"/>
      <use transform="translate(963.779297 0.015625)" xlink:href="#DejaVuSans-32"/>
      <use transform="translate(995.566406 0.015625)" xlink:href="#DejaVuSans-99"/>
      <use transform="translate(1050.546875 0.015625)" xlink:href="#DejaVuSans-111"/>
      <use transform="translate(1111.728516 0.015625)" xlink:href="#DejaVuSans-100"/>
      <use transform="translate(1175.205078 0.015625)" xlink:href="#DejaVuSans-101"/>
      <use transform="translate(1236.728516 0.015625)" xlink:href="#DejaVuSans-93"/>
     </g>
    </g>
   </g>
   <g id="matplotlib.axis_2">
    <g id="ytick_1">
     <g id="line2d_15">
      <path clip-path="url(#p49d5c16454)" d="M 53.60625 354.958125 
L 583.70625 354.958125 
" style="fill:none;stroke:#b0b0b0;stroke-linecap:square;stroke-width:0.8;"/>
     </g>
     <g id="line2d_16">
      <defs>
       <path d="M 0 0 
L -3.5 0 
" id="m9898f35383" style="stroke:#000000;stroke-width:0.8;"/>
      </defs>
      <g>
       <use style="stroke:#000000;stroke-width:0.8;" x="53.60625" xlink:href="#m9898f35383" y="354.958125"/>
      </g>
     </g>
     <g id="text_9">
      <!-- 0 -->
      <g transform="translate(40.24375 358.757344)scale(0.1 -0.1)">
       <use xlink:href="#DejaVuSans-48"/>
      </g>
     </g>
    </g>
    <g id="ytick_2">
     <g id="line2d_17">
      <path clip-path="url(#p49d5c16454)" d="M 53.60625 317.998125 
L 583.70625 317.998125 
" style="fill:none;stroke:#b0b0b0;stroke-linecap:square;stroke-width:0.8;"/>
     </g>
     <g id="line2d_18">
      <g>
       <use style="stroke:#000000;stroke-width:0.8;" x="53.60625" xlink:href="#m9898f35383" y="317.998125"/>
      </g>
     </g>
     <g id="text_10">
      <!-- 250 -->
      <g transform="translate(27.51875 321.797344)scale(0.1 -0.1)">
       <use xlink:href="#DejaVuSans-50"/>
       <use x="63.623047" xlink:href="#DejaVuSans-53"/>
       <use x="127.246094" xlink:href="#DejaVuSans-48"/>
      </g>
     </g>
    </g>
    <g id="ytick_3">
     <g id="line2d_19">
      <path clip-path="url(#p49d5c16454)" d="M 53.60625 281.038125 
L 583.70625 281.038125 
" style="fill:none;stroke:#b0b0b0;stroke-linecap:square;stroke-width:0.8;"/>
     </g>
     <g id="line2d_20">
      <g>
       <use style="stroke:#000000;stroke-width:0.8;" x="53.60625" xlink:href="#m9898f35383" y="281.038125"/>
      </g>
     </g>
     <g id="text_11">
      <!-- 500 -->
      <g transform="translate(27.51875 284.837344)scale(0.1 -0.1)">
       <use xlink:href="#DejaVuSans-53"/>
       <use x="63.623047" xlink:href="#DejaVuSans-48"/>
       <use x="127.246094" xlink:href="#DejaVuSans-48"/>
      </g>
     </g>
    </g>
    <g id="ytick_4">
     <g id="line2d_21">
      <path clip-path="url(#p49d5c16454)" d="M 53.60625 244.078125 
L 583.70625 244.078125 
" style="fill:none;stroke:#b0b0b0;stroke-linecap:square;stroke-width:0.8;"/>
     </g>
     <g id="line2d_22">
      <g>
       <use style="stroke:#000000;stroke-width:0.8;" x="53.60625" xlink:href="#m9898f35383" y="244.078125"/>
      </g>
     </g>
     <g id="text_12">
      <!-- 750 -->
      <g transform="translate(27.51875 247.877344)scale(0.1 -0.1)">
       <defs>
        <path d="M 8.203125 72.90625 
L 55.078125 72.90625 
L 55.078125 68.703125 
L 28.609375 0 
L 18.3125 0 
L 43.21875 64.59375 
L 8.203125 64.59375 
z
" id="DejaVuSans-55"/>
       </defs>
       <use xlink:href="#DejaVuSans-55"/>
       <use x="63.623047" xlink:href="#DejaVuSans-53"/>
       <use x="127.246094" xlink:href="#DejaVuSans-48"/>
      </g>
     </g>
    </g>
    <g id="ytick_5">
     <g id="line2d_23">
      <path clip-path="url(#p49d5c16454)" d="M 53.60625 207.118125 
L 583.70625 207.118125 
" style="fill:none;stroke:#b0b0b0;stroke-linecap:square;stroke-width:0.8;"/>
     </g>
     <g id="line2d_24">
      <g>
       <use style="stroke:#000000;stroke-width:0.8;" x="53.60625" xlink:href="#m9898f35383" y="207.118125"/>
      </g>
     </g>
     <g id="text_13">
      <!-- 1000 -->
      <g transform="translate(21.15625 210.917344)scale(0.1 -0.1)">
       <use xlink:href="#DejaVuSans-49"/>
       <use x="63.623047" xlink:href="#DejaVuSans-48"/>
       <use x="127.246094" xlink:href="#DejaVuSans-48"/>
       <use x="190.869141" xlink:href="#DejaVuSans-48"/>
      </g>
     </g>
    </g>
    <g id="ytick_6">
     <g id="line2d_25">
      <path clip-path="url(#p49d5c16454)" d="M 53.60625 170.158125 
L 583.70625 170.158125 
" style="fill:none;stroke:#b0b0b0;stroke-linecap:square;stroke-width:0.8;"/>
     </g>
     <g id="line2d_26">
      <g>
       <use style="stroke:#000000;stroke-width:0.8;" x="53.60625" xlink:href="#m9898f35383" y="170.158125"/>
      </g>
     </g>
     <g id="text_14">
      <!-- 1250 -->
      <g transform="translate(21.15625 173.957344)scale(0.1 -0.1)">
       <use xlink:href="#DejaVuSans-49"/>
       <use x="63.623047" xlink:href="#DejaVuSans-50"/>
       <use x="127.246094" xlink:href="#DejaVuSans-53"/>
       <use x="190.869141" xlink:href="#DejaVuSans-48"/>
      </g>
     </g>
    </g>
    <g id="ytick_7">
     <g id="line2d_27">
      <path clip-path="url(#p49d5c16454)" d="M 53.60625 133.198125 
L 583.70625 133.198125 
" style="fill:none;stroke:#b0b0b0;stroke-linecap:square;stroke-width:0.8;"/>
     </g>
     <g id="line2d_28">
      <g>
       <use style="stroke:#000000;stroke-width:0.8;" x="53.60625" xlink:href="#m9898f35383" y="133.198125"/>
      </g>
     </g>
     <g id="text_15">
      <!-- 1500 -->
      <g transform="translate(21.15625 136.997344)scale(0.1 -0.1)">
       <use xlink:href="#DejaVuSans-49"/>
       <use x="63.623047" xlink:href="#DejaVuSans-53"/>
       <use x="127.246094" xlink:href="#DejaVuSans-48"/>
       <use x="190.869141" xlink:href="#DejaVuSans-48"/>
      </g>
     </g>
    </g>
    <g id="ytick_8">
     <g id="line2d_29">
      <path clip-path="url(#p49d5c16454)" d="M 53.60625 96.238125 
L 583.70625 96.238125 
" style="fill:none;stroke:#b0b0b0;stroke-linecap:square;stroke-width:0.8;"/>
     </g>
     <g id="line2d_30">
      <g>
       <use style="stroke:#000000;stroke-width:0.8;" x="53.60625" xlink:href="#m9898f35383" y="96.238125"/>
      </g>
     </g>
     <g id="text_16">
      <!-- 1750 -->
      <g transform="translate(21.15625 100.037344)scale(0.1 -0.1)">
       <use xlink:href="#DejaVuSans-49"/>
       <use x="63.623047" xlink:href="#DejaVuSans-55"/>
       <use x="127.246094" xlink:href="#DejaVuSans-53"/>
       <use x="190.869141" xlink:href="#DejaVuSans-48"/>
      </g>
     </g>
    </g>
    <g id="ytick_9">
     <g id="line2d_31">
      <path clip-path="url(#p49d5c16454)" d="M 53.60625 59.278125 
L 583.70625 59.278125 
" style="fill:none;stroke:#b0b0b0;stroke-linecap:square;stroke-width:0.8;"/>
     </g>
     <g id="line2d_32">
      <g>
       <use style="stroke:#000000;stroke-width:0.8;" x="53.60625" xlink:href="#m9898f35383" y="59.278125"/>
      </g>
     </g>
     <g id="text_17">
      <!-- 2000 -->
      <g transform="translate(21.15625 63.077344)scale(0.1 -0.1)">
       <use xlink:href="#DejaVuSans-50"/>
       <use x="63.623047" xlink:href="#DejaVuSans-48"/>
       <use x="127.246094" xlink:href="#DejaVuSans-48"/>
       <use x="190.869141" xlink:href="#DejaVuSans-48"/>
      </g>
     </g>
    </g>
    <g id="ytick_10">
     <g id="line2d_33">
      <path clip-path="url(#p49d5c16454)" d="M 53.60625 22.318125 
L 583.70625 22.318125 
" style="fill:none;stroke:#b0b0b0;stroke-linecap:square;stroke-width:0.8;"/>
     </g>
     <g id="line2d_34">
      <g>
       <use style="stroke:#000000;stroke-width:0.8;" x="53.60625" xlink:href="#m9898f35383" y="22.318125"/>
      </g>
     </g>
     <g id="text_18">
      <!-- 2250 -->
      <g transform="translate(21.15625 26.117344)scale(0.1 -0.1)">
       <use xlink:href="#DejaVuSans-50"/>
       <use x="63.623047" xlink:href="#DejaVuSans-50"/>
       <use x="127.246094" xlink:href="#DejaVuSans-53"/>
       <use x="190.869141" xlink:href="#DejaVuSans-48"/>
      </g>
     </g>
    </g>
    <g id="text_19">
     <!-- Channel_out [ADC code] -->
     <g transform="translate(14.798437 249.754531)rotate(-90)scale(0.1 -0.1)">
      <defs>
       <path d="M 54.890625 33.015625 
L 54.890625 0 
L 45.90625 0 
L 45.90625 32.71875 
Q 45.90625 40.484375 42.875 44.328125 
Q 39.84375 48.1875 33.796875 48.1875 
Q 26.515625 48.1875 22.3125 43.546875 
Q 18.109375 38.921875 18.109375 30.90625 
L 18.109375 0 
L 9.078125 0 
L 9.078125 75.984375 
L 18.109375 75.984375 
L 18.109375 46.1875 
Q 21.34375 51.125 25.703125 53.5625 
Q 30.078125 56 35.796875 56 
Q 45.21875 56 50.046875 50.171875 
Q 54.890625 44.34375 54.890625 33.015625 
z
" id="DejaVuSans-104"/>
       <path d="M 54.890625 33.015625 
L 54.890625 0 
L 45.90625 0 
L 45.90625 32.71875 
Q 45.90625 40.484375 42.875 44.328125 
Q 39.84375 48.1875 33.796875 48.1875 
Q 26.515625 48.1875 22.3125 43.546875 
Q 18.109375 38.921875 18.109375 30.90625 
L 18.109375 0 
L 9.078125 0 
L 9.078125 54.6875 
L 18.109375 54.6875 
L 18.109375 46.1875 
Q 21.34375 51.125 25.703125 53.5625 
Q 30.078125 56 35.796875 56 
Q 45.21875 56 50.046875 50.171875 
Q 54.890625 44.34375 54.890625 33.015625 
z
" id="DejaVuSans-110"/>
       <path d="M 8.5 21.578125 
L 8.5 54.6875 
L 17.484375 54.6875 
L 17.484375 21.921875 
Q 17.484375 14.15625 20.5 10.265625 
Q 23.53125 6.390625 29.59375 6.390625 
Q 36.859375 6.390625 41.078125 11.03125 
Q 45.3125 15.671875 45.3125 23.6875 
L 45.3125 54.6875 
L 54.296875 54.6875 
L 54.296875 0 
L 45.3125 0 
L 45.3125 8.40625 
Q 42.046875 3.421875 37.71875 1 
Q 33.40625 -1.421875 27.6875 -1.421875 
Q 18.265625 -1.421875 13.375 4.4375 
Q 8.5 10.296875 8.5 21.578125 
z
M 31.109375 56 
z
" id="DejaVuSans-117"/>
       <path d="M 34.1875 63.1875 
L 20.796875 26.90625 
L 47.609375 26.90625 
z
M 28.609375 72.90625 
L 39.796875 72.90625 
L 67.578125 0 
L 57.328125 0 
L 50.6875 18.703125 
L 17.828125 18.703125 
L 11.1875 0 
L 0.78125 0 
z
" id="DejaVuSans-65"/>
       <path d="M 19.671875 64.796875 
L 19.671875 8.109375 
L 31.59375 8.109375 
Q 46.6875 8.109375 53.6875 14.9375 
Q 60.6875 21.78125 60.6875 36.53125 
Q 60.6875 51.171875 53.6875 57.984375 
Q 46.6875 64.796875 31.59375 64.796875 
z
M 9.8125 72.90625 
L 30.078125 72.90625 
Q 51.265625 72.90625 61.171875 64.09375 
Q 71.09375 55.28125 71.09375 36.53125 
Q 71.09375 17.671875 61.125 8.828125 
Q 51.171875 0 30.078125 0 
L 9.8125 0 
z
" id="DejaVuSans-68"/>
      </defs>
      <use xlink:href="#DejaVuSans-67"/>
      <use x="69.824219" xlink:href="#DejaVuSans-104"/>
      <use x="133.203125" xlink:href="#DejaVuSans-97"/>
      <use x="194.482422" xlink:href="#DejaVuSans-110"/>
      <use x="257.861328" xlink:href="#DejaVuSans-110"/>
      <use x="321.240234" xlink:href="#DejaVuSans-101"/>
      <use x="382.763672" xlink:href="#DejaVuSans-108"/>
      <use x="410.546875" xlink:href="#DejaVuSans-95"/>
      <use x="460.546875" xlink:href="#DejaVuSans-111"/>
      <use x="521.728516" xlink:href="#DejaVuSans-117"/>
      <use x="585.107422" xlink:href="#DejaVuSans-116"/>
      <use x="624.316406" xlink:href="#DejaVuSans-32"/>
      <use x="656.103516" xlink:href="#DejaVuSans-91"/>
      <use x="695.117188" xlink:href="#DejaVuSans-65"/>
      <use x="763.525391" xlink:href="#DejaVuSans-68"/>
      <use x="840.527344" xlink:href="#DejaVuSans-67"/>
      <use x="910.351562" xlink:href="#DejaVuSans-32"/>
      <use x="942.138672" xlink:href="#DejaVuSans-99"/>
      <use x="997.119141" xlink:href="#DejaVuSans-111"/>
      <use x="1058.300781" xlink:href="#DejaVuSans-100"/>
      <use x="1121.777344" xlink:href="#DejaVuSans-101"/>
      <use x="1183.300781" xlink:href="#DejaVuSans-93"/>
     </g>
    </g>
   </g>
   <g id="line2d_35">
    <path clip-path="url(#p49d5c16454)" d="M 77.701705 327.665383 
L 77.777015 324.630227 
L 77.852325 323.542125 
L 77.927635 320.733165 
L 78.002945 318.318938 
L 78.078255 316.56112 
L 78.153565 314.099584 
L 78.228875 312.448211 
L 78.304185 310.850061 
L 78.379495 308.660551 
L 79.132596 293.761235 
L 79.885696 284.496103 
L 80.638797 277.280032 
L 81.391898 271.500967 
L 82.144998 266.597114 
L 82.898099 262.337843 
L 83.651199 258.582707 
L 84.4043 255.065594 
L 85.157401 252.442912 
L 86.663602 247.512448 
L 88.169803 243.507463 
L 89.676005 240.01696 
L 91.182206 236.508717 
L 92.688407 234.239373 
L 107.75042 216.09497 
L 122.812432 204.733466 
L 137.874445 196.960039 
L 152.936457 189.776493 
L 167.99847 183.786016 
L 183.060482 178.064608 
L 198.122495 172.958215 
L 213.184507 168.361869 
L 228.24652 163.662035 
L 243.308532 159.251968 
L 258.370545 155.270637 
L 273.432557 151.159207 
L 288.49457 147.538605 
L 303.556582 143.659283 
L 318.618595 139.995808 
L 333.680607 136.589575 
L 348.74262 133.085767 
L 363.804633 129.797805 
L 378.866645 126.43888 
L 393.928658 123.150919 
L 408.99067 119.848173 
L 424.052683 116.415328 
L 439.114695 113.514707 
L 454.176708 110.231181 
L 469.23872 107.255162 
L 484.300733 104.083994 
L 499.362745 101.097626 
L 514.424758 98.041773 
L 529.48677 94.982963 
L 544.548783 91.978855 
L 559.610795 88.900826 
" style="fill:none;stroke:#1f77b4;stroke-linecap:square;stroke-width:1.5;"/>
   </g>
   <g id="line2d_36">
    <path clip-path="url(#p49d5c16454)" d="M 77.701705 325.858778 
L 77.777015 326.027315 
L 77.852325 324.061043 
L 77.927635 322.397843 
L 78.002945 320.669594 
L 78.078255 318.91769 
L 78.153565 317.260403 
L 78.228875 315.576506 
L 78.304185 314.105498 
L 78.379495 312.735021 
L 79.132596 301.02905 
L 79.885696 291.253869 
L 80.638797 283.425741 
L 81.391898 276.962176 
L 82.144998 271.401914 
L 82.898099 267.016979 
L 83.651199 263.226362 
L 84.4043 259.885178 
L 85.157401 256.839674 
L 86.663602 252.170887 
L 88.169803 248.087546 
L 89.676005 244.682791 
L 91.182206 241.578151 
L 92.688407 238.773626 
L 107.75042 221.56505 
L 122.812432 211.053626 
L 137.874445 203.151578 
L 152.936457 196.692448 
L 167.99847 190.857203 
L 183.060482 185.480263 
L 198.122495 180.79817 
L 213.184507 176.148602 
L 228.24652 171.954381 
L 243.308532 168.007053 
L 258.370545 163.815789 
L 273.432557 160.128659 
L 288.49457 156.522842 
L 303.556582 152.946592 
L 318.618595 149.546272 
L 333.680607 146.045421 
L 348.74262 142.693888 
L 363.804633 139.420711 
L 378.866645 136.273197 
L 393.928658 133.261696 
L 408.99067 130.001824 
L 424.052683 126.80848 
L 439.114695 123.854637 
L 454.176708 120.958451 
L 469.23872 117.949907 
L 484.300733 115.04633 
L 499.362745 111.98752 
L 514.424758 109.076551 
L 529.48677 106.282375 
L 544.548783 103.343315 
L 559.610795 100.589056 
" style="fill:none;stroke:#ff7f0e;stroke-linecap:square;stroke-width:1.5;"/>
   </g>
   <g id="line2d_37">
    <path clip-path="url(#p49d5c16454)" d="M 77.701705 326.104192 
L 77.777015 326.896615 
L 77.852325 325.138797 
L 77.927635 323.474119 
L 78.002945 322.056333 
L 78.078255 320.308864 
L 78.153565 318.796461 
L 78.228875 317.712794 
L 78.304185 316.135341 
L 78.379495 314.617024 
L 79.132596 302.798695 
L 79.885696 292.846106 
L 80.638797 284.935187 
L 81.391898 278.272039 
L 82.144998 273.062157 
L 82.898099 268.643219 
L 83.651199 264.944263 
L 84.4043 261.668128 
L 85.157401 258.734983 
L 86.663602 254.058803 
L 88.169803 250.142522 
L 89.676005 246.756986 
L 91.182206 243.828275 
L 92.688407 240.983834 
L 107.75042 224.169991 
L 122.812432 213.843367 
L 137.874445 206.061069 
L 152.936457 199.609331 
L 167.99847 193.989933 
L 183.060482 188.926413 
L 198.122495 184.168922 
L 213.184507 179.687891 
L 228.24652 175.477408 
L 243.308532 171.507904 
L 258.370545 167.933133 
L 273.432557 163.994675 
L 288.49457 160.436167 
L 303.556582 157.04176 
L 318.618595 153.657703 
L 333.680607 150.331303 
L 348.74262 147.143872 
L 363.804633 143.753901 
L 378.866645 140.650739 
L 393.928658 137.696896 
L 408.99067 134.691309 
L 424.052683 131.648762 
L 439.114695 128.752576 
L 454.176708 125.652371 
L 469.23872 122.649741 
L 484.300733 119.840781 
L 499.362745 116.962336 
L 514.424758 114.138592 
L 529.48677 111.381376 
L 544.548783 108.395008 
L 559.610795 105.59344 
" style="fill:none;stroke:#2ca02c;stroke-linecap:square;stroke-width:1.5;"/>
   </g>
   <g id="line2d_38">
    <path clip-path="url(#p49d5c16454)" d="M 77.701705 327.165683 
L 77.777015 327.082893 
L 77.852325 325.80112 
L 77.927635 324.35968 
L 78.002945 322.668391 
L 78.078255 321.303827 
L 78.153565 319.849082 
L 78.228875 318.475648 
L 78.304185 316.986899 
L 78.379495 315.610509 
L 79.132596 303.835053 
L 79.885696 293.778976 
L 80.638797 285.992243 
L 81.391898 279.374925 
L 82.144998 274.216787 
L 82.898099 269.750541 
L 83.651199 266.091501 
L 84.4043 262.957293 
L 85.157401 259.861523 
L 86.663602 255.143949 
L 88.169803 251.175923 
L 89.676005 247.927879 
L 91.182206 245.000647 
L 92.688407 242.440058 
L 107.75042 225.646912 
L 122.812432 215.383859 
L 137.874445 207.613389 
L 152.936457 201.367149 
L 167.99847 195.704877 
L 183.060482 190.728583 
L 198.122495 186.113018 
L 213.184507 181.614247 
L 228.24652 177.50873 
L 243.308532 173.73881 
L 258.370545 169.849139 
L 273.432557 166.23593 
L 288.49457 162.488186 
L 303.556582 159.114477 
L 318.618595 155.841299 
L 333.680607 152.610995 
L 348.74262 149.263898 
L 363.804633 146.097165 
L 378.866645 142.985133 
L 393.928658 139.859795 
L 408.99067 136.892647 
L 424.052683 134.030464 
L 439.114695 130.999744 
L 454.176708 128.187827 
L 469.23872 125.114234 
L 484.300733 122.249095 
L 499.362745 119.454919 
L 514.424758 116.762752 
L 529.48677 113.899091 
L 544.548783 111.171443 
L 559.610795 108.223514 
" style="fill:none;stroke:#d62728;stroke-linecap:square;stroke-width:1.5;"/>
   </g>
   <g id="line2d_39">
    <path clip-path="url(#p49d5c16454)" d="M 77.701705 327.215949 
L 77.777015 327.567808 
L 77.852325 326.114541 
L 77.927635 324.668666 
L 78.002945 323.17696 
L 78.078255 321.867098 
L 78.153565 320.538016 
L 78.228875 319.143885 
L 78.304185 317.791149 
L 78.379495 316.250656 
L 79.132596 304.713223 
L 79.885696 294.710368 
L 80.638797 286.666394 
L 81.391898 280.191002 
L 82.144998 274.766752 
L 82.898099 270.401037 
L 83.651199 266.848442 
L 84.4043 263.593005 
L 85.157401 260.727866 
L 86.663602 255.964461 
L 88.169803 252.051136 
L 89.676005 248.727693 
L 91.182206 245.973434 
L 92.688407 243.346317 
L 107.75042 226.494035 
L 122.812432 216.341863 
L 137.874445 208.760627 
L 152.936457 202.657792 
L 167.99847 196.883162 
L 183.060482 191.970439 
L 198.122495 187.254343 
L 213.184507 182.944807 
L 228.24652 178.831898 
L 243.308532 175.016147 
L 258.370545 171.153088 
L 273.432557 167.581274 
L 288.49457 163.897101 
L 303.556582 160.480519 
L 318.618595 157.236909 
L 333.680607 153.956339 
L 348.74262 150.850221 
L 363.804633 147.708621 
L 378.866645 144.552237 
L 393.928658 141.576218 
L 408.99067 138.406528 
L 424.052683 135.568 
L 439.114695 132.745735 
L 454.176708 129.864333 
L 469.23872 126.79961 
L 484.300733 123.890119 
L 499.362745 121.047155 
L 514.424758 118.422995 
L 529.48677 115.46176 
L 544.548783 112.893779 
L 559.610795 110.172045 
" style="fill:none;stroke:#9467bd;stroke-linecap:square;stroke-width:1.5;"/>
   </g>
   <g id="line2d_40">
    <path clip-path="url(#p49d5c16454)" d="M 77.701705 327.632858 
L 77.777015 327.968455 
L 77.852325 326.571367 
L 77.927635 325.082618 
L 78.002945 323.653005 
L 78.078255 322.368275 
L 78.153565 321.151552 
L 78.228875 319.745594 
L 78.304185 318.281978 
L 78.379495 316.918893 
L 79.132596 305.396243 
L 79.885696 295.331296 
L 80.638797 287.408551 
L 81.391898 280.96864 
L 82.144998 275.590221 
L 82.898099 271.187546 
L 83.651199 267.522592 
L 84.4043 264.234631 
L 85.157401 261.375405 
L 86.663602 256.687399 
L 88.169803 252.813991 
L 89.676005 249.397408 
L 91.182206 246.483482 
L 92.688407 244.060384 
L 107.75042 227.290893 
L 122.812432 217.05593 
L 137.874445 209.588531 
L 152.936457 203.351162 
L 167.99847 197.643059 
L 183.060482 192.805735 
L 198.122495 188.163559 
L 213.184507 183.771232 
L 228.24652 179.866778 
L 243.308532 175.89136 
L 258.370545 172.168749 
L 273.432557 168.670855 
L 288.49457 165.005901 
L 303.556582 161.577491 
L 318.618595 158.307271 
L 333.680607 155.170106 
L 348.74262 151.957543 
L 363.804633 148.805594 
L 378.866645 145.641818 
L 393.928658 142.645101 
L 408.99067 139.704563 
L 424.052683 136.837946 
L 439.114695 133.835315 
L 454.176708 130.940608 
L 469.23872 128.164173 
L 484.300733 125.213287 
L 499.362745 122.361453 
L 514.424758 119.676679 
L 529.48677 117.039213 
L 544.548783 114.137114 
L 559.610795 111.360679 
" style="fill:none;stroke:#8c564b;stroke-linecap:square;stroke-width:1.5;"/>
   </g>
   <g id="line2d_41">
    <path clip-path="url(#p49d5c16454)" d="M 77.701705 327.916711 
L 77.777015 328.188736 
L 77.852325 326.806432 
L 77.927635 325.427085 
L 78.002945 324.105395 
L 78.078255 322.783706 
L 78.153565 321.466451 
L 78.228875 320.149197 
L 78.304185 318.92656 
L 78.379495 317.511731 
L 79.132596 306.033434 
L 79.885696 296.040928 
L 80.638797 288.098963 
L 81.391898 281.571827 
L 82.144998 275.964256 
L 82.898099 271.699072 
L 83.651199 267.988288 
L 84.4043 264.738765 
L 85.157401 261.916499 
L 86.663602 257.074739 
L 88.169803 253.131847 
L 89.676005 249.836493 
L 91.182206 247.06745 
L 92.688407 244.424071 
L 107.75042 227.710759 
L 122.812432 217.697555 
L 137.874445 210.151802 
L 152.936457 203.901127 
L 167.99847 198.327559 
L 183.060482 193.332045 
L 198.122495 188.740135 
L 213.184507 184.435034 
L 228.24652 180.492141 
L 243.308532 176.606906 
L 258.370545 172.711322 
L 273.432557 169.288826 
L 288.49457 165.699271 
L 303.556582 162.259034 
L 318.618595 159.052384 
L 333.680607 155.755552 
L 348.74262 152.578471 
L 363.804633 149.414695 
L 378.866645 146.422413 
L 393.928658 143.282291 
L 408.99067 140.32697 
L 424.052683 137.430784 
L 439.114695 134.575994 
L 454.176708 131.648762 
L 469.23872 128.898938 
L 484.300733 125.943616 
L 499.362745 123.060736 
L 514.424758 120.355264 
L 529.48677 117.618746 
L 544.548783 114.886663 
L 559.610795 112.102835 
" style="fill:none;stroke:#e377c2;stroke-linecap:square;stroke-width:1.5;"/>
   </g>
   <g id="line2d_42">
    <path clip-path="url(#p49d5c16454)" d="M 77.701705 327.887143 
L 77.777015 328.389799 
L 77.852325 326.966099 
L 77.927635 325.780423 
L 78.002945 324.420295 
L 78.078255 323.194701 
L 78.153565 321.864141 
L 78.228875 320.608979 
L 78.304185 319.365645 
L 78.379495 318.077959 
L 79.132596 306.620359 
L 79.885696 296.580544 
L 80.638797 288.675539 
L 81.391898 282.109965 
L 82.144998 276.604403 
L 82.898099 272.105632 
L 83.651199 268.29136 
L 84.4043 265.092103 
L 85.157401 262.25801 
L 86.663602 257.438426 
L 88.169803 253.446746 
L 89.676005 250.257837 
L 91.182206 247.389741 
L 92.688407 244.815847 
L 107.75042 228.241504 
L 122.812432 218.111507 
L 137.874445 210.542099 
L 152.936457 204.425959 
L 167.99847 198.865696 
L 183.060482 193.788871 
L 198.122495 189.403936 
L 213.184507 184.993869 
L 228.24652 180.897223 
L 243.308532 176.998682 
L 258.370545 173.37808 
L 273.432557 169.853575 
L 288.49457 166.53161 
L 303.556582 162.80752 
L 318.618595 159.566867 
L 333.680607 156.33952 
L 348.74262 153.177223 
L 363.804633 150.041536 
L 378.866645 147.096563 
L 393.928658 143.818951 
L 408.99067 140.869543 
L 424.052683 137.958573 
L 439.114695 134.924896 
L 454.176708 132.126285 
L 469.23872 129.342458 
L 484.300733 126.40192 
L 499.362745 123.637312 
L 514.424758 120.899315 
L 529.48677 118.205671 
L 544.548783 115.374535 
L 559.610795 112.787335 
" style="fill:none;stroke:#7f7f7f;stroke-linecap:square;stroke-width:1.5;"/>
   </g>
   <g id="patch_3">
    <path d="M 53.60625 354.958125 
L 53.60625 22.318125 
" style="fill:none;stroke:#000000;stroke-linecap:square;stroke-linejoin:miter;stroke-width:0.8;"/>
   </g>
   <g id="patch_4">
    <path d="M 583.70625 354.958125 
L 583.70625 22.318125 
" style="fill:none;stroke:#000000;stroke-linecap:square;stroke-linejoin:miter;stroke-width:0.8;"/>
   </g>
   <g id="patch_5">
    <path d="M 53.60625 354.958125 
L 583.70625 354.958125 
" style="fill:none;stroke:#000000;stroke-linecap:square;stroke-linejoin:miter;stroke-width:0.8;"/>
   </g>
   <g id="patch_6">
    <path d="M 53.60625 22.318125 
L 583.70625 22.318125 
" style="fill:none;stroke:#000000;stroke-linecap:square;stroke-linejoin:miter;stroke-width:0.8;"/>
   </g>
   <g id="text_20">
    <!-- Transfer function of channel #26 -->
    <g transform="translate(220.209375 16.318125)scale(0.12 -0.12)">
     <defs>
      <path d="M -0.296875 72.90625 
L 61.375 72.90625 
L 61.375 64.59375 
L 35.5 64.59375 
L 35.5 0 
L 25.59375 0 
L 25.59375 64.59375 
L -0.296875 64.59375 
z
" id="DejaVuSans-84"/>
      <path d="M 41.109375 46.296875 
Q 39.59375 47.171875 37.8125 47.578125 
Q 36.03125 48 33.890625 48 
Q 26.265625 48 22.1875 43.046875 
Q 18.109375 38.09375 18.109375 28.8125 
L 18.109375 0 
L 9.078125 0 
L 9.078125 54.6875 
L 18.109375 54.6875 
L 18.109375 46.1875 
Q 20.953125 51.171875 25.484375 53.578125 
Q 30.03125 56 36.53125 56 
Q 37.453125 56 38.578125 55.875 
Q 39.703125 55.765625 41.0625 55.515625 
z
" id="DejaVuSans-114"/>
      <path d="M 44.28125 53.078125 
L 44.28125 44.578125 
Q 40.484375 46.53125 36.375 47.5 
Q 32.28125 48.484375 27.875 48.484375 
Q 21.1875 48.484375 17.84375 46.4375 
Q 14.5 44.390625 14.5 40.28125 
Q 14.5 37.15625 16.890625 35.375 
Q 19.28125 33.59375 26.515625 31.984375 
L 29.59375 31.296875 
Q 39.15625 29.25 43.1875 25.515625 
Q 47.21875 21.78125 47.21875 15.09375 
Q 47.21875 7.46875 41.1875 3.015625 
Q 35.15625 -1.421875 24.609375 -1.421875 
Q 20.21875 -1.421875 15.453125 -0.5625 
Q 10.6875 0.296875 5.421875 2 
L 5.421875 11.28125 
Q 10.40625 8.6875 15.234375 7.390625 
Q 20.0625 6.109375 24.8125 6.109375 
Q 31.15625 6.109375 34.5625 8.28125 
Q 37.984375 10.453125 37.984375 14.40625 
Q 37.984375 18.0625 35.515625 20.015625 
Q 33.0625 21.96875 24.703125 23.78125 
L 21.578125 24.515625 
Q 13.234375 26.265625 9.515625 29.90625 
Q 5.8125 33.546875 5.8125 39.890625 
Q 5.8125 47.609375 11.28125 51.796875 
Q 16.75 56 26.8125 56 
Q 31.78125 56 36.171875 55.265625 
Q 40.578125 54.546875 44.28125 53.078125 
z
" id="DejaVuSans-115"/>
      <path d="M 37.109375 75.984375 
L 37.109375 68.5 
L 28.515625 68.5 
Q 23.6875 68.5 21.796875 66.546875 
Q 19.921875 64.59375 19.921875 59.515625 
L 19.921875 54.6875 
L 34.71875 54.6875 
L 34.71875 47.703125 
L 19.921875 47.703125 
L 19.921875 0 
L 10.890625 0 
L 10.890625 47.703125 
L 2.296875 47.703125 
L 2.296875 54.6875 
L 10.890625 54.6875 
L 10.890625 58.5 
Q 10.890625 67.625 15.140625 71.796875 
Q 19.390625 75.984375 28.609375 75.984375 
z
" id="DejaVuSans-102"/>
      <path d="M 9.421875 54.6875 
L 18.40625 54.6875 
L 18.40625 0 
L 9.421875 0 
z
M 9.421875 75.984375 
L 18.40625 75.984375 
L 18.40625 64.59375 
L 9.421875 64.59375 
z
" id="DejaVuSans-105"/>
      <path d="M 51.125 44 
L 36.921875 44 
L 32.8125 27.6875 
L 47.125 27.6875 
z
M 43.796875 71.78125 
L 38.71875 51.515625 
L 52.984375 51.515625 
L 58.109375 71.78125 
L 65.921875 71.78125 
L 60.890625 51.515625 
L 76.125 51.515625 
L 76.125 44 
L 58.984375 44 
L 54.984375 27.6875 
L 70.515625 27.6875 
L 70.515625 20.21875 
L 53.078125 20.21875 
L 48 0 
L 40.1875 0 
L 45.21875 20.21875 
L 30.90625 20.21875 
L 25.875 0 
L 18.015625 0 
L 23.09375 20.21875 
L 7.71875 20.21875 
L 7.71875 27.6875 
L 24.90625 27.6875 
L 29 44 
L 13.28125 44 
L 13.28125 51.515625 
L 30.90625 51.515625 
L 35.890625 71.78125 
z
" id="DejaVuSans-35"/>
     </defs>
     <use xlink:href="#DejaVuSans-84"/>
     <use x="46.333984" xlink:href="#DejaVuSans-114"/>
     <use x="87.447266" xlink:href="#DejaVuSans-97"/>
     <use x="148.726562" xlink:href="#DejaVuSans-110"/>
     <use x="212.105469" xlink:href="#DejaVuSans-115"/>
     <use x="264.205078" xlink:href="#DejaVuSans-102"/>
     <use x="299.410156" xlink:href="#DejaVuSans-101"/>
     <use x="360.933594" xlink:href="#DejaVuSans-114"/>
     <use x="402.046875" xlink:href="#DejaVuSans-32"/>
     <use x="433.833984" xlink:href="#DejaVuSans-102"/>
     <use x="469.039062" xlink:href="#DejaVuSans-117"/>
     <use x="532.417969" xlink:href="#DejaVuSans-110"/>
     <use x="595.796875" xlink:href="#DejaVuSans-99"/>
     <use x="650.777344" xlink:href="#DejaVuSans-116"/>
     <use x="689.986328" xlink:href="#DejaVuSans-105"/>
     <use x="717.769531" xlink:href="#DejaVuSans-111"/>
     <use x="778.951172" xlink:href="#DejaVuSans-110"/>
     <use x="842.330078" xlink:href="#DejaVuSans-32"/>
     <use x="874.117188" xlink:href="#DejaVuSans-111"/>
     <use x="935.298828" xlink:href="#DejaVuSans-102"/>
     <use x="970.503906" xlink:href="#DejaVuSans-32"/>
     <use x="1002.291016" xlink:href="#DejaVuSans-99"/>
     <use x="1057.271484" xlink:href="#DejaVuSans-104"/>
     <use x="1120.650391" xlink:href="#DejaVuSans-97"/>
     <use x="1181.929688" xlink:href="#DejaVuSans-110"/>
     <use x="1245.308594" xlink:href="#DejaVuSans-110"/>
     <use x="1308.6875" xlink:href="#DejaVuSans-101"/>
     <use x="1370.210938" xlink:href="#DejaVuSans-108"/>
     <use x="1397.994141" xlink:href="#DejaVuSans-32"/>
     <use x="1429.78125" xlink:href="#DejaVuSans-35"/>
     <use x="1513.570312" xlink:href="#DejaVuSans-50"/>
     <use x="1577.193359" xlink:href="#DejaVuSans-54"/>
    </g>
   </g>
   <g id="legend_1">
    <g id="patch_7">
     <path d="M 618.42125 248.850625 
L 661.22125 248.850625 
Q 663.22125 248.850625 663.22125 246.850625 
L 663.22125 130.425625 
Q 663.22125 128.425625 661.22125 128.425625 
L 618.42125 128.425625 
Q 616.42125 128.425625 616.42125 130.425625 
L 616.42125 246.850625 
Q 616.42125 248.850625 618.42125 248.850625 
z
" style="fill:#ffffff;opacity:0.8;stroke:#cccccc;stroke-linejoin:miter;"/>
    </g>
    <g id="line2d_43">
     <path d="M 620.42125 136.524063 
L 640.42125 136.524063 
" style="fill:none;stroke:#1f77b4;stroke-linecap:square;stroke-width:1.5;"/>
    </g>
    <g id="line2d_44"/>
    <g id="text_21">
     <!-- $\tau_0$ -->
     <g transform="translate(648.42125 140.024063)scale(0.1 -0.1)">
      <defs>
       <path d="M 32.859375 9.96875 
Q 34.1875 7.625 39.453125 7.625 
L 43.75 7.625 
L 42.28125 0 
L 36.921875 0 
Q 28.125 0 25 4.6875 
Q 21.921875 9.46875 23.96875 19.828125 
L 29 45.703125 
L 8.453125 45.703125 
L 10.203125 54.6875 
L 60.640625 54.6875 
L 58.890625 45.703125 
L 38.1875 45.703125 
L 33.015625 19.28125 
Q 31.640625 12.203125 32.859375 9.96875 
z
" id="DejaVuSans-Oblique-964"/>
      </defs>
      <use transform="translate(0 0.3125)" xlink:href="#DejaVuSans-Oblique-964"/>
      <use transform="translate(60.205078 -16.09375)scale(0.7)" xlink:href="#DejaVuSans-48"/>
     </g>
    </g>
    <g id="line2d_45">
     <path d="M 620.42125 151.202188 
L 640.42125 151.202188 
" style="fill:none;stroke:#ff7f0e;stroke-linecap:square;stroke-width:1.5;"/>
    </g>
    <g id="line2d_46"/>
    <g id="text_22">
     <!-- $\tau_1$ -->
     <g transform="translate(648.42125 154.702188)scale(0.1 -0.1)">
      <use transform="translate(0 0.3125)" xlink:href="#DejaVuSans-Oblique-964"/>
      <use transform="translate(60.205078 -16.09375)scale(0.7)" xlink:href="#DejaVuSans-49"/>
     </g>
    </g>
    <g id="line2d_47">
     <path d="M 620.42125 165.880313 
L 640.42125 165.880313 
" style="fill:none;stroke:#2ca02c;stroke-linecap:square;stroke-width:1.5;"/>
    </g>
    <g id="line2d_48"/>
    <g id="text_23">
     <!-- $\tau_2$ -->
     <g transform="translate(648.42125 169.380313)scale(0.1 -0.1)">
      <use transform="translate(0 0.3125)" xlink:href="#DejaVuSans-Oblique-964"/>
      <use transform="translate(60.205078 -16.09375)scale(0.7)" xlink:href="#DejaVuSans-50"/>
     </g>
    </g>
    <g id="line2d_49">
     <path d="M 620.42125 180.558438 
L 640.42125 180.558438 
" style="fill:none;stroke:#d62728;stroke-linecap:square;stroke-width:1.5;"/>
    </g>
    <g id="line2d_50"/>
    <g id="text_24">
     <!-- $\tau_3$ -->
     <g transform="translate(648.42125 184.058438)scale(0.1 -0.1)">
      <use transform="translate(0 0.3125)" xlink:href="#DejaVuSans-Oblique-964"/>
      <use transform="translate(60.205078 -16.09375)scale(0.7)" xlink:href="#DejaVuSans-51"/>
     </g>
    </g>
    <g id="line2d_51">
     <path d="M 620.42125 195.236563 
L 640.42125 195.236563 
" style="fill:none;stroke:#9467bd;stroke-linecap:square;stroke-width:1.5;"/>
    </g>
    <g id="line2d_52"/>
    <g id="text_25">
     <!-- $\tau_4$ -->
     <g transform="translate(648.42125 198.736563)scale(0.1 -0.1)">
      <use transform="translate(0 0.3125)" xlink:href="#DejaVuSans-Oblique-964"/>
      <use transform="translate(60.205078 -16.09375)scale(0.7)" xlink:href="#DejaVuSans-52"/>
     </g>
    </g>
    <g id="line2d_53">
     <path d="M 620.42125 209.914688 
L 640.42125 209.914688 
" style="fill:none;stroke:#8c564b;stroke-linecap:square;stroke-width:1.5;"/>
    </g>
    <g id="line2d_54"/>
    <g id="text_26">
     <!-- $\tau_5$ -->
     <g transform="translate(648.42125 213.414688)scale(0.1 -0.1)">
      <use transform="translate(0 0.3125)" xlink:href="#DejaVuSans-Oblique-964"/>
      <use transform="translate(60.205078 -16.09375)scale(0.7)" xlink:href="#DejaVuSans-53"/>
     </g>
    </g>
    <g id="line2d_55">
     <path d="M 620.42125 224.592813 
L 640.42125 224.592813 
" style="fill:none;stroke:#e377c2;stroke-linecap:square;stroke-width:1.5;"/>
    </g>
    <g id="line2d_56"/>
    <g id="text_27">
     <!-- $\tau_6$ -->
     <g transform="translate(648.42125 228.092813)scale(0.1 -0.1)">
      <use transform="translate(0 0.3125)" xlink:href="#DejaVuSans-Oblique-964"/>
      <use transform="translate(60.205078 -16.09375)scale(0.7)" xlink:href="#DejaVuSans-54"/>
     </g>
    </g>
    <g id="line2d_57">
     <path d="M 620.42125 239.270938 
L 640.42125 239.270938 
" style="fill:none;stroke:#7f7f7f;stroke-linecap:square;stroke-width:1.5;"/>
    </g>
    <g id="line2d_58"/>
    <g id="text_28">
     <!-- $\tau_7$ -->
     <g transform="translate(648.42125 242.770938)scale(0.1 -0.1)">
      <use transform="translate(0 0.3125)" xlink:href="#DejaVuSans-Oblique-964"/>
      <use transform="translate(60.205078 -16.09375)scale(0.7)" xlink:href="#DejaVuSans-55"/>
     </g>
    </g>
   </g>
  </g>
 </g>
 <defs>
  <clipPath id="p49d5c16454">
   <rect height="332.64" width="530.1" x="53.60625" y="22.318125"/>
  </clipPath>
 </defs>
</svg>
