<?xml version="1.0" encoding="utf-8" standalone="no"?>
<!DOCTYPE svg PUBLIC "-//W3C//DTD SVG 1.1//EN"
  "http://www.w3.org/Graphics/SVG/1.1/DTD/svg11.dtd">
<!-- Created with matplotlib (https://matplotlib.org/) -->
<svg height="393.53625pt" version="1.1" viewBox="0 0 670.42125 393.53625" width="670.42125pt" xmlns="http://www.w3.org/2000/svg" xmlns:xlink="http://www.w3.org/1999/xlink">
 <metadata>
  <rdf:RDF xmlns:cc="http://creativecommons.org/ns#" xmlns:dc="http://purl.org/dc/elements/1.1/" xmlns:rdf="http://www.w3.org/1999/02/22-rdf-syntax-ns#">
   <cc:Work>
    <dc:type rdf:resource="http://purl.org/dc/dcmitype/StillImage"/>
    <dc:date>2022-12-07T16:00:25.598269</dc:date>
    <dc:format>image/svg+xml</dc:format>
    <dc:creator>
     <cc:Agent>
      <dc:title>Matplotlib v3.3.4, https://matplotlib.org/</dc:title>
     </cc:Agent>
    </dc:creator>
   </cc:Work>
  </rdf:RDF>
 </metadata>
 <defs>
  <style type="text/css">*{stroke-linecap:butt;stroke-linejoin:round;}</style>
 </defs>
 <g id="figure_1">
  <g id="patch_1">
   <path d="M 0 393.53625 
L 670.42125 393.53625 
L 670.42125 0 
L 0 0 
z
" style="fill:#ffffff;"/>
  </g>
  <g id="axes_1">
   <g id="patch_2">
    <path d="M 53.60625 354.958125 
L 583.70625 354.958125 
L 583.70625 22.318125 
L 53.60625 22.318125 
z
" style="fill:#ffffff;"/>
   </g>
   <g id="matplotlib.axis_1">
    <g id="xtick_1">
     <g id="line2d_1">
      <path clip-path="url(#pdc23a86345)" d="M 77.626394 354.958125 
L 77.626394 22.318125 
" style="fill:none;stroke:#b0b0b0;stroke-linecap:square;stroke-width:0.8;"/>
     </g>
     <g id="line2d_2">
      <defs>
       <path d="M 0 0 
L 0 3.5 
" id="m458a027396" style="stroke:#000000;stroke-width:0.8;"/>
      </defs>
      <g>
       <use style="stroke:#000000;stroke-width:0.8;" x="77.626394" xlink:href="#m458a027396" y="354.958125"/>
      </g>
     </g>
     <g id="text_1">
      <!-- 0 -->
      <g transform="translate(74.445144 369.556562)scale(0.1 -0.1)">
       <defs>
        <path d="M 31.78125 66.40625 
Q 24.171875 66.40625 20.328125 58.90625 
Q 16.5 51.421875 16.5 36.375 
Q 16.5 21.390625 20.328125 13.890625 
Q 24.171875 6.390625 31.78125 6.390625 
Q 39.453125 6.390625 43.28125 13.890625 
Q 47.125 21.390625 47.125 36.375 
Q 47.125 51.421875 43.28125 58.90625 
Q 39.453125 66.40625 31.78125 66.40625 
z
M 31.78125 74.21875 
Q 44.046875 74.21875 50.515625 64.515625 
Q 56.984375 54.828125 56.984375 36.375 
Q 56.984375 17.96875 50.515625 8.265625 
Q 44.046875 -1.421875 31.78125 -1.421875 
Q 19.53125 -1.421875 13.0625 8.265625 
Q 6.59375 17.96875 6.59375 36.375 
Q 6.59375 54.828125 13.0625 64.515625 
Q 19.53125 74.21875 31.78125 74.21875 
z
" id="DejaVuSans-48"/>
       </defs>
       <use xlink:href="#DejaVuSans-48"/>
      </g>
     </g>
    </g>
    <g id="xtick_2">
     <g id="line2d_3">
      <path clip-path="url(#pdc23a86345)" d="M 152.936457 354.958125 
L 152.936457 22.318125 
" style="fill:none;stroke:#b0b0b0;stroke-linecap:square;stroke-width:0.8;"/>
     </g>
     <g id="line2d_4">
      <g>
       <use style="stroke:#000000;stroke-width:0.8;" x="152.936457" xlink:href="#m458a027396" y="354.958125"/>
      </g>
     </g>
     <g id="text_2">
      <!-- 10000 -->
      <g transform="translate(137.030207 369.556562)scale(0.1 -0.1)">
       <defs>
        <path d="M 12.40625 8.296875 
L 28.515625 8.296875 
L 28.515625 63.921875 
L 10.984375 60.40625 
L 10.984375 69.390625 
L 28.421875 72.90625 
L 38.28125 72.90625 
L 38.28125 8.296875 
L 54.390625 8.296875 
L 54.390625 0 
L 12.40625 0 
z
" id="DejaVuSans-49"/>
       </defs>
       <use xlink:href="#DejaVuSans-49"/>
       <use x="63.623047" xlink:href="#DejaVuSans-48"/>
       <use x="127.246094" xlink:href="#DejaVuSans-48"/>
       <use x="190.869141" xlink:href="#DejaVuSans-48"/>
       <use x="254.492188" xlink:href="#DejaVuSans-48"/>
      </g>
     </g>
    </g>
    <g id="xtick_3">
     <g id="line2d_5">
      <path clip-path="url(#pdc23a86345)" d="M 228.24652 354.958125 
L 228.24652 22.318125 
" style="fill:none;stroke:#b0b0b0;stroke-linecap:square;stroke-width:0.8;"/>
     </g>
     <g id="line2d_6">
      <g>
       <use style="stroke:#000000;stroke-width:0.8;" x="228.24652" xlink:href="#m458a027396" y="354.958125"/>
      </g>
     </g>
     <g id="text_3">
      <!-- 20000 -->
      <g transform="translate(212.34027 369.556562)scale(0.1 -0.1)">
       <defs>
        <path d="M 19.1875 8.296875 
L 53.609375 8.296875 
L 53.609375 0 
L 7.328125 0 
L 7.328125 8.296875 
Q 12.9375 14.109375 22.625 23.890625 
Q 32.328125 33.6875 34.8125 36.53125 
Q 39.546875 41.84375 41.421875 45.53125 
Q 43.3125 49.21875 43.3125 52.78125 
Q 43.3125 58.59375 39.234375 62.25 
Q 35.15625 65.921875 28.609375 65.921875 
Q 23.96875 65.921875 18.8125 64.3125 
Q 13.671875 62.703125 7.8125 59.421875 
L 7.8125 69.390625 
Q 13.765625 71.78125 18.9375 73 
Q 24.125 74.21875 28.421875 74.21875 
Q 39.75 74.21875 46.484375 68.546875 
Q 53.21875 62.890625 53.21875 53.421875 
Q 53.21875 48.921875 51.53125 44.890625 
Q 49.859375 40.875 45.40625 35.40625 
Q 44.1875 33.984375 37.640625 27.21875 
Q 31.109375 20.453125 19.1875 8.296875 
z
" id="DejaVuSans-50"/>
       </defs>
       <use xlink:href="#DejaVuSans-50"/>
       <use x="63.623047" xlink:href="#DejaVuSans-48"/>
       <use x="127.246094" xlink:href="#DejaVuSans-48"/>
       <use x="190.869141" xlink:href="#DejaVuSans-48"/>
       <use x="254.492188" xlink:href="#DejaVuSans-48"/>
      </g>
     </g>
    </g>
    <g id="xtick_4">
     <g id="line2d_7">
      <path clip-path="url(#pdc23a86345)" d="M 303.556582 354.958125 
L 303.556582 22.318125 
" style="fill:none;stroke:#b0b0b0;stroke-linecap:square;stroke-width:0.8;"/>
     </g>
     <g id="line2d_8">
      <g>
       <use style="stroke:#000000;stroke-width:0.8;" x="303.556582" xlink:href="#m458a027396" y="354.958125"/>
      </g>
     </g>
     <g id="text_4">
      <!-- 30000 -->
      <g transform="translate(287.650332 369.556562)scale(0.1 -0.1)">
       <defs>
        <path d="M 40.578125 39.3125 
Q 47.65625 37.796875 51.625 33 
Q 55.609375 28.21875 55.609375 21.1875 
Q 55.609375 10.40625 48.1875 4.484375 
Q 40.765625 -1.421875 27.09375 -1.421875 
Q 22.515625 -1.421875 17.65625 -0.515625 
Q 12.796875 0.390625 7.625 2.203125 
L 7.625 11.71875 
Q 11.71875 9.328125 16.59375 8.109375 
Q 21.484375 6.890625 26.8125 6.890625 
Q 36.078125 6.890625 40.9375 10.546875 
Q 45.796875 14.203125 45.796875 21.1875 
Q 45.796875 27.640625 41.28125 31.265625 
Q 36.765625 34.90625 28.71875 34.90625 
L 20.21875 34.90625 
L 20.21875 43.015625 
L 29.109375 43.015625 
Q 36.375 43.015625 40.234375 45.921875 
Q 44.09375 48.828125 44.09375 54.296875 
Q 44.09375 59.90625 40.109375 62.90625 
Q 36.140625 65.921875 28.71875 65.921875 
Q 24.65625 65.921875 20.015625 65.03125 
Q 15.375 64.15625 9.8125 62.3125 
L 9.8125 71.09375 
Q 15.4375 72.65625 20.34375 73.4375 
Q 25.25 74.21875 29.59375 74.21875 
Q 40.828125 74.21875 47.359375 69.109375 
Q 53.90625 64.015625 53.90625 55.328125 
Q 53.90625 49.265625 50.4375 45.09375 
Q 46.96875 40.921875 40.578125 39.3125 
z
" id="DejaVuSans-51"/>
       </defs>
       <use xlink:href="#DejaVuSans-51"/>
       <use x="63.623047" xlink:href="#DejaVuSans-48"/>
       <use x="127.246094" xlink:href="#DejaVuSans-48"/>
       <use x="190.869141" xlink:href="#DejaVuSans-48"/>
       <use x="254.492188" xlink:href="#DejaVuSans-48"/>
      </g>
     </g>
    </g>
    <g id="xtick_5">
     <g id="line2d_9">
      <path clip-path="url(#pdc23a86345)" d="M 378.866645 354.958125 
L 378.866645 22.318125 
" style="fill:none;stroke:#b0b0b0;stroke-linecap:square;stroke-width:0.8;"/>
     </g>
     <g id="line2d_10">
      <g>
       <use style="stroke:#000000;stroke-width:0.8;" x="378.866645" xlink:href="#m458a027396" y="354.958125"/>
      </g>
     </g>
     <g id="text_5">
      <!-- 40000 -->
      <g transform="translate(362.960395 369.556562)scale(0.1 -0.1)">
       <defs>
        <path d="M 37.796875 64.3125 
L 12.890625 25.390625 
L 37.796875 25.390625 
z
M 35.203125 72.90625 
L 47.609375 72.90625 
L 47.609375 25.390625 
L 58.015625 25.390625 
L 58.015625 17.1875 
L 47.609375 17.1875 
L 47.609375 0 
L 37.796875 0 
L 37.796875 17.1875 
L 4.890625 17.1875 
L 4.890625 26.703125 
z
" id="DejaVuSans-52"/>
       </defs>
       <use xlink:href="#DejaVuSans-52"/>
       <use x="63.623047" xlink:href="#DejaVuSans-48"/>
       <use x="127.246094" xlink:href="#DejaVuSans-48"/>
       <use x="190.869141" xlink:href="#DejaVuSans-48"/>
       <use x="254.492188" xlink:href="#DejaVuSans-48"/>
      </g>
     </g>
    </g>
    <g id="xtick_6">
     <g id="line2d_11">
      <path clip-path="url(#pdc23a86345)" d="M 454.176708 354.958125 
L 454.176708 22.318125 
" style="fill:none;stroke:#b0b0b0;stroke-linecap:square;stroke-width:0.8;"/>
     </g>
     <g id="line2d_12">
      <g>
       <use style="stroke:#000000;stroke-width:0.8;" x="454.176708" xlink:href="#m458a027396" y="354.958125"/>
      </g>
     </g>
     <g id="text_6">
      <!-- 50000 -->
      <g transform="translate(438.270458 369.556562)scale(0.1 -0.1)">
       <defs>
        <path d="M 10.796875 72.90625 
L 49.515625 72.90625 
L 49.515625 64.59375 
L 19.828125 64.59375 
L 19.828125 46.734375 
Q 21.96875 47.46875 24.109375 47.828125 
Q 26.265625 48.1875 28.421875 48.1875 
Q 40.625 48.1875 47.75 41.5 
Q 54.890625 34.8125 54.890625 23.390625 
Q 54.890625 11.625 47.5625 5.09375 
Q 40.234375 -1.421875 26.90625 -1.421875 
Q 22.3125 -1.421875 17.546875 -0.640625 
Q 12.796875 0.140625 7.71875 1.703125 
L 7.71875 11.625 
Q 12.109375 9.234375 16.796875 8.0625 
Q 21.484375 6.890625 26.703125 6.890625 
Q 35.15625 6.890625 40.078125 11.328125 
Q 45.015625 15.765625 45.015625 23.390625 
Q 45.015625 31 40.078125 35.4375 
Q 35.15625 39.890625 26.703125 39.890625 
Q 22.75 39.890625 18.8125 39.015625 
Q 14.890625 38.140625 10.796875 36.28125 
z
" id="DejaVuSans-53"/>
       </defs>
       <use xlink:href="#DejaVuSans-53"/>
       <use x="63.623047" xlink:href="#DejaVuSans-48"/>
       <use x="127.246094" xlink:href="#DejaVuSans-48"/>
       <use x="190.869141" xlink:href="#DejaVuSans-48"/>
       <use x="254.492188" xlink:href="#DejaVuSans-48"/>
      </g>
     </g>
    </g>
    <g id="xtick_7">
     <g id="line2d_13">
      <path clip-path="url(#pdc23a86345)" d="M 529.48677 354.958125 
L 529.48677 22.318125 
" style="fill:none;stroke:#b0b0b0;stroke-linecap:square;stroke-width:0.8;"/>
     </g>
     <g id="line2d_14">
      <g>
       <use style="stroke:#000000;stroke-width:0.8;" x="529.48677" xlink:href="#m458a027396" y="354.958125"/>
      </g>
     </g>
     <g id="text_7">
      <!-- 60000 -->
      <g transform="translate(513.58052 369.556562)scale(0.1 -0.1)">
       <defs>
        <path d="M 33.015625 40.375 
Q 26.375 40.375 22.484375 35.828125 
Q 18.609375 31.296875 18.609375 23.390625 
Q 18.609375 15.53125 22.484375 10.953125 
Q 26.375 6.390625 33.015625 6.390625 
Q 39.65625 6.390625 43.53125 10.953125 
Q 47.40625 15.53125 47.40625 23.390625 
Q 47.40625 31.296875 43.53125 35.828125 
Q 39.65625 40.375 33.015625 40.375 
z
M 52.59375 71.296875 
L 52.59375 62.3125 
Q 48.875 64.0625 45.09375 64.984375 
Q 41.3125 65.921875 37.59375 65.921875 
Q 27.828125 65.921875 22.671875 59.328125 
Q 17.53125 52.734375 16.796875 39.40625 
Q 19.671875 43.65625 24.015625 45.921875 
Q 28.375 48.1875 33.59375 48.1875 
Q 44.578125 48.1875 50.953125 41.515625 
Q 57.328125 34.859375 57.328125 23.390625 
Q 57.328125 12.15625 50.6875 5.359375 
Q 44.046875 -1.421875 33.015625 -1.421875 
Q 20.359375 -1.421875 13.671875 8.265625 
Q 6.984375 17.96875 6.984375 36.375 
Q 6.984375 53.65625 15.1875 63.9375 
Q 23.390625 74.21875 37.203125 74.21875 
Q 40.921875 74.21875 44.703125 73.484375 
Q 48.484375 72.75 52.59375 71.296875 
z
" id="DejaVuSans-54"/>
       </defs>
       <use xlink:href="#DejaVuSans-54"/>
       <use x="63.623047" xlink:href="#DejaVuSans-48"/>
       <use x="127.246094" xlink:href="#DejaVuSans-48"/>
       <use x="190.869141" xlink:href="#DejaVuSans-48"/>
       <use x="254.492188" xlink:href="#DejaVuSans-48"/>
      </g>
     </g>
    </g>
    <g id="text_8">
     <!-- Cal_Voltage [$DAC_{inj}$ code] -->
     <g transform="translate(254.85625 383.23625)scale(0.1 -0.1)">
      <defs>
       <path d="M 64.40625 67.28125 
L 64.40625 56.890625 
Q 59.421875 61.53125 53.78125 63.8125 
Q 48.140625 66.109375 41.796875 66.109375 
Q 29.296875 66.109375 22.65625 58.46875 
Q 16.015625 50.828125 16.015625 36.375 
Q 16.015625 21.96875 22.65625 14.328125 
Q 29.296875 6.6875 41.796875 6.6875 
Q 48.140625 6.6875 53.78125 8.984375 
Q 59.421875 11.28125 64.40625 15.921875 
L 64.40625 5.609375 
Q 59.234375 2.09375 53.4375 0.328125 
Q 47.65625 -1.421875 41.21875 -1.421875 
Q 24.65625 -1.421875 15.125 8.703125 
Q 5.609375 18.84375 5.609375 36.375 
Q 5.609375 53.953125 15.125 64.078125 
Q 24.65625 74.21875 41.21875 74.21875 
Q 47.75 74.21875 53.53125 72.484375 
Q 59.328125 70.75 64.40625 67.28125 
z
" id="DejaVuSans-67"/>
       <path d="M 34.28125 27.484375 
Q 23.390625 27.484375 19.1875 25 
Q 14.984375 22.515625 14.984375 16.5 
Q 14.984375 11.71875 18.140625 8.90625 
Q 21.296875 6.109375 26.703125 6.109375 
Q 34.1875 6.109375 38.703125 11.40625 
Q 43.21875 16.703125 43.21875 25.484375 
L 43.21875 27.484375 
z
M 52.203125 31.203125 
L 52.203125 0 
L 43.21875 0 
L 43.21875 8.296875 
Q 40.140625 3.328125 35.546875 0.953125 
Q 30.953125 -1.421875 24.3125 -1.421875 
Q 15.921875 -1.421875 10.953125 3.296875 
Q 6 8.015625 6 15.921875 
Q 6 25.140625 12.171875 29.828125 
Q 18.359375 34.515625 30.609375 34.515625 
L 43.21875 34.515625 
L 43.21875 35.40625 
Q 43.21875 41.609375 39.140625 45 
Q 35.0625 48.390625 27.6875 48.390625 
Q 23 48.390625 18.546875 47.265625 
Q 14.109375 46.140625 10.015625 43.890625 
L 10.015625 52.203125 
Q 14.9375 54.109375 19.578125 55.046875 
Q 24.21875 56 28.609375 56 
Q 40.484375 56 46.34375 49.84375 
Q 52.203125 43.703125 52.203125 31.203125 
z
" id="DejaVuSans-97"/>
       <path d="M 9.421875 75.984375 
L 18.40625 75.984375 
L 18.40625 0 
L 9.421875 0 
z
" id="DejaVuSans-108"/>
       <path d="M 50.984375 -16.609375 
L 50.984375 -23.578125 
L -0.984375 -23.578125 
L -0.984375 -16.609375 
z
" id="DejaVuSans-95"/>
       <path d="M 28.609375 0 
L 0.78125 72.90625 
L 11.078125 72.90625 
L 34.1875 11.53125 
L 57.328125 72.90625 
L 67.578125 72.90625 
L 39.796875 0 
z
" id="DejaVuSans-86"/>
       <path d="M 30.609375 48.390625 
Q 23.390625 48.390625 19.1875 42.75 
Q 14.984375 37.109375 14.984375 27.296875 
Q 14.984375 17.484375 19.15625 11.84375 
Q 23.34375 6.203125 30.609375 6.203125 
Q 37.796875 6.203125 41.984375 11.859375 
Q 46.1875 17.53125 46.1875 27.296875 
Q 46.1875 37.015625 41.984375 42.703125 
Q 37.796875 48.390625 30.609375 48.390625 
z
M 30.609375 56 
Q 42.328125 56 49.015625 48.375 
Q 55.71875 40.765625 55.71875 27.296875 
Q 55.71875 13.875 49.015625 6.21875 
Q 42.328125 -1.421875 30.609375 -1.421875 
Q 18.84375 -1.421875 12.171875 6.21875 
Q 5.515625 13.875 5.515625 27.296875 
Q 5.515625 40.765625 12.171875 48.375 
Q 18.84375 56 30.609375 56 
z
" id="DejaVuSans-111"/>
       <path d="M 18.3125 70.21875 
L 18.3125 54.6875 
L 36.8125 54.6875 
L 36.8125 47.703125 
L 18.3125 47.703125 
L 18.3125 18.015625 
Q 18.3125 11.328125 20.140625 9.421875 
Q 21.96875 7.515625 27.59375 7.515625 
L 36.8125 7.515625 
L 36.8125 0 
L 27.59375 0 
Q 17.1875 0 13.234375 3.875 
Q 9.28125 7.765625 9.28125 18.015625 
L 9.28125 47.703125 
L 2.6875 47.703125 
L 2.6875 54.6875 
L 9.28125 54.6875 
L 9.28125 70.21875 
z
" id="DejaVuSans-116"/>
       <path d="M 45.40625 27.984375 
Q 45.40625 37.75 41.375 43.109375 
Q 37.359375 48.484375 30.078125 48.484375 
Q 22.859375 48.484375 18.828125 43.109375 
Q 14.796875 37.75 14.796875 27.984375 
Q 14.796875 18.265625 18.828125 12.890625 
Q 22.859375 7.515625 30.078125 7.515625 
Q 37.359375 7.515625 41.375 12.890625 
Q 45.40625 18.265625 45.40625 27.984375 
z
M 54.390625 6.78125 
Q 54.390625 -7.171875 48.1875 -13.984375 
Q 42 -20.796875 29.203125 -20.796875 
Q 24.46875 -20.796875 20.265625 -20.09375 
Q 16.0625 -19.390625 12.109375 -17.921875 
L 12.109375 -9.1875 
Q 16.0625 -11.328125 19.921875 -12.34375 
Q 23.78125 -13.375 27.78125 -13.375 
Q 36.625 -13.375 41.015625 -8.765625 
Q 45.40625 -4.15625 45.40625 5.171875 
L 45.40625 9.625 
Q 42.625 4.78125 38.28125 2.390625 
Q 33.9375 0 27.875 0 
Q 17.828125 0 11.671875 7.65625 
Q 5.515625 15.328125 5.515625 27.984375 
Q 5.515625 40.671875 11.671875 48.328125 
Q 17.828125 56 27.875 56 
Q 33.9375 56 38.28125 53.609375 
Q 42.625 51.21875 45.40625 46.390625 
L 45.40625 54.6875 
L 54.390625 54.6875 
z
" id="DejaVuSans-103"/>
       <path d="M 56.203125 29.59375 
L 56.203125 25.203125 
L 14.890625 25.203125 
Q 15.484375 15.921875 20.484375 11.0625 
Q 25.484375 6.203125 34.421875 6.203125 
Q 39.59375 6.203125 44.453125 7.46875 
Q 49.3125 8.734375 54.109375 11.28125 
L 54.109375 2.78125 
Q 49.265625 0.734375 44.1875 -0.34375 
Q 39.109375 -1.421875 33.890625 -1.421875 
Q 20.796875 -1.421875 13.15625 6.1875 
Q 5.515625 13.8125 5.515625 26.8125 
Q 5.515625 40.234375 12.765625 48.109375 
Q 20.015625 56 32.328125 56 
Q 43.359375 56 49.78125 48.890625 
Q 56.203125 41.796875 56.203125 29.59375 
z
M 47.21875 32.234375 
Q 47.125 39.59375 43.09375 43.984375 
Q 39.0625 48.390625 32.421875 48.390625 
Q 24.90625 48.390625 20.390625 44.140625 
Q 15.875 39.890625 15.1875 32.171875 
z
" id="DejaVuSans-101"/>
       <path id="DejaVuSans-32"/>
       <path d="M 8.59375 75.984375 
L 29.296875 75.984375 
L 29.296875 69 
L 17.578125 69 
L 17.578125 -6.203125 
L 29.296875 -6.203125 
L 29.296875 -13.1875 
L 8.59375 -13.1875 
z
" id="DejaVuSans-91"/>
       <path d="M 16.890625 72.90625 
L 38.09375 72.90625 
Q 54.984375 72.90625 63.59375 65.75 
Q 72.21875 58.59375 72.21875 44.484375 
Q 72.21875 35.15625 68.9375 26.53125 
Q 65.671875 17.921875 59.90625 12.015625 
Q 54.109375 5.953125 45.171875 2.96875 
Q 36.234375 0 24.03125 0 
L 2.6875 0 
z
M 25.203125 64.796875 
L 14.203125 8.109375 
L 27.09375 8.109375 
Q 43.65625 8.109375 52.734375 17.625 
Q 61.8125 27.15625 61.8125 44.484375 
Q 61.8125 54.984375 55.953125 59.890625 
Q 50.09375 64.796875 37.59375 64.796875 
z
" id="DejaVuSans-Oblique-68"/>
       <path d="M 36.8125 72.90625 
L 48 72.90625 
L 61.53125 0 
L 51.21875 0 
L 48.1875 18.703125 
L 15.375 18.703125 
L 5.078125 0 
L -5.328125 0 
z
M 40.375 63.1875 
L 19.921875 26.90625 
L 46.6875 26.90625 
z
" id="DejaVuSans-Oblique-65"/>
       <path d="M 69.484375 67.28125 
L 67.484375 56.890625 
Q 62.796875 61.625 57.546875 63.921875 
Q 52.296875 66.21875 46.1875 66.21875 
Q 37.84375 66.21875 31.515625 62.203125 
Q 25.203125 58.203125 20.609375 50 
Q 17.671875 44.734375 16.125 38.84375 
Q 14.59375 32.953125 14.59375 27 
Q 14.59375 17.046875 19.75 11.8125 
Q 24.90625 6.59375 34.71875 6.59375 
Q 41.5 6.59375 47.75 8.765625 
Q 54 10.9375 59.90625 15.28125 
L 57.625 3.609375 
Q 51.8125 1.125 45.875 -0.140625 
Q 39.9375 -1.421875 33.984375 -1.421875 
Q 19.96875 -1.421875 12.078125 6.1875 
Q 4.203125 13.8125 4.203125 27.390625 
Q 4.203125 36.078125 7.203125 44.46875 
Q 10.203125 52.875 15.828125 59.8125 
Q 21.78125 67.1875 29.421875 70.703125 
Q 37.0625 74.21875 47.21875 74.21875 
Q 53.46875 74.21875 59.0625 72.484375 
Q 64.65625 70.75 69.484375 67.28125 
z
" id="DejaVuSans-Oblique-67"/>
       <path d="M 18.3125 75.984375 
L 27.296875 75.984375 
L 25.09375 64.59375 
L 16.109375 64.59375 
z
M 14.203125 54.6875 
L 23.1875 54.6875 
L 12.5 0 
L 3.515625 0 
z
" id="DejaVuSans-Oblique-105"/>
       <path d="M 55.71875 33.015625 
L 49.3125 0 
L 40.28125 0 
L 46.6875 32.671875 
Q 47.125 34.96875 47.359375 36.71875 
Q 47.609375 38.484375 47.609375 39.5 
Q 47.609375 43.609375 45.015625 45.890625 
Q 42.4375 48.1875 37.796875 48.1875 
Q 30.5625 48.1875 25.34375 43.375 
Q 20.125 38.578125 18.5 30.328125 
L 12.5 0 
L 3.515625 0 
L 14.109375 54.6875 
L 23.09375 54.6875 
L 21.296875 46.09375 
Q 25.046875 50.828125 30.3125 53.40625 
Q 35.59375 56 41.40625 56 
Q 48.640625 56 52.609375 52.09375 
Q 56.59375 48.1875 56.59375 41.109375 
Q 56.59375 39.359375 56.375 37.359375 
Q 56.15625 35.359375 55.71875 33.015625 
z
" id="DejaVuSans-Oblique-110"/>
       <path d="M 14.5 54.6875 
L 23.484375 54.6875 
L 12.703125 -0.984375 
L 12.640625 -1.21875 
Q 10.84375 -10.546875 8.5 -14.015625 
Q 6.296875 -17.28125 2.0625 -19.03125 
Q -2.15625 -20.796875 -7.90625 -20.796875 
L -11.28125 -20.796875 
L -9.8125 -13.1875 
L -7.515625 -13.1875 
Q -2.25 -13.1875 -0.015625 -10.984375 
Q 2.203125 -8.796875 3.71875 -0.984375 
z
M 18.703125 75.984375 
L 27.6875 75.984375 
L 25.484375 64.59375 
L 16.5 64.59375 
z
" id="DejaVuSans-Oblique-106"/>
       <path d="M 48.78125 52.59375 
L 48.78125 44.1875 
Q 44.96875 46.296875 41.140625 47.34375 
Q 37.3125 48.390625 33.40625 48.390625 
Q 24.65625 48.390625 19.8125 42.84375 
Q 14.984375 37.3125 14.984375 27.296875 
Q 14.984375 17.28125 19.8125 11.734375 
Q 24.65625 6.203125 33.40625 6.203125 
Q 37.3125 6.203125 41.140625 7.25 
Q 44.96875 8.296875 48.78125 10.40625 
L 48.78125 2.09375 
Q 45.015625 0.34375 40.984375 -0.53125 
Q 36.96875 -1.421875 32.421875 -1.421875 
Q 20.0625 -1.421875 12.78125 6.34375 
Q 5.515625 14.109375 5.515625 27.296875 
Q 5.515625 40.671875 12.859375 48.328125 
Q 20.21875 56 33.015625 56 
Q 37.15625 56 41.109375 55.140625 
Q 45.0625 54.296875 48.78125 52.59375 
z
" id="DejaVuSans-99"/>
       <path d="M 45.40625 46.390625 
L 45.40625 75.984375 
L 54.390625 75.984375 
L 54.390625 0 
L 45.40625 0 
L 45.40625 8.203125 
Q 42.578125 3.328125 38.25 0.953125 
Q 33.9375 -1.421875 27.875 -1.421875 
Q 17.96875 -1.421875 11.734375 6.484375 
Q 5.515625 14.40625 5.515625 27.296875 
Q 5.515625 40.1875 11.734375 48.09375 
Q 17.96875 56 27.875 56 
Q 33.9375 56 38.25 53.625 
Q 42.578125 51.265625 45.40625 46.390625 
z
M 14.796875 27.296875 
Q 14.796875 17.390625 18.875 11.75 
Q 22.953125 6.109375 30.078125 6.109375 
Q 37.203125 6.109375 41.296875 11.75 
Q 45.40625 17.390625 45.40625 27.296875 
Q 45.40625 37.203125 41.296875 42.84375 
Q 37.203125 48.484375 30.078125 48.484375 
Q 22.953125 48.484375 18.875 42.84375 
Q 14.796875 37.203125 14.796875 27.296875 
z
" id="DejaVuSans-100"/>
       <path d="M 30.421875 75.984375 
L 30.421875 -13.1875 
L 9.71875 -13.1875 
L 9.71875 -6.203125 
L 21.390625 -6.203125 
L 21.390625 69 
L 9.71875 69 
L 9.71875 75.984375 
z
" id="DejaVuSans-93"/>
      </defs>
      <use transform="translate(0 0.015625)" xlink:href="#DejaVuSans-67"/>
      <use transform="translate(69.824219 0.015625)" xlink:href="#DejaVuSans-97"/>
      <use transform="translate(131.103516 0.015625)" xlink:href="#DejaVuSans-108"/>
      <use transform="translate(158.886719 0.015625)" xlink:href="#DejaVuSans-95"/>
      <use transform="translate(208.886719 0.015625)" xlink:href="#DejaVuSans-86"/>
      <use transform="translate(277.294922 0.015625)" xlink:href="#DejaVuSans-111"/>
      <use transform="translate(338.476562 0.015625)" xlink:href="#DejaVuSans-108"/>
      <use transform="translate(366.259766 0.015625)" xlink:href="#DejaVuSans-116"/>
      <use transform="translate(405.46875 0.015625)" xlink:href="#DejaVuSans-97"/>
      <use transform="translate(466.748047 0.015625)" xlink:href="#DejaVuSans-103"/>
      <use transform="translate(530.224609 0.015625)" xlink:href="#DejaVuSans-101"/>
      <use transform="translate(591.748047 0.015625)" xlink:href="#DejaVuSans-32"/>
      <use transform="translate(623.535156 0.015625)" xlink:href="#DejaVuSans-91"/>
      <use transform="translate(662.548828 0.015625)" xlink:href="#DejaVuSans-Oblique-68"/>
      <use transform="translate(739.550781 0.015625)" xlink:href="#DejaVuSans-Oblique-65"/>
      <use transform="translate(807.958984 0.015625)" xlink:href="#DejaVuSans-Oblique-67"/>
      <use transform="translate(877.783203 -16.390625)scale(0.7)" xlink:href="#DejaVuSans-Oblique-105"/>
      <use transform="translate(897.231445 -16.390625)scale(0.7)" xlink:href="#DejaVuSans-Oblique-110"/>
      <use transform="translate(941.59668 -16.390625)scale(0.7)" xlink:href="#DejaVuSans-Oblique-106"/>
      <use transform="translate(963.779297 0.015625)" xlink:href="#DejaVuSans-32"/>
      <use transform="translate(995.566406 0.015625)" xlink:href="#DejaVuSans-99"/>
      <use transform="translate(1050.546875 0.015625)" xlink:href="#DejaVuSans-111"/>
      <use transform="translate(1111.728516 0.015625)" xlink:href="#DejaVuSans-100"/>
      <use transform="translate(1175.205078 0.015625)" xlink:href="#DejaVuSans-101"/>
      <use transform="translate(1236.728516 0.015625)" xlink:href="#DejaVuSans-93"/>
     </g>
    </g>
   </g>
   <g id="matplotlib.axis_2">
    <g id="ytick_1">
     <g id="line2d_15">
      <path clip-path="url(#pdc23a86345)" d="M 53.60625 354.958125 
L 583.70625 354.958125 
" style="fill:none;stroke:#b0b0b0;stroke-linecap:square;stroke-width:0.8;"/>
     </g>
     <g id="line2d_16">
      <defs>
       <path d="M 0 0 
L -3.5 0 
" id="mc8d886e554" style="stroke:#000000;stroke-width:0.8;"/>
      </defs>
      <g>
       <use style="stroke:#000000;stroke-width:0.8;" x="53.60625" xlink:href="#mc8d886e554" y="354.958125"/>
      </g>
     </g>
     <g id="text_9">
      <!-- 0 -->
      <g transform="translate(40.24375 358.757344)scale(0.1 -0.1)">
       <use xlink:href="#DejaVuSans-48"/>
      </g>
     </g>
    </g>
    <g id="ytick_2">
     <g id="line2d_17">
      <path clip-path="url(#pdc23a86345)" d="M 53.60625 317.998125 
L 583.70625 317.998125 
" style="fill:none;stroke:#b0b0b0;stroke-linecap:square;stroke-width:0.8;"/>
     </g>
     <g id="line2d_18">
      <g>
       <use style="stroke:#000000;stroke-width:0.8;" x="53.60625" xlink:href="#mc8d886e554" y="317.998125"/>
      </g>
     </g>
     <g id="text_10">
      <!-- 250 -->
      <g transform="translate(27.51875 321.797344)scale(0.1 -0.1)">
       <use xlink:href="#DejaVuSans-50"/>
       <use x="63.623047" xlink:href="#DejaVuSans-53"/>
       <use x="127.246094" xlink:href="#DejaVuSans-48"/>
      </g>
     </g>
    </g>
    <g id="ytick_3">
     <g id="line2d_19">
      <path clip-path="url(#pdc23a86345)" d="M 53.60625 281.038125 
L 583.70625 281.038125 
" style="fill:none;stroke:#b0b0b0;stroke-linecap:square;stroke-width:0.8;"/>
     </g>
     <g id="line2d_20">
      <g>
       <use style="stroke:#000000;stroke-width:0.8;" x="53.60625" xlink:href="#mc8d886e554" y="281.038125"/>
      </g>
     </g>
     <g id="text_11">
      <!-- 500 -->
      <g transform="translate(27.51875 284.837344)scale(0.1 -0.1)">
       <use xlink:href="#DejaVuSans-53"/>
       <use x="63.623047" xlink:href="#DejaVuSans-48"/>
       <use x="127.246094" xlink:href="#DejaVuSans-48"/>
      </g>
     </g>
    </g>
    <g id="ytick_4">
     <g id="line2d_21">
      <path clip-path="url(#pdc23a86345)" d="M 53.60625 244.078125 
L 583.70625 244.078125 
" style="fill:none;stroke:#b0b0b0;stroke-linecap:square;stroke-width:0.8;"/>
     </g>
     <g id="line2d_22">
      <g>
       <use style="stroke:#000000;stroke-width:0.8;" x="53.60625" xlink:href="#mc8d886e554" y="244.078125"/>
      </g>
     </g>
     <g id="text_12">
      <!-- 750 -->
      <g transform="translate(27.51875 247.877344)scale(0.1 -0.1)">
       <defs>
        <path d="M 8.203125 72.90625 
L 55.078125 72.90625 
L 55.078125 68.703125 
L 28.609375 0 
L 18.3125 0 
L 43.21875 64.59375 
L 8.203125 64.59375 
z
" id="DejaVuSans-55"/>
       </defs>
       <use xlink:href="#DejaVuSans-55"/>
       <use x="63.623047" xlink:href="#DejaVuSans-53"/>
       <use x="127.246094" xlink:href="#DejaVuSans-48"/>
      </g>
     </g>
    </g>
    <g id="ytick_5">
     <g id="line2d_23">
      <path clip-path="url(#pdc23a86345)" d="M 53.60625 207.118125 
L 583.70625 207.118125 
" style="fill:none;stroke:#b0b0b0;stroke-linecap:square;stroke-width:0.8;"/>
     </g>
     <g id="line2d_24">
      <g>
       <use style="stroke:#000000;stroke-width:0.8;" x="53.60625" xlink:href="#mc8d886e554" y="207.118125"/>
      </g>
     </g>
     <g id="text_13">
      <!-- 1000 -->
      <g transform="translate(21.15625 210.917344)scale(0.1 -0.1)">
       <use xlink:href="#DejaVuSans-49"/>
       <use x="63.623047" xlink:href="#DejaVuSans-48"/>
       <use x="127.246094" xlink:href="#DejaVuSans-48"/>
       <use x="190.869141" xlink:href="#DejaVuSans-48"/>
      </g>
     </g>
    </g>
    <g id="ytick_6">
     <g id="line2d_25">
      <path clip-path="url(#pdc23a86345)" d="M 53.60625 170.158125 
L 583.70625 170.158125 
" style="fill:none;stroke:#b0b0b0;stroke-linecap:square;stroke-width:0.8;"/>
     </g>
     <g id="line2d_26">
      <g>
       <use style="stroke:#000000;stroke-width:0.8;" x="53.60625" xlink:href="#mc8d886e554" y="170.158125"/>
      </g>
     </g>
     <g id="text_14">
      <!-- 1250 -->
      <g transform="translate(21.15625 173.957344)scale(0.1 -0.1)">
       <use xlink:href="#DejaVuSans-49"/>
       <use x="63.623047" xlink:href="#DejaVuSans-50"/>
       <use x="127.246094" xlink:href="#DejaVuSans-53"/>
       <use x="190.869141" xlink:href="#DejaVuSans-48"/>
      </g>
     </g>
    </g>
    <g id="ytick_7">
     <g id="line2d_27">
      <path clip-path="url(#pdc23a86345)" d="M 53.60625 133.198125 
L 583.70625 133.198125 
" style="fill:none;stroke:#b0b0b0;stroke-linecap:square;stroke-width:0.8;"/>
     </g>
     <g id="line2d_28">
      <g>
       <use style="stroke:#000000;stroke-width:0.8;" x="53.60625" xlink:href="#mc8d886e554" y="133.198125"/>
      </g>
     </g>
     <g id="text_15">
      <!-- 1500 -->
      <g transform="translate(21.15625 136.997344)scale(0.1 -0.1)">
       <use xlink:href="#DejaVuSans-49"/>
       <use x="63.623047" xlink:href="#DejaVuSans-53"/>
       <use x="127.246094" xlink:href="#DejaVuSans-48"/>
       <use x="190.869141" xlink:href="#DejaVuSans-48"/>
      </g>
     </g>
    </g>
    <g id="ytick_8">
     <g id="line2d_29">
      <path clip-path="url(#pdc23a86345)" d="M 53.60625 96.238125 
L 583.70625 96.238125 
" style="fill:none;stroke:#b0b0b0;stroke-linecap:square;stroke-width:0.8;"/>
     </g>
     <g id="line2d_30">
      <g>
       <use style="stroke:#000000;stroke-width:0.8;" x="53.60625" xlink:href="#mc8d886e554" y="96.238125"/>
      </g>
     </g>
     <g id="text_16">
      <!-- 1750 -->
      <g transform="translate(21.15625 100.037344)scale(0.1 -0.1)">
       <use xlink:href="#DejaVuSans-49"/>
       <use x="63.623047" xlink:href="#DejaVuSans-55"/>
       <use x="127.246094" xlink:href="#DejaVuSans-53"/>
       <use x="190.869141" xlink:href="#DejaVuSans-48"/>
      </g>
     </g>
    </g>
    <g id="ytick_9">
     <g id="line2d_31">
      <path clip-path="url(#pdc23a86345)" d="M 53.60625 59.278125 
L 583.70625 59.278125 
" style="fill:none;stroke:#b0b0b0;stroke-linecap:square;stroke-width:0.8;"/>
     </g>
     <g id="line2d_32">
      <g>
       <use style="stroke:#000000;stroke-width:0.8;" x="53.60625" xlink:href="#mc8d886e554" y="59.278125"/>
      </g>
     </g>
     <g id="text_17">
      <!-- 2000 -->
      <g transform="translate(21.15625 63.077344)scale(0.1 -0.1)">
       <use xlink:href="#DejaVuSans-50"/>
       <use x="63.623047" xlink:href="#DejaVuSans-48"/>
       <use x="127.246094" xlink:href="#DejaVuSans-48"/>
       <use x="190.869141" xlink:href="#DejaVuSans-48"/>
      </g>
     </g>
    </g>
    <g id="ytick_10">
     <g id="line2d_33">
      <path clip-path="url(#pdc23a86345)" d="M 53.60625 22.318125 
L 583.70625 22.318125 
" style="fill:none;stroke:#b0b0b0;stroke-linecap:square;stroke-width:0.8;"/>
     </g>
     <g id="line2d_34">
      <g>
       <use style="stroke:#000000;stroke-width:0.8;" x="53.60625" xlink:href="#mc8d886e554" y="22.318125"/>
      </g>
     </g>
     <g id="text_18">
      <!-- 2250 -->
      <g transform="translate(21.15625 26.117344)scale(0.1 -0.1)">
       <use xlink:href="#DejaVuSans-50"/>
       <use x="63.623047" xlink:href="#DejaVuSans-50"/>
       <use x="127.246094" xlink:href="#DejaVuSans-53"/>
       <use x="190.869141" xlink:href="#DejaVuSans-48"/>
      </g>
     </g>
    </g>
    <g id="text_19">
     <!-- Channel_out [ADC code] -->
     <g transform="translate(14.798437 249.754531)rotate(-90)scale(0.1 -0.1)">
      <defs>
       <path d="M 54.890625 33.015625 
L 54.890625 0 
L 45.90625 0 
L 45.90625 32.71875 
Q 45.90625 40.484375 42.875 44.328125 
Q 39.84375 48.1875 33.796875 48.1875 
Q 26.515625 48.1875 22.3125 43.546875 
Q 18.109375 38.921875 18.109375 30.90625 
L 18.109375 0 
L 9.078125 0 
L 9.078125 75.984375 
L 18.109375 75.984375 
L 18.109375 46.1875 
Q 21.34375 51.125 25.703125 53.5625 
Q 30.078125 56 35.796875 56 
Q 45.21875 56 50.046875 50.171875 
Q 54.890625 44.34375 54.890625 33.015625 
z
" id="DejaVuSans-104"/>
       <path d="M 54.890625 33.015625 
L 54.890625 0 
L 45.90625 0 
L 45.90625 32.71875 
Q 45.90625 40.484375 42.875 44.328125 
Q 39.84375 48.1875 33.796875 48.1875 
Q 26.515625 48.1875 22.3125 43.546875 
Q 18.109375 38.921875 18.109375 30.90625 
L 18.109375 0 
L 9.078125 0 
L 9.078125 54.6875 
L 18.109375 54.6875 
L 18.109375 46.1875 
Q 21.34375 51.125 25.703125 53.5625 
Q 30.078125 56 35.796875 56 
Q 45.21875 56 50.046875 50.171875 
Q 54.890625 44.34375 54.890625 33.015625 
z
" id="DejaVuSans-110"/>
       <path d="M 8.5 21.578125 
L 8.5 54.6875 
L 17.484375 54.6875 
L 17.484375 21.921875 
Q 17.484375 14.15625 20.5 10.265625 
Q 23.53125 6.390625 29.59375 6.390625 
Q 36.859375 6.390625 41.078125 11.03125 
Q 45.3125 15.671875 45.3125 23.6875 
L 45.3125 54.6875 
L 54.296875 54.6875 
L 54.296875 0 
L 45.3125 0 
L 45.3125 8.40625 
Q 42.046875 3.421875 37.71875 1 
Q 33.40625 -1.421875 27.6875 -1.421875 
Q 18.265625 -1.421875 13.375 4.4375 
Q 8.5 10.296875 8.5 21.578125 
z
M 31.109375 56 
z
" id="DejaVuSans-117"/>
       <path d="M 34.1875 63.1875 
L 20.796875 26.90625 
L 47.609375 26.90625 
z
M 28.609375 72.90625 
L 39.796875 72.90625 
L 67.578125 0 
L 57.328125 0 
L 50.6875 18.703125 
L 17.828125 18.703125 
L 11.1875 0 
L 0.78125 0 
z
" id="DejaVuSans-65"/>
       <path d="M 19.671875 64.796875 
L 19.671875 8.109375 
L 31.59375 8.109375 
Q 46.6875 8.109375 53.6875 14.9375 
Q 60.6875 21.78125 60.6875 36.53125 
Q 60.6875 51.171875 53.6875 57.984375 
Q 46.6875 64.796875 31.59375 64.796875 
z
M 9.8125 72.90625 
L 30.078125 72.90625 
Q 51.265625 72.90625 61.171875 64.09375 
Q 71.09375 55.28125 71.09375 36.53125 
Q 71.09375 17.671875 61.125 8.828125 
Q 51.171875 0 30.078125 0 
L 9.8125 0 
z
" id="DejaVuSans-68"/>
      </defs>
      <use xlink:href="#DejaVuSans-67"/>
      <use x="69.824219" xlink:href="#DejaVuSans-104"/>
      <use x="133.203125" xlink:href="#DejaVuSans-97"/>
      <use x="194.482422" xlink:href="#DejaVuSans-110"/>
      <use x="257.861328" xlink:href="#DejaVuSans-110"/>
      <use x="321.240234" xlink:href="#DejaVuSans-101"/>
      <use x="382.763672" xlink:href="#DejaVuSans-108"/>
      <use x="410.546875" xlink:href="#DejaVuSans-95"/>
      <use x="460.546875" xlink:href="#DejaVuSans-111"/>
      <use x="521.728516" xlink:href="#DejaVuSans-117"/>
      <use x="585.107422" xlink:href="#DejaVuSans-116"/>
      <use x="624.316406" xlink:href="#DejaVuSans-32"/>
      <use x="656.103516" xlink:href="#DejaVuSans-91"/>
      <use x="695.117188" xlink:href="#DejaVuSans-65"/>
      <use x="763.525391" xlink:href="#DejaVuSans-68"/>
      <use x="840.527344" xlink:href="#DejaVuSans-67"/>
      <use x="910.351562" xlink:href="#DejaVuSans-32"/>
      <use x="942.138672" xlink:href="#DejaVuSans-99"/>
      <use x="997.119141" xlink:href="#DejaVuSans-111"/>
      <use x="1058.300781" xlink:href="#DejaVuSans-100"/>
      <use x="1121.777344" xlink:href="#DejaVuSans-101"/>
      <use x="1183.300781" xlink:href="#DejaVuSans-93"/>
     </g>
    </g>
   </g>
   <g id="line2d_35">
    <path clip-path="url(#pdc23a86345)" d="M 77.701705 325.954874 
L 77.777015 322.987725 
L 77.852325 321.518195 
L 77.927635 319.105447 
L 78.002945 316.649824 
L 78.078255 314.724947 
L 78.153565 312.609357 
L 78.228875 310.814579 
L 78.304185 309.05824 
L 78.379495 307.148147 
L 79.132596 292.378931 
L 79.885696 283.097536 
L 80.638797 275.696666 
L 81.391898 269.839245 
L 82.144998 264.858515 
L 82.898099 260.504627 
L 83.651199 256.864807 
L 84.4043 253.173242 
L 85.157401 250.507687 
L 86.663602 245.593485 
L 88.169803 241.414048 
L 89.676005 238.077299 
L 91.182206 234.654803 
L 92.688407 232.212487 
L 107.75042 214.014861 
L 122.812432 202.869203 
L 137.874445 194.882887 
L 152.936457 187.683079 
L 167.99847 181.549197 
L 183.060482 175.756826 
L 198.122495 170.439021 
L 213.184507 165.756928 
L 228.24652 161.073357 
L 243.308532 156.722426 
L 258.370545 152.497159 
L 273.432557 148.567571 
L 288.49457 144.629114 
L 303.556582 141.002599 
L 318.618595 137.399738 
L 333.680607 133.835315 
L 348.74262 130.303418 
L 363.804633 126.804045 
L 378.866645 123.532346 
L 393.928658 120.336045 
L 408.99067 117.107219 
L 424.052683 113.533927 
L 439.114695 110.794451 
L 454.176708 107.306906 
L 469.23872 104.424026 
L 484.300733 101.218855 
L 499.362745 98.325626 
L 514.424758 95.238727 
L 529.48677 92.055731 
L 544.548783 88.918567 
L 559.610795 86.14361 
" style="fill:none;stroke:#1f77b4;stroke-linecap:square;stroke-width:1.5;"/>
   </g>
   <g id="line2d_36">
    <path clip-path="url(#pdc23a86345)" d="M 77.701705 323.99008 
L 77.777015 324.207405 
L 77.852325 322.349056 
L 77.927635 320.709511 
L 78.002945 318.935431 
L 78.078255 317.100736 
L 78.153565 315.402055 
L 78.228875 313.845299 
L 78.304185 312.281152 
L 78.379495 310.999379 
L 79.132596 299.127827 
L 79.885696 289.333427 
L 80.638797 281.421031 
L 81.391898 274.880589 
L 82.144998 269.505127 
L 82.898099 265.093581 
L 83.651199 261.200954 
L 84.4043 257.960301 
L 85.157401 254.982803 
L 86.663602 250.259315 
L 88.169803 246.236589 
L 89.676005 242.757914 
L 91.182206 239.654752 
L 92.688407 236.913799 
L 107.75042 219.76288 
L 122.812432 209.127271 
L 137.874445 201.325754 
L 152.936457 194.627123 
L 167.99847 188.694304 
L 183.060482 183.241965 
L 198.122495 178.394291 
L 213.184507 173.914739 
L 228.24652 169.513543 
L 243.308532 165.461248 
L 258.370545 161.351296 
L 273.432557 157.655296 
L 288.49457 153.966688 
L 303.556582 150.585587 
L 318.618595 147.083258 
L 333.680607 143.563187 
L 348.74262 140.324013 
L 363.804633 137.027181 
L 378.866645 133.907757 
L 393.928658 130.641971 
L 408.99067 127.509242 
L 424.052683 124.47113 
L 439.114695 121.369447 
L 454.176708 118.488045 
L 469.23872 115.433671 
L 484.300733 112.513831 
L 499.362745 109.520071 
L 514.424758 106.391776 
L 529.48677 103.678912 
L 544.548783 100.991181 
L 559.610795 98.131955 
" style="fill:none;stroke:#ff7f0e;stroke-linecap:square;stroke-width:1.5;"/>
   </g>
   <g id="line2d_37">
    <path clip-path="url(#pdc23a86345)" d="M 77.701705 324.364115 
L 77.777015 325.030874 
L 77.852325 323.428288 
L 77.927635 321.73552 
L 78.002945 320.249728 
L 78.078255 318.580615 
L 78.153565 316.89376 
L 78.228875 315.722867 
L 78.304185 314.379002 
L 78.379495 312.859207 
L 79.132596 301.008352 
L 79.885696 290.998106 
L 80.638797 283.042835 
L 81.391898 276.438823 
L 82.144998 271.257031 
L 82.898099 266.799655 
L 83.651199 263.088871 
L 84.4043 259.737338 
L 85.157401 257.011168 
L 86.663602 252.194541 
L 88.169803 248.352179 
L 89.676005 245.019866 
L 91.182206 242.017235 
L 92.688407 239.19497 
L 107.75042 222.434349 
L 122.812432 212.021978 
L 137.874445 204.303251 
L 152.936457 197.730285 
L 167.99847 191.992615 
L 183.060482 186.791603 
L 198.122495 181.899578 
L 213.184507 177.492467 
L 228.24652 173.255373 
L 243.308532 169.276999 
L 258.370545 165.436115 
L 273.432557 161.629235 
L 288.49457 158.115079 
L 303.556582 154.803463 
L 318.618595 151.276 
L 333.680607 148.024999 
L 348.74262 144.629114 
L 363.804633 141.446119 
L 378.866645 138.30304 
L 393.928658 135.295975 
L 408.99067 132.353959 
L 424.052683 129.306976 
L 439.114695 126.264429 
L 454.176708 123.217447 
L 469.23872 120.424749 
L 484.300733 117.552218 
L 499.362745 114.654554 
L 514.424758 111.770195 
L 529.48677 108.973063 
L 544.548783 106.068007 
L 559.610795 103.260525 
" style="fill:none;stroke:#2ca02c;stroke-linecap:square;stroke-width:1.5;"/>
   </g>
   <g id="line2d_38">
    <path clip-path="url(#pdc23a86345)" d="M 77.701705 325.265939 
L 77.777015 325.487699 
L 77.852325 323.930944 
L 77.927635 322.516115 
L 78.002945 320.869178 
L 78.078255 319.503136 
L 78.153565 317.971514 
L 78.228875 316.459111 
L 78.304185 315.127072 
L 78.379495 313.889651 
L 79.132596 302.093498 
L 79.885696 292.066989 
L 80.638797 284.201901 
L 81.391898 277.593453 
L 82.144998 272.308173 
L 82.898099 267.945415 
L 83.651199 264.258285 
L 84.4043 261.011719 
L 85.157401 258.111098 
L 86.663602 253.393523 
L 88.169803 249.466893 
L 89.676005 246.141971 
L 91.182206 243.263527 
L 92.688407 240.459002 
L 107.75042 223.970407 
L 122.812432 213.772403 
L 137.874445 206.044807 
L 152.936457 199.514714 
L 167.99847 193.852442 
L 183.060482 188.75344 
L 198.122495 183.961946 
L 213.184507 179.681978 
L 228.24652 175.52176 
L 243.308532 171.672007 
L 258.370545 167.703981 
L 273.432557 163.95328 
L 288.49457 160.353376 
L 303.556582 157.019584 
L 318.618595 154.34368 
L 333.680607 150.542714 
L 348.74262 147.337543 
L 363.804633 143.963834 
L 378.866645 140.903546 
L 393.928658 137.754554 
L 408.99067 134.86576 
L 424.052683 131.869043 
L 439.114695 128.969901 
L 454.176708 125.982055 
L 469.23872 123.088826 
L 484.300733 120.316826 
L 499.362745 117.423597 
L 514.424758 114.593939 
L 529.48677 111.886989 
L 544.548783 109.073594 
L 559.610795 106.136013 
" style="fill:none;stroke:#d62728;stroke-linecap:square;stroke-width:1.5;"/>
   </g>
   <g id="line2d_39">
    <path clip-path="url(#pdc23a86345)" d="M 77.701705 325.32064 
L 77.777015 325.669543 
L 77.852325 324.361159 
L 77.927635 322.893107 
L 78.002945 321.450189 
L 78.078255 320.07232 
L 78.153565 318.66784 
L 78.228875 317.233792 
L 78.304185 315.756871 
L 78.379495 314.590413 
L 79.132596 302.863744 
L 79.885696 292.905242 
L 80.638797 284.981018 
L 81.391898 278.314912 
L 82.144998 272.960147 
L 82.898099 268.643219 
L 83.651199 265.092103 
L 84.4043 261.879539 
L 85.157401 258.910912 
L 86.663602 254.267258 
L 88.169803 250.262272 
L 89.676005 246.907783 
L 91.182206 244.070733 
L 92.688407 241.356391 
L 107.75042 224.761351 
L 122.812432 214.634311 
L 137.874445 207.053075 
L 152.936457 200.729959 
L 167.99847 195.061773 
L 183.060482 190.029299 
L 198.122495 185.305811 
L 213.184507 180.900179 
L 228.24652 176.818317 
L 243.308532 173.055789 
L 258.370545 169.228211 
L 273.432557 165.610567 
L 288.49457 161.914567 
L 303.556582 158.487635 
L 318.618595 155.244026 
L 333.680607 151.970848 
L 348.74262 148.789331 
L 363.804633 145.594509 
L 378.866645 142.593357 
L 393.928658 139.606989 
L 408.99067 136.487565 
L 424.052683 133.569203 
L 439.114695 130.745459 
L 454.176708 127.79753 
L 469.23872 124.833338 
L 484.300733 121.993331 
L 499.362745 119.144455 
L 514.424758 116.493683 
L 529.48677 113.572365 
L 544.548783 110.95264 
L 559.610795 108.071239 
" style="fill:none;stroke:#9467bd;stroke-linecap:square;stroke-width:1.5;"/>
   </g>
   <g id="line2d_40">
    <path clip-path="url(#pdc23a86345)" d="M 77.701705 325.832167 
L 77.777015 326.000704 
L 77.852325 324.745543 
L 77.927635 323.231661 
L 78.002945 321.828659 
L 78.078255 320.573498 
L 78.153565 319.263635 
L 78.228875 317.894637 
L 78.304185 316.166387 
L 78.379495 315.113767 
L 79.132596 303.62512 
L 79.885696 293.509907 
L 80.638797 285.646298 
L 81.391898 279.073331 
L 82.144998 273.832403 
L 82.898099 269.429728 
L 83.651199 265.884525 
L 84.4043 262.457594 
L 85.157401 259.499315 
L 86.663602 254.907405 
L 88.169803 251.106439 
L 89.676005 247.725338 
L 91.182206 244.832109 
L 92.688407 242.264128 
L 107.75042 225.719354 
L 122.812432 215.478477 
L 137.874445 207.968205 
L 152.936457 201.618477 
L 167.99847 195.978381 
L 183.060482 190.993216 
L 198.122495 186.269728 
L 213.184507 181.877402 
L 228.24652 177.810323 
L 243.308532 174.031533 
L 258.370545 170.288224 
L 273.432557 166.683885 
L 288.49457 162.961274 
L 303.556582 159.667399 
L 318.618595 156.40457 
L 333.680607 153.140263 
L 348.74262 149.997184 
L 363.804633 146.994554 
L 378.866645 143.598669 
L 393.928658 140.776403 
L 408.99067 137.784122 
L 424.052683 134.853933 
L 439.114695 131.914874 
L 454.176708 129.113306 
L 469.23872 126.166855 
L 484.300733 123.289888 
L 499.362745 120.551891 
L 514.424758 117.757715 
L 529.48677 115.102509 
L 544.548783 112.326074 
L 559.610795 109.536333 
" style="fill:none;stroke:#8c564b;stroke-linecap:square;stroke-width:1.5;"/>
   </g>
   <g id="line2d_41">
    <path clip-path="url(#pdc23a86345)" d="M 77.701705 325.923827 
L 77.777015 326.253511 
L 77.852325 324.989479 
L 77.927635 323.564301 
L 78.002945 322.250003 
L 78.078255 320.881005 
L 78.153565 319.618451 
L 78.228875 318.256845 
L 78.304185 316.81097 
L 78.379495 315.543981 
L 79.132596 304.269703 
L 79.885696 294.272762 
L 80.638797 286.324883 
L 81.391898 279.685389 
L 82.144998 274.215309 
L 82.898099 269.942733 
L 83.651199 266.32361 
L 84.4043 262.942509 
L 85.157401 260.120243 
L 86.663602 255.299181 
L 88.169803 251.478995 
L 89.676005 248.127463 
L 91.182206 245.300762 
L 92.688407 242.725389 
L 107.75042 226.239751 
L 122.812432 216.084621 
L 137.874445 208.632007 
L 152.936457 202.166963 
L 167.99847 196.603744 
L 183.060482 191.631885 
L 198.122495 186.955706 
L 213.184507 182.539725 
L 228.24652 178.545088 
L 243.308532 174.744122 
L 258.370545 170.983072 
L 273.432557 167.329946 
L 288.49457 163.792135 
L 303.556582 160.43321 
L 318.618595 157.167424 
L 333.680607 153.809978 
L 348.74262 150.816218 
L 363.804633 147.581479 
L 378.866645 144.453184 
L 393.928658 141.391418 
L 408.99067 138.471578 
L 424.052683 135.557651 
L 439.114695 132.744256 
L 454.176708 129.79337 
L 469.23872 126.860224 
L 484.300733 124.089703 
L 499.362745 121.283699 
L 514.424758 118.55753 
L 529.48677 115.779616 
L 544.548783 113.056403 
L 559.610795 110.300666 
" style="fill:none;stroke:#e377c2;stroke-linecap:square;stroke-width:1.5;"/>
   </g>
   <g id="line2d_42">
    <path clip-path="url(#pdc23a86345)" d="M 77.701705 325.941568 
L 77.777015 326.410221 
L 77.852325 325.06192 
L 77.927635 323.857024 
L 78.002945 322.524986 
L 78.078255 321.235821 
L 78.153565 320.023533 
L 78.228875 318.697408 
L 78.304185 317.43929 
L 78.379495 315.993415 
L 79.132596 304.775315 
L 79.885696 294.989786 
L 80.638797 286.9192 
L 81.391898 280.365453 
L 82.144998 274.939725 
L 82.898099 270.372947 
L 83.651199 266.622247 
L 84.4043 263.468819 
L 85.157401 260.386355 
L 86.663602 255.674695 
L 88.169803 251.666752 
L 89.676005 248.464538 
L 91.182206 245.685146 
L 92.688407 243.052115 
L 107.75042 226.548736 
L 122.812432 216.403955 
L 137.874445 208.784282 
L 152.936457 202.648922 
L 167.99847 197.078311 
L 183.060482 191.973395 
L 198.122495 187.433229 
L 213.184507 182.956634 
L 228.24652 178.930951 
L 243.308532 175.076762 
L 258.370545 171.370413 
L 273.432557 167.903565 
L 288.49457 164.339143 
L 303.556582 160.824986 
L 318.618595 157.582855 
L 333.680607 154.37177 
L 348.74262 151.283392 
L 363.804633 148.140314 
L 378.866645 145.037152 
L 393.928658 141.954688 
L 408.99067 138.953536 
L 424.052683 136.078048 
L 439.114695 133.147859 
L 454.176708 130.399514 
L 469.23872 127.402797 
L 484.300733 124.528787 
L 499.362745 121.814445 
L 514.424758 119.131149 
L 529.48677 116.310362 
L 544.548783 113.535405 
L 559.610795 110.999949 
" style="fill:none;stroke:#7f7f7f;stroke-linecap:square;stroke-width:1.5;"/>
   </g>
   <g id="patch_3">
    <path d="M 53.60625 354.958125 
L 53.60625 22.318125 
" style="fill:none;stroke:#000000;stroke-linecap:square;stroke-linejoin:miter;stroke-width:0.8;"/>
   </g>
   <g id="patch_4">
    <path d="M 583.70625 354.958125 
L 583.70625 22.318125 
" style="fill:none;stroke:#000000;stroke-linecap:square;stroke-linejoin:miter;stroke-width:0.8;"/>
   </g>
   <g id="patch_5">
    <path d="M 53.60625 354.958125 
L 583.70625 354.958125 
" style="fill:none;stroke:#000000;stroke-linecap:square;stroke-linejoin:miter;stroke-width:0.8;"/>
   </g>
   <g id="patch_6">
    <path d="M 53.60625 22.318125 
L 583.70625 22.318125 
" style="fill:none;stroke:#000000;stroke-linecap:square;stroke-linejoin:miter;stroke-width:0.8;"/>
   </g>
   <g id="text_20">
    <!-- Transfer function of channel #30 -->
    <g transform="translate(220.209375 16.318125)scale(0.12 -0.12)">
     <defs>
      <path d="M -0.296875 72.90625 
L 61.375 72.90625 
L 61.375 64.59375 
L 35.5 64.59375 
L 35.5 0 
L 25.59375 0 
L 25.59375 64.59375 
L -0.296875 64.59375 
z
" id="DejaVuSans-84"/>
      <path d="M 41.109375 46.296875 
Q 39.59375 47.171875 37.8125 47.578125 
Q 36.03125 48 33.890625 48 
Q 26.265625 48 22.1875 43.046875 
Q 18.109375 38.09375 18.109375 28.8125 
L 18.109375 0 
L 9.078125 0 
L 9.078125 54.6875 
L 18.109375 54.6875 
L 18.109375 46.1875 
Q 20.953125 51.171875 25.484375 53.578125 
Q 30.03125 56 36.53125 56 
Q 37.453125 56 38.578125 55.875 
Q 39.703125 55.765625 41.0625 55.515625 
z
" id="DejaVuSans-114"/>
      <path d="M 44.28125 53.078125 
L 44.28125 44.578125 
Q 40.484375 46.53125 36.375 47.5 
Q 32.28125 48.484375 27.875 48.484375 
Q 21.1875 48.484375 17.84375 46.4375 
Q 14.5 44.390625 14.5 40.28125 
Q 14.5 37.15625 16.890625 35.375 
Q 19.28125 33.59375 26.515625 31.984375 
L 29.59375 31.296875 
Q 39.15625 29.25 43.1875 25.515625 
Q 47.21875 21.78125 47.21875 15.09375 
Q 47.21875 7.46875 41.1875 3.015625 
Q 35.15625 -1.421875 24.609375 -1.421875 
Q 20.21875 -1.421875 15.453125 -0.5625 
Q 10.6875 0.296875 5.421875 2 
L 5.421875 11.28125 
Q 10.40625 8.6875 15.234375 7.390625 
Q 20.0625 6.109375 24.8125 6.109375 
Q 31.15625 6.109375 34.5625 8.28125 
Q 37.984375 10.453125 37.984375 14.40625 
Q 37.984375 18.0625 35.515625 20.015625 
Q 33.0625 21.96875 24.703125 23.78125 
L 21.578125 24.515625 
Q 13.234375 26.265625 9.515625 29.90625 
Q 5.8125 33.546875 5.8125 39.890625 
Q 5.8125 47.609375 11.28125 51.796875 
Q 16.75 56 26.8125 56 
Q 31.78125 56 36.171875 55.265625 
Q 40.578125 54.546875 44.28125 53.078125 
z
" id="DejaVuSans-115"/>
      <path d="M 37.109375 75.984375 
L 37.109375 68.5 
L 28.515625 68.5 
Q 23.6875 68.5 21.796875 66.546875 
Q 19.921875 64.59375 19.921875 59.515625 
L 19.921875 54.6875 
L 34.71875 54.6875 
L 34.71875 47.703125 
L 19.921875 47.703125 
L 19.921875 0 
L 10.890625 0 
L 10.890625 47.703125 
L 2.296875 47.703125 
L 2.296875 54.6875 
L 10.890625 54.6875 
L 10.890625 58.5 
Q 10.890625 67.625 15.140625 71.796875 
Q 19.390625 75.984375 28.609375 75.984375 
z
" id="DejaVuSans-102"/>
      <path d="M 9.421875 54.6875 
L 18.40625 54.6875 
L 18.40625 0 
L 9.421875 0 
z
M 9.421875 75.984375 
L 18.40625 75.984375 
L 18.40625 64.59375 
L 9.421875 64.59375 
z
" id="DejaVuSans-105"/>
      <path d="M 51.125 44 
L 36.921875 44 
L 32.8125 27.6875 
L 47.125 27.6875 
z
M 43.796875 71.78125 
L 38.71875 51.515625 
L 52.984375 51.515625 
L 58.109375 71.78125 
L 65.921875 71.78125 
L 60.890625 51.515625 
L 76.125 51.515625 
L 76.125 44 
L 58.984375 44 
L 54.984375 27.6875 
L 70.515625 27.6875 
L 70.515625 20.21875 
L 53.078125 20.21875 
L 48 0 
L 40.1875 0 
L 45.21875 20.21875 
L 30.90625 20.21875 
L 25.875 0 
L 18.015625 0 
L 23.09375 20.21875 
L 7.71875 20.21875 
L 7.71875 27.6875 
L 24.90625 27.6875 
L 29 44 
L 13.28125 44 
L 13.28125 51.515625 
L 30.90625 51.515625 
L 35.890625 71.78125 
z
" id="DejaVuSans-35"/>
     </defs>
     <use xlink:href="#DejaVuSans-84"/>
     <use x="46.333984" xlink:href="#DejaVuSans-114"/>
     <use x="87.447266" xlink:href="#DejaVuSans-97"/>
     <use x="148.726562" xlink:href="#DejaVuSans-110"/>
     <use x="212.105469" xlink:href="#DejaVuSans-115"/>
     <use x="264.205078" xlink:href="#DejaVuSans-102"/>
     <use x="299.410156" xlink:href="#DejaVuSans-101"/>
     <use x="360.933594" xlink:href="#DejaVuSans-114"/>
     <use x="402.046875" xlink:href="#DejaVuSans-32"/>
     <use x="433.833984" xlink:href="#DejaVuSans-102"/>
     <use x="469.039062" xlink:href="#DejaVuSans-117"/>
     <use x="532.417969" xlink:href="#DejaVuSans-110"/>
     <use x="595.796875" xlink:href="#DejaVuSans-99"/>
     <use x="650.777344" xlink:href="#DejaVuSans-116"/>
     <use x="689.986328" xlink:href="#DejaVuSans-105"/>
     <use x="717.769531" xlink:href="#DejaVuSans-111"/>
     <use x="778.951172" xlink:href="#DejaVuSans-110"/>
     <use x="842.330078" xlink:href="#DejaVuSans-32"/>
     <use x="874.117188" xlink:href="#DejaVuSans-111"/>
     <use x="935.298828" xlink:href="#DejaVuSans-102"/>
     <use x="970.503906" xlink:href="#DejaVuSans-32"/>
     <use x="1002.291016" xlink:href="#DejaVuSans-99"/>
     <use x="1057.271484" xlink:href="#DejaVuSans-104"/>
     <use x="1120.650391" xlink:href="#DejaVuSans-97"/>
     <use x="1181.929688" xlink:href="#DejaVuSans-110"/>
     <use x="1245.308594" xlink:href="#DejaVuSans-110"/>
     <use x="1308.6875" xlink:href="#DejaVuSans-101"/>
     <use x="1370.210938" xlink:href="#DejaVuSans-108"/>
     <use x="1397.994141" xlink:href="#DejaVuSans-32"/>
     <use x="1429.78125" xlink:href="#DejaVuSans-35"/>
     <use x="1513.570312" xlink:href="#DejaVuSans-51"/>
     <use x="1577.193359" xlink:href="#DejaVuSans-48"/>
    </g>
   </g>
   <g id="legend_1">
    <g id="patch_7">
     <path d="M 618.42125 248.850625 
L 661.22125 248.850625 
Q 663.22125 248.850625 663.22125 246.850625 
L 663.22125 130.425625 
Q 663.22125 128.425625 661.22125 128.425625 
L 618.42125 128.425625 
Q 616.42125 128.425625 616.42125 130.425625 
L 616.42125 246.850625 
Q 616.42125 248.850625 618.42125 248.850625 
z
" style="fill:#ffffff;opacity:0.8;stroke:#cccccc;stroke-linejoin:miter;"/>
    </g>
    <g id="line2d_43">
     <path d="M 620.42125 136.524063 
L 640.42125 136.524063 
" style="fill:none;stroke:#1f77b4;stroke-linecap:square;stroke-width:1.5;"/>
    </g>
    <g id="line2d_44"/>
    <g id="text_21">
     <!-- $\tau_0$ -->
     <g transform="translate(648.42125 140.024063)scale(0.1 -0.1)">
      <defs>
       <path d="M 32.859375 9.96875 
Q 34.1875 7.625 39.453125 7.625 
L 43.75 7.625 
L 42.28125 0 
L 36.921875 0 
Q 28.125 0 25 4.6875 
Q 21.921875 9.46875 23.96875 19.828125 
L 29 45.703125 
L 8.453125 45.703125 
L 10.203125 54.6875 
L 60.640625 54.6875 
L 58.890625 45.703125 
L 38.1875 45.703125 
L 33.015625 19.28125 
Q 31.640625 12.203125 32.859375 9.96875 
z
" id="DejaVuSans-Oblique-964"/>
      </defs>
      <use transform="translate(0 0.3125)" xlink:href="#DejaVuSans-Oblique-964"/>
      <use transform="translate(60.205078 -16.09375)scale(0.7)" xlink:href="#DejaVuSans-48"/>
     </g>
    </g>
    <g id="line2d_45">
     <path d="M 620.42125 151.202188 
L 640.42125 151.202188 
" style="fill:none;stroke:#ff7f0e;stroke-linecap:square;stroke-width:1.5;"/>
    </g>
    <g id="line2d_46"/>
    <g id="text_22">
     <!-- $\tau_1$ -->
     <g transform="translate(648.42125 154.702188)scale(0.1 -0.1)">
      <use transform="translate(0 0.3125)" xlink:href="#DejaVuSans-Oblique-964"/>
      <use transform="translate(60.205078 -16.09375)scale(0.7)" xlink:href="#DejaVuSans-49"/>
     </g>
    </g>
    <g id="line2d_47">
     <path d="M 620.42125 165.880313 
L 640.42125 165.880313 
" style="fill:none;stroke:#2ca02c;stroke-linecap:square;stroke-width:1.5;"/>
    </g>
    <g id="line2d_48"/>
    <g id="text_23">
     <!-- $\tau_2$ -->
     <g transform="translate(648.42125 169.380313)scale(0.1 -0.1)">
      <use transform="translate(0 0.3125)" xlink:href="#DejaVuSans-Oblique-964"/>
      <use transform="translate(60.205078 -16.09375)scale(0.7)" xlink:href="#DejaVuSans-50"/>
     </g>
    </g>
    <g id="line2d_49">
     <path d="M 620.42125 180.558438 
L 640.42125 180.558438 
" style="fill:none;stroke:#d62728;stroke-linecap:square;stroke-width:1.5;"/>
    </g>
    <g id="line2d_50"/>
    <g id="text_24">
     <!-- $\tau_3$ -->
     <g transform="translate(648.42125 184.058438)scale(0.1 -0.1)">
      <use transform="translate(0 0.3125)" xlink:href="#DejaVuSans-Oblique-964"/>
      <use transform="translate(60.205078 -16.09375)scale(0.7)" xlink:href="#DejaVuSans-51"/>
     </g>
    </g>
    <g id="line2d_51">
     <path d="M 620.42125 195.236563 
L 640.42125 195.236563 
" style="fill:none;stroke:#9467bd;stroke-linecap:square;stroke-width:1.5;"/>
    </g>
    <g id="line2d_52"/>
    <g id="text_25">
     <!-- $\tau_4$ -->
     <g transform="translate(648.42125 198.736563)scale(0.1 -0.1)">
      <use transform="translate(0 0.3125)" xlink:href="#DejaVuSans-Oblique-964"/>
      <use transform="translate(60.205078 -16.09375)scale(0.7)" xlink:href="#DejaVuSans-52"/>
     </g>
    </g>
    <g id="line2d_53">
     <path d="M 620.42125 209.914688 
L 640.42125 209.914688 
" style="fill:none;stroke:#8c564b;stroke-linecap:square;stroke-width:1.5;"/>
    </g>
    <g id="line2d_54"/>
    <g id="text_26">
     <!-- $\tau_5$ -->
     <g transform="translate(648.42125 213.414688)scale(0.1 -0.1)">
      <use transform="translate(0 0.3125)" xlink:href="#DejaVuSans-Oblique-964"/>
      <use transform="translate(60.205078 -16.09375)scale(0.7)" xlink:href="#DejaVuSans-53"/>
     </g>
    </g>
    <g id="line2d_55">
     <path d="M 620.42125 224.592813 
L 640.42125 224.592813 
" style="fill:none;stroke:#e377c2;stroke-linecap:square;stroke-width:1.5;"/>
    </g>
    <g id="line2d_56"/>
    <g id="text_27">
     <!-- $\tau_6$ -->
     <g transform="translate(648.42125 228.092813)scale(0.1 -0.1)">
      <use transform="translate(0 0.3125)" xlink:href="#DejaVuSans-Oblique-964"/>
      <use transform="translate(60.205078 -16.09375)scale(0.7)" xlink:href="#DejaVuSans-54"/>
     </g>
    </g>
    <g id="line2d_57">
     <path d="M 620.42125 239.270938 
L 640.42125 239.270938 
" style="fill:none;stroke:#7f7f7f;stroke-linecap:square;stroke-width:1.5;"/>
    </g>
    <g id="line2d_58"/>
    <g id="text_28">
     <!-- $\tau_7$ -->
     <g transform="translate(648.42125 242.770938)scale(0.1 -0.1)">
      <use transform="translate(0 0.3125)" xlink:href="#DejaVuSans-Oblique-964"/>
      <use transform="translate(60.205078 -16.09375)scale(0.7)" xlink:href="#DejaVuSans-55"/>
     </g>
    </g>
   </g>
  </g>
 </g>
 <defs>
  <clipPath id="pdc23a86345">
   <rect height="332.64" width="530.1" x="53.60625" y="22.318125"/>
  </clipPath>
 </defs>
</svg>
