<?xml version="1.0" encoding="utf-8" standalone="no"?>
<!DOCTYPE svg PUBLIC "-//W3C//DTD SVG 1.1//EN"
  "http://www.w3.org/Graphics/SVG/1.1/DTD/svg11.dtd">
<!-- Created with matplotlib (https://matplotlib.org/) -->
<svg height="393.53625pt" version="1.1" viewBox="0 0 678.51225 393.53625" width="678.51225pt" xmlns="http://www.w3.org/2000/svg" xmlns:xlink="http://www.w3.org/1999/xlink">
 <metadata>
  <rdf:RDF xmlns:cc="http://creativecommons.org/ns#" xmlns:dc="http://purl.org/dc/elements/1.1/" xmlns:rdf="http://www.w3.org/1999/02/22-rdf-syntax-ns#">
   <cc:Work>
    <dc:type rdf:resource="http://purl.org/dc/dcmitype/StillImage"/>
    <dc:date>2022-12-07T15:59:50.446552</dc:date>
    <dc:format>image/svg+xml</dc:format>
    <dc:creator>
     <cc:Agent>
      <dc:title>Matplotlib v3.3.4, https://matplotlib.org/</dc:title>
     </cc:Agent>
    </dc:creator>
   </cc:Work>
  </rdf:RDF>
 </metadata>
 <defs>
  <style type="text/css">*{stroke-linecap:butt;stroke-linejoin:round;}</style>
 </defs>
 <g id="figure_1">
  <g id="patch_1">
   <path d="M 0 393.53625 
L 678.51225 393.53625 
L 678.51225 0 
L 0 0 
z
" style="fill:#ffffff;"/>
  </g>
  <g id="axes_1">
   <g id="patch_2">
    <path d="M 53.60625 354.958125 
L 555.80625 354.958125 
L 555.80625 22.318125 
L 53.60625 22.318125 
z
" style="fill:#ffffff;"/>
   </g>
   <g id="matplotlib.axis_1">
    <g id="xtick_1">
     <g id="line2d_1">
      <path clip-path="url(#pab3a83d686)" d="M 65.563393 354.958125 
L 65.563393 22.318125 
" style="fill:none;stroke:#b0b0b0;stroke-linecap:square;stroke-width:0.8;"/>
     </g>
     <g id="line2d_2">
      <defs>
       <path d="M 0 0 
L 0 3.5 
" id="m579e60f3da" style="stroke:#000000;stroke-width:0.8;"/>
      </defs>
      <g>
       <use style="stroke:#000000;stroke-width:0.8;" x="65.563393" xlink:href="#m579e60f3da" y="354.958125"/>
      </g>
     </g>
     <g id="text_1">
      <!-- 20000 -->
      <g transform="translate(49.657143 369.556562)scale(0.1 -0.1)">
       <defs>
        <path d="M 19.1875 8.296875 
L 53.609375 8.296875 
L 53.609375 0 
L 7.328125 0 
L 7.328125 8.296875 
Q 12.9375 14.109375 22.625 23.890625 
Q 32.328125 33.6875 34.8125 36.53125 
Q 39.546875 41.84375 41.421875 45.53125 
Q 43.3125 49.21875 43.3125 52.78125 
Q 43.3125 58.59375 39.234375 62.25 
Q 35.15625 65.921875 28.609375 65.921875 
Q 23.96875 65.921875 18.8125 64.3125 
Q 13.671875 62.703125 7.8125 59.421875 
L 7.8125 69.390625 
Q 13.765625 71.78125 18.9375 73 
Q 24.125 74.21875 28.421875 74.21875 
Q 39.75 74.21875 46.484375 68.546875 
Q 53.21875 62.890625 53.21875 53.421875 
Q 53.21875 48.921875 51.53125 44.890625 
Q 49.859375 40.875 45.40625 35.40625 
Q 44.1875 33.984375 37.640625 27.21875 
Q 31.109375 20.453125 19.1875 8.296875 
z
" id="DejaVuSans-50"/>
        <path d="M 31.78125 66.40625 
Q 24.171875 66.40625 20.328125 58.90625 
Q 16.5 51.421875 16.5 36.375 
Q 16.5 21.390625 20.328125 13.890625 
Q 24.171875 6.390625 31.78125 6.390625 
Q 39.453125 6.390625 43.28125 13.890625 
Q 47.125 21.390625 47.125 36.375 
Q 47.125 51.421875 43.28125 58.90625 
Q 39.453125 66.40625 31.78125 66.40625 
z
M 31.78125 74.21875 
Q 44.046875 74.21875 50.515625 64.515625 
Q 56.984375 54.828125 56.984375 36.375 
Q 56.984375 17.96875 50.515625 8.265625 
Q 44.046875 -1.421875 31.78125 -1.421875 
Q 19.53125 -1.421875 13.0625 8.265625 
Q 6.59375 17.96875 6.59375 36.375 
Q 6.59375 54.828125 13.0625 64.515625 
Q 19.53125 74.21875 31.78125 74.21875 
z
" id="DejaVuSans-48"/>
       </defs>
       <use xlink:href="#DejaVuSans-50"/>
       <use x="63.623047" xlink:href="#DejaVuSans-48"/>
       <use x="127.246094" xlink:href="#DejaVuSans-48"/>
       <use x="190.869141" xlink:href="#DejaVuSans-48"/>
       <use x="254.492188" xlink:href="#DejaVuSans-48"/>
      </g>
     </g>
    </g>
    <g id="xtick_2">
     <g id="line2d_3">
      <path clip-path="url(#pab3a83d686)" d="M 125.349107 354.958125 
L 125.349107 22.318125 
" style="fill:none;stroke:#b0b0b0;stroke-linecap:square;stroke-width:0.8;"/>
     </g>
     <g id="line2d_4">
      <g>
       <use style="stroke:#000000;stroke-width:0.8;" x="125.349107" xlink:href="#m579e60f3da" y="354.958125"/>
      </g>
     </g>
     <g id="text_2">
      <!-- 25000 -->
      <g transform="translate(109.442857 369.556562)scale(0.1 -0.1)">
       <defs>
        <path d="M 10.796875 72.90625 
L 49.515625 72.90625 
L 49.515625 64.59375 
L 19.828125 64.59375 
L 19.828125 46.734375 
Q 21.96875 47.46875 24.109375 47.828125 
Q 26.265625 48.1875 28.421875 48.1875 
Q 40.625 48.1875 47.75 41.5 
Q 54.890625 34.8125 54.890625 23.390625 
Q 54.890625 11.625 47.5625 5.09375 
Q 40.234375 -1.421875 26.90625 -1.421875 
Q 22.3125 -1.421875 17.546875 -0.640625 
Q 12.796875 0.140625 7.71875 1.703125 
L 7.71875 11.625 
Q 12.109375 9.234375 16.796875 8.0625 
Q 21.484375 6.890625 26.703125 6.890625 
Q 35.15625 6.890625 40.078125 11.328125 
Q 45.015625 15.765625 45.015625 23.390625 
Q 45.015625 31 40.078125 35.4375 
Q 35.15625 39.890625 26.703125 39.890625 
Q 22.75 39.890625 18.8125 39.015625 
Q 14.890625 38.140625 10.796875 36.28125 
z
" id="DejaVuSans-53"/>
       </defs>
       <use xlink:href="#DejaVuSans-50"/>
       <use x="63.623047" xlink:href="#DejaVuSans-53"/>
       <use x="127.246094" xlink:href="#DejaVuSans-48"/>
       <use x="190.869141" xlink:href="#DejaVuSans-48"/>
       <use x="254.492188" xlink:href="#DejaVuSans-48"/>
      </g>
     </g>
    </g>
    <g id="xtick_3">
     <g id="line2d_5">
      <path clip-path="url(#pab3a83d686)" d="M 185.134821 354.958125 
L 185.134821 22.318125 
" style="fill:none;stroke:#b0b0b0;stroke-linecap:square;stroke-width:0.8;"/>
     </g>
     <g id="line2d_6">
      <g>
       <use style="stroke:#000000;stroke-width:0.8;" x="185.134821" xlink:href="#m579e60f3da" y="354.958125"/>
      </g>
     </g>
     <g id="text_3">
      <!-- 30000 -->
      <g transform="translate(169.228571 369.556562)scale(0.1 -0.1)">
       <defs>
        <path d="M 40.578125 39.3125 
Q 47.65625 37.796875 51.625 33 
Q 55.609375 28.21875 55.609375 21.1875 
Q 55.609375 10.40625 48.1875 4.484375 
Q 40.765625 -1.421875 27.09375 -1.421875 
Q 22.515625 -1.421875 17.65625 -0.515625 
Q 12.796875 0.390625 7.625 2.203125 
L 7.625 11.71875 
Q 11.71875 9.328125 16.59375 8.109375 
Q 21.484375 6.890625 26.8125 6.890625 
Q 36.078125 6.890625 40.9375 10.546875 
Q 45.796875 14.203125 45.796875 21.1875 
Q 45.796875 27.640625 41.28125 31.265625 
Q 36.765625 34.90625 28.71875 34.90625 
L 20.21875 34.90625 
L 20.21875 43.015625 
L 29.109375 43.015625 
Q 36.375 43.015625 40.234375 45.921875 
Q 44.09375 48.828125 44.09375 54.296875 
Q 44.09375 59.90625 40.109375 62.90625 
Q 36.140625 65.921875 28.71875 65.921875 
Q 24.65625 65.921875 20.015625 65.03125 
Q 15.375 64.15625 9.8125 62.3125 
L 9.8125 71.09375 
Q 15.4375 72.65625 20.34375 73.4375 
Q 25.25 74.21875 29.59375 74.21875 
Q 40.828125 74.21875 47.359375 69.109375 
Q 53.90625 64.015625 53.90625 55.328125 
Q 53.90625 49.265625 50.4375 45.09375 
Q 46.96875 40.921875 40.578125 39.3125 
z
" id="DejaVuSans-51"/>
       </defs>
       <use xlink:href="#DejaVuSans-51"/>
       <use x="63.623047" xlink:href="#DejaVuSans-48"/>
       <use x="127.246094" xlink:href="#DejaVuSans-48"/>
       <use x="190.869141" xlink:href="#DejaVuSans-48"/>
       <use x="254.492188" xlink:href="#DejaVuSans-48"/>
      </g>
     </g>
    </g>
    <g id="xtick_4">
     <g id="line2d_7">
      <path clip-path="url(#pab3a83d686)" d="M 244.920536 354.958125 
L 244.920536 22.318125 
" style="fill:none;stroke:#b0b0b0;stroke-linecap:square;stroke-width:0.8;"/>
     </g>
     <g id="line2d_8">
      <g>
       <use style="stroke:#000000;stroke-width:0.8;" x="244.920536" xlink:href="#m579e60f3da" y="354.958125"/>
      </g>
     </g>
     <g id="text_4">
      <!-- 35000 -->
      <g transform="translate(229.014286 369.556562)scale(0.1 -0.1)">
       <use xlink:href="#DejaVuSans-51"/>
       <use x="63.623047" xlink:href="#DejaVuSans-53"/>
       <use x="127.246094" xlink:href="#DejaVuSans-48"/>
       <use x="190.869141" xlink:href="#DejaVuSans-48"/>
       <use x="254.492188" xlink:href="#DejaVuSans-48"/>
      </g>
     </g>
    </g>
    <g id="xtick_5">
     <g id="line2d_9">
      <path clip-path="url(#pab3a83d686)" d="M 304.70625 354.958125 
L 304.70625 22.318125 
" style="fill:none;stroke:#b0b0b0;stroke-linecap:square;stroke-width:0.8;"/>
     </g>
     <g id="line2d_10">
      <g>
       <use style="stroke:#000000;stroke-width:0.8;" x="304.70625" xlink:href="#m579e60f3da" y="354.958125"/>
      </g>
     </g>
     <g id="text_5">
      <!-- 40000 -->
      <g transform="translate(288.8 369.556562)scale(0.1 -0.1)">
       <defs>
        <path d="M 37.796875 64.3125 
L 12.890625 25.390625 
L 37.796875 25.390625 
z
M 35.203125 72.90625 
L 47.609375 72.90625 
L 47.609375 25.390625 
L 58.015625 25.390625 
L 58.015625 17.1875 
L 47.609375 17.1875 
L 47.609375 0 
L 37.796875 0 
L 37.796875 17.1875 
L 4.890625 17.1875 
L 4.890625 26.703125 
z
" id="DejaVuSans-52"/>
       </defs>
       <use xlink:href="#DejaVuSans-52"/>
       <use x="63.623047" xlink:href="#DejaVuSans-48"/>
       <use x="127.246094" xlink:href="#DejaVuSans-48"/>
       <use x="190.869141" xlink:href="#DejaVuSans-48"/>
       <use x="254.492188" xlink:href="#DejaVuSans-48"/>
      </g>
     </g>
    </g>
    <g id="xtick_6">
     <g id="line2d_11">
      <path clip-path="url(#pab3a83d686)" d="M 364.491964 354.958125 
L 364.491964 22.318125 
" style="fill:none;stroke:#b0b0b0;stroke-linecap:square;stroke-width:0.8;"/>
     </g>
     <g id="line2d_12">
      <g>
       <use style="stroke:#000000;stroke-width:0.8;" x="364.491964" xlink:href="#m579e60f3da" y="354.958125"/>
      </g>
     </g>
     <g id="text_6">
      <!-- 45000 -->
      <g transform="translate(348.585714 369.556562)scale(0.1 -0.1)">
       <use xlink:href="#DejaVuSans-52"/>
       <use x="63.623047" xlink:href="#DejaVuSans-53"/>
       <use x="127.246094" xlink:href="#DejaVuSans-48"/>
       <use x="190.869141" xlink:href="#DejaVuSans-48"/>
       <use x="254.492188" xlink:href="#DejaVuSans-48"/>
      </g>
     </g>
    </g>
    <g id="xtick_7">
     <g id="line2d_13">
      <path clip-path="url(#pab3a83d686)" d="M 424.277679 354.958125 
L 424.277679 22.318125 
" style="fill:none;stroke:#b0b0b0;stroke-linecap:square;stroke-width:0.8;"/>
     </g>
     <g id="line2d_14">
      <g>
       <use style="stroke:#000000;stroke-width:0.8;" x="424.277679" xlink:href="#m579e60f3da" y="354.958125"/>
      </g>
     </g>
     <g id="text_7">
      <!-- 50000 -->
      <g transform="translate(408.371429 369.556562)scale(0.1 -0.1)">
       <use xlink:href="#DejaVuSans-53"/>
       <use x="63.623047" xlink:href="#DejaVuSans-48"/>
       <use x="127.246094" xlink:href="#DejaVuSans-48"/>
       <use x="190.869141" xlink:href="#DejaVuSans-48"/>
       <use x="254.492188" xlink:href="#DejaVuSans-48"/>
      </g>
     </g>
    </g>
    <g id="xtick_8">
     <g id="line2d_15">
      <path clip-path="url(#pab3a83d686)" d="M 484.063393 354.958125 
L 484.063393 22.318125 
" style="fill:none;stroke:#b0b0b0;stroke-linecap:square;stroke-width:0.8;"/>
     </g>
     <g id="line2d_16">
      <g>
       <use style="stroke:#000000;stroke-width:0.8;" x="484.063393" xlink:href="#m579e60f3da" y="354.958125"/>
      </g>
     </g>
     <g id="text_8">
      <!-- 55000 -->
      <g transform="translate(468.157143 369.556562)scale(0.1 -0.1)">
       <use xlink:href="#DejaVuSans-53"/>
       <use x="63.623047" xlink:href="#DejaVuSans-53"/>
       <use x="127.246094" xlink:href="#DejaVuSans-48"/>
       <use x="190.869141" xlink:href="#DejaVuSans-48"/>
       <use x="254.492188" xlink:href="#DejaVuSans-48"/>
      </g>
     </g>
    </g>
    <g id="xtick_9">
     <g id="line2d_17">
      <path clip-path="url(#pab3a83d686)" d="M 543.849107 354.958125 
L 543.849107 22.318125 
" style="fill:none;stroke:#b0b0b0;stroke-linecap:square;stroke-width:0.8;"/>
     </g>
     <g id="line2d_18">
      <g>
       <use style="stroke:#000000;stroke-width:0.8;" x="543.849107" xlink:href="#m579e60f3da" y="354.958125"/>
      </g>
     </g>
     <g id="text_9">
      <!-- 60000 -->
      <g transform="translate(527.942857 369.556562)scale(0.1 -0.1)">
       <defs>
        <path d="M 33.015625 40.375 
Q 26.375 40.375 22.484375 35.828125 
Q 18.609375 31.296875 18.609375 23.390625 
Q 18.609375 15.53125 22.484375 10.953125 
Q 26.375 6.390625 33.015625 6.390625 
Q 39.65625 6.390625 43.53125 10.953125 
Q 47.40625 15.53125 47.40625 23.390625 
Q 47.40625 31.296875 43.53125 35.828125 
Q 39.65625 40.375 33.015625 40.375 
z
M 52.59375 71.296875 
L 52.59375 62.3125 
Q 48.875 64.0625 45.09375 64.984375 
Q 41.3125 65.921875 37.59375 65.921875 
Q 27.828125 65.921875 22.671875 59.328125 
Q 17.53125 52.734375 16.796875 39.40625 
Q 19.671875 43.65625 24.015625 45.921875 
Q 28.375 48.1875 33.59375 48.1875 
Q 44.578125 48.1875 50.953125 41.515625 
Q 57.328125 34.859375 57.328125 23.390625 
Q 57.328125 12.15625 50.6875 5.359375 
Q 44.046875 -1.421875 33.015625 -1.421875 
Q 20.359375 -1.421875 13.671875 8.265625 
Q 6.984375 17.96875 6.984375 36.375 
Q 6.984375 53.65625 15.1875 63.9375 
Q 23.390625 74.21875 37.203125 74.21875 
Q 40.921875 74.21875 44.703125 73.484375 
Q 48.484375 72.75 52.59375 71.296875 
z
" id="DejaVuSans-54"/>
       </defs>
       <use xlink:href="#DejaVuSans-54"/>
       <use x="63.623047" xlink:href="#DejaVuSans-48"/>
       <use x="127.246094" xlink:href="#DejaVuSans-48"/>
       <use x="190.869141" xlink:href="#DejaVuSans-48"/>
       <use x="254.492188" xlink:href="#DejaVuSans-48"/>
      </g>
     </g>
    </g>
    <g id="text_10">
     <!-- Cal_Voltage [$DAC_{inj}$ code] -->
     <g transform="translate(240.90625 383.23625)scale(0.1 -0.1)">
      <defs>
       <path d="M 64.40625 67.28125 
L 64.40625 56.890625 
Q 59.421875 61.53125 53.78125 63.8125 
Q 48.140625 66.109375 41.796875 66.109375 
Q 29.296875 66.109375 22.65625 58.46875 
Q 16.015625 50.828125 16.015625 36.375 
Q 16.015625 21.96875 22.65625 14.328125 
Q 29.296875 6.6875 41.796875 6.6875 
Q 48.140625 6.6875 53.78125 8.984375 
Q 59.421875 11.28125 64.40625 15.921875 
L 64.40625 5.609375 
Q 59.234375 2.09375 53.4375 0.328125 
Q 47.65625 -1.421875 41.21875 -1.421875 
Q 24.65625 -1.421875 15.125 8.703125 
Q 5.609375 18.84375 5.609375 36.375 
Q 5.609375 53.953125 15.125 64.078125 
Q 24.65625 74.21875 41.21875 74.21875 
Q 47.75 74.21875 53.53125 72.484375 
Q 59.328125 70.75 64.40625 67.28125 
z
" id="DejaVuSans-67"/>
       <path d="M 34.28125 27.484375 
Q 23.390625 27.484375 19.1875 25 
Q 14.984375 22.515625 14.984375 16.5 
Q 14.984375 11.71875 18.140625 8.90625 
Q 21.296875 6.109375 26.703125 6.109375 
Q 34.1875 6.109375 38.703125 11.40625 
Q 43.21875 16.703125 43.21875 25.484375 
L 43.21875 27.484375 
z
M 52.203125 31.203125 
L 52.203125 0 
L 43.21875 0 
L 43.21875 8.296875 
Q 40.140625 3.328125 35.546875 0.953125 
Q 30.953125 -1.421875 24.3125 -1.421875 
Q 15.921875 -1.421875 10.953125 3.296875 
Q 6 8.015625 6 15.921875 
Q 6 25.140625 12.171875 29.828125 
Q 18.359375 34.515625 30.609375 34.515625 
L 43.21875 34.515625 
L 43.21875 35.40625 
Q 43.21875 41.609375 39.140625 45 
Q 35.0625 48.390625 27.6875 48.390625 
Q 23 48.390625 18.546875 47.265625 
Q 14.109375 46.140625 10.015625 43.890625 
L 10.015625 52.203125 
Q 14.9375 54.109375 19.578125 55.046875 
Q 24.21875 56 28.609375 56 
Q 40.484375 56 46.34375 49.84375 
Q 52.203125 43.703125 52.203125 31.203125 
z
" id="DejaVuSans-97"/>
       <path d="M 9.421875 75.984375 
L 18.40625 75.984375 
L 18.40625 0 
L 9.421875 0 
z
" id="DejaVuSans-108"/>
       <path d="M 50.984375 -16.609375 
L 50.984375 -23.578125 
L -0.984375 -23.578125 
L -0.984375 -16.609375 
z
" id="DejaVuSans-95"/>
       <path d="M 28.609375 0 
L 0.78125 72.90625 
L 11.078125 72.90625 
L 34.1875 11.53125 
L 57.328125 72.90625 
L 67.578125 72.90625 
L 39.796875 0 
z
" id="DejaVuSans-86"/>
       <path d="M 30.609375 48.390625 
Q 23.390625 48.390625 19.1875 42.75 
Q 14.984375 37.109375 14.984375 27.296875 
Q 14.984375 17.484375 19.15625 11.84375 
Q 23.34375 6.203125 30.609375 6.203125 
Q 37.796875 6.203125 41.984375 11.859375 
Q 46.1875 17.53125 46.1875 27.296875 
Q 46.1875 37.015625 41.984375 42.703125 
Q 37.796875 48.390625 30.609375 48.390625 
z
M 30.609375 56 
Q 42.328125 56 49.015625 48.375 
Q 55.71875 40.765625 55.71875 27.296875 
Q 55.71875 13.875 49.015625 6.21875 
Q 42.328125 -1.421875 30.609375 -1.421875 
Q 18.84375 -1.421875 12.171875 6.21875 
Q 5.515625 13.875 5.515625 27.296875 
Q 5.515625 40.765625 12.171875 48.375 
Q 18.84375 56 30.609375 56 
z
" id="DejaVuSans-111"/>
       <path d="M 18.3125 70.21875 
L 18.3125 54.6875 
L 36.8125 54.6875 
L 36.8125 47.703125 
L 18.3125 47.703125 
L 18.3125 18.015625 
Q 18.3125 11.328125 20.140625 9.421875 
Q 21.96875 7.515625 27.59375 7.515625 
L 36.8125 7.515625 
L 36.8125 0 
L 27.59375 0 
Q 17.1875 0 13.234375 3.875 
Q 9.28125 7.765625 9.28125 18.015625 
L 9.28125 47.703125 
L 2.6875 47.703125 
L 2.6875 54.6875 
L 9.28125 54.6875 
L 9.28125 70.21875 
z
" id="DejaVuSans-116"/>
       <path d="M 45.40625 27.984375 
Q 45.40625 37.75 41.375 43.109375 
Q 37.359375 48.484375 30.078125 48.484375 
Q 22.859375 48.484375 18.828125 43.109375 
Q 14.796875 37.75 14.796875 27.984375 
Q 14.796875 18.265625 18.828125 12.890625 
Q 22.859375 7.515625 30.078125 7.515625 
Q 37.359375 7.515625 41.375 12.890625 
Q 45.40625 18.265625 45.40625 27.984375 
z
M 54.390625 6.78125 
Q 54.390625 -7.171875 48.1875 -13.984375 
Q 42 -20.796875 29.203125 -20.796875 
Q 24.46875 -20.796875 20.265625 -20.09375 
Q 16.0625 -19.390625 12.109375 -17.921875 
L 12.109375 -9.1875 
Q 16.0625 -11.328125 19.921875 -12.34375 
Q 23.78125 -13.375 27.78125 -13.375 
Q 36.625 -13.375 41.015625 -8.765625 
Q 45.40625 -4.15625 45.40625 5.171875 
L 45.40625 9.625 
Q 42.625 4.78125 38.28125 2.390625 
Q 33.9375 0 27.875 0 
Q 17.828125 0 11.671875 7.65625 
Q 5.515625 15.328125 5.515625 27.984375 
Q 5.515625 40.671875 11.671875 48.328125 
Q 17.828125 56 27.875 56 
Q 33.9375 56 38.28125 53.609375 
Q 42.625 51.21875 45.40625 46.390625 
L 45.40625 54.6875 
L 54.390625 54.6875 
z
" id="DejaVuSans-103"/>
       <path d="M 56.203125 29.59375 
L 56.203125 25.203125 
L 14.890625 25.203125 
Q 15.484375 15.921875 20.484375 11.0625 
Q 25.484375 6.203125 34.421875 6.203125 
Q 39.59375 6.203125 44.453125 7.46875 
Q 49.3125 8.734375 54.109375 11.28125 
L 54.109375 2.78125 
Q 49.265625 0.734375 44.1875 -0.34375 
Q 39.109375 -1.421875 33.890625 -1.421875 
Q 20.796875 -1.421875 13.15625 6.1875 
Q 5.515625 13.8125 5.515625 26.8125 
Q 5.515625 40.234375 12.765625 48.109375 
Q 20.015625 56 32.328125 56 
Q 43.359375 56 49.78125 48.890625 
Q 56.203125 41.796875 56.203125 29.59375 
z
M 47.21875 32.234375 
Q 47.125 39.59375 43.09375 43.984375 
Q 39.0625 48.390625 32.421875 48.390625 
Q 24.90625 48.390625 20.390625 44.140625 
Q 15.875 39.890625 15.1875 32.171875 
z
" id="DejaVuSans-101"/>
       <path id="DejaVuSans-32"/>
       <path d="M 8.59375 75.984375 
L 29.296875 75.984375 
L 29.296875 69 
L 17.578125 69 
L 17.578125 -6.203125 
L 29.296875 -6.203125 
L 29.296875 -13.1875 
L 8.59375 -13.1875 
z
" id="DejaVuSans-91"/>
       <path d="M 16.890625 72.90625 
L 38.09375 72.90625 
Q 54.984375 72.90625 63.59375 65.75 
Q 72.21875 58.59375 72.21875 44.484375 
Q 72.21875 35.15625 68.9375 26.53125 
Q 65.671875 17.921875 59.90625 12.015625 
Q 54.109375 5.953125 45.171875 2.96875 
Q 36.234375 0 24.03125 0 
L 2.6875 0 
z
M 25.203125 64.796875 
L 14.203125 8.109375 
L 27.09375 8.109375 
Q 43.65625 8.109375 52.734375 17.625 
Q 61.8125 27.15625 61.8125 44.484375 
Q 61.8125 54.984375 55.953125 59.890625 
Q 50.09375 64.796875 37.59375 64.796875 
z
" id="DejaVuSans-Oblique-68"/>
       <path d="M 36.8125 72.90625 
L 48 72.90625 
L 61.53125 0 
L 51.21875 0 
L 48.1875 18.703125 
L 15.375 18.703125 
L 5.078125 0 
L -5.328125 0 
z
M 40.375 63.1875 
L 19.921875 26.90625 
L 46.6875 26.90625 
z
" id="DejaVuSans-Oblique-65"/>
       <path d="M 69.484375 67.28125 
L 67.484375 56.890625 
Q 62.796875 61.625 57.546875 63.921875 
Q 52.296875 66.21875 46.1875 66.21875 
Q 37.84375 66.21875 31.515625 62.203125 
Q 25.203125 58.203125 20.609375 50 
Q 17.671875 44.734375 16.125 38.84375 
Q 14.59375 32.953125 14.59375 27 
Q 14.59375 17.046875 19.75 11.8125 
Q 24.90625 6.59375 34.71875 6.59375 
Q 41.5 6.59375 47.75 8.765625 
Q 54 10.9375 59.90625 15.28125 
L 57.625 3.609375 
Q 51.8125 1.125 45.875 -0.140625 
Q 39.9375 -1.421875 33.984375 -1.421875 
Q 19.96875 -1.421875 12.078125 6.1875 
Q 4.203125 13.8125 4.203125 27.390625 
Q 4.203125 36.078125 7.203125 44.46875 
Q 10.203125 52.875 15.828125 59.8125 
Q 21.78125 67.1875 29.421875 70.703125 
Q 37.0625 74.21875 47.21875 74.21875 
Q 53.46875 74.21875 59.0625 72.484375 
Q 64.65625 70.75 69.484375 67.28125 
z
" id="DejaVuSans-Oblique-67"/>
       <path d="M 18.3125 75.984375 
L 27.296875 75.984375 
L 25.09375 64.59375 
L 16.109375 64.59375 
z
M 14.203125 54.6875 
L 23.1875 54.6875 
L 12.5 0 
L 3.515625 0 
z
" id="DejaVuSans-Oblique-105"/>
       <path d="M 55.71875 33.015625 
L 49.3125 0 
L 40.28125 0 
L 46.6875 32.671875 
Q 47.125 34.96875 47.359375 36.71875 
Q 47.609375 38.484375 47.609375 39.5 
Q 47.609375 43.609375 45.015625 45.890625 
Q 42.4375 48.1875 37.796875 48.1875 
Q 30.5625 48.1875 25.34375 43.375 
Q 20.125 38.578125 18.5 30.328125 
L 12.5 0 
L 3.515625 0 
L 14.109375 54.6875 
L 23.09375 54.6875 
L 21.296875 46.09375 
Q 25.046875 50.828125 30.3125 53.40625 
Q 35.59375 56 41.40625 56 
Q 48.640625 56 52.609375 52.09375 
Q 56.59375 48.1875 56.59375 41.109375 
Q 56.59375 39.359375 56.375 37.359375 
Q 56.15625 35.359375 55.71875 33.015625 
z
" id="DejaVuSans-Oblique-110"/>
       <path d="M 14.5 54.6875 
L 23.484375 54.6875 
L 12.703125 -0.984375 
L 12.640625 -1.21875 
Q 10.84375 -10.546875 8.5 -14.015625 
Q 6.296875 -17.28125 2.0625 -19.03125 
Q -2.15625 -20.796875 -7.90625 -20.796875 
L -11.28125 -20.796875 
L -9.8125 -13.1875 
L -7.515625 -13.1875 
Q -2.25 -13.1875 -0.015625 -10.984375 
Q 2.203125 -8.796875 3.71875 -0.984375 
z
M 18.703125 75.984375 
L 27.6875 75.984375 
L 25.484375 64.59375 
L 16.5 64.59375 
z
" id="DejaVuSans-Oblique-106"/>
       <path d="M 48.78125 52.59375 
L 48.78125 44.1875 
Q 44.96875 46.296875 41.140625 47.34375 
Q 37.3125 48.390625 33.40625 48.390625 
Q 24.65625 48.390625 19.8125 42.84375 
Q 14.984375 37.3125 14.984375 27.296875 
Q 14.984375 17.28125 19.8125 11.734375 
Q 24.65625 6.203125 33.40625 6.203125 
Q 37.3125 6.203125 41.140625 7.25 
Q 44.96875 8.296875 48.78125 10.40625 
L 48.78125 2.09375 
Q 45.015625 0.34375 40.984375 -0.53125 
Q 36.96875 -1.421875 32.421875 -1.421875 
Q 20.0625 -1.421875 12.78125 6.34375 
Q 5.515625 14.109375 5.515625 27.296875 
Q 5.515625 40.671875 12.859375 48.328125 
Q 20.21875 56 33.015625 56 
Q 37.15625 56 41.109375 55.140625 
Q 45.0625 54.296875 48.78125 52.59375 
z
" id="DejaVuSans-99"/>
       <path d="M 45.40625 46.390625 
L 45.40625 75.984375 
L 54.390625 75.984375 
L 54.390625 0 
L 45.40625 0 
L 45.40625 8.203125 
Q 42.578125 3.328125 38.25 0.953125 
Q 33.9375 -1.421875 27.875 -1.421875 
Q 17.96875 -1.421875 11.734375 6.484375 
Q 5.515625 14.40625 5.515625 27.296875 
Q 5.515625 40.1875 11.734375 48.09375 
Q 17.96875 56 27.875 56 
Q 33.9375 56 38.25 53.625 
Q 42.578125 51.265625 45.40625 46.390625 
z
M 14.796875 27.296875 
Q 14.796875 17.390625 18.875 11.75 
Q 22.953125 6.109375 30.078125 6.109375 
Q 37.203125 6.109375 41.296875 11.75 
Q 45.40625 17.390625 45.40625 27.296875 
Q 45.40625 37.203125 41.296875 42.84375 
Q 37.203125 48.484375 30.078125 48.484375 
Q 22.953125 48.484375 18.875 42.84375 
Q 14.796875 37.203125 14.796875 27.296875 
z
" id="DejaVuSans-100"/>
       <path d="M 30.421875 75.984375 
L 30.421875 -13.1875 
L 9.71875 -13.1875 
L 9.71875 -6.203125 
L 21.390625 -6.203125 
L 21.390625 69 
L 9.71875 69 
L 9.71875 75.984375 
z
" id="DejaVuSans-93"/>
      </defs>
      <use transform="translate(0 0.015625)" xlink:href="#DejaVuSans-67"/>
      <use transform="translate(69.824219 0.015625)" xlink:href="#DejaVuSans-97"/>
      <use transform="translate(131.103516 0.015625)" xlink:href="#DejaVuSans-108"/>
      <use transform="translate(158.886719 0.015625)" xlink:href="#DejaVuSans-95"/>
      <use transform="translate(208.886719 0.015625)" xlink:href="#DejaVuSans-86"/>
      <use transform="translate(277.294922 0.015625)" xlink:href="#DejaVuSans-111"/>
      <use transform="translate(338.476562 0.015625)" xlink:href="#DejaVuSans-108"/>
      <use transform="translate(366.259766 0.015625)" xlink:href="#DejaVuSans-116"/>
      <use transform="translate(405.46875 0.015625)" xlink:href="#DejaVuSans-97"/>
      <use transform="translate(466.748047 0.015625)" xlink:href="#DejaVuSans-103"/>
      <use transform="translate(530.224609 0.015625)" xlink:href="#DejaVuSans-101"/>
      <use transform="translate(591.748047 0.015625)" xlink:href="#DejaVuSans-32"/>
      <use transform="translate(623.535156 0.015625)" xlink:href="#DejaVuSans-91"/>
      <use transform="translate(662.548828 0.015625)" xlink:href="#DejaVuSans-Oblique-68"/>
      <use transform="translate(739.550781 0.015625)" xlink:href="#DejaVuSans-Oblique-65"/>
      <use transform="translate(807.958984 0.015625)" xlink:href="#DejaVuSans-Oblique-67"/>
      <use transform="translate(877.783203 -16.390625)scale(0.7)" xlink:href="#DejaVuSans-Oblique-105"/>
      <use transform="translate(897.231445 -16.390625)scale(0.7)" xlink:href="#DejaVuSans-Oblique-110"/>
      <use transform="translate(941.59668 -16.390625)scale(0.7)" xlink:href="#DejaVuSans-Oblique-106"/>
      <use transform="translate(963.779297 0.015625)" xlink:href="#DejaVuSans-32"/>
      <use transform="translate(995.566406 0.015625)" xlink:href="#DejaVuSans-99"/>
      <use transform="translate(1050.546875 0.015625)" xlink:href="#DejaVuSans-111"/>
      <use transform="translate(1111.728516 0.015625)" xlink:href="#DejaVuSans-100"/>
      <use transform="translate(1175.205078 0.015625)" xlink:href="#DejaVuSans-101"/>
      <use transform="translate(1236.728516 0.015625)" xlink:href="#DejaVuSans-93"/>
     </g>
    </g>
   </g>
   <g id="matplotlib.axis_2">
    <g id="ytick_1">
     <g id="line2d_19">
      <path clip-path="url(#pab3a83d686)" d="M 53.60625 354.958125 
L 555.80625 354.958125 
" style="fill:none;stroke:#b0b0b0;stroke-linecap:square;stroke-width:0.8;"/>
     </g>
     <g id="line2d_20">
      <defs>
       <path d="M 0 0 
L -3.5 0 
" id="m4159852519" style="stroke:#000000;stroke-width:0.8;"/>
      </defs>
      <g>
       <use style="stroke:#000000;stroke-width:0.8;" x="53.60625" xlink:href="#m4159852519" y="354.958125"/>
      </g>
     </g>
     <g id="text_11">
      <!-- 1000 -->
      <g transform="translate(21.15625 358.757344)scale(0.1 -0.1)">
       <defs>
        <path d="M 12.40625 8.296875 
L 28.515625 8.296875 
L 28.515625 63.921875 
L 10.984375 60.40625 
L 10.984375 69.390625 
L 28.421875 72.90625 
L 38.28125 72.90625 
L 38.28125 8.296875 
L 54.390625 8.296875 
L 54.390625 0 
L 12.40625 0 
z
" id="DejaVuSans-49"/>
       </defs>
       <use xlink:href="#DejaVuSans-49"/>
       <use x="63.623047" xlink:href="#DejaVuSans-48"/>
       <use x="127.246094" xlink:href="#DejaVuSans-48"/>
       <use x="190.869141" xlink:href="#DejaVuSans-48"/>
      </g>
     </g>
    </g>
    <g id="ytick_2">
     <g id="line2d_21">
      <path clip-path="url(#pab3a83d686)" d="M 53.60625 288.430125 
L 555.80625 288.430125 
" style="fill:none;stroke:#b0b0b0;stroke-linecap:square;stroke-width:0.8;"/>
     </g>
     <g id="line2d_22">
      <g>
       <use style="stroke:#000000;stroke-width:0.8;" x="53.60625" xlink:href="#m4159852519" y="288.430125"/>
      </g>
     </g>
     <g id="text_12">
      <!-- 1200 -->
      <g transform="translate(21.15625 292.229344)scale(0.1 -0.1)">
       <use xlink:href="#DejaVuSans-49"/>
       <use x="63.623047" xlink:href="#DejaVuSans-50"/>
       <use x="127.246094" xlink:href="#DejaVuSans-48"/>
       <use x="190.869141" xlink:href="#DejaVuSans-48"/>
      </g>
     </g>
    </g>
    <g id="ytick_3">
     <g id="line2d_23">
      <path clip-path="url(#pab3a83d686)" d="M 53.60625 221.902125 
L 555.80625 221.902125 
" style="fill:none;stroke:#b0b0b0;stroke-linecap:square;stroke-width:0.8;"/>
     </g>
     <g id="line2d_24">
      <g>
       <use style="stroke:#000000;stroke-width:0.8;" x="53.60625" xlink:href="#m4159852519" y="221.902125"/>
      </g>
     </g>
     <g id="text_13">
      <!-- 1400 -->
      <g transform="translate(21.15625 225.701344)scale(0.1 -0.1)">
       <use xlink:href="#DejaVuSans-49"/>
       <use x="63.623047" xlink:href="#DejaVuSans-52"/>
       <use x="127.246094" xlink:href="#DejaVuSans-48"/>
       <use x="190.869141" xlink:href="#DejaVuSans-48"/>
      </g>
     </g>
    </g>
    <g id="ytick_4">
     <g id="line2d_25">
      <path clip-path="url(#pab3a83d686)" d="M 53.60625 155.374125 
L 555.80625 155.374125 
" style="fill:none;stroke:#b0b0b0;stroke-linecap:square;stroke-width:0.8;"/>
     </g>
     <g id="line2d_26">
      <g>
       <use style="stroke:#000000;stroke-width:0.8;" x="53.60625" xlink:href="#m4159852519" y="155.374125"/>
      </g>
     </g>
     <g id="text_14">
      <!-- 1600 -->
      <g transform="translate(21.15625 159.173344)scale(0.1 -0.1)">
       <use xlink:href="#DejaVuSans-49"/>
       <use x="63.623047" xlink:href="#DejaVuSans-54"/>
       <use x="127.246094" xlink:href="#DejaVuSans-48"/>
       <use x="190.869141" xlink:href="#DejaVuSans-48"/>
      </g>
     </g>
    </g>
    <g id="ytick_5">
     <g id="line2d_27">
      <path clip-path="url(#pab3a83d686)" d="M 53.60625 88.846125 
L 555.80625 88.846125 
" style="fill:none;stroke:#b0b0b0;stroke-linecap:square;stroke-width:0.8;"/>
     </g>
     <g id="line2d_28">
      <g>
       <use style="stroke:#000000;stroke-width:0.8;" x="53.60625" xlink:href="#m4159852519" y="88.846125"/>
      </g>
     </g>
     <g id="text_15">
      <!-- 1800 -->
      <g transform="translate(21.15625 92.645344)scale(0.1 -0.1)">
       <defs>
        <path d="M 31.78125 34.625 
Q 24.75 34.625 20.71875 30.859375 
Q 16.703125 27.09375 16.703125 20.515625 
Q 16.703125 13.921875 20.71875 10.15625 
Q 24.75 6.390625 31.78125 6.390625 
Q 38.8125 6.390625 42.859375 10.171875 
Q 46.921875 13.96875 46.921875 20.515625 
Q 46.921875 27.09375 42.890625 30.859375 
Q 38.875 34.625 31.78125 34.625 
z
M 21.921875 38.8125 
Q 15.578125 40.375 12.03125 44.71875 
Q 8.5 49.078125 8.5 55.328125 
Q 8.5 64.0625 14.71875 69.140625 
Q 20.953125 74.21875 31.78125 74.21875 
Q 42.671875 74.21875 48.875 69.140625 
Q 55.078125 64.0625 55.078125 55.328125 
Q 55.078125 49.078125 51.53125 44.71875 
Q 48 40.375 41.703125 38.8125 
Q 48.828125 37.15625 52.796875 32.3125 
Q 56.78125 27.484375 56.78125 20.515625 
Q 56.78125 9.90625 50.3125 4.234375 
Q 43.84375 -1.421875 31.78125 -1.421875 
Q 19.734375 -1.421875 13.25 4.234375 
Q 6.78125 9.90625 6.78125 20.515625 
Q 6.78125 27.484375 10.78125 32.3125 
Q 14.796875 37.15625 21.921875 38.8125 
z
M 18.3125 54.390625 
Q 18.3125 48.734375 21.84375 45.5625 
Q 25.390625 42.390625 31.78125 42.390625 
Q 38.140625 42.390625 41.71875 45.5625 
Q 45.3125 48.734375 45.3125 54.390625 
Q 45.3125 60.0625 41.71875 63.234375 
Q 38.140625 66.40625 31.78125 66.40625 
Q 25.390625 66.40625 21.84375 63.234375 
Q 18.3125 60.0625 18.3125 54.390625 
z
" id="DejaVuSans-56"/>
       </defs>
       <use xlink:href="#DejaVuSans-49"/>
       <use x="63.623047" xlink:href="#DejaVuSans-56"/>
       <use x="127.246094" xlink:href="#DejaVuSans-48"/>
       <use x="190.869141" xlink:href="#DejaVuSans-48"/>
      </g>
     </g>
    </g>
    <g id="ytick_6">
     <g id="line2d_29">
      <path clip-path="url(#pab3a83d686)" d="M 53.60625 22.318125 
L 555.80625 22.318125 
" style="fill:none;stroke:#b0b0b0;stroke-linecap:square;stroke-width:0.8;"/>
     </g>
     <g id="line2d_30">
      <g>
       <use style="stroke:#000000;stroke-width:0.8;" x="53.60625" xlink:href="#m4159852519" y="22.318125"/>
      </g>
     </g>
     <g id="text_16">
      <!-- 2000 -->
      <g transform="translate(21.15625 26.117344)scale(0.1 -0.1)">
       <use xlink:href="#DejaVuSans-50"/>
       <use x="63.623047" xlink:href="#DejaVuSans-48"/>
       <use x="127.246094" xlink:href="#DejaVuSans-48"/>
       <use x="190.869141" xlink:href="#DejaVuSans-48"/>
      </g>
     </g>
    </g>
    <g id="text_17">
     <!-- Channel_out [ADC code] -->
     <g transform="translate(14.798437 249.754531)rotate(-90)scale(0.1 -0.1)">
      <defs>
       <path d="M 54.890625 33.015625 
L 54.890625 0 
L 45.90625 0 
L 45.90625 32.71875 
Q 45.90625 40.484375 42.875 44.328125 
Q 39.84375 48.1875 33.796875 48.1875 
Q 26.515625 48.1875 22.3125 43.546875 
Q 18.109375 38.921875 18.109375 30.90625 
L 18.109375 0 
L 9.078125 0 
L 9.078125 75.984375 
L 18.109375 75.984375 
L 18.109375 46.1875 
Q 21.34375 51.125 25.703125 53.5625 
Q 30.078125 56 35.796875 56 
Q 45.21875 56 50.046875 50.171875 
Q 54.890625 44.34375 54.890625 33.015625 
z
" id="DejaVuSans-104"/>
       <path d="M 54.890625 33.015625 
L 54.890625 0 
L 45.90625 0 
L 45.90625 32.71875 
Q 45.90625 40.484375 42.875 44.328125 
Q 39.84375 48.1875 33.796875 48.1875 
Q 26.515625 48.1875 22.3125 43.546875 
Q 18.109375 38.921875 18.109375 30.90625 
L 18.109375 0 
L 9.078125 0 
L 9.078125 54.6875 
L 18.109375 54.6875 
L 18.109375 46.1875 
Q 21.34375 51.125 25.703125 53.5625 
Q 30.078125 56 35.796875 56 
Q 45.21875 56 50.046875 50.171875 
Q 54.890625 44.34375 54.890625 33.015625 
z
" id="DejaVuSans-110"/>
       <path d="M 8.5 21.578125 
L 8.5 54.6875 
L 17.484375 54.6875 
L 17.484375 21.921875 
Q 17.484375 14.15625 20.5 10.265625 
Q 23.53125 6.390625 29.59375 6.390625 
Q 36.859375 6.390625 41.078125 11.03125 
Q 45.3125 15.671875 45.3125 23.6875 
L 45.3125 54.6875 
L 54.296875 54.6875 
L 54.296875 0 
L 45.3125 0 
L 45.3125 8.40625 
Q 42.046875 3.421875 37.71875 1 
Q 33.40625 -1.421875 27.6875 -1.421875 
Q 18.265625 -1.421875 13.375 4.4375 
Q 8.5 10.296875 8.5 21.578125 
z
M 31.109375 56 
z
" id="DejaVuSans-117"/>
       <path d="M 34.1875 63.1875 
L 20.796875 26.90625 
L 47.609375 26.90625 
z
M 28.609375 72.90625 
L 39.796875 72.90625 
L 67.578125 0 
L 57.328125 0 
L 50.6875 18.703125 
L 17.828125 18.703125 
L 11.1875 0 
L 0.78125 0 
z
" id="DejaVuSans-65"/>
       <path d="M 19.671875 64.796875 
L 19.671875 8.109375 
L 31.59375 8.109375 
Q 46.6875 8.109375 53.6875 14.9375 
Q 60.6875 21.78125 60.6875 36.53125 
Q 60.6875 51.171875 53.6875 57.984375 
Q 46.6875 64.796875 31.59375 64.796875 
z
M 9.8125 72.90625 
L 30.078125 72.90625 
Q 51.265625 72.90625 61.171875 64.09375 
Q 71.09375 55.28125 71.09375 36.53125 
Q 71.09375 17.671875 61.125 8.828125 
Q 51.171875 0 30.078125 0 
L 9.8125 0 
z
" id="DejaVuSans-68"/>
      </defs>
      <use xlink:href="#DejaVuSans-67"/>
      <use x="69.824219" xlink:href="#DejaVuSans-104"/>
      <use x="133.203125" xlink:href="#DejaVuSans-97"/>
      <use x="194.482422" xlink:href="#DejaVuSans-110"/>
      <use x="257.861328" xlink:href="#DejaVuSans-110"/>
      <use x="321.240234" xlink:href="#DejaVuSans-101"/>
      <use x="382.763672" xlink:href="#DejaVuSans-108"/>
      <use x="410.546875" xlink:href="#DejaVuSans-95"/>
      <use x="460.546875" xlink:href="#DejaVuSans-111"/>
      <use x="521.728516" xlink:href="#DejaVuSans-117"/>
      <use x="585.107422" xlink:href="#DejaVuSans-116"/>
      <use x="624.316406" xlink:href="#DejaVuSans-32"/>
      <use x="656.103516" xlink:href="#DejaVuSans-91"/>
      <use x="695.117188" xlink:href="#DejaVuSans-65"/>
      <use x="763.525391" xlink:href="#DejaVuSans-68"/>
      <use x="840.527344" xlink:href="#DejaVuSans-67"/>
      <use x="910.351562" xlink:href="#DejaVuSans-32"/>
      <use x="942.138672" xlink:href="#DejaVuSans-99"/>
      <use x="997.119141" xlink:href="#DejaVuSans-111"/>
      <use x="1058.300781" xlink:href="#DejaVuSans-100"/>
      <use x="1121.777344" xlink:href="#DejaVuSans-101"/>
      <use x="1183.300781" xlink:href="#DejaVuSans-93"/>
     </g>
    </g>
   </g>
   <g id="line2d_31">
    <defs>
     <path d="M 0 3 
C 0.795609 3 1.55874 2.683901 2.12132 2.12132 
C 2.683901 1.55874 3 0.795609 3 0 
C 3 -0.795609 2.683901 -1.55874 2.12132 -2.12132 
C 1.55874 -2.683901 0.795609 -3 0 -3 
C -0.795609 -3 -1.55874 -2.683901 -2.12132 -2.12132 
C -2.683901 -1.55874 -3 -0.795609 -3 0 
C -3 0.795609 -2.683901 1.55874 -2.12132 2.12132 
C -1.55874 2.683901 -0.795609 3 0 3 
z
" id="mab965fdd22" style="stroke:#1f77b4;"/>
    </defs>
    <g clip-path="url(#pab3a83d686)">
     <use style="fill:#1f77b4;stroke:#1f77b4;" x="65.563393" xlink:href="#mab965fdd22" y="277.469637"/>
     <use style="fill:#1f77b4;stroke:#1f77b4;" x="89.477679" xlink:href="#mab965fdd22" y="267.78316"/>
     <use style="fill:#1f77b4;stroke:#1f77b4;" x="113.391964" xlink:href="#mab965fdd22" y="258.356143"/>
     <use style="fill:#1f77b4;stroke:#1f77b4;" x="137.30625" xlink:href="#mab965fdd22" y="248.842639"/>
     <use style="fill:#1f77b4;stroke:#1f77b4;" x="161.220536" xlink:href="#mab965fdd22" y="240.579861"/>
     <use style="fill:#1f77b4;stroke:#1f77b4;" x="185.134821" xlink:href="#mab965fdd22" y="232.663029"/>
     <use style="fill:#1f77b4;stroke:#1f77b4;" x="209.049107" xlink:href="#mab965fdd22" y="224.376967"/>
     <use style="fill:#1f77b4;stroke:#1f77b4;" x="232.963393" xlink:href="#mab965fdd22" y="216.037682"/>
     <use style="fill:#1f77b4;stroke:#1f77b4;" x="256.877679" xlink:href="#mab965fdd22" y="208.699643"/>
     <use style="fill:#1f77b4;stroke:#1f77b4;" x="280.791964" xlink:href="#mab965fdd22" y="201.354952"/>
     <use style="fill:#1f77b4;stroke:#1f77b4;" x="304.70625" xlink:href="#mab965fdd22" y="194.116706"/>
     <use style="fill:#1f77b4;stroke:#1f77b4;" x="328.620536" xlink:href="#mab965fdd22" y="186.33293"/>
     <use style="fill:#1f77b4;stroke:#1f77b4;" x="352.534821" xlink:href="#mab965fdd22" y="179.061419"/>
     <use style="fill:#1f77b4;stroke:#1f77b4;" x="376.449107" xlink:href="#mab965fdd22" y="171.154567"/>
     <use style="fill:#1f77b4;stroke:#1f77b4;" x="400.363393" xlink:href="#mab965fdd22" y="164.731288"/>
     <use style="fill:#1f77b4;stroke:#1f77b4;" x="424.277679" xlink:href="#mab965fdd22" y="157.320069"/>
     <use style="fill:#1f77b4;stroke:#1f77b4;" x="448.191964" xlink:href="#mab965fdd22" y="151.196167"/>
     <use style="fill:#1f77b4;stroke:#1f77b4;" x="472.10625" xlink:href="#mab965fdd22" y="144.174136"/>
     <use style="fill:#1f77b4;stroke:#1f77b4;" x="496.020536" xlink:href="#mab965fdd22" y="137.025703"/>
     <use style="fill:#1f77b4;stroke:#1f77b4;" x="519.934821" xlink:href="#mab965fdd22" y="129.920512"/>
     <use style="fill:#1f77b4;stroke:#1f77b4;" x="543.849107" xlink:href="#mab965fdd22" y="123.157941"/>
    </g>
   </g>
   <g id="line2d_32">
    <path clip-path="url(#pab3a83d686)" d="M 65.563393 271.866496 
L 89.477679 264.272014 
L 113.391964 256.677532 
L 137.30625 249.083049 
L 161.220536 241.488567 
L 185.134821 233.894085 
L 209.049107 226.299603 
L 232.963393 218.705121 
L 256.877679 211.110638 
L 280.791964 203.516156 
L 304.70625 195.921674 
L 328.620536 188.327192 
L 352.534821 180.732709 
L 376.449107 173.138227 
L 400.363393 165.543745 
L 424.277679 157.949263 
L 448.191964 150.35478 
L 472.10625 142.760298 
L 496.020536 135.165816 
L 519.934821 127.571334 
L 543.849107 119.976851 
" style="fill:none;stroke:#1f77b4;stroke-dasharray:5.55,2.4;stroke-dashoffset:0;stroke-width:1.5;"/>
   </g>
   <g id="line2d_33">
    <path clip-path="url(#pab3a83d686)" style="fill:none;stroke:#1f77b4;stroke-dasharray:5.55,2.4;stroke-dashoffset:0;stroke-width:1.5;"/>
    <g clip-path="url(#pab3a83d686)"/>
   </g>
   <g id="line2d_34">
    <defs>
     <path d="M 0 3 
C 0.795609 3 1.55874 2.683901 2.12132 2.12132 
C 2.683901 1.55874 3 0.795609 3 0 
C 3 -0.795609 2.683901 -1.55874 2.12132 -2.12132 
C 1.55874 -2.683901 0.795609 -3 0 -3 
C -0.795609 -3 -1.55874 -2.683901 -2.12132 -2.12132 
C -2.683901 -1.55874 -3 -0.795609 -3 0 
C -3 0.795609 -2.683901 1.55874 -2.12132 2.12132 
C -1.55874 2.683901 -0.795609 3 0 3 
z
" id="md0ebb72688" style="stroke:#ff7f0e;"/>
    </defs>
    <g clip-path="url(#pab3a83d686)">
     <use style="fill:#ff7f0e;stroke:#ff7f0e;" x="65.563393" xlink:href="#md0ebb72688" y="292.827626"/>
     <use style="fill:#ff7f0e;stroke:#ff7f0e;" x="89.477679" xlink:href="#md0ebb72688" y="283.709963"/>
     <use style="fill:#ff7f0e;stroke:#ff7f0e;" x="113.391964" xlink:href="#md0ebb72688" y="275.021407"/>
     <use style="fill:#ff7f0e;stroke:#ff7f0e;" x="137.30625" xlink:href="#md0ebb72688" y="266.761955"/>
     <use style="fill:#ff7f0e;stroke:#ff7f0e;" x="161.220536" xlink:href="#md0ebb72688" y="257.880467"/>
     <use style="fill:#ff7f0e;stroke:#ff7f0e;" x="185.134821" xlink:href="#md0ebb72688" y="250.349498"/>
     <use style="fill:#ff7f0e;stroke:#ff7f0e;" x="209.049107" xlink:href="#md0ebb72688" y="242.076741"/>
     <use style="fill:#ff7f0e;stroke:#ff7f0e;" x="232.963393" xlink:href="#md0ebb72688" y="234.585688"/>
     <use style="fill:#ff7f0e;stroke:#ff7f0e;" x="256.877679" xlink:href="#md0ebb72688" y="227.394011"/>
     <use style="fill:#ff7f0e;stroke:#ff7f0e;" x="280.791964" xlink:href="#md0ebb72688" y="220.222293"/>
     <use style="fill:#ff7f0e;stroke:#ff7f0e;" x="304.70625" xlink:href="#md0ebb72688" y="212.801095"/>
     <use style="fill:#ff7f0e;stroke:#ff7f0e;" x="328.620536" xlink:href="#md0ebb72688" y="205.838939"/>
     <use style="fill:#ff7f0e;stroke:#ff7f0e;" x="352.534821" xlink:href="#md0ebb72688" y="198.647263"/>
     <use style="fill:#ff7f0e;stroke:#ff7f0e;" x="376.449107" xlink:href="#md0ebb72688" y="191.897997"/>
     <use style="fill:#ff7f0e;stroke:#ff7f0e;" x="400.363393" xlink:href="#md0ebb72688" y="185.408191"/>
     <use style="fill:#ff7f0e;stroke:#ff7f0e;" x="424.277679" xlink:href="#md0ebb72688" y="178.416098"/>
     <use style="fill:#ff7f0e;stroke:#ff7f0e;" x="448.191964" xlink:href="#md0ebb72688" y="171.490533"/>
     <use style="fill:#ff7f0e;stroke:#ff7f0e;" x="472.10625" xlink:href="#md0ebb72688" y="165.216943"/>
     <use style="fill:#ff7f0e;stroke:#ff7f0e;" x="496.020536" xlink:href="#md0ebb72688" y="158.271419"/>
     <use style="fill:#ff7f0e;stroke:#ff7f0e;" x="519.934821" xlink:href="#md0ebb72688" y="151.768307"/>
     <use style="fill:#ff7f0e;stroke:#ff7f0e;" x="543.849107" xlink:href="#md0ebb72688" y="145.890559"/>
    </g>
   </g>
   <g id="line2d_35">
    <path clip-path="url(#pab3a83d686)" d="M 65.563393 287.879181 
L 89.477679 280.598296 
L 113.391964 273.317411 
L 137.30625 266.036527 
L 161.220536 258.755642 
L 185.134821 251.474757 
L 209.049107 244.193872 
L 232.963393 236.912987 
L 256.877679 229.632103 
L 280.791964 222.351218 
L 304.70625 215.070333 
L 328.620536 207.789448 
L 352.534821 200.508563 
L 376.449107 193.227679 
L 400.363393 185.946794 
L 424.277679 178.665909 
L 448.191964 171.385024 
L 472.10625 164.104139 
L 496.020536 156.823255 
L 519.934821 149.54237 
L 543.849107 142.261485 
" style="fill:none;stroke:#ff7f0e;stroke-dasharray:5.55,2.4;stroke-dashoffset:0;stroke-width:1.5;"/>
   </g>
   <g id="line2d_36">
    <path clip-path="url(#pab3a83d686)" style="fill:none;stroke:#ff7f0e;stroke-dasharray:5.55,2.4;stroke-dashoffset:0;stroke-width:1.5;"/>
    <g clip-path="url(#pab3a83d686)"/>
   </g>
   <g id="line2d_37">
    <defs>
     <path d="M 0 3 
C 0.795609 3 1.55874 2.683901 2.12132 2.12132 
C 2.683901 1.55874 3 0.795609 3 0 
C 3 -0.795609 2.683901 -1.55874 2.12132 -2.12132 
C 1.55874 -2.683901 0.795609 -3 0 -3 
C -0.795609 -3 -1.55874 -2.683901 -2.12132 -2.12132 
C -2.683901 -1.55874 -3 -0.795609 -3 0 
C -3 0.795609 -2.683901 1.55874 -2.12132 2.12132 
C -1.55874 2.683901 -0.795609 3 0 3 
z
" id="m64ba54a405" style="stroke:#2ca02c;"/>
    </defs>
    <g clip-path="url(#pab3a83d686)">
     <use style="fill:#2ca02c;stroke:#2ca02c;" x="65.563393" xlink:href="#m64ba54a405" y="299.663378"/>
     <use style="fill:#2ca02c;stroke:#2ca02c;" x="89.477679" xlink:href="#m64ba54a405" y="290.455903"/>
     <use style="fill:#2ca02c;stroke:#2ca02c;" x="113.391964" xlink:href="#m64ba54a405" y="282.578987"/>
     <use style="fill:#2ca02c;stroke:#2ca02c;" x="137.30625" xlink:href="#m64ba54a405" y="273.903736"/>
     <use style="fill:#2ca02c;stroke:#2ca02c;" x="161.220536" xlink:href="#m64ba54a405" y="266.016842"/>
     <use style="fill:#2ca02c;stroke:#2ca02c;" x="185.134821" xlink:href="#m64ba54a405" y="257.827245"/>
     <use style="fill:#2ca02c;stroke:#2ca02c;" x="209.049107" xlink:href="#m64ba54a405" y="250.419352"/>
     <use style="fill:#2ca02c;stroke:#2ca02c;" x="232.963393" xlink:href="#m64ba54a405" y="242.921647"/>
     <use style="fill:#2ca02c;stroke:#2ca02c;" x="256.877679" xlink:href="#m64ba54a405" y="235.863026"/>
     <use style="fill:#2ca02c;stroke:#2ca02c;" x="280.791964" xlink:href="#m64ba54a405" y="228.574883"/>
     <use style="fill:#2ca02c;stroke:#2ca02c;" x="304.70625" xlink:href="#m64ba54a405" y="221.386533"/>
     <use style="fill:#2ca02c;stroke:#2ca02c;" x="328.620536" xlink:href="#m64ba54a405" y="214.8934"/>
     <use style="fill:#2ca02c;stroke:#2ca02c;" x="352.534821" xlink:href="#m64ba54a405" y="207.90796"/>
     <use style="fill:#2ca02c;stroke:#2ca02c;" x="376.449107" xlink:href="#m64ba54a405" y="200.752874"/>
     <use style="fill:#2ca02c;stroke:#2ca02c;" x="400.363393" xlink:href="#m64ba54a405" y="194.23313"/>
     <use style="fill:#2ca02c;stroke:#2ca02c;" x="424.277679" xlink:href="#m64ba54a405" y="187.756629"/>
     <use style="fill:#2ca02c;stroke:#2ca02c;" x="448.191964" xlink:href="#m64ba54a405" y="180.914224"/>
     <use style="fill:#2ca02c;stroke:#2ca02c;" x="472.10625" xlink:href="#m64ba54a405" y="174.204875"/>
     <use style="fill:#2ca02c;stroke:#2ca02c;" x="496.020536" xlink:href="#m64ba54a405" y="167.838146"/>
     <use style="fill:#2ca02c;stroke:#2ca02c;" x="519.934821" xlink:href="#m64ba54a405" y="161.947091"/>
     <use style="fill:#2ca02c;stroke:#2ca02c;" x="543.849107" xlink:href="#m64ba54a405" y="155.31425"/>
    </g>
   </g>
   <g id="line2d_38">
    <path clip-path="url(#pab3a83d686)" d="M 65.563393 294.987957 
L 89.477679 287.848086 
L 113.391964 280.708214 
L 137.30625 273.568343 
L 161.220536 266.428472 
L 185.134821 259.2886 
L 209.049107 252.148729 
L 232.963393 245.008857 
L 256.877679 237.868986 
L 280.791964 230.729115 
L 304.70625 223.589243 
L 328.620536 216.449372 
L 352.534821 209.309501 
L 376.449107 202.169629 
L 400.363393 195.029758 
L 424.277679 187.889887 
L 448.191964 180.750015 
L 472.10625 173.610144 
L 496.020536 166.470273 
L 519.934821 159.330401 
L 543.849107 152.19053 
" style="fill:none;stroke:#2ca02c;stroke-dasharray:5.55,2.4;stroke-dashoffset:0;stroke-width:1.5;"/>
   </g>
   <g id="line2d_39">
    <path clip-path="url(#pab3a83d686)" style="fill:none;stroke:#2ca02c;stroke-dasharray:5.55,2.4;stroke-dashoffset:0;stroke-width:1.5;"/>
    <g clip-path="url(#pab3a83d686)"/>
   </g>
   <g id="line2d_40">
    <defs>
     <path d="M 0 3 
C 0.795609 3 1.55874 2.683901 2.12132 2.12132 
C 2.683901 1.55874 3 0.795609 3 0 
C 3 -0.795609 2.683901 -1.55874 2.12132 -2.12132 
C 1.55874 -2.683901 0.795609 -3 0 -3 
C -0.795609 -3 -1.55874 -2.683901 -2.12132 -2.12132 
C -2.683901 -1.55874 -3 -0.795609 -3 0 
C -3 0.795609 -2.683901 1.55874 -2.12132 2.12132 
C -1.55874 2.683901 -0.795609 3 0 3 
z
" id="m58a553d69c" style="stroke:#d62728;"/>
    </defs>
    <g clip-path="url(#pab3a83d686)">
     <use style="fill:#d62728;stroke:#d62728;" x="65.563393" xlink:href="#m58a553d69c" y="303.981045"/>
     <use style="fill:#d62728;stroke:#d62728;" x="89.477679" xlink:href="#m58a553d69c" y="294.384381"/>
     <use style="fill:#d62728;stroke:#d62728;" x="113.391964" xlink:href="#m58a553d69c" y="286.011832"/>
     <use style="fill:#d62728;stroke:#d62728;" x="137.30625" xlink:href="#m58a553d69c" y="278.547391"/>
     <use style="fill:#d62728;stroke:#d62728;" x="161.220536" xlink:href="#m58a553d69c" y="270.301245"/>
     <use style="fill:#d62728;stroke:#d62728;" x="185.134821" xlink:href="#m58a553d69c" y="262.643872"/>
     <use style="fill:#d62728;stroke:#d62728;" x="209.049107" xlink:href="#m58a553d69c" y="255.445543"/>
     <use style="fill:#d62728;stroke:#d62728;" x="232.963393" xlink:href="#m58a553d69c" y="247.655114"/>
     <use style="fill:#d62728;stroke:#d62728;" x="256.877679" xlink:href="#m58a553d69c" y="240.576535"/>
     <use style="fill:#d62728;stroke:#d62728;" x="280.791964" xlink:href="#m58a553d69c" y="233.288392"/>
     <use style="fill:#d62728;stroke:#d62728;" x="304.70625" xlink:href="#m58a553d69c" y="226.28632"/>
     <use style="fill:#d62728;stroke:#d62728;" x="328.620536" xlink:href="#m58a553d69c" y="219.304207"/>
     <use style="fill:#d62728;stroke:#d62728;" x="352.534821" xlink:href="#m58a553d69c" y="212.368663"/>
     <use style="fill:#d62728;stroke:#d62728;" x="376.449107" xlink:href="#m58a553d69c" y="206.128336"/>
     <use style="fill:#d62728;stroke:#d62728;" x="400.363393" xlink:href="#m58a553d69c" y="199.182813"/>
     <use style="fill:#d62728;stroke:#d62728;" x="424.277679" xlink:href="#m58a553d69c" y="192.732923"/>
     <use style="fill:#d62728;stroke:#d62728;" x="448.191964" xlink:href="#m58a553d69c" y="186.91505"/>
     <use style="fill:#d62728;stroke:#d62728;" x="472.10625" xlink:href="#m58a553d69c" y="179.876387"/>
     <use style="fill:#d62728;stroke:#d62728;" x="496.020536" xlink:href="#m58a553d69c" y="173.499679"/>
     <use style="fill:#d62728;stroke:#d62728;" x="519.934821" xlink:href="#m58a553d69c" y="166.810288"/>
     <use style="fill:#d62728;stroke:#d62728;" x="543.849107" xlink:href="#m58a553d69c" y="160.656448"/>
    </g>
   </g>
   <g id="line2d_41">
    <path clip-path="url(#pab3a83d686)" d="M 65.563393 299.086111 
L 89.477679 292.018435 
L 113.391964 284.95076 
L 137.30625 277.883084 
L 161.220536 270.815409 
L 185.134821 263.747733 
L 209.049107 256.680057 
L 232.963393 249.612382 
L 256.877679 242.544706 
L 280.791964 235.477031 
L 304.70625 228.409355 
L 328.620536 221.34168 
L 352.534821 214.274004 
L 376.449107 207.206329 
L 400.363393 200.138653 
L 424.277679 193.070978 
L 448.191964 186.003302 
L 472.10625 178.935627 
L 496.020536 171.867951 
L 519.934821 164.800276 
L 543.849107 157.7326 
" style="fill:none;stroke:#d62728;stroke-dasharray:5.55,2.4;stroke-dashoffset:0;stroke-width:1.5;"/>
   </g>
   <g id="line2d_42">
    <path clip-path="url(#pab3a83d686)" style="fill:none;stroke:#d62728;stroke-dasharray:5.55,2.4;stroke-dashoffset:0;stroke-width:1.5;"/>
    <g clip-path="url(#pab3a83d686)"/>
   </g>
   <g id="line2d_43">
    <defs>
     <path d="M 0 3 
C 0.795609 3 1.55874 2.683901 2.12132 2.12132 
C 2.683901 1.55874 3 0.795609 3 0 
C 3 -0.795609 2.683901 -1.55874 2.12132 -2.12132 
C 1.55874 -2.683901 0.795609 -3 0 -3 
C -0.795609 -3 -1.55874 -2.683901 -2.12132 -2.12132 
C -2.683901 -1.55874 -3 -0.795609 -3 0 
C -3 0.795609 -2.683901 1.55874 -2.12132 2.12132 
C -1.55874 2.683901 -0.795609 3 0 3 
z
" id="m4c07780187" style="stroke:#9467bd;"/>
    </defs>
    <g clip-path="url(#pab3a83d686)">
     <use style="fill:#9467bd;stroke:#9467bd;" x="65.563393" xlink:href="#m4c07780187" y="306.236344"/>
     <use style="fill:#9467bd;stroke:#9467bd;" x="89.477679" xlink:href="#m4c07780187" y="297.381467"/>
     <use style="fill:#9467bd;stroke:#9467bd;" x="113.391964" xlink:href="#m4c07780187" y="289.358191"/>
     <use style="fill:#9467bd;stroke:#9467bd;" x="137.30625" xlink:href="#m4c07780187" y="281.371504"/>
     <use style="fill:#9467bd;stroke:#9467bd;" x="161.220536" xlink:href="#m4c07780187" y="273.088768"/>
     <use style="fill:#9467bd;stroke:#9467bd;" x="185.134821" xlink:href="#m4c07780187" y="265.700834"/>
     <use style="fill:#9467bd;stroke:#9467bd;" x="209.049107" xlink:href="#m4c07780187" y="257.747411"/>
     <use style="fill:#9467bd;stroke:#9467bd;" x="232.963393" xlink:href="#m4c07780187" y="250.499186"/>
     <use style="fill:#9467bd;stroke:#9467bd;" x="256.877679" xlink:href="#m4c07780187" y="243.646802"/>
     <use style="fill:#9467bd;stroke:#9467bd;" x="280.791964" xlink:href="#m4c07780187" y="236.568223"/>
     <use style="fill:#9467bd;stroke:#9467bd;" x="304.70625" xlink:href="#m4c07780187" y="229.473011"/>
     <use style="fill:#9467bd;stroke:#9467bd;" x="328.620536" xlink:href="#m4c07780187" y="222.613975"/>
     <use style="fill:#9467bd;stroke:#9467bd;" x="352.534821" xlink:href="#m4c07780187" y="215.625208"/>
     <use style="fill:#9467bd;stroke:#9467bd;" x="376.449107" xlink:href="#m4c07780187" y="209.065547"/>
     <use style="fill:#9467bd;stroke:#9467bd;" x="400.363393" xlink:href="#m4c07780187" y="202.449338"/>
     <use style="fill:#9467bd;stroke:#9467bd;" x="424.277679" xlink:href="#m4c07780187" y="196.1824"/>
     <use style="fill:#9467bd;stroke:#9467bd;" x="448.191964" xlink:href="#m4c07780187" y="189.715879"/>
     <use style="fill:#9467bd;stroke:#9467bd;" x="472.10625" xlink:href="#m4c07780187" y="182.727112"/>
     <use style="fill:#9467bd;stroke:#9467bd;" x="496.020536" xlink:href="#m4c07780187" y="176.569946"/>
     <use style="fill:#9467bd;stroke:#9467bd;" x="519.934821" xlink:href="#m4c07780187" y="169.970368"/>
     <use style="fill:#9467bd;stroke:#9467bd;" x="543.849107" xlink:href="#m4c07780187" y="163.959563"/>
    </g>
   </g>
   <g id="line2d_44">
    <path clip-path="url(#pab3a83d686)" d="M 65.563393 301.888639 
L 89.477679 294.842399 
L 113.391964 287.796159 
L 137.30625 280.74992 
L 161.220536 273.70368 
L 185.134821 266.65744 
L 209.049107 259.611201 
L 232.963393 252.564961 
L 256.877679 245.518721 
L 280.791964 238.472481 
L 304.70625 231.426242 
L 328.620536 224.380002 
L 352.534821 217.333762 
L 376.449107 210.287523 
L 400.363393 203.241283 
L 424.277679 196.195043 
L 448.191964 189.148804 
L 472.10625 182.102564 
L 496.020536 175.056324 
L 519.934821 168.010085 
L 543.849107 160.963845 
" style="fill:none;stroke:#9467bd;stroke-dasharray:5.55,2.4;stroke-dashoffset:0;stroke-width:1.5;"/>
   </g>
   <g id="line2d_45">
    <path clip-path="url(#pab3a83d686)" style="fill:none;stroke:#9467bd;stroke-dasharray:5.55,2.4;stroke-dashoffset:0;stroke-width:1.5;"/>
    <g clip-path="url(#pab3a83d686)"/>
   </g>
   <g id="line2d_46">
    <defs>
     <path d="M 0 3 
C 0.795609 3 1.55874 2.683901 2.12132 2.12132 
C 2.683901 1.55874 3 0.795609 3 0 
C 3 -0.795609 2.683901 -1.55874 2.12132 -2.12132 
C 1.55874 -2.683901 0.795609 -3 0 -3 
C -0.795609 -3 -1.55874 -2.683901 -2.12132 -2.12132 
C -2.683901 -1.55874 -3 -0.795609 -3 0 
C -3 0.795609 -2.683901 1.55874 -2.12132 2.12132 
C -1.55874 2.683901 -0.795609 3 0 3 
z
" id="medd5f73360" style="stroke:#8c564b;"/>
    </defs>
    <g clip-path="url(#pab3a83d686)">
     <use style="fill:#8c564b;stroke:#8c564b;" x="65.563393" xlink:href="#medd5f73360" y="308.677922"/>
     <use style="fill:#8c564b;stroke:#8c564b;" x="89.477679" xlink:href="#medd5f73360" y="299.071279"/>
     <use style="fill:#8c564b;stroke:#8c564b;" x="113.391964" xlink:href="#medd5f73360" y="291.061307"/>
     <use style="fill:#8c564b;stroke:#8c564b;" x="137.30625" xlink:href="#medd5f73360" y="283.081274"/>
     <use style="fill:#8c564b;stroke:#8c564b;" x="161.220536" xlink:href="#medd5f73360" y="275.244275"/>
     <use style="fill:#8c564b;stroke:#8c564b;" x="185.134821" xlink:href="#medd5f73360" y="267.703327"/>
     <use style="fill:#8c564b;stroke:#8c564b;" x="209.049107" xlink:href="#medd5f73360" y="260.119135"/>
     <use style="fill:#8c564b;stroke:#8c564b;" x="232.963393" xlink:href="#medd5f73360" y="252.907499"/>
     <use style="fill:#8c564b;stroke:#8c564b;" x="256.877679" xlink:href="#medd5f73360" y="245.642642"/>
     <use style="fill:#8c564b;stroke:#8c564b;" x="280.791964" xlink:href="#medd5f73360" y="238.530799"/>
     <use style="fill:#8c564b;stroke:#8c564b;" x="304.70625" xlink:href="#medd5f73360" y="232.104194"/>
     <use style="fill:#8c564b;stroke:#8c564b;" x="328.620536" xlink:href="#medd5f73360" y="224.889232"/>
     <use style="fill:#8c564b;stroke:#8c564b;" x="352.534821" xlink:href="#medd5f73360" y="218.050154"/>
     <use style="fill:#8c564b;stroke:#8c564b;" x="376.449107" xlink:href="#medd5f73360" y="211.167832"/>
     <use style="fill:#8c564b;stroke:#8c564b;" x="400.363393" xlink:href="#medd5f73360" y="204.727922"/>
     <use style="fill:#8c564b;stroke:#8c564b;" x="424.277679" xlink:href="#medd5f73360" y="199.049757"/>
     <use style="fill:#8c564b;stroke:#8c564b;" x="448.191964" xlink:href="#medd5f73360" y="192.090928"/>
     <use style="fill:#8c564b;stroke:#8c564b;" x="472.10625" xlink:href="#medd5f73360" y="185.893845"/>
     <use style="fill:#8c564b;stroke:#8c564b;" x="496.020536" xlink:href="#medd5f73360" y="179.340837"/>
     <use style="fill:#8c564b;stroke:#8c564b;" x="519.934821" xlink:href="#medd5f73360" y="172.734607"/>
     <use style="fill:#8c564b;stroke:#8c564b;" x="543.849107" xlink:href="#medd5f73360" y="166.687211"/>
    </g>
   </g>
   <g id="line2d_47">
    <path clip-path="url(#pab3a83d686)" d="M 65.563393 303.735799 
L 89.477679 296.737342 
L 113.391964 289.738886 
L 137.30625 282.74043 
L 161.220536 275.741974 
L 185.134821 268.743518 
L 209.049107 261.745062 
L 232.963393 254.746605 
L 256.877679 247.748149 
L 280.791964 240.749693 
L 304.70625 233.751237 
L 328.620536 226.752781 
L 352.534821 219.754325 
L 376.449107 212.755869 
L 400.363393 205.757412 
L 424.277679 198.758956 
L 448.191964 191.7605 
L 472.10625 184.762044 
L 496.020536 177.763588 
L 519.934821 170.765132 
L 543.849107 163.766675 
" style="fill:none;stroke:#8c564b;stroke-dasharray:5.55,2.4;stroke-dashoffset:0;stroke-width:1.5;"/>
   </g>
   <g id="line2d_48">
    <path clip-path="url(#pab3a83d686)" style="fill:none;stroke:#8c564b;stroke-dasharray:5.55,2.4;stroke-dashoffset:0;stroke-width:1.5;"/>
    <g clip-path="url(#pab3a83d686)"/>
   </g>
   <g id="line2d_49">
    <defs>
     <path d="M 0 3 
C 0.795609 3 1.55874 2.683901 2.12132 2.12132 
C 2.683901 1.55874 3 0.795609 3 0 
C 3 -0.795609 2.683901 -1.55874 2.12132 -2.12132 
C 1.55874 -2.683901 0.795609 -3 0 -3 
C -0.795609 -3 -1.55874 -2.683901 -2.12132 -2.12132 
C -2.683901 -1.55874 -3 -0.795609 -3 0 
C -3 0.795609 -2.683901 1.55874 -2.12132 2.12132 
C -1.55874 2.683901 -0.795609 3 0 3 
z
" id="m2607eed4e7" style="stroke:#e377c2;"/>
    </defs>
    <g clip-path="url(#pab3a83d686)">
     <use style="fill:#e377c2;stroke:#e377c2;" x="65.563393" xlink:href="#m2607eed4e7" y="309.712432"/>
     <use style="fill:#e377c2;stroke:#e377c2;" x="89.477679" xlink:href="#m2607eed4e7" y="300.964"/>
     <use style="fill:#e377c2;stroke:#e377c2;" x="113.391964" xlink:href="#m2607eed4e7" y="292.468375"/>
     <use style="fill:#e377c2;stroke:#e377c2;" x="137.30625" xlink:href="#m2607eed4e7" y="284.445098"/>
     <use style="fill:#e377c2;stroke:#e377c2;" x="161.220536" xlink:href="#m2607eed4e7" y="276.757787"/>
     <use style="fill:#e377c2;stroke:#e377c2;" x="185.134821" xlink:href="#m2607eed4e7" y="269.32661"/>
     <use style="fill:#e377c2;stroke:#e377c2;" x="209.049107" xlink:href="#m2607eed4e7" y="261.396472"/>
     <use style="fill:#e377c2;stroke:#e377c2;" x="232.963393" xlink:href="#m2607eed4e7" y="253.349911"/>
     <use style="fill:#e377c2;stroke:#e377c2;" x="256.877679" xlink:href="#m2607eed4e7" y="247.305842"/>
     <use style="fill:#e377c2;stroke:#e377c2;" x="280.791964" xlink:href="#m2607eed4e7" y="240.074248"/>
     <use style="fill:#e377c2;stroke:#e377c2;" x="304.70625" xlink:href="#m2607eed4e7" y="233.158663"/>
     <use style="fill:#e377c2;stroke:#e377c2;" x="328.620536" xlink:href="#m2607eed4e7" y="226.465946"/>
     <use style="fill:#e377c2;stroke:#e377c2;" x="352.534821" xlink:href="#m2607eed4e7" y="219.490485"/>
     <use style="fill:#e377c2;stroke:#e377c2;" x="376.449107" xlink:href="#m2607eed4e7" y="212.767831"/>
     <use style="fill:#e377c2;stroke:#e377c2;" x="400.363393" xlink:href="#m2607eed4e7" y="206.164927"/>
     <use style="fill:#e377c2;stroke:#e377c2;" x="424.277679" xlink:href="#m2607eed4e7" y="199.668467"/>
     <use style="fill:#e377c2;stroke:#e377c2;" x="448.191964" xlink:href="#m2607eed4e7" y="193.491343"/>
     <use style="fill:#e377c2;stroke:#e377c2;" x="472.10625" xlink:href="#m2607eed4e7" y="187.091349"/>
     <use style="fill:#e377c2;stroke:#e377c2;" x="496.020536" xlink:href="#m2607eed4e7" y="180.7978"/>
     <use style="fill:#e377c2;stroke:#e377c2;" x="519.934821" xlink:href="#m2607eed4e7" y="174.933357"/>
     <use style="fill:#e377c2;stroke:#e377c2;" x="543.849107" xlink:href="#m2607eed4e7" y="168.200723"/>
    </g>
   </g>
   <g id="line2d_50">
    <path clip-path="url(#pab3a83d686)" d="M 65.563393 305.066891 
L 89.477679 298.074639 
L 113.391964 291.082386 
L 137.30625 284.090133 
L 161.220536 277.097881 
L 185.134821 270.105628 
L 209.049107 263.113376 
L 232.963393 256.121123 
L 256.877679 249.12887 
L 280.791964 242.136618 
L 304.70625 235.144365 
L 328.620536 228.152112 
L 352.534821 221.15986 
L 376.449107 214.167607 
L 400.363393 207.175354 
L 424.277679 200.183102 
L 448.191964 193.190849 
L 472.10625 186.198597 
L 496.020536 179.206344 
L 519.934821 172.214091 
L 543.849107 165.221839 
" style="fill:none;stroke:#e377c2;stroke-dasharray:5.55,2.4;stroke-dashoffset:0;stroke-width:1.5;"/>
   </g>
   <g id="line2d_51">
    <path clip-path="url(#pab3a83d686)" style="fill:none;stroke:#e377c2;stroke-dasharray:5.55,2.4;stroke-dashoffset:0;stroke-width:1.5;"/>
    <g clip-path="url(#pab3a83d686)"/>
   </g>
   <g id="line2d_52">
    <defs>
     <path d="M 0 3 
C 0.795609 3 1.55874 2.683901 2.12132 2.12132 
C 2.683901 1.55874 3 0.795609 3 0 
C 3 -0.795609 2.683901 -1.55874 2.12132 -2.12132 
C 1.55874 -2.683901 0.795609 -3 0 -3 
C -0.795609 -3 -1.55874 -2.683901 -2.12132 -2.12132 
C -2.683901 -1.55874 -3 -0.795609 -3 0 
C -3 0.795609 -2.683901 1.55874 -2.12132 2.12132 
C -1.55874 2.683901 -0.795609 3 0 3 
z
" id="m02a0cff038" style="stroke:#7f7f7f;"/>
    </defs>
    <g clip-path="url(#pab3a83d686)">
     <use style="fill:#7f7f7f;stroke:#7f7f7f;" x="65.563393" xlink:href="#m02a0cff038" y="310.27792"/>
     <use style="fill:#7f7f7f;stroke:#7f7f7f;" x="89.477679" xlink:href="#m02a0cff038" y="301.512856"/>
     <use style="fill:#7f7f7f;stroke:#7f7f7f;" x="113.391964" xlink:href="#m02a0cff038" y="293.256731"/>
     <use style="fill:#7f7f7f;stroke:#7f7f7f;" x="137.30625" xlink:href="#m02a0cff038" y="285.176906"/>
     <use style="fill:#7f7f7f;stroke:#7f7f7f;" x="161.220536" xlink:href="#m02a0cff038" y="277.539491"/>
     <use style="fill:#7f7f7f;stroke:#7f7f7f;" x="185.134821" xlink:href="#m02a0cff038" y="269.975258"/>
     <use style="fill:#7f7f7f;stroke:#7f7f7f;" x="209.049107" xlink:href="#m02a0cff038" y="262.261336"/>
     <use style="fill:#7f7f7f;stroke:#7f7f7f;" x="232.963393" xlink:href="#m02a0cff038" y="254.69045"/>
     <use style="fill:#7f7f7f;stroke:#7f7f7f;" x="256.877679" xlink:href="#m02a0cff038" y="247.711663"/>
     <use style="fill:#7f7f7f;stroke:#7f7f7f;" x="280.791964" xlink:href="#m02a0cff038" y="240.759487"/>
     <use style="fill:#7f7f7f;stroke:#7f7f7f;" x="304.70625" xlink:href="#m02a0cff038" y="233.98361"/>
     <use style="fill:#7f7f7f;stroke:#7f7f7f;" x="328.620536" xlink:href="#m02a0cff038" y="227.11792"/>
     <use style="fill:#7f7f7f;stroke:#7f7f7f;" x="352.534821" xlink:href="#m02a0cff038" y="220.475099"/>
     <use style="fill:#7f7f7f;stroke:#7f7f7f;" x="376.449107" xlink:href="#m02a0cff038" y="213.622715"/>
     <use style="fill:#7f7f7f;stroke:#7f7f7f;" x="400.363393" xlink:href="#m02a0cff038" y="206.816901"/>
     <use style="fill:#7f7f7f;stroke:#7f7f7f;" x="424.277679" xlink:href="#m02a0cff038" y="200.683019"/>
     <use style="fill:#7f7f7f;stroke:#7f7f7f;" x="448.191964" xlink:href="#m02a0cff038" y="194.439367"/>
     <use style="fill:#7f7f7f;stroke:#7f7f7f;" x="472.10625" xlink:href="#m02a0cff038" y="187.726691"/>
     <use style="fill:#7f7f7f;stroke:#7f7f7f;" x="496.020536" xlink:href="#m02a0cff038" y="181.875554"/>
     <use style="fill:#7f7f7f;stroke:#7f7f7f;" x="519.934821" xlink:href="#m02a0cff038" y="175.375768"/>
     <use style="fill:#7f7f7f;stroke:#7f7f7f;" x="543.849107" xlink:href="#m02a0cff038" y="169.231907"/>
    </g>
   </g>
   <g id="line2d_53">
    <path clip-path="url(#pab3a83d686)" d="M 65.563393 305.760928 
L 89.477679 298.777743 
L 113.391964 291.794558 
L 137.30625 284.811373 
L 161.220536 277.828188 
L 185.134821 270.845003 
L 209.049107 263.861818 
L 232.963393 256.878633 
L 256.877679 249.895449 
L 280.791964 242.912264 
L 304.70625 235.929079 
L 328.620536 228.945894 
L 352.534821 221.962709 
L 376.449107 214.979524 
L 400.363393 207.996339 
L 424.277679 201.013154 
L 448.191964 194.029969 
L 472.10625 187.046784 
L 496.020536 180.063599 
L 519.934821 173.080414 
L 543.849107 166.097229 
" style="fill:none;stroke:#7f7f7f;stroke-dasharray:5.55,2.4;stroke-dashoffset:0;stroke-width:1.5;"/>
   </g>
   <g id="line2d_54">
    <path clip-path="url(#pab3a83d686)" style="fill:none;stroke:#7f7f7f;stroke-dasharray:5.55,2.4;stroke-dashoffset:0;stroke-width:1.5;"/>
    <g clip-path="url(#pab3a83d686)"/>
   </g>
   <g id="patch_3">
    <path d="M 53.60625 354.958125 
L 53.60625 22.318125 
" style="fill:none;stroke:#000000;stroke-linecap:square;stroke-linejoin:miter;stroke-width:0.8;"/>
   </g>
   <g id="patch_4">
    <path d="M 555.80625 354.958125 
L 555.80625 22.318125 
" style="fill:none;stroke:#000000;stroke-linecap:square;stroke-linejoin:miter;stroke-width:0.8;"/>
   </g>
   <g id="patch_5">
    <path d="M 53.60625 354.958125 
L 555.80625 354.958125 
" style="fill:none;stroke:#000000;stroke-linecap:square;stroke-linejoin:miter;stroke-width:0.8;"/>
   </g>
   <g id="patch_6">
    <path d="M 53.60625 22.318125 
L 555.80625 22.318125 
" style="fill:none;stroke:#000000;stroke-linecap:square;stroke-linejoin:miter;stroke-width:0.8;"/>
   </g>
   <g id="text_18">
    <!-- High energy gain for channel #23 -->
    <g transform="translate(202.862813 16.318125)scale(0.12 -0.12)">
     <defs>
      <path d="M 9.8125 72.90625 
L 19.671875 72.90625 
L 19.671875 43.015625 
L 55.515625 43.015625 
L 55.515625 72.90625 
L 65.375 72.90625 
L 65.375 0 
L 55.515625 0 
L 55.515625 34.71875 
L 19.671875 34.71875 
L 19.671875 0 
L 9.8125 0 
z
" id="DejaVuSans-72"/>
      <path d="M 9.421875 54.6875 
L 18.40625 54.6875 
L 18.40625 0 
L 9.421875 0 
z
M 9.421875 75.984375 
L 18.40625 75.984375 
L 18.40625 64.59375 
L 9.421875 64.59375 
z
" id="DejaVuSans-105"/>
      <path d="M 41.109375 46.296875 
Q 39.59375 47.171875 37.8125 47.578125 
Q 36.03125 48 33.890625 48 
Q 26.265625 48 22.1875 43.046875 
Q 18.109375 38.09375 18.109375 28.8125 
L 18.109375 0 
L 9.078125 0 
L 9.078125 54.6875 
L 18.109375 54.6875 
L 18.109375 46.1875 
Q 20.953125 51.171875 25.484375 53.578125 
Q 30.03125 56 36.53125 56 
Q 37.453125 56 38.578125 55.875 
Q 39.703125 55.765625 41.0625 55.515625 
z
" id="DejaVuSans-114"/>
      <path d="M 32.171875 -5.078125 
Q 28.375 -14.84375 24.75 -17.8125 
Q 21.140625 -20.796875 15.09375 -20.796875 
L 7.90625 -20.796875 
L 7.90625 -13.28125 
L 13.1875 -13.28125 
Q 16.890625 -13.28125 18.9375 -11.515625 
Q 21 -9.765625 23.484375 -3.21875 
L 25.09375 0.875 
L 2.984375 54.6875 
L 12.5 54.6875 
L 29.59375 11.921875 
L 46.6875 54.6875 
L 56.203125 54.6875 
z
" id="DejaVuSans-121"/>
      <path d="M 37.109375 75.984375 
L 37.109375 68.5 
L 28.515625 68.5 
Q 23.6875 68.5 21.796875 66.546875 
Q 19.921875 64.59375 19.921875 59.515625 
L 19.921875 54.6875 
L 34.71875 54.6875 
L 34.71875 47.703125 
L 19.921875 47.703125 
L 19.921875 0 
L 10.890625 0 
L 10.890625 47.703125 
L 2.296875 47.703125 
L 2.296875 54.6875 
L 10.890625 54.6875 
L 10.890625 58.5 
Q 10.890625 67.625 15.140625 71.796875 
Q 19.390625 75.984375 28.609375 75.984375 
z
" id="DejaVuSans-102"/>
      <path d="M 51.125 44 
L 36.921875 44 
L 32.8125 27.6875 
L 47.125 27.6875 
z
M 43.796875 71.78125 
L 38.71875 51.515625 
L 52.984375 51.515625 
L 58.109375 71.78125 
L 65.921875 71.78125 
L 60.890625 51.515625 
L 76.125 51.515625 
L 76.125 44 
L 58.984375 44 
L 54.984375 27.6875 
L 70.515625 27.6875 
L 70.515625 20.21875 
L 53.078125 20.21875 
L 48 0 
L 40.1875 0 
L 45.21875 20.21875 
L 30.90625 20.21875 
L 25.875 0 
L 18.015625 0 
L 23.09375 20.21875 
L 7.71875 20.21875 
L 7.71875 27.6875 
L 24.90625 27.6875 
L 29 44 
L 13.28125 44 
L 13.28125 51.515625 
L 30.90625 51.515625 
L 35.890625 71.78125 
z
" id="DejaVuSans-35"/>
     </defs>
     <use xlink:href="#DejaVuSans-72"/>
     <use x="75.195312" xlink:href="#DejaVuSans-105"/>
     <use x="102.978516" xlink:href="#DejaVuSans-103"/>
     <use x="166.455078" xlink:href="#DejaVuSans-104"/>
     <use x="229.833984" xlink:href="#DejaVuSans-32"/>
     <use x="261.621094" xlink:href="#DejaVuSans-101"/>
     <use x="323.144531" xlink:href="#DejaVuSans-110"/>
     <use x="386.523438" xlink:href="#DejaVuSans-101"/>
     <use x="448.046875" xlink:href="#DejaVuSans-114"/>
     <use x="487.410156" xlink:href="#DejaVuSans-103"/>
     <use x="550.886719" xlink:href="#DejaVuSans-121"/>
     <use x="610.066406" xlink:href="#DejaVuSans-32"/>
     <use x="641.853516" xlink:href="#DejaVuSans-103"/>
     <use x="705.330078" xlink:href="#DejaVuSans-97"/>
     <use x="766.609375" xlink:href="#DejaVuSans-105"/>
     <use x="794.392578" xlink:href="#DejaVuSans-110"/>
     <use x="857.771484" xlink:href="#DejaVuSans-32"/>
     <use x="889.558594" xlink:href="#DejaVuSans-102"/>
     <use x="924.763672" xlink:href="#DejaVuSans-111"/>
     <use x="985.945312" xlink:href="#DejaVuSans-114"/>
     <use x="1027.058594" xlink:href="#DejaVuSans-32"/>
     <use x="1058.845703" xlink:href="#DejaVuSans-99"/>
     <use x="1113.826172" xlink:href="#DejaVuSans-104"/>
     <use x="1177.205078" xlink:href="#DejaVuSans-97"/>
     <use x="1238.484375" xlink:href="#DejaVuSans-110"/>
     <use x="1301.863281" xlink:href="#DejaVuSans-110"/>
     <use x="1365.242188" xlink:href="#DejaVuSans-101"/>
     <use x="1426.765625" xlink:href="#DejaVuSans-108"/>
     <use x="1454.548828" xlink:href="#DejaVuSans-32"/>
     <use x="1486.335938" xlink:href="#DejaVuSans-35"/>
     <use x="1570.125" xlink:href="#DejaVuSans-50"/>
     <use x="1633.748047" xlink:href="#DejaVuSans-51"/>
    </g>
   </g>
   <g id="legend_1">
    <g id="patch_7">
     <path d="M 568.01225 248.850625 
L 669.31225 248.850625 
Q 671.31225 248.850625 671.31225 246.850625 
L 671.31225 130.425625 
Q 671.31225 128.425625 669.31225 128.425625 
L 568.01225 128.425625 
Q 566.01225 128.425625 566.01225 130.425625 
L 566.01225 246.850625 
Q 566.01225 248.850625 568.01225 248.850625 
z
" style="fill:#ffffff;opacity:0.8;stroke:#cccccc;stroke-linejoin:miter;"/>
    </g>
    <g id="line2d_55">
     <path d="M 570.01225 136.524063 
L 590.01225 136.524063 
" style="fill:none;stroke:#1f77b4;stroke-dasharray:5.55,2.4;stroke-dashoffset:0;stroke-width:1.5;"/>
    </g>
    <g id="line2d_56">
     <g>
      <use style="fill:#1f77b4;stroke:#1f77b4;" x="580.01225" xlink:href="#mab965fdd22" y="136.524063"/>
     </g>
    </g>
    <g id="text_19">
     <!-- $\tau_0, G_0 = 0.011$ -->
     <g transform="translate(598.01225 140.024063)scale(0.1 -0.1)">
      <defs>
       <path d="M 32.859375 9.96875 
Q 34.1875 7.625 39.453125 7.625 
L 43.75 7.625 
L 42.28125 0 
L 36.921875 0 
Q 28.125 0 25 4.6875 
Q 21.921875 9.46875 23.96875 19.828125 
L 29 45.703125 
L 8.453125 45.703125 
L 10.203125 54.6875 
L 60.640625 54.6875 
L 58.890625 45.703125 
L 38.1875 45.703125 
L 33.015625 19.28125 
Q 31.640625 12.203125 32.859375 9.96875 
z
" id="DejaVuSans-Oblique-964"/>
       <path d="M 11.71875 12.40625 
L 22.015625 12.40625 
L 22.015625 4 
L 14.015625 -11.625 
L 7.71875 -11.625 
L 11.71875 4 
z
" id="DejaVuSans-44"/>
       <path d="M 54.59375 10.890625 
L 58.40625 29.984375 
L 42.1875 29.984375 
L 43.703125 38.09375 
L 69.578125 38.09375 
L 63.28125 6 
Q 56.78125 2.4375 49.109375 0.5 
Q 41.453125 -1.421875 33.6875 -1.421875 
Q 19.96875 -1.421875 12.234375 6.1875 
Q 4.5 13.8125 4.5 27.390625 
Q 4.5 38.671875 9.203125 48.84375 
Q 13.921875 59.03125 22.21875 65.828125 
Q 27.4375 70.0625 33.640625 72.140625 
Q 39.84375 74.21875 47.40625 74.21875 
Q 54.25 74.21875 60.515625 72.484375 
Q 66.796875 70.75 72.515625 67.28125 
L 70.515625 56.78125 
Q 66.109375 61.375 60.203125 63.796875 
Q 54.296875 66.21875 47.609375 66.21875 
Q 39.84375 66.21875 33.9375 63.25 
Q 28.03125 60.296875 23.390625 54.109375 
Q 19.4375 48.828125 17.15625 41.671875 
Q 14.890625 34.515625 14.890625 27.09375 
Q 14.890625 16.890625 20.109375 11.734375 
Q 25.34375 6.59375 35.6875 6.59375 
Q 40.875 6.59375 45.703125 7.6875 
Q 50.53125 8.796875 54.59375 10.890625 
z
" id="DejaVuSans-Oblique-71"/>
       <path d="M 10.59375 45.40625 
L 73.1875 45.40625 
L 73.1875 37.203125 
L 10.59375 37.203125 
z
M 10.59375 25.484375 
L 73.1875 25.484375 
L 73.1875 17.1875 
L 10.59375 17.1875 
z
" id="DejaVuSans-61"/>
       <path d="M 10.6875 12.40625 
L 21 12.40625 
L 21 0 
L 10.6875 0 
z
" id="DejaVuSans-46"/>
      </defs>
      <use transform="translate(0 0.78125)" xlink:href="#DejaVuSans-Oblique-964"/>
      <use transform="translate(60.205078 -15.625)scale(0.7)" xlink:href="#DejaVuSans-48"/>
      <use transform="translate(107.475586 0.78125)" xlink:href="#DejaVuSans-44"/>
      <use transform="translate(158.745117 0.78125)" xlink:href="#DejaVuSans-Oblique-71"/>
      <use transform="translate(236.235352 -15.625)scale(0.7)" xlink:href="#DejaVuSans-48"/>
      <use transform="translate(302.988281 0.78125)" xlink:href="#DejaVuSans-61"/>
      <use transform="translate(406.259766 0.78125)" xlink:href="#DejaVuSans-48"/>
      <use transform="translate(469.882812 0.78125)" xlink:href="#DejaVuSans-46"/>
      <use transform="translate(501.669922 0.78125)" xlink:href="#DejaVuSans-48"/>
      <use transform="translate(565.292969 0.78125)" xlink:href="#DejaVuSans-49"/>
      <use transform="translate(628.916016 0.78125)" xlink:href="#DejaVuSans-49"/>
     </g>
    </g>
    <g id="line2d_57">
     <path d="M 570.01225 151.202188 
L 590.01225 151.202188 
" style="fill:none;stroke:#ff7f0e;stroke-dasharray:5.55,2.4;stroke-dashoffset:0;stroke-width:1.5;"/>
    </g>
    <g id="line2d_58">
     <g>
      <use style="fill:#ff7f0e;stroke:#ff7f0e;" x="580.01225" xlink:href="#md0ebb72688" y="151.202188"/>
     </g>
    </g>
    <g id="text_20">
     <!-- $\tau_1, G_0 = 0.011$ -->
     <g transform="translate(598.01225 154.702188)scale(0.1 -0.1)">
      <use transform="translate(0 0.78125)" xlink:href="#DejaVuSans-Oblique-964"/>
      <use transform="translate(60.205078 -15.625)scale(0.7)" xlink:href="#DejaVuSans-49"/>
      <use transform="translate(107.475586 0.78125)" xlink:href="#DejaVuSans-44"/>
      <use transform="translate(158.745117 0.78125)" xlink:href="#DejaVuSans-Oblique-71"/>
      <use transform="translate(236.235352 -15.625)scale(0.7)" xlink:href="#DejaVuSans-48"/>
      <use transform="translate(302.988281 0.78125)" xlink:href="#DejaVuSans-61"/>
      <use transform="translate(406.259766 0.78125)" xlink:href="#DejaVuSans-48"/>
      <use transform="translate(469.882812 0.78125)" xlink:href="#DejaVuSans-46"/>
      <use transform="translate(501.669922 0.78125)" xlink:href="#DejaVuSans-48"/>
      <use transform="translate(565.292969 0.78125)" xlink:href="#DejaVuSans-49"/>
      <use transform="translate(628.916016 0.78125)" xlink:href="#DejaVuSans-49"/>
     </g>
    </g>
    <g id="line2d_59">
     <path d="M 570.01225 165.880313 
L 590.01225 165.880313 
" style="fill:none;stroke:#2ca02c;stroke-dasharray:5.55,2.4;stroke-dashoffset:0;stroke-width:1.5;"/>
    </g>
    <g id="line2d_60">
     <g>
      <use style="fill:#2ca02c;stroke:#2ca02c;" x="580.01225" xlink:href="#m64ba54a405" y="165.880313"/>
     </g>
    </g>
    <g id="text_21">
     <!-- $\tau_2, G_0 = 0.011$ -->
     <g transform="translate(598.01225 169.380313)scale(0.1 -0.1)">
      <use transform="translate(0 0.78125)" xlink:href="#DejaVuSans-Oblique-964"/>
      <use transform="translate(60.205078 -15.625)scale(0.7)" xlink:href="#DejaVuSans-50"/>
      <use transform="translate(107.475586 0.78125)" xlink:href="#DejaVuSans-44"/>
      <use transform="translate(158.745117 0.78125)" xlink:href="#DejaVuSans-Oblique-71"/>
      <use transform="translate(236.235352 -15.625)scale(0.7)" xlink:href="#DejaVuSans-48"/>
      <use transform="translate(302.988281 0.78125)" xlink:href="#DejaVuSans-61"/>
      <use transform="translate(406.259766 0.78125)" xlink:href="#DejaVuSans-48"/>
      <use transform="translate(469.882812 0.78125)" xlink:href="#DejaVuSans-46"/>
      <use transform="translate(501.669922 0.78125)" xlink:href="#DejaVuSans-48"/>
      <use transform="translate(565.292969 0.78125)" xlink:href="#DejaVuSans-49"/>
      <use transform="translate(628.916016 0.78125)" xlink:href="#DejaVuSans-49"/>
     </g>
    </g>
    <g id="line2d_61">
     <path d="M 570.01225 180.558438 
L 590.01225 180.558438 
" style="fill:none;stroke:#d62728;stroke-dasharray:5.55,2.4;stroke-dashoffset:0;stroke-width:1.5;"/>
    </g>
    <g id="line2d_62">
     <g>
      <use style="fill:#d62728;stroke:#d62728;" x="580.01225" xlink:href="#m58a553d69c" y="180.558438"/>
     </g>
    </g>
    <g id="text_22">
     <!-- $\tau_3, G_0 = 0.011$ -->
     <g transform="translate(598.01225 184.058438)scale(0.1 -0.1)">
      <use transform="translate(0 0.78125)" xlink:href="#DejaVuSans-Oblique-964"/>
      <use transform="translate(60.205078 -15.625)scale(0.7)" xlink:href="#DejaVuSans-51"/>
      <use transform="translate(107.475586 0.78125)" xlink:href="#DejaVuSans-44"/>
      <use transform="translate(158.745117 0.78125)" xlink:href="#DejaVuSans-Oblique-71"/>
      <use transform="translate(236.235352 -15.625)scale(0.7)" xlink:href="#DejaVuSans-48"/>
      <use transform="translate(302.988281 0.78125)" xlink:href="#DejaVuSans-61"/>
      <use transform="translate(406.259766 0.78125)" xlink:href="#DejaVuSans-48"/>
      <use transform="translate(469.882812 0.78125)" xlink:href="#DejaVuSans-46"/>
      <use transform="translate(501.669922 0.78125)" xlink:href="#DejaVuSans-48"/>
      <use transform="translate(565.292969 0.78125)" xlink:href="#DejaVuSans-49"/>
      <use transform="translate(628.916016 0.78125)" xlink:href="#DejaVuSans-49"/>
     </g>
    </g>
    <g id="line2d_63">
     <path d="M 570.01225 195.236563 
L 590.01225 195.236563 
" style="fill:none;stroke:#9467bd;stroke-dasharray:5.55,2.4;stroke-dashoffset:0;stroke-width:1.5;"/>
    </g>
    <g id="line2d_64">
     <g>
      <use style="fill:#9467bd;stroke:#9467bd;" x="580.01225" xlink:href="#m4c07780187" y="195.236563"/>
     </g>
    </g>
    <g id="text_23">
     <!-- $\tau_4, G_0 = 0.011$ -->
     <g transform="translate(598.01225 198.736563)scale(0.1 -0.1)">
      <use transform="translate(0 0.78125)" xlink:href="#DejaVuSans-Oblique-964"/>
      <use transform="translate(60.205078 -15.625)scale(0.7)" xlink:href="#DejaVuSans-52"/>
      <use transform="translate(107.475586 0.78125)" xlink:href="#DejaVuSans-44"/>
      <use transform="translate(158.745117 0.78125)" xlink:href="#DejaVuSans-Oblique-71"/>
      <use transform="translate(236.235352 -15.625)scale(0.7)" xlink:href="#DejaVuSans-48"/>
      <use transform="translate(302.988281 0.78125)" xlink:href="#DejaVuSans-61"/>
      <use transform="translate(406.259766 0.78125)" xlink:href="#DejaVuSans-48"/>
      <use transform="translate(469.882812 0.78125)" xlink:href="#DejaVuSans-46"/>
      <use transform="translate(501.669922 0.78125)" xlink:href="#DejaVuSans-48"/>
      <use transform="translate(565.292969 0.78125)" xlink:href="#DejaVuSans-49"/>
      <use transform="translate(628.916016 0.78125)" xlink:href="#DejaVuSans-49"/>
     </g>
    </g>
    <g id="line2d_65">
     <path d="M 570.01225 209.914688 
L 590.01225 209.914688 
" style="fill:none;stroke:#8c564b;stroke-dasharray:5.55,2.4;stroke-dashoffset:0;stroke-width:1.5;"/>
    </g>
    <g id="line2d_66">
     <g>
      <use style="fill:#8c564b;stroke:#8c564b;" x="580.01225" xlink:href="#medd5f73360" y="209.914688"/>
     </g>
    </g>
    <g id="text_24">
     <!-- $\tau_5, G_0 = 0.011$ -->
     <g transform="translate(598.01225 213.414688)scale(0.1 -0.1)">
      <use transform="translate(0 0.78125)" xlink:href="#DejaVuSans-Oblique-964"/>
      <use transform="translate(60.205078 -15.625)scale(0.7)" xlink:href="#DejaVuSans-53"/>
      <use transform="translate(107.475586 0.78125)" xlink:href="#DejaVuSans-44"/>
      <use transform="translate(158.745117 0.78125)" xlink:href="#DejaVuSans-Oblique-71"/>
      <use transform="translate(236.235352 -15.625)scale(0.7)" xlink:href="#DejaVuSans-48"/>
      <use transform="translate(302.988281 0.78125)" xlink:href="#DejaVuSans-61"/>
      <use transform="translate(406.259766 0.78125)" xlink:href="#DejaVuSans-48"/>
      <use transform="translate(469.882812 0.78125)" xlink:href="#DejaVuSans-46"/>
      <use transform="translate(501.669922 0.78125)" xlink:href="#DejaVuSans-48"/>
      <use transform="translate(565.292969 0.78125)" xlink:href="#DejaVuSans-49"/>
      <use transform="translate(628.916016 0.78125)" xlink:href="#DejaVuSans-49"/>
     </g>
    </g>
    <g id="line2d_67">
     <path d="M 570.01225 224.592813 
L 590.01225 224.592813 
" style="fill:none;stroke:#e377c2;stroke-dasharray:5.55,2.4;stroke-dashoffset:0;stroke-width:1.5;"/>
    </g>
    <g id="line2d_68">
     <g>
      <use style="fill:#e377c2;stroke:#e377c2;" x="580.01225" xlink:href="#m2607eed4e7" y="224.592813"/>
     </g>
    </g>
    <g id="text_25">
     <!-- $\tau_6, G_0 = 0.011$ -->
     <g transform="translate(598.01225 228.092813)scale(0.1 -0.1)">
      <use transform="translate(0 0.78125)" xlink:href="#DejaVuSans-Oblique-964"/>
      <use transform="translate(60.205078 -15.625)scale(0.7)" xlink:href="#DejaVuSans-54"/>
      <use transform="translate(107.475586 0.78125)" xlink:href="#DejaVuSans-44"/>
      <use transform="translate(158.745117 0.78125)" xlink:href="#DejaVuSans-Oblique-71"/>
      <use transform="translate(236.235352 -15.625)scale(0.7)" xlink:href="#DejaVuSans-48"/>
      <use transform="translate(302.988281 0.78125)" xlink:href="#DejaVuSans-61"/>
      <use transform="translate(406.259766 0.78125)" xlink:href="#DejaVuSans-48"/>
      <use transform="translate(469.882812 0.78125)" xlink:href="#DejaVuSans-46"/>
      <use transform="translate(501.669922 0.78125)" xlink:href="#DejaVuSans-48"/>
      <use transform="translate(565.292969 0.78125)" xlink:href="#DejaVuSans-49"/>
      <use transform="translate(628.916016 0.78125)" xlink:href="#DejaVuSans-49"/>
     </g>
    </g>
    <g id="line2d_69">
     <path d="M 570.01225 239.270938 
L 590.01225 239.270938 
" style="fill:none;stroke:#7f7f7f;stroke-dasharray:5.55,2.4;stroke-dashoffset:0;stroke-width:1.5;"/>
    </g>
    <g id="line2d_70">
     <g>
      <use style="fill:#7f7f7f;stroke:#7f7f7f;" x="580.01225" xlink:href="#m02a0cff038" y="239.270938"/>
     </g>
    </g>
    <g id="text_26">
     <!-- $\tau_7, G_0 = 0.010$ -->
     <g transform="translate(598.01225 242.770938)scale(0.1 -0.1)">
      <defs>
       <path d="M 8.203125 72.90625 
L 55.078125 72.90625 
L 55.078125 68.703125 
L 28.609375 0 
L 18.3125 0 
L 43.21875 64.59375 
L 8.203125 64.59375 
z
" id="DejaVuSans-55"/>
      </defs>
      <use transform="translate(0 0.78125)" xlink:href="#DejaVuSans-Oblique-964"/>
      <use transform="translate(60.205078 -15.625)scale(0.7)" xlink:href="#DejaVuSans-55"/>
      <use transform="translate(107.475586 0.78125)" xlink:href="#DejaVuSans-44"/>
      <use transform="translate(158.745117 0.78125)" xlink:href="#DejaVuSans-Oblique-71"/>
      <use transform="translate(236.235352 -15.625)scale(0.7)" xlink:href="#DejaVuSans-48"/>
      <use transform="translate(302.988281 0.78125)" xlink:href="#DejaVuSans-61"/>
      <use transform="translate(406.259766 0.78125)" xlink:href="#DejaVuSans-48"/>
      <use transform="translate(469.882812 0.78125)" xlink:href="#DejaVuSans-46"/>
      <use transform="translate(501.669922 0.78125)" xlink:href="#DejaVuSans-48"/>
      <use transform="translate(565.292969 0.78125)" xlink:href="#DejaVuSans-49"/>
      <use transform="translate(628.916016 0.78125)" xlink:href="#DejaVuSans-48"/>
     </g>
    </g>
   </g>
  </g>
 </g>
 <defs>
  <clipPath id="pab3a83d686">
   <rect height="332.64" width="502.2" x="53.60625" y="22.318125"/>
  </clipPath>
 </defs>
</svg>
