<?xml version="1.0" encoding="utf-8" standalone="no"?>
<!DOCTYPE svg PUBLIC "-//W3C//DTD SVG 1.1//EN"
  "http://www.w3.org/Graphics/SVG/1.1/DTD/svg11.dtd">
<!-- Created with matplotlib (https://matplotlib.org/) -->
<svg height="393.53625pt" version="1.1" viewBox="0 0 678.51225 393.53625" width="678.51225pt" xmlns="http://www.w3.org/2000/svg" xmlns:xlink="http://www.w3.org/1999/xlink">
 <metadata>
  <rdf:RDF xmlns:cc="http://creativecommons.org/ns#" xmlns:dc="http://purl.org/dc/elements/1.1/" xmlns:rdf="http://www.w3.org/1999/02/22-rdf-syntax-ns#">
   <cc:Work>
    <dc:type rdf:resource="http://purl.org/dc/dcmitype/StillImage"/>
    <dc:date>2022-12-07T16:00:24.825034</dc:date>
    <dc:format>image/svg+xml</dc:format>
    <dc:creator>
     <cc:Agent>
      <dc:title>Matplotlib v3.3.4, https://matplotlib.org/</dc:title>
     </cc:Agent>
    </dc:creator>
   </cc:Work>
  </rdf:RDF>
 </metadata>
 <defs>
  <style type="text/css">*{stroke-linecap:butt;stroke-linejoin:round;}</style>
 </defs>
 <g id="figure_1">
  <g id="patch_1">
   <path d="M 0 393.53625 
L 678.51225 393.53625 
L 678.51225 0 
L 0 0 
z
" style="fill:#ffffff;"/>
  </g>
  <g id="axes_1">
   <g id="patch_2">
    <path d="M 53.60625 354.958125 
L 555.80625 354.958125 
L 555.80625 22.318125 
L 53.60625 22.318125 
z
" style="fill:#ffffff;"/>
   </g>
   <g id="matplotlib.axis_1">
    <g id="xtick_1">
     <g id="line2d_1">
      <path clip-path="url(#p0f74324ac9)" d="M 65.563393 354.958125 
L 65.563393 22.318125 
" style="fill:none;stroke:#b0b0b0;stroke-linecap:square;stroke-width:0.8;"/>
     </g>
     <g id="line2d_2">
      <defs>
       <path d="M 0 0 
L 0 3.5 
" id="me7dba18c76" style="stroke:#000000;stroke-width:0.8;"/>
      </defs>
      <g>
       <use style="stroke:#000000;stroke-width:0.8;" x="65.563393" xlink:href="#me7dba18c76" y="354.958125"/>
      </g>
     </g>
     <g id="text_1">
      <!-- 20000 -->
      <g transform="translate(49.657143 369.556562)scale(0.1 -0.1)">
       <defs>
        <path d="M 19.1875 8.296875 
L 53.609375 8.296875 
L 53.609375 0 
L 7.328125 0 
L 7.328125 8.296875 
Q 12.9375 14.109375 22.625 23.890625 
Q 32.328125 33.6875 34.8125 36.53125 
Q 39.546875 41.84375 41.421875 45.53125 
Q 43.3125 49.21875 43.3125 52.78125 
Q 43.3125 58.59375 39.234375 62.25 
Q 35.15625 65.921875 28.609375 65.921875 
Q 23.96875 65.921875 18.8125 64.3125 
Q 13.671875 62.703125 7.8125 59.421875 
L 7.8125 69.390625 
Q 13.765625 71.78125 18.9375 73 
Q 24.125 74.21875 28.421875 74.21875 
Q 39.75 74.21875 46.484375 68.546875 
Q 53.21875 62.890625 53.21875 53.421875 
Q 53.21875 48.921875 51.53125 44.890625 
Q 49.859375 40.875 45.40625 35.40625 
Q 44.1875 33.984375 37.640625 27.21875 
Q 31.109375 20.453125 19.1875 8.296875 
z
" id="DejaVuSans-50"/>
        <path d="M 31.78125 66.40625 
Q 24.171875 66.40625 20.328125 58.90625 
Q 16.5 51.421875 16.5 36.375 
Q 16.5 21.390625 20.328125 13.890625 
Q 24.171875 6.390625 31.78125 6.390625 
Q 39.453125 6.390625 43.28125 13.890625 
Q 47.125 21.390625 47.125 36.375 
Q 47.125 51.421875 43.28125 58.90625 
Q 39.453125 66.40625 31.78125 66.40625 
z
M 31.78125 74.21875 
Q 44.046875 74.21875 50.515625 64.515625 
Q 56.984375 54.828125 56.984375 36.375 
Q 56.984375 17.96875 50.515625 8.265625 
Q 44.046875 -1.421875 31.78125 -1.421875 
Q 19.53125 -1.421875 13.0625 8.265625 
Q 6.59375 17.96875 6.59375 36.375 
Q 6.59375 54.828125 13.0625 64.515625 
Q 19.53125 74.21875 31.78125 74.21875 
z
" id="DejaVuSans-48"/>
       </defs>
       <use xlink:href="#DejaVuSans-50"/>
       <use x="63.623047" xlink:href="#DejaVuSans-48"/>
       <use x="127.246094" xlink:href="#DejaVuSans-48"/>
       <use x="190.869141" xlink:href="#DejaVuSans-48"/>
       <use x="254.492188" xlink:href="#DejaVuSans-48"/>
      </g>
     </g>
    </g>
    <g id="xtick_2">
     <g id="line2d_3">
      <path clip-path="url(#p0f74324ac9)" d="M 125.349107 354.958125 
L 125.349107 22.318125 
" style="fill:none;stroke:#b0b0b0;stroke-linecap:square;stroke-width:0.8;"/>
     </g>
     <g id="line2d_4">
      <g>
       <use style="stroke:#000000;stroke-width:0.8;" x="125.349107" xlink:href="#me7dba18c76" y="354.958125"/>
      </g>
     </g>
     <g id="text_2">
      <!-- 25000 -->
      <g transform="translate(109.442857 369.556562)scale(0.1 -0.1)">
       <defs>
        <path d="M 10.796875 72.90625 
L 49.515625 72.90625 
L 49.515625 64.59375 
L 19.828125 64.59375 
L 19.828125 46.734375 
Q 21.96875 47.46875 24.109375 47.828125 
Q 26.265625 48.1875 28.421875 48.1875 
Q 40.625 48.1875 47.75 41.5 
Q 54.890625 34.8125 54.890625 23.390625 
Q 54.890625 11.625 47.5625 5.09375 
Q 40.234375 -1.421875 26.90625 -1.421875 
Q 22.3125 -1.421875 17.546875 -0.640625 
Q 12.796875 0.140625 7.71875 1.703125 
L 7.71875 11.625 
Q 12.109375 9.234375 16.796875 8.0625 
Q 21.484375 6.890625 26.703125 6.890625 
Q 35.15625 6.890625 40.078125 11.328125 
Q 45.015625 15.765625 45.015625 23.390625 
Q 45.015625 31 40.078125 35.4375 
Q 35.15625 39.890625 26.703125 39.890625 
Q 22.75 39.890625 18.8125 39.015625 
Q 14.890625 38.140625 10.796875 36.28125 
z
" id="DejaVuSans-53"/>
       </defs>
       <use xlink:href="#DejaVuSans-50"/>
       <use x="63.623047" xlink:href="#DejaVuSans-53"/>
       <use x="127.246094" xlink:href="#DejaVuSans-48"/>
       <use x="190.869141" xlink:href="#DejaVuSans-48"/>
       <use x="254.492188" xlink:href="#DejaVuSans-48"/>
      </g>
     </g>
    </g>
    <g id="xtick_3">
     <g id="line2d_5">
      <path clip-path="url(#p0f74324ac9)" d="M 185.134821 354.958125 
L 185.134821 22.318125 
" style="fill:none;stroke:#b0b0b0;stroke-linecap:square;stroke-width:0.8;"/>
     </g>
     <g id="line2d_6">
      <g>
       <use style="stroke:#000000;stroke-width:0.8;" x="185.134821" xlink:href="#me7dba18c76" y="354.958125"/>
      </g>
     </g>
     <g id="text_3">
      <!-- 30000 -->
      <g transform="translate(169.228571 369.556562)scale(0.1 -0.1)">
       <defs>
        <path d="M 40.578125 39.3125 
Q 47.65625 37.796875 51.625 33 
Q 55.609375 28.21875 55.609375 21.1875 
Q 55.609375 10.40625 48.1875 4.484375 
Q 40.765625 -1.421875 27.09375 -1.421875 
Q 22.515625 -1.421875 17.65625 -0.515625 
Q 12.796875 0.390625 7.625 2.203125 
L 7.625 11.71875 
Q 11.71875 9.328125 16.59375 8.109375 
Q 21.484375 6.890625 26.8125 6.890625 
Q 36.078125 6.890625 40.9375 10.546875 
Q 45.796875 14.203125 45.796875 21.1875 
Q 45.796875 27.640625 41.28125 31.265625 
Q 36.765625 34.90625 28.71875 34.90625 
L 20.21875 34.90625 
L 20.21875 43.015625 
L 29.109375 43.015625 
Q 36.375 43.015625 40.234375 45.921875 
Q 44.09375 48.828125 44.09375 54.296875 
Q 44.09375 59.90625 40.109375 62.90625 
Q 36.140625 65.921875 28.71875 65.921875 
Q 24.65625 65.921875 20.015625 65.03125 
Q 15.375 64.15625 9.8125 62.3125 
L 9.8125 71.09375 
Q 15.4375 72.65625 20.34375 73.4375 
Q 25.25 74.21875 29.59375 74.21875 
Q 40.828125 74.21875 47.359375 69.109375 
Q 53.90625 64.015625 53.90625 55.328125 
Q 53.90625 49.265625 50.4375 45.09375 
Q 46.96875 40.921875 40.578125 39.3125 
z
" id="DejaVuSans-51"/>
       </defs>
       <use xlink:href="#DejaVuSans-51"/>
       <use x="63.623047" xlink:href="#DejaVuSans-48"/>
       <use x="127.246094" xlink:href="#DejaVuSans-48"/>
       <use x="190.869141" xlink:href="#DejaVuSans-48"/>
       <use x="254.492188" xlink:href="#DejaVuSans-48"/>
      </g>
     </g>
    </g>
    <g id="xtick_4">
     <g id="line2d_7">
      <path clip-path="url(#p0f74324ac9)" d="M 244.920536 354.958125 
L 244.920536 22.318125 
" style="fill:none;stroke:#b0b0b0;stroke-linecap:square;stroke-width:0.8;"/>
     </g>
     <g id="line2d_8">
      <g>
       <use style="stroke:#000000;stroke-width:0.8;" x="244.920536" xlink:href="#me7dba18c76" y="354.958125"/>
      </g>
     </g>
     <g id="text_4">
      <!-- 35000 -->
      <g transform="translate(229.014286 369.556562)scale(0.1 -0.1)">
       <use xlink:href="#DejaVuSans-51"/>
       <use x="63.623047" xlink:href="#DejaVuSans-53"/>
       <use x="127.246094" xlink:href="#DejaVuSans-48"/>
       <use x="190.869141" xlink:href="#DejaVuSans-48"/>
       <use x="254.492188" xlink:href="#DejaVuSans-48"/>
      </g>
     </g>
    </g>
    <g id="xtick_5">
     <g id="line2d_9">
      <path clip-path="url(#p0f74324ac9)" d="M 304.70625 354.958125 
L 304.70625 22.318125 
" style="fill:none;stroke:#b0b0b0;stroke-linecap:square;stroke-width:0.8;"/>
     </g>
     <g id="line2d_10">
      <g>
       <use style="stroke:#000000;stroke-width:0.8;" x="304.70625" xlink:href="#me7dba18c76" y="354.958125"/>
      </g>
     </g>
     <g id="text_5">
      <!-- 40000 -->
      <g transform="translate(288.8 369.556562)scale(0.1 -0.1)">
       <defs>
        <path d="M 37.796875 64.3125 
L 12.890625 25.390625 
L 37.796875 25.390625 
z
M 35.203125 72.90625 
L 47.609375 72.90625 
L 47.609375 25.390625 
L 58.015625 25.390625 
L 58.015625 17.1875 
L 47.609375 17.1875 
L 47.609375 0 
L 37.796875 0 
L 37.796875 17.1875 
L 4.890625 17.1875 
L 4.890625 26.703125 
z
" id="DejaVuSans-52"/>
       </defs>
       <use xlink:href="#DejaVuSans-52"/>
       <use x="63.623047" xlink:href="#DejaVuSans-48"/>
       <use x="127.246094" xlink:href="#DejaVuSans-48"/>
       <use x="190.869141" xlink:href="#DejaVuSans-48"/>
       <use x="254.492188" xlink:href="#DejaVuSans-48"/>
      </g>
     </g>
    </g>
    <g id="xtick_6">
     <g id="line2d_11">
      <path clip-path="url(#p0f74324ac9)" d="M 364.491964 354.958125 
L 364.491964 22.318125 
" style="fill:none;stroke:#b0b0b0;stroke-linecap:square;stroke-width:0.8;"/>
     </g>
     <g id="line2d_12">
      <g>
       <use style="stroke:#000000;stroke-width:0.8;" x="364.491964" xlink:href="#me7dba18c76" y="354.958125"/>
      </g>
     </g>
     <g id="text_6">
      <!-- 45000 -->
      <g transform="translate(348.585714 369.556562)scale(0.1 -0.1)">
       <use xlink:href="#DejaVuSans-52"/>
       <use x="63.623047" xlink:href="#DejaVuSans-53"/>
       <use x="127.246094" xlink:href="#DejaVuSans-48"/>
       <use x="190.869141" xlink:href="#DejaVuSans-48"/>
       <use x="254.492188" xlink:href="#DejaVuSans-48"/>
      </g>
     </g>
    </g>
    <g id="xtick_7">
     <g id="line2d_13">
      <path clip-path="url(#p0f74324ac9)" d="M 424.277679 354.958125 
L 424.277679 22.318125 
" style="fill:none;stroke:#b0b0b0;stroke-linecap:square;stroke-width:0.8;"/>
     </g>
     <g id="line2d_14">
      <g>
       <use style="stroke:#000000;stroke-width:0.8;" x="424.277679" xlink:href="#me7dba18c76" y="354.958125"/>
      </g>
     </g>
     <g id="text_7">
      <!-- 50000 -->
      <g transform="translate(408.371429 369.556562)scale(0.1 -0.1)">
       <use xlink:href="#DejaVuSans-53"/>
       <use x="63.623047" xlink:href="#DejaVuSans-48"/>
       <use x="127.246094" xlink:href="#DejaVuSans-48"/>
       <use x="190.869141" xlink:href="#DejaVuSans-48"/>
       <use x="254.492188" xlink:href="#DejaVuSans-48"/>
      </g>
     </g>
    </g>
    <g id="xtick_8">
     <g id="line2d_15">
      <path clip-path="url(#p0f74324ac9)" d="M 484.063393 354.958125 
L 484.063393 22.318125 
" style="fill:none;stroke:#b0b0b0;stroke-linecap:square;stroke-width:0.8;"/>
     </g>
     <g id="line2d_16">
      <g>
       <use style="stroke:#000000;stroke-width:0.8;" x="484.063393" xlink:href="#me7dba18c76" y="354.958125"/>
      </g>
     </g>
     <g id="text_8">
      <!-- 55000 -->
      <g transform="translate(468.157143 369.556562)scale(0.1 -0.1)">
       <use xlink:href="#DejaVuSans-53"/>
       <use x="63.623047" xlink:href="#DejaVuSans-53"/>
       <use x="127.246094" xlink:href="#DejaVuSans-48"/>
       <use x="190.869141" xlink:href="#DejaVuSans-48"/>
       <use x="254.492188" xlink:href="#DejaVuSans-48"/>
      </g>
     </g>
    </g>
    <g id="xtick_9">
     <g id="line2d_17">
      <path clip-path="url(#p0f74324ac9)" d="M 543.849107 354.958125 
L 543.849107 22.318125 
" style="fill:none;stroke:#b0b0b0;stroke-linecap:square;stroke-width:0.8;"/>
     </g>
     <g id="line2d_18">
      <g>
       <use style="stroke:#000000;stroke-width:0.8;" x="543.849107" xlink:href="#me7dba18c76" y="354.958125"/>
      </g>
     </g>
     <g id="text_9">
      <!-- 60000 -->
      <g transform="translate(527.942857 369.556562)scale(0.1 -0.1)">
       <defs>
        <path d="M 33.015625 40.375 
Q 26.375 40.375 22.484375 35.828125 
Q 18.609375 31.296875 18.609375 23.390625 
Q 18.609375 15.53125 22.484375 10.953125 
Q 26.375 6.390625 33.015625 6.390625 
Q 39.65625 6.390625 43.53125 10.953125 
Q 47.40625 15.53125 47.40625 23.390625 
Q 47.40625 31.296875 43.53125 35.828125 
Q 39.65625 40.375 33.015625 40.375 
z
M 52.59375 71.296875 
L 52.59375 62.3125 
Q 48.875 64.0625 45.09375 64.984375 
Q 41.3125 65.921875 37.59375 65.921875 
Q 27.828125 65.921875 22.671875 59.328125 
Q 17.53125 52.734375 16.796875 39.40625 
Q 19.671875 43.65625 24.015625 45.921875 
Q 28.375 48.1875 33.59375 48.1875 
Q 44.578125 48.1875 50.953125 41.515625 
Q 57.328125 34.859375 57.328125 23.390625 
Q 57.328125 12.15625 50.6875 5.359375 
Q 44.046875 -1.421875 33.015625 -1.421875 
Q 20.359375 -1.421875 13.671875 8.265625 
Q 6.984375 17.96875 6.984375 36.375 
Q 6.984375 53.65625 15.1875 63.9375 
Q 23.390625 74.21875 37.203125 74.21875 
Q 40.921875 74.21875 44.703125 73.484375 
Q 48.484375 72.75 52.59375 71.296875 
z
" id="DejaVuSans-54"/>
       </defs>
       <use xlink:href="#DejaVuSans-54"/>
       <use x="63.623047" xlink:href="#DejaVuSans-48"/>
       <use x="127.246094" xlink:href="#DejaVuSans-48"/>
       <use x="190.869141" xlink:href="#DejaVuSans-48"/>
       <use x="254.492188" xlink:href="#DejaVuSans-48"/>
      </g>
     </g>
    </g>
    <g id="text_10">
     <!-- Cal_Voltage [$DAC_{inj}$ code] -->
     <g transform="translate(240.90625 383.23625)scale(0.1 -0.1)">
      <defs>
       <path d="M 64.40625 67.28125 
L 64.40625 56.890625 
Q 59.421875 61.53125 53.78125 63.8125 
Q 48.140625 66.109375 41.796875 66.109375 
Q 29.296875 66.109375 22.65625 58.46875 
Q 16.015625 50.828125 16.015625 36.375 
Q 16.015625 21.96875 22.65625 14.328125 
Q 29.296875 6.6875 41.796875 6.6875 
Q 48.140625 6.6875 53.78125 8.984375 
Q 59.421875 11.28125 64.40625 15.921875 
L 64.40625 5.609375 
Q 59.234375 2.09375 53.4375 0.328125 
Q 47.65625 -1.421875 41.21875 -1.421875 
Q 24.65625 -1.421875 15.125 8.703125 
Q 5.609375 18.84375 5.609375 36.375 
Q 5.609375 53.953125 15.125 64.078125 
Q 24.65625 74.21875 41.21875 74.21875 
Q 47.75 74.21875 53.53125 72.484375 
Q 59.328125 70.75 64.40625 67.28125 
z
" id="DejaVuSans-67"/>
       <path d="M 34.28125 27.484375 
Q 23.390625 27.484375 19.1875 25 
Q 14.984375 22.515625 14.984375 16.5 
Q 14.984375 11.71875 18.140625 8.90625 
Q 21.296875 6.109375 26.703125 6.109375 
Q 34.1875 6.109375 38.703125 11.40625 
Q 43.21875 16.703125 43.21875 25.484375 
L 43.21875 27.484375 
z
M 52.203125 31.203125 
L 52.203125 0 
L 43.21875 0 
L 43.21875 8.296875 
Q 40.140625 3.328125 35.546875 0.953125 
Q 30.953125 -1.421875 24.3125 -1.421875 
Q 15.921875 -1.421875 10.953125 3.296875 
Q 6 8.015625 6 15.921875 
Q 6 25.140625 12.171875 29.828125 
Q 18.359375 34.515625 30.609375 34.515625 
L 43.21875 34.515625 
L 43.21875 35.40625 
Q 43.21875 41.609375 39.140625 45 
Q 35.0625 48.390625 27.6875 48.390625 
Q 23 48.390625 18.546875 47.265625 
Q 14.109375 46.140625 10.015625 43.890625 
L 10.015625 52.203125 
Q 14.9375 54.109375 19.578125 55.046875 
Q 24.21875 56 28.609375 56 
Q 40.484375 56 46.34375 49.84375 
Q 52.203125 43.703125 52.203125 31.203125 
z
" id="DejaVuSans-97"/>
       <path d="M 9.421875 75.984375 
L 18.40625 75.984375 
L 18.40625 0 
L 9.421875 0 
z
" id="DejaVuSans-108"/>
       <path d="M 50.984375 -16.609375 
L 50.984375 -23.578125 
L -0.984375 -23.578125 
L -0.984375 -16.609375 
z
" id="DejaVuSans-95"/>
       <path d="M 28.609375 0 
L 0.78125 72.90625 
L 11.078125 72.90625 
L 34.1875 11.53125 
L 57.328125 72.90625 
L 67.578125 72.90625 
L 39.796875 0 
z
" id="DejaVuSans-86"/>
       <path d="M 30.609375 48.390625 
Q 23.390625 48.390625 19.1875 42.75 
Q 14.984375 37.109375 14.984375 27.296875 
Q 14.984375 17.484375 19.15625 11.84375 
Q 23.34375 6.203125 30.609375 6.203125 
Q 37.796875 6.203125 41.984375 11.859375 
Q 46.1875 17.53125 46.1875 27.296875 
Q 46.1875 37.015625 41.984375 42.703125 
Q 37.796875 48.390625 30.609375 48.390625 
z
M 30.609375 56 
Q 42.328125 56 49.015625 48.375 
Q 55.71875 40.765625 55.71875 27.296875 
Q 55.71875 13.875 49.015625 6.21875 
Q 42.328125 -1.421875 30.609375 -1.421875 
Q 18.84375 -1.421875 12.171875 6.21875 
Q 5.515625 13.875 5.515625 27.296875 
Q 5.515625 40.765625 12.171875 48.375 
Q 18.84375 56 30.609375 56 
z
" id="DejaVuSans-111"/>
       <path d="M 18.3125 70.21875 
L 18.3125 54.6875 
L 36.8125 54.6875 
L 36.8125 47.703125 
L 18.3125 47.703125 
L 18.3125 18.015625 
Q 18.3125 11.328125 20.140625 9.421875 
Q 21.96875 7.515625 27.59375 7.515625 
L 36.8125 7.515625 
L 36.8125 0 
L 27.59375 0 
Q 17.1875 0 13.234375 3.875 
Q 9.28125 7.765625 9.28125 18.015625 
L 9.28125 47.703125 
L 2.6875 47.703125 
L 2.6875 54.6875 
L 9.28125 54.6875 
L 9.28125 70.21875 
z
" id="DejaVuSans-116"/>
       <path d="M 45.40625 27.984375 
Q 45.40625 37.75 41.375 43.109375 
Q 37.359375 48.484375 30.078125 48.484375 
Q 22.859375 48.484375 18.828125 43.109375 
Q 14.796875 37.75 14.796875 27.984375 
Q 14.796875 18.265625 18.828125 12.890625 
Q 22.859375 7.515625 30.078125 7.515625 
Q 37.359375 7.515625 41.375 12.890625 
Q 45.40625 18.265625 45.40625 27.984375 
z
M 54.390625 6.78125 
Q 54.390625 -7.171875 48.1875 -13.984375 
Q 42 -20.796875 29.203125 -20.796875 
Q 24.46875 -20.796875 20.265625 -20.09375 
Q 16.0625 -19.390625 12.109375 -17.921875 
L 12.109375 -9.1875 
Q 16.0625 -11.328125 19.921875 -12.34375 
Q 23.78125 -13.375 27.78125 -13.375 
Q 36.625 -13.375 41.015625 -8.765625 
Q 45.40625 -4.15625 45.40625 5.171875 
L 45.40625 9.625 
Q 42.625 4.78125 38.28125 2.390625 
Q 33.9375 0 27.875 0 
Q 17.828125 0 11.671875 7.65625 
Q 5.515625 15.328125 5.515625 27.984375 
Q 5.515625 40.671875 11.671875 48.328125 
Q 17.828125 56 27.875 56 
Q 33.9375 56 38.28125 53.609375 
Q 42.625 51.21875 45.40625 46.390625 
L 45.40625 54.6875 
L 54.390625 54.6875 
z
" id="DejaVuSans-103"/>
       <path d="M 56.203125 29.59375 
L 56.203125 25.203125 
L 14.890625 25.203125 
Q 15.484375 15.921875 20.484375 11.0625 
Q 25.484375 6.203125 34.421875 6.203125 
Q 39.59375 6.203125 44.453125 7.46875 
Q 49.3125 8.734375 54.109375 11.28125 
L 54.109375 2.78125 
Q 49.265625 0.734375 44.1875 -0.34375 
Q 39.109375 -1.421875 33.890625 -1.421875 
Q 20.796875 -1.421875 13.15625 6.1875 
Q 5.515625 13.8125 5.515625 26.8125 
Q 5.515625 40.234375 12.765625 48.109375 
Q 20.015625 56 32.328125 56 
Q 43.359375 56 49.78125 48.890625 
Q 56.203125 41.796875 56.203125 29.59375 
z
M 47.21875 32.234375 
Q 47.125 39.59375 43.09375 43.984375 
Q 39.0625 48.390625 32.421875 48.390625 
Q 24.90625 48.390625 20.390625 44.140625 
Q 15.875 39.890625 15.1875 32.171875 
z
" id="DejaVuSans-101"/>
       <path id="DejaVuSans-32"/>
       <path d="M 8.59375 75.984375 
L 29.296875 75.984375 
L 29.296875 69 
L 17.578125 69 
L 17.578125 -6.203125 
L 29.296875 -6.203125 
L 29.296875 -13.1875 
L 8.59375 -13.1875 
z
" id="DejaVuSans-91"/>
       <path d="M 16.890625 72.90625 
L 38.09375 72.90625 
Q 54.984375 72.90625 63.59375 65.75 
Q 72.21875 58.59375 72.21875 44.484375 
Q 72.21875 35.15625 68.9375 26.53125 
Q 65.671875 17.921875 59.90625 12.015625 
Q 54.109375 5.953125 45.171875 2.96875 
Q 36.234375 0 24.03125 0 
L 2.6875 0 
z
M 25.203125 64.796875 
L 14.203125 8.109375 
L 27.09375 8.109375 
Q 43.65625 8.109375 52.734375 17.625 
Q 61.8125 27.15625 61.8125 44.484375 
Q 61.8125 54.984375 55.953125 59.890625 
Q 50.09375 64.796875 37.59375 64.796875 
z
" id="DejaVuSans-Oblique-68"/>
       <path d="M 36.8125 72.90625 
L 48 72.90625 
L 61.53125 0 
L 51.21875 0 
L 48.1875 18.703125 
L 15.375 18.703125 
L 5.078125 0 
L -5.328125 0 
z
M 40.375 63.1875 
L 19.921875 26.90625 
L 46.6875 26.90625 
z
" id="DejaVuSans-Oblique-65"/>
       <path d="M 69.484375 67.28125 
L 67.484375 56.890625 
Q 62.796875 61.625 57.546875 63.921875 
Q 52.296875 66.21875 46.1875 66.21875 
Q 37.84375 66.21875 31.515625 62.203125 
Q 25.203125 58.203125 20.609375 50 
Q 17.671875 44.734375 16.125 38.84375 
Q 14.59375 32.953125 14.59375 27 
Q 14.59375 17.046875 19.75 11.8125 
Q 24.90625 6.59375 34.71875 6.59375 
Q 41.5 6.59375 47.75 8.765625 
Q 54 10.9375 59.90625 15.28125 
L 57.625 3.609375 
Q 51.8125 1.125 45.875 -0.140625 
Q 39.9375 -1.421875 33.984375 -1.421875 
Q 19.96875 -1.421875 12.078125 6.1875 
Q 4.203125 13.8125 4.203125 27.390625 
Q 4.203125 36.078125 7.203125 44.46875 
Q 10.203125 52.875 15.828125 59.8125 
Q 21.78125 67.1875 29.421875 70.703125 
Q 37.0625 74.21875 47.21875 74.21875 
Q 53.46875 74.21875 59.0625 72.484375 
Q 64.65625 70.75 69.484375 67.28125 
z
" id="DejaVuSans-Oblique-67"/>
       <path d="M 18.3125 75.984375 
L 27.296875 75.984375 
L 25.09375 64.59375 
L 16.109375 64.59375 
z
M 14.203125 54.6875 
L 23.1875 54.6875 
L 12.5 0 
L 3.515625 0 
z
" id="DejaVuSans-Oblique-105"/>
       <path d="M 55.71875 33.015625 
L 49.3125 0 
L 40.28125 0 
L 46.6875 32.671875 
Q 47.125 34.96875 47.359375 36.71875 
Q 47.609375 38.484375 47.609375 39.5 
Q 47.609375 43.609375 45.015625 45.890625 
Q 42.4375 48.1875 37.796875 48.1875 
Q 30.5625 48.1875 25.34375 43.375 
Q 20.125 38.578125 18.5 30.328125 
L 12.5 0 
L 3.515625 0 
L 14.109375 54.6875 
L 23.09375 54.6875 
L 21.296875 46.09375 
Q 25.046875 50.828125 30.3125 53.40625 
Q 35.59375 56 41.40625 56 
Q 48.640625 56 52.609375 52.09375 
Q 56.59375 48.1875 56.59375 41.109375 
Q 56.59375 39.359375 56.375 37.359375 
Q 56.15625 35.359375 55.71875 33.015625 
z
" id="DejaVuSans-Oblique-110"/>
       <path d="M 14.5 54.6875 
L 23.484375 54.6875 
L 12.703125 -0.984375 
L 12.640625 -1.21875 
Q 10.84375 -10.546875 8.5 -14.015625 
Q 6.296875 -17.28125 2.0625 -19.03125 
Q -2.15625 -20.796875 -7.90625 -20.796875 
L -11.28125 -20.796875 
L -9.8125 -13.1875 
L -7.515625 -13.1875 
Q -2.25 -13.1875 -0.015625 -10.984375 
Q 2.203125 -8.796875 3.71875 -0.984375 
z
M 18.703125 75.984375 
L 27.6875 75.984375 
L 25.484375 64.59375 
L 16.5 64.59375 
z
" id="DejaVuSans-Oblique-106"/>
       <path d="M 48.78125 52.59375 
L 48.78125 44.1875 
Q 44.96875 46.296875 41.140625 47.34375 
Q 37.3125 48.390625 33.40625 48.390625 
Q 24.65625 48.390625 19.8125 42.84375 
Q 14.984375 37.3125 14.984375 27.296875 
Q 14.984375 17.28125 19.8125 11.734375 
Q 24.65625 6.203125 33.40625 6.203125 
Q 37.3125 6.203125 41.140625 7.25 
Q 44.96875 8.296875 48.78125 10.40625 
L 48.78125 2.09375 
Q 45.015625 0.34375 40.984375 -0.53125 
Q 36.96875 -1.421875 32.421875 -1.421875 
Q 20.0625 -1.421875 12.78125 6.34375 
Q 5.515625 14.109375 5.515625 27.296875 
Q 5.515625 40.671875 12.859375 48.328125 
Q 20.21875 56 33.015625 56 
Q 37.15625 56 41.109375 55.140625 
Q 45.0625 54.296875 48.78125 52.59375 
z
" id="DejaVuSans-99"/>
       <path d="M 45.40625 46.390625 
L 45.40625 75.984375 
L 54.390625 75.984375 
L 54.390625 0 
L 45.40625 0 
L 45.40625 8.203125 
Q 42.578125 3.328125 38.25 0.953125 
Q 33.9375 -1.421875 27.875 -1.421875 
Q 17.96875 -1.421875 11.734375 6.484375 
Q 5.515625 14.40625 5.515625 27.296875 
Q 5.515625 40.1875 11.734375 48.09375 
Q 17.96875 56 27.875 56 
Q 33.9375 56 38.25 53.625 
Q 42.578125 51.265625 45.40625 46.390625 
z
M 14.796875 27.296875 
Q 14.796875 17.390625 18.875 11.75 
Q 22.953125 6.109375 30.078125 6.109375 
Q 37.203125 6.109375 41.296875 11.75 
Q 45.40625 17.390625 45.40625 27.296875 
Q 45.40625 37.203125 41.296875 42.84375 
Q 37.203125 48.484375 30.078125 48.484375 
Q 22.953125 48.484375 18.875 42.84375 
Q 14.796875 37.203125 14.796875 27.296875 
z
" id="DejaVuSans-100"/>
       <path d="M 30.421875 75.984375 
L 30.421875 -13.1875 
L 9.71875 -13.1875 
L 9.71875 -6.203125 
L 21.390625 -6.203125 
L 21.390625 69 
L 9.71875 69 
L 9.71875 75.984375 
z
" id="DejaVuSans-93"/>
      </defs>
      <use transform="translate(0 0.015625)" xlink:href="#DejaVuSans-67"/>
      <use transform="translate(69.824219 0.015625)" xlink:href="#DejaVuSans-97"/>
      <use transform="translate(131.103516 0.015625)" xlink:href="#DejaVuSans-108"/>
      <use transform="translate(158.886719 0.015625)" xlink:href="#DejaVuSans-95"/>
      <use transform="translate(208.886719 0.015625)" xlink:href="#DejaVuSans-86"/>
      <use transform="translate(277.294922 0.015625)" xlink:href="#DejaVuSans-111"/>
      <use transform="translate(338.476562 0.015625)" xlink:href="#DejaVuSans-108"/>
      <use transform="translate(366.259766 0.015625)" xlink:href="#DejaVuSans-116"/>
      <use transform="translate(405.46875 0.015625)" xlink:href="#DejaVuSans-97"/>
      <use transform="translate(466.748047 0.015625)" xlink:href="#DejaVuSans-103"/>
      <use transform="translate(530.224609 0.015625)" xlink:href="#DejaVuSans-101"/>
      <use transform="translate(591.748047 0.015625)" xlink:href="#DejaVuSans-32"/>
      <use transform="translate(623.535156 0.015625)" xlink:href="#DejaVuSans-91"/>
      <use transform="translate(662.548828 0.015625)" xlink:href="#DejaVuSans-Oblique-68"/>
      <use transform="translate(739.550781 0.015625)" xlink:href="#DejaVuSans-Oblique-65"/>
      <use transform="translate(807.958984 0.015625)" xlink:href="#DejaVuSans-Oblique-67"/>
      <use transform="translate(877.783203 -16.390625)scale(0.7)" xlink:href="#DejaVuSans-Oblique-105"/>
      <use transform="translate(897.231445 -16.390625)scale(0.7)" xlink:href="#DejaVuSans-Oblique-110"/>
      <use transform="translate(941.59668 -16.390625)scale(0.7)" xlink:href="#DejaVuSans-Oblique-106"/>
      <use transform="translate(963.779297 0.015625)" xlink:href="#DejaVuSans-32"/>
      <use transform="translate(995.566406 0.015625)" xlink:href="#DejaVuSans-99"/>
      <use transform="translate(1050.546875 0.015625)" xlink:href="#DejaVuSans-111"/>
      <use transform="translate(1111.728516 0.015625)" xlink:href="#DejaVuSans-100"/>
      <use transform="translate(1175.205078 0.015625)" xlink:href="#DejaVuSans-101"/>
      <use transform="translate(1236.728516 0.015625)" xlink:href="#DejaVuSans-93"/>
     </g>
    </g>
   </g>
   <g id="matplotlib.axis_2">
    <g id="ytick_1">
     <g id="line2d_19">
      <path clip-path="url(#p0f74324ac9)" d="M 53.60625 354.958125 
L 555.80625 354.958125 
" style="fill:none;stroke:#b0b0b0;stroke-linecap:square;stroke-width:0.8;"/>
     </g>
     <g id="line2d_20">
      <defs>
       <path d="M 0 0 
L -3.5 0 
" id="ma84a6ffda1" style="stroke:#000000;stroke-width:0.8;"/>
      </defs>
      <g>
       <use style="stroke:#000000;stroke-width:0.8;" x="53.60625" xlink:href="#ma84a6ffda1" y="354.958125"/>
      </g>
     </g>
     <g id="text_11">
      <!-- 1000 -->
      <g transform="translate(21.15625 358.757344)scale(0.1 -0.1)">
       <defs>
        <path d="M 12.40625 8.296875 
L 28.515625 8.296875 
L 28.515625 63.921875 
L 10.984375 60.40625 
L 10.984375 69.390625 
L 28.421875 72.90625 
L 38.28125 72.90625 
L 38.28125 8.296875 
L 54.390625 8.296875 
L 54.390625 0 
L 12.40625 0 
z
" id="DejaVuSans-49"/>
       </defs>
       <use xlink:href="#DejaVuSans-49"/>
       <use x="63.623047" xlink:href="#DejaVuSans-48"/>
       <use x="127.246094" xlink:href="#DejaVuSans-48"/>
       <use x="190.869141" xlink:href="#DejaVuSans-48"/>
      </g>
     </g>
    </g>
    <g id="ytick_2">
     <g id="line2d_21">
      <path clip-path="url(#p0f74324ac9)" d="M 53.60625 288.430125 
L 555.80625 288.430125 
" style="fill:none;stroke:#b0b0b0;stroke-linecap:square;stroke-width:0.8;"/>
     </g>
     <g id="line2d_22">
      <g>
       <use style="stroke:#000000;stroke-width:0.8;" x="53.60625" xlink:href="#ma84a6ffda1" y="288.430125"/>
      </g>
     </g>
     <g id="text_12">
      <!-- 1200 -->
      <g transform="translate(21.15625 292.229344)scale(0.1 -0.1)">
       <use xlink:href="#DejaVuSans-49"/>
       <use x="63.623047" xlink:href="#DejaVuSans-50"/>
       <use x="127.246094" xlink:href="#DejaVuSans-48"/>
       <use x="190.869141" xlink:href="#DejaVuSans-48"/>
      </g>
     </g>
    </g>
    <g id="ytick_3">
     <g id="line2d_23">
      <path clip-path="url(#p0f74324ac9)" d="M 53.60625 221.902125 
L 555.80625 221.902125 
" style="fill:none;stroke:#b0b0b0;stroke-linecap:square;stroke-width:0.8;"/>
     </g>
     <g id="line2d_24">
      <g>
       <use style="stroke:#000000;stroke-width:0.8;" x="53.60625" xlink:href="#ma84a6ffda1" y="221.902125"/>
      </g>
     </g>
     <g id="text_13">
      <!-- 1400 -->
      <g transform="translate(21.15625 225.701344)scale(0.1 -0.1)">
       <use xlink:href="#DejaVuSans-49"/>
       <use x="63.623047" xlink:href="#DejaVuSans-52"/>
       <use x="127.246094" xlink:href="#DejaVuSans-48"/>
       <use x="190.869141" xlink:href="#DejaVuSans-48"/>
      </g>
     </g>
    </g>
    <g id="ytick_4">
     <g id="line2d_25">
      <path clip-path="url(#p0f74324ac9)" d="M 53.60625 155.374125 
L 555.80625 155.374125 
" style="fill:none;stroke:#b0b0b0;stroke-linecap:square;stroke-width:0.8;"/>
     </g>
     <g id="line2d_26">
      <g>
       <use style="stroke:#000000;stroke-width:0.8;" x="53.60625" xlink:href="#ma84a6ffda1" y="155.374125"/>
      </g>
     </g>
     <g id="text_14">
      <!-- 1600 -->
      <g transform="translate(21.15625 159.173344)scale(0.1 -0.1)">
       <use xlink:href="#DejaVuSans-49"/>
       <use x="63.623047" xlink:href="#DejaVuSans-54"/>
       <use x="127.246094" xlink:href="#DejaVuSans-48"/>
       <use x="190.869141" xlink:href="#DejaVuSans-48"/>
      </g>
     </g>
    </g>
    <g id="ytick_5">
     <g id="line2d_27">
      <path clip-path="url(#p0f74324ac9)" d="M 53.60625 88.846125 
L 555.80625 88.846125 
" style="fill:none;stroke:#b0b0b0;stroke-linecap:square;stroke-width:0.8;"/>
     </g>
     <g id="line2d_28">
      <g>
       <use style="stroke:#000000;stroke-width:0.8;" x="53.60625" xlink:href="#ma84a6ffda1" y="88.846125"/>
      </g>
     </g>
     <g id="text_15">
      <!-- 1800 -->
      <g transform="translate(21.15625 92.645344)scale(0.1 -0.1)">
       <defs>
        <path d="M 31.78125 34.625 
Q 24.75 34.625 20.71875 30.859375 
Q 16.703125 27.09375 16.703125 20.515625 
Q 16.703125 13.921875 20.71875 10.15625 
Q 24.75 6.390625 31.78125 6.390625 
Q 38.8125 6.390625 42.859375 10.171875 
Q 46.921875 13.96875 46.921875 20.515625 
Q 46.921875 27.09375 42.890625 30.859375 
Q 38.875 34.625 31.78125 34.625 
z
M 21.921875 38.8125 
Q 15.578125 40.375 12.03125 44.71875 
Q 8.5 49.078125 8.5 55.328125 
Q 8.5 64.0625 14.71875 69.140625 
Q 20.953125 74.21875 31.78125 74.21875 
Q 42.671875 74.21875 48.875 69.140625 
Q 55.078125 64.0625 55.078125 55.328125 
Q 55.078125 49.078125 51.53125 44.71875 
Q 48 40.375 41.703125 38.8125 
Q 48.828125 37.15625 52.796875 32.3125 
Q 56.78125 27.484375 56.78125 20.515625 
Q 56.78125 9.90625 50.3125 4.234375 
Q 43.84375 -1.421875 31.78125 -1.421875 
Q 19.734375 -1.421875 13.25 4.234375 
Q 6.78125 9.90625 6.78125 20.515625 
Q 6.78125 27.484375 10.78125 32.3125 
Q 14.796875 37.15625 21.921875 38.8125 
z
M 18.3125 54.390625 
Q 18.3125 48.734375 21.84375 45.5625 
Q 25.390625 42.390625 31.78125 42.390625 
Q 38.140625 42.390625 41.71875 45.5625 
Q 45.3125 48.734375 45.3125 54.390625 
Q 45.3125 60.0625 41.71875 63.234375 
Q 38.140625 66.40625 31.78125 66.40625 
Q 25.390625 66.40625 21.84375 63.234375 
Q 18.3125 60.0625 18.3125 54.390625 
z
" id="DejaVuSans-56"/>
       </defs>
       <use xlink:href="#DejaVuSans-49"/>
       <use x="63.623047" xlink:href="#DejaVuSans-56"/>
       <use x="127.246094" xlink:href="#DejaVuSans-48"/>
       <use x="190.869141" xlink:href="#DejaVuSans-48"/>
      </g>
     </g>
    </g>
    <g id="ytick_6">
     <g id="line2d_29">
      <path clip-path="url(#p0f74324ac9)" d="M 53.60625 22.318125 
L 555.80625 22.318125 
" style="fill:none;stroke:#b0b0b0;stroke-linecap:square;stroke-width:0.8;"/>
     </g>
     <g id="line2d_30">
      <g>
       <use style="stroke:#000000;stroke-width:0.8;" x="53.60625" xlink:href="#ma84a6ffda1" y="22.318125"/>
      </g>
     </g>
     <g id="text_16">
      <!-- 2000 -->
      <g transform="translate(21.15625 26.117344)scale(0.1 -0.1)">
       <use xlink:href="#DejaVuSans-50"/>
       <use x="63.623047" xlink:href="#DejaVuSans-48"/>
       <use x="127.246094" xlink:href="#DejaVuSans-48"/>
       <use x="190.869141" xlink:href="#DejaVuSans-48"/>
      </g>
     </g>
    </g>
    <g id="text_17">
     <!-- Channel_out [ADC code] -->
     <g transform="translate(14.798437 249.754531)rotate(-90)scale(0.1 -0.1)">
      <defs>
       <path d="M 54.890625 33.015625 
L 54.890625 0 
L 45.90625 0 
L 45.90625 32.71875 
Q 45.90625 40.484375 42.875 44.328125 
Q 39.84375 48.1875 33.796875 48.1875 
Q 26.515625 48.1875 22.3125 43.546875 
Q 18.109375 38.921875 18.109375 30.90625 
L 18.109375 0 
L 9.078125 0 
L 9.078125 75.984375 
L 18.109375 75.984375 
L 18.109375 46.1875 
Q 21.34375 51.125 25.703125 53.5625 
Q 30.078125 56 35.796875 56 
Q 45.21875 56 50.046875 50.171875 
Q 54.890625 44.34375 54.890625 33.015625 
z
" id="DejaVuSans-104"/>
       <path d="M 54.890625 33.015625 
L 54.890625 0 
L 45.90625 0 
L 45.90625 32.71875 
Q 45.90625 40.484375 42.875 44.328125 
Q 39.84375 48.1875 33.796875 48.1875 
Q 26.515625 48.1875 22.3125 43.546875 
Q 18.109375 38.921875 18.109375 30.90625 
L 18.109375 0 
L 9.078125 0 
L 9.078125 54.6875 
L 18.109375 54.6875 
L 18.109375 46.1875 
Q 21.34375 51.125 25.703125 53.5625 
Q 30.078125 56 35.796875 56 
Q 45.21875 56 50.046875 50.171875 
Q 54.890625 44.34375 54.890625 33.015625 
z
" id="DejaVuSans-110"/>
       <path d="M 8.5 21.578125 
L 8.5 54.6875 
L 17.484375 54.6875 
L 17.484375 21.921875 
Q 17.484375 14.15625 20.5 10.265625 
Q 23.53125 6.390625 29.59375 6.390625 
Q 36.859375 6.390625 41.078125 11.03125 
Q 45.3125 15.671875 45.3125 23.6875 
L 45.3125 54.6875 
L 54.296875 54.6875 
L 54.296875 0 
L 45.3125 0 
L 45.3125 8.40625 
Q 42.046875 3.421875 37.71875 1 
Q 33.40625 -1.421875 27.6875 -1.421875 
Q 18.265625 -1.421875 13.375 4.4375 
Q 8.5 10.296875 8.5 21.578125 
z
M 31.109375 56 
z
" id="DejaVuSans-117"/>
       <path d="M 34.1875 63.1875 
L 20.796875 26.90625 
L 47.609375 26.90625 
z
M 28.609375 72.90625 
L 39.796875 72.90625 
L 67.578125 0 
L 57.328125 0 
L 50.6875 18.703125 
L 17.828125 18.703125 
L 11.1875 0 
L 0.78125 0 
z
" id="DejaVuSans-65"/>
       <path d="M 19.671875 64.796875 
L 19.671875 8.109375 
L 31.59375 8.109375 
Q 46.6875 8.109375 53.6875 14.9375 
Q 60.6875 21.78125 60.6875 36.53125 
Q 60.6875 51.171875 53.6875 57.984375 
Q 46.6875 64.796875 31.59375 64.796875 
z
M 9.8125 72.90625 
L 30.078125 72.90625 
Q 51.265625 72.90625 61.171875 64.09375 
Q 71.09375 55.28125 71.09375 36.53125 
Q 71.09375 17.671875 61.125 8.828125 
Q 51.171875 0 30.078125 0 
L 9.8125 0 
z
" id="DejaVuSans-68"/>
      </defs>
      <use xlink:href="#DejaVuSans-67"/>
      <use x="69.824219" xlink:href="#DejaVuSans-104"/>
      <use x="133.203125" xlink:href="#DejaVuSans-97"/>
      <use x="194.482422" xlink:href="#DejaVuSans-110"/>
      <use x="257.861328" xlink:href="#DejaVuSans-110"/>
      <use x="321.240234" xlink:href="#DejaVuSans-101"/>
      <use x="382.763672" xlink:href="#DejaVuSans-108"/>
      <use x="410.546875" xlink:href="#DejaVuSans-95"/>
      <use x="460.546875" xlink:href="#DejaVuSans-111"/>
      <use x="521.728516" xlink:href="#DejaVuSans-117"/>
      <use x="585.107422" xlink:href="#DejaVuSans-116"/>
      <use x="624.316406" xlink:href="#DejaVuSans-32"/>
      <use x="656.103516" xlink:href="#DejaVuSans-91"/>
      <use x="695.117188" xlink:href="#DejaVuSans-65"/>
      <use x="763.525391" xlink:href="#DejaVuSans-68"/>
      <use x="840.527344" xlink:href="#DejaVuSans-67"/>
      <use x="910.351562" xlink:href="#DejaVuSans-32"/>
      <use x="942.138672" xlink:href="#DejaVuSans-99"/>
      <use x="997.119141" xlink:href="#DejaVuSans-111"/>
      <use x="1058.300781" xlink:href="#DejaVuSans-100"/>
      <use x="1121.777344" xlink:href="#DejaVuSans-101"/>
      <use x="1183.300781" xlink:href="#DejaVuSans-93"/>
     </g>
    </g>
   </g>
   <g id="line2d_31">
    <defs>
     <path d="M 0 3 
C 0.795609 3 1.55874 2.683901 2.12132 2.12132 
C 2.683901 1.55874 3 0.795609 3 0 
C 3 -0.795609 2.683901 -1.55874 2.12132 -2.12132 
C 1.55874 -2.683901 0.795609 -3 0 -3 
C -0.795609 -3 -1.55874 -2.683901 -2.12132 -2.12132 
C -2.683901 -1.55874 -3 -0.795609 -3 0 
C -3 0.795609 -2.683901 1.55874 -2.12132 2.12132 
C -1.55874 2.683901 -0.795609 3 0 3 
z
" id="m6e19e11eb7" style="stroke:#1f77b4;"/>
    </defs>
    <g clip-path="url(#p0f74324ac9)">
     <use style="fill:#1f77b4;stroke:#1f77b4;" x="65.563393" xlink:href="#m6e19e11eb7" y="251.357397"/>
     <use style="fill:#1f77b4;stroke:#1f77b4;" x="89.477679" xlink:href="#m6e19e11eb7" y="241.567802"/>
     <use style="fill:#1f77b4;stroke:#1f77b4;" x="113.391964" xlink:href="#m6e19e11eb7" y="232.060951"/>
     <use style="fill:#1f77b4;stroke:#1f77b4;" x="137.30625" xlink:href="#m6e19e11eb7" y="223.219379"/>
     <use style="fill:#1f77b4;stroke:#1f77b4;" x="161.220536" xlink:href="#m6e19e11eb7" y="214.35785"/>
     <use style="fill:#1f77b4;stroke:#1f77b4;" x="185.134821" xlink:href="#m6e19e11eb7" y="206.198191"/>
     <use style="fill:#1f77b4;stroke:#1f77b4;" x="209.049107" xlink:href="#m6e19e11eb7" y="198.091754"/>
     <use style="fill:#1f77b4;stroke:#1f77b4;" x="232.963393" xlink:href="#m6e19e11eb7" y="190.071803"/>
     <use style="fill:#1f77b4;stroke:#1f77b4;" x="256.877679" xlink:href="#m6e19e11eb7" y="182.125034"/>
     <use style="fill:#1f77b4;stroke:#1f77b4;" x="280.791964" xlink:href="#m6e19e11eb7" y="174.251445"/>
     <use style="fill:#1f77b4;stroke:#1f77b4;" x="304.70625" xlink:href="#m6e19e11eb7" y="166.890122"/>
     <use style="fill:#1f77b4;stroke:#1f77b4;" x="328.620536" xlink:href="#m6e19e11eb7" y="159.698445"/>
     <use style="fill:#1f77b4;stroke:#1f77b4;" x="352.534821" xlink:href="#m6e19e11eb7" y="152.433587"/>
     <use style="fill:#1f77b4;stroke:#1f77b4;" x="376.449107" xlink:href="#m6e19e11eb7" y="144.393679"/>
     <use style="fill:#1f77b4;stroke:#1f77b4;" x="400.363393" xlink:href="#m6e19e11eb7" y="138.229859"/>
     <use style="fill:#1f77b4;stroke:#1f77b4;" x="424.277679" xlink:href="#m6e19e11eb7" y="130.382882"/>
     <use style="fill:#1f77b4;stroke:#1f77b4;" x="448.191964" xlink:href="#m6e19e11eb7" y="123.896402"/>
     <use style="fill:#1f77b4;stroke:#1f77b4;" x="472.10625" xlink:href="#m6e19e11eb7" y="116.684767"/>
     <use style="fill:#1f77b4;stroke:#1f77b4;" x="496.020536" xlink:href="#m6e19e11eb7" y="110.175002"/>
     <use style="fill:#1f77b4;stroke:#1f77b4;" x="519.934821" xlink:href="#m6e19e11eb7" y="103.229479"/>
     <use style="fill:#1f77b4;stroke:#1f77b4;" x="543.849107" xlink:href="#m6e19e11eb7" y="96.067739"/>
    </g>
   </g>
   <g id="line2d_32">
    <path clip-path="url(#p0f74324ac9)" d="M 65.563393 245.81092 
L 89.477679 238.160226 
L 113.391964 230.509532 
L 137.30625 222.858838 
L 161.220536 215.208144 
L 185.134821 207.55745 
L 209.049107 199.906756 
L 232.963393 192.256062 
L 256.877679 184.605368 
L 280.791964 176.954673 
L 304.70625 169.303979 
L 328.620536 161.653285 
L 352.534821 154.002591 
L 376.449107 146.351897 
L 400.363393 138.701203 
L 424.277679 131.050509 
L 448.191964 123.399815 
L 472.10625 115.749121 
L 496.020536 108.098427 
L 519.934821 100.447733 
L 543.849107 92.797039 
" style="fill:none;stroke:#1f77b4;stroke-dasharray:5.55,2.4;stroke-dashoffset:0;stroke-width:1.5;"/>
   </g>
   <g id="line2d_33">
    <path clip-path="url(#p0f74324ac9)" style="fill:none;stroke:#1f77b4;stroke-dasharray:5.55,2.4;stroke-dashoffset:0;stroke-width:1.5;"/>
    <g clip-path="url(#p0f74324ac9)"/>
   </g>
   <g id="line2d_34">
    <defs>
     <path d="M 0 3 
C 0.795609 3 1.55874 2.683901 2.12132 2.12132 
C 2.683901 1.55874 3 0.795609 3 0 
C 3 -0.795609 2.683901 -1.55874 2.12132 -2.12132 
C 1.55874 -2.683901 0.795609 -3 0 -3 
C -0.795609 -3 -1.55874 -2.683901 -2.12132 -2.12132 
C -2.683901 -1.55874 -3 -0.795609 -3 0 
C -3 0.795609 -2.683901 1.55874 -2.12132 2.12132 
C -1.55874 2.683901 -0.795609 3 0 3 
z
" id="mf5c5b64235" style="stroke:#ff7f0e;"/>
    </defs>
    <g clip-path="url(#p0f74324ac9)">
     <use style="fill:#ff7f0e;stroke:#ff7f0e;" x="65.563393" xlink:href="#mf5c5b64235" y="270.347815"/>
     <use style="fill:#ff7f0e;stroke:#ff7f0e;" x="89.477679" xlink:href="#mf5c5b64235" y="261.230152"/>
     <use style="fill:#ff7f0e;stroke:#ff7f0e;" x="113.391964" xlink:href="#mf5c5b64235" y="251.98276"/>
     <use style="fill:#ff7f0e;stroke:#ff7f0e;" x="137.30625" xlink:href="#mf5c5b64235" y="243.66676"/>
     <use style="fill:#ff7f0e;stroke:#ff7f0e;" x="161.220536" xlink:href="#mf5c5b64235" y="235.367392"/>
     <use style="fill:#ff7f0e;stroke:#ff7f0e;" x="185.134821" xlink:href="#mf5c5b64235" y="227.759915"/>
     <use style="fill:#ff7f0e;stroke:#ff7f0e;" x="209.049107" xlink:href="#mf5c5b64235" y="219.879674"/>
     <use style="fill:#ff7f0e;stroke:#ff7f0e;" x="232.963393" xlink:href="#mf5c5b64235" y="211.959515"/>
     <use style="fill:#ff7f0e;stroke:#ff7f0e;" x="256.877679" xlink:href="#mf5c5b64235" y="204.671373"/>
     <use style="fill:#ff7f0e;stroke:#ff7f0e;" x="280.791964" xlink:href="#mf5c5b64235" y="197.253501"/>
     <use style="fill:#ff7f0e;stroke:#ff7f0e;" x="304.70625" xlink:href="#mf5c5b64235" y="190.234797"/>
     <use style="fill:#ff7f0e;stroke:#ff7f0e;" x="328.620536" xlink:href="#mf5c5b64235" y="182.886779"/>
     <use style="fill:#ff7f0e;stroke:#ff7f0e;" x="352.534821" xlink:href="#mf5c5b64235" y="175.838138"/>
     <use style="fill:#ff7f0e;stroke:#ff7f0e;" x="376.449107" xlink:href="#mf5c5b64235" y="169.002386"/>
     <use style="fill:#ff7f0e;stroke:#ff7f0e;" x="400.363393" xlink:href="#mf5c5b64235" y="162.023599"/>
     <use style="fill:#ff7f0e;stroke:#ff7f0e;" x="424.277679" xlink:href="#mf5c5b64235" y="155.540445"/>
     <use style="fill:#ff7f0e;stroke:#ff7f0e;" x="448.191964" xlink:href="#mf5c5b64235" y="148.668103"/>
     <use style="fill:#ff7f0e;stroke:#ff7f0e;" x="472.10625" xlink:href="#mf5c5b64235" y="142.098463"/>
     <use style="fill:#ff7f0e;stroke:#ff7f0e;" x="496.020536" xlink:href="#mf5c5b64235" y="135.362503"/>
     <use style="fill:#ff7f0e;stroke:#ff7f0e;" x="519.934821" xlink:href="#mf5c5b64235" y="128.32384"/>
     <use style="fill:#ff7f0e;stroke:#ff7f0e;" x="543.849107" xlink:href="#mf5c5b64235" y="122.219896"/>
    </g>
   </g>
   <g id="line2d_35">
    <path clip-path="url(#p0f74324ac9)" d="M 65.563393 265.387403 
L 89.477679 258.069224 
L 113.391964 250.751045 
L 137.30625 243.432865 
L 161.220536 236.114686 
L 185.134821 228.796507 
L 209.049107 221.478327 
L 232.963393 214.160148 
L 256.877679 206.841969 
L 280.791964 199.523789 
L 304.70625 192.20561 
L 328.620536 184.88743 
L 352.534821 177.569251 
L 376.449107 170.251072 
L 400.363393 162.932892 
L 424.277679 155.614713 
L 448.191964 148.296534 
L 472.10625 140.978354 
L 496.020536 133.660175 
L 519.934821 126.341996 
L 543.849107 119.023816 
" style="fill:none;stroke:#ff7f0e;stroke-dasharray:5.55,2.4;stroke-dashoffset:0;stroke-width:1.5;"/>
   </g>
   <g id="line2d_36">
    <path clip-path="url(#p0f74324ac9)" style="fill:none;stroke:#ff7f0e;stroke-dasharray:5.55,2.4;stroke-dashoffset:0;stroke-width:1.5;"/>
    <g clip-path="url(#p0f74324ac9)"/>
   </g>
   <g id="line2d_37">
    <defs>
     <path d="M 0 3 
C 0.795609 3 1.55874 2.683901 2.12132 2.12132 
C 2.683901 1.55874 3 0.795609 3 0 
C 3 -0.795609 2.683901 -1.55874 2.12132 -2.12132 
C 1.55874 -2.683901 0.795609 -3 0 -3 
C -0.795609 -3 -1.55874 -2.683901 -2.12132 -2.12132 
C -2.683901 -1.55874 -3 -0.795609 -3 0 
C -3 0.795609 -2.683901 1.55874 -2.12132 2.12132 
C -1.55874 2.683901 -0.795609 3 0 3 
z
" id="me2130db3dd" style="stroke:#2ca02c;"/>
    </defs>
    <g clip-path="url(#p0f74324ac9)">
     <use style="fill:#2ca02c;stroke:#2ca02c;" x="65.563393" xlink:href="#me2130db3dd" y="278.766933"/>
     <use style="fill:#2ca02c;stroke:#2ca02c;" x="89.477679" xlink:href="#me2130db3dd" y="269.815591"/>
     <use style="fill:#2ca02c;stroke:#2ca02c;" x="113.391964" xlink:href="#me2130db3dd" y="261.173603"/>
     <use style="fill:#2ca02c;stroke:#2ca02c;" x="137.30625" xlink:href="#me2130db3dd" y="252.608123"/>
     <use style="fill:#2ca02c;stroke:#2ca02c;" x="161.220536" xlink:href="#me2130db3dd" y="244.701271"/>
     <use style="fill:#2ca02c;stroke:#2ca02c;" x="185.134821" xlink:href="#me2130db3dd" y="237.250135"/>
     <use style="fill:#2ca02c;stroke:#2ca02c;" x="209.049107" xlink:href="#me2130db3dd" y="229.313344"/>
     <use style="fill:#2ca02c;stroke:#2ca02c;" x="232.963393" xlink:href="#me2130db3dd" y="221.998591"/>
     <use style="fill:#2ca02c;stroke:#2ca02c;" x="256.877679" xlink:href="#me2130db3dd" y="214.35785"/>
     <use style="fill:#2ca02c;stroke:#2ca02c;" x="280.791964" xlink:href="#me2130db3dd" y="207.196111"/>
     <use style="fill:#2ca02c;stroke:#2ca02c;" x="304.70625" xlink:href="#me2130db3dd" y="200.124184"/>
     <use style="fill:#2ca02c;stroke:#2ca02c;" x="328.620536" xlink:href="#me2130db3dd" y="193.358287"/>
     <use style="fill:#2ca02c;stroke:#2ca02c;" x="352.534821" xlink:href="#me2130db3dd" y="186.738751"/>
     <use style="fill:#2ca02c;stroke:#2ca02c;" x="376.449107" xlink:href="#me2130db3dd" y="179.88304"/>
     <use style="fill:#2ca02c;stroke:#2ca02c;" x="400.363393" xlink:href="#me2130db3dd" y="173.037309"/>
     <use style="fill:#2ca02c;stroke:#2ca02c;" x="424.277679" xlink:href="#me2130db3dd" y="166.181599"/>
     <use style="fill:#2ca02c;stroke:#2ca02c;" x="448.191964" xlink:href="#me2130db3dd" y="159.898029"/>
     <use style="fill:#2ca02c;stroke:#2ca02c;" x="472.10625" xlink:href="#me2130db3dd" y="153.434834"/>
     <use style="fill:#2ca02c;stroke:#2ca02c;" x="496.020536" xlink:href="#me2130db3dd" y="146.91509"/>
     <use style="fill:#2ca02c;stroke:#2ca02c;" x="519.934821" xlink:href="#me2130db3dd" y="140.425283"/>
     <use style="fill:#2ca02c;stroke:#2ca02c;" x="543.849107" xlink:href="#me2130db3dd" y="134.131735"/>
    </g>
   </g>
   <g id="line2d_38">
    <path clip-path="url(#p0f74324ac9)" d="M 65.563393 273.921693 
L 89.477679 266.773856 
L 113.391964 259.626018 
L 137.30625 252.478181 
L 161.220536 245.330343 
L 185.134821 238.182506 
L 209.049107 231.034668 
L 232.963393 223.886831 
L 256.877679 216.738993 
L 280.791964 209.591156 
L 304.70625 202.443319 
L 328.620536 195.295481 
L 352.534821 188.147644 
L 376.449107 180.999806 
L 400.363393 173.851969 
L 424.277679 166.704131 
L 448.191964 159.556294 
L 472.10625 152.408457 
L 496.020536 145.260619 
L 519.934821 138.112782 
L 543.849107 130.964944 
" style="fill:none;stroke:#2ca02c;stroke-dasharray:5.55,2.4;stroke-dashoffset:0;stroke-width:1.5;"/>
   </g>
   <g id="line2d_39">
    <path clip-path="url(#p0f74324ac9)" style="fill:none;stroke:#2ca02c;stroke-dasharray:5.55,2.4;stroke-dashoffset:0;stroke-width:1.5;"/>
    <g clip-path="url(#p0f74324ac9)"/>
   </g>
   <g id="line2d_40">
    <defs>
     <path d="M 0 3 
C 0.795609 3 1.55874 2.683901 2.12132 2.12132 
C 2.683901 1.55874 3 0.795609 3 0 
C 3 -0.795609 2.683901 -1.55874 2.12132 -2.12132 
C 1.55874 -2.683901 0.795609 -3 0 -3 
C -0.795609 -3 -1.55874 -2.683901 -2.12132 -2.12132 
C -2.683901 -1.55874 -3 -0.795609 -3 0 
C -3 0.795609 -2.683901 1.55874 -2.12132 2.12132 
C -1.55874 2.683901 -0.795609 3 0 3 
z
" id="med89b9ffae" style="stroke:#d62728;"/>
    </defs>
    <g clip-path="url(#p0f74324ac9)">
     <use style="fill:#d62728;stroke:#d62728;" x="65.563393" xlink:href="#med89b9ffae" y="283.866304"/>
     <use style="fill:#d62728;stroke:#d62728;" x="89.477679" xlink:href="#med89b9ffae" y="275.204359"/>
     <use style="fill:#d62728;stroke:#d62728;" x="113.391964" xlink:href="#med89b9ffae" y="266.276301"/>
     <use style="fill:#d62728;stroke:#d62728;" x="137.30625" xlink:href="#med89b9ffae" y="257.837224"/>
     <use style="fill:#d62728;stroke:#d62728;" x="161.220536" xlink:href="#med89b9ffae" y="249.73744"/>
     <use style="fill:#d62728;stroke:#d62728;" x="185.134821" xlink:href="#med89b9ffae" y="242.236408"/>
     <use style="fill:#d62728;stroke:#d62728;" x="209.049107" xlink:href="#med89b9ffae" y="236.215624"/>
     <use style="fill:#d62728;stroke:#d62728;" x="232.963393" xlink:href="#med89b9ffae" y="227.66345"/>
     <use style="fill:#d62728;stroke:#d62728;" x="256.877679" xlink:href="#med89b9ffae" y="220.451815"/>
     <use style="fill:#d62728;stroke:#d62728;" x="280.791964" xlink:href="#med89b9ffae" y="212.86097"/>
     <use style="fill:#d62728;stroke:#d62728;" x="304.70625" xlink:href="#med89b9ffae" y="205.975322"/>
     <use style="fill:#d62728;stroke:#d62728;" x="328.620536" xlink:href="#med89b9ffae" y="198.89009"/>
     <use style="fill:#d62728;stroke:#d62728;" x="352.534821" xlink:href="#med89b9ffae" y="192.390304"/>
     <use style="fill:#d62728;stroke:#d62728;" x="376.449107" xlink:href="#med89b9ffae" y="185.647691"/>
     <use style="fill:#d62728;stroke:#d62728;" x="400.363393" xlink:href="#med89b9ffae" y="179.124621"/>
     <use style="fill:#d62728;stroke:#d62728;" x="424.277679" xlink:href="#med89b9ffae" y="172.401967"/>
     <use style="fill:#d62728;stroke:#d62728;" x="448.191964" xlink:href="#med89b9ffae" y="165.892202"/>
     <use style="fill:#d62728;stroke:#d62728;" x="472.10625" xlink:href="#med89b9ffae" y="159.655202"/>
     <use style="fill:#d62728;stroke:#d62728;" x="496.020536" xlink:href="#med89b9ffae" y="153.145437"/>
     <use style="fill:#d62728;stroke:#d62728;" x="519.934821" xlink:href="#med89b9ffae" y="146.778707"/>
     <use style="fill:#d62728;stroke:#d62728;" x="543.849107" xlink:href="#med89b9ffae" y="140.688069"/>
    </g>
   </g>
   <g id="line2d_41">
    <path clip-path="url(#p0f74324ac9)" d="M 65.563393 279.101229 
L 89.477679 272.014628 
L 113.391964 264.928026 
L 137.30625 257.841425 
L 161.220536 250.754823 
L 185.134821 243.668222 
L 209.049107 236.58162 
L 232.963393 229.495019 
L 256.877679 222.408417 
L 280.791964 215.321816 
L 304.70625 208.235215 
L 328.620536 201.148613 
L 352.534821 194.062012 
L 376.449107 186.97541 
L 400.363393 179.888809 
L 424.277679 172.802207 
L 448.191964 165.715606 
L 472.10625 158.629005 
L 496.020536 151.542403 
L 519.934821 144.455802 
L 543.849107 137.3692 
" style="fill:none;stroke:#d62728;stroke-dasharray:5.55,2.4;stroke-dashoffset:0;stroke-width:1.5;"/>
   </g>
   <g id="line2d_42">
    <path clip-path="url(#p0f74324ac9)" style="fill:none;stroke:#d62728;stroke-dasharray:5.55,2.4;stroke-dashoffset:0;stroke-width:1.5;"/>
    <g clip-path="url(#p0f74324ac9)"/>
   </g>
   <g id="line2d_43">
    <defs>
     <path d="M 0 3 
C 0.795609 3 1.55874 2.683901 2.12132 2.12132 
C 2.683901 1.55874 3 0.795609 3 0 
C 3 -0.795609 2.683901 -1.55874 2.12132 -2.12132 
C 1.55874 -2.683901 0.795609 -3 0 -3 
C -0.795609 -3 -1.55874 -2.683901 -2.12132 -2.12132 
C -2.683901 -1.55874 -3 -0.795609 -3 0 
C -3 0.795609 -2.683901 1.55874 -2.12132 2.12132 
C -1.55874 2.683901 -0.795609 3 0 3 
z
" id="m58acd63659" style="stroke:#9467bd;"/>
    </defs>
    <g clip-path="url(#p0f74324ac9)">
     <use style="fill:#9467bd;stroke:#9467bd;" x="65.563393" xlink:href="#m58acd63659" y="286.783557"/>
     <use style="fill:#9467bd;stroke:#9467bd;" x="89.477679" xlink:href="#m58acd63659" y="278.317869"/>
     <use style="fill:#9467bd;stroke:#9467bd;" x="113.391964" xlink:href="#m58acd63659" y="269.705819"/>
     <use style="fill:#9467bd;stroke:#9467bd;" x="137.30625" xlink:href="#m58acd63659" y="261.566119"/>
     <use style="fill:#9467bd;stroke:#9467bd;" x="161.220536" xlink:href="#m58acd63659" y="253.250119"/>
     <use style="fill:#9467bd;stroke:#9467bd;" x="185.134821" xlink:href="#m58acd63659" y="245.539523"/>
     <use style="fill:#9467bd;stroke:#9467bd;" x="209.049107" xlink:href="#m58acd63659" y="238.241402"/>
     <use style="fill:#9467bd;stroke:#9467bd;" x="232.963393" xlink:href="#m58acd63659" y="230.876752"/>
     <use style="fill:#9467bd;stroke:#9467bd;" x="256.877679" xlink:href="#m58acd63659" y="223.718339"/>
     <use style="fill:#9467bd;stroke:#9467bd;" x="280.791964" xlink:href="#m58acd63659" y="216.529989"/>
     <use style="fill:#9467bd;stroke:#9467bd;" x="304.70625" xlink:href="#m58acd63659" y="209.777397"/>
     <use style="fill:#9467bd;stroke:#9467bd;" x="328.620536" xlink:href="#m58acd63659" y="203.058069"/>
     <use style="fill:#9467bd;stroke:#9467bd;" x="352.534821" xlink:href="#m58acd63659" y="196.039365"/>
     <use style="fill:#9467bd;stroke:#9467bd;" x="376.449107" xlink:href="#m58acd63659" y="189.473051"/>
     <use style="fill:#9467bd;stroke:#9467bd;" x="400.363393" xlink:href="#m58acd63659" y="183.119627"/>
     <use style="fill:#9467bd;stroke:#9467bd;" x="424.277679" xlink:href="#m58acd63659" y="176.486786"/>
     <use style="fill:#9467bd;stroke:#9467bd;" x="448.191964" xlink:href="#m58acd63659" y="169.817354"/>
     <use style="fill:#9467bd;stroke:#9467bd;" x="472.10625" xlink:href="#m58acd63659" y="163.427339"/>
     <use style="fill:#9467bd;stroke:#9467bd;" x="496.020536" xlink:href="#m58acd63659" y="157.017367"/>
     <use style="fill:#9467bd;stroke:#9467bd;" x="519.934821" xlink:href="#m58acd63659" y="151.053131"/>
     <use style="fill:#9467bd;stroke:#9467bd;" x="543.849107" xlink:href="#m58acd63659" y="144.480165"/>
    </g>
   </g>
   <g id="line2d_44">
    <path clip-path="url(#p0f74324ac9)" d="M 65.563393 282.164167 
L 89.477679 275.130032 
L 113.391964 268.095897 
L 137.30625 261.061761 
L 161.220536 254.027626 
L 185.134821 246.993491 
L 209.049107 239.959356 
L 232.963393 232.925221 
L 256.877679 225.891086 
L 280.791964 218.856951 
L 304.70625 211.822816 
L 328.620536 204.788681 
L 352.534821 197.754546 
L 376.449107 190.720411 
L 400.363393 183.686276 
L 424.277679 176.652141 
L 448.191964 169.618006 
L 472.10625 162.583871 
L 496.020536 155.549736 
L 519.934821 148.515601 
L 543.849107 141.481466 
" style="fill:none;stroke:#9467bd;stroke-dasharray:5.55,2.4;stroke-dashoffset:0;stroke-width:1.5;"/>
   </g>
   <g id="line2d_45">
    <path clip-path="url(#p0f74324ac9)" style="fill:none;stroke:#9467bd;stroke-dasharray:5.55,2.4;stroke-dashoffset:0;stroke-width:1.5;"/>
    <g clip-path="url(#p0f74324ac9)"/>
   </g>
   <g id="line2d_46">
    <defs>
     <path d="M 0 3 
C 0.795609 3 1.55874 2.683901 2.12132 2.12132 
C 2.683901 1.55874 3 0.795609 3 0 
C 3 -0.795609 2.683901 -1.55874 2.12132 -2.12132 
C 1.55874 -2.683901 0.795609 -3 0 -3 
C -0.795609 -3 -1.55874 -2.683901 -2.12132 -2.12132 
C -2.683901 -1.55874 -3 -0.795609 -3 0 
C -3 0.795609 -2.683901 1.55874 -2.12132 2.12132 
C -1.55874 2.683901 -0.795609 3 0 3 
z
" id="mee2e59744f" style="stroke:#8c564b;"/>
    </defs>
    <g clip-path="url(#p0f74324ac9)">
     <use style="fill:#8c564b;stroke:#8c564b;" x="65.563393" xlink:href="#mee2e59744f" y="289.015571"/>
     <use style="fill:#8c564b;stroke:#8c564b;" x="89.477679" xlink:href="#mee2e59744f" y="280.513293"/>
     <use style="fill:#8c564b;stroke:#8c564b;" x="113.391964" xlink:href="#mee2e59744f" y="272.090848"/>
     <use style="fill:#8c564b;stroke:#8c564b;" x="137.30625" xlink:href="#mee2e59744f" y="263.981085"/>
     <use style="fill:#8c564b;stroke:#8c564b;" x="161.220536" xlink:href="#mee2e59744f" y="255.60521"/>
     <use style="fill:#8c564b;stroke:#8c564b;" x="185.134821" xlink:href="#mee2e59744f" y="248.193991"/>
     <use style="fill:#8c564b;stroke:#8c564b;" x="209.049107" xlink:href="#mee2e59744f" y="240.852626"/>
     <use style="fill:#8c564b;stroke:#8c564b;" x="232.963393" xlink:href="#mee2e59744f" y="233.507935"/>
     <use style="fill:#8c564b;stroke:#8c564b;" x="256.877679" xlink:href="#mee2e59744f" y="226.436008"/>
     <use style="fill:#8c564b;stroke:#8c564b;" x="280.791964" xlink:href="#mee2e59744f" y="219.68009"/>
     <use style="fill:#8c564b;stroke:#8c564b;" x="304.70625" xlink:href="#mee2e59744f" y="212.039349"/>
     <use style="fill:#8c564b;stroke:#8c564b;" x="328.620536" xlink:href="#mee2e59744f" y="205.689251"/>
     <use style="fill:#8c564b;stroke:#8c564b;" x="352.534821" xlink:href="#mee2e59744f" y="198.956618"/>
     <use style="fill:#8c564b;stroke:#8c564b;" x="376.449107" xlink:href="#mee2e59744f" y="192.363693"/>
     <use style="fill:#8c564b;stroke:#8c564b;" x="400.363393" xlink:href="#mee2e59744f" y="185.75081"/>
     <use style="fill:#8c564b;stroke:#8c564b;" x="424.277679" xlink:href="#mee2e59744f" y="179.447282"/>
     <use style="fill:#8c564b;stroke:#8c564b;" x="448.191964" xlink:href="#mee2e59744f" y="172.817767"/>
     <use style="fill:#8c564b;stroke:#8c564b;" x="472.10625" xlink:href="#mee2e59744f" y="166.344592"/>
     <use style="fill:#8c564b;stroke:#8c564b;" x="496.020536" xlink:href="#mee2e59744f" y="160.184099"/>
     <use style="fill:#8c564b;stroke:#8c564b;" x="519.934821" xlink:href="#mee2e59744f" y="153.897203"/>
     <use style="fill:#8c564b;stroke:#8c564b;" x="543.849107" xlink:href="#mee2e59744f" y="147.922989"/>
    </g>
   </g>
   <g id="line2d_47">
    <path clip-path="url(#p0f74324ac9)" d="M 65.563393 284.439295 
L 89.477679 277.449129 
L 113.391964 270.458962 
L 137.30625 263.468796 
L 161.220536 256.47863 
L 185.134821 249.488464 
L 209.049107 242.498298 
L 232.963393 235.508132 
L 256.877679 228.517966 
L 280.791964 221.5278 
L 304.70625 214.537634 
L 328.620536 207.547468 
L 352.534821 200.557302 
L 376.449107 193.567136 
L 400.363393 186.576969 
L 424.277679 179.586803 
L 448.191964 172.596637 
L 472.10625 165.606471 
L 496.020536 158.616305 
L 519.934821 151.626139 
L 543.849107 144.635973 
" style="fill:none;stroke:#8c564b;stroke-dasharray:5.55,2.4;stroke-dashoffset:0;stroke-width:1.5;"/>
   </g>
   <g id="line2d_48">
    <path clip-path="url(#p0f74324ac9)" style="fill:none;stroke:#8c564b;stroke-dasharray:5.55,2.4;stroke-dashoffset:0;stroke-width:1.5;"/>
    <g clip-path="url(#p0f74324ac9)"/>
   </g>
   <g id="line2d_49">
    <defs>
     <path d="M 0 3 
C 0.795609 3 1.55874 2.683901 2.12132 2.12132 
C 2.683901 1.55874 3 0.795609 3 0 
C 3 -0.795609 2.683901 -1.55874 2.12132 -2.12132 
C 1.55874 -2.683901 0.795609 -3 0 -3 
C -0.795609 -3 -1.55874 -2.683901 -2.12132 -2.12132 
C -2.683901 -1.55874 -3 -0.795609 -3 0 
C -3 0.795609 -2.683901 1.55874 -2.12132 2.12132 
C -1.55874 2.683901 -0.795609 3 0 3 
z
" id="m52223780c4" style="stroke:#e377c2;"/>
    </defs>
    <g clip-path="url(#p0f74324ac9)">
     <use style="fill:#e377c2;stroke:#e377c2;" x="65.563393" xlink:href="#m52223780c4" y="290.668792"/>
     <use style="fill:#e377c2;stroke:#e377c2;" x="89.477679" xlink:href="#m52223780c4" y="282.116618"/>
     <use style="fill:#e377c2;stroke:#e377c2;" x="113.391964" xlink:href="#m52223780c4" y="273.654256"/>
     <use style="fill:#e377c2;stroke:#e377c2;" x="137.30625" xlink:href="#m52223780c4" y="265.434722"/>
     <use style="fill:#e377c2;stroke:#e377c2;" x="161.220536" xlink:href="#m52223780c4" y="257.474647"/>
     <use style="fill:#e377c2;stroke:#e377c2;" x="185.134821" xlink:href="#m52223780c4" y="249.917066"/>
     <use style="fill:#e377c2;stroke:#e377c2;" x="209.049107" xlink:href="#m52223780c4" y="242.569048"/>
     <use style="fill:#e377c2;stroke:#e377c2;" x="232.963393" xlink:href="#m52223780c4" y="235.014794"/>
     <use style="fill:#e377c2;stroke:#e377c2;" x="256.877679" xlink:href="#m52223780c4" y="228.278834"/>
     <use style="fill:#e377c2;stroke:#e377c2;" x="280.791964" xlink:href="#m52223780c4" y="221.000671"/>
     <use style="fill:#e377c2;stroke:#e377c2;" x="304.70625" xlink:href="#m52223780c4" y="213.962008"/>
     <use style="fill:#e377c2;stroke:#e377c2;" x="328.620536" xlink:href="#m52223780c4" y="207.073034"/>
     <use style="fill:#e377c2;stroke:#e377c2;" x="352.534821" xlink:href="#m52223780c4" y="200.503394"/>
     <use style="fill:#e377c2;stroke:#e377c2;" x="376.449107" xlink:href="#m52223780c4" y="193.947059"/>
     <use style="fill:#e377c2;stroke:#e377c2;" x="400.363393" xlink:href="#m52223780c4" y="187.61692"/>
     <use style="fill:#e377c2;stroke:#e377c2;" x="424.277679" xlink:href="#m52223780c4" y="180.977426"/>
     <use style="fill:#e377c2;stroke:#e377c2;" x="448.191964" xlink:href="#m52223780c4" y="174.377848"/>
     <use style="fill:#e377c2;stroke:#e377c2;" x="472.10625" xlink:href="#m52223780c4" y="168.144175"/>
     <use style="fill:#e377c2;stroke:#e377c2;" x="496.020536" xlink:href="#m52223780c4" y="161.830667"/>
     <use style="fill:#e377c2;stroke:#e377c2;" x="519.934821" xlink:href="#m52223780c4" y="155.696786"/>
     <use style="fill:#e377c2;stroke:#e377c2;" x="543.849107" xlink:href="#m52223780c4" y="149.44648"/>
    </g>
   </g>
   <g id="line2d_50">
    <path clip-path="url(#p0f74324ac9)" d="M 65.563393 286.064666 
L 89.477679 279.075843 
L 113.391964 272.087021 
L 137.30625 265.098198 
L 161.220536 258.109376 
L 185.134821 251.120553 
L 209.049107 244.13173 
L 232.963393 237.142908 
L 256.877679 230.154085 
L 280.791964 223.165263 
L 304.70625 216.17644 
L 328.620536 209.187618 
L 352.534821 202.198795 
L 376.449107 195.209973 
L 400.363393 188.22115 
L 424.277679 181.232327 
L 448.191964 174.243505 
L 472.10625 167.254682 
L 496.020536 160.26586 
L 519.934821 153.277037 
L 543.849107 146.288215 
" style="fill:none;stroke:#e377c2;stroke-dasharray:5.55,2.4;stroke-dashoffset:0;stroke-width:1.5;"/>
   </g>
   <g id="line2d_51">
    <path clip-path="url(#p0f74324ac9)" style="fill:none;stroke:#e377c2;stroke-dasharray:5.55,2.4;stroke-dashoffset:0;stroke-width:1.5;"/>
    <g clip-path="url(#p0f74324ac9)"/>
   </g>
   <g id="line2d_52">
    <defs>
     <path d="M 0 3 
C 0.795609 3 1.55874 2.683901 2.12132 2.12132 
C 2.683901 1.55874 3 0.795609 3 0 
C 3 -0.795609 2.683901 -1.55874 2.12132 -2.12132 
C 1.55874 -2.683901 0.795609 -3 0 -3 
C -0.795609 -3 -1.55874 -2.683901 -2.12132 -2.12132 
C -2.683901 -1.55874 -3 -0.795609 -3 0 
C -3 0.795609 -2.683901 1.55874 -2.12132 2.12132 
C -1.55874 2.683901 -0.795609 3 0 3 
z
" id="ma0917582d3" style="stroke:#7f7f7f;"/>
    </defs>
    <g clip-path="url(#p0f74324ac9)">
     <use style="fill:#7f7f7f;stroke:#7f7f7f;" x="65.563393" xlink:href="#ma0917582d3" y="291.536983"/>
     <use style="fill:#7f7f7f;stroke:#7f7f7f;" x="89.477679" xlink:href="#ma0917582d3" y="282.865058"/>
     <use style="fill:#7f7f7f;stroke:#7f7f7f;" x="113.391964" xlink:href="#ma0917582d3" y="274.525773"/>
     <use style="fill:#7f7f7f;stroke:#7f7f7f;" x="137.30625" xlink:href="#ma0917582d3" y="266.725365"/>
     <use style="fill:#7f7f7f;stroke:#7f7f7f;" x="161.220536" xlink:href="#ma0917582d3" y="258.705415"/>
     <use style="fill:#7f7f7f;stroke:#7f7f7f;" x="185.134821" xlink:href="#ma0917582d3" y="250.798562"/>
     <use style="fill:#7f7f7f;stroke:#7f7f7f;" x="209.049107" xlink:href="#ma0917582d3" y="243.503767"/>
     <use style="fill:#7f7f7f;stroke:#7f7f7f;" x="232.963393" xlink:href="#ma0917582d3" y="236.278826"/>
     <use style="fill:#7f7f7f;stroke:#7f7f7f;" x="256.877679" xlink:href="#ma0917582d3" y="229.329976"/>
     <use style="fill:#7f7f7f;stroke:#7f7f7f;" x="280.791964" xlink:href="#ma0917582d3" y="222.25805"/>
     <use style="fill:#7f7f7f;stroke:#7f7f7f;" x="304.70625" xlink:href="#ma0917582d3" y="215.275936"/>
     <use style="fill:#7f7f7f;stroke:#7f7f7f;" x="328.620536" xlink:href="#ma0917582d3" y="208.340392"/>
     <use style="fill:#7f7f7f;stroke:#7f7f7f;" x="352.534821" xlink:href="#ma0917582d3" y="201.5878"/>
     <use style="fill:#7f7f7f;stroke:#7f7f7f;" x="376.449107" xlink:href="#ma0917582d3" y="195.117952"/>
     <use style="fill:#7f7f7f;stroke:#7f7f7f;" x="400.363393" xlink:href="#ma0917582d3" y="188.525027"/>
     <use style="fill:#7f7f7f;stroke:#7f7f7f;" x="424.277679" xlink:href="#ma0917582d3" y="182.34125"/>
     <use style="fill:#7f7f7f;stroke:#7f7f7f;" x="448.191964" xlink:href="#ma0917582d3" y="175.598637"/>
     <use style="fill:#7f7f7f;stroke:#7f7f7f;" x="472.10625" xlink:href="#ma0917582d3" y="169.132115"/>
     <use style="fill:#7f7f7f;stroke:#7f7f7f;" x="496.020536" xlink:href="#ma0917582d3" y="163.024845"/>
     <use style="fill:#7f7f7f;stroke:#7f7f7f;" x="519.934821" xlink:href="#ma0917582d3" y="156.987429"/>
     <use style="fill:#7f7f7f;stroke:#7f7f7f;" x="543.849107" xlink:href="#ma0917582d3" y="150.640658"/>
    </g>
   </g>
   <g id="line2d_53">
    <path clip-path="url(#p0f74324ac9)" d="M 65.563393 287.040453 
L 89.477679 280.065454 
L 113.391964 273.090456 
L 137.30625 266.115457 
L 161.220536 259.140459 
L 185.134821 252.16546 
L 209.049107 245.190462 
L 232.963393 238.215463 
L 256.877679 231.240465 
L 280.791964 224.265466 
L 304.70625 217.290467 
L 328.620536 210.315469 
L 352.534821 203.34047 
L 376.449107 196.365472 
L 400.363393 189.390473 
L 424.277679 182.415475 
L 448.191964 175.440476 
L 472.10625 168.465477 
L 496.020536 161.490479 
L 519.934821 154.51548 
L 543.849107 147.540482 
" style="fill:none;stroke:#7f7f7f;stroke-dasharray:5.55,2.4;stroke-dashoffset:0;stroke-width:1.5;"/>
   </g>
   <g id="line2d_54">
    <path clip-path="url(#p0f74324ac9)" style="fill:none;stroke:#7f7f7f;stroke-dasharray:5.55,2.4;stroke-dashoffset:0;stroke-width:1.5;"/>
    <g clip-path="url(#p0f74324ac9)"/>
   </g>
   <g id="patch_3">
    <path d="M 53.60625 354.958125 
L 53.60625 22.318125 
" style="fill:none;stroke:#000000;stroke-linecap:square;stroke-linejoin:miter;stroke-width:0.8;"/>
   </g>
   <g id="patch_4">
    <path d="M 555.80625 354.958125 
L 555.80625 22.318125 
" style="fill:none;stroke:#000000;stroke-linecap:square;stroke-linejoin:miter;stroke-width:0.8;"/>
   </g>
   <g id="patch_5">
    <path d="M 53.60625 354.958125 
L 555.80625 354.958125 
" style="fill:none;stroke:#000000;stroke-linecap:square;stroke-linejoin:miter;stroke-width:0.8;"/>
   </g>
   <g id="patch_6">
    <path d="M 53.60625 22.318125 
L 555.80625 22.318125 
" style="fill:none;stroke:#000000;stroke-linecap:square;stroke-linejoin:miter;stroke-width:0.8;"/>
   </g>
   <g id="text_18">
    <!-- High energy gain for channel #30 -->
    <g transform="translate(202.862813 16.318125)scale(0.12 -0.12)">
     <defs>
      <path d="M 9.8125 72.90625 
L 19.671875 72.90625 
L 19.671875 43.015625 
L 55.515625 43.015625 
L 55.515625 72.90625 
L 65.375 72.90625 
L 65.375 0 
L 55.515625 0 
L 55.515625 34.71875 
L 19.671875 34.71875 
L 19.671875 0 
L 9.8125 0 
z
" id="DejaVuSans-72"/>
      <path d="M 9.421875 54.6875 
L 18.40625 54.6875 
L 18.40625 0 
L 9.421875 0 
z
M 9.421875 75.984375 
L 18.40625 75.984375 
L 18.40625 64.59375 
L 9.421875 64.59375 
z
" id="DejaVuSans-105"/>
      <path d="M 41.109375 46.296875 
Q 39.59375 47.171875 37.8125 47.578125 
Q 36.03125 48 33.890625 48 
Q 26.265625 48 22.1875 43.046875 
Q 18.109375 38.09375 18.109375 28.8125 
L 18.109375 0 
L 9.078125 0 
L 9.078125 54.6875 
L 18.109375 54.6875 
L 18.109375 46.1875 
Q 20.953125 51.171875 25.484375 53.578125 
Q 30.03125 56 36.53125 56 
Q 37.453125 56 38.578125 55.875 
Q 39.703125 55.765625 41.0625 55.515625 
z
" id="DejaVuSans-114"/>
      <path d="M 32.171875 -5.078125 
Q 28.375 -14.84375 24.75 -17.8125 
Q 21.140625 -20.796875 15.09375 -20.796875 
L 7.90625 -20.796875 
L 7.90625 -13.28125 
L 13.1875 -13.28125 
Q 16.890625 -13.28125 18.9375 -11.515625 
Q 21 -9.765625 23.484375 -3.21875 
L 25.09375 0.875 
L 2.984375 54.6875 
L 12.5 54.6875 
L 29.59375 11.921875 
L 46.6875 54.6875 
L 56.203125 54.6875 
z
" id="DejaVuSans-121"/>
      <path d="M 37.109375 75.984375 
L 37.109375 68.5 
L 28.515625 68.5 
Q 23.6875 68.5 21.796875 66.546875 
Q 19.921875 64.59375 19.921875 59.515625 
L 19.921875 54.6875 
L 34.71875 54.6875 
L 34.71875 47.703125 
L 19.921875 47.703125 
L 19.921875 0 
L 10.890625 0 
L 10.890625 47.703125 
L 2.296875 47.703125 
L 2.296875 54.6875 
L 10.890625 54.6875 
L 10.890625 58.5 
Q 10.890625 67.625 15.140625 71.796875 
Q 19.390625 75.984375 28.609375 75.984375 
z
" id="DejaVuSans-102"/>
      <path d="M 51.125 44 
L 36.921875 44 
L 32.8125 27.6875 
L 47.125 27.6875 
z
M 43.796875 71.78125 
L 38.71875 51.515625 
L 52.984375 51.515625 
L 58.109375 71.78125 
L 65.921875 71.78125 
L 60.890625 51.515625 
L 76.125 51.515625 
L 76.125 44 
L 58.984375 44 
L 54.984375 27.6875 
L 70.515625 27.6875 
L 70.515625 20.21875 
L 53.078125 20.21875 
L 48 0 
L 40.1875 0 
L 45.21875 20.21875 
L 30.90625 20.21875 
L 25.875 0 
L 18.015625 0 
L 23.09375 20.21875 
L 7.71875 20.21875 
L 7.71875 27.6875 
L 24.90625 27.6875 
L 29 44 
L 13.28125 44 
L 13.28125 51.515625 
L 30.90625 51.515625 
L 35.890625 71.78125 
z
" id="DejaVuSans-35"/>
     </defs>
     <use xlink:href="#DejaVuSans-72"/>
     <use x="75.195312" xlink:href="#DejaVuSans-105"/>
     <use x="102.978516" xlink:href="#DejaVuSans-103"/>
     <use x="166.455078" xlink:href="#DejaVuSans-104"/>
     <use x="229.833984" xlink:href="#DejaVuSans-32"/>
     <use x="261.621094" xlink:href="#DejaVuSans-101"/>
     <use x="323.144531" xlink:href="#DejaVuSans-110"/>
     <use x="386.523438" xlink:href="#DejaVuSans-101"/>
     <use x="448.046875" xlink:href="#DejaVuSans-114"/>
     <use x="487.410156" xlink:href="#DejaVuSans-103"/>
     <use x="550.886719" xlink:href="#DejaVuSans-121"/>
     <use x="610.066406" xlink:href="#DejaVuSans-32"/>
     <use x="641.853516" xlink:href="#DejaVuSans-103"/>
     <use x="705.330078" xlink:href="#DejaVuSans-97"/>
     <use x="766.609375" xlink:href="#DejaVuSans-105"/>
     <use x="794.392578" xlink:href="#DejaVuSans-110"/>
     <use x="857.771484" xlink:href="#DejaVuSans-32"/>
     <use x="889.558594" xlink:href="#DejaVuSans-102"/>
     <use x="924.763672" xlink:href="#DejaVuSans-111"/>
     <use x="985.945312" xlink:href="#DejaVuSans-114"/>
     <use x="1027.058594" xlink:href="#DejaVuSans-32"/>
     <use x="1058.845703" xlink:href="#DejaVuSans-99"/>
     <use x="1113.826172" xlink:href="#DejaVuSans-104"/>
     <use x="1177.205078" xlink:href="#DejaVuSans-97"/>
     <use x="1238.484375" xlink:href="#DejaVuSans-110"/>
     <use x="1301.863281" xlink:href="#DejaVuSans-110"/>
     <use x="1365.242188" xlink:href="#DejaVuSans-101"/>
     <use x="1426.765625" xlink:href="#DejaVuSans-108"/>
     <use x="1454.548828" xlink:href="#DejaVuSans-32"/>
     <use x="1486.335938" xlink:href="#DejaVuSans-35"/>
     <use x="1570.125" xlink:href="#DejaVuSans-51"/>
     <use x="1633.748047" xlink:href="#DejaVuSans-48"/>
    </g>
   </g>
   <g id="legend_1">
    <g id="patch_7">
     <path d="M 568.01225 248.850625 
L 669.31225 248.850625 
Q 671.31225 248.850625 671.31225 246.850625 
L 671.31225 130.425625 
Q 671.31225 128.425625 669.31225 128.425625 
L 568.01225 128.425625 
Q 566.01225 128.425625 566.01225 130.425625 
L 566.01225 246.850625 
Q 566.01225 248.850625 568.01225 248.850625 
z
" style="fill:#ffffff;opacity:0.8;stroke:#cccccc;stroke-linejoin:miter;"/>
    </g>
    <g id="line2d_55">
     <path d="M 570.01225 136.524063 
L 590.01225 136.524063 
" style="fill:none;stroke:#1f77b4;stroke-dasharray:5.55,2.4;stroke-dashoffset:0;stroke-width:1.5;"/>
    </g>
    <g id="line2d_56">
     <g>
      <use style="fill:#1f77b4;stroke:#1f77b4;" x="580.01225" xlink:href="#m6e19e11eb7" y="136.524063"/>
     </g>
    </g>
    <g id="text_19">
     <!-- $\tau_0, G_0 = 0.011$ -->
     <g transform="translate(598.01225 140.024063)scale(0.1 -0.1)">
      <defs>
       <path d="M 32.859375 9.96875 
Q 34.1875 7.625 39.453125 7.625 
L 43.75 7.625 
L 42.28125 0 
L 36.921875 0 
Q 28.125 0 25 4.6875 
Q 21.921875 9.46875 23.96875 19.828125 
L 29 45.703125 
L 8.453125 45.703125 
L 10.203125 54.6875 
L 60.640625 54.6875 
L 58.890625 45.703125 
L 38.1875 45.703125 
L 33.015625 19.28125 
Q 31.640625 12.203125 32.859375 9.96875 
z
" id="DejaVuSans-Oblique-964"/>
       <path d="M 11.71875 12.40625 
L 22.015625 12.40625 
L 22.015625 4 
L 14.015625 -11.625 
L 7.71875 -11.625 
L 11.71875 4 
z
" id="DejaVuSans-44"/>
       <path d="M 54.59375 10.890625 
L 58.40625 29.984375 
L 42.1875 29.984375 
L 43.703125 38.09375 
L 69.578125 38.09375 
L 63.28125 6 
Q 56.78125 2.4375 49.109375 0.5 
Q 41.453125 -1.421875 33.6875 -1.421875 
Q 19.96875 -1.421875 12.234375 6.1875 
Q 4.5 13.8125 4.5 27.390625 
Q 4.5 38.671875 9.203125 48.84375 
Q 13.921875 59.03125 22.21875 65.828125 
Q 27.4375 70.0625 33.640625 72.140625 
Q 39.84375 74.21875 47.40625 74.21875 
Q 54.25 74.21875 60.515625 72.484375 
Q 66.796875 70.75 72.515625 67.28125 
L 70.515625 56.78125 
Q 66.109375 61.375 60.203125 63.796875 
Q 54.296875 66.21875 47.609375 66.21875 
Q 39.84375 66.21875 33.9375 63.25 
Q 28.03125 60.296875 23.390625 54.109375 
Q 19.4375 48.828125 17.15625 41.671875 
Q 14.890625 34.515625 14.890625 27.09375 
Q 14.890625 16.890625 20.109375 11.734375 
Q 25.34375 6.59375 35.6875 6.59375 
Q 40.875 6.59375 45.703125 7.6875 
Q 50.53125 8.796875 54.59375 10.890625 
z
" id="DejaVuSans-Oblique-71"/>
       <path d="M 10.59375 45.40625 
L 73.1875 45.40625 
L 73.1875 37.203125 
L 10.59375 37.203125 
z
M 10.59375 25.484375 
L 73.1875 25.484375 
L 73.1875 17.1875 
L 10.59375 17.1875 
z
" id="DejaVuSans-61"/>
       <path d="M 10.6875 12.40625 
L 21 12.40625 
L 21 0 
L 10.6875 0 
z
" id="DejaVuSans-46"/>
      </defs>
      <use transform="translate(0 0.78125)" xlink:href="#DejaVuSans-Oblique-964"/>
      <use transform="translate(60.205078 -15.625)scale(0.7)" xlink:href="#DejaVuSans-48"/>
      <use transform="translate(107.475586 0.78125)" xlink:href="#DejaVuSans-44"/>
      <use transform="translate(158.745117 0.78125)" xlink:href="#DejaVuSans-Oblique-71"/>
      <use transform="translate(236.235352 -15.625)scale(0.7)" xlink:href="#DejaVuSans-48"/>
      <use transform="translate(302.988281 0.78125)" xlink:href="#DejaVuSans-61"/>
      <use transform="translate(406.259766 0.78125)" xlink:href="#DejaVuSans-48"/>
      <use transform="translate(469.882812 0.78125)" xlink:href="#DejaVuSans-46"/>
      <use transform="translate(501.669922 0.78125)" xlink:href="#DejaVuSans-48"/>
      <use transform="translate(565.292969 0.78125)" xlink:href="#DejaVuSans-49"/>
      <use transform="translate(628.916016 0.78125)" xlink:href="#DejaVuSans-49"/>
     </g>
    </g>
    <g id="line2d_57">
     <path d="M 570.01225 151.202188 
L 590.01225 151.202188 
" style="fill:none;stroke:#ff7f0e;stroke-dasharray:5.55,2.4;stroke-dashoffset:0;stroke-width:1.5;"/>
    </g>
    <g id="line2d_58">
     <g>
      <use style="fill:#ff7f0e;stroke:#ff7f0e;" x="580.01225" xlink:href="#mf5c5b64235" y="151.202188"/>
     </g>
    </g>
    <g id="text_20">
     <!-- $\tau_1, G_0 = 0.011$ -->
     <g transform="translate(598.01225 154.702188)scale(0.1 -0.1)">
      <use transform="translate(0 0.78125)" xlink:href="#DejaVuSans-Oblique-964"/>
      <use transform="translate(60.205078 -15.625)scale(0.7)" xlink:href="#DejaVuSans-49"/>
      <use transform="translate(107.475586 0.78125)" xlink:href="#DejaVuSans-44"/>
      <use transform="translate(158.745117 0.78125)" xlink:href="#DejaVuSans-Oblique-71"/>
      <use transform="translate(236.235352 -15.625)scale(0.7)" xlink:href="#DejaVuSans-48"/>
      <use transform="translate(302.988281 0.78125)" xlink:href="#DejaVuSans-61"/>
      <use transform="translate(406.259766 0.78125)" xlink:href="#DejaVuSans-48"/>
      <use transform="translate(469.882812 0.78125)" xlink:href="#DejaVuSans-46"/>
      <use transform="translate(501.669922 0.78125)" xlink:href="#DejaVuSans-48"/>
      <use transform="translate(565.292969 0.78125)" xlink:href="#DejaVuSans-49"/>
      <use transform="translate(628.916016 0.78125)" xlink:href="#DejaVuSans-49"/>
     </g>
    </g>
    <g id="line2d_59">
     <path d="M 570.01225 165.880313 
L 590.01225 165.880313 
" style="fill:none;stroke:#2ca02c;stroke-dasharray:5.55,2.4;stroke-dashoffset:0;stroke-width:1.5;"/>
    </g>
    <g id="line2d_60">
     <g>
      <use style="fill:#2ca02c;stroke:#2ca02c;" x="580.01225" xlink:href="#me2130db3dd" y="165.880313"/>
     </g>
    </g>
    <g id="text_21">
     <!-- $\tau_2, G_0 = 0.011$ -->
     <g transform="translate(598.01225 169.380313)scale(0.1 -0.1)">
      <use transform="translate(0 0.78125)" xlink:href="#DejaVuSans-Oblique-964"/>
      <use transform="translate(60.205078 -15.625)scale(0.7)" xlink:href="#DejaVuSans-50"/>
      <use transform="translate(107.475586 0.78125)" xlink:href="#DejaVuSans-44"/>
      <use transform="translate(158.745117 0.78125)" xlink:href="#DejaVuSans-Oblique-71"/>
      <use transform="translate(236.235352 -15.625)scale(0.7)" xlink:href="#DejaVuSans-48"/>
      <use transform="translate(302.988281 0.78125)" xlink:href="#DejaVuSans-61"/>
      <use transform="translate(406.259766 0.78125)" xlink:href="#DejaVuSans-48"/>
      <use transform="translate(469.882812 0.78125)" xlink:href="#DejaVuSans-46"/>
      <use transform="translate(501.669922 0.78125)" xlink:href="#DejaVuSans-48"/>
      <use transform="translate(565.292969 0.78125)" xlink:href="#DejaVuSans-49"/>
      <use transform="translate(628.916016 0.78125)" xlink:href="#DejaVuSans-49"/>
     </g>
    </g>
    <g id="line2d_61">
     <path d="M 570.01225 180.558438 
L 590.01225 180.558438 
" style="fill:none;stroke:#d62728;stroke-dasharray:5.55,2.4;stroke-dashoffset:0;stroke-width:1.5;"/>
    </g>
    <g id="line2d_62">
     <g>
      <use style="fill:#d62728;stroke:#d62728;" x="580.01225" xlink:href="#med89b9ffae" y="180.558438"/>
     </g>
    </g>
    <g id="text_22">
     <!-- $\tau_3, G_0 = 0.011$ -->
     <g transform="translate(598.01225 184.058438)scale(0.1 -0.1)">
      <use transform="translate(0 0.78125)" xlink:href="#DejaVuSans-Oblique-964"/>
      <use transform="translate(60.205078 -15.625)scale(0.7)" xlink:href="#DejaVuSans-51"/>
      <use transform="translate(107.475586 0.78125)" xlink:href="#DejaVuSans-44"/>
      <use transform="translate(158.745117 0.78125)" xlink:href="#DejaVuSans-Oblique-71"/>
      <use transform="translate(236.235352 -15.625)scale(0.7)" xlink:href="#DejaVuSans-48"/>
      <use transform="translate(302.988281 0.78125)" xlink:href="#DejaVuSans-61"/>
      <use transform="translate(406.259766 0.78125)" xlink:href="#DejaVuSans-48"/>
      <use transform="translate(469.882812 0.78125)" xlink:href="#DejaVuSans-46"/>
      <use transform="translate(501.669922 0.78125)" xlink:href="#DejaVuSans-48"/>
      <use transform="translate(565.292969 0.78125)" xlink:href="#DejaVuSans-49"/>
      <use transform="translate(628.916016 0.78125)" xlink:href="#DejaVuSans-49"/>
     </g>
    </g>
    <g id="line2d_63">
     <path d="M 570.01225 195.236563 
L 590.01225 195.236563 
" style="fill:none;stroke:#9467bd;stroke-dasharray:5.55,2.4;stroke-dashoffset:0;stroke-width:1.5;"/>
    </g>
    <g id="line2d_64">
     <g>
      <use style="fill:#9467bd;stroke:#9467bd;" x="580.01225" xlink:href="#m58acd63659" y="195.236563"/>
     </g>
    </g>
    <g id="text_23">
     <!-- $\tau_4, G_0 = 0.011$ -->
     <g transform="translate(598.01225 198.736563)scale(0.1 -0.1)">
      <use transform="translate(0 0.78125)" xlink:href="#DejaVuSans-Oblique-964"/>
      <use transform="translate(60.205078 -15.625)scale(0.7)" xlink:href="#DejaVuSans-52"/>
      <use transform="translate(107.475586 0.78125)" xlink:href="#DejaVuSans-44"/>
      <use transform="translate(158.745117 0.78125)" xlink:href="#DejaVuSans-Oblique-71"/>
      <use transform="translate(236.235352 -15.625)scale(0.7)" xlink:href="#DejaVuSans-48"/>
      <use transform="translate(302.988281 0.78125)" xlink:href="#DejaVuSans-61"/>
      <use transform="translate(406.259766 0.78125)" xlink:href="#DejaVuSans-48"/>
      <use transform="translate(469.882812 0.78125)" xlink:href="#DejaVuSans-46"/>
      <use transform="translate(501.669922 0.78125)" xlink:href="#DejaVuSans-48"/>
      <use transform="translate(565.292969 0.78125)" xlink:href="#DejaVuSans-49"/>
      <use transform="translate(628.916016 0.78125)" xlink:href="#DejaVuSans-49"/>
     </g>
    </g>
    <g id="line2d_65">
     <path d="M 570.01225 209.914688 
L 590.01225 209.914688 
" style="fill:none;stroke:#8c564b;stroke-dasharray:5.55,2.4;stroke-dashoffset:0;stroke-width:1.5;"/>
    </g>
    <g id="line2d_66">
     <g>
      <use style="fill:#8c564b;stroke:#8c564b;" x="580.01225" xlink:href="#mee2e59744f" y="209.914688"/>
     </g>
    </g>
    <g id="text_24">
     <!-- $\tau_5, G_0 = 0.011$ -->
     <g transform="translate(598.01225 213.414688)scale(0.1 -0.1)">
      <use transform="translate(0 0.78125)" xlink:href="#DejaVuSans-Oblique-964"/>
      <use transform="translate(60.205078 -15.625)scale(0.7)" xlink:href="#DejaVuSans-53"/>
      <use transform="translate(107.475586 0.78125)" xlink:href="#DejaVuSans-44"/>
      <use transform="translate(158.745117 0.78125)" xlink:href="#DejaVuSans-Oblique-71"/>
      <use transform="translate(236.235352 -15.625)scale(0.7)" xlink:href="#DejaVuSans-48"/>
      <use transform="translate(302.988281 0.78125)" xlink:href="#DejaVuSans-61"/>
      <use transform="translate(406.259766 0.78125)" xlink:href="#DejaVuSans-48"/>
      <use transform="translate(469.882812 0.78125)" xlink:href="#DejaVuSans-46"/>
      <use transform="translate(501.669922 0.78125)" xlink:href="#DejaVuSans-48"/>
      <use transform="translate(565.292969 0.78125)" xlink:href="#DejaVuSans-49"/>
      <use transform="translate(628.916016 0.78125)" xlink:href="#DejaVuSans-49"/>
     </g>
    </g>
    <g id="line2d_67">
     <path d="M 570.01225 224.592813 
L 590.01225 224.592813 
" style="fill:none;stroke:#e377c2;stroke-dasharray:5.55,2.4;stroke-dashoffset:0;stroke-width:1.5;"/>
    </g>
    <g id="line2d_68">
     <g>
      <use style="fill:#e377c2;stroke:#e377c2;" x="580.01225" xlink:href="#m52223780c4" y="224.592813"/>
     </g>
    </g>
    <g id="text_25">
     <!-- $\tau_6, G_0 = 0.011$ -->
     <g transform="translate(598.01225 228.092813)scale(0.1 -0.1)">
      <use transform="translate(0 0.78125)" xlink:href="#DejaVuSans-Oblique-964"/>
      <use transform="translate(60.205078 -15.625)scale(0.7)" xlink:href="#DejaVuSans-54"/>
      <use transform="translate(107.475586 0.78125)" xlink:href="#DejaVuSans-44"/>
      <use transform="translate(158.745117 0.78125)" xlink:href="#DejaVuSans-Oblique-71"/>
      <use transform="translate(236.235352 -15.625)scale(0.7)" xlink:href="#DejaVuSans-48"/>
      <use transform="translate(302.988281 0.78125)" xlink:href="#DejaVuSans-61"/>
      <use transform="translate(406.259766 0.78125)" xlink:href="#DejaVuSans-48"/>
      <use transform="translate(469.882812 0.78125)" xlink:href="#DejaVuSans-46"/>
      <use transform="translate(501.669922 0.78125)" xlink:href="#DejaVuSans-48"/>
      <use transform="translate(565.292969 0.78125)" xlink:href="#DejaVuSans-49"/>
      <use transform="translate(628.916016 0.78125)" xlink:href="#DejaVuSans-49"/>
     </g>
    </g>
    <g id="line2d_69">
     <path d="M 570.01225 239.270938 
L 590.01225 239.270938 
" style="fill:none;stroke:#7f7f7f;stroke-dasharray:5.55,2.4;stroke-dashoffset:0;stroke-width:1.5;"/>
    </g>
    <g id="line2d_70">
     <g>
      <use style="fill:#7f7f7f;stroke:#7f7f7f;" x="580.01225" xlink:href="#ma0917582d3" y="239.270938"/>
     </g>
    </g>
    <g id="text_26">
     <!-- $\tau_7, G_0 = 0.010$ -->
     <g transform="translate(598.01225 242.770938)scale(0.1 -0.1)">
      <defs>
       <path d="M 8.203125 72.90625 
L 55.078125 72.90625 
L 55.078125 68.703125 
L 28.609375 0 
L 18.3125 0 
L 43.21875 64.59375 
L 8.203125 64.59375 
z
" id="DejaVuSans-55"/>
      </defs>
      <use transform="translate(0 0.78125)" xlink:href="#DejaVuSans-Oblique-964"/>
      <use transform="translate(60.205078 -15.625)scale(0.7)" xlink:href="#DejaVuSans-55"/>
      <use transform="translate(107.475586 0.78125)" xlink:href="#DejaVuSans-44"/>
      <use transform="translate(158.745117 0.78125)" xlink:href="#DejaVuSans-Oblique-71"/>
      <use transform="translate(236.235352 -15.625)scale(0.7)" xlink:href="#DejaVuSans-48"/>
      <use transform="translate(302.988281 0.78125)" xlink:href="#DejaVuSans-61"/>
      <use transform="translate(406.259766 0.78125)" xlink:href="#DejaVuSans-48"/>
      <use transform="translate(469.882812 0.78125)" xlink:href="#DejaVuSans-46"/>
      <use transform="translate(501.669922 0.78125)" xlink:href="#DejaVuSans-48"/>
      <use transform="translate(565.292969 0.78125)" xlink:href="#DejaVuSans-49"/>
      <use transform="translate(628.916016 0.78125)" xlink:href="#DejaVuSans-48"/>
     </g>
    </g>
   </g>
  </g>
 </g>
 <defs>
  <clipPath id="p0f74324ac9">
   <rect height="332.64" width="502.2" x="53.60625" y="22.318125"/>
  </clipPath>
 </defs>
</svg>
