<?xml version="1.0" encoding="utf-8" standalone="no"?>
<!DOCTYPE svg PUBLIC "-//W3C//DTD SVG 1.1//EN"
  "http://www.w3.org/Graphics/SVG/1.1/DTD/svg11.dtd">
<!-- Created with matplotlib (https://matplotlib.org/) -->
<svg height="503.6725pt" version="1.1" viewBox="0 0 666.067125 503.6725" width="666.067125pt" xmlns="http://www.w3.org/2000/svg" xmlns:xlink="http://www.w3.org/1999/xlink">
 <metadata>
  <rdf:RDF xmlns:cc="http://creativecommons.org/ns#" xmlns:dc="http://purl.org/dc/elements/1.1/" xmlns:rdf="http://www.w3.org/1999/02/22-rdf-syntax-ns#">
   <cc:Work>
    <dc:type rdf:resource="http://purl.org/dc/dcmitype/StillImage"/>
    <dc:date>2022-12-07T15:48:58.951982</dc:date>
    <dc:format>image/svg+xml</dc:format>
    <dc:creator>
     <cc:Agent>
      <dc:title>Matplotlib v3.3.4, https://matplotlib.org/</dc:title>
     </cc:Agent>
    </dc:creator>
   </cc:Work>
  </rdf:RDF>
 </metadata>
 <defs>
  <style type="text/css">*{stroke-linecap:butt;stroke-linejoin:round;}</style>
 </defs>
 <g id="figure_1">
  <g id="patch_1">
   <path d="M 0 503.6725 
L 666.067125 503.6725 
L 666.067125 0 
L 0 0 
z
" style="fill:#ffffff;"/>
  </g>
  <g id="axes_1">
   <g id="patch_2">
    <path d="M 40.603125 465.838125 
L 487.003125 465.838125 
L 487.003125 22.318125 
L 40.603125 22.318125 
z
" style="fill:#ffffff;"/>
   </g>
   <g id="patch_3">
    <path clip-path="url(#p2eb052fe9a)" d="M 60.894034 465.838125 
L 64.304271 465.838125 
L 64.304271 465.838125 
L 60.894034 465.838125 
z
" style="fill:#0000ff;fill-opacity:0.5;stroke:#000000;stroke-linejoin:miter;stroke-width:1.2;"/>
   </g>
   <g id="patch_4">
    <path clip-path="url(#p2eb052fe9a)" d="M 64.304271 465.838125 
L 67.714508 465.838125 
L 67.714508 465.838125 
L 64.304271 465.838125 
z
" style="fill:#0000ff;fill-opacity:0.5;stroke:#000000;stroke-linejoin:miter;stroke-width:1.2;"/>
   </g>
   <g id="patch_5">
    <path clip-path="url(#p2eb052fe9a)" d="M 67.714508 465.838125 
L 71.124745 465.838125 
L 71.124745 465.838125 
L 67.714508 465.838125 
z
" style="fill:#0000ff;fill-opacity:0.5;stroke:#000000;stroke-linejoin:miter;stroke-width:1.2;"/>
   </g>
   <g id="patch_6">
    <path clip-path="url(#p2eb052fe9a)" d="M 71.124745 465.838125 
L 74.534981 465.838125 
L 74.534981 465.838125 
L 71.124745 465.838125 
z
" style="fill:#0000ff;fill-opacity:0.5;stroke:#000000;stroke-linejoin:miter;stroke-width:1.2;"/>
   </g>
   <g id="patch_7">
    <path clip-path="url(#p2eb052fe9a)" d="M 74.534981 465.838125 
L 77.945218 465.838125 
L 77.945218 465.838125 
L 74.534981 465.838125 
z
" style="fill:#0000ff;fill-opacity:0.5;stroke:#000000;stroke-linejoin:miter;stroke-width:1.2;"/>
   </g>
   <g id="patch_8">
    <path clip-path="url(#p2eb052fe9a)" d="M 77.945218 465.838125 
L 81.355455 465.838125 
L 81.355455 465.838125 
L 77.945218 465.838125 
z
" style="fill:#0000ff;fill-opacity:0.5;stroke:#000000;stroke-linejoin:miter;stroke-width:1.2;"/>
   </g>
   <g id="patch_9">
    <path clip-path="url(#p2eb052fe9a)" d="M 81.355455 465.838125 
L 84.765692 465.838125 
L 84.765692 465.838125 
L 81.355455 465.838125 
z
" style="fill:#0000ff;fill-opacity:0.5;stroke:#000000;stroke-linejoin:miter;stroke-width:1.2;"/>
   </g>
   <g id="patch_10">
    <path clip-path="url(#p2eb052fe9a)" d="M 84.765692 465.838125 
L 88.175929 465.838125 
L 88.175929 465.838125 
L 84.765692 465.838125 
z
" style="fill:#0000ff;fill-opacity:0.5;stroke:#000000;stroke-linejoin:miter;stroke-width:1.2;"/>
   </g>
   <g id="patch_11">
    <path clip-path="url(#p2eb052fe9a)" d="M 88.175929 465.838125 
L 91.586165 465.838125 
L 91.586165 465.838125 
L 88.175929 465.838125 
z
" style="fill:#0000ff;fill-opacity:0.5;stroke:#000000;stroke-linejoin:miter;stroke-width:1.2;"/>
   </g>
   <g id="patch_12">
    <path clip-path="url(#p2eb052fe9a)" d="M 91.586165 465.838125 
L 94.996402 465.838125 
L 94.996402 465.838125 
L 91.586165 465.838125 
z
" style="fill:#0000ff;fill-opacity:0.5;stroke:#000000;stroke-linejoin:miter;stroke-width:1.2;"/>
   </g>
   <g id="patch_13">
    <path clip-path="url(#p2eb052fe9a)" d="M 94.996402 465.838125 
L 98.406639 465.838125 
L 98.406639 458.913535 
L 94.996402 458.913535 
z
" style="fill:#0000ff;fill-opacity:0.5;stroke:#000000;stroke-linejoin:miter;stroke-width:1.2;"/>
   </g>
   <g id="patch_14">
    <path clip-path="url(#p2eb052fe9a)" d="M 98.406639 465.838125 
L 101.816876 465.838125 
L 101.816876 465.838125 
L 98.406639 465.838125 
z
" style="fill:#0000ff;fill-opacity:0.5;stroke:#000000;stroke-linejoin:miter;stroke-width:1.2;"/>
   </g>
   <g id="patch_15">
    <path clip-path="url(#p2eb052fe9a)" d="M 101.816876 465.838125 
L 105.227113 465.838125 
L 105.227113 465.838125 
L 101.816876 465.838125 
z
" style="fill:#0000ff;fill-opacity:0.5;stroke:#000000;stroke-linejoin:miter;stroke-width:1.2;"/>
   </g>
   <g id="patch_16">
    <path clip-path="url(#p2eb052fe9a)" d="M 105.227113 465.838125 
L 108.63735 465.838125 
L 108.63735 465.838125 
L 105.227113 465.838125 
z
" style="fill:#0000ff;fill-opacity:0.5;stroke:#000000;stroke-linejoin:miter;stroke-width:1.2;"/>
   </g>
   <g id="patch_17">
    <path clip-path="url(#p2eb052fe9a)" d="M 108.63735 465.838125 
L 112.047586 465.838125 
L 112.047586 465.838125 
L 108.63735 465.838125 
z
" style="fill:#0000ff;fill-opacity:0.5;stroke:#000000;stroke-linejoin:miter;stroke-width:1.2;"/>
   </g>
   <g id="patch_18">
    <path clip-path="url(#p2eb052fe9a)" d="M 112.047586 465.838125 
L 115.457823 465.838125 
L 115.457823 465.838125 
L 112.047586 465.838125 
z
" style="fill:#0000ff;fill-opacity:0.5;stroke:#000000;stroke-linejoin:miter;stroke-width:1.2;"/>
   </g>
   <g id="patch_19">
    <path clip-path="url(#p2eb052fe9a)" d="M 115.457823 465.838125 
L 118.86806 465.838125 
L 118.86806 465.838125 
L 115.457823 465.838125 
z
" style="fill:#0000ff;fill-opacity:0.5;stroke:#000000;stroke-linejoin:miter;stroke-width:1.2;"/>
   </g>
   <g id="patch_20">
    <path clip-path="url(#p2eb052fe9a)" d="M 118.86806 465.838125 
L 122.278297 465.838125 
L 122.278297 465.838125 
L 118.86806 465.838125 
z
" style="fill:#0000ff;fill-opacity:0.5;stroke:#000000;stroke-linejoin:miter;stroke-width:1.2;"/>
   </g>
   <g id="patch_21">
    <path clip-path="url(#p2eb052fe9a)" d="M 122.278297 465.838125 
L 125.688534 465.838125 
L 125.688534 465.838125 
L 122.278297 465.838125 
z
" style="fill:#0000ff;fill-opacity:0.5;stroke:#000000;stroke-linejoin:miter;stroke-width:1.2;"/>
   </g>
   <g id="patch_22">
    <path clip-path="url(#p2eb052fe9a)" d="M 125.688534 465.838125 
L 129.098771 465.838125 
L 129.098771 465.838125 
L 125.688534 465.838125 
z
" style="fill:#0000ff;fill-opacity:0.5;stroke:#000000;stroke-linejoin:miter;stroke-width:1.2;"/>
   </g>
   <g id="patch_23">
    <path clip-path="url(#p2eb052fe9a)" d="M 129.098771 465.838125 
L 132.509007 465.838125 
L 132.509007 465.838125 
L 129.098771 465.838125 
z
" style="fill:#0000ff;fill-opacity:0.5;stroke:#000000;stroke-linejoin:miter;stroke-width:1.2;"/>
   </g>
   <g id="patch_24">
    <path clip-path="url(#p2eb052fe9a)" d="M 132.509007 465.838125 
L 135.919244 465.838125 
L 135.919244 465.838125 
L 132.509007 465.838125 
z
" style="fill:#0000ff;fill-opacity:0.5;stroke:#000000;stroke-linejoin:miter;stroke-width:1.2;"/>
   </g>
   <g id="patch_25">
    <path clip-path="url(#p2eb052fe9a)" d="M 135.919244 465.838125 
L 139.329481 465.838125 
L 139.329481 465.838125 
L 135.919244 465.838125 
z
" style="fill:#0000ff;fill-opacity:0.5;stroke:#000000;stroke-linejoin:miter;stroke-width:1.2;"/>
   </g>
   <g id="patch_26">
    <path clip-path="url(#p2eb052fe9a)" d="M 139.329481 465.838125 
L 142.739718 465.838125 
L 142.739718 465.838125 
L 139.329481 465.838125 
z
" style="fill:#0000ff;fill-opacity:0.5;stroke:#000000;stroke-linejoin:miter;stroke-width:1.2;"/>
   </g>
   <g id="patch_27">
    <path clip-path="url(#p2eb052fe9a)" d="M 142.739718 465.838125 
L 146.149955 465.838125 
L 146.149955 458.913535 
L 142.739718 458.913535 
z
" style="fill:#0000ff;fill-opacity:0.5;stroke:#000000;stroke-linejoin:miter;stroke-width:1.2;"/>
   </g>
   <g id="patch_28">
    <path clip-path="url(#p2eb052fe9a)" d="M 146.149955 465.838125 
L 149.560191 465.838125 
L 149.560191 458.913535 
L 146.149955 458.913535 
z
" style="fill:#0000ff;fill-opacity:0.5;stroke:#000000;stroke-linejoin:miter;stroke-width:1.2;"/>
   </g>
   <g id="patch_29">
    <path clip-path="url(#p2eb052fe9a)" d="M 149.560191 465.838125 
L 152.970428 465.838125 
L 152.970428 465.838125 
L 149.560191 465.838125 
z
" style="fill:#0000ff;fill-opacity:0.5;stroke:#000000;stroke-linejoin:miter;stroke-width:1.2;"/>
   </g>
   <g id="patch_30">
    <path clip-path="url(#p2eb052fe9a)" d="M 152.970428 465.838125 
L 156.380665 465.838125 
L 156.380665 451.988945 
L 152.970428 451.988945 
z
" style="fill:#0000ff;fill-opacity:0.5;stroke:#000000;stroke-linejoin:miter;stroke-width:1.2;"/>
   </g>
   <g id="patch_31">
    <path clip-path="url(#p2eb052fe9a)" d="M 156.380665 465.838125 
L 159.790902 465.838125 
L 159.790902 465.838125 
L 156.380665 465.838125 
z
" style="fill:#0000ff;fill-opacity:0.5;stroke:#000000;stroke-linejoin:miter;stroke-width:1.2;"/>
   </g>
   <g id="patch_32">
    <path clip-path="url(#p2eb052fe9a)" d="M 159.790902 465.838125 
L 163.201139 465.838125 
L 163.201139 458.913535 
L 159.790902 458.913535 
z
" style="fill:#0000ff;fill-opacity:0.5;stroke:#000000;stroke-linejoin:miter;stroke-width:1.2;"/>
   </g>
   <g id="patch_33">
    <path clip-path="url(#p2eb052fe9a)" d="M 163.201139 465.838125 
L 166.611376 465.838125 
L 166.611376 465.838125 
L 163.201139 465.838125 
z
" style="fill:#0000ff;fill-opacity:0.5;stroke:#000000;stroke-linejoin:miter;stroke-width:1.2;"/>
   </g>
   <g id="patch_34">
    <path clip-path="url(#p2eb052fe9a)" d="M 166.611376 465.838125 
L 170.021612 465.838125 
L 170.021612 465.838125 
L 166.611376 465.838125 
z
" style="fill:#0000ff;fill-opacity:0.5;stroke:#000000;stroke-linejoin:miter;stroke-width:1.2;"/>
   </g>
   <g id="patch_35">
    <path clip-path="url(#p2eb052fe9a)" d="M 170.021612 465.838125 
L 173.431849 465.838125 
L 173.431849 451.988945 
L 170.021612 451.988945 
z
" style="fill:#0000ff;fill-opacity:0.5;stroke:#000000;stroke-linejoin:miter;stroke-width:1.2;"/>
   </g>
   <g id="patch_36">
    <path clip-path="url(#p2eb052fe9a)" d="M 173.431849 465.838125 
L 176.842086 465.838125 
L 176.842086 451.988945 
L 173.431849 451.988945 
z
" style="fill:#0000ff;fill-opacity:0.5;stroke:#000000;stroke-linejoin:miter;stroke-width:1.2;"/>
   </g>
   <g id="patch_37">
    <path clip-path="url(#p2eb052fe9a)" d="M 176.842086 465.838125 
L 180.252323 465.838125 
L 180.252323 465.838125 
L 176.842086 465.838125 
z
" style="fill:#0000ff;fill-opacity:0.5;stroke:#000000;stroke-linejoin:miter;stroke-width:1.2;"/>
   </g>
   <g id="patch_38">
    <path clip-path="url(#p2eb052fe9a)" d="M 180.252323 465.838125 
L 183.66256 465.838125 
L 183.66256 465.838125 
L 180.252323 465.838125 
z
" style="fill:#0000ff;fill-opacity:0.5;stroke:#000000;stroke-linejoin:miter;stroke-width:1.2;"/>
   </g>
   <g id="patch_39">
    <path clip-path="url(#p2eb052fe9a)" d="M 183.66256 465.838125 
L 187.072797 465.838125 
L 187.072797 445.064355 
L 183.66256 445.064355 
z
" style="fill:#0000ff;fill-opacity:0.5;stroke:#000000;stroke-linejoin:miter;stroke-width:1.2;"/>
   </g>
   <g id="patch_40">
    <path clip-path="url(#p2eb052fe9a)" d="M 187.072797 465.838125 
L 190.483033 465.838125 
L 190.483033 451.988945 
L 187.072797 451.988945 
z
" style="fill:#0000ff;fill-opacity:0.5;stroke:#000000;stroke-linejoin:miter;stroke-width:1.2;"/>
   </g>
   <g id="patch_41">
    <path clip-path="url(#p2eb052fe9a)" d="M 190.483033 465.838125 
L 193.89327 465.838125 
L 193.89327 465.838125 
L 190.483033 465.838125 
z
" style="fill:#0000ff;fill-opacity:0.5;stroke:#000000;stroke-linejoin:miter;stroke-width:1.2;"/>
   </g>
   <g id="patch_42">
    <path clip-path="url(#p2eb052fe9a)" d="M 193.89327 465.838125 
L 197.303507 465.838125 
L 197.303507 451.988945 
L 193.89327 451.988945 
z
" style="fill:#0000ff;fill-opacity:0.5;stroke:#000000;stroke-linejoin:miter;stroke-width:1.2;"/>
   </g>
   <g id="patch_43">
    <path clip-path="url(#p2eb052fe9a)" d="M 197.303507 465.838125 
L 200.713744 465.838125 
L 200.713744 438.139764 
L 197.303507 438.139764 
z
" style="fill:#0000ff;fill-opacity:0.5;stroke:#000000;stroke-linejoin:miter;stroke-width:1.2;"/>
   </g>
   <g id="patch_44">
    <path clip-path="url(#p2eb052fe9a)" d="M 200.713744 465.838125 
L 204.123981 465.838125 
L 204.123981 445.064355 
L 200.713744 445.064355 
z
" style="fill:#0000ff;fill-opacity:0.5;stroke:#000000;stroke-linejoin:miter;stroke-width:1.2;"/>
   </g>
   <g id="patch_45">
    <path clip-path="url(#p2eb052fe9a)" d="M 204.123981 465.838125 
L 207.534217 465.838125 
L 207.534217 431.215174 
L 204.123981 431.215174 
z
" style="fill:#0000ff;fill-opacity:0.5;stroke:#000000;stroke-linejoin:miter;stroke-width:1.2;"/>
   </g>
   <g id="patch_46">
    <path clip-path="url(#p2eb052fe9a)" d="M 207.534217 465.838125 
L 210.944454 465.838125 
L 210.944454 451.988945 
L 207.534217 451.988945 
z
" style="fill:#0000ff;fill-opacity:0.5;stroke:#000000;stroke-linejoin:miter;stroke-width:1.2;"/>
   </g>
   <g id="patch_47">
    <path clip-path="url(#p2eb052fe9a)" d="M 210.944454 465.838125 
L 214.354691 465.838125 
L 214.354691 458.913535 
L 210.944454 458.913535 
z
" style="fill:#0000ff;fill-opacity:0.5;stroke:#000000;stroke-linejoin:miter;stroke-width:1.2;"/>
   </g>
   <g id="patch_48">
    <path clip-path="url(#p2eb052fe9a)" d="M 214.354691 465.838125 
L 217.764928 465.838125 
L 217.764928 445.064355 
L 214.354691 445.064355 
z
" style="fill:#0000ff;fill-opacity:0.5;stroke:#000000;stroke-linejoin:miter;stroke-width:1.2;"/>
   </g>
   <g id="patch_49">
    <path clip-path="url(#p2eb052fe9a)" d="M 217.764928 465.838125 
L 221.175165 465.838125 
L 221.175165 458.913535 
L 217.764928 458.913535 
z
" style="fill:#0000ff;fill-opacity:0.5;stroke:#000000;stroke-linejoin:miter;stroke-width:1.2;"/>
   </g>
   <g id="patch_50">
    <path clip-path="url(#p2eb052fe9a)" d="M 221.175165 465.838125 
L 224.585402 465.838125 
L 224.585402 424.290584 
L 221.175165 424.290584 
z
" style="fill:#0000ff;fill-opacity:0.5;stroke:#000000;stroke-linejoin:miter;stroke-width:1.2;"/>
   </g>
   <g id="patch_51">
    <path clip-path="url(#p2eb052fe9a)" d="M 224.585402 465.838125 
L 227.995638 465.838125 
L 227.995638 438.139764 
L 224.585402 438.139764 
z
" style="fill:#0000ff;fill-opacity:0.5;stroke:#000000;stroke-linejoin:miter;stroke-width:1.2;"/>
   </g>
   <g id="patch_52">
    <path clip-path="url(#p2eb052fe9a)" d="M 227.995638 465.838125 
L 231.405875 465.838125 
L 231.405875 403.516814 
L 227.995638 403.516814 
z
" style="fill:#0000ff;fill-opacity:0.5;stroke:#000000;stroke-linejoin:miter;stroke-width:1.2;"/>
   </g>
   <g id="patch_53">
    <path clip-path="url(#p2eb052fe9a)" d="M 231.405875 465.838125 
L 234.816112 465.838125 
L 234.816112 445.064355 
L 231.405875 445.064355 
z
" style="fill:#0000ff;fill-opacity:0.5;stroke:#000000;stroke-linejoin:miter;stroke-width:1.2;"/>
   </g>
   <g id="patch_54">
    <path clip-path="url(#p2eb052fe9a)" d="M 234.816112 465.838125 
L 238.226349 465.838125 
L 238.226349 382.743043 
L 234.816112 382.743043 
z
" style="fill:#0000ff;fill-opacity:0.5;stroke:#000000;stroke-linejoin:miter;stroke-width:1.2;"/>
   </g>
   <g id="patch_55">
    <path clip-path="url(#p2eb052fe9a)" d="M 238.226349 465.838125 
L 241.636586 465.838125 
L 241.636586 361.969273 
L 238.226349 361.969273 
z
" style="fill:#0000ff;fill-opacity:0.5;stroke:#000000;stroke-linejoin:miter;stroke-width:1.2;"/>
   </g>
   <g id="patch_56">
    <path clip-path="url(#p2eb052fe9a)" d="M 241.636586 465.838125 
L 245.046822 465.838125 
L 245.046822 424.290584 
L 241.636586 424.290584 
z
" style="fill:#0000ff;fill-opacity:0.5;stroke:#000000;stroke-linejoin:miter;stroke-width:1.2;"/>
   </g>
   <g id="patch_57">
    <path clip-path="url(#p2eb052fe9a)" d="M 245.046822 465.838125 
L 248.457059 465.838125 
L 248.457059 341.195502 
L 245.046822 341.195502 
z
" style="fill:#0000ff;fill-opacity:0.5;stroke:#000000;stroke-linejoin:miter;stroke-width:1.2;"/>
   </g>
   <g id="patch_58">
    <path clip-path="url(#p2eb052fe9a)" d="M 248.457059 465.838125 
L 251.867296 465.838125 
L 251.867296 396.592223 
L 248.457059 396.592223 
z
" style="fill:#0000ff;fill-opacity:0.5;stroke:#000000;stroke-linejoin:miter;stroke-width:1.2;"/>
   </g>
   <g id="patch_59">
    <path clip-path="url(#p2eb052fe9a)" d="M 251.867296 465.838125 
L 255.277533 465.838125 
L 255.277533 299.647961 
L 251.867296 299.647961 
z
" style="fill:#0000ff;fill-opacity:0.5;stroke:#000000;stroke-linejoin:miter;stroke-width:1.2;"/>
   </g>
   <g id="patch_60">
    <path clip-path="url(#p2eb052fe9a)" d="M 255.277533 465.838125 
L 258.68777 465.838125 
L 258.68777 334.270912 
L 255.277533 334.270912 
z
" style="fill:#0000ff;fill-opacity:0.5;stroke:#000000;stroke-linejoin:miter;stroke-width:1.2;"/>
   </g>
   <g id="patch_61">
    <path clip-path="url(#p2eb052fe9a)" d="M 258.68777 465.838125 
L 262.098007 465.838125 
L 262.098007 320.421732 
L 258.68777 320.421732 
z
" style="fill:#0000ff;fill-opacity:0.5;stroke:#000000;stroke-linejoin:miter;stroke-width:1.2;"/>
   </g>
   <g id="patch_62">
    <path clip-path="url(#p2eb052fe9a)" d="M 262.098007 465.838125 
L 265.508243 465.838125 
L 265.508243 320.421732 
L 262.098007 320.421732 
z
" style="fill:#0000ff;fill-opacity:0.5;stroke:#000000;stroke-linejoin:miter;stroke-width:1.2;"/>
   </g>
   <g id="patch_63">
    <path clip-path="url(#p2eb052fe9a)" d="M 265.508243 465.838125 
L 268.91848 465.838125 
L 268.91848 195.779109 
L 265.508243 195.779109 
z
" style="fill:#0000ff;fill-opacity:0.5;stroke:#000000;stroke-linejoin:miter;stroke-width:1.2;"/>
   </g>
   <g id="patch_64">
    <path clip-path="url(#p2eb052fe9a)" d="M 268.91848 465.838125 
L 272.328717 465.838125 
L 272.328717 209.628289 
L 268.91848 209.628289 
z
" style="fill:#0000ff;fill-opacity:0.5;stroke:#000000;stroke-linejoin:miter;stroke-width:1.2;"/>
   </g>
   <g id="patch_65">
    <path clip-path="url(#p2eb052fe9a)" d="M 272.328717 465.838125 
L 275.738954 465.838125 
L 275.738954 278.874191 
L 272.328717 278.874191 
z
" style="fill:#0000ff;fill-opacity:0.5;stroke:#000000;stroke-linejoin:miter;stroke-width:1.2;"/>
   </g>
   <g id="patch_66">
    <path clip-path="url(#p2eb052fe9a)" d="M 275.738954 465.838125 
L 279.149191 465.838125 
L 279.149191 244.25124 
L 275.738954 244.25124 
z
" style="fill:#0000ff;fill-opacity:0.5;stroke:#000000;stroke-linejoin:miter;stroke-width:1.2;"/>
   </g>
   <g id="patch_67">
    <path clip-path="url(#p2eb052fe9a)" d="M 279.149191 465.838125 
L 282.559428 465.838125 
L 282.559428 181.929928 
L 279.149191 181.929928 
z
" style="fill:#0000ff;fill-opacity:0.5;stroke:#000000;stroke-linejoin:miter;stroke-width:1.2;"/>
   </g>
   <g id="patch_68">
    <path clip-path="url(#p2eb052fe9a)" d="M 282.559428 465.838125 
L 285.969664 465.838125 
L 285.969664 50.362715 
L 282.559428 50.362715 
z
" style="fill:#0000ff;fill-opacity:0.5;stroke:#000000;stroke-linejoin:miter;stroke-width:1.2;"/>
   </g>
   <g id="patch_69">
    <path clip-path="url(#p2eb052fe9a)" d="M 285.969664 465.838125 
L 289.379901 465.838125 
L 289.379901 285.798781 
L 285.969664 285.798781 
z
" style="fill:#0000ff;fill-opacity:0.5;stroke:#000000;stroke-linejoin:miter;stroke-width:1.2;"/>
   </g>
   <g id="patch_70">
    <path clip-path="url(#p2eb052fe9a)" d="M 289.379901 465.838125 
L 292.790138 465.838125 
L 292.790138 223.477469 
L 289.379901 223.477469 
z
" style="fill:#0000ff;fill-opacity:0.5;stroke:#000000;stroke-linejoin:miter;stroke-width:1.2;"/>
   </g>
   <g id="patch_71">
    <path clip-path="url(#p2eb052fe9a)" d="M 292.790138 465.838125 
L 296.200375 465.838125 
L 296.200375 43.438125 
L 292.790138 43.438125 
z
" style="fill:#0000ff;fill-opacity:0.5;stroke:#000000;stroke-linejoin:miter;stroke-width:1.2;"/>
   </g>
   <g id="patch_72">
    <path clip-path="url(#p2eb052fe9a)" d="M 296.200375 465.838125 
L 299.610612 465.838125 
L 299.610612 161.156158 
L 296.200375 161.156158 
z
" style="fill:#0000ff;fill-opacity:0.5;stroke:#000000;stroke-linejoin:miter;stroke-width:1.2;"/>
   </g>
   <g id="patch_73">
    <path clip-path="url(#p2eb052fe9a)" d="M 299.610612 465.838125 
L 303.020848 465.838125 
L 303.020848 278.874191 
L 299.610612 278.874191 
z
" style="fill:#0000ff;fill-opacity:0.5;stroke:#000000;stroke-linejoin:miter;stroke-width:1.2;"/>
   </g>
   <g id="patch_74">
    <path clip-path="url(#p2eb052fe9a)" d="M 303.020848 465.838125 
L 306.431085 465.838125 
L 306.431085 168.080748 
L 303.020848 168.080748 
z
" style="fill:#0000ff;fill-opacity:0.5;stroke:#000000;stroke-linejoin:miter;stroke-width:1.2;"/>
   </g>
   <g id="patch_75">
    <path clip-path="url(#p2eb052fe9a)" d="M 306.431085 465.838125 
L 309.841322 465.838125 
L 309.841322 251.17583 
L 306.431085 251.17583 
z
" style="fill:#0000ff;fill-opacity:0.5;stroke:#000000;stroke-linejoin:miter;stroke-width:1.2;"/>
   </g>
   <g id="patch_76">
    <path clip-path="url(#p2eb052fe9a)" d="M 309.841322 465.838125 
L 313.251559 465.838125 
L 313.251559 105.759436 
L 309.841322 105.759436 
z
" style="fill:#0000ff;fill-opacity:0.5;stroke:#000000;stroke-linejoin:miter;stroke-width:1.2;"/>
   </g>
   <g id="patch_77">
    <path clip-path="url(#p2eb052fe9a)" d="M 313.251559 465.838125 
L 316.661796 465.838125 
L 316.661796 244.25124 
L 313.251559 244.25124 
z
" style="fill:#0000ff;fill-opacity:0.5;stroke:#000000;stroke-linejoin:miter;stroke-width:1.2;"/>
   </g>
   <g id="patch_78">
    <path clip-path="url(#p2eb052fe9a)" d="M 316.661796 465.838125 
L 320.072033 465.838125 
L 320.072033 368.893863 
L 316.661796 368.893863 
z
" style="fill:#0000ff;fill-opacity:0.5;stroke:#000000;stroke-linejoin:miter;stroke-width:1.2;"/>
   </g>
   <g id="patch_79">
    <path clip-path="url(#p2eb052fe9a)" d="M 320.072033 465.838125 
L 323.482269 465.838125 
L 323.482269 265.02501 
L 320.072033 265.02501 
z
" style="fill:#0000ff;fill-opacity:0.5;stroke:#000000;stroke-linejoin:miter;stroke-width:1.2;"/>
   </g>
   <g id="patch_80">
    <path clip-path="url(#p2eb052fe9a)" d="M 323.482269 465.838125 
L 326.892506 465.838125 
L 326.892506 299.647961 
L 323.482269 299.647961 
z
" style="fill:#0000ff;fill-opacity:0.5;stroke:#000000;stroke-linejoin:miter;stroke-width:1.2;"/>
   </g>
   <g id="patch_81">
    <path clip-path="url(#p2eb052fe9a)" d="M 326.892506 465.838125 
L 330.302743 465.838125 
L 330.302743 403.516814 
L 326.892506 403.516814 
z
" style="fill:#0000ff;fill-opacity:0.5;stroke:#000000;stroke-linejoin:miter;stroke-width:1.2;"/>
   </g>
   <g id="patch_82">
    <path clip-path="url(#p2eb052fe9a)" d="M 330.302743 465.838125 
L 333.71298 465.838125 
L 333.71298 299.647961 
L 330.302743 299.647961 
z
" style="fill:#0000ff;fill-opacity:0.5;stroke:#000000;stroke-linejoin:miter;stroke-width:1.2;"/>
   </g>
   <g id="patch_83">
    <path clip-path="url(#p2eb052fe9a)" d="M 333.71298 465.838125 
L 337.123217 465.838125 
L 337.123217 403.516814 
L 333.71298 403.516814 
z
" style="fill:#0000ff;fill-opacity:0.5;stroke:#000000;stroke-linejoin:miter;stroke-width:1.2;"/>
   </g>
   <g id="patch_84">
    <path clip-path="url(#p2eb052fe9a)" d="M 337.123217 465.838125 
L 340.533453 465.838125 
L 340.533453 368.893863 
L 337.123217 368.893863 
z
" style="fill:#0000ff;fill-opacity:0.5;stroke:#000000;stroke-linejoin:miter;stroke-width:1.2;"/>
   </g>
   <g id="patch_85">
    <path clip-path="url(#p2eb052fe9a)" d="M 340.533453 465.838125 
L 343.94369 465.838125 
L 343.94369 403.516814 
L 340.533453 403.516814 
z
" style="fill:#0000ff;fill-opacity:0.5;stroke:#000000;stroke-linejoin:miter;stroke-width:1.2;"/>
   </g>
   <g id="patch_86">
    <path clip-path="url(#p2eb052fe9a)" d="M 343.94369 465.838125 
L 347.353927 465.838125 
L 347.353927 382.743043 
L 343.94369 382.743043 
z
" style="fill:#0000ff;fill-opacity:0.5;stroke:#000000;stroke-linejoin:miter;stroke-width:1.2;"/>
   </g>
   <g id="patch_87">
    <path clip-path="url(#p2eb052fe9a)" d="M 347.353927 465.838125 
L 350.764164 465.838125 
L 350.764164 382.743043 
L 347.353927 382.743043 
z
" style="fill:#0000ff;fill-opacity:0.5;stroke:#000000;stroke-linejoin:miter;stroke-width:1.2;"/>
   </g>
   <g id="patch_88">
    <path clip-path="url(#p2eb052fe9a)" d="M 350.764164 465.838125 
L 354.174401 465.838125 
L 354.174401 451.988945 
L 350.764164 451.988945 
z
" style="fill:#0000ff;fill-opacity:0.5;stroke:#000000;stroke-linejoin:miter;stroke-width:1.2;"/>
   </g>
   <g id="patch_89">
    <path clip-path="url(#p2eb052fe9a)" d="M 354.174401 465.838125 
L 357.584638 465.838125 
L 357.584638 396.592223 
L 354.174401 396.592223 
z
" style="fill:#0000ff;fill-opacity:0.5;stroke:#000000;stroke-linejoin:miter;stroke-width:1.2;"/>
   </g>
   <g id="patch_90">
    <path clip-path="url(#p2eb052fe9a)" d="M 357.584638 465.838125 
L 360.994874 465.838125 
L 360.994874 438.139764 
L 357.584638 438.139764 
z
" style="fill:#0000ff;fill-opacity:0.5;stroke:#000000;stroke-linejoin:miter;stroke-width:1.2;"/>
   </g>
   <g id="patch_91">
    <path clip-path="url(#p2eb052fe9a)" d="M 360.994874 465.838125 
L 364.405111 465.838125 
L 364.405111 438.139764 
L 360.994874 438.139764 
z
" style="fill:#0000ff;fill-opacity:0.5;stroke:#000000;stroke-linejoin:miter;stroke-width:1.2;"/>
   </g>
   <g id="patch_92">
    <path clip-path="url(#p2eb052fe9a)" d="M 364.405111 465.838125 
L 367.815348 465.838125 
L 367.815348 431.215174 
L 364.405111 431.215174 
z
" style="fill:#0000ff;fill-opacity:0.5;stroke:#000000;stroke-linejoin:miter;stroke-width:1.2;"/>
   </g>
   <g id="patch_93">
    <path clip-path="url(#p2eb052fe9a)" d="M 367.815348 465.838125 
L 371.225585 465.838125 
L 371.225585 424.290584 
L 367.815348 424.290584 
z
" style="fill:#0000ff;fill-opacity:0.5;stroke:#000000;stroke-linejoin:miter;stroke-width:1.2;"/>
   </g>
   <g id="patch_94">
    <path clip-path="url(#p2eb052fe9a)" d="M 371.225585 465.838125 
L 374.635822 465.838125 
L 374.635822 451.988945 
L 371.225585 451.988945 
z
" style="fill:#0000ff;fill-opacity:0.5;stroke:#000000;stroke-linejoin:miter;stroke-width:1.2;"/>
   </g>
   <g id="patch_95">
    <path clip-path="url(#p2eb052fe9a)" d="M 374.635822 465.838125 
L 378.046059 465.838125 
L 378.046059 451.988945 
L 374.635822 451.988945 
z
" style="fill:#0000ff;fill-opacity:0.5;stroke:#000000;stroke-linejoin:miter;stroke-width:1.2;"/>
   </g>
   <g id="patch_96">
    <path clip-path="url(#p2eb052fe9a)" d="M 378.046059 465.838125 
L 381.456295 465.838125 
L 381.456295 458.913535 
L 378.046059 458.913535 
z
" style="fill:#0000ff;fill-opacity:0.5;stroke:#000000;stroke-linejoin:miter;stroke-width:1.2;"/>
   </g>
   <g id="patch_97">
    <path clip-path="url(#p2eb052fe9a)" d="M 381.456295 465.838125 
L 384.866532 465.838125 
L 384.866532 458.913535 
L 381.456295 458.913535 
z
" style="fill:#0000ff;fill-opacity:0.5;stroke:#000000;stroke-linejoin:miter;stroke-width:1.2;"/>
   </g>
   <g id="patch_98">
    <path clip-path="url(#p2eb052fe9a)" d="M 384.866532 465.838125 
L 388.276769 465.838125 
L 388.276769 458.913535 
L 384.866532 458.913535 
z
" style="fill:#0000ff;fill-opacity:0.5;stroke:#000000;stroke-linejoin:miter;stroke-width:1.2;"/>
   </g>
   <g id="patch_99">
    <path clip-path="url(#p2eb052fe9a)" d="M 388.276769 465.838125 
L 391.687006 465.838125 
L 391.687006 458.913535 
L 388.276769 458.913535 
z
" style="fill:#0000ff;fill-opacity:0.5;stroke:#000000;stroke-linejoin:miter;stroke-width:1.2;"/>
   </g>
   <g id="patch_100">
    <path clip-path="url(#p2eb052fe9a)" d="M 391.687006 465.838125 
L 395.097243 465.838125 
L 395.097243 451.988945 
L 391.687006 451.988945 
z
" style="fill:#0000ff;fill-opacity:0.5;stroke:#000000;stroke-linejoin:miter;stroke-width:1.2;"/>
   </g>
   <g id="patch_101">
    <path clip-path="url(#p2eb052fe9a)" d="M 395.097243 465.838125 
L 398.507479 465.838125 
L 398.507479 465.838125 
L 395.097243 465.838125 
z
" style="fill:#0000ff;fill-opacity:0.5;stroke:#000000;stroke-linejoin:miter;stroke-width:1.2;"/>
   </g>
   <g id="patch_102">
    <path clip-path="url(#p2eb052fe9a)" d="M 398.507479 465.838125 
L 401.917716 465.838125 
L 401.917716 465.838125 
L 398.507479 465.838125 
z
" style="fill:#0000ff;fill-opacity:0.5;stroke:#000000;stroke-linejoin:miter;stroke-width:1.2;"/>
   </g>
   <g id="patch_103">
    <path clip-path="url(#p2eb052fe9a)" d="M 401.917716 465.838125 
L 405.327953 465.838125 
L 405.327953 451.988945 
L 401.917716 451.988945 
z
" style="fill:#0000ff;fill-opacity:0.5;stroke:#000000;stroke-linejoin:miter;stroke-width:1.2;"/>
   </g>
   <g id="patch_104">
    <path clip-path="url(#p2eb052fe9a)" d="M 405.327953 465.838125 
L 408.73819 465.838125 
L 408.73819 451.988945 
L 405.327953 451.988945 
z
" style="fill:#0000ff;fill-opacity:0.5;stroke:#000000;stroke-linejoin:miter;stroke-width:1.2;"/>
   </g>
   <g id="patch_105">
    <path clip-path="url(#p2eb052fe9a)" d="M 408.73819 465.838125 
L 412.148427 465.838125 
L 412.148427 458.913535 
L 408.73819 458.913535 
z
" style="fill:#0000ff;fill-opacity:0.5;stroke:#000000;stroke-linejoin:miter;stroke-width:1.2;"/>
   </g>
   <g id="patch_106">
    <path clip-path="url(#p2eb052fe9a)" d="M 412.148427 465.838125 
L 415.558664 465.838125 
L 415.558664 458.913535 
L 412.148427 458.913535 
z
" style="fill:#0000ff;fill-opacity:0.5;stroke:#000000;stroke-linejoin:miter;stroke-width:1.2;"/>
   </g>
   <g id="patch_107">
    <path clip-path="url(#p2eb052fe9a)" d="M 415.558664 465.838125 
L 418.9689 465.838125 
L 418.9689 451.988945 
L 415.558664 451.988945 
z
" style="fill:#0000ff;fill-opacity:0.5;stroke:#000000;stroke-linejoin:miter;stroke-width:1.2;"/>
   </g>
   <g id="patch_108">
    <path clip-path="url(#p2eb052fe9a)" d="M 418.9689 465.838125 
L 422.379137 465.838125 
L 422.379137 451.988945 
L 418.9689 451.988945 
z
" style="fill:#0000ff;fill-opacity:0.5;stroke:#000000;stroke-linejoin:miter;stroke-width:1.2;"/>
   </g>
   <g id="patch_109">
    <path clip-path="url(#p2eb052fe9a)" d="M 422.379137 465.838125 
L 425.789374 465.838125 
L 425.789374 465.838125 
L 422.379137 465.838125 
z
" style="fill:#0000ff;fill-opacity:0.5;stroke:#000000;stroke-linejoin:miter;stroke-width:1.2;"/>
   </g>
   <g id="patch_110">
    <path clip-path="url(#p2eb052fe9a)" d="M 425.789374 465.838125 
L 429.199611 465.838125 
L 429.199611 458.913535 
L 425.789374 458.913535 
z
" style="fill:#0000ff;fill-opacity:0.5;stroke:#000000;stroke-linejoin:miter;stroke-width:1.2;"/>
   </g>
   <g id="patch_111">
    <path clip-path="url(#p2eb052fe9a)" d="M 429.199611 465.838125 
L 432.609848 465.838125 
L 432.609848 458.913535 
L 429.199611 458.913535 
z
" style="fill:#0000ff;fill-opacity:0.5;stroke:#000000;stroke-linejoin:miter;stroke-width:1.2;"/>
   </g>
   <g id="patch_112">
    <path clip-path="url(#p2eb052fe9a)" d="M 432.609848 465.838125 
L 436.020085 465.838125 
L 436.020085 465.838125 
L 432.609848 465.838125 
z
" style="fill:#0000ff;fill-opacity:0.5;stroke:#000000;stroke-linejoin:miter;stroke-width:1.2;"/>
   </g>
   <g id="patch_113">
    <path clip-path="url(#p2eb052fe9a)" d="M 436.020085 465.838125 
L 439.430321 465.838125 
L 439.430321 465.838125 
L 436.020085 465.838125 
z
" style="fill:#0000ff;fill-opacity:0.5;stroke:#000000;stroke-linejoin:miter;stroke-width:1.2;"/>
   </g>
   <g id="patch_114">
    <path clip-path="url(#p2eb052fe9a)" d="M 439.430321 465.838125 
L 442.840558 465.838125 
L 442.840558 465.838125 
L 439.430321 465.838125 
z
" style="fill:#0000ff;fill-opacity:0.5;stroke:#000000;stroke-linejoin:miter;stroke-width:1.2;"/>
   </g>
   <g id="patch_115">
    <path clip-path="url(#p2eb052fe9a)" d="M 442.840558 465.838125 
L 446.250795 465.838125 
L 446.250795 465.838125 
L 442.840558 465.838125 
z
" style="fill:#0000ff;fill-opacity:0.5;stroke:#000000;stroke-linejoin:miter;stroke-width:1.2;"/>
   </g>
   <g id="patch_116">
    <path clip-path="url(#p2eb052fe9a)" d="M 446.250795 465.838125 
L 449.661032 465.838125 
L 449.661032 465.838125 
L 446.250795 465.838125 
z
" style="fill:#0000ff;fill-opacity:0.5;stroke:#000000;stroke-linejoin:miter;stroke-width:1.2;"/>
   </g>
   <g id="patch_117">
    <path clip-path="url(#p2eb052fe9a)" d="M 449.661032 465.838125 
L 453.071269 465.838125 
L 453.071269 465.838125 
L 449.661032 465.838125 
z
" style="fill:#0000ff;fill-opacity:0.5;stroke:#000000;stroke-linejoin:miter;stroke-width:1.2;"/>
   </g>
   <g id="patch_118">
    <path clip-path="url(#p2eb052fe9a)" d="M 453.071269 465.838125 
L 456.481505 465.838125 
L 456.481505 465.838125 
L 453.071269 465.838125 
z
" style="fill:#0000ff;fill-opacity:0.5;stroke:#000000;stroke-linejoin:miter;stroke-width:1.2;"/>
   </g>
   <g id="patch_119">
    <path clip-path="url(#p2eb052fe9a)" d="M 456.481505 465.838125 
L 459.891742 465.838125 
L 459.891742 465.838125 
L 456.481505 465.838125 
z
" style="fill:#0000ff;fill-opacity:0.5;stroke:#000000;stroke-linejoin:miter;stroke-width:1.2;"/>
   </g>
   <g id="patch_120">
    <path clip-path="url(#p2eb052fe9a)" d="M 459.891742 465.838125 
L 463.301979 465.838125 
L 463.301979 465.838125 
L 459.891742 465.838125 
z
" style="fill:#0000ff;fill-opacity:0.5;stroke:#000000;stroke-linejoin:miter;stroke-width:1.2;"/>
   </g>
   <g id="patch_121">
    <path clip-path="url(#p2eb052fe9a)" d="M 463.301979 465.838125 
L 466.712216 465.838125 
L 466.712216 465.838125 
L 463.301979 465.838125 
z
" style="fill:#0000ff;fill-opacity:0.5;stroke:#000000;stroke-linejoin:miter;stroke-width:1.2;"/>
   </g>
   <g id="matplotlib.axis_1">
    <g id="xtick_1">
     <g id="line2d_1">
      <path clip-path="url(#p2eb052fe9a)" d="M 98.724543 465.838125 
L 98.724543 22.318125 
" style="fill:none;stroke:#b0b0b0;stroke-linecap:square;stroke-width:0.8;"/>
     </g>
     <g id="line2d_2">
      <defs>
       <path d="M 0 0 
L 0 3.5 
" id="mb626f70171" style="stroke:#000000;stroke-width:0.8;"/>
      </defs>
      <g>
       <use style="stroke:#000000;stroke-width:0.8;" x="98.724543" xlink:href="#mb626f70171" y="465.838125"/>
      </g>
     </g>
     <g id="text_1">
      <!-- 140 -->
      <g transform="translate(89.180793 480.436562)scale(0.1 -0.1)">
       <defs>
        <path d="M 12.40625 8.296875 
L 28.515625 8.296875 
L 28.515625 63.921875 
L 10.984375 60.40625 
L 10.984375 69.390625 
L 28.421875 72.90625 
L 38.28125 72.90625 
L 38.28125 8.296875 
L 54.390625 8.296875 
L 54.390625 0 
L 12.40625 0 
z
" id="DejaVuSans-49"/>
        <path d="M 37.796875 64.3125 
L 12.890625 25.390625 
L 37.796875 25.390625 
z
M 35.203125 72.90625 
L 47.609375 72.90625 
L 47.609375 25.390625 
L 58.015625 25.390625 
L 58.015625 17.1875 
L 47.609375 17.1875 
L 47.609375 0 
L 37.796875 0 
L 37.796875 17.1875 
L 4.890625 17.1875 
L 4.890625 26.703125 
z
" id="DejaVuSans-52"/>
        <path d="M 31.78125 66.40625 
Q 24.171875 66.40625 20.328125 58.90625 
Q 16.5 51.421875 16.5 36.375 
Q 16.5 21.390625 20.328125 13.890625 
Q 24.171875 6.390625 31.78125 6.390625 
Q 39.453125 6.390625 43.28125 13.890625 
Q 47.125 21.390625 47.125 36.375 
Q 47.125 51.421875 43.28125 58.90625 
Q 39.453125 66.40625 31.78125 66.40625 
z
M 31.78125 74.21875 
Q 44.046875 74.21875 50.515625 64.515625 
Q 56.984375 54.828125 56.984375 36.375 
Q 56.984375 17.96875 50.515625 8.265625 
Q 44.046875 -1.421875 31.78125 -1.421875 
Q 19.53125 -1.421875 13.0625 8.265625 
Q 6.59375 17.96875 6.59375 36.375 
Q 6.59375 54.828125 13.0625 64.515625 
Q 19.53125 74.21875 31.78125 74.21875 
z
" id="DejaVuSans-48"/>
       </defs>
       <use xlink:href="#DejaVuSans-49"/>
       <use x="63.623047" xlink:href="#DejaVuSans-52"/>
       <use x="127.246094" xlink:href="#DejaVuSans-48"/>
      </g>
     </g>
    </g>
    <g id="xtick_2">
     <g id="line2d_3">
      <path clip-path="url(#p2eb052fe9a)" d="M 167.507285 465.838125 
L 167.507285 22.318125 
" style="fill:none;stroke:#b0b0b0;stroke-linecap:square;stroke-width:0.8;"/>
     </g>
     <g id="line2d_4">
      <g>
       <use style="stroke:#000000;stroke-width:0.8;" x="167.507285" xlink:href="#mb626f70171" y="465.838125"/>
      </g>
     </g>
     <g id="text_2">
      <!-- 160 -->
      <g transform="translate(157.963535 480.436562)scale(0.1 -0.1)">
       <defs>
        <path d="M 33.015625 40.375 
Q 26.375 40.375 22.484375 35.828125 
Q 18.609375 31.296875 18.609375 23.390625 
Q 18.609375 15.53125 22.484375 10.953125 
Q 26.375 6.390625 33.015625 6.390625 
Q 39.65625 6.390625 43.53125 10.953125 
Q 47.40625 15.53125 47.40625 23.390625 
Q 47.40625 31.296875 43.53125 35.828125 
Q 39.65625 40.375 33.015625 40.375 
z
M 52.59375 71.296875 
L 52.59375 62.3125 
Q 48.875 64.0625 45.09375 64.984375 
Q 41.3125 65.921875 37.59375 65.921875 
Q 27.828125 65.921875 22.671875 59.328125 
Q 17.53125 52.734375 16.796875 39.40625 
Q 19.671875 43.65625 24.015625 45.921875 
Q 28.375 48.1875 33.59375 48.1875 
Q 44.578125 48.1875 50.953125 41.515625 
Q 57.328125 34.859375 57.328125 23.390625 
Q 57.328125 12.15625 50.6875 5.359375 
Q 44.046875 -1.421875 33.015625 -1.421875 
Q 20.359375 -1.421875 13.671875 8.265625 
Q 6.984375 17.96875 6.984375 36.375 
Q 6.984375 53.65625 15.1875 63.9375 
Q 23.390625 74.21875 37.203125 74.21875 
Q 40.921875 74.21875 44.703125 73.484375 
Q 48.484375 72.75 52.59375 71.296875 
z
" id="DejaVuSans-54"/>
       </defs>
       <use xlink:href="#DejaVuSans-49"/>
       <use x="63.623047" xlink:href="#DejaVuSans-54"/>
       <use x="127.246094" xlink:href="#DejaVuSans-48"/>
      </g>
     </g>
    </g>
    <g id="xtick_3">
     <g id="line2d_5">
      <path clip-path="url(#p2eb052fe9a)" d="M 236.290028 465.838125 
L 236.290028 22.318125 
" style="fill:none;stroke:#b0b0b0;stroke-linecap:square;stroke-width:0.8;"/>
     </g>
     <g id="line2d_6">
      <g>
       <use style="stroke:#000000;stroke-width:0.8;" x="236.290028" xlink:href="#mb626f70171" y="465.838125"/>
      </g>
     </g>
     <g id="text_3">
      <!-- 180 -->
      <g transform="translate(226.746278 480.436562)scale(0.1 -0.1)">
       <defs>
        <path d="M 31.78125 34.625 
Q 24.75 34.625 20.71875 30.859375 
Q 16.703125 27.09375 16.703125 20.515625 
Q 16.703125 13.921875 20.71875 10.15625 
Q 24.75 6.390625 31.78125 6.390625 
Q 38.8125 6.390625 42.859375 10.171875 
Q 46.921875 13.96875 46.921875 20.515625 
Q 46.921875 27.09375 42.890625 30.859375 
Q 38.875 34.625 31.78125 34.625 
z
M 21.921875 38.8125 
Q 15.578125 40.375 12.03125 44.71875 
Q 8.5 49.078125 8.5 55.328125 
Q 8.5 64.0625 14.71875 69.140625 
Q 20.953125 74.21875 31.78125 74.21875 
Q 42.671875 74.21875 48.875 69.140625 
Q 55.078125 64.0625 55.078125 55.328125 
Q 55.078125 49.078125 51.53125 44.71875 
Q 48 40.375 41.703125 38.8125 
Q 48.828125 37.15625 52.796875 32.3125 
Q 56.78125 27.484375 56.78125 20.515625 
Q 56.78125 9.90625 50.3125 4.234375 
Q 43.84375 -1.421875 31.78125 -1.421875 
Q 19.734375 -1.421875 13.25 4.234375 
Q 6.78125 9.90625 6.78125 20.515625 
Q 6.78125 27.484375 10.78125 32.3125 
Q 14.796875 37.15625 21.921875 38.8125 
z
M 18.3125 54.390625 
Q 18.3125 48.734375 21.84375 45.5625 
Q 25.390625 42.390625 31.78125 42.390625 
Q 38.140625 42.390625 41.71875 45.5625 
Q 45.3125 48.734375 45.3125 54.390625 
Q 45.3125 60.0625 41.71875 63.234375 
Q 38.140625 66.40625 31.78125 66.40625 
Q 25.390625 66.40625 21.84375 63.234375 
Q 18.3125 60.0625 18.3125 54.390625 
z
" id="DejaVuSans-56"/>
       </defs>
       <use xlink:href="#DejaVuSans-49"/>
       <use x="63.623047" xlink:href="#DejaVuSans-56"/>
       <use x="127.246094" xlink:href="#DejaVuSans-48"/>
      </g>
     </g>
    </g>
    <g id="xtick_4">
     <g id="line2d_7">
      <path clip-path="url(#p2eb052fe9a)" d="M 305.072771 465.838125 
L 305.072771 22.318125 
" style="fill:none;stroke:#b0b0b0;stroke-linecap:square;stroke-width:0.8;"/>
     </g>
     <g id="line2d_8">
      <g>
       <use style="stroke:#000000;stroke-width:0.8;" x="305.072771" xlink:href="#mb626f70171" y="465.838125"/>
      </g>
     </g>
     <g id="text_4">
      <!-- 200 -->
      <g transform="translate(295.529021 480.436562)scale(0.1 -0.1)">
       <defs>
        <path d="M 19.1875 8.296875 
L 53.609375 8.296875 
L 53.609375 0 
L 7.328125 0 
L 7.328125 8.296875 
Q 12.9375 14.109375 22.625 23.890625 
Q 32.328125 33.6875 34.8125 36.53125 
Q 39.546875 41.84375 41.421875 45.53125 
Q 43.3125 49.21875 43.3125 52.78125 
Q 43.3125 58.59375 39.234375 62.25 
Q 35.15625 65.921875 28.609375 65.921875 
Q 23.96875 65.921875 18.8125 64.3125 
Q 13.671875 62.703125 7.8125 59.421875 
L 7.8125 69.390625 
Q 13.765625 71.78125 18.9375 73 
Q 24.125 74.21875 28.421875 74.21875 
Q 39.75 74.21875 46.484375 68.546875 
Q 53.21875 62.890625 53.21875 53.421875 
Q 53.21875 48.921875 51.53125 44.890625 
Q 49.859375 40.875 45.40625 35.40625 
Q 44.1875 33.984375 37.640625 27.21875 
Q 31.109375 20.453125 19.1875 8.296875 
z
" id="DejaVuSans-50"/>
       </defs>
       <use xlink:href="#DejaVuSans-50"/>
       <use x="63.623047" xlink:href="#DejaVuSans-48"/>
       <use x="127.246094" xlink:href="#DejaVuSans-48"/>
      </g>
     </g>
    </g>
    <g id="xtick_5">
     <g id="line2d_9">
      <path clip-path="url(#p2eb052fe9a)" d="M 373.855513 465.838125 
L 373.855513 22.318125 
" style="fill:none;stroke:#b0b0b0;stroke-linecap:square;stroke-width:0.8;"/>
     </g>
     <g id="line2d_10">
      <g>
       <use style="stroke:#000000;stroke-width:0.8;" x="373.855513" xlink:href="#mb626f70171" y="465.838125"/>
      </g>
     </g>
     <g id="text_5">
      <!-- 220 -->
      <g transform="translate(364.311763 480.436562)scale(0.1 -0.1)">
       <use xlink:href="#DejaVuSans-50"/>
       <use x="63.623047" xlink:href="#DejaVuSans-50"/>
       <use x="127.246094" xlink:href="#DejaVuSans-48"/>
      </g>
     </g>
    </g>
    <g id="xtick_6">
     <g id="line2d_11">
      <path clip-path="url(#p2eb052fe9a)" d="M 442.638256 465.838125 
L 442.638256 22.318125 
" style="fill:none;stroke:#b0b0b0;stroke-linecap:square;stroke-width:0.8;"/>
     </g>
     <g id="line2d_12">
      <g>
       <use style="stroke:#000000;stroke-width:0.8;" x="442.638256" xlink:href="#mb626f70171" y="465.838125"/>
      </g>
     </g>
     <g id="text_6">
      <!-- 240 -->
      <g transform="translate(433.094506 480.436562)scale(0.1 -0.1)">
       <use xlink:href="#DejaVuSans-50"/>
       <use x="63.623047" xlink:href="#DejaVuSans-52"/>
       <use x="127.246094" xlink:href="#DejaVuSans-48"/>
      </g>
     </g>
    </g>
    <g id="text_7">
     <!-- Channel_out [ADC code] -->
     <g transform="translate(202.686719 494.114687)scale(0.1 -0.1)">
      <defs>
       <path d="M 64.40625 67.28125 
L 64.40625 56.890625 
Q 59.421875 61.53125 53.78125 63.8125 
Q 48.140625 66.109375 41.796875 66.109375 
Q 29.296875 66.109375 22.65625 58.46875 
Q 16.015625 50.828125 16.015625 36.375 
Q 16.015625 21.96875 22.65625 14.328125 
Q 29.296875 6.6875 41.796875 6.6875 
Q 48.140625 6.6875 53.78125 8.984375 
Q 59.421875 11.28125 64.40625 15.921875 
L 64.40625 5.609375 
Q 59.234375 2.09375 53.4375 0.328125 
Q 47.65625 -1.421875 41.21875 -1.421875 
Q 24.65625 -1.421875 15.125 8.703125 
Q 5.609375 18.84375 5.609375 36.375 
Q 5.609375 53.953125 15.125 64.078125 
Q 24.65625 74.21875 41.21875 74.21875 
Q 47.75 74.21875 53.53125 72.484375 
Q 59.328125 70.75 64.40625 67.28125 
z
" id="DejaVuSans-67"/>
       <path d="M 54.890625 33.015625 
L 54.890625 0 
L 45.90625 0 
L 45.90625 32.71875 
Q 45.90625 40.484375 42.875 44.328125 
Q 39.84375 48.1875 33.796875 48.1875 
Q 26.515625 48.1875 22.3125 43.546875 
Q 18.109375 38.921875 18.109375 30.90625 
L 18.109375 0 
L 9.078125 0 
L 9.078125 75.984375 
L 18.109375 75.984375 
L 18.109375 46.1875 
Q 21.34375 51.125 25.703125 53.5625 
Q 30.078125 56 35.796875 56 
Q 45.21875 56 50.046875 50.171875 
Q 54.890625 44.34375 54.890625 33.015625 
z
" id="DejaVuSans-104"/>
       <path d="M 34.28125 27.484375 
Q 23.390625 27.484375 19.1875 25 
Q 14.984375 22.515625 14.984375 16.5 
Q 14.984375 11.71875 18.140625 8.90625 
Q 21.296875 6.109375 26.703125 6.109375 
Q 34.1875 6.109375 38.703125 11.40625 
Q 43.21875 16.703125 43.21875 25.484375 
L 43.21875 27.484375 
z
M 52.203125 31.203125 
L 52.203125 0 
L 43.21875 0 
L 43.21875 8.296875 
Q 40.140625 3.328125 35.546875 0.953125 
Q 30.953125 -1.421875 24.3125 -1.421875 
Q 15.921875 -1.421875 10.953125 3.296875 
Q 6 8.015625 6 15.921875 
Q 6 25.140625 12.171875 29.828125 
Q 18.359375 34.515625 30.609375 34.515625 
L 43.21875 34.515625 
L 43.21875 35.40625 
Q 43.21875 41.609375 39.140625 45 
Q 35.0625 48.390625 27.6875 48.390625 
Q 23 48.390625 18.546875 47.265625 
Q 14.109375 46.140625 10.015625 43.890625 
L 10.015625 52.203125 
Q 14.9375 54.109375 19.578125 55.046875 
Q 24.21875 56 28.609375 56 
Q 40.484375 56 46.34375 49.84375 
Q 52.203125 43.703125 52.203125 31.203125 
z
" id="DejaVuSans-97"/>
       <path d="M 54.890625 33.015625 
L 54.890625 0 
L 45.90625 0 
L 45.90625 32.71875 
Q 45.90625 40.484375 42.875 44.328125 
Q 39.84375 48.1875 33.796875 48.1875 
Q 26.515625 48.1875 22.3125 43.546875 
Q 18.109375 38.921875 18.109375 30.90625 
L 18.109375 0 
L 9.078125 0 
L 9.078125 54.6875 
L 18.109375 54.6875 
L 18.109375 46.1875 
Q 21.34375 51.125 25.703125 53.5625 
Q 30.078125 56 35.796875 56 
Q 45.21875 56 50.046875 50.171875 
Q 54.890625 44.34375 54.890625 33.015625 
z
" id="DejaVuSans-110"/>
       <path d="M 56.203125 29.59375 
L 56.203125 25.203125 
L 14.890625 25.203125 
Q 15.484375 15.921875 20.484375 11.0625 
Q 25.484375 6.203125 34.421875 6.203125 
Q 39.59375 6.203125 44.453125 7.46875 
Q 49.3125 8.734375 54.109375 11.28125 
L 54.109375 2.78125 
Q 49.265625 0.734375 44.1875 -0.34375 
Q 39.109375 -1.421875 33.890625 -1.421875 
Q 20.796875 -1.421875 13.15625 6.1875 
Q 5.515625 13.8125 5.515625 26.8125 
Q 5.515625 40.234375 12.765625 48.109375 
Q 20.015625 56 32.328125 56 
Q 43.359375 56 49.78125 48.890625 
Q 56.203125 41.796875 56.203125 29.59375 
z
M 47.21875 32.234375 
Q 47.125 39.59375 43.09375 43.984375 
Q 39.0625 48.390625 32.421875 48.390625 
Q 24.90625 48.390625 20.390625 44.140625 
Q 15.875 39.890625 15.1875 32.171875 
z
" id="DejaVuSans-101"/>
       <path d="M 9.421875 75.984375 
L 18.40625 75.984375 
L 18.40625 0 
L 9.421875 0 
z
" id="DejaVuSans-108"/>
       <path d="M 50.984375 -16.609375 
L 50.984375 -23.578125 
L -0.984375 -23.578125 
L -0.984375 -16.609375 
z
" id="DejaVuSans-95"/>
       <path d="M 30.609375 48.390625 
Q 23.390625 48.390625 19.1875 42.75 
Q 14.984375 37.109375 14.984375 27.296875 
Q 14.984375 17.484375 19.15625 11.84375 
Q 23.34375 6.203125 30.609375 6.203125 
Q 37.796875 6.203125 41.984375 11.859375 
Q 46.1875 17.53125 46.1875 27.296875 
Q 46.1875 37.015625 41.984375 42.703125 
Q 37.796875 48.390625 30.609375 48.390625 
z
M 30.609375 56 
Q 42.328125 56 49.015625 48.375 
Q 55.71875 40.765625 55.71875 27.296875 
Q 55.71875 13.875 49.015625 6.21875 
Q 42.328125 -1.421875 30.609375 -1.421875 
Q 18.84375 -1.421875 12.171875 6.21875 
Q 5.515625 13.875 5.515625 27.296875 
Q 5.515625 40.765625 12.171875 48.375 
Q 18.84375 56 30.609375 56 
z
" id="DejaVuSans-111"/>
       <path d="M 8.5 21.578125 
L 8.5 54.6875 
L 17.484375 54.6875 
L 17.484375 21.921875 
Q 17.484375 14.15625 20.5 10.265625 
Q 23.53125 6.390625 29.59375 6.390625 
Q 36.859375 6.390625 41.078125 11.03125 
Q 45.3125 15.671875 45.3125 23.6875 
L 45.3125 54.6875 
L 54.296875 54.6875 
L 54.296875 0 
L 45.3125 0 
L 45.3125 8.40625 
Q 42.046875 3.421875 37.71875 1 
Q 33.40625 -1.421875 27.6875 -1.421875 
Q 18.265625 -1.421875 13.375 4.4375 
Q 8.5 10.296875 8.5 21.578125 
z
M 31.109375 56 
z
" id="DejaVuSans-117"/>
       <path d="M 18.3125 70.21875 
L 18.3125 54.6875 
L 36.8125 54.6875 
L 36.8125 47.703125 
L 18.3125 47.703125 
L 18.3125 18.015625 
Q 18.3125 11.328125 20.140625 9.421875 
Q 21.96875 7.515625 27.59375 7.515625 
L 36.8125 7.515625 
L 36.8125 0 
L 27.59375 0 
Q 17.1875 0 13.234375 3.875 
Q 9.28125 7.765625 9.28125 18.015625 
L 9.28125 47.703125 
L 2.6875 47.703125 
L 2.6875 54.6875 
L 9.28125 54.6875 
L 9.28125 70.21875 
z
" id="DejaVuSans-116"/>
       <path id="DejaVuSans-32"/>
       <path d="M 8.59375 75.984375 
L 29.296875 75.984375 
L 29.296875 69 
L 17.578125 69 
L 17.578125 -6.203125 
L 29.296875 -6.203125 
L 29.296875 -13.1875 
L 8.59375 -13.1875 
z
" id="DejaVuSans-91"/>
       <path d="M 34.1875 63.1875 
L 20.796875 26.90625 
L 47.609375 26.90625 
z
M 28.609375 72.90625 
L 39.796875 72.90625 
L 67.578125 0 
L 57.328125 0 
L 50.6875 18.703125 
L 17.828125 18.703125 
L 11.1875 0 
L 0.78125 0 
z
" id="DejaVuSans-65"/>
       <path d="M 19.671875 64.796875 
L 19.671875 8.109375 
L 31.59375 8.109375 
Q 46.6875 8.109375 53.6875 14.9375 
Q 60.6875 21.78125 60.6875 36.53125 
Q 60.6875 51.171875 53.6875 57.984375 
Q 46.6875 64.796875 31.59375 64.796875 
z
M 9.8125 72.90625 
L 30.078125 72.90625 
Q 51.265625 72.90625 61.171875 64.09375 
Q 71.09375 55.28125 71.09375 36.53125 
Q 71.09375 17.671875 61.125 8.828125 
Q 51.171875 0 30.078125 0 
L 9.8125 0 
z
" id="DejaVuSans-68"/>
       <path d="M 48.78125 52.59375 
L 48.78125 44.1875 
Q 44.96875 46.296875 41.140625 47.34375 
Q 37.3125 48.390625 33.40625 48.390625 
Q 24.65625 48.390625 19.8125 42.84375 
Q 14.984375 37.3125 14.984375 27.296875 
Q 14.984375 17.28125 19.8125 11.734375 
Q 24.65625 6.203125 33.40625 6.203125 
Q 37.3125 6.203125 41.140625 7.25 
Q 44.96875 8.296875 48.78125 10.40625 
L 48.78125 2.09375 
Q 45.015625 0.34375 40.984375 -0.53125 
Q 36.96875 -1.421875 32.421875 -1.421875 
Q 20.0625 -1.421875 12.78125 6.34375 
Q 5.515625 14.109375 5.515625 27.296875 
Q 5.515625 40.671875 12.859375 48.328125 
Q 20.21875 56 33.015625 56 
Q 37.15625 56 41.109375 55.140625 
Q 45.0625 54.296875 48.78125 52.59375 
z
" id="DejaVuSans-99"/>
       <path d="M 45.40625 46.390625 
L 45.40625 75.984375 
L 54.390625 75.984375 
L 54.390625 0 
L 45.40625 0 
L 45.40625 8.203125 
Q 42.578125 3.328125 38.25 0.953125 
Q 33.9375 -1.421875 27.875 -1.421875 
Q 17.96875 -1.421875 11.734375 6.484375 
Q 5.515625 14.40625 5.515625 27.296875 
Q 5.515625 40.1875 11.734375 48.09375 
Q 17.96875 56 27.875 56 
Q 33.9375 56 38.25 53.625 
Q 42.578125 51.265625 45.40625 46.390625 
z
M 14.796875 27.296875 
Q 14.796875 17.390625 18.875 11.75 
Q 22.953125 6.109375 30.078125 6.109375 
Q 37.203125 6.109375 41.296875 11.75 
Q 45.40625 17.390625 45.40625 27.296875 
Q 45.40625 37.203125 41.296875 42.84375 
Q 37.203125 48.484375 30.078125 48.484375 
Q 22.953125 48.484375 18.875 42.84375 
Q 14.796875 37.203125 14.796875 27.296875 
z
" id="DejaVuSans-100"/>
       <path d="M 30.421875 75.984375 
L 30.421875 -13.1875 
L 9.71875 -13.1875 
L 9.71875 -6.203125 
L 21.390625 -6.203125 
L 21.390625 69 
L 9.71875 69 
L 9.71875 75.984375 
z
" id="DejaVuSans-93"/>
      </defs>
      <use xlink:href="#DejaVuSans-67"/>
      <use x="69.824219" xlink:href="#DejaVuSans-104"/>
      <use x="133.203125" xlink:href="#DejaVuSans-97"/>
      <use x="194.482422" xlink:href="#DejaVuSans-110"/>
      <use x="257.861328" xlink:href="#DejaVuSans-110"/>
      <use x="321.240234" xlink:href="#DejaVuSans-101"/>
      <use x="382.763672" xlink:href="#DejaVuSans-108"/>
      <use x="410.546875" xlink:href="#DejaVuSans-95"/>
      <use x="460.546875" xlink:href="#DejaVuSans-111"/>
      <use x="521.728516" xlink:href="#DejaVuSans-117"/>
      <use x="585.107422" xlink:href="#DejaVuSans-116"/>
      <use x="624.316406" xlink:href="#DejaVuSans-32"/>
      <use x="656.103516" xlink:href="#DejaVuSans-91"/>
      <use x="695.117188" xlink:href="#DejaVuSans-65"/>
      <use x="763.525391" xlink:href="#DejaVuSans-68"/>
      <use x="840.527344" xlink:href="#DejaVuSans-67"/>
      <use x="910.351562" xlink:href="#DejaVuSans-32"/>
      <use x="942.138672" xlink:href="#DejaVuSans-99"/>
      <use x="997.119141" xlink:href="#DejaVuSans-111"/>
      <use x="1058.300781" xlink:href="#DejaVuSans-100"/>
      <use x="1121.777344" xlink:href="#DejaVuSans-101"/>
      <use x="1183.300781" xlink:href="#DejaVuSans-93"/>
     </g>
    </g>
   </g>
   <g id="matplotlib.axis_2">
    <g id="ytick_1">
     <g id="line2d_13">
      <path clip-path="url(#p2eb052fe9a)" d="M 40.603125 465.838125 
L 487.003125 465.838125 
" style="fill:none;stroke:#b0b0b0;stroke-linecap:square;stroke-width:0.8;"/>
     </g>
     <g id="line2d_14">
      <defs>
       <path d="M 0 0 
L -3.5 0 
" id="mfc6f57e54c" style="stroke:#000000;stroke-width:0.8;"/>
      </defs>
      <g>
       <use style="stroke:#000000;stroke-width:0.8;" x="40.603125" xlink:href="#mfc6f57e54c" y="465.838125"/>
      </g>
     </g>
     <g id="text_8">
      <!-- 0 -->
      <g transform="translate(27.240625 469.637344)scale(0.1 -0.1)">
       <use xlink:href="#DejaVuSans-48"/>
      </g>
     </g>
    </g>
    <g id="ytick_2">
     <g id="line2d_15">
      <path clip-path="url(#p2eb052fe9a)" d="M 40.603125 396.592223 
L 487.003125 396.592223 
" style="fill:none;stroke:#b0b0b0;stroke-linecap:square;stroke-width:0.8;"/>
     </g>
     <g id="line2d_16">
      <g>
       <use style="stroke:#000000;stroke-width:0.8;" x="40.603125" xlink:href="#mfc6f57e54c" y="396.592223"/>
      </g>
     </g>
     <g id="text_9">
      <!-- 10 -->
      <g transform="translate(20.878125 400.391442)scale(0.1 -0.1)">
       <use xlink:href="#DejaVuSans-49"/>
       <use x="63.623047" xlink:href="#DejaVuSans-48"/>
      </g>
     </g>
    </g>
    <g id="ytick_3">
     <g id="line2d_17">
      <path clip-path="url(#p2eb052fe9a)" d="M 40.603125 327.346322 
L 487.003125 327.346322 
" style="fill:none;stroke:#b0b0b0;stroke-linecap:square;stroke-width:0.8;"/>
     </g>
     <g id="line2d_18">
      <g>
       <use style="stroke:#000000;stroke-width:0.8;" x="40.603125" xlink:href="#mfc6f57e54c" y="327.346322"/>
      </g>
     </g>
     <g id="text_10">
      <!-- 20 -->
      <g transform="translate(20.878125 331.14554)scale(0.1 -0.1)">
       <use xlink:href="#DejaVuSans-50"/>
       <use x="63.623047" xlink:href="#DejaVuSans-48"/>
      </g>
     </g>
    </g>
    <g id="ytick_4">
     <g id="line2d_19">
      <path clip-path="url(#p2eb052fe9a)" d="M 40.603125 258.10042 
L 487.003125 258.10042 
" style="fill:none;stroke:#b0b0b0;stroke-linecap:square;stroke-width:0.8;"/>
     </g>
     <g id="line2d_20">
      <g>
       <use style="stroke:#000000;stroke-width:0.8;" x="40.603125" xlink:href="#mfc6f57e54c" y="258.10042"/>
      </g>
     </g>
     <g id="text_11">
      <!-- 30 -->
      <g transform="translate(20.878125 261.899639)scale(0.1 -0.1)">
       <defs>
        <path d="M 40.578125 39.3125 
Q 47.65625 37.796875 51.625 33 
Q 55.609375 28.21875 55.609375 21.1875 
Q 55.609375 10.40625 48.1875 4.484375 
Q 40.765625 -1.421875 27.09375 -1.421875 
Q 22.515625 -1.421875 17.65625 -0.515625 
Q 12.796875 0.390625 7.625 2.203125 
L 7.625 11.71875 
Q 11.71875 9.328125 16.59375 8.109375 
Q 21.484375 6.890625 26.8125 6.890625 
Q 36.078125 6.890625 40.9375 10.546875 
Q 45.796875 14.203125 45.796875 21.1875 
Q 45.796875 27.640625 41.28125 31.265625 
Q 36.765625 34.90625 28.71875 34.90625 
L 20.21875 34.90625 
L 20.21875 43.015625 
L 29.109375 43.015625 
Q 36.375 43.015625 40.234375 45.921875 
Q 44.09375 48.828125 44.09375 54.296875 
Q 44.09375 59.90625 40.109375 62.90625 
Q 36.140625 65.921875 28.71875 65.921875 
Q 24.65625 65.921875 20.015625 65.03125 
Q 15.375 64.15625 9.8125 62.3125 
L 9.8125 71.09375 
Q 15.4375 72.65625 20.34375 73.4375 
Q 25.25 74.21875 29.59375 74.21875 
Q 40.828125 74.21875 47.359375 69.109375 
Q 53.90625 64.015625 53.90625 55.328125 
Q 53.90625 49.265625 50.4375 45.09375 
Q 46.96875 40.921875 40.578125 39.3125 
z
" id="DejaVuSans-51"/>
       </defs>
       <use xlink:href="#DejaVuSans-51"/>
       <use x="63.623047" xlink:href="#DejaVuSans-48"/>
      </g>
     </g>
    </g>
    <g id="ytick_5">
     <g id="line2d_21">
      <path clip-path="url(#p2eb052fe9a)" d="M 40.603125 188.854518 
L 487.003125 188.854518 
" style="fill:none;stroke:#b0b0b0;stroke-linecap:square;stroke-width:0.8;"/>
     </g>
     <g id="line2d_22">
      <g>
       <use style="stroke:#000000;stroke-width:0.8;" x="40.603125" xlink:href="#mfc6f57e54c" y="188.854518"/>
      </g>
     </g>
     <g id="text_12">
      <!-- 40 -->
      <g transform="translate(20.878125 192.653737)scale(0.1 -0.1)">
       <use xlink:href="#DejaVuSans-52"/>
       <use x="63.623047" xlink:href="#DejaVuSans-48"/>
      </g>
     </g>
    </g>
    <g id="ytick_6">
     <g id="line2d_23">
      <path clip-path="url(#p2eb052fe9a)" d="M 40.603125 119.608617 
L 487.003125 119.608617 
" style="fill:none;stroke:#b0b0b0;stroke-linecap:square;stroke-width:0.8;"/>
     </g>
     <g id="line2d_24">
      <g>
       <use style="stroke:#000000;stroke-width:0.8;" x="40.603125" xlink:href="#mfc6f57e54c" y="119.608617"/>
      </g>
     </g>
     <g id="text_13">
      <!-- 50 -->
      <g transform="translate(20.878125 123.407836)scale(0.1 -0.1)">
       <defs>
        <path d="M 10.796875 72.90625 
L 49.515625 72.90625 
L 49.515625 64.59375 
L 19.828125 64.59375 
L 19.828125 46.734375 
Q 21.96875 47.46875 24.109375 47.828125 
Q 26.265625 48.1875 28.421875 48.1875 
Q 40.625 48.1875 47.75 41.5 
Q 54.890625 34.8125 54.890625 23.390625 
Q 54.890625 11.625 47.5625 5.09375 
Q 40.234375 -1.421875 26.90625 -1.421875 
Q 22.3125 -1.421875 17.546875 -0.640625 
Q 12.796875 0.140625 7.71875 1.703125 
L 7.71875 11.625 
Q 12.109375 9.234375 16.796875 8.0625 
Q 21.484375 6.890625 26.703125 6.890625 
Q 35.15625 6.890625 40.078125 11.328125 
Q 45.015625 15.765625 45.015625 23.390625 
Q 45.015625 31 40.078125 35.4375 
Q 35.15625 39.890625 26.703125 39.890625 
Q 22.75 39.890625 18.8125 39.015625 
Q 14.890625 38.140625 10.796875 36.28125 
z
" id="DejaVuSans-53"/>
       </defs>
       <use xlink:href="#DejaVuSans-53"/>
       <use x="63.623047" xlink:href="#DejaVuSans-48"/>
      </g>
     </g>
    </g>
    <g id="ytick_7">
     <g id="line2d_25">
      <path clip-path="url(#p2eb052fe9a)" d="M 40.603125 50.362715 
L 487.003125 50.362715 
" style="fill:none;stroke:#b0b0b0;stroke-linecap:square;stroke-width:0.8;"/>
     </g>
     <g id="line2d_26">
      <g>
       <use style="stroke:#000000;stroke-width:0.8;" x="40.603125" xlink:href="#mfc6f57e54c" y="50.362715"/>
      </g>
     </g>
     <g id="text_14">
      <!-- 60 -->
      <g transform="translate(20.878125 54.161934)scale(0.1 -0.1)">
       <use xlink:href="#DejaVuSans-54"/>
       <use x="63.623047" xlink:href="#DejaVuSans-48"/>
      </g>
     </g>
    </g>
    <g id="text_15">
     <!-- Counts -->
     <g transform="translate(14.798437 261.53125)rotate(-90)scale(0.1 -0.1)">
      <defs>
       <path d="M 44.28125 53.078125 
L 44.28125 44.578125 
Q 40.484375 46.53125 36.375 47.5 
Q 32.28125 48.484375 27.875 48.484375 
Q 21.1875 48.484375 17.84375 46.4375 
Q 14.5 44.390625 14.5 40.28125 
Q 14.5 37.15625 16.890625 35.375 
Q 19.28125 33.59375 26.515625 31.984375 
L 29.59375 31.296875 
Q 39.15625 29.25 43.1875 25.515625 
Q 47.21875 21.78125 47.21875 15.09375 
Q 47.21875 7.46875 41.1875 3.015625 
Q 35.15625 -1.421875 24.609375 -1.421875 
Q 20.21875 -1.421875 15.453125 -0.5625 
Q 10.6875 0.296875 5.421875 2 
L 5.421875 11.28125 
Q 10.40625 8.6875 15.234375 7.390625 
Q 20.0625 6.109375 24.8125 6.109375 
Q 31.15625 6.109375 34.5625 8.28125 
Q 37.984375 10.453125 37.984375 14.40625 
Q 37.984375 18.0625 35.515625 20.015625 
Q 33.0625 21.96875 24.703125 23.78125 
L 21.578125 24.515625 
Q 13.234375 26.265625 9.515625 29.90625 
Q 5.8125 33.546875 5.8125 39.890625 
Q 5.8125 47.609375 11.28125 51.796875 
Q 16.75 56 26.8125 56 
Q 31.78125 56 36.171875 55.265625 
Q 40.578125 54.546875 44.28125 53.078125 
z
" id="DejaVuSans-115"/>
      </defs>
      <use xlink:href="#DejaVuSans-67"/>
      <use x="69.824219" xlink:href="#DejaVuSans-111"/>
      <use x="131.005859" xlink:href="#DejaVuSans-117"/>
      <use x="194.384766" xlink:href="#DejaVuSans-110"/>
      <use x="257.763672" xlink:href="#DejaVuSans-116"/>
      <use x="296.972656" xlink:href="#DejaVuSans-115"/>
     </g>
    </g>
   </g>
   <g id="patch_122">
    <path d="M 40.603125 465.838125 
L 40.603125 22.318125 
" style="fill:none;stroke:#000000;stroke-linecap:square;stroke-linejoin:miter;stroke-width:0.8;"/>
   </g>
   <g id="patch_123">
    <path d="M 487.003125 465.838125 
L 487.003125 22.318125 
" style="fill:none;stroke:#000000;stroke-linecap:square;stroke-linejoin:miter;stroke-width:0.8;"/>
   </g>
   <g id="patch_124">
    <path d="M 40.603125 465.838125 
L 487.003125 465.838125 
" style="fill:none;stroke:#000000;stroke-linecap:square;stroke-linejoin:miter;stroke-width:0.8;"/>
   </g>
   <g id="patch_125">
    <path d="M 40.603125 22.318125 
L 487.003125 22.318125 
" style="fill:none;stroke:#000000;stroke-linecap:square;stroke-linejoin:miter;stroke-width:0.8;"/>
   </g>
   <g id="text_16">
    <!-- Pedestal of channel #17 -->
    <g transform="translate(190.479375 16.318125)scale(0.12 -0.12)">
     <defs>
      <path d="M 19.671875 64.796875 
L 19.671875 37.40625 
L 32.078125 37.40625 
Q 38.96875 37.40625 42.71875 40.96875 
Q 46.484375 44.53125 46.484375 51.125 
Q 46.484375 57.671875 42.71875 61.234375 
Q 38.96875 64.796875 32.078125 64.796875 
z
M 9.8125 72.90625 
L 32.078125 72.90625 
Q 44.34375 72.90625 50.609375 67.359375 
Q 56.890625 61.8125 56.890625 51.125 
Q 56.890625 40.328125 50.609375 34.8125 
Q 44.34375 29.296875 32.078125 29.296875 
L 19.671875 29.296875 
L 19.671875 0 
L 9.8125 0 
z
" id="DejaVuSans-80"/>
      <path d="M 37.109375 75.984375 
L 37.109375 68.5 
L 28.515625 68.5 
Q 23.6875 68.5 21.796875 66.546875 
Q 19.921875 64.59375 19.921875 59.515625 
L 19.921875 54.6875 
L 34.71875 54.6875 
L 34.71875 47.703125 
L 19.921875 47.703125 
L 19.921875 0 
L 10.890625 0 
L 10.890625 47.703125 
L 2.296875 47.703125 
L 2.296875 54.6875 
L 10.890625 54.6875 
L 10.890625 58.5 
Q 10.890625 67.625 15.140625 71.796875 
Q 19.390625 75.984375 28.609375 75.984375 
z
" id="DejaVuSans-102"/>
      <path d="M 51.125 44 
L 36.921875 44 
L 32.8125 27.6875 
L 47.125 27.6875 
z
M 43.796875 71.78125 
L 38.71875 51.515625 
L 52.984375 51.515625 
L 58.109375 71.78125 
L 65.921875 71.78125 
L 60.890625 51.515625 
L 76.125 51.515625 
L 76.125 44 
L 58.984375 44 
L 54.984375 27.6875 
L 70.515625 27.6875 
L 70.515625 20.21875 
L 53.078125 20.21875 
L 48 0 
L 40.1875 0 
L 45.21875 20.21875 
L 30.90625 20.21875 
L 25.875 0 
L 18.015625 0 
L 23.09375 20.21875 
L 7.71875 20.21875 
L 7.71875 27.6875 
L 24.90625 27.6875 
L 29 44 
L 13.28125 44 
L 13.28125 51.515625 
L 30.90625 51.515625 
L 35.890625 71.78125 
z
" id="DejaVuSans-35"/>
      <path d="M 8.203125 72.90625 
L 55.078125 72.90625 
L 55.078125 68.703125 
L 28.609375 0 
L 18.3125 0 
L 43.21875 64.59375 
L 8.203125 64.59375 
z
" id="DejaVuSans-55"/>
     </defs>
     <use xlink:href="#DejaVuSans-80"/>
     <use x="56.677734" xlink:href="#DejaVuSans-101"/>
     <use x="118.201172" xlink:href="#DejaVuSans-100"/>
     <use x="181.677734" xlink:href="#DejaVuSans-101"/>
     <use x="243.201172" xlink:href="#DejaVuSans-115"/>
     <use x="295.300781" xlink:href="#DejaVuSans-116"/>
     <use x="334.509766" xlink:href="#DejaVuSans-97"/>
     <use x="395.789062" xlink:href="#DejaVuSans-108"/>
     <use x="423.572266" xlink:href="#DejaVuSans-32"/>
     <use x="455.359375" xlink:href="#DejaVuSans-111"/>
     <use x="516.541016" xlink:href="#DejaVuSans-102"/>
     <use x="551.746094" xlink:href="#DejaVuSans-32"/>
     <use x="583.533203" xlink:href="#DejaVuSans-99"/>
     <use x="638.513672" xlink:href="#DejaVuSans-104"/>
     <use x="701.892578" xlink:href="#DejaVuSans-97"/>
     <use x="763.171875" xlink:href="#DejaVuSans-110"/>
     <use x="826.550781" xlink:href="#DejaVuSans-110"/>
     <use x="889.929688" xlink:href="#DejaVuSans-101"/>
     <use x="951.453125" xlink:href="#DejaVuSans-108"/>
     <use x="979.236328" xlink:href="#DejaVuSans-32"/>
     <use x="1011.023438" xlink:href="#DejaVuSans-35"/>
     <use x="1094.8125" xlink:href="#DejaVuSans-49"/>
     <use x="1158.435547" xlink:href="#DejaVuSans-55"/>
    </g>
   </g>
   <g id="legend_1">
    <g id="patch_126">
     <path d="M 490.567125 252.928125 
L 656.867125 252.928125 
Q 658.867125 252.928125 658.867125 250.928125 
L 658.867125 237.228125 
Q 658.867125 235.228125 656.867125 235.228125 
L 490.567125 235.228125 
Q 488.567125 235.228125 488.567125 237.228125 
L 488.567125 250.928125 
Q 488.567125 252.928125 490.567125 252.928125 
z
" style="fill:#ffffff;opacity:0.8;stroke:#cccccc;stroke-linejoin:miter;"/>
    </g>
    <g id="patch_127">
     <path d="M 492.567125 246.828125 
L 512.567125 246.828125 
L 512.567125 239.828125 
L 492.567125 239.828125 
z
" style="fill:#0000ff;fill-opacity:0.5;stroke:#000000;stroke-linejoin:miter;stroke-width:1.2;"/>
    </g>
    <g id="text_17">
     <!-- $\tau_1\quad(\mu=196.10,\sigma=11.47$) -->
     <g transform="translate(520.567125 246.828125)scale(0.1 -0.1)">
      <defs>
       <path d="M 32.859375 9.96875 
Q 34.1875 7.625 39.453125 7.625 
L 43.75 7.625 
L 42.28125 0 
L 36.921875 0 
Q 28.125 0 25 4.6875 
Q 21.921875 9.46875 23.96875 19.828125 
L 29 45.703125 
L 8.453125 45.703125 
L 10.203125 54.6875 
L 60.640625 54.6875 
L 58.890625 45.703125 
L 38.1875 45.703125 
L 33.015625 19.28125 
Q 31.640625 12.203125 32.859375 9.96875 
z
" id="DejaVuSans-Oblique-964"/>
       <path d="M 31 75.875 
Q 24.46875 64.65625 21.28125 53.65625 
Q 18.109375 42.671875 18.109375 31.390625 
Q 18.109375 20.125 21.3125 9.0625 
Q 24.515625 -2 31 -13.1875 
L 23.1875 -13.1875 
Q 15.875 -1.703125 12.234375 9.375 
Q 8.59375 20.453125 8.59375 31.390625 
Q 8.59375 42.28125 12.203125 53.3125 
Q 15.828125 64.359375 23.1875 75.875 
z
" id="DejaVuSans-40"/>
       <path d="M -1.3125 -20.796875 
L 13.375 54.6875 
L 22.40625 54.6875 
L 15.765625 20.65625 
Q 15.578125 19.625 15.421875 18.359375 
Q 15.28125 17.09375 15.28125 15.828125 
Q 15.28125 11.28125 18.140625 8.828125 
Q 21 6.390625 26.3125 6.390625 
Q 33.546875 6.390625 37.984375 10.484375 
Q 42.4375 14.59375 44 22.796875 
L 50.203125 54.6875 
L 59.1875 54.6875 
L 51.03125 12.640625 
Q 50.828125 11.71875 50.75 11.03125 
Q 50.6875 10.359375 50.6875 9.8125 
Q 50.6875 8.296875 51.296875 7.59375 
Q 51.90625 6.890625 53.21875 6.890625 
Q 53.71875 6.890625 54.5625 7.125 
Q 55.421875 7.375 56.984375 8.015625 
L 55.609375 0.78125 
Q 53.46875 -0.296875 51.515625 -0.859375 
Q 49.5625 -1.421875 47.703125 -1.421875 
Q 44.484375 -1.421875 42.65625 0.625 
Q 40.828125 2.6875 40.828125 6.296875 
Q 38.09375 2.390625 34.296875 0.484375 
Q 30.515625 -1.421875 25.390625 -1.421875 
Q 20.84375 -1.421875 17.453125 0.671875 
Q 14.0625 2.78125 12.984375 6.203125 
L 7.71875 -20.796875 
z
" id="DejaVuSans-Oblique-956"/>
       <path d="M 10.59375 45.40625 
L 73.1875 45.40625 
L 73.1875 37.203125 
L 10.59375 37.203125 
z
M 10.59375 25.484375 
L 73.1875 25.484375 
L 73.1875 17.1875 
L 10.59375 17.1875 
z
" id="DejaVuSans-61"/>
       <path d="M 10.984375 1.515625 
L 10.984375 10.5 
Q 14.703125 8.734375 18.5 7.8125 
Q 22.3125 6.890625 25.984375 6.890625 
Q 35.75 6.890625 40.890625 13.453125 
Q 46.046875 20.015625 46.78125 33.40625 
Q 43.953125 29.203125 39.59375 26.953125 
Q 35.25 24.703125 29.984375 24.703125 
Q 19.046875 24.703125 12.671875 31.3125 
Q 6.296875 37.9375 6.296875 49.421875 
Q 6.296875 60.640625 12.9375 67.421875 
Q 19.578125 74.21875 30.609375 74.21875 
Q 43.265625 74.21875 49.921875 64.515625 
Q 56.59375 54.828125 56.59375 36.375 
Q 56.59375 19.140625 48.40625 8.859375 
Q 40.234375 -1.421875 26.421875 -1.421875 
Q 22.703125 -1.421875 18.890625 -0.6875 
Q 15.09375 0.046875 10.984375 1.515625 
z
M 30.609375 32.421875 
Q 37.25 32.421875 41.125 36.953125 
Q 45.015625 41.5 45.015625 49.421875 
Q 45.015625 57.28125 41.125 61.84375 
Q 37.25 66.40625 30.609375 66.40625 
Q 23.96875 66.40625 20.09375 61.84375 
Q 16.21875 57.28125 16.21875 49.421875 
Q 16.21875 41.5 20.09375 36.953125 
Q 23.96875 32.421875 30.609375 32.421875 
z
" id="DejaVuSans-57"/>
       <path d="M 10.6875 12.40625 
L 21 12.40625 
L 21 0 
L 10.6875 0 
z
" id="DejaVuSans-46"/>
       <path d="M 11.71875 12.40625 
L 22.015625 12.40625 
L 22.015625 4 
L 14.015625 -11.625 
L 7.71875 -11.625 
L 11.71875 4 
z
" id="DejaVuSans-44"/>
       <path d="M 34.671875 47.5625 
Q 27.25 47.5625 22.21875 42.1875 
Q 16.890625 36.578125 15.140625 27.296875 
Q 13.1875 17.484375 16.3125 11.8125 
Q 19.390625 6.203125 26.65625 6.203125 
Q 33.84375 6.203125 39.109375 11.859375 
Q 44.4375 17.53125 46.34375 27.296875 
Q 48.046875 36.234375 45.015625 42.1875 
Q 42.1875 47.5625 34.671875 47.5625 
z
M 36.078125 54.734375 
L 65.921875 54.6875 
L 64.15625 45.703125 
L 54.109375 45.703125 
Q 57.90625 38.09375 55.859375 27.296875 
Q 53.21875 13.875 45.0625 6.25 
Q 36.859375 -1.421875 25.140625 -1.421875 
Q 13.375 -1.421875 8.203125 6.25 
Q 3.03125 13.875 5.671875 27.296875 
Q 8.25 40.765625 16.40625 48.390625 
Q 23.1875 54.734375 36.078125 54.734375 
z
" id="DejaVuSans-Oblique-963"/>
       <path d="M 8.015625 75.875 
L 15.828125 75.875 
Q 23.140625 64.359375 26.78125 53.3125 
Q 30.421875 42.28125 30.421875 31.390625 
Q 30.421875 20.453125 26.78125 9.375 
Q 23.140625 -1.703125 15.828125 -13.1875 
L 8.015625 -13.1875 
Q 14.5 -2 17.703125 9.0625 
Q 20.90625 20.125 20.90625 31.390625 
Q 20.90625 42.671875 17.703125 53.65625 
Q 14.5 64.65625 8.015625 75.875 
z
" id="DejaVuSans-41"/>
      </defs>
      <use transform="translate(0 0.125)" xlink:href="#DejaVuSans-Oblique-964"/>
      <use transform="translate(60.205078 -16.28125)scale(0.7)" xlink:href="#DejaVuSans-49"/>
      <use transform="translate(204.887695 0.125)" xlink:href="#DejaVuSans-40"/>
      <use transform="translate(243.901367 0.125)" xlink:href="#DejaVuSans-Oblique-956"/>
      <use transform="translate(327.006836 0.125)" xlink:href="#DejaVuSans-61"/>
      <use transform="translate(430.27832 0.125)" xlink:href="#DejaVuSans-49"/>
      <use transform="translate(493.901367 0.125)" xlink:href="#DejaVuSans-57"/>
      <use transform="translate(557.524414 0.125)" xlink:href="#DejaVuSans-54"/>
      <use transform="translate(621.147461 0.125)" xlink:href="#DejaVuSans-46"/>
      <use transform="translate(652.93457 0.125)" xlink:href="#DejaVuSans-49"/>
      <use transform="translate(716.557617 0.125)" xlink:href="#DejaVuSans-48"/>
      <use transform="translate(780.180664 0.125)" xlink:href="#DejaVuSans-44"/>
      <use transform="translate(831.450195 0.125)" xlink:href="#DejaVuSans-Oblique-963"/>
      <use transform="translate(914.311523 0.125)" xlink:href="#DejaVuSans-61"/>
      <use transform="translate(1017.583008 0.125)" xlink:href="#DejaVuSans-49"/>
      <use transform="translate(1081.206055 0.125)" xlink:href="#DejaVuSans-49"/>
      <use transform="translate(1144.829102 0.125)" xlink:href="#DejaVuSans-46"/>
      <use transform="translate(1176.616211 0.125)" xlink:href="#DejaVuSans-52"/>
      <use transform="translate(1240.239258 0.125)" xlink:href="#DejaVuSans-55"/>
      <use transform="translate(1303.862305 0.125)" xlink:href="#DejaVuSans-41"/>
     </g>
    </g>
   </g>
  </g>
 </g>
 <defs>
  <clipPath id="p2eb052fe9a">
   <rect height="443.52" width="446.4" x="40.603125" y="22.318125"/>
  </clipPath>
 </defs>
</svg>
