<?xml version="1.0" encoding="utf-8" standalone="no"?>
<!DOCTYPE svg PUBLIC "-//W3C//DTD SVG 1.1//EN"
  "http://www.w3.org/Graphics/SVG/1.1/DTD/svg11.dtd">
<!-- Created with matplotlib (https://matplotlib.org/) -->
<svg height="503.6725pt" version="1.1" viewBox="0 0 666.067125 503.6725" width="666.067125pt" xmlns="http://www.w3.org/2000/svg" xmlns:xlink="http://www.w3.org/1999/xlink">
 <metadata>
  <rdf:RDF xmlns:cc="http://creativecommons.org/ns#" xmlns:dc="http://purl.org/dc/elements/1.1/" xmlns:rdf="http://www.w3.org/1999/02/22-rdf-syntax-ns#">
   <cc:Work>
    <dc:type rdf:resource="http://purl.org/dc/dcmitype/StillImage"/>
    <dc:date>2022-12-07T15:50:00.501455</dc:date>
    <dc:format>image/svg+xml</dc:format>
    <dc:creator>
     <cc:Agent>
      <dc:title>Matplotlib v3.3.4, https://matplotlib.org/</dc:title>
     </cc:Agent>
    </dc:creator>
   </cc:Work>
  </rdf:RDF>
 </metadata>
 <defs>
  <style type="text/css">*{stroke-linecap:butt;stroke-linejoin:round;}</style>
 </defs>
 <g id="figure_1">
  <g id="patch_1">
   <path d="M 0 503.6725 
L 666.067125 503.6725 
L 666.067125 0 
L 0 0 
z
" style="fill:#ffffff;"/>
  </g>
  <g id="axes_1">
   <g id="patch_2">
    <path d="M 40.603125 465.838125 
L 487.003125 465.838125 
L 487.003125 22.318125 
L 40.603125 22.318125 
z
" style="fill:#ffffff;"/>
   </g>
   <g id="patch_3">
    <path clip-path="url(#p744700d165)" d="M 60.894034 465.838125 
L 62.62092 465.838125 
L 62.62092 465.838125 
L 60.894034 465.838125 
z
" style="fill:#0000ff;fill-opacity:0.5;stroke:#000000;stroke-linejoin:miter;stroke-width:1.2;"/>
   </g>
   <g id="patch_4">
    <path clip-path="url(#p744700d165)" d="M 62.62092 465.838125 
L 64.347806 465.838125 
L 64.347806 465.838125 
L 62.62092 465.838125 
z
" style="fill:#0000ff;fill-opacity:0.5;stroke:#000000;stroke-linejoin:miter;stroke-width:1.2;"/>
   </g>
   <g id="patch_5">
    <path clip-path="url(#p744700d165)" d="M 64.347806 465.838125 
L 66.074692 465.838125 
L 66.074692 465.838125 
L 64.347806 465.838125 
z
" style="fill:#0000ff;fill-opacity:0.5;stroke:#000000;stroke-linejoin:miter;stroke-width:1.2;"/>
   </g>
   <g id="patch_6">
    <path clip-path="url(#p744700d165)" d="M 66.074692 465.838125 
L 67.801578 465.838125 
L 67.801578 465.838125 
L 66.074692 465.838125 
z
" style="fill:#0000ff;fill-opacity:0.5;stroke:#000000;stroke-linejoin:miter;stroke-width:1.2;"/>
   </g>
   <g id="patch_7">
    <path clip-path="url(#p744700d165)" d="M 67.801578 465.838125 
L 69.528463 465.838125 
L 69.528463 465.838125 
L 67.801578 465.838125 
z
" style="fill:#0000ff;fill-opacity:0.5;stroke:#000000;stroke-linejoin:miter;stroke-width:1.2;"/>
   </g>
   <g id="patch_8">
    <path clip-path="url(#p744700d165)" d="M 69.528463 465.838125 
L 71.255349 465.838125 
L 71.255349 465.838125 
L 69.528463 465.838125 
z
" style="fill:#0000ff;fill-opacity:0.5;stroke:#000000;stroke-linejoin:miter;stroke-width:1.2;"/>
   </g>
   <g id="patch_9">
    <path clip-path="url(#p744700d165)" d="M 71.255349 465.838125 
L 72.982235 465.838125 
L 72.982235 465.838125 
L 71.255349 465.838125 
z
" style="fill:#0000ff;fill-opacity:0.5;stroke:#000000;stroke-linejoin:miter;stroke-width:1.2;"/>
   </g>
   <g id="patch_10">
    <path clip-path="url(#p744700d165)" d="M 72.982235 465.838125 
L 74.709121 465.838125 
L 74.709121 465.838125 
L 72.982235 465.838125 
z
" style="fill:#0000ff;fill-opacity:0.5;stroke:#000000;stroke-linejoin:miter;stroke-width:1.2;"/>
   </g>
   <g id="patch_11">
    <path clip-path="url(#p744700d165)" d="M 74.709121 465.838125 
L 76.436007 465.838125 
L 76.436007 465.838125 
L 74.709121 465.838125 
z
" style="fill:#0000ff;fill-opacity:0.5;stroke:#000000;stroke-linejoin:miter;stroke-width:1.2;"/>
   </g>
   <g id="patch_12">
    <path clip-path="url(#p744700d165)" d="M 76.436007 465.838125 
L 78.162893 465.838125 
L 78.162893 465.838125 
L 76.436007 465.838125 
z
" style="fill:#0000ff;fill-opacity:0.5;stroke:#000000;stroke-linejoin:miter;stroke-width:1.2;"/>
   </g>
   <g id="patch_13">
    <path clip-path="url(#p744700d165)" d="M 78.162893 465.838125 
L 79.889779 465.838125 
L 79.889779 455.780982 
L 78.162893 455.780982 
z
" style="fill:#0000ff;fill-opacity:0.5;stroke:#000000;stroke-linejoin:miter;stroke-width:1.2;"/>
   </g>
   <g id="patch_14">
    <path clip-path="url(#p744700d165)" d="M 79.889779 465.838125 
L 81.616665 465.838125 
L 81.616665 455.780982 
L 79.889779 455.780982 
z
" style="fill:#0000ff;fill-opacity:0.5;stroke:#000000;stroke-linejoin:miter;stroke-width:1.2;"/>
   </g>
   <g id="patch_15">
    <path clip-path="url(#p744700d165)" d="M 81.616665 465.838125 
L 83.343551 465.838125 
L 83.343551 455.780982 
L 81.616665 455.780982 
z
" style="fill:#0000ff;fill-opacity:0.5;stroke:#000000;stroke-linejoin:miter;stroke-width:1.2;"/>
   </g>
   <g id="patch_16">
    <path clip-path="url(#p744700d165)" d="M 83.343551 465.838125 
L 85.070436 465.838125 
L 85.070436 455.780982 
L 83.343551 455.780982 
z
" style="fill:#0000ff;fill-opacity:0.5;stroke:#000000;stroke-linejoin:miter;stroke-width:1.2;"/>
   </g>
   <g id="patch_17">
    <path clip-path="url(#p744700d165)" d="M 85.070436 465.838125 
L 86.797322 465.838125 
L 86.797322 465.838125 
L 85.070436 465.838125 
z
" style="fill:#0000ff;fill-opacity:0.5;stroke:#000000;stroke-linejoin:miter;stroke-width:1.2;"/>
   </g>
   <g id="patch_18">
    <path clip-path="url(#p744700d165)" d="M 86.797322 465.838125 
L 88.524208 465.838125 
L 88.524208 445.723839 
L 86.797322 445.723839 
z
" style="fill:#0000ff;fill-opacity:0.5;stroke:#000000;stroke-linejoin:miter;stroke-width:1.2;"/>
   </g>
   <g id="patch_19">
    <path clip-path="url(#p744700d165)" d="M 88.524208 465.838125 
L 90.251094 465.838125 
L 90.251094 455.780982 
L 88.524208 455.780982 
z
" style="fill:#0000ff;fill-opacity:0.5;stroke:#000000;stroke-linejoin:miter;stroke-width:1.2;"/>
   </g>
   <g id="patch_20">
    <path clip-path="url(#p744700d165)" d="M 90.251094 465.838125 
L 91.97798 465.838125 
L 91.97798 465.838125 
L 90.251094 465.838125 
z
" style="fill:#0000ff;fill-opacity:0.5;stroke:#000000;stroke-linejoin:miter;stroke-width:1.2;"/>
   </g>
   <g id="patch_21">
    <path clip-path="url(#p744700d165)" d="M 91.97798 465.838125 
L 93.704866 465.838125 
L 93.704866 465.838125 
L 91.97798 465.838125 
z
" style="fill:#0000ff;fill-opacity:0.5;stroke:#000000;stroke-linejoin:miter;stroke-width:1.2;"/>
   </g>
   <g id="patch_22">
    <path clip-path="url(#p744700d165)" d="M 93.704866 465.838125 
L 95.431752 465.838125 
L 95.431752 465.838125 
L 93.704866 465.838125 
z
" style="fill:#0000ff;fill-opacity:0.5;stroke:#000000;stroke-linejoin:miter;stroke-width:1.2;"/>
   </g>
   <g id="patch_23">
    <path clip-path="url(#p744700d165)" d="M 95.431752 465.838125 
L 97.158638 465.838125 
L 97.158638 455.780982 
L 95.431752 455.780982 
z
" style="fill:#0000ff;fill-opacity:0.5;stroke:#000000;stroke-linejoin:miter;stroke-width:1.2;"/>
   </g>
   <g id="patch_24">
    <path clip-path="url(#p744700d165)" d="M 97.158638 465.838125 
L 98.885523 465.838125 
L 98.885523 465.838125 
L 97.158638 465.838125 
z
" style="fill:#0000ff;fill-opacity:0.5;stroke:#000000;stroke-linejoin:miter;stroke-width:1.2;"/>
   </g>
   <g id="patch_25">
    <path clip-path="url(#p744700d165)" d="M 98.885523 465.838125 
L 100.612409 465.838125 
L 100.612409 455.780982 
L 98.885523 455.780982 
z
" style="fill:#0000ff;fill-opacity:0.5;stroke:#000000;stroke-linejoin:miter;stroke-width:1.2;"/>
   </g>
   <g id="patch_26">
    <path clip-path="url(#p744700d165)" d="M 100.612409 465.838125 
L 102.339295 465.838125 
L 102.339295 455.780982 
L 100.612409 455.780982 
z
" style="fill:#0000ff;fill-opacity:0.5;stroke:#000000;stroke-linejoin:miter;stroke-width:1.2;"/>
   </g>
   <g id="patch_27">
    <path clip-path="url(#p744700d165)" d="M 102.339295 465.838125 
L 104.066181 465.838125 
L 104.066181 465.838125 
L 102.339295 465.838125 
z
" style="fill:#0000ff;fill-opacity:0.5;stroke:#000000;stroke-linejoin:miter;stroke-width:1.2;"/>
   </g>
   <g id="patch_28">
    <path clip-path="url(#p744700d165)" d="M 104.066181 465.838125 
L 105.793067 465.838125 
L 105.793067 455.780982 
L 104.066181 455.780982 
z
" style="fill:#0000ff;fill-opacity:0.5;stroke:#000000;stroke-linejoin:miter;stroke-width:1.2;"/>
   </g>
   <g id="patch_29">
    <path clip-path="url(#p744700d165)" d="M 105.793067 465.838125 
L 107.519953 465.838125 
L 107.519953 465.838125 
L 105.793067 465.838125 
z
" style="fill:#0000ff;fill-opacity:0.5;stroke:#000000;stroke-linejoin:miter;stroke-width:1.2;"/>
   </g>
   <g id="patch_30">
    <path clip-path="url(#p744700d165)" d="M 107.519953 465.838125 
L 109.246839 465.838125 
L 109.246839 465.838125 
L 107.519953 465.838125 
z
" style="fill:#0000ff;fill-opacity:0.5;stroke:#000000;stroke-linejoin:miter;stroke-width:1.2;"/>
   </g>
   <g id="patch_31">
    <path clip-path="url(#p744700d165)" d="M 109.246839 465.838125 
L 110.973725 465.838125 
L 110.973725 455.780982 
L 109.246839 455.780982 
z
" style="fill:#0000ff;fill-opacity:0.5;stroke:#000000;stroke-linejoin:miter;stroke-width:1.2;"/>
   </g>
   <g id="patch_32">
    <path clip-path="url(#p744700d165)" d="M 110.973725 465.838125 
L 112.70061 465.838125 
L 112.70061 435.666696 
L 110.973725 435.666696 
z
" style="fill:#0000ff;fill-opacity:0.5;stroke:#000000;stroke-linejoin:miter;stroke-width:1.2;"/>
   </g>
   <g id="patch_33">
    <path clip-path="url(#p744700d165)" d="M 112.70061 465.838125 
L 114.427496 465.838125 
L 114.427496 455.780982 
L 112.70061 455.780982 
z
" style="fill:#0000ff;fill-opacity:0.5;stroke:#000000;stroke-linejoin:miter;stroke-width:1.2;"/>
   </g>
   <g id="patch_34">
    <path clip-path="url(#p744700d165)" d="M 114.427496 465.838125 
L 116.154382 465.838125 
L 116.154382 455.780982 
L 114.427496 455.780982 
z
" style="fill:#0000ff;fill-opacity:0.5;stroke:#000000;stroke-linejoin:miter;stroke-width:1.2;"/>
   </g>
   <g id="patch_35">
    <path clip-path="url(#p744700d165)" d="M 116.154382 465.838125 
L 117.881268 465.838125 
L 117.881268 455.780982 
L 116.154382 455.780982 
z
" style="fill:#0000ff;fill-opacity:0.5;stroke:#000000;stroke-linejoin:miter;stroke-width:1.2;"/>
   </g>
   <g id="patch_36">
    <path clip-path="url(#p744700d165)" d="M 117.881268 465.838125 
L 119.608154 465.838125 
L 119.608154 445.723839 
L 117.881268 445.723839 
z
" style="fill:#0000ff;fill-opacity:0.5;stroke:#000000;stroke-linejoin:miter;stroke-width:1.2;"/>
   </g>
   <g id="patch_37">
    <path clip-path="url(#p744700d165)" d="M 119.608154 465.838125 
L 121.33504 465.838125 
L 121.33504 435.666696 
L 119.608154 435.666696 
z
" style="fill:#0000ff;fill-opacity:0.5;stroke:#000000;stroke-linejoin:miter;stroke-width:1.2;"/>
   </g>
   <g id="patch_38">
    <path clip-path="url(#p744700d165)" d="M 121.33504 465.838125 
L 123.061926 465.838125 
L 123.061926 445.723839 
L 121.33504 445.723839 
z
" style="fill:#0000ff;fill-opacity:0.5;stroke:#000000;stroke-linejoin:miter;stroke-width:1.2;"/>
   </g>
   <g id="patch_39">
    <path clip-path="url(#p744700d165)" d="M 123.061926 465.838125 
L 124.788812 465.838125 
L 124.788812 445.723839 
L 123.061926 445.723839 
z
" style="fill:#0000ff;fill-opacity:0.5;stroke:#000000;stroke-linejoin:miter;stroke-width:1.2;"/>
   </g>
   <g id="patch_40">
    <path clip-path="url(#p744700d165)" d="M 124.788812 465.838125 
L 126.515698 465.838125 
L 126.515698 465.838125 
L 124.788812 465.838125 
z
" style="fill:#0000ff;fill-opacity:0.5;stroke:#000000;stroke-linejoin:miter;stroke-width:1.2;"/>
   </g>
   <g id="patch_41">
    <path clip-path="url(#p744700d165)" d="M 126.515698 465.838125 
L 128.242583 465.838125 
L 128.242583 425.609554 
L 126.515698 425.609554 
z
" style="fill:#0000ff;fill-opacity:0.5;stroke:#000000;stroke-linejoin:miter;stroke-width:1.2;"/>
   </g>
   <g id="patch_42">
    <path clip-path="url(#p744700d165)" d="M 128.242583 465.838125 
L 129.969469 465.838125 
L 129.969469 465.838125 
L 128.242583 465.838125 
z
" style="fill:#0000ff;fill-opacity:0.5;stroke:#000000;stroke-linejoin:miter;stroke-width:1.2;"/>
   </g>
   <g id="patch_43">
    <path clip-path="url(#p744700d165)" d="M 129.969469 465.838125 
L 131.696355 465.838125 
L 131.696355 445.723839 
L 129.969469 445.723839 
z
" style="fill:#0000ff;fill-opacity:0.5;stroke:#000000;stroke-linejoin:miter;stroke-width:1.2;"/>
   </g>
   <g id="patch_44">
    <path clip-path="url(#p744700d165)" d="M 131.696355 465.838125 
L 133.423241 465.838125 
L 133.423241 445.723839 
L 131.696355 445.723839 
z
" style="fill:#0000ff;fill-opacity:0.5;stroke:#000000;stroke-linejoin:miter;stroke-width:1.2;"/>
   </g>
   <g id="patch_45">
    <path clip-path="url(#p744700d165)" d="M 133.423241 465.838125 
L 135.150127 465.838125 
L 135.150127 435.666696 
L 133.423241 435.666696 
z
" style="fill:#0000ff;fill-opacity:0.5;stroke:#000000;stroke-linejoin:miter;stroke-width:1.2;"/>
   </g>
   <g id="patch_46">
    <path clip-path="url(#p744700d165)" d="M 135.150127 465.838125 
L 136.877013 465.838125 
L 136.877013 465.838125 
L 135.150127 465.838125 
z
" style="fill:#0000ff;fill-opacity:0.5;stroke:#000000;stroke-linejoin:miter;stroke-width:1.2;"/>
   </g>
   <g id="patch_47">
    <path clip-path="url(#p744700d165)" d="M 136.877013 465.838125 
L 138.603899 465.838125 
L 138.603899 465.838125 
L 136.877013 465.838125 
z
" style="fill:#0000ff;fill-opacity:0.5;stroke:#000000;stroke-linejoin:miter;stroke-width:1.2;"/>
   </g>
   <g id="patch_48">
    <path clip-path="url(#p744700d165)" d="M 138.603899 465.838125 
L 140.330785 465.838125 
L 140.330785 425.609554 
L 138.603899 425.609554 
z
" style="fill:#0000ff;fill-opacity:0.5;stroke:#000000;stroke-linejoin:miter;stroke-width:1.2;"/>
   </g>
   <g id="patch_49">
    <path clip-path="url(#p744700d165)" d="M 140.330785 465.838125 
L 142.05767 465.838125 
L 142.05767 395.438125 
L 140.330785 395.438125 
z
" style="fill:#0000ff;fill-opacity:0.5;stroke:#000000;stroke-linejoin:miter;stroke-width:1.2;"/>
   </g>
   <g id="patch_50">
    <path clip-path="url(#p744700d165)" d="M 142.05767 465.838125 
L 143.784556 465.838125 
L 143.784556 435.666696 
L 142.05767 435.666696 
z
" style="fill:#0000ff;fill-opacity:0.5;stroke:#000000;stroke-linejoin:miter;stroke-width:1.2;"/>
   </g>
   <g id="patch_51">
    <path clip-path="url(#p744700d165)" d="M 143.784556 465.838125 
L 145.511442 465.838125 
L 145.511442 425.609554 
L 143.784556 425.609554 
z
" style="fill:#0000ff;fill-opacity:0.5;stroke:#000000;stroke-linejoin:miter;stroke-width:1.2;"/>
   </g>
   <g id="patch_52">
    <path clip-path="url(#p744700d165)" d="M 145.511442 465.838125 
L 147.238328 465.838125 
L 147.238328 455.780982 
L 145.511442 455.780982 
z
" style="fill:#0000ff;fill-opacity:0.5;stroke:#000000;stroke-linejoin:miter;stroke-width:1.2;"/>
   </g>
   <g id="patch_53">
    <path clip-path="url(#p744700d165)" d="M 147.238328 465.838125 
L 148.965214 465.838125 
L 148.965214 435.666696 
L 147.238328 435.666696 
z
" style="fill:#0000ff;fill-opacity:0.5;stroke:#000000;stroke-linejoin:miter;stroke-width:1.2;"/>
   </g>
   <g id="patch_54">
    <path clip-path="url(#p744700d165)" d="M 148.965214 465.838125 
L 150.6921 465.838125 
L 150.6921 415.552411 
L 148.965214 415.552411 
z
" style="fill:#0000ff;fill-opacity:0.5;stroke:#000000;stroke-linejoin:miter;stroke-width:1.2;"/>
   </g>
   <g id="patch_55">
    <path clip-path="url(#p744700d165)" d="M 150.6921 465.838125 
L 152.418986 465.838125 
L 152.418986 425.609554 
L 150.6921 425.609554 
z
" style="fill:#0000ff;fill-opacity:0.5;stroke:#000000;stroke-linejoin:miter;stroke-width:1.2;"/>
   </g>
   <g id="patch_56">
    <path clip-path="url(#p744700d165)" d="M 152.418986 465.838125 
L 154.145872 465.838125 
L 154.145872 445.723839 
L 152.418986 445.723839 
z
" style="fill:#0000ff;fill-opacity:0.5;stroke:#000000;stroke-linejoin:miter;stroke-width:1.2;"/>
   </g>
   <g id="patch_57">
    <path clip-path="url(#p744700d165)" d="M 154.145872 465.838125 
L 155.872757 465.838125 
L 155.872757 385.380982 
L 154.145872 385.380982 
z
" style="fill:#0000ff;fill-opacity:0.5;stroke:#000000;stroke-linejoin:miter;stroke-width:1.2;"/>
   </g>
   <g id="patch_58">
    <path clip-path="url(#p744700d165)" d="M 155.872757 465.838125 
L 157.599643 465.838125 
L 157.599643 435.666696 
L 155.872757 435.666696 
z
" style="fill:#0000ff;fill-opacity:0.5;stroke:#000000;stroke-linejoin:miter;stroke-width:1.2;"/>
   </g>
   <g id="patch_59">
    <path clip-path="url(#p744700d165)" d="M 157.599643 465.838125 
L 159.326529 465.838125 
L 159.326529 455.780982 
L 157.599643 455.780982 
z
" style="fill:#0000ff;fill-opacity:0.5;stroke:#000000;stroke-linejoin:miter;stroke-width:1.2;"/>
   </g>
   <g id="patch_60">
    <path clip-path="url(#p744700d165)" d="M 159.326529 465.838125 
L 161.053415 465.838125 
L 161.053415 415.552411 
L 159.326529 415.552411 
z
" style="fill:#0000ff;fill-opacity:0.5;stroke:#000000;stroke-linejoin:miter;stroke-width:1.2;"/>
   </g>
   <g id="patch_61">
    <path clip-path="url(#p744700d165)" d="M 161.053415 465.838125 
L 162.780301 465.838125 
L 162.780301 375.323839 
L 161.053415 375.323839 
z
" style="fill:#0000ff;fill-opacity:0.5;stroke:#000000;stroke-linejoin:miter;stroke-width:1.2;"/>
   </g>
   <g id="patch_62">
    <path clip-path="url(#p744700d165)" d="M 162.780301 465.838125 
L 164.507187 465.838125 
L 164.507187 415.552411 
L 162.780301 415.552411 
z
" style="fill:#0000ff;fill-opacity:0.5;stroke:#000000;stroke-linejoin:miter;stroke-width:1.2;"/>
   </g>
   <g id="patch_63">
    <path clip-path="url(#p744700d165)" d="M 164.507187 465.838125 
L 166.234073 465.838125 
L 166.234073 355.209554 
L 164.507187 355.209554 
z
" style="fill:#0000ff;fill-opacity:0.5;stroke:#000000;stroke-linejoin:miter;stroke-width:1.2;"/>
   </g>
   <g id="patch_64">
    <path clip-path="url(#p744700d165)" d="M 166.234073 465.838125 
L 167.960959 465.838125 
L 167.960959 395.438125 
L 166.234073 395.438125 
z
" style="fill:#0000ff;fill-opacity:0.5;stroke:#000000;stroke-linejoin:miter;stroke-width:1.2;"/>
   </g>
   <g id="patch_65">
    <path clip-path="url(#p744700d165)" d="M 167.960959 465.838125 
L 169.687845 465.838125 
L 169.687845 375.323839 
L 167.960959 375.323839 
z
" style="fill:#0000ff;fill-opacity:0.5;stroke:#000000;stroke-linejoin:miter;stroke-width:1.2;"/>
   </g>
   <g id="patch_66">
    <path clip-path="url(#p744700d165)" d="M 169.687845 465.838125 
L 171.41473 465.838125 
L 171.41473 385.380982 
L 169.687845 385.380982 
z
" style="fill:#0000ff;fill-opacity:0.5;stroke:#000000;stroke-linejoin:miter;stroke-width:1.2;"/>
   </g>
   <g id="patch_67">
    <path clip-path="url(#p744700d165)" d="M 171.41473 465.838125 
L 173.141616 465.838125 
L 173.141616 445.723839 
L 171.41473 445.723839 
z
" style="fill:#0000ff;fill-opacity:0.5;stroke:#000000;stroke-linejoin:miter;stroke-width:1.2;"/>
   </g>
   <g id="patch_68">
    <path clip-path="url(#p744700d165)" d="M 173.141616 465.838125 
L 174.868502 465.838125 
L 174.868502 345.152411 
L 173.141616 345.152411 
z
" style="fill:#0000ff;fill-opacity:0.5;stroke:#000000;stroke-linejoin:miter;stroke-width:1.2;"/>
   </g>
   <g id="patch_69">
    <path clip-path="url(#p744700d165)" d="M 174.868502 465.838125 
L 176.595388 465.838125 
L 176.595388 365.266696 
L 174.868502 365.266696 
z
" style="fill:#0000ff;fill-opacity:0.5;stroke:#000000;stroke-linejoin:miter;stroke-width:1.2;"/>
   </g>
   <g id="patch_70">
    <path clip-path="url(#p744700d165)" d="M 176.595388 465.838125 
L 178.322274 465.838125 
L 178.322274 304.923839 
L 176.595388 304.923839 
z
" style="fill:#0000ff;fill-opacity:0.5;stroke:#000000;stroke-linejoin:miter;stroke-width:1.2;"/>
   </g>
   <g id="patch_71">
    <path clip-path="url(#p744700d165)" d="M 178.322274 465.838125 
L 180.04916 465.838125 
L 180.04916 304.923839 
L 178.322274 304.923839 
z
" style="fill:#0000ff;fill-opacity:0.5;stroke:#000000;stroke-linejoin:miter;stroke-width:1.2;"/>
   </g>
   <g id="patch_72">
    <path clip-path="url(#p744700d165)" d="M 180.04916 465.838125 
L 181.776046 465.838125 
L 181.776046 314.980982 
L 180.04916 314.980982 
z
" style="fill:#0000ff;fill-opacity:0.5;stroke:#000000;stroke-linejoin:miter;stroke-width:1.2;"/>
   </g>
   <g id="patch_73">
    <path clip-path="url(#p744700d165)" d="M 181.776046 465.838125 
L 183.502932 465.838125 
L 183.502932 274.752411 
L 181.776046 274.752411 
z
" style="fill:#0000ff;fill-opacity:0.5;stroke:#000000;stroke-linejoin:miter;stroke-width:1.2;"/>
   </g>
   <g id="patch_74">
    <path clip-path="url(#p744700d165)" d="M 183.502932 465.838125 
L 185.229817 465.838125 
L 185.229817 234.523839 
L 183.502932 234.523839 
z
" style="fill:#0000ff;fill-opacity:0.5;stroke:#000000;stroke-linejoin:miter;stroke-width:1.2;"/>
   </g>
   <g id="patch_75">
    <path clip-path="url(#p744700d165)" d="M 185.229817 465.838125 
L 186.956703 465.838125 
L 186.956703 325.038125 
L 185.229817 325.038125 
z
" style="fill:#0000ff;fill-opacity:0.5;stroke:#000000;stroke-linejoin:miter;stroke-width:1.2;"/>
   </g>
   <g id="patch_76">
    <path clip-path="url(#p744700d165)" d="M 186.956703 465.838125 
L 188.683589 465.838125 
L 188.683589 335.095268 
L 186.956703 335.095268 
z
" style="fill:#0000ff;fill-opacity:0.5;stroke:#000000;stroke-linejoin:miter;stroke-width:1.2;"/>
   </g>
   <g id="patch_77">
    <path clip-path="url(#p744700d165)" d="M 188.683589 465.838125 
L 190.410475 465.838125 
L 190.410475 294.866696 
L 188.683589 294.866696 
z
" style="fill:#0000ff;fill-opacity:0.5;stroke:#000000;stroke-linejoin:miter;stroke-width:1.2;"/>
   </g>
   <g id="patch_78">
    <path clip-path="url(#p744700d165)" d="M 190.410475 465.838125 
L 192.137361 465.838125 
L 192.137361 174.180982 
L 190.410475 174.180982 
z
" style="fill:#0000ff;fill-opacity:0.5;stroke:#000000;stroke-linejoin:miter;stroke-width:1.2;"/>
   </g>
   <g id="patch_79">
    <path clip-path="url(#p744700d165)" d="M 192.137361 465.838125 
L 193.864247 465.838125 
L 193.864247 375.323839 
L 192.137361 375.323839 
z
" style="fill:#0000ff;fill-opacity:0.5;stroke:#000000;stroke-linejoin:miter;stroke-width:1.2;"/>
   </g>
   <g id="patch_80">
    <path clip-path="url(#p744700d165)" d="M 193.864247 465.838125 
L 195.591133 465.838125 
L 195.591133 244.580982 
L 193.864247 244.580982 
z
" style="fill:#0000ff;fill-opacity:0.5;stroke:#000000;stroke-linejoin:miter;stroke-width:1.2;"/>
   </g>
   <g id="patch_81">
    <path clip-path="url(#p744700d165)" d="M 195.591133 465.838125 
L 197.318019 465.838125 
L 197.318019 133.952411 
L 195.591133 133.952411 
z
" style="fill:#0000ff;fill-opacity:0.5;stroke:#000000;stroke-linejoin:miter;stroke-width:1.2;"/>
   </g>
   <g id="patch_82">
    <path clip-path="url(#p744700d165)" d="M 197.318019 465.838125 
L 199.044904 465.838125 
L 199.044904 294.866696 
L 197.318019 294.866696 
z
" style="fill:#0000ff;fill-opacity:0.5;stroke:#000000;stroke-linejoin:miter;stroke-width:1.2;"/>
   </g>
   <g id="patch_83">
    <path clip-path="url(#p744700d165)" d="M 199.044904 465.838125 
L 200.77179 465.838125 
L 200.77179 325.038125 
L 199.044904 325.038125 
z
" style="fill:#0000ff;fill-opacity:0.5;stroke:#000000;stroke-linejoin:miter;stroke-width:1.2;"/>
   </g>
   <g id="patch_84">
    <path clip-path="url(#p744700d165)" d="M 200.77179 465.838125 
L 202.498676 465.838125 
L 202.498676 284.809554 
L 200.77179 284.809554 
z
" style="fill:#0000ff;fill-opacity:0.5;stroke:#000000;stroke-linejoin:miter;stroke-width:1.2;"/>
   </g>
   <g id="patch_85">
    <path clip-path="url(#p744700d165)" d="M 202.498676 465.838125 
L 204.225562 465.838125 
L 204.225562 234.523839 
L 202.498676 234.523839 
z
" style="fill:#0000ff;fill-opacity:0.5;stroke:#000000;stroke-linejoin:miter;stroke-width:1.2;"/>
   </g>
   <g id="patch_86">
    <path clip-path="url(#p744700d165)" d="M 204.225562 465.838125 
L 205.952448 465.838125 
L 205.952448 174.180982 
L 204.225562 174.180982 
z
" style="fill:#0000ff;fill-opacity:0.5;stroke:#000000;stroke-linejoin:miter;stroke-width:1.2;"/>
   </g>
   <g id="patch_87">
    <path clip-path="url(#p744700d165)" d="M 205.952448 465.838125 
L 207.679334 465.838125 
L 207.679334 194.295268 
L 205.952448 194.295268 
z
" style="fill:#0000ff;fill-opacity:0.5;stroke:#000000;stroke-linejoin:miter;stroke-width:1.2;"/>
   </g>
   <g id="patch_88">
    <path clip-path="url(#p744700d165)" d="M 207.679334 465.838125 
L 209.40622 465.838125 
L 209.40622 325.038125 
L 207.679334 325.038125 
z
" style="fill:#0000ff;fill-opacity:0.5;stroke:#000000;stroke-linejoin:miter;stroke-width:1.2;"/>
   </g>
   <g id="patch_89">
    <path clip-path="url(#p744700d165)" d="M 209.40622 465.838125 
L 211.133106 465.838125 
L 211.133106 43.438125 
L 209.40622 43.438125 
z
" style="fill:#0000ff;fill-opacity:0.5;stroke:#000000;stroke-linejoin:miter;stroke-width:1.2;"/>
   </g>
   <g id="patch_90">
    <path clip-path="url(#p744700d165)" d="M 211.133106 465.838125 
L 212.859992 465.838125 
L 212.859992 244.580982 
L 211.133106 244.580982 
z
" style="fill:#0000ff;fill-opacity:0.5;stroke:#000000;stroke-linejoin:miter;stroke-width:1.2;"/>
   </g>
   <g id="patch_91">
    <path clip-path="url(#p744700d165)" d="M 212.859992 465.838125 
L 214.586877 465.838125 
L 214.586877 415.552411 
L 212.859992 415.552411 
z
" style="fill:#0000ff;fill-opacity:0.5;stroke:#000000;stroke-linejoin:miter;stroke-width:1.2;"/>
   </g>
   <g id="patch_92">
    <path clip-path="url(#p744700d165)" d="M 214.586877 465.838125 
L 216.313763 465.838125 
L 216.313763 314.980982 
L 214.586877 314.980982 
z
" style="fill:#0000ff;fill-opacity:0.5;stroke:#000000;stroke-linejoin:miter;stroke-width:1.2;"/>
   </g>
   <g id="patch_93">
    <path clip-path="url(#p744700d165)" d="M 216.313763 465.838125 
L 218.040649 465.838125 
L 218.040649 264.695268 
L 216.313763 264.695268 
z
" style="fill:#0000ff;fill-opacity:0.5;stroke:#000000;stroke-linejoin:miter;stroke-width:1.2;"/>
   </g>
   <g id="patch_94">
    <path clip-path="url(#p744700d165)" d="M 218.040649 465.838125 
L 219.767535 465.838125 
L 219.767535 184.238125 
L 218.040649 184.238125 
z
" style="fill:#0000ff;fill-opacity:0.5;stroke:#000000;stroke-linejoin:miter;stroke-width:1.2;"/>
   </g>
   <g id="patch_95">
    <path clip-path="url(#p744700d165)" d="M 219.767535 465.838125 
L 221.494421 465.838125 
L 221.494421 365.266696 
L 219.767535 365.266696 
z
" style="fill:#0000ff;fill-opacity:0.5;stroke:#000000;stroke-linejoin:miter;stroke-width:1.2;"/>
   </g>
   <g id="patch_96">
    <path clip-path="url(#p744700d165)" d="M 221.494421 465.838125 
L 223.221307 465.838125 
L 223.221307 264.695268 
L 221.494421 264.695268 
z
" style="fill:#0000ff;fill-opacity:0.5;stroke:#000000;stroke-linejoin:miter;stroke-width:1.2;"/>
   </g>
   <g id="patch_97">
    <path clip-path="url(#p744700d165)" d="M 223.221307 465.838125 
L 224.948193 465.838125 
L 224.948193 164.123839 
L 223.221307 164.123839 
z
" style="fill:#0000ff;fill-opacity:0.5;stroke:#000000;stroke-linejoin:miter;stroke-width:1.2;"/>
   </g>
   <g id="patch_98">
    <path clip-path="url(#p744700d165)" d="M 224.948193 465.838125 
L 226.675079 465.838125 
L 226.675079 264.695268 
L 224.948193 264.695268 
z
" style="fill:#0000ff;fill-opacity:0.5;stroke:#000000;stroke-linejoin:miter;stroke-width:1.2;"/>
   </g>
   <g id="patch_99">
    <path clip-path="url(#p744700d165)" d="M 226.675079 465.838125 
L 228.401964 465.838125 
L 228.401964 375.323839 
L 226.675079 375.323839 
z
" style="fill:#0000ff;fill-opacity:0.5;stroke:#000000;stroke-linejoin:miter;stroke-width:1.2;"/>
   </g>
   <g id="patch_100">
    <path clip-path="url(#p744700d165)" d="M 228.401964 465.838125 
L 230.12885 465.838125 
L 230.12885 345.152411 
L 228.401964 345.152411 
z
" style="fill:#0000ff;fill-opacity:0.5;stroke:#000000;stroke-linejoin:miter;stroke-width:1.2;"/>
   </g>
   <g id="patch_101">
    <path clip-path="url(#p744700d165)" d="M 230.12885 465.838125 
L 231.855736 465.838125 
L 231.855736 284.809554 
L 230.12885 284.809554 
z
" style="fill:#0000ff;fill-opacity:0.5;stroke:#000000;stroke-linejoin:miter;stroke-width:1.2;"/>
   </g>
   <g id="patch_102">
    <path clip-path="url(#p744700d165)" d="M 231.855736 465.838125 
L 233.582622 465.838125 
L 233.582622 314.980982 
L 231.855736 314.980982 
z
" style="fill:#0000ff;fill-opacity:0.5;stroke:#000000;stroke-linejoin:miter;stroke-width:1.2;"/>
   </g>
   <g id="patch_103">
    <path clip-path="url(#p744700d165)" d="M 233.582622 465.838125 
L 235.309508 465.838125 
L 235.309508 314.980982 
L 233.582622 314.980982 
z
" style="fill:#0000ff;fill-opacity:0.5;stroke:#000000;stroke-linejoin:miter;stroke-width:1.2;"/>
   </g>
   <g id="patch_104">
    <path clip-path="url(#p744700d165)" d="M 235.309508 465.838125 
L 237.036394 465.838125 
L 237.036394 325.038125 
L 235.309508 325.038125 
z
" style="fill:#0000ff;fill-opacity:0.5;stroke:#000000;stroke-linejoin:miter;stroke-width:1.2;"/>
   </g>
   <g id="patch_105">
    <path clip-path="url(#p744700d165)" d="M 237.036394 465.838125 
L 238.76328 465.838125 
L 238.76328 385.380982 
L 237.036394 385.380982 
z
" style="fill:#0000ff;fill-opacity:0.5;stroke:#000000;stroke-linejoin:miter;stroke-width:1.2;"/>
   </g>
   <g id="patch_106">
    <path clip-path="url(#p744700d165)" d="M 238.76328 465.838125 
L 240.490166 465.838125 
L 240.490166 355.209554 
L 238.76328 355.209554 
z
" style="fill:#0000ff;fill-opacity:0.5;stroke:#000000;stroke-linejoin:miter;stroke-width:1.2;"/>
   </g>
   <g id="patch_107">
    <path clip-path="url(#p744700d165)" d="M 240.490166 465.838125 
L 242.217051 465.838125 
L 242.217051 425.609554 
L 240.490166 425.609554 
z
" style="fill:#0000ff;fill-opacity:0.5;stroke:#000000;stroke-linejoin:miter;stroke-width:1.2;"/>
   </g>
   <g id="patch_108">
    <path clip-path="url(#p744700d165)" d="M 242.217051 465.838125 
L 243.943937 465.838125 
L 243.943937 405.495268 
L 242.217051 405.495268 
z
" style="fill:#0000ff;fill-opacity:0.5;stroke:#000000;stroke-linejoin:miter;stroke-width:1.2;"/>
   </g>
   <g id="patch_109">
    <path clip-path="url(#p744700d165)" d="M 243.943937 465.838125 
L 245.670823 465.838125 
L 245.670823 365.266696 
L 243.943937 365.266696 
z
" style="fill:#0000ff;fill-opacity:0.5;stroke:#000000;stroke-linejoin:miter;stroke-width:1.2;"/>
   </g>
   <g id="patch_110">
    <path clip-path="url(#p744700d165)" d="M 245.670823 465.838125 
L 247.397709 465.838125 
L 247.397709 385.380982 
L 245.670823 385.380982 
z
" style="fill:#0000ff;fill-opacity:0.5;stroke:#000000;stroke-linejoin:miter;stroke-width:1.2;"/>
   </g>
   <g id="patch_111">
    <path clip-path="url(#p744700d165)" d="M 247.397709 465.838125 
L 249.124595 465.838125 
L 249.124595 425.609554 
L 247.397709 425.609554 
z
" style="fill:#0000ff;fill-opacity:0.5;stroke:#000000;stroke-linejoin:miter;stroke-width:1.2;"/>
   </g>
   <g id="patch_112">
    <path clip-path="url(#p744700d165)" d="M 249.124595 465.838125 
L 250.851481 465.838125 
L 250.851481 395.438125 
L 249.124595 395.438125 
z
" style="fill:#0000ff;fill-opacity:0.5;stroke:#000000;stroke-linejoin:miter;stroke-width:1.2;"/>
   </g>
   <g id="patch_113">
    <path clip-path="url(#p744700d165)" d="M 250.851481 465.838125 
L 252.578367 465.838125 
L 252.578367 385.380982 
L 250.851481 385.380982 
z
" style="fill:#0000ff;fill-opacity:0.5;stroke:#000000;stroke-linejoin:miter;stroke-width:1.2;"/>
   </g>
   <g id="patch_114">
    <path clip-path="url(#p744700d165)" d="M 252.578367 465.838125 
L 254.305253 465.838125 
L 254.305253 395.438125 
L 252.578367 395.438125 
z
" style="fill:#0000ff;fill-opacity:0.5;stroke:#000000;stroke-linejoin:miter;stroke-width:1.2;"/>
   </g>
   <g id="patch_115">
    <path clip-path="url(#p744700d165)" d="M 254.305253 465.838125 
L 256.032139 465.838125 
L 256.032139 415.552411 
L 254.305253 415.552411 
z
" style="fill:#0000ff;fill-opacity:0.5;stroke:#000000;stroke-linejoin:miter;stroke-width:1.2;"/>
   </g>
   <g id="patch_116">
    <path clip-path="url(#p744700d165)" d="M 256.032139 465.838125 
L 257.759024 465.838125 
L 257.759024 435.666696 
L 256.032139 435.666696 
z
" style="fill:#0000ff;fill-opacity:0.5;stroke:#000000;stroke-linejoin:miter;stroke-width:1.2;"/>
   </g>
   <g id="patch_117">
    <path clip-path="url(#p744700d165)" d="M 257.759024 465.838125 
L 259.48591 465.838125 
L 259.48591 425.609554 
L 257.759024 425.609554 
z
" style="fill:#0000ff;fill-opacity:0.5;stroke:#000000;stroke-linejoin:miter;stroke-width:1.2;"/>
   </g>
   <g id="patch_118">
    <path clip-path="url(#p744700d165)" d="M 259.48591 465.838125 
L 261.212796 465.838125 
L 261.212796 415.552411 
L 259.48591 415.552411 
z
" style="fill:#0000ff;fill-opacity:0.5;stroke:#000000;stroke-linejoin:miter;stroke-width:1.2;"/>
   </g>
   <g id="patch_119">
    <path clip-path="url(#p744700d165)" d="M 261.212796 465.838125 
L 262.939682 465.838125 
L 262.939682 385.380982 
L 261.212796 385.380982 
z
" style="fill:#0000ff;fill-opacity:0.5;stroke:#000000;stroke-linejoin:miter;stroke-width:1.2;"/>
   </g>
   <g id="patch_120">
    <path clip-path="url(#p744700d165)" d="M 262.939682 465.838125 
L 264.666568 465.838125 
L 264.666568 445.723839 
L 262.939682 445.723839 
z
" style="fill:#0000ff;fill-opacity:0.5;stroke:#000000;stroke-linejoin:miter;stroke-width:1.2;"/>
   </g>
   <g id="patch_121">
    <path clip-path="url(#p744700d165)" d="M 264.666568 465.838125 
L 266.393454 465.838125 
L 266.393454 425.609554 
L 264.666568 425.609554 
z
" style="fill:#0000ff;fill-opacity:0.5;stroke:#000000;stroke-linejoin:miter;stroke-width:1.2;"/>
   </g>
   <g id="patch_122">
    <path clip-path="url(#p744700d165)" d="M 266.393454 465.838125 
L 268.12034 465.838125 
L 268.12034 445.723839 
L 266.393454 445.723839 
z
" style="fill:#0000ff;fill-opacity:0.5;stroke:#000000;stroke-linejoin:miter;stroke-width:1.2;"/>
   </g>
   <g id="patch_123">
    <path clip-path="url(#p744700d165)" d="M 268.12034 465.838125 
L 269.847226 465.838125 
L 269.847226 455.780982 
L 268.12034 455.780982 
z
" style="fill:#0000ff;fill-opacity:0.5;stroke:#000000;stroke-linejoin:miter;stroke-width:1.2;"/>
   </g>
   <g id="patch_124">
    <path clip-path="url(#p744700d165)" d="M 269.847226 465.838125 
L 271.574111 465.838125 
L 271.574111 365.266696 
L 269.847226 365.266696 
z
" style="fill:#0000ff;fill-opacity:0.5;stroke:#000000;stroke-linejoin:miter;stroke-width:1.2;"/>
   </g>
   <g id="patch_125">
    <path clip-path="url(#p744700d165)" d="M 271.574111 465.838125 
L 273.300997 465.838125 
L 273.300997 415.552411 
L 271.574111 415.552411 
z
" style="fill:#0000ff;fill-opacity:0.5;stroke:#000000;stroke-linejoin:miter;stroke-width:1.2;"/>
   </g>
   <g id="patch_126">
    <path clip-path="url(#p744700d165)" d="M 273.300997 465.838125 
L 275.027883 465.838125 
L 275.027883 405.495268 
L 273.300997 405.495268 
z
" style="fill:#0000ff;fill-opacity:0.5;stroke:#000000;stroke-linejoin:miter;stroke-width:1.2;"/>
   </g>
   <g id="patch_127">
    <path clip-path="url(#p744700d165)" d="M 275.027883 465.838125 
L 276.754769 465.838125 
L 276.754769 445.723839 
L 275.027883 445.723839 
z
" style="fill:#0000ff;fill-opacity:0.5;stroke:#000000;stroke-linejoin:miter;stroke-width:1.2;"/>
   </g>
   <g id="patch_128">
    <path clip-path="url(#p744700d165)" d="M 276.754769 465.838125 
L 278.481655 465.838125 
L 278.481655 445.723839 
L 276.754769 445.723839 
z
" style="fill:#0000ff;fill-opacity:0.5;stroke:#000000;stroke-linejoin:miter;stroke-width:1.2;"/>
   </g>
   <g id="patch_129">
    <path clip-path="url(#p744700d165)" d="M 278.481655 465.838125 
L 280.208541 465.838125 
L 280.208541 435.666696 
L 278.481655 435.666696 
z
" style="fill:#0000ff;fill-opacity:0.5;stroke:#000000;stroke-linejoin:miter;stroke-width:1.2;"/>
   </g>
   <g id="patch_130">
    <path clip-path="url(#p744700d165)" d="M 280.208541 465.838125 
L 281.935427 465.838125 
L 281.935427 455.780982 
L 280.208541 455.780982 
z
" style="fill:#0000ff;fill-opacity:0.5;stroke:#000000;stroke-linejoin:miter;stroke-width:1.2;"/>
   </g>
   <g id="patch_131">
    <path clip-path="url(#p744700d165)" d="M 281.935427 465.838125 
L 283.662313 465.838125 
L 283.662313 445.723839 
L 281.935427 445.723839 
z
" style="fill:#0000ff;fill-opacity:0.5;stroke:#000000;stroke-linejoin:miter;stroke-width:1.2;"/>
   </g>
   <g id="patch_132">
    <path clip-path="url(#p744700d165)" d="M 283.662313 465.838125 
L 285.389199 465.838125 
L 285.389199 465.838125 
L 283.662313 465.838125 
z
" style="fill:#0000ff;fill-opacity:0.5;stroke:#000000;stroke-linejoin:miter;stroke-width:1.2;"/>
   </g>
   <g id="patch_133">
    <path clip-path="url(#p744700d165)" d="M 285.389199 465.838125 
L 287.116084 465.838125 
L 287.116084 465.838125 
L 285.389199 465.838125 
z
" style="fill:#0000ff;fill-opacity:0.5;stroke:#000000;stroke-linejoin:miter;stroke-width:1.2;"/>
   </g>
   <g id="patch_134">
    <path clip-path="url(#p744700d165)" d="M 287.116084 465.838125 
L 288.84297 465.838125 
L 288.84297 455.780982 
L 287.116084 455.780982 
z
" style="fill:#0000ff;fill-opacity:0.5;stroke:#000000;stroke-linejoin:miter;stroke-width:1.2;"/>
   </g>
   <g id="patch_135">
    <path clip-path="url(#p744700d165)" d="M 288.84297 465.838125 
L 290.569856 465.838125 
L 290.569856 455.780982 
L 288.84297 455.780982 
z
" style="fill:#0000ff;fill-opacity:0.5;stroke:#000000;stroke-linejoin:miter;stroke-width:1.2;"/>
   </g>
   <g id="patch_136">
    <path clip-path="url(#p744700d165)" d="M 290.569856 465.838125 
L 292.296742 465.838125 
L 292.296742 455.780982 
L 290.569856 455.780982 
z
" style="fill:#0000ff;fill-opacity:0.5;stroke:#000000;stroke-linejoin:miter;stroke-width:1.2;"/>
   </g>
   <g id="patch_137">
    <path clip-path="url(#p744700d165)" d="M 292.296742 465.838125 
L 294.023628 465.838125 
L 294.023628 465.838125 
L 292.296742 465.838125 
z
" style="fill:#0000ff;fill-opacity:0.5;stroke:#000000;stroke-linejoin:miter;stroke-width:1.2;"/>
   </g>
   <g id="patch_138">
    <path clip-path="url(#p744700d165)" d="M 294.023628 465.838125 
L 295.750514 465.838125 
L 295.750514 455.780982 
L 294.023628 455.780982 
z
" style="fill:#0000ff;fill-opacity:0.5;stroke:#000000;stroke-linejoin:miter;stroke-width:1.2;"/>
   </g>
   <g id="patch_139">
    <path clip-path="url(#p744700d165)" d="M 295.750514 465.838125 
L 297.4774 465.838125 
L 297.4774 455.780982 
L 295.750514 455.780982 
z
" style="fill:#0000ff;fill-opacity:0.5;stroke:#000000;stroke-linejoin:miter;stroke-width:1.2;"/>
   </g>
   <g id="patch_140">
    <path clip-path="url(#p744700d165)" d="M 297.4774 465.838125 
L 299.204286 465.838125 
L 299.204286 455.780982 
L 297.4774 455.780982 
z
" style="fill:#0000ff;fill-opacity:0.5;stroke:#000000;stroke-linejoin:miter;stroke-width:1.2;"/>
   </g>
   <g id="patch_141">
    <path clip-path="url(#p744700d165)" d="M 299.204286 465.838125 
L 300.931171 465.838125 
L 300.931171 445.723839 
L 299.204286 445.723839 
z
" style="fill:#0000ff;fill-opacity:0.5;stroke:#000000;stroke-linejoin:miter;stroke-width:1.2;"/>
   </g>
   <g id="patch_142">
    <path clip-path="url(#p744700d165)" d="M 300.931171 465.838125 
L 302.658057 465.838125 
L 302.658057 465.838125 
L 300.931171 465.838125 
z
" style="fill:#0000ff;fill-opacity:0.5;stroke:#000000;stroke-linejoin:miter;stroke-width:1.2;"/>
   </g>
   <g id="patch_143">
    <path clip-path="url(#p744700d165)" d="M 302.658057 465.838125 
L 304.384943 465.838125 
L 304.384943 465.838125 
L 302.658057 465.838125 
z
" style="fill:#0000ff;fill-opacity:0.5;stroke:#000000;stroke-linejoin:miter;stroke-width:1.2;"/>
   </g>
   <g id="patch_144">
    <path clip-path="url(#p744700d165)" d="M 304.384943 465.838125 
L 306.111829 465.838125 
L 306.111829 445.723839 
L 304.384943 445.723839 
z
" style="fill:#0000ff;fill-opacity:0.5;stroke:#000000;stroke-linejoin:miter;stroke-width:1.2;"/>
   </g>
   <g id="patch_145">
    <path clip-path="url(#p744700d165)" d="M 306.111829 465.838125 
L 307.838715 465.838125 
L 307.838715 445.723839 
L 306.111829 445.723839 
z
" style="fill:#0000ff;fill-opacity:0.5;stroke:#000000;stroke-linejoin:miter;stroke-width:1.2;"/>
   </g>
   <g id="patch_146">
    <path clip-path="url(#p744700d165)" d="M 307.838715 465.838125 
L 309.565601 465.838125 
L 309.565601 455.780982 
L 307.838715 455.780982 
z
" style="fill:#0000ff;fill-opacity:0.5;stroke:#000000;stroke-linejoin:miter;stroke-width:1.2;"/>
   </g>
   <g id="patch_147">
    <path clip-path="url(#p744700d165)" d="M 309.565601 465.838125 
L 311.292487 465.838125 
L 311.292487 465.838125 
L 309.565601 465.838125 
z
" style="fill:#0000ff;fill-opacity:0.5;stroke:#000000;stroke-linejoin:miter;stroke-width:1.2;"/>
   </g>
   <g id="patch_148">
    <path clip-path="url(#p744700d165)" d="M 311.292487 465.838125 
L 313.019373 465.838125 
L 313.019373 455.780982 
L 311.292487 455.780982 
z
" style="fill:#0000ff;fill-opacity:0.5;stroke:#000000;stroke-linejoin:miter;stroke-width:1.2;"/>
   </g>
   <g id="patch_149">
    <path clip-path="url(#p744700d165)" d="M 313.019373 465.838125 
L 314.746258 465.838125 
L 314.746258 455.780982 
L 313.019373 455.780982 
z
" style="fill:#0000ff;fill-opacity:0.5;stroke:#000000;stroke-linejoin:miter;stroke-width:1.2;"/>
   </g>
   <g id="patch_150">
    <path clip-path="url(#p744700d165)" d="M 314.746258 465.838125 
L 316.473144 465.838125 
L 316.473144 455.780982 
L 314.746258 455.780982 
z
" style="fill:#0000ff;fill-opacity:0.5;stroke:#000000;stroke-linejoin:miter;stroke-width:1.2;"/>
   </g>
   <g id="patch_151">
    <path clip-path="url(#p744700d165)" d="M 316.473144 465.838125 
L 318.20003 465.838125 
L 318.20003 455.780982 
L 316.473144 455.780982 
z
" style="fill:#0000ff;fill-opacity:0.5;stroke:#000000;stroke-linejoin:miter;stroke-width:1.2;"/>
   </g>
   <g id="patch_152">
    <path clip-path="url(#p744700d165)" d="M 318.20003 465.838125 
L 319.926916 465.838125 
L 319.926916 465.838125 
L 318.20003 465.838125 
z
" style="fill:#0000ff;fill-opacity:0.5;stroke:#000000;stroke-linejoin:miter;stroke-width:1.2;"/>
   </g>
   <g id="patch_153">
    <path clip-path="url(#p744700d165)" d="M 319.926916 465.838125 
L 321.653802 465.838125 
L 321.653802 435.666696 
L 319.926916 435.666696 
z
" style="fill:#0000ff;fill-opacity:0.5;stroke:#000000;stroke-linejoin:miter;stroke-width:1.2;"/>
   </g>
   <g id="patch_154">
    <path clip-path="url(#p744700d165)" d="M 321.653802 465.838125 
L 323.380688 465.838125 
L 323.380688 435.666696 
L 321.653802 435.666696 
z
" style="fill:#0000ff;fill-opacity:0.5;stroke:#000000;stroke-linejoin:miter;stroke-width:1.2;"/>
   </g>
   <g id="patch_155">
    <path clip-path="url(#p744700d165)" d="M 323.380688 465.838125 
L 325.107574 465.838125 
L 325.107574 445.723839 
L 323.380688 445.723839 
z
" style="fill:#0000ff;fill-opacity:0.5;stroke:#000000;stroke-linejoin:miter;stroke-width:1.2;"/>
   </g>
   <g id="patch_156">
    <path clip-path="url(#p744700d165)" d="M 325.107574 465.838125 
L 326.83446 465.838125 
L 326.83446 465.838125 
L 325.107574 465.838125 
z
" style="fill:#0000ff;fill-opacity:0.5;stroke:#000000;stroke-linejoin:miter;stroke-width:1.2;"/>
   </g>
   <g id="patch_157">
    <path clip-path="url(#p744700d165)" d="M 326.83446 465.838125 
L 328.561346 465.838125 
L 328.561346 455.780982 
L 326.83446 455.780982 
z
" style="fill:#0000ff;fill-opacity:0.5;stroke:#000000;stroke-linejoin:miter;stroke-width:1.2;"/>
   </g>
   <g id="patch_158">
    <path clip-path="url(#p744700d165)" d="M 328.561346 465.838125 
L 330.288231 465.838125 
L 330.288231 465.838125 
L 328.561346 465.838125 
z
" style="fill:#0000ff;fill-opacity:0.5;stroke:#000000;stroke-linejoin:miter;stroke-width:1.2;"/>
   </g>
   <g id="patch_159">
    <path clip-path="url(#p744700d165)" d="M 330.288231 465.838125 
L 332.015117 465.838125 
L 332.015117 465.838125 
L 330.288231 465.838125 
z
" style="fill:#0000ff;fill-opacity:0.5;stroke:#000000;stroke-linejoin:miter;stroke-width:1.2;"/>
   </g>
   <g id="patch_160">
    <path clip-path="url(#p744700d165)" d="M 332.015117 465.838125 
L 333.742003 465.838125 
L 333.742003 465.838125 
L 332.015117 465.838125 
z
" style="fill:#0000ff;fill-opacity:0.5;stroke:#000000;stroke-linejoin:miter;stroke-width:1.2;"/>
   </g>
   <g id="patch_161">
    <path clip-path="url(#p744700d165)" d="M 333.742003 465.838125 
L 335.468889 465.838125 
L 335.468889 435.666696 
L 333.742003 435.666696 
z
" style="fill:#0000ff;fill-opacity:0.5;stroke:#000000;stroke-linejoin:miter;stroke-width:1.2;"/>
   </g>
   <g id="patch_162">
    <path clip-path="url(#p744700d165)" d="M 335.468889 465.838125 
L 337.195775 465.838125 
L 337.195775 465.838125 
L 335.468889 465.838125 
z
" style="fill:#0000ff;fill-opacity:0.5;stroke:#000000;stroke-linejoin:miter;stroke-width:1.2;"/>
   </g>
   <g id="patch_163">
    <path clip-path="url(#p744700d165)" d="M 337.195775 465.838125 
L 338.922661 465.838125 
L 338.922661 465.838125 
L 337.195775 465.838125 
z
" style="fill:#0000ff;fill-opacity:0.5;stroke:#000000;stroke-linejoin:miter;stroke-width:1.2;"/>
   </g>
   <g id="patch_164">
    <path clip-path="url(#p744700d165)" d="M 338.922661 465.838125 
L 340.649547 465.838125 
L 340.649547 465.838125 
L 338.922661 465.838125 
z
" style="fill:#0000ff;fill-opacity:0.5;stroke:#000000;stroke-linejoin:miter;stroke-width:1.2;"/>
   </g>
   <g id="patch_165">
    <path clip-path="url(#p744700d165)" d="M 340.649547 465.838125 
L 342.376433 465.838125 
L 342.376433 455.780982 
L 340.649547 455.780982 
z
" style="fill:#0000ff;fill-opacity:0.5;stroke:#000000;stroke-linejoin:miter;stroke-width:1.2;"/>
   </g>
   <g id="patch_166">
    <path clip-path="url(#p744700d165)" d="M 342.376433 465.838125 
L 344.103318 465.838125 
L 344.103318 465.838125 
L 342.376433 465.838125 
z
" style="fill:#0000ff;fill-opacity:0.5;stroke:#000000;stroke-linejoin:miter;stroke-width:1.2;"/>
   </g>
   <g id="patch_167">
    <path clip-path="url(#p744700d165)" d="M 344.103318 465.838125 
L 345.830204 465.838125 
L 345.830204 465.838125 
L 344.103318 465.838125 
z
" style="fill:#0000ff;fill-opacity:0.5;stroke:#000000;stroke-linejoin:miter;stroke-width:1.2;"/>
   </g>
   <g id="patch_168">
    <path clip-path="url(#p744700d165)" d="M 345.830204 465.838125 
L 347.55709 465.838125 
L 347.55709 465.838125 
L 345.830204 465.838125 
z
" style="fill:#0000ff;fill-opacity:0.5;stroke:#000000;stroke-linejoin:miter;stroke-width:1.2;"/>
   </g>
   <g id="patch_169">
    <path clip-path="url(#p744700d165)" d="M 347.55709 465.838125 
L 349.283976 465.838125 
L 349.283976 465.838125 
L 347.55709 465.838125 
z
" style="fill:#0000ff;fill-opacity:0.5;stroke:#000000;stroke-linejoin:miter;stroke-width:1.2;"/>
   </g>
   <g id="patch_170">
    <path clip-path="url(#p744700d165)" d="M 349.283976 465.838125 
L 351.010862 465.838125 
L 351.010862 465.838125 
L 349.283976 465.838125 
z
" style="fill:#0000ff;fill-opacity:0.5;stroke:#000000;stroke-linejoin:miter;stroke-width:1.2;"/>
   </g>
   <g id="patch_171">
    <path clip-path="url(#p744700d165)" d="M 351.010862 465.838125 
L 352.737748 465.838125 
L 352.737748 455.780982 
L 351.010862 455.780982 
z
" style="fill:#0000ff;fill-opacity:0.5;stroke:#000000;stroke-linejoin:miter;stroke-width:1.2;"/>
   </g>
   <g id="patch_172">
    <path clip-path="url(#p744700d165)" d="M 352.737748 465.838125 
L 354.464634 465.838125 
L 354.464634 465.838125 
L 352.737748 465.838125 
z
" style="fill:#0000ff;fill-opacity:0.5;stroke:#000000;stroke-linejoin:miter;stroke-width:1.2;"/>
   </g>
   <g id="patch_173">
    <path clip-path="url(#p744700d165)" d="M 354.464634 465.838125 
L 356.19152 465.838125 
L 356.19152 465.838125 
L 354.464634 465.838125 
z
" style="fill:#0000ff;fill-opacity:0.5;stroke:#000000;stroke-linejoin:miter;stroke-width:1.2;"/>
   </g>
   <g id="patch_174">
    <path clip-path="url(#p744700d165)" d="M 356.19152 465.838125 
L 357.918405 465.838125 
L 357.918405 445.723839 
L 356.19152 445.723839 
z
" style="fill:#0000ff;fill-opacity:0.5;stroke:#000000;stroke-linejoin:miter;stroke-width:1.2;"/>
   </g>
   <g id="patch_175">
    <path clip-path="url(#p744700d165)" d="M 357.918405 465.838125 
L 359.645291 465.838125 
L 359.645291 465.838125 
L 357.918405 465.838125 
z
" style="fill:#0000ff;fill-opacity:0.5;stroke:#000000;stroke-linejoin:miter;stroke-width:1.2;"/>
   </g>
   <g id="patch_176">
    <path clip-path="url(#p744700d165)" d="M 359.645291 465.838125 
L 361.372177 465.838125 
L 361.372177 465.838125 
L 359.645291 465.838125 
z
" style="fill:#0000ff;fill-opacity:0.5;stroke:#000000;stroke-linejoin:miter;stroke-width:1.2;"/>
   </g>
   <g id="patch_177">
    <path clip-path="url(#p744700d165)" d="M 361.372177 465.838125 
L 363.099063 465.838125 
L 363.099063 465.838125 
L 361.372177 465.838125 
z
" style="fill:#0000ff;fill-opacity:0.5;stroke:#000000;stroke-linejoin:miter;stroke-width:1.2;"/>
   </g>
   <g id="patch_178">
    <path clip-path="url(#p744700d165)" d="M 363.099063 465.838125 
L 364.825949 465.838125 
L 364.825949 465.838125 
L 363.099063 465.838125 
z
" style="fill:#0000ff;fill-opacity:0.5;stroke:#000000;stroke-linejoin:miter;stroke-width:1.2;"/>
   </g>
   <g id="patch_179">
    <path clip-path="url(#p744700d165)" d="M 364.825949 465.838125 
L 366.552835 465.838125 
L 366.552835 465.838125 
L 364.825949 465.838125 
z
" style="fill:#0000ff;fill-opacity:0.5;stroke:#000000;stroke-linejoin:miter;stroke-width:1.2;"/>
   </g>
   <g id="patch_180">
    <path clip-path="url(#p744700d165)" d="M 366.552835 465.838125 
L 368.279721 465.838125 
L 368.279721 465.838125 
L 366.552835 465.838125 
z
" style="fill:#0000ff;fill-opacity:0.5;stroke:#000000;stroke-linejoin:miter;stroke-width:1.2;"/>
   </g>
   <g id="patch_181">
    <path clip-path="url(#p744700d165)" d="M 368.279721 465.838125 
L 370.006607 465.838125 
L 370.006607 465.838125 
L 368.279721 465.838125 
z
" style="fill:#0000ff;fill-opacity:0.5;stroke:#000000;stroke-linejoin:miter;stroke-width:1.2;"/>
   </g>
   <g id="patch_182">
    <path clip-path="url(#p744700d165)" d="M 370.006607 465.838125 
L 371.733493 465.838125 
L 371.733493 465.838125 
L 370.006607 465.838125 
z
" style="fill:#0000ff;fill-opacity:0.5;stroke:#000000;stroke-linejoin:miter;stroke-width:1.2;"/>
   </g>
   <g id="patch_183">
    <path clip-path="url(#p744700d165)" d="M 371.733493 465.838125 
L 373.460378 465.838125 
L 373.460378 465.838125 
L 371.733493 465.838125 
z
" style="fill:#0000ff;fill-opacity:0.5;stroke:#000000;stroke-linejoin:miter;stroke-width:1.2;"/>
   </g>
   <g id="patch_184">
    <path clip-path="url(#p744700d165)" d="M 373.460378 465.838125 
L 375.187264 465.838125 
L 375.187264 465.838125 
L 373.460378 465.838125 
z
" style="fill:#0000ff;fill-opacity:0.5;stroke:#000000;stroke-linejoin:miter;stroke-width:1.2;"/>
   </g>
   <g id="patch_185">
    <path clip-path="url(#p744700d165)" d="M 375.187264 465.838125 
L 376.91415 465.838125 
L 376.91415 465.838125 
L 375.187264 465.838125 
z
" style="fill:#0000ff;fill-opacity:0.5;stroke:#000000;stroke-linejoin:miter;stroke-width:1.2;"/>
   </g>
   <g id="patch_186">
    <path clip-path="url(#p744700d165)" d="M 376.91415 465.838125 
L 378.641036 465.838125 
L 378.641036 465.838125 
L 376.91415 465.838125 
z
" style="fill:#0000ff;fill-opacity:0.5;stroke:#000000;stroke-linejoin:miter;stroke-width:1.2;"/>
   </g>
   <g id="patch_187">
    <path clip-path="url(#p744700d165)" d="M 378.641036 465.838125 
L 380.367922 465.838125 
L 380.367922 465.838125 
L 378.641036 465.838125 
z
" style="fill:#0000ff;fill-opacity:0.5;stroke:#000000;stroke-linejoin:miter;stroke-width:1.2;"/>
   </g>
   <g id="patch_188">
    <path clip-path="url(#p744700d165)" d="M 380.367922 465.838125 
L 382.094808 465.838125 
L 382.094808 465.838125 
L 380.367922 465.838125 
z
" style="fill:#0000ff;fill-opacity:0.5;stroke:#000000;stroke-linejoin:miter;stroke-width:1.2;"/>
   </g>
   <g id="patch_189">
    <path clip-path="url(#p744700d165)" d="M 382.094808 465.838125 
L 383.821694 465.838125 
L 383.821694 465.838125 
L 382.094808 465.838125 
z
" style="fill:#0000ff;fill-opacity:0.5;stroke:#000000;stroke-linejoin:miter;stroke-width:1.2;"/>
   </g>
   <g id="patch_190">
    <path clip-path="url(#p744700d165)" d="M 383.821694 465.838125 
L 385.54858 465.838125 
L 385.54858 465.838125 
L 383.821694 465.838125 
z
" style="fill:#0000ff;fill-opacity:0.5;stroke:#000000;stroke-linejoin:miter;stroke-width:1.2;"/>
   </g>
   <g id="patch_191">
    <path clip-path="url(#p744700d165)" d="M 385.54858 465.838125 
L 387.275465 465.838125 
L 387.275465 455.780982 
L 385.54858 455.780982 
z
" style="fill:#0000ff;fill-opacity:0.5;stroke:#000000;stroke-linejoin:miter;stroke-width:1.2;"/>
   </g>
   <g id="patch_192">
    <path clip-path="url(#p744700d165)" d="M 387.275465 465.838125 
L 389.002351 465.838125 
L 389.002351 455.780982 
L 387.275465 455.780982 
z
" style="fill:#0000ff;fill-opacity:0.5;stroke:#000000;stroke-linejoin:miter;stroke-width:1.2;"/>
   </g>
   <g id="patch_193">
    <path clip-path="url(#p744700d165)" d="M 389.002351 465.838125 
L 390.729237 465.838125 
L 390.729237 465.838125 
L 389.002351 465.838125 
z
" style="fill:#0000ff;fill-opacity:0.5;stroke:#000000;stroke-linejoin:miter;stroke-width:1.2;"/>
   </g>
   <g id="patch_194">
    <path clip-path="url(#p744700d165)" d="M 390.729237 465.838125 
L 392.456123 465.838125 
L 392.456123 455.780982 
L 390.729237 455.780982 
z
" style="fill:#0000ff;fill-opacity:0.5;stroke:#000000;stroke-linejoin:miter;stroke-width:1.2;"/>
   </g>
   <g id="patch_195">
    <path clip-path="url(#p744700d165)" d="M 392.456123 465.838125 
L 394.183009 465.838125 
L 394.183009 465.838125 
L 392.456123 465.838125 
z
" style="fill:#0000ff;fill-opacity:0.5;stroke:#000000;stroke-linejoin:miter;stroke-width:1.2;"/>
   </g>
   <g id="patch_196">
    <path clip-path="url(#p744700d165)" d="M 394.183009 465.838125 
L 395.909895 465.838125 
L 395.909895 465.838125 
L 394.183009 465.838125 
z
" style="fill:#0000ff;fill-opacity:0.5;stroke:#000000;stroke-linejoin:miter;stroke-width:1.2;"/>
   </g>
   <g id="patch_197">
    <path clip-path="url(#p744700d165)" d="M 395.909895 465.838125 
L 397.636781 465.838125 
L 397.636781 465.838125 
L 395.909895 465.838125 
z
" style="fill:#0000ff;fill-opacity:0.5;stroke:#000000;stroke-linejoin:miter;stroke-width:1.2;"/>
   </g>
   <g id="patch_198">
    <path clip-path="url(#p744700d165)" d="M 397.636781 465.838125 
L 399.363667 465.838125 
L 399.363667 465.838125 
L 397.636781 465.838125 
z
" style="fill:#0000ff;fill-opacity:0.5;stroke:#000000;stroke-linejoin:miter;stroke-width:1.2;"/>
   </g>
   <g id="patch_199">
    <path clip-path="url(#p744700d165)" d="M 399.363667 465.838125 
L 401.090552 465.838125 
L 401.090552 465.838125 
L 399.363667 465.838125 
z
" style="fill:#0000ff;fill-opacity:0.5;stroke:#000000;stroke-linejoin:miter;stroke-width:1.2;"/>
   </g>
   <g id="patch_200">
    <path clip-path="url(#p744700d165)" d="M 401.090552 465.838125 
L 402.817438 465.838125 
L 402.817438 465.838125 
L 401.090552 465.838125 
z
" style="fill:#0000ff;fill-opacity:0.5;stroke:#000000;stroke-linejoin:miter;stroke-width:1.2;"/>
   </g>
   <g id="patch_201">
    <path clip-path="url(#p744700d165)" d="M 402.817438 465.838125 
L 404.544324 465.838125 
L 404.544324 465.838125 
L 402.817438 465.838125 
z
" style="fill:#0000ff;fill-opacity:0.5;stroke:#000000;stroke-linejoin:miter;stroke-width:1.2;"/>
   </g>
   <g id="patch_202">
    <path clip-path="url(#p744700d165)" d="M 404.544324 465.838125 
L 406.27121 465.838125 
L 406.27121 465.838125 
L 404.544324 465.838125 
z
" style="fill:#0000ff;fill-opacity:0.5;stroke:#000000;stroke-linejoin:miter;stroke-width:1.2;"/>
   </g>
   <g id="patch_203">
    <path clip-path="url(#p744700d165)" d="M 406.27121 465.838125 
L 407.998096 465.838125 
L 407.998096 465.838125 
L 406.27121 465.838125 
z
" style="fill:#0000ff;fill-opacity:0.5;stroke:#000000;stroke-linejoin:miter;stroke-width:1.2;"/>
   </g>
   <g id="patch_204">
    <path clip-path="url(#p744700d165)" d="M 407.998096 465.838125 
L 409.724982 465.838125 
L 409.724982 465.838125 
L 407.998096 465.838125 
z
" style="fill:#0000ff;fill-opacity:0.5;stroke:#000000;stroke-linejoin:miter;stroke-width:1.2;"/>
   </g>
   <g id="patch_205">
    <path clip-path="url(#p744700d165)" d="M 409.724982 465.838125 
L 411.451868 465.838125 
L 411.451868 465.838125 
L 409.724982 465.838125 
z
" style="fill:#0000ff;fill-opacity:0.5;stroke:#000000;stroke-linejoin:miter;stroke-width:1.2;"/>
   </g>
   <g id="patch_206">
    <path clip-path="url(#p744700d165)" d="M 411.451868 465.838125 
L 413.178754 465.838125 
L 413.178754 465.838125 
L 411.451868 465.838125 
z
" style="fill:#0000ff;fill-opacity:0.5;stroke:#000000;stroke-linejoin:miter;stroke-width:1.2;"/>
   </g>
   <g id="patch_207">
    <path clip-path="url(#p744700d165)" d="M 413.178754 465.838125 
L 414.90564 465.838125 
L 414.90564 465.838125 
L 413.178754 465.838125 
z
" style="fill:#0000ff;fill-opacity:0.5;stroke:#000000;stroke-linejoin:miter;stroke-width:1.2;"/>
   </g>
   <g id="patch_208">
    <path clip-path="url(#p744700d165)" d="M 414.90564 465.838125 
L 416.632525 465.838125 
L 416.632525 465.838125 
L 414.90564 465.838125 
z
" style="fill:#0000ff;fill-opacity:0.5;stroke:#000000;stroke-linejoin:miter;stroke-width:1.2;"/>
   </g>
   <g id="patch_209">
    <path clip-path="url(#p744700d165)" d="M 416.632525 465.838125 
L 418.359411 465.838125 
L 418.359411 465.838125 
L 416.632525 465.838125 
z
" style="fill:#0000ff;fill-opacity:0.5;stroke:#000000;stroke-linejoin:miter;stroke-width:1.2;"/>
   </g>
   <g id="patch_210">
    <path clip-path="url(#p744700d165)" d="M 418.359411 465.838125 
L 420.086297 465.838125 
L 420.086297 465.838125 
L 418.359411 465.838125 
z
" style="fill:#0000ff;fill-opacity:0.5;stroke:#000000;stroke-linejoin:miter;stroke-width:1.2;"/>
   </g>
   <g id="patch_211">
    <path clip-path="url(#p744700d165)" d="M 420.086297 465.838125 
L 421.813183 465.838125 
L 421.813183 465.838125 
L 420.086297 465.838125 
z
" style="fill:#0000ff;fill-opacity:0.5;stroke:#000000;stroke-linejoin:miter;stroke-width:1.2;"/>
   </g>
   <g id="patch_212">
    <path clip-path="url(#p744700d165)" d="M 421.813183 465.838125 
L 423.540069 465.838125 
L 423.540069 465.838125 
L 421.813183 465.838125 
z
" style="fill:#0000ff;fill-opacity:0.5;stroke:#000000;stroke-linejoin:miter;stroke-width:1.2;"/>
   </g>
   <g id="patch_213">
    <path clip-path="url(#p744700d165)" d="M 423.540069 465.838125 
L 425.266955 465.838125 
L 425.266955 465.838125 
L 423.540069 465.838125 
z
" style="fill:#0000ff;fill-opacity:0.5;stroke:#000000;stroke-linejoin:miter;stroke-width:1.2;"/>
   </g>
   <g id="patch_214">
    <path clip-path="url(#p744700d165)" d="M 425.266955 465.838125 
L 426.993841 465.838125 
L 426.993841 465.838125 
L 425.266955 465.838125 
z
" style="fill:#0000ff;fill-opacity:0.5;stroke:#000000;stroke-linejoin:miter;stroke-width:1.2;"/>
   </g>
   <g id="patch_215">
    <path clip-path="url(#p744700d165)" d="M 426.993841 465.838125 
L 428.720727 465.838125 
L 428.720727 465.838125 
L 426.993841 465.838125 
z
" style="fill:#0000ff;fill-opacity:0.5;stroke:#000000;stroke-linejoin:miter;stroke-width:1.2;"/>
   </g>
   <g id="patch_216">
    <path clip-path="url(#p744700d165)" d="M 428.720727 465.838125 
L 430.447612 465.838125 
L 430.447612 465.838125 
L 428.720727 465.838125 
z
" style="fill:#0000ff;fill-opacity:0.5;stroke:#000000;stroke-linejoin:miter;stroke-width:1.2;"/>
   </g>
   <g id="patch_217">
    <path clip-path="url(#p744700d165)" d="M 430.447612 465.838125 
L 432.174498 465.838125 
L 432.174498 455.780982 
L 430.447612 455.780982 
z
" style="fill:#0000ff;fill-opacity:0.5;stroke:#000000;stroke-linejoin:miter;stroke-width:1.2;"/>
   </g>
   <g id="patch_218">
    <path clip-path="url(#p744700d165)" d="M 432.174498 465.838125 
L 433.901384 465.838125 
L 433.901384 465.838125 
L 432.174498 465.838125 
z
" style="fill:#0000ff;fill-opacity:0.5;stroke:#000000;stroke-linejoin:miter;stroke-width:1.2;"/>
   </g>
   <g id="patch_219">
    <path clip-path="url(#p744700d165)" d="M 433.901384 465.838125 
L 435.62827 465.838125 
L 435.62827 465.838125 
L 433.901384 465.838125 
z
" style="fill:#0000ff;fill-opacity:0.5;stroke:#000000;stroke-linejoin:miter;stroke-width:1.2;"/>
   </g>
   <g id="patch_220">
    <path clip-path="url(#p744700d165)" d="M 435.62827 465.838125 
L 437.355156 465.838125 
L 437.355156 465.838125 
L 435.62827 465.838125 
z
" style="fill:#0000ff;fill-opacity:0.5;stroke:#000000;stroke-linejoin:miter;stroke-width:1.2;"/>
   </g>
   <g id="patch_221">
    <path clip-path="url(#p744700d165)" d="M 437.355156 465.838125 
L 439.082042 465.838125 
L 439.082042 465.838125 
L 437.355156 465.838125 
z
" style="fill:#0000ff;fill-opacity:0.5;stroke:#000000;stroke-linejoin:miter;stroke-width:1.2;"/>
   </g>
   <g id="patch_222">
    <path clip-path="url(#p744700d165)" d="M 439.082042 465.838125 
L 440.808928 465.838125 
L 440.808928 465.838125 
L 439.082042 465.838125 
z
" style="fill:#0000ff;fill-opacity:0.5;stroke:#000000;stroke-linejoin:miter;stroke-width:1.2;"/>
   </g>
   <g id="patch_223">
    <path clip-path="url(#p744700d165)" d="M 440.808928 465.838125 
L 442.535814 465.838125 
L 442.535814 465.838125 
L 440.808928 465.838125 
z
" style="fill:#0000ff;fill-opacity:0.5;stroke:#000000;stroke-linejoin:miter;stroke-width:1.2;"/>
   </g>
   <g id="patch_224">
    <path clip-path="url(#p744700d165)" d="M 442.535814 465.838125 
L 444.262699 465.838125 
L 444.262699 465.838125 
L 442.535814 465.838125 
z
" style="fill:#0000ff;fill-opacity:0.5;stroke:#000000;stroke-linejoin:miter;stroke-width:1.2;"/>
   </g>
   <g id="patch_225">
    <path clip-path="url(#p744700d165)" d="M 444.262699 465.838125 
L 445.989585 465.838125 
L 445.989585 465.838125 
L 444.262699 465.838125 
z
" style="fill:#0000ff;fill-opacity:0.5;stroke:#000000;stroke-linejoin:miter;stroke-width:1.2;"/>
   </g>
   <g id="patch_226">
    <path clip-path="url(#p744700d165)" d="M 445.989585 465.838125 
L 447.716471 465.838125 
L 447.716471 465.838125 
L 445.989585 465.838125 
z
" style="fill:#0000ff;fill-opacity:0.5;stroke:#000000;stroke-linejoin:miter;stroke-width:1.2;"/>
   </g>
   <g id="patch_227">
    <path clip-path="url(#p744700d165)" d="M 447.716471 465.838125 
L 449.443357 465.838125 
L 449.443357 455.780982 
L 447.716471 455.780982 
z
" style="fill:#0000ff;fill-opacity:0.5;stroke:#000000;stroke-linejoin:miter;stroke-width:1.2;"/>
   </g>
   <g id="patch_228">
    <path clip-path="url(#p744700d165)" d="M 449.443357 465.838125 
L 451.170243 465.838125 
L 451.170243 465.838125 
L 449.443357 465.838125 
z
" style="fill:#0000ff;fill-opacity:0.5;stroke:#000000;stroke-linejoin:miter;stroke-width:1.2;"/>
   </g>
   <g id="patch_229">
    <path clip-path="url(#p744700d165)" d="M 451.170243 465.838125 
L 452.897129 465.838125 
L 452.897129 465.838125 
L 451.170243 465.838125 
z
" style="fill:#0000ff;fill-opacity:0.5;stroke:#000000;stroke-linejoin:miter;stroke-width:1.2;"/>
   </g>
   <g id="patch_230">
    <path clip-path="url(#p744700d165)" d="M 452.897129 465.838125 
L 454.624015 465.838125 
L 454.624015 465.838125 
L 452.897129 465.838125 
z
" style="fill:#0000ff;fill-opacity:0.5;stroke:#000000;stroke-linejoin:miter;stroke-width:1.2;"/>
   </g>
   <g id="patch_231">
    <path clip-path="url(#p744700d165)" d="M 454.624015 465.838125 
L 456.350901 465.838125 
L 456.350901 465.838125 
L 454.624015 465.838125 
z
" style="fill:#0000ff;fill-opacity:0.5;stroke:#000000;stroke-linejoin:miter;stroke-width:1.2;"/>
   </g>
   <g id="patch_232">
    <path clip-path="url(#p744700d165)" d="M 456.350901 465.838125 
L 458.077787 465.838125 
L 458.077787 465.838125 
L 456.350901 465.838125 
z
" style="fill:#0000ff;fill-opacity:0.5;stroke:#000000;stroke-linejoin:miter;stroke-width:1.2;"/>
   </g>
   <g id="patch_233">
    <path clip-path="url(#p744700d165)" d="M 458.077787 465.838125 
L 459.804672 465.838125 
L 459.804672 465.838125 
L 458.077787 465.838125 
z
" style="fill:#0000ff;fill-opacity:0.5;stroke:#000000;stroke-linejoin:miter;stroke-width:1.2;"/>
   </g>
   <g id="patch_234">
    <path clip-path="url(#p744700d165)" d="M 459.804672 465.838125 
L 461.531558 465.838125 
L 461.531558 465.838125 
L 459.804672 465.838125 
z
" style="fill:#0000ff;fill-opacity:0.5;stroke:#000000;stroke-linejoin:miter;stroke-width:1.2;"/>
   </g>
   <g id="patch_235">
    <path clip-path="url(#p744700d165)" d="M 461.531558 465.838125 
L 463.258444 465.838125 
L 463.258444 465.838125 
L 461.531558 465.838125 
z
" style="fill:#0000ff;fill-opacity:0.5;stroke:#000000;stroke-linejoin:miter;stroke-width:1.2;"/>
   </g>
   <g id="patch_236">
    <path clip-path="url(#p744700d165)" d="M 463.258444 465.838125 
L 464.98533 465.838125 
L 464.98533 465.838125 
L 463.258444 465.838125 
z
" style="fill:#0000ff;fill-opacity:0.5;stroke:#000000;stroke-linejoin:miter;stroke-width:1.2;"/>
   </g>
   <g id="patch_237">
    <path clip-path="url(#p744700d165)" d="M 464.98533 465.838125 
L 466.712216 465.838125 
L 466.712216 465.838125 
L 464.98533 465.838125 
z
" style="fill:#0000ff;fill-opacity:0.5;stroke:#000000;stroke-linejoin:miter;stroke-width:1.2;"/>
   </g>
   <g id="matplotlib.axis_1">
    <g id="xtick_1">
     <g id="line2d_1">
      <path clip-path="url(#p744700d165)" d="M 79.970957 465.838125 
L 79.970957 22.318125 
" style="fill:none;stroke:#b0b0b0;stroke-linecap:square;stroke-width:0.8;"/>
     </g>
     <g id="line2d_2">
      <defs>
       <path d="M 0 0 
L 0 3.5 
" id="mfd4ae83a18" style="stroke:#000000;stroke-width:0.8;"/>
      </defs>
      <g>
       <use style="stroke:#000000;stroke-width:0.8;" x="79.970957" xlink:href="#mfd4ae83a18" y="465.838125"/>
      </g>
     </g>
     <g id="text_1">
      <!-- 50 -->
      <g transform="translate(73.608457 480.436562)scale(0.1 -0.1)">
       <defs>
        <path d="M 10.796875 72.90625 
L 49.515625 72.90625 
L 49.515625 64.59375 
L 19.828125 64.59375 
L 19.828125 46.734375 
Q 21.96875 47.46875 24.109375 47.828125 
Q 26.265625 48.1875 28.421875 48.1875 
Q 40.625 48.1875 47.75 41.5 
Q 54.890625 34.8125 54.890625 23.390625 
Q 54.890625 11.625 47.5625 5.09375 
Q 40.234375 -1.421875 26.90625 -1.421875 
Q 22.3125 -1.421875 17.546875 -0.640625 
Q 12.796875 0.140625 7.71875 1.703125 
L 7.71875 11.625 
Q 12.109375 9.234375 16.796875 8.0625 
Q 21.484375 6.890625 26.703125 6.890625 
Q 35.15625 6.890625 40.078125 11.328125 
Q 45.015625 15.765625 45.015625 23.390625 
Q 45.015625 31 40.078125 35.4375 
Q 35.15625 39.890625 26.703125 39.890625 
Q 22.75 39.890625 18.8125 39.015625 
Q 14.890625 38.140625 10.796875 36.28125 
z
" id="DejaVuSans-53"/>
        <path d="M 31.78125 66.40625 
Q 24.171875 66.40625 20.328125 58.90625 
Q 16.5 51.421875 16.5 36.375 
Q 16.5 21.390625 20.328125 13.890625 
Q 24.171875 6.390625 31.78125 6.390625 
Q 39.453125 6.390625 43.28125 13.890625 
Q 47.125 21.390625 47.125 36.375 
Q 47.125 51.421875 43.28125 58.90625 
Q 39.453125 66.40625 31.78125 66.40625 
z
M 31.78125 74.21875 
Q 44.046875 74.21875 50.515625 64.515625 
Q 56.984375 54.828125 56.984375 36.375 
Q 56.984375 17.96875 50.515625 8.265625 
Q 44.046875 -1.421875 31.78125 -1.421875 
Q 19.53125 -1.421875 13.0625 8.265625 
Q 6.59375 17.96875 6.59375 36.375 
Q 6.59375 54.828125 13.0625 64.515625 
Q 19.53125 74.21875 31.78125 74.21875 
z
" id="DejaVuSans-48"/>
       </defs>
       <use xlink:href="#DejaVuSans-53"/>
       <use x="63.623047" xlink:href="#DejaVuSans-48"/>
      </g>
     </g>
    </g>
    <g id="xtick_2">
     <g id="line2d_3">
      <path clip-path="url(#p744700d165)" d="M 166.684244 465.838125 
L 166.684244 22.318125 
" style="fill:none;stroke:#b0b0b0;stroke-linecap:square;stroke-width:0.8;"/>
     </g>
     <g id="line2d_4">
      <g>
       <use style="stroke:#000000;stroke-width:0.8;" x="166.684244" xlink:href="#mfd4ae83a18" y="465.838125"/>
      </g>
     </g>
     <g id="text_2">
      <!-- 100 -->
      <g transform="translate(157.140494 480.436562)scale(0.1 -0.1)">
       <defs>
        <path d="M 12.40625 8.296875 
L 28.515625 8.296875 
L 28.515625 63.921875 
L 10.984375 60.40625 
L 10.984375 69.390625 
L 28.421875 72.90625 
L 38.28125 72.90625 
L 38.28125 8.296875 
L 54.390625 8.296875 
L 54.390625 0 
L 12.40625 0 
z
" id="DejaVuSans-49"/>
       </defs>
       <use xlink:href="#DejaVuSans-49"/>
       <use x="63.623047" xlink:href="#DejaVuSans-48"/>
       <use x="127.246094" xlink:href="#DejaVuSans-48"/>
      </g>
     </g>
    </g>
    <g id="xtick_3">
     <g id="line2d_5">
      <path clip-path="url(#p744700d165)" d="M 253.397531 465.838125 
L 253.397531 22.318125 
" style="fill:none;stroke:#b0b0b0;stroke-linecap:square;stroke-width:0.8;"/>
     </g>
     <g id="line2d_6">
      <g>
       <use style="stroke:#000000;stroke-width:0.8;" x="253.397531" xlink:href="#mfd4ae83a18" y="465.838125"/>
      </g>
     </g>
     <g id="text_3">
      <!-- 150 -->
      <g transform="translate(243.853781 480.436562)scale(0.1 -0.1)">
       <use xlink:href="#DejaVuSans-49"/>
       <use x="63.623047" xlink:href="#DejaVuSans-53"/>
       <use x="127.246094" xlink:href="#DejaVuSans-48"/>
      </g>
     </g>
    </g>
    <g id="xtick_4">
     <g id="line2d_7">
      <path clip-path="url(#p744700d165)" d="M 340.110817 465.838125 
L 340.110817 22.318125 
" style="fill:none;stroke:#b0b0b0;stroke-linecap:square;stroke-width:0.8;"/>
     </g>
     <g id="line2d_8">
      <g>
       <use style="stroke:#000000;stroke-width:0.8;" x="340.110817" xlink:href="#mfd4ae83a18" y="465.838125"/>
      </g>
     </g>
     <g id="text_4">
      <!-- 200 -->
      <g transform="translate(330.567067 480.436562)scale(0.1 -0.1)">
       <defs>
        <path d="M 19.1875 8.296875 
L 53.609375 8.296875 
L 53.609375 0 
L 7.328125 0 
L 7.328125 8.296875 
Q 12.9375 14.109375 22.625 23.890625 
Q 32.328125 33.6875 34.8125 36.53125 
Q 39.546875 41.84375 41.421875 45.53125 
Q 43.3125 49.21875 43.3125 52.78125 
Q 43.3125 58.59375 39.234375 62.25 
Q 35.15625 65.921875 28.609375 65.921875 
Q 23.96875 65.921875 18.8125 64.3125 
Q 13.671875 62.703125 7.8125 59.421875 
L 7.8125 69.390625 
Q 13.765625 71.78125 18.9375 73 
Q 24.125 74.21875 28.421875 74.21875 
Q 39.75 74.21875 46.484375 68.546875 
Q 53.21875 62.890625 53.21875 53.421875 
Q 53.21875 48.921875 51.53125 44.890625 
Q 49.859375 40.875 45.40625 35.40625 
Q 44.1875 33.984375 37.640625 27.21875 
Q 31.109375 20.453125 19.1875 8.296875 
z
" id="DejaVuSans-50"/>
       </defs>
       <use xlink:href="#DejaVuSans-50"/>
       <use x="63.623047" xlink:href="#DejaVuSans-48"/>
       <use x="127.246094" xlink:href="#DejaVuSans-48"/>
      </g>
     </g>
    </g>
    <g id="xtick_5">
     <g id="line2d_9">
      <path clip-path="url(#p744700d165)" d="M 426.824104 465.838125 
L 426.824104 22.318125 
" style="fill:none;stroke:#b0b0b0;stroke-linecap:square;stroke-width:0.8;"/>
     </g>
     <g id="line2d_10">
      <g>
       <use style="stroke:#000000;stroke-width:0.8;" x="426.824104" xlink:href="#mfd4ae83a18" y="465.838125"/>
      </g>
     </g>
     <g id="text_5">
      <!-- 250 -->
      <g transform="translate(417.280354 480.436562)scale(0.1 -0.1)">
       <use xlink:href="#DejaVuSans-50"/>
       <use x="63.623047" xlink:href="#DejaVuSans-53"/>
       <use x="127.246094" xlink:href="#DejaVuSans-48"/>
      </g>
     </g>
    </g>
    <g id="text_6">
     <!-- Channel_out [ADC code] -->
     <g transform="translate(202.686719 494.114687)scale(0.1 -0.1)">
      <defs>
       <path d="M 64.40625 67.28125 
L 64.40625 56.890625 
Q 59.421875 61.53125 53.78125 63.8125 
Q 48.140625 66.109375 41.796875 66.109375 
Q 29.296875 66.109375 22.65625 58.46875 
Q 16.015625 50.828125 16.015625 36.375 
Q 16.015625 21.96875 22.65625 14.328125 
Q 29.296875 6.6875 41.796875 6.6875 
Q 48.140625 6.6875 53.78125 8.984375 
Q 59.421875 11.28125 64.40625 15.921875 
L 64.40625 5.609375 
Q 59.234375 2.09375 53.4375 0.328125 
Q 47.65625 -1.421875 41.21875 -1.421875 
Q 24.65625 -1.421875 15.125 8.703125 
Q 5.609375 18.84375 5.609375 36.375 
Q 5.609375 53.953125 15.125 64.078125 
Q 24.65625 74.21875 41.21875 74.21875 
Q 47.75 74.21875 53.53125 72.484375 
Q 59.328125 70.75 64.40625 67.28125 
z
" id="DejaVuSans-67"/>
       <path d="M 54.890625 33.015625 
L 54.890625 0 
L 45.90625 0 
L 45.90625 32.71875 
Q 45.90625 40.484375 42.875 44.328125 
Q 39.84375 48.1875 33.796875 48.1875 
Q 26.515625 48.1875 22.3125 43.546875 
Q 18.109375 38.921875 18.109375 30.90625 
L 18.109375 0 
L 9.078125 0 
L 9.078125 75.984375 
L 18.109375 75.984375 
L 18.109375 46.1875 
Q 21.34375 51.125 25.703125 53.5625 
Q 30.078125 56 35.796875 56 
Q 45.21875 56 50.046875 50.171875 
Q 54.890625 44.34375 54.890625 33.015625 
z
" id="DejaVuSans-104"/>
       <path d="M 34.28125 27.484375 
Q 23.390625 27.484375 19.1875 25 
Q 14.984375 22.515625 14.984375 16.5 
Q 14.984375 11.71875 18.140625 8.90625 
Q 21.296875 6.109375 26.703125 6.109375 
Q 34.1875 6.109375 38.703125 11.40625 
Q 43.21875 16.703125 43.21875 25.484375 
L 43.21875 27.484375 
z
M 52.203125 31.203125 
L 52.203125 0 
L 43.21875 0 
L 43.21875 8.296875 
Q 40.140625 3.328125 35.546875 0.953125 
Q 30.953125 -1.421875 24.3125 -1.421875 
Q 15.921875 -1.421875 10.953125 3.296875 
Q 6 8.015625 6 15.921875 
Q 6 25.140625 12.171875 29.828125 
Q 18.359375 34.515625 30.609375 34.515625 
L 43.21875 34.515625 
L 43.21875 35.40625 
Q 43.21875 41.609375 39.140625 45 
Q 35.0625 48.390625 27.6875 48.390625 
Q 23 48.390625 18.546875 47.265625 
Q 14.109375 46.140625 10.015625 43.890625 
L 10.015625 52.203125 
Q 14.9375 54.109375 19.578125 55.046875 
Q 24.21875 56 28.609375 56 
Q 40.484375 56 46.34375 49.84375 
Q 52.203125 43.703125 52.203125 31.203125 
z
" id="DejaVuSans-97"/>
       <path d="M 54.890625 33.015625 
L 54.890625 0 
L 45.90625 0 
L 45.90625 32.71875 
Q 45.90625 40.484375 42.875 44.328125 
Q 39.84375 48.1875 33.796875 48.1875 
Q 26.515625 48.1875 22.3125 43.546875 
Q 18.109375 38.921875 18.109375 30.90625 
L 18.109375 0 
L 9.078125 0 
L 9.078125 54.6875 
L 18.109375 54.6875 
L 18.109375 46.1875 
Q 21.34375 51.125 25.703125 53.5625 
Q 30.078125 56 35.796875 56 
Q 45.21875 56 50.046875 50.171875 
Q 54.890625 44.34375 54.890625 33.015625 
z
" id="DejaVuSans-110"/>
       <path d="M 56.203125 29.59375 
L 56.203125 25.203125 
L 14.890625 25.203125 
Q 15.484375 15.921875 20.484375 11.0625 
Q 25.484375 6.203125 34.421875 6.203125 
Q 39.59375 6.203125 44.453125 7.46875 
Q 49.3125 8.734375 54.109375 11.28125 
L 54.109375 2.78125 
Q 49.265625 0.734375 44.1875 -0.34375 
Q 39.109375 -1.421875 33.890625 -1.421875 
Q 20.796875 -1.421875 13.15625 6.1875 
Q 5.515625 13.8125 5.515625 26.8125 
Q 5.515625 40.234375 12.765625 48.109375 
Q 20.015625 56 32.328125 56 
Q 43.359375 56 49.78125 48.890625 
Q 56.203125 41.796875 56.203125 29.59375 
z
M 47.21875 32.234375 
Q 47.125 39.59375 43.09375 43.984375 
Q 39.0625 48.390625 32.421875 48.390625 
Q 24.90625 48.390625 20.390625 44.140625 
Q 15.875 39.890625 15.1875 32.171875 
z
" id="DejaVuSans-101"/>
       <path d="M 9.421875 75.984375 
L 18.40625 75.984375 
L 18.40625 0 
L 9.421875 0 
z
" id="DejaVuSans-108"/>
       <path d="M 50.984375 -16.609375 
L 50.984375 -23.578125 
L -0.984375 -23.578125 
L -0.984375 -16.609375 
z
" id="DejaVuSans-95"/>
       <path d="M 30.609375 48.390625 
Q 23.390625 48.390625 19.1875 42.75 
Q 14.984375 37.109375 14.984375 27.296875 
Q 14.984375 17.484375 19.15625 11.84375 
Q 23.34375 6.203125 30.609375 6.203125 
Q 37.796875 6.203125 41.984375 11.859375 
Q 46.1875 17.53125 46.1875 27.296875 
Q 46.1875 37.015625 41.984375 42.703125 
Q 37.796875 48.390625 30.609375 48.390625 
z
M 30.609375 56 
Q 42.328125 56 49.015625 48.375 
Q 55.71875 40.765625 55.71875 27.296875 
Q 55.71875 13.875 49.015625 6.21875 
Q 42.328125 -1.421875 30.609375 -1.421875 
Q 18.84375 -1.421875 12.171875 6.21875 
Q 5.515625 13.875 5.515625 27.296875 
Q 5.515625 40.765625 12.171875 48.375 
Q 18.84375 56 30.609375 56 
z
" id="DejaVuSans-111"/>
       <path d="M 8.5 21.578125 
L 8.5 54.6875 
L 17.484375 54.6875 
L 17.484375 21.921875 
Q 17.484375 14.15625 20.5 10.265625 
Q 23.53125 6.390625 29.59375 6.390625 
Q 36.859375 6.390625 41.078125 11.03125 
Q 45.3125 15.671875 45.3125 23.6875 
L 45.3125 54.6875 
L 54.296875 54.6875 
L 54.296875 0 
L 45.3125 0 
L 45.3125 8.40625 
Q 42.046875 3.421875 37.71875 1 
Q 33.40625 -1.421875 27.6875 -1.421875 
Q 18.265625 -1.421875 13.375 4.4375 
Q 8.5 10.296875 8.5 21.578125 
z
M 31.109375 56 
z
" id="DejaVuSans-117"/>
       <path d="M 18.3125 70.21875 
L 18.3125 54.6875 
L 36.8125 54.6875 
L 36.8125 47.703125 
L 18.3125 47.703125 
L 18.3125 18.015625 
Q 18.3125 11.328125 20.140625 9.421875 
Q 21.96875 7.515625 27.59375 7.515625 
L 36.8125 7.515625 
L 36.8125 0 
L 27.59375 0 
Q 17.1875 0 13.234375 3.875 
Q 9.28125 7.765625 9.28125 18.015625 
L 9.28125 47.703125 
L 2.6875 47.703125 
L 2.6875 54.6875 
L 9.28125 54.6875 
L 9.28125 70.21875 
z
" id="DejaVuSans-116"/>
       <path id="DejaVuSans-32"/>
       <path d="M 8.59375 75.984375 
L 29.296875 75.984375 
L 29.296875 69 
L 17.578125 69 
L 17.578125 -6.203125 
L 29.296875 -6.203125 
L 29.296875 -13.1875 
L 8.59375 -13.1875 
z
" id="DejaVuSans-91"/>
       <path d="M 34.1875 63.1875 
L 20.796875 26.90625 
L 47.609375 26.90625 
z
M 28.609375 72.90625 
L 39.796875 72.90625 
L 67.578125 0 
L 57.328125 0 
L 50.6875 18.703125 
L 17.828125 18.703125 
L 11.1875 0 
L 0.78125 0 
z
" id="DejaVuSans-65"/>
       <path d="M 19.671875 64.796875 
L 19.671875 8.109375 
L 31.59375 8.109375 
Q 46.6875 8.109375 53.6875 14.9375 
Q 60.6875 21.78125 60.6875 36.53125 
Q 60.6875 51.171875 53.6875 57.984375 
Q 46.6875 64.796875 31.59375 64.796875 
z
M 9.8125 72.90625 
L 30.078125 72.90625 
Q 51.265625 72.90625 61.171875 64.09375 
Q 71.09375 55.28125 71.09375 36.53125 
Q 71.09375 17.671875 61.125 8.828125 
Q 51.171875 0 30.078125 0 
L 9.8125 0 
z
" id="DejaVuSans-68"/>
       <path d="M 48.78125 52.59375 
L 48.78125 44.1875 
Q 44.96875 46.296875 41.140625 47.34375 
Q 37.3125 48.390625 33.40625 48.390625 
Q 24.65625 48.390625 19.8125 42.84375 
Q 14.984375 37.3125 14.984375 27.296875 
Q 14.984375 17.28125 19.8125 11.734375 
Q 24.65625 6.203125 33.40625 6.203125 
Q 37.3125 6.203125 41.140625 7.25 
Q 44.96875 8.296875 48.78125 10.40625 
L 48.78125 2.09375 
Q 45.015625 0.34375 40.984375 -0.53125 
Q 36.96875 -1.421875 32.421875 -1.421875 
Q 20.0625 -1.421875 12.78125 6.34375 
Q 5.515625 14.109375 5.515625 27.296875 
Q 5.515625 40.671875 12.859375 48.328125 
Q 20.21875 56 33.015625 56 
Q 37.15625 56 41.109375 55.140625 
Q 45.0625 54.296875 48.78125 52.59375 
z
" id="DejaVuSans-99"/>
       <path d="M 45.40625 46.390625 
L 45.40625 75.984375 
L 54.390625 75.984375 
L 54.390625 0 
L 45.40625 0 
L 45.40625 8.203125 
Q 42.578125 3.328125 38.25 0.953125 
Q 33.9375 -1.421875 27.875 -1.421875 
Q 17.96875 -1.421875 11.734375 6.484375 
Q 5.515625 14.40625 5.515625 27.296875 
Q 5.515625 40.1875 11.734375 48.09375 
Q 17.96875 56 27.875 56 
Q 33.9375 56 38.25 53.625 
Q 42.578125 51.265625 45.40625 46.390625 
z
M 14.796875 27.296875 
Q 14.796875 17.390625 18.875 11.75 
Q 22.953125 6.109375 30.078125 6.109375 
Q 37.203125 6.109375 41.296875 11.75 
Q 45.40625 17.390625 45.40625 27.296875 
Q 45.40625 37.203125 41.296875 42.84375 
Q 37.203125 48.484375 30.078125 48.484375 
Q 22.953125 48.484375 18.875 42.84375 
Q 14.796875 37.203125 14.796875 27.296875 
z
" id="DejaVuSans-100"/>
       <path d="M 30.421875 75.984375 
L 30.421875 -13.1875 
L 9.71875 -13.1875 
L 9.71875 -6.203125 
L 21.390625 -6.203125 
L 21.390625 69 
L 9.71875 69 
L 9.71875 75.984375 
z
" id="DejaVuSans-93"/>
      </defs>
      <use xlink:href="#DejaVuSans-67"/>
      <use x="69.824219" xlink:href="#DejaVuSans-104"/>
      <use x="133.203125" xlink:href="#DejaVuSans-97"/>
      <use x="194.482422" xlink:href="#DejaVuSans-110"/>
      <use x="257.861328" xlink:href="#DejaVuSans-110"/>
      <use x="321.240234" xlink:href="#DejaVuSans-101"/>
      <use x="382.763672" xlink:href="#DejaVuSans-108"/>
      <use x="410.546875" xlink:href="#DejaVuSans-95"/>
      <use x="460.546875" xlink:href="#DejaVuSans-111"/>
      <use x="521.728516" xlink:href="#DejaVuSans-117"/>
      <use x="585.107422" xlink:href="#DejaVuSans-116"/>
      <use x="624.316406" xlink:href="#DejaVuSans-32"/>
      <use x="656.103516" xlink:href="#DejaVuSans-91"/>
      <use x="695.117188" xlink:href="#DejaVuSans-65"/>
      <use x="763.525391" xlink:href="#DejaVuSans-68"/>
      <use x="840.527344" xlink:href="#DejaVuSans-67"/>
      <use x="910.351562" xlink:href="#DejaVuSans-32"/>
      <use x="942.138672" xlink:href="#DejaVuSans-99"/>
      <use x="997.119141" xlink:href="#DejaVuSans-111"/>
      <use x="1058.300781" xlink:href="#DejaVuSans-100"/>
      <use x="1121.777344" xlink:href="#DejaVuSans-101"/>
      <use x="1183.300781" xlink:href="#DejaVuSans-93"/>
     </g>
    </g>
   </g>
   <g id="matplotlib.axis_2">
    <g id="ytick_1">
     <g id="line2d_11">
      <path clip-path="url(#p744700d165)" d="M 40.603125 465.838125 
L 487.003125 465.838125 
" style="fill:none;stroke:#b0b0b0;stroke-linecap:square;stroke-width:0.8;"/>
     </g>
     <g id="line2d_12">
      <defs>
       <path d="M 0 0 
L -3.5 0 
" id="mcad8aba4ed" style="stroke:#000000;stroke-width:0.8;"/>
      </defs>
      <g>
       <use style="stroke:#000000;stroke-width:0.8;" x="40.603125" xlink:href="#mcad8aba4ed" y="465.838125"/>
      </g>
     </g>
     <g id="text_7">
      <!-- 0 -->
      <g transform="translate(27.240625 469.637344)scale(0.1 -0.1)">
       <use xlink:href="#DejaVuSans-48"/>
      </g>
     </g>
    </g>
    <g id="ytick_2">
     <g id="line2d_13">
      <path clip-path="url(#p744700d165)" d="M 40.603125 415.552411 
L 487.003125 415.552411 
" style="fill:none;stroke:#b0b0b0;stroke-linecap:square;stroke-width:0.8;"/>
     </g>
     <g id="line2d_14">
      <g>
       <use style="stroke:#000000;stroke-width:0.8;" x="40.603125" xlink:href="#mcad8aba4ed" y="415.552411"/>
      </g>
     </g>
     <g id="text_8">
      <!-- 5 -->
      <g transform="translate(27.240625 419.351629)scale(0.1 -0.1)">
       <use xlink:href="#DejaVuSans-53"/>
      </g>
     </g>
    </g>
    <g id="ytick_3">
     <g id="line2d_15">
      <path clip-path="url(#p744700d165)" d="M 40.603125 365.266696 
L 487.003125 365.266696 
" style="fill:none;stroke:#b0b0b0;stroke-linecap:square;stroke-width:0.8;"/>
     </g>
     <g id="line2d_16">
      <g>
       <use style="stroke:#000000;stroke-width:0.8;" x="40.603125" xlink:href="#mcad8aba4ed" y="365.266696"/>
      </g>
     </g>
     <g id="text_9">
      <!-- 10 -->
      <g transform="translate(20.878125 369.065915)scale(0.1 -0.1)">
       <use xlink:href="#DejaVuSans-49"/>
       <use x="63.623047" xlink:href="#DejaVuSans-48"/>
      </g>
     </g>
    </g>
    <g id="ytick_4">
     <g id="line2d_17">
      <path clip-path="url(#p744700d165)" d="M 40.603125 314.980982 
L 487.003125 314.980982 
" style="fill:none;stroke:#b0b0b0;stroke-linecap:square;stroke-width:0.8;"/>
     </g>
     <g id="line2d_18">
      <g>
       <use style="stroke:#000000;stroke-width:0.8;" x="40.603125" xlink:href="#mcad8aba4ed" y="314.980982"/>
      </g>
     </g>
     <g id="text_10">
      <!-- 15 -->
      <g transform="translate(20.878125 318.780201)scale(0.1 -0.1)">
       <use xlink:href="#DejaVuSans-49"/>
       <use x="63.623047" xlink:href="#DejaVuSans-53"/>
      </g>
     </g>
    </g>
    <g id="ytick_5">
     <g id="line2d_19">
      <path clip-path="url(#p744700d165)" d="M 40.603125 264.695268 
L 487.003125 264.695268 
" style="fill:none;stroke:#b0b0b0;stroke-linecap:square;stroke-width:0.8;"/>
     </g>
     <g id="line2d_20">
      <g>
       <use style="stroke:#000000;stroke-width:0.8;" x="40.603125" xlink:href="#mcad8aba4ed" y="264.695268"/>
      </g>
     </g>
     <g id="text_11">
      <!-- 20 -->
      <g transform="translate(20.878125 268.494487)scale(0.1 -0.1)">
       <use xlink:href="#DejaVuSans-50"/>
       <use x="63.623047" xlink:href="#DejaVuSans-48"/>
      </g>
     </g>
    </g>
    <g id="ytick_6">
     <g id="line2d_21">
      <path clip-path="url(#p744700d165)" d="M 40.603125 214.409554 
L 487.003125 214.409554 
" style="fill:none;stroke:#b0b0b0;stroke-linecap:square;stroke-width:0.8;"/>
     </g>
     <g id="line2d_22">
      <g>
       <use style="stroke:#000000;stroke-width:0.8;" x="40.603125" xlink:href="#mcad8aba4ed" y="214.409554"/>
      </g>
     </g>
     <g id="text_12">
      <!-- 25 -->
      <g transform="translate(20.878125 218.208772)scale(0.1 -0.1)">
       <use xlink:href="#DejaVuSans-50"/>
       <use x="63.623047" xlink:href="#DejaVuSans-53"/>
      </g>
     </g>
    </g>
    <g id="ytick_7">
     <g id="line2d_23">
      <path clip-path="url(#p744700d165)" d="M 40.603125 164.123839 
L 487.003125 164.123839 
" style="fill:none;stroke:#b0b0b0;stroke-linecap:square;stroke-width:0.8;"/>
     </g>
     <g id="line2d_24">
      <g>
       <use style="stroke:#000000;stroke-width:0.8;" x="40.603125" xlink:href="#mcad8aba4ed" y="164.123839"/>
      </g>
     </g>
     <g id="text_13">
      <!-- 30 -->
      <g transform="translate(20.878125 167.923058)scale(0.1 -0.1)">
       <defs>
        <path d="M 40.578125 39.3125 
Q 47.65625 37.796875 51.625 33 
Q 55.609375 28.21875 55.609375 21.1875 
Q 55.609375 10.40625 48.1875 4.484375 
Q 40.765625 -1.421875 27.09375 -1.421875 
Q 22.515625 -1.421875 17.65625 -0.515625 
Q 12.796875 0.390625 7.625 2.203125 
L 7.625 11.71875 
Q 11.71875 9.328125 16.59375 8.109375 
Q 21.484375 6.890625 26.8125 6.890625 
Q 36.078125 6.890625 40.9375 10.546875 
Q 45.796875 14.203125 45.796875 21.1875 
Q 45.796875 27.640625 41.28125 31.265625 
Q 36.765625 34.90625 28.71875 34.90625 
L 20.21875 34.90625 
L 20.21875 43.015625 
L 29.109375 43.015625 
Q 36.375 43.015625 40.234375 45.921875 
Q 44.09375 48.828125 44.09375 54.296875 
Q 44.09375 59.90625 40.109375 62.90625 
Q 36.140625 65.921875 28.71875 65.921875 
Q 24.65625 65.921875 20.015625 65.03125 
Q 15.375 64.15625 9.8125 62.3125 
L 9.8125 71.09375 
Q 15.4375 72.65625 20.34375 73.4375 
Q 25.25 74.21875 29.59375 74.21875 
Q 40.828125 74.21875 47.359375 69.109375 
Q 53.90625 64.015625 53.90625 55.328125 
Q 53.90625 49.265625 50.4375 45.09375 
Q 46.96875 40.921875 40.578125 39.3125 
z
" id="DejaVuSans-51"/>
       </defs>
       <use xlink:href="#DejaVuSans-51"/>
       <use x="63.623047" xlink:href="#DejaVuSans-48"/>
      </g>
     </g>
    </g>
    <g id="ytick_8">
     <g id="line2d_25">
      <path clip-path="url(#p744700d165)" d="M 40.603125 113.838125 
L 487.003125 113.838125 
" style="fill:none;stroke:#b0b0b0;stroke-linecap:square;stroke-width:0.8;"/>
     </g>
     <g id="line2d_26">
      <g>
       <use style="stroke:#000000;stroke-width:0.8;" x="40.603125" xlink:href="#mcad8aba4ed" y="113.838125"/>
      </g>
     </g>
     <g id="text_14">
      <!-- 35 -->
      <g transform="translate(20.878125 117.637344)scale(0.1 -0.1)">
       <use xlink:href="#DejaVuSans-51"/>
       <use x="63.623047" xlink:href="#DejaVuSans-53"/>
      </g>
     </g>
    </g>
    <g id="ytick_9">
     <g id="line2d_27">
      <path clip-path="url(#p744700d165)" d="M 40.603125 63.552411 
L 487.003125 63.552411 
" style="fill:none;stroke:#b0b0b0;stroke-linecap:square;stroke-width:0.8;"/>
     </g>
     <g id="line2d_28">
      <g>
       <use style="stroke:#000000;stroke-width:0.8;" x="40.603125" xlink:href="#mcad8aba4ed" y="63.552411"/>
      </g>
     </g>
     <g id="text_15">
      <!-- 40 -->
      <g transform="translate(20.878125 67.351629)scale(0.1 -0.1)">
       <defs>
        <path d="M 37.796875 64.3125 
L 12.890625 25.390625 
L 37.796875 25.390625 
z
M 35.203125 72.90625 
L 47.609375 72.90625 
L 47.609375 25.390625 
L 58.015625 25.390625 
L 58.015625 17.1875 
L 47.609375 17.1875 
L 47.609375 0 
L 37.796875 0 
L 37.796875 17.1875 
L 4.890625 17.1875 
L 4.890625 26.703125 
z
" id="DejaVuSans-52"/>
       </defs>
       <use xlink:href="#DejaVuSans-52"/>
       <use x="63.623047" xlink:href="#DejaVuSans-48"/>
      </g>
     </g>
    </g>
    <g id="text_16">
     <!-- Counts -->
     <g transform="translate(14.798437 261.53125)rotate(-90)scale(0.1 -0.1)">
      <defs>
       <path d="M 44.28125 53.078125 
L 44.28125 44.578125 
Q 40.484375 46.53125 36.375 47.5 
Q 32.28125 48.484375 27.875 48.484375 
Q 21.1875 48.484375 17.84375 46.4375 
Q 14.5 44.390625 14.5 40.28125 
Q 14.5 37.15625 16.890625 35.375 
Q 19.28125 33.59375 26.515625 31.984375 
L 29.59375 31.296875 
Q 39.15625 29.25 43.1875 25.515625 
Q 47.21875 21.78125 47.21875 15.09375 
Q 47.21875 7.46875 41.1875 3.015625 
Q 35.15625 -1.421875 24.609375 -1.421875 
Q 20.21875 -1.421875 15.453125 -0.5625 
Q 10.6875 0.296875 5.421875 2 
L 5.421875 11.28125 
Q 10.40625 8.6875 15.234375 7.390625 
Q 20.0625 6.109375 24.8125 6.109375 
Q 31.15625 6.109375 34.5625 8.28125 
Q 37.984375 10.453125 37.984375 14.40625 
Q 37.984375 18.0625 35.515625 20.015625 
Q 33.0625 21.96875 24.703125 23.78125 
L 21.578125 24.515625 
Q 13.234375 26.265625 9.515625 29.90625 
Q 5.8125 33.546875 5.8125 39.890625 
Q 5.8125 47.609375 11.28125 51.796875 
Q 16.75 56 26.8125 56 
Q 31.78125 56 36.171875 55.265625 
Q 40.578125 54.546875 44.28125 53.078125 
z
" id="DejaVuSans-115"/>
      </defs>
      <use xlink:href="#DejaVuSans-67"/>
      <use x="69.824219" xlink:href="#DejaVuSans-111"/>
      <use x="131.005859" xlink:href="#DejaVuSans-117"/>
      <use x="194.384766" xlink:href="#DejaVuSans-110"/>
      <use x="257.763672" xlink:href="#DejaVuSans-116"/>
      <use x="296.972656" xlink:href="#DejaVuSans-115"/>
     </g>
    </g>
   </g>
   <g id="patch_238">
    <path d="M 40.603125 465.838125 
L 40.603125 22.318125 
" style="fill:none;stroke:#000000;stroke-linecap:square;stroke-linejoin:miter;stroke-width:0.8;"/>
   </g>
   <g id="patch_239">
    <path d="M 487.003125 465.838125 
L 487.003125 22.318125 
" style="fill:none;stroke:#000000;stroke-linecap:square;stroke-linejoin:miter;stroke-width:0.8;"/>
   </g>
   <g id="patch_240">
    <path d="M 40.603125 465.838125 
L 487.003125 465.838125 
" style="fill:none;stroke:#000000;stroke-linecap:square;stroke-linejoin:miter;stroke-width:0.8;"/>
   </g>
   <g id="patch_241">
    <path d="M 40.603125 22.318125 
L 487.003125 22.318125 
" style="fill:none;stroke:#000000;stroke-linecap:square;stroke-linejoin:miter;stroke-width:0.8;"/>
   </g>
   <g id="text_17">
    <!-- Pedestal of channel #24 -->
    <g transform="translate(190.479375 16.318125)scale(0.12 -0.12)">
     <defs>
      <path d="M 19.671875 64.796875 
L 19.671875 37.40625 
L 32.078125 37.40625 
Q 38.96875 37.40625 42.71875 40.96875 
Q 46.484375 44.53125 46.484375 51.125 
Q 46.484375 57.671875 42.71875 61.234375 
Q 38.96875 64.796875 32.078125 64.796875 
z
M 9.8125 72.90625 
L 32.078125 72.90625 
Q 44.34375 72.90625 50.609375 67.359375 
Q 56.890625 61.8125 56.890625 51.125 
Q 56.890625 40.328125 50.609375 34.8125 
Q 44.34375 29.296875 32.078125 29.296875 
L 19.671875 29.296875 
L 19.671875 0 
L 9.8125 0 
z
" id="DejaVuSans-80"/>
      <path d="M 37.109375 75.984375 
L 37.109375 68.5 
L 28.515625 68.5 
Q 23.6875 68.5 21.796875 66.546875 
Q 19.921875 64.59375 19.921875 59.515625 
L 19.921875 54.6875 
L 34.71875 54.6875 
L 34.71875 47.703125 
L 19.921875 47.703125 
L 19.921875 0 
L 10.890625 0 
L 10.890625 47.703125 
L 2.296875 47.703125 
L 2.296875 54.6875 
L 10.890625 54.6875 
L 10.890625 58.5 
Q 10.890625 67.625 15.140625 71.796875 
Q 19.390625 75.984375 28.609375 75.984375 
z
" id="DejaVuSans-102"/>
      <path d="M 51.125 44 
L 36.921875 44 
L 32.8125 27.6875 
L 47.125 27.6875 
z
M 43.796875 71.78125 
L 38.71875 51.515625 
L 52.984375 51.515625 
L 58.109375 71.78125 
L 65.921875 71.78125 
L 60.890625 51.515625 
L 76.125 51.515625 
L 76.125 44 
L 58.984375 44 
L 54.984375 27.6875 
L 70.515625 27.6875 
L 70.515625 20.21875 
L 53.078125 20.21875 
L 48 0 
L 40.1875 0 
L 45.21875 20.21875 
L 30.90625 20.21875 
L 25.875 0 
L 18.015625 0 
L 23.09375 20.21875 
L 7.71875 20.21875 
L 7.71875 27.6875 
L 24.90625 27.6875 
L 29 44 
L 13.28125 44 
L 13.28125 51.515625 
L 30.90625 51.515625 
L 35.890625 71.78125 
z
" id="DejaVuSans-35"/>
     </defs>
     <use xlink:href="#DejaVuSans-80"/>
     <use x="56.677734" xlink:href="#DejaVuSans-101"/>
     <use x="118.201172" xlink:href="#DejaVuSans-100"/>
     <use x="181.677734" xlink:href="#DejaVuSans-101"/>
     <use x="243.201172" xlink:href="#DejaVuSans-115"/>
     <use x="295.300781" xlink:href="#DejaVuSans-116"/>
     <use x="334.509766" xlink:href="#DejaVuSans-97"/>
     <use x="395.789062" xlink:href="#DejaVuSans-108"/>
     <use x="423.572266" xlink:href="#DejaVuSans-32"/>
     <use x="455.359375" xlink:href="#DejaVuSans-111"/>
     <use x="516.541016" xlink:href="#DejaVuSans-102"/>
     <use x="551.746094" xlink:href="#DejaVuSans-32"/>
     <use x="583.533203" xlink:href="#DejaVuSans-99"/>
     <use x="638.513672" xlink:href="#DejaVuSans-104"/>
     <use x="701.892578" xlink:href="#DejaVuSans-97"/>
     <use x="763.171875" xlink:href="#DejaVuSans-110"/>
     <use x="826.550781" xlink:href="#DejaVuSans-110"/>
     <use x="889.929688" xlink:href="#DejaVuSans-101"/>
     <use x="951.453125" xlink:href="#DejaVuSans-108"/>
     <use x="979.236328" xlink:href="#DejaVuSans-32"/>
     <use x="1011.023438" xlink:href="#DejaVuSans-35"/>
     <use x="1094.8125" xlink:href="#DejaVuSans-50"/>
     <use x="1158.435547" xlink:href="#DejaVuSans-52"/>
    </g>
   </g>
   <g id="legend_1">
    <g id="patch_242">
     <path d="M 490.567125 252.928125 
L 656.867125 252.928125 
Q 658.867125 252.928125 658.867125 250.928125 
L 658.867125 237.228125 
Q 658.867125 235.228125 656.867125 235.228125 
L 490.567125 235.228125 
Q 488.567125 235.228125 488.567125 237.228125 
L 488.567125 250.928125 
Q 488.567125 252.928125 490.567125 252.928125 
z
" style="fill:#ffffff;opacity:0.8;stroke:#cccccc;stroke-linejoin:miter;"/>
    </g>
    <g id="patch_243">
     <path d="M 492.567125 246.828125 
L 512.567125 246.828125 
L 512.567125 239.828125 
L 492.567125 239.828125 
z
" style="fill:#0000ff;fill-opacity:0.5;stroke:#000000;stroke-linejoin:miter;stroke-width:1.2;"/>
    </g>
    <g id="text_18">
     <!-- $\tau_0\quad(\mu=124.12,\sigma=24.31$) -->
     <g transform="translate(520.567125 246.828125)scale(0.1 -0.1)">
      <defs>
       <path d="M 32.859375 9.96875 
Q 34.1875 7.625 39.453125 7.625 
L 43.75 7.625 
L 42.28125 0 
L 36.921875 0 
Q 28.125 0 25 4.6875 
Q 21.921875 9.46875 23.96875 19.828125 
L 29 45.703125 
L 8.453125 45.703125 
L 10.203125 54.6875 
L 60.640625 54.6875 
L 58.890625 45.703125 
L 38.1875 45.703125 
L 33.015625 19.28125 
Q 31.640625 12.203125 32.859375 9.96875 
z
" id="DejaVuSans-Oblique-964"/>
       <path d="M 31 75.875 
Q 24.46875 64.65625 21.28125 53.65625 
Q 18.109375 42.671875 18.109375 31.390625 
Q 18.109375 20.125 21.3125 9.0625 
Q 24.515625 -2 31 -13.1875 
L 23.1875 -13.1875 
Q 15.875 -1.703125 12.234375 9.375 
Q 8.59375 20.453125 8.59375 31.390625 
Q 8.59375 42.28125 12.203125 53.3125 
Q 15.828125 64.359375 23.1875 75.875 
z
" id="DejaVuSans-40"/>
       <path d="M -1.3125 -20.796875 
L 13.375 54.6875 
L 22.40625 54.6875 
L 15.765625 20.65625 
Q 15.578125 19.625 15.421875 18.359375 
Q 15.28125 17.09375 15.28125 15.828125 
Q 15.28125 11.28125 18.140625 8.828125 
Q 21 6.390625 26.3125 6.390625 
Q 33.546875 6.390625 37.984375 10.484375 
Q 42.4375 14.59375 44 22.796875 
L 50.203125 54.6875 
L 59.1875 54.6875 
L 51.03125 12.640625 
Q 50.828125 11.71875 50.75 11.03125 
Q 50.6875 10.359375 50.6875 9.8125 
Q 50.6875 8.296875 51.296875 7.59375 
Q 51.90625 6.890625 53.21875 6.890625 
Q 53.71875 6.890625 54.5625 7.125 
Q 55.421875 7.375 56.984375 8.015625 
L 55.609375 0.78125 
Q 53.46875 -0.296875 51.515625 -0.859375 
Q 49.5625 -1.421875 47.703125 -1.421875 
Q 44.484375 -1.421875 42.65625 0.625 
Q 40.828125 2.6875 40.828125 6.296875 
Q 38.09375 2.390625 34.296875 0.484375 
Q 30.515625 -1.421875 25.390625 -1.421875 
Q 20.84375 -1.421875 17.453125 0.671875 
Q 14.0625 2.78125 12.984375 6.203125 
L 7.71875 -20.796875 
z
" id="DejaVuSans-Oblique-956"/>
       <path d="M 10.59375 45.40625 
L 73.1875 45.40625 
L 73.1875 37.203125 
L 10.59375 37.203125 
z
M 10.59375 25.484375 
L 73.1875 25.484375 
L 73.1875 17.1875 
L 10.59375 17.1875 
z
" id="DejaVuSans-61"/>
       <path d="M 10.6875 12.40625 
L 21 12.40625 
L 21 0 
L 10.6875 0 
z
" id="DejaVuSans-46"/>
       <path d="M 11.71875 12.40625 
L 22.015625 12.40625 
L 22.015625 4 
L 14.015625 -11.625 
L 7.71875 -11.625 
L 11.71875 4 
z
" id="DejaVuSans-44"/>
       <path d="M 34.671875 47.5625 
Q 27.25 47.5625 22.21875 42.1875 
Q 16.890625 36.578125 15.140625 27.296875 
Q 13.1875 17.484375 16.3125 11.8125 
Q 19.390625 6.203125 26.65625 6.203125 
Q 33.84375 6.203125 39.109375 11.859375 
Q 44.4375 17.53125 46.34375 27.296875 
Q 48.046875 36.234375 45.015625 42.1875 
Q 42.1875 47.5625 34.671875 47.5625 
z
M 36.078125 54.734375 
L 65.921875 54.6875 
L 64.15625 45.703125 
L 54.109375 45.703125 
Q 57.90625 38.09375 55.859375 27.296875 
Q 53.21875 13.875 45.0625 6.25 
Q 36.859375 -1.421875 25.140625 -1.421875 
Q 13.375 -1.421875 8.203125 6.25 
Q 3.03125 13.875 5.671875 27.296875 
Q 8.25 40.765625 16.40625 48.390625 
Q 23.1875 54.734375 36.078125 54.734375 
z
" id="DejaVuSans-Oblique-963"/>
       <path d="M 8.015625 75.875 
L 15.828125 75.875 
Q 23.140625 64.359375 26.78125 53.3125 
Q 30.421875 42.28125 30.421875 31.390625 
Q 30.421875 20.453125 26.78125 9.375 
Q 23.140625 -1.703125 15.828125 -13.1875 
L 8.015625 -13.1875 
Q 14.5 -2 17.703125 9.0625 
Q 20.90625 20.125 20.90625 31.390625 
Q 20.90625 42.671875 17.703125 53.65625 
Q 14.5 64.65625 8.015625 75.875 
z
" id="DejaVuSans-41"/>
      </defs>
      <use transform="translate(0 0.125)" xlink:href="#DejaVuSans-Oblique-964"/>
      <use transform="translate(60.205078 -16.28125)scale(0.7)" xlink:href="#DejaVuSans-48"/>
      <use transform="translate(204.887695 0.125)" xlink:href="#DejaVuSans-40"/>
      <use transform="translate(243.901367 0.125)" xlink:href="#DejaVuSans-Oblique-956"/>
      <use transform="translate(327.006836 0.125)" xlink:href="#DejaVuSans-61"/>
      <use transform="translate(430.27832 0.125)" xlink:href="#DejaVuSans-49"/>
      <use transform="translate(493.901367 0.125)" xlink:href="#DejaVuSans-50"/>
      <use transform="translate(557.524414 0.125)" xlink:href="#DejaVuSans-52"/>
      <use transform="translate(621.147461 0.125)" xlink:href="#DejaVuSans-46"/>
      <use transform="translate(652.93457 0.125)" xlink:href="#DejaVuSans-49"/>
      <use transform="translate(716.557617 0.125)" xlink:href="#DejaVuSans-50"/>
      <use transform="translate(780.180664 0.125)" xlink:href="#DejaVuSans-44"/>
      <use transform="translate(831.450195 0.125)" xlink:href="#DejaVuSans-Oblique-963"/>
      <use transform="translate(914.311523 0.125)" xlink:href="#DejaVuSans-61"/>
      <use transform="translate(1017.583008 0.125)" xlink:href="#DejaVuSans-50"/>
      <use transform="translate(1081.206055 0.125)" xlink:href="#DejaVuSans-52"/>
      <use transform="translate(1144.829102 0.125)" xlink:href="#DejaVuSans-46"/>
      <use transform="translate(1176.616211 0.125)" xlink:href="#DejaVuSans-51"/>
      <use transform="translate(1240.239258 0.125)" xlink:href="#DejaVuSans-49"/>
      <use transform="translate(1303.862305 0.125)" xlink:href="#DejaVuSans-41"/>
     </g>
    </g>
   </g>
  </g>
 </g>
 <defs>
  <clipPath id="p744700d165">
   <rect height="443.52" width="446.4" x="40.603125" y="22.318125"/>
  </clipPath>
 </defs>
</svg>
