<?xml version="1.0" encoding="utf-8" standalone="no"?>
<!DOCTYPE svg PUBLIC "-//W3C//DTD SVG 1.1//EN"
  "http://www.w3.org/Graphics/SVG/1.1/DTD/svg11.dtd">
<!-- Created with matplotlib (https://matplotlib.org/) -->
<svg height="614.274375pt" version="1.1" viewBox="0 0 1171.615125 614.274375" width="1171.615125pt" xmlns="http://www.w3.org/2000/svg" xmlns:xlink="http://www.w3.org/1999/xlink">
 <metadata>
  <rdf:RDF xmlns:cc="http://creativecommons.org/ns#" xmlns:dc="http://purl.org/dc/elements/1.1/" xmlns:rdf="http://www.w3.org/1999/02/22-rdf-syntax-ns#">
   <cc:Work>
    <dc:type rdf:resource="http://purl.org/dc/dcmitype/StillImage"/>
    <dc:date>2022-12-07T16:00:40.726868</dc:date>
    <dc:format>image/svg+xml</dc:format>
    <dc:creator>
     <cc:Agent>
      <dc:title>Matplotlib v3.3.4, https://matplotlib.org/</dc:title>
     </cc:Agent>
    </dc:creator>
   </cc:Work>
  </rdf:RDF>
 </metadata>
 <defs>
  <style type="text/css">*{stroke-linecap:butt;stroke-linejoin:round;}</style>
 </defs>
 <g id="figure_1">
  <g id="patch_1">
   <path d="M 0 614.274375 
L 1171.615125 614.274375 
L 1171.615125 0 
L 0 0 
z
" style="fill:#ffffff;"/>
  </g>
  <g id="axes_1">
   <g id="patch_2">
    <path d="M 40.603125 576.718125 
L 1100.803125 576.718125 
L 1100.803125 22.318125 
L 40.603125 22.318125 
z
" style="fill:#ffffff;"/>
   </g>
   <g id="patch_3">
    <path clip-path="url(#p10f923499b)" d="M 88.794034 576.718125 
L 91.528701 576.718125 
L 91.528701 251.94693 
L 88.794034 251.94693 
z
" style="fill:#1f77b4;"/>
   </g>
   <g id="patch_4">
    <path clip-path="url(#p10f923499b)" d="M 119.179223 576.718125 
L 121.91389 576.718125 
L 121.91389 222.187384 
L 119.179223 222.187384 
z
" style="fill:#1f77b4;"/>
   </g>
   <g id="patch_5">
    <path clip-path="url(#p10f923499b)" d="M 149.564411 576.718125 
L 152.299078 576.718125 
L 152.299078 178.274709 
L 149.564411 178.274709 
z
" style="fill:#1f77b4;"/>
   </g>
   <g id="patch_6">
    <path clip-path="url(#p10f923499b)" d="M 179.9496 576.718125 
L 182.684267 576.718125 
L 182.684267 163.192159 
L 179.9496 163.192159 
z
" style="fill:#1f77b4;"/>
   </g>
   <g id="patch_7">
    <path clip-path="url(#p10f923499b)" d="M 210.334788 576.718125 
L 213.069455 576.718125 
L 213.069455 120.071977 
L 210.334788 120.071977 
z
" style="fill:#1f77b4;"/>
   </g>
   <g id="patch_8">
    <path clip-path="url(#p10f923499b)" d="M 240.719977 576.718125 
L 243.454644 576.718125 
L 243.454644 161.459279 
L 240.719977 161.459279 
z
" style="fill:#1f77b4;"/>
   </g>
   <g id="patch_9">
    <path clip-path="url(#p10f923499b)" d="M 271.105166 576.718125 
L 273.839833 576.718125 
L 273.839833 175.960281 
L 271.105166 175.960281 
z
" style="fill:#1f77b4;"/>
   </g>
   <g id="patch_10">
    <path clip-path="url(#p10f923499b)" d="M 301.490354 576.718125 
L 304.225021 576.718125 
L 304.225021 142.409567 
L 301.490354 142.409567 
z
" style="fill:#1f77b4;"/>
   </g>
   <g id="patch_11">
    <path clip-path="url(#p10f923499b)" d="M 331.875543 576.718125 
L 334.61021 576.718125 
L 334.61021 161.770518 
L 331.875543 161.770518 
z
" style="fill:#1f77b4;"/>
   </g>
   <g id="patch_12">
    <path clip-path="url(#p10f923499b)" d="M 362.260731 576.718125 
L 364.995398 576.718125 
L 364.995398 201.182909 
L 362.260731 201.182909 
z
" style="fill:#1f77b4;"/>
   </g>
   <g id="patch_13">
    <path clip-path="url(#p10f923499b)" d="M 392.64592 576.718125 
L 395.380587 576.718125 
L 395.380587 225.44442 
L 392.64592 225.44442 
z
" style="fill:#1f77b4;"/>
   </g>
   <g id="patch_14">
    <path clip-path="url(#p10f923499b)" d="M 423.031108 576.718125 
L 425.765775 576.718125 
L 425.765775 190.683943 
L 423.031108 190.683943 
z
" style="fill:#1f77b4;"/>
   </g>
   <g id="patch_15">
    <path clip-path="url(#p10f923499b)" d="M 453.416297 576.718125 
L 456.150964 576.718125 
L 456.150964 223.509089 
L 453.416297 223.509089 
z
" style="fill:#1f77b4;"/>
   </g>
   <g id="patch_16">
    <path clip-path="url(#p10f923499b)" d="M 483.801486 576.718125 
L 486.536153 576.718125 
L 486.536153 193.259668 
L 483.801486 193.259668 
z
" style="fill:#1f77b4;"/>
   </g>
   <g id="patch_17">
    <path clip-path="url(#p10f923499b)" d="M 514.186674 576.718125 
L 516.921341 576.718125 
L 516.921341 168.5676 
L 514.186674 168.5676 
z
" style="fill:#1f77b4;"/>
   </g>
   <g id="patch_18">
    <path clip-path="url(#p10f923499b)" d="M 544.571863 576.718125 
L 547.30653 576.718125 
L 547.30653 102.993552 
L 544.571863 102.993552 
z
" style="fill:#1f77b4;"/>
   </g>
   <g id="patch_19">
    <path clip-path="url(#p10f923499b)" d="M 574.957051 576.718125 
L 577.691718 576.718125 
L 577.691718 48.718125 
L 574.957051 48.718125 
z
" style="fill:#1f77b4;"/>
   </g>
   <g id="patch_20">
    <path clip-path="url(#p10f923499b)" d="M 605.34224 576.718125 
L 608.076907 576.718125 
L 608.076907 117.496919 
L 605.34224 117.496919 
z
" style="fill:#1f77b4;"/>
   </g>
   <g id="patch_21">
    <path clip-path="url(#p10f923499b)" d="M 635.727429 576.718125 
L 638.462096 576.718125 
L 638.462096 126.858773 
L 635.727429 126.858773 
z
" style="fill:#1f77b4;"/>
   </g>
   <g id="patch_22">
    <path clip-path="url(#p10f923499b)" d="M 666.112617 576.718125 
L 668.847284 576.718125 
L 668.847284 157.387558 
L 666.112617 157.387558 
z
" style="fill:#1f77b4;"/>
   </g>
   <g id="patch_23">
    <path clip-path="url(#p10f923499b)" d="M 696.497806 576.718125 
L 699.232473 576.718125 
L 699.232473 104.079968 
L 696.497806 104.079968 
z
" style="fill:#1f77b4;"/>
   </g>
   <g id="patch_24">
    <path clip-path="url(#p10f923499b)" d="M 726.882994 576.718125 
L 729.617661 576.718125 
L 729.617661 128.814645 
L 726.882994 128.814645 
z
" style="fill:#1f77b4;"/>
   </g>
   <g id="patch_25">
    <path clip-path="url(#p10f923499b)" d="M 757.268183 576.718125 
L 760.00285 576.718125 
L 760.00285 110.546391 
L 757.268183 110.546391 
z
" style="fill:#1f77b4;"/>
   </g>
   <g id="patch_26">
    <path clip-path="url(#p10f923499b)" d="M 787.653371 576.718125 
L 790.388038 576.718125 
L 790.388038 61.921484 
L 787.653371 61.921484 
z
" style="fill:#1f77b4;"/>
   </g>
   <g id="patch_27">
    <path clip-path="url(#p10f923499b)" d="M 818.03856 576.718125 
L 820.773227 576.718125 
L 820.773227 110.822681 
L 818.03856 110.822681 
z
" style="fill:#1f77b4;"/>
   </g>
   <g id="patch_28">
    <path clip-path="url(#p10f923499b)" d="M 848.423749 576.718125 
L 851.158416 576.718125 
L 851.158416 175.759159 
L 848.423749 175.759159 
z
" style="fill:#1f77b4;"/>
   </g>
   <g id="patch_29">
    <path clip-path="url(#p10f923499b)" d="M 878.808937 576.718125 
L 881.543604 576.718125 
L 881.543604 160.936755 
L 878.808937 160.936755 
z
" style="fill:#1f77b4;"/>
   </g>
   <g id="patch_30">
    <path clip-path="url(#p10f923499b)" d="M 909.194126 576.718125 
L 911.928793 576.718125 
L 911.928793 150.261517 
L 909.194126 150.261517 
z
" style="fill:#1f77b4;"/>
   </g>
   <g id="patch_31">
    <path clip-path="url(#p10f923499b)" d="M 939.579314 576.718125 
L 942.313981 576.718125 
L 942.313981 165.235909 
L 939.579314 165.235909 
z
" style="fill:#1f77b4;"/>
   </g>
   <g id="patch_32">
    <path clip-path="url(#p10f923499b)" d="M 969.964503 576.718125 
L 972.69917 576.718125 
L 972.69917 189.196011 
L 969.964503 189.196011 
z
" style="fill:#1f77b4;"/>
   </g>
   <g id="patch_33">
    <path clip-path="url(#p10f923499b)" d="M 1000.349692 576.718125 
L 1003.084359 576.718125 
L 1003.084359 221.9904 
L 1000.349692 221.9904 
z
" style="fill:#1f77b4;"/>
   </g>
   <g id="patch_34">
    <path clip-path="url(#p10f923499b)" d="M 1030.73488 576.718125 
L 1033.469547 576.718125 
L 1033.469547 243.501737 
L 1030.73488 243.501737 
z
" style="fill:#1f77b4;"/>
   </g>
   <g id="patch_35">
    <path clip-path="url(#p10f923499b)" d="M 91.528701 576.718125 
L 94.263368 576.718125 
L 94.263368 395.598624 
L 91.528701 395.598624 
z
" style="fill:#ff7f0e;"/>
   </g>
   <g id="patch_36">
    <path clip-path="url(#p10f923499b)" d="M 121.91389 576.718125 
L 124.648557 576.718125 
L 124.648557 374.486676 
L 121.91389 374.486676 
z
" style="fill:#ff7f0e;"/>
   </g>
   <g id="patch_37">
    <path clip-path="url(#p10f923499b)" d="M 152.299078 576.718125 
L 155.033745 576.718125 
L 155.033745 364.150354 
L 152.299078 364.150354 
z
" style="fill:#ff7f0e;"/>
   </g>
   <g id="patch_38">
    <path clip-path="url(#p10f923499b)" d="M 182.684267 576.718125 
L 185.418934 576.718125 
L 185.418934 353.385907 
L 182.684267 353.385907 
z
" style="fill:#ff7f0e;"/>
   </g>
   <g id="patch_39">
    <path clip-path="url(#p10f923499b)" d="M 213.069455 576.718125 
L 215.804122 576.718125 
L 215.804122 334.848899 
L 213.069455 334.848899 
z
" style="fill:#ff7f0e;"/>
   </g>
   <g id="patch_40">
    <path clip-path="url(#p10f923499b)" d="M 243.454644 576.718125 
L 246.189311 576.718125 
L 246.189311 347.775336 
L 243.454644 347.775336 
z
" style="fill:#ff7f0e;"/>
   </g>
   <g id="patch_41">
    <path clip-path="url(#p10f923499b)" d="M 273.839833 576.718125 
L 276.5745 576.718125 
L 276.5745 352.080441 
L 273.839833 352.080441 
z
" style="fill:#ff7f0e;"/>
   </g>
   <g id="patch_42">
    <path clip-path="url(#p10f923499b)" d="M 304.225021 576.718125 
L 306.959688 576.718125 
L 306.959688 326.490001 
L 304.225021 326.490001 
z
" style="fill:#ff7f0e;"/>
   </g>
   <g id="patch_43">
    <path clip-path="url(#p10f923499b)" d="M 334.61021 576.718125 
L 337.344877 576.718125 
L 337.344877 352.765542 
L 334.61021 352.765542 
z
" style="fill:#ff7f0e;"/>
   </g>
   <g id="patch_44">
    <path clip-path="url(#p10f923499b)" d="M 364.995398 576.718125 
L 367.730065 576.718125 
L 367.730065 365.946079 
L 364.995398 365.946079 
z
" style="fill:#ff7f0e;"/>
   </g>
   <g id="patch_45">
    <path clip-path="url(#p10f923499b)" d="M 395.380587 576.718125 
L 398.115254 576.718125 
L 398.115254 376.422785 
L 395.380587 376.422785 
z
" style="fill:#ff7f0e;"/>
   </g>
   <g id="patch_46">
    <path clip-path="url(#p10f923499b)" d="M 425.765775 576.718125 
L 428.500442 576.718125 
L 428.500442 369.122992 
L 425.765775 369.122992 
z
" style="fill:#ff7f0e;"/>
   </g>
   <g id="patch_47">
    <path clip-path="url(#p10f923499b)" d="M 456.150964 576.718125 
L 458.885631 576.718125 
L 458.885631 380.238054 
L 456.150964 380.238054 
z
" style="fill:#ff7f0e;"/>
   </g>
   <g id="patch_48">
    <path clip-path="url(#p10f923499b)" d="M 486.536153 576.718125 
L 489.27082 576.718125 
L 489.27082 370.596271 
L 486.536153 370.596271 
z
" style="fill:#ff7f0e;"/>
   </g>
   <g id="patch_49">
    <path clip-path="url(#p10f923499b)" d="M 516.921341 576.718125 
L 519.656008 576.718125 
L 519.656008 358.502759 
L 516.921341 358.502759 
z
" style="fill:#ff7f0e;"/>
   </g>
   <g id="patch_50">
    <path clip-path="url(#p10f923499b)" d="M 547.30653 576.718125 
L 550.041197 576.718125 
L 550.041197 307.089396 
L 547.30653 307.089396 
z
" style="fill:#ff7f0e;"/>
   </g>
   <g id="patch_51">
    <path clip-path="url(#p10f923499b)" d="M 577.691718 576.718125 
L 580.426385 576.718125 
L 580.426385 112.077726 
L 577.691718 112.077726 
z
" style="fill:#ff7f0e;"/>
   </g>
   <g id="patch_52">
    <path clip-path="url(#p10f923499b)" d="M 608.076907 576.718125 
L 610.811574 576.718125 
L 610.811574 320.223415 
L 608.076907 320.223415 
z
" style="fill:#ff7f0e;"/>
   </g>
   <g id="patch_53">
    <path clip-path="url(#p10f923499b)" d="M 638.462096 576.718125 
L 641.196763 576.718125 
L 641.196763 323.934552 
L 638.462096 323.934552 
z
" style="fill:#ff7f0e;"/>
   </g>
   <g id="patch_54">
    <path clip-path="url(#p10f923499b)" d="M 668.847284 576.718125 
L 671.581951 576.718125 
L 671.581951 332.794774 
L 668.847284 332.794774 
z
" style="fill:#ff7f0e;"/>
   </g>
   <g id="patch_55">
    <path clip-path="url(#p10f923499b)" d="M 699.232473 576.718125 
L 701.96714 576.718125 
L 701.96714 313.919962 
L 699.232473 313.919962 
z
" style="fill:#ff7f0e;"/>
   </g>
   <g id="patch_56">
    <path clip-path="url(#p10f923499b)" d="M 729.617661 576.718125 
L 732.352328 576.718125 
L 732.352328 305.110447 
L 729.617661 305.110447 
z
" style="fill:#ff7f0e;"/>
   </g>
   <g id="patch_57">
    <path clip-path="url(#p10f923499b)" d="M 760.00285 576.718125 
L 762.737517 576.718125 
L 762.737517 304.47103 
L 760.00285 304.47103 
z
" style="fill:#ff7f0e;"/>
   </g>
   <g id="patch_58">
    <path clip-path="url(#p10f923499b)" d="M 790.388038 576.718125 
L 793.122705 576.718125 
L 793.122705 185.388962 
L 790.388038 185.388962 
z
" style="fill:#ff7f0e;"/>
   </g>
   <g id="patch_59">
    <path clip-path="url(#p10f923499b)" d="M 820.773227 576.718125 
L 823.507894 576.718125 
L 823.507894 300.939587 
L 820.773227 300.939587 
z
" style="fill:#ff7f0e;"/>
   </g>
   <g id="patch_60">
    <path clip-path="url(#p10f923499b)" d="M 851.158416 576.718125 
L 853.893083 576.718125 
L 853.893083 346.601712 
L 851.158416 346.601712 
z
" style="fill:#ff7f0e;"/>
   </g>
   <g id="patch_61">
    <path clip-path="url(#p10f923499b)" d="M 881.543604 576.718125 
L 884.278271 576.718125 
L 884.278271 354.770584 
L 881.543604 354.770584 
z
" style="fill:#ff7f0e;"/>
   </g>
   <g id="patch_62">
    <path clip-path="url(#p10f923499b)" d="M 911.928793 576.718125 
L 914.66346 576.718125 
L 914.66346 348.65483 
L 911.928793 348.65483 
z
" style="fill:#ff7f0e;"/>
   </g>
   <g id="patch_63">
    <path clip-path="url(#p10f923499b)" d="M 942.313981 576.718125 
L 945.048648 576.718125 
L 945.048648 357.657884 
L 942.313981 357.657884 
z
" style="fill:#ff7f0e;"/>
   </g>
   <g id="patch_64">
    <path clip-path="url(#p10f923499b)" d="M 972.69917 576.718125 
L 975.433837 576.718125 
L 975.433837 368.668646 
L 972.69917 368.668646 
z
" style="fill:#ff7f0e;"/>
   </g>
   <g id="patch_65">
    <path clip-path="url(#p10f923499b)" d="M 1003.084359 576.718125 
L 1005.819025 576.718125 
L 1005.819025 385.969319 
L 1003.084359 385.969319 
z
" style="fill:#ff7f0e;"/>
   </g>
   <g id="patch_66">
    <path clip-path="url(#p10f923499b)" d="M 1033.469547 576.718125 
L 1036.204214 576.718125 
L 1036.204214 375.388211 
L 1033.469547 375.388211 
z
" style="fill:#ff7f0e;"/>
   </g>
   <g id="patch_67">
    <path clip-path="url(#p10f923499b)" d="M 94.263368 576.718125 
L 96.998035 576.718125 
L 96.998035 446.179091 
L 94.263368 446.179091 
z
" style="fill:#2ca02c;"/>
   </g>
   <g id="patch_68">
    <path clip-path="url(#p10f923499b)" d="M 124.648557 576.718125 
L 127.383224 576.718125 
L 127.383224 434.655338 
L 124.648557 434.655338 
z
" style="fill:#2ca02c;"/>
   </g>
   <g id="patch_69">
    <path clip-path="url(#p10f923499b)" d="M 155.033745 576.718125 
L 157.768412 576.718125 
L 157.768412 435.187524 
L 155.033745 435.187524 
z
" style="fill:#2ca02c;"/>
   </g>
   <g id="patch_70">
    <path clip-path="url(#p10f923499b)" d="M 185.418934 576.718125 
L 188.153601 576.718125 
L 188.153601 427.800201 
L 185.418934 427.800201 
z
" style="fill:#2ca02c;"/>
   </g>
   <g id="patch_71">
    <path clip-path="url(#p10f923499b)" d="M 215.804122 576.718125 
L 218.538789 576.718125 
L 218.538789 409.219777 
L 215.804122 409.219777 
z
" style="fill:#2ca02c;"/>
   </g>
   <g id="patch_72">
    <path clip-path="url(#p10f923499b)" d="M 246.189311 576.718125 
L 248.923978 576.718125 
L 248.923978 427.58323 
L 246.189311 427.58323 
z
" style="fill:#2ca02c;"/>
   </g>
   <g id="patch_73">
    <path clip-path="url(#p10f923499b)" d="M 276.5745 576.718125 
L 279.309166 576.718125 
L 279.309166 417.861846 
L 276.5745 417.861846 
z
" style="fill:#2ca02c;"/>
   </g>
   <g id="patch_74">
    <path clip-path="url(#p10f923499b)" d="M 306.959688 576.718125 
L 309.694355 576.718125 
L 309.694355 403.396327 
L 306.959688 403.396327 
z
" style="fill:#2ca02c;"/>
   </g>
   <g id="patch_75">
    <path clip-path="url(#p10f923499b)" d="M 337.344877 576.718125 
L 340.079544 576.718125 
L 340.079544 424.000106 
L 337.344877 424.000106 
z
" style="fill:#2ca02c;"/>
   </g>
   <g id="patch_76">
    <path clip-path="url(#p10f923499b)" d="M 367.730065 576.718125 
L 370.464732 576.718125 
L 370.464732 427.631756 
L 367.730065 427.631756 
z
" style="fill:#2ca02c;"/>
   </g>
   <g id="patch_77">
    <path clip-path="url(#p10f923499b)" d="M 398.115254 576.718125 
L 400.849921 576.718125 
L 400.849921 441.883659 
L 398.115254 441.883659 
z
" style="fill:#2ca02c;"/>
   </g>
   <g id="patch_78">
    <path clip-path="url(#p10f923499b)" d="M 428.500442 576.718125 
L 431.235109 576.718125 
L 431.235109 432.438944 
L 428.500442 432.438944 
z
" style="fill:#2ca02c;"/>
   </g>
   <g id="patch_79">
    <path clip-path="url(#p10f923499b)" d="M 458.885631 576.718125 
L 461.620298 576.718125 
L 461.620298 441.125703 
L 458.885631 441.125703 
z
" style="fill:#2ca02c;"/>
   </g>
   <g id="patch_80">
    <path clip-path="url(#p10f923499b)" d="M 489.27082 576.718125 
L 492.005487 576.718125 
L 492.005487 429.015455 
L 489.27082 429.015455 
z
" style="fill:#2ca02c;"/>
   </g>
   <g id="patch_81">
    <path clip-path="url(#p10f923499b)" d="M 519.656008 576.718125 
L 522.390675 576.718125 
L 522.390675 424.93925 
L 519.656008 424.93925 
z
" style="fill:#2ca02c;"/>
   </g>
   <g id="patch_82">
    <path clip-path="url(#p10f923499b)" d="M 550.041197 576.718125 
L 552.775864 576.718125 
L 552.775864 382.459615 
L 550.041197 382.459615 
z
" style="fill:#2ca02c;"/>
   </g>
   <g id="patch_83">
    <path clip-path="url(#p10f923499b)" d="M 580.426385 576.718125 
L 583.161052 576.718125 
L 583.161052 372.237136 
L 580.426385 372.237136 
z
" style="fill:#2ca02c;"/>
   </g>
   <g id="patch_84">
    <path clip-path="url(#p10f923499b)" d="M 610.811574 576.718125 
L 613.546241 576.718125 
L 613.546241 400.980475 
L 610.811574 400.980475 
z
" style="fill:#2ca02c;"/>
   </g>
   <g id="patch_85">
    <path clip-path="url(#p10f923499b)" d="M 641.196763 576.718125 
L 643.931429 576.718125 
L 643.931429 402.596643 
L 641.196763 402.596643 
z
" style="fill:#2ca02c;"/>
   </g>
   <g id="patch_86">
    <path clip-path="url(#p10f923499b)" d="M 671.581951 576.718125 
L 674.316618 576.718125 
L 674.316618 402.422591 
L 671.581951 402.422591 
z
" style="fill:#2ca02c;"/>
   </g>
   <g id="patch_87">
    <path clip-path="url(#p10f923499b)" d="M 701.96714 576.718125 
L 704.701807 576.718125 
L 704.701807 396.782925 
L 701.96714 396.782925 
z
" style="fill:#2ca02c;"/>
   </g>
   <g id="patch_88">
    <path clip-path="url(#p10f923499b)" d="M 732.352328 576.718125 
L 735.086995 576.718125 
L 735.086995 383.741563 
L 732.352328 383.741563 
z
" style="fill:#2ca02c;"/>
   </g>
   <g id="patch_89">
    <path clip-path="url(#p10f923499b)" d="M 762.737517 576.718125 
L 765.472184 576.718125 
L 765.472184 381.244808 
L 762.737517 381.244808 
z
" style="fill:#2ca02c;"/>
   </g>
   <g id="patch_90">
    <path clip-path="url(#p10f923499b)" d="M 793.122705 576.718125 
L 795.857372 576.718125 
L 795.857372 368.197419 
L 793.122705 368.197419 
z
" style="fill:#2ca02c;"/>
   </g>
   <g id="patch_91">
    <path clip-path="url(#p10f923499b)" d="M 823.507894 576.718125 
L 826.242561 576.718125 
L 826.242561 383.687339 
L 823.507894 383.687339 
z
" style="fill:#2ca02c;"/>
   </g>
   <g id="patch_92">
    <path clip-path="url(#p10f923499b)" d="M 853.893083 576.718125 
L 856.62775 576.718125 
L 856.62775 411.43159 
L 853.893083 411.43159 
z
" style="fill:#2ca02c;"/>
   </g>
   <g id="patch_93">
    <path clip-path="url(#p10f923499b)" d="M 884.278271 576.718125 
L 887.012938 576.718125 
L 887.012938 429.000511 
L 884.278271 429.000511 
z
" style="fill:#2ca02c;"/>
   </g>
   <g id="patch_94">
    <path clip-path="url(#p10f923499b)" d="M 914.66346 576.718125 
L 917.398127 576.718125 
L 917.398127 431.258786 
L 914.66346 431.258786 
z
" style="fill:#2ca02c;"/>
   </g>
   <g id="patch_95">
    <path clip-path="url(#p10f923499b)" d="M 945.048648 576.718125 
L 947.783315 576.718125 
L 947.783315 431.263156 
L 945.048648 431.263156 
z
" style="fill:#2ca02c;"/>
   </g>
   <g id="patch_96">
    <path clip-path="url(#p10f923499b)" d="M 975.433837 576.718125 
L 978.168504 576.718125 
L 978.168504 439.938713 
L 975.433837 439.938713 
z
" style="fill:#2ca02c;"/>
   </g>
   <g id="patch_97">
    <path clip-path="url(#p10f923499b)" d="M 1005.819025 576.718125 
L 1008.553692 576.718125 
L 1008.553692 442.539372 
L 1005.819025 442.539372 
z
" style="fill:#2ca02c;"/>
   </g>
   <g id="patch_98">
    <path clip-path="url(#p10f923499b)" d="M 1036.204214 576.718125 
L 1038.938881 576.718125 
L 1038.938881 425.571408 
L 1036.204214 425.571408 
z
" style="fill:#2ca02c;"/>
   </g>
   <g id="patch_99">
    <path clip-path="url(#p10f923499b)" d="M 96.998035 576.718125 
L 99.732702 576.718125 
L 99.732702 479.847139 
L 96.998035 479.847139 
z
" style="fill:#d62728;"/>
   </g>
   <g id="patch_100">
    <path clip-path="url(#p10f923499b)" d="M 127.383224 576.718125 
L 130.117891 576.718125 
L 130.117891 467.487661 
L 127.383224 467.487661 
z
" style="fill:#d62728;"/>
   </g>
   <g id="patch_101">
    <path clip-path="url(#p10f923499b)" d="M 157.768412 576.718125 
L 160.503079 576.718125 
L 160.503079 468.089 
L 157.768412 468.089 
z
" style="fill:#d62728;"/>
   </g>
   <g id="patch_102">
    <path clip-path="url(#p10f923499b)" d="M 188.153601 576.718125 
L 190.888268 576.718125 
L 190.888268 461.997341 
L 188.153601 461.997341 
z
" style="fill:#d62728;"/>
   </g>
   <g id="patch_103">
    <path clip-path="url(#p10f923499b)" d="M 218.538789 576.718125 
L 221.273456 576.718125 
L 221.273456 451.20314 
L 218.538789 451.20314 
z
" style="fill:#d62728;"/>
   </g>
   <g id="patch_104">
    <path clip-path="url(#p10f923499b)" d="M 248.923978 576.718125 
L 251.658645 576.718125 
L 251.658645 459.409117 
L 248.923978 459.409117 
z
" style="fill:#d62728;"/>
   </g>
   <g id="patch_105">
    <path clip-path="url(#p10f923499b)" d="M 279.309166 576.718125 
L 282.043833 576.718125 
L 282.043833 454.975739 
L 279.309166 454.975739 
z
" style="fill:#d62728;"/>
   </g>
   <g id="patch_106">
    <path clip-path="url(#p10f923499b)" d="M 309.694355 576.718125 
L 312.429022 576.718125 
L 312.429022 449.576721 
L 309.694355 449.576721 
z
" style="fill:#d62728;"/>
   </g>
   <g id="patch_107">
    <path clip-path="url(#p10f923499b)" d="M 340.079544 576.718125 
L 342.814211 576.718125 
L 342.814211 460.296373 
L 340.079544 460.296373 
z
" style="fill:#d62728;"/>
   </g>
   <g id="patch_108">
    <path clip-path="url(#p10f923499b)" d="M 370.464732 576.718125 
L 373.199399 576.718125 
L 373.199399 464.495234 
L 370.464732 464.495234 
z
" style="fill:#d62728;"/>
   </g>
   <g id="patch_109">
    <path clip-path="url(#p10f923499b)" d="M 400.849921 576.718125 
L 403.584588 576.718125 
L 403.584588 471.508128 
L 400.849921 471.508128 
z
" style="fill:#d62728;"/>
   </g>
   <g id="patch_110">
    <path clip-path="url(#p10f923499b)" d="M 431.235109 576.718125 
L 433.969776 576.718125 
L 433.969776 466.794197 
L 431.235109 466.794197 
z
" style="fill:#d62728;"/>
   </g>
   <g id="patch_111">
    <path clip-path="url(#p10f923499b)" d="M 461.620298 576.718125 
L 464.354965 576.718125 
L 464.354965 469.034977 
L 461.620298 469.034977 
z
" style="fill:#d62728;"/>
   </g>
   <g id="patch_112">
    <path clip-path="url(#p10f923499b)" d="M 492.005487 576.718125 
L 494.740154 576.718125 
L 494.740154 458.715535 
L 492.005487 458.715535 
z
" style="fill:#d62728;"/>
   </g>
   <g id="patch_113">
    <path clip-path="url(#p10f923499b)" d="M 522.390675 576.718125 
L 525.125342 576.718125 
L 525.125342 460.782141 
L 522.390675 460.782141 
z
" style="fill:#d62728;"/>
   </g>
   <g id="patch_114">
    <path clip-path="url(#p10f923499b)" d="M 552.775864 576.718125 
L 555.510531 576.718125 
L 555.510531 427.740349 
L 552.775864 427.740349 
z
" style="fill:#d62728;"/>
   </g>
   <g id="patch_115">
    <path clip-path="url(#p10f923499b)" d="M 583.161052 576.718125 
L 585.895719 576.718125 
L 585.895719 419.464917 
L 583.161052 419.464917 
z
" style="fill:#d62728;"/>
   </g>
   <g id="patch_116">
    <path clip-path="url(#p10f923499b)" d="M 613.546241 576.718125 
L 616.280908 576.718125 
L 616.280908 440.42533 
L 613.546241 440.42533 
z
" style="fill:#d62728;"/>
   </g>
   <g id="patch_117">
    <path clip-path="url(#p10f923499b)" d="M 643.931429 576.718125 
L 646.666096 576.718125 
L 646.666096 441.045566 
L 643.931429 441.045566 
z
" style="fill:#d62728;"/>
   </g>
   <g id="patch_118">
    <path clip-path="url(#p10f923499b)" d="M 674.316618 576.718125 
L 677.051285 576.718125 
L 677.051285 444.075408 
L 674.316618 444.075408 
z
" style="fill:#d62728;"/>
   </g>
   <g id="patch_119">
    <path clip-path="url(#p10f923499b)" d="M 704.701807 576.718125 
L 707.436474 576.718125 
L 707.436474 435.195087 
L 704.701807 435.195087 
z
" style="fill:#d62728;"/>
   </g>
   <g id="patch_120">
    <path clip-path="url(#p10f923499b)" d="M 735.086995 576.718125 
L 737.821662 576.718125 
L 737.821662 429.606964 
L 735.086995 429.606964 
z
" style="fill:#d62728;"/>
   </g>
   <g id="patch_121">
    <path clip-path="url(#p10f923499b)" d="M 765.472184 576.718125 
L 768.206851 576.718125 
L 768.206851 426.403592 
L 765.472184 426.403592 
z
" style="fill:#d62728;"/>
   </g>
   <g id="patch_122">
    <path clip-path="url(#p10f923499b)" d="M 795.857372 576.718125 
L 798.592039 576.718125 
L 798.592039 414.443535 
L 795.857372 414.443535 
z
" style="fill:#d62728;"/>
   </g>
   <g id="patch_123">
    <path clip-path="url(#p10f923499b)" d="M 826.242561 576.718125 
L 828.977228 576.718125 
L 828.977228 433.412286 
L 826.242561 433.412286 
z
" style="fill:#d62728;"/>
   </g>
   <g id="patch_124">
    <path clip-path="url(#p10f923499b)" d="M 856.62775 576.718125 
L 859.362417 576.718125 
L 859.362417 454.508472 
L 856.62775 454.508472 
z
" style="fill:#d62728;"/>
   </g>
   <g id="patch_125">
    <path clip-path="url(#p10f923499b)" d="M 887.012938 576.718125 
L 889.747605 576.718125 
L 889.747605 467.794408 
L 887.012938 467.794408 
z
" style="fill:#d62728;"/>
   </g>
   <g id="patch_126">
    <path clip-path="url(#p10f923499b)" d="M 917.398127 576.718125 
L 920.132794 576.718125 
L 920.132794 462.563585 
L 917.398127 462.563585 
z
" style="fill:#d62728;"/>
   </g>
   <g id="patch_127">
    <path clip-path="url(#p10f923499b)" d="M 947.783315 576.718125 
L 950.517982 576.718125 
L 950.517982 468.562825 
L 947.783315 468.562825 
z
" style="fill:#d62728;"/>
   </g>
   <g id="patch_128">
    <path clip-path="url(#p10f923499b)" d="M 978.168504 576.718125 
L 980.903171 576.718125 
L 980.903171 471.14078 
L 978.168504 471.14078 
z
" style="fill:#d62728;"/>
   </g>
   <g id="patch_129">
    <path clip-path="url(#p10f923499b)" d="M 1008.553692 576.718125 
L 1011.288359 576.718125 
L 1011.288359 471.126715 
L 1008.553692 471.126715 
z
" style="fill:#d62728;"/>
   </g>
   <g id="patch_130">
    <path clip-path="url(#p10f923499b)" d="M 1038.938881 576.718125 
L 1041.673548 576.718125 
L 1041.673548 461.414263 
L 1038.938881 461.414263 
z
" style="fill:#d62728;"/>
   </g>
   <g id="patch_131">
    <path clip-path="url(#p10f923499b)" d="M 99.732702 576.718125 
L 102.467369 576.718125 
L 102.467369 489.429924 
L 99.732702 489.429924 
z
" style="fill:#9467bd;"/>
   </g>
   <g id="patch_132">
    <path clip-path="url(#p10f923499b)" d="M 130.117891 576.718125 
L 132.852558 576.718125 
L 132.852558 479.833798 
L 130.117891 479.833798 
z
" style="fill:#9467bd;"/>
   </g>
   <g id="patch_133">
    <path clip-path="url(#p10f923499b)" d="M 160.503079 576.718125 
L 163.237746 576.718125 
L 163.237746 483.101079 
L 160.503079 483.101079 
z
" style="fill:#9467bd;"/>
   </g>
   <g id="patch_134">
    <path clip-path="url(#p10f923499b)" d="M 190.888268 576.718125 
L 193.622935 576.718125 
L 193.622935 475.020408 
L 190.888268 475.020408 
z
" style="fill:#9467bd;"/>
   </g>
   <g id="patch_135">
    <path clip-path="url(#p10f923499b)" d="M 221.273456 576.718125 
L 224.008123 576.718125 
L 224.008123 463.142346 
L 221.273456 463.142346 
z
" style="fill:#9467bd;"/>
   </g>
   <g id="patch_136">
    <path clip-path="url(#p10f923499b)" d="M 251.658645 576.718125 
L 254.393312 576.718125 
L 254.393312 478.749782 
L 251.658645 478.749782 
z
" style="fill:#9467bd;"/>
   </g>
   <g id="patch_137">
    <path clip-path="url(#p10f923499b)" d="M 282.043833 576.718125 
L 284.7785 576.718125 
L 284.7785 468.373249 
L 282.043833 468.373249 
z
" style="fill:#9467bd;"/>
   </g>
   <g id="patch_138">
    <path clip-path="url(#p10f923499b)" d="M 312.429022 576.718125 
L 315.163689 576.718125 
L 315.163689 462.865131 
L 312.429022 462.865131 
z
" style="fill:#9467bd;"/>
   </g>
   <g id="patch_139">
    <path clip-path="url(#p10f923499b)" d="M 342.814211 576.718125 
L 345.548878 576.718125 
L 345.548878 472.521593 
L 342.814211 472.521593 
z
" style="fill:#9467bd;"/>
   </g>
   <g id="patch_140">
    <path clip-path="url(#p10f923499b)" d="M 373.199399 576.718125 
L 375.934066 576.718125 
L 375.934066 477.03428 
L 373.199399 477.03428 
z
" style="fill:#9467bd;"/>
   </g>
   <g id="patch_141">
    <path clip-path="url(#p10f923499b)" d="M 403.584588 576.718125 
L 406.319255 576.718125 
L 406.319255 483.366241 
L 403.584588 483.366241 
z
" style="fill:#9467bd;"/>
   </g>
   <g id="patch_142">
    <path clip-path="url(#p10f923499b)" d="M 433.969776 576.718125 
L 436.704443 576.718125 
L 436.704443 483.293303 
L 433.969776 483.293303 
z
" style="fill:#9467bd;"/>
   </g>
   <g id="patch_143">
    <path clip-path="url(#p10f923499b)" d="M 464.354965 576.718125 
L 467.089632 576.718125 
L 467.089632 475.836859 
L 464.354965 475.836859 
z
" style="fill:#9467bd;"/>
   </g>
   <g id="patch_144">
    <path clip-path="url(#p10f923499b)" d="M 494.740154 576.718125 
L 497.474821 576.718125 
L 497.474821 470.976856 
L 494.740154 470.976856 
z
" style="fill:#9467bd;"/>
   </g>
   <g id="patch_145">
    <path clip-path="url(#p10f923499b)" d="M 525.125342 576.718125 
L 527.860009 576.718125 
L 527.860009 476.753237 
L 525.125342 476.753237 
z
" style="fill:#9467bd;"/>
   </g>
   <g id="patch_146">
    <path clip-path="url(#p10f923499b)" d="M 555.510531 576.718125 
L 558.245198 576.718125 
L 558.245198 451.719398 
L 555.510531 451.719398 
z
" style="fill:#9467bd;"/>
   </g>
   <g id="patch_147">
    <path clip-path="url(#p10f923499b)" d="M 585.895719 576.718125 
L 588.630386 576.718125 
L 588.630386 283.328842 
L 585.895719 283.328842 
z
" style="fill:#9467bd;"/>
   </g>
   <g id="patch_148">
    <path clip-path="url(#p10f923499b)" d="M 616.280908 576.718125 
L 619.015575 576.718125 
L 619.015575 457.269026 
L 616.280908 457.269026 
z
" style="fill:#9467bd;"/>
   </g>
   <g id="patch_149">
    <path clip-path="url(#p10f923499b)" d="M 646.666096 576.718125 
L 649.400763 576.718125 
L 649.400763 461.665396 
L 646.666096 461.665396 
z
" style="fill:#9467bd;"/>
   </g>
   <g id="patch_150">
    <path clip-path="url(#p10f923499b)" d="M 677.051285 576.718125 
L 679.785952 576.718125 
L 679.785952 465.839229 
L 677.051285 465.839229 
z
" style="fill:#9467bd;"/>
   </g>
   <g id="patch_151">
    <path clip-path="url(#p10f923499b)" d="M 707.436474 576.718125 
L 710.171141 576.718125 
L 710.171141 457.341957 
L 707.436474 457.341957 
z
" style="fill:#9467bd;"/>
   </g>
   <g id="patch_152">
    <path clip-path="url(#p10f923499b)" d="M 737.821662 576.718125 
L 740.556329 576.718125 
L 740.556329 456.683589 
L 737.821662 456.683589 
z
" style="fill:#9467bd;"/>
   </g>
   <g id="patch_153">
    <path clip-path="url(#p10f923499b)" d="M 768.206851 576.718125 
L 770.941518 576.718125 
L 770.941518 452.663643 
L 768.206851 452.663643 
z
" style="fill:#9467bd;"/>
   </g>
   <g id="patch_154">
    <path clip-path="url(#p10f923499b)" d="M 798.592039 576.718125 
L 801.326706 576.718125 
L 801.326706 444.3007 
L 798.592039 444.3007 
z
" style="fill:#9467bd;"/>
   </g>
   <g id="patch_155">
    <path clip-path="url(#p10f923499b)" d="M 828.977228 576.718125 
L 831.711895 576.718125 
L 831.711895 456.139383 
L 828.977228 456.139383 
z
" style="fill:#9467bd;"/>
   </g>
   <g id="patch_156">
    <path clip-path="url(#p10f923499b)" d="M 859.362417 576.718125 
L 862.097084 576.718125 
L 862.097084 468.464856 
L 859.362417 468.464856 
z
" style="fill:#9467bd;"/>
   </g>
   <g id="patch_157">
    <path clip-path="url(#p10f923499b)" d="M 889.747605 576.718125 
L 892.482272 576.718125 
L 892.482272 484.050045 
L 889.747605 484.050045 
z
" style="fill:#9467bd;"/>
   </g>
   <g id="patch_158">
    <path clip-path="url(#p10f923499b)" d="M 920.132794 576.718125 
L 922.867461 576.718125 
L 922.867461 482.426893 
L 920.132794 482.426893 
z
" style="fill:#9467bd;"/>
   </g>
   <g id="patch_159">
    <path clip-path="url(#p10f923499b)" d="M 950.517982 576.718125 
L 953.252649 576.718125 
L 953.252649 480.163974 
L 950.517982 480.163974 
z
" style="fill:#9467bd;"/>
   </g>
   <g id="patch_160">
    <path clip-path="url(#p10f923499b)" d="M 980.903171 576.718125 
L 983.637838 576.718125 
L 983.637838 486.661213 
L 980.903171 486.661213 
z
" style="fill:#9467bd;"/>
   </g>
   <g id="patch_161">
    <path clip-path="url(#p10f923499b)" d="M 1011.288359 576.718125 
L 1014.023026 576.718125 
L 1014.023026 489.303745 
L 1011.288359 489.303745 
z
" style="fill:#9467bd;"/>
   </g>
   <g id="patch_162">
    <path clip-path="url(#p10f923499b)" d="M 1041.673548 576.718125 
L 1044.408215 576.718125 
L 1044.408215 478.211525 
L 1041.673548 478.211525 
z
" style="fill:#9467bd;"/>
   </g>
   <g id="patch_163">
    <path clip-path="url(#p10f923499b)" d="M 102.467369 576.718125 
L 105.202036 576.718125 
L 105.202036 502.168215 
L 102.467369 502.168215 
z
" style="fill:#8c564b;"/>
   </g>
   <g id="patch_164">
    <path clip-path="url(#p10f923499b)" d="M 132.852558 576.718125 
L 135.587225 576.718125 
L 135.587225 494.202863 
L 132.852558 494.202863 
z
" style="fill:#8c564b;"/>
   </g>
   <g id="patch_165">
    <path clip-path="url(#p10f923499b)" d="M 163.237746 576.718125 
L 165.972413 576.718125 
L 165.972413 499.792399 
L 163.237746 499.792399 
z
" style="fill:#8c564b;"/>
   </g>
   <g id="patch_166">
    <path clip-path="url(#p10f923499b)" d="M 193.622935 576.718125 
L 196.357602 576.718125 
L 196.357602 493.609284 
L 193.622935 493.609284 
z
" style="fill:#8c564b;"/>
   </g>
   <g id="patch_167">
    <path clip-path="url(#p10f923499b)" d="M 224.008123 576.718125 
L 226.74279 576.718125 
L 226.74279 482.028209 
L 224.008123 482.028209 
z
" style="fill:#8c564b;"/>
   </g>
   <g id="patch_168">
    <path clip-path="url(#p10f923499b)" d="M 254.393312 576.718125 
L 257.127979 576.718125 
L 257.127979 495.176005 
L 254.393312 495.176005 
z
" style="fill:#8c564b;"/>
   </g>
   <g id="patch_169">
    <path clip-path="url(#p10f923499b)" d="M 284.7785 576.718125 
L 287.513167 576.718125 
L 287.513167 485.270956 
L 284.7785 485.270956 
z
" style="fill:#8c564b;"/>
   </g>
   <g id="patch_170">
    <path clip-path="url(#p10f923499b)" d="M 315.163689 576.718125 
L 317.898356 576.718125 
L 317.898356 485.23646 
L 315.163689 485.23646 
z
" style="fill:#8c564b;"/>
   </g>
   <g id="patch_171">
    <path clip-path="url(#p10f923499b)" d="M 345.548878 576.718125 
L 348.283545 576.718125 
L 348.283545 492.466218 
L 345.548878 492.466218 
z
" style="fill:#8c564b;"/>
   </g>
   <g id="patch_172">
    <path clip-path="url(#p10f923499b)" d="M 375.934066 576.718125 
L 378.668733 576.718125 
L 378.668733 493.292866 
L 375.934066 493.292866 
z
" style="fill:#8c564b;"/>
   </g>
   <g id="patch_173">
    <path clip-path="url(#p10f923499b)" d="M 406.319255 576.718125 
L 409.053922 576.718125 
L 409.053922 495.952146 
L 406.319255 495.952146 
z
" style="fill:#8c564b;"/>
   </g>
   <g id="patch_174">
    <path clip-path="url(#p10f923499b)" d="M 436.704443 576.718125 
L 439.43911 576.718125 
L 439.43911 496.433527 
L 436.704443 496.433527 
z
" style="fill:#8c564b;"/>
   </g>
   <g id="patch_175">
    <path clip-path="url(#p10f923499b)" d="M 467.089632 576.718125 
L 469.824299 576.718125 
L 469.824299 494.123249 
L 467.089632 494.123249 
z
" style="fill:#8c564b;"/>
   </g>
   <g id="patch_176">
    <path clip-path="url(#p10f923499b)" d="M 497.474821 576.718125 
L 500.209487 576.718125 
L 500.209487 487.213355 
L 497.474821 487.213355 
z
" style="fill:#8c564b;"/>
   </g>
   <g id="patch_177">
    <path clip-path="url(#p10f923499b)" d="M 527.860009 576.718125 
L 530.594676 576.718125 
L 530.594676 496.432493 
L 527.860009 496.432493 
z
" style="fill:#8c564b;"/>
   </g>
   <g id="patch_178">
    <path clip-path="url(#p10f923499b)" d="M 558.245198 576.718125 
L 560.979865 576.718125 
L 560.979865 476.874269 
L 558.245198 476.874269 
z
" style="fill:#8c564b;"/>
   </g>
   <g id="patch_179">
    <path clip-path="url(#p10f923499b)" d="M 588.630386 576.718125 
L 591.365053 576.718125 
L 591.365053 479.841081 
L 588.630386 479.841081 
z
" style="fill:#8c564b;"/>
   </g>
   <g id="patch_180">
    <path clip-path="url(#p10f923499b)" d="M 619.015575 576.718125 
L 621.750242 576.718125 
L 621.750242 489.293017 
L 619.015575 489.293017 
z
" style="fill:#8c564b;"/>
   </g>
   <g id="patch_181">
    <path clip-path="url(#p10f923499b)" d="M 649.400763 576.718125 
L 652.13543 576.718125 
L 652.13543 488.947172 
L 649.400763 488.947172 
z
" style="fill:#8c564b;"/>
   </g>
   <g id="patch_182">
    <path clip-path="url(#p10f923499b)" d="M 679.785952 576.718125 
L 682.520619 576.718125 
L 682.520619 486.914176 
L 679.785952 486.914176 
z
" style="fill:#8c564b;"/>
   </g>
   <g id="patch_183">
    <path clip-path="url(#p10f923499b)" d="M 710.171141 576.718125 
L 712.905808 576.718125 
L 712.905808 477.847902 
L 710.171141 477.847902 
z
" style="fill:#8c564b;"/>
   </g>
   <g id="patch_184">
    <path clip-path="url(#p10f923499b)" d="M 740.556329 576.718125 
L 743.290996 576.718125 
L 743.290996 479.417615 
L 740.556329 479.417615 
z
" style="fill:#8c564b;"/>
   </g>
   <g id="patch_185">
    <path clip-path="url(#p10f923499b)" d="M 770.941518 576.718125 
L 773.676185 576.718125 
L 773.676185 486.412763 
L 770.941518 486.412763 
z
" style="fill:#8c564b;"/>
   </g>
   <g id="patch_186">
    <path clip-path="url(#p10f923499b)" d="M 801.326706 576.718125 
L 804.061373 576.718125 
L 804.061373 471.097732 
L 801.326706 471.097732 
z
" style="fill:#8c564b;"/>
   </g>
   <g id="patch_187">
    <path clip-path="url(#p10f923499b)" d="M 831.711895 576.718125 
L 834.446562 576.718125 
L 834.446562 483.854736 
L 831.711895 483.854736 
z
" style="fill:#8c564b;"/>
   </g>
   <g id="patch_188">
    <path clip-path="url(#p10f923499b)" d="M 862.097084 576.718125 
L 864.83175 576.718125 
L 864.83175 493.560173 
L 862.097084 493.560173 
z
" style="fill:#8c564b;"/>
   </g>
   <g id="patch_189">
    <path clip-path="url(#p10f923499b)" d="M 892.482272 576.718125 
L 895.216939 576.718125 
L 895.216939 500.986543 
L 892.482272 500.986543 
z
" style="fill:#8c564b;"/>
   </g>
   <g id="patch_190">
    <path clip-path="url(#p10f923499b)" d="M 922.867461 576.718125 
L 925.602128 576.718125 
L 925.602128 500.37258 
L 922.867461 500.37258 
z
" style="fill:#8c564b;"/>
   </g>
   <g id="patch_191">
    <path clip-path="url(#p10f923499b)" d="M 953.252649 576.718125 
L 955.987316 576.718125 
L 955.987316 500.132382 
L 953.252649 500.132382 
z
" style="fill:#8c564b;"/>
   </g>
   <g id="patch_192">
    <path clip-path="url(#p10f923499b)" d="M 983.637838 576.718125 
L 986.372505 576.718125 
L 986.372505 504.406528 
L 983.637838 504.406528 
z
" style="fill:#8c564b;"/>
   </g>
   <g id="patch_193">
    <path clip-path="url(#p10f923499b)" d="M 1014.023026 576.718125 
L 1016.757693 576.718125 
L 1016.757693 508.19961 
L 1014.023026 508.19961 
z
" style="fill:#8c564b;"/>
   </g>
   <g id="patch_194">
    <path clip-path="url(#p10f923499b)" d="M 1044.408215 576.718125 
L 1047.142882 576.718125 
L 1047.142882 493.005531 
L 1044.408215 493.005531 
z
" style="fill:#8c564b;"/>
   </g>
   <g id="patch_195">
    <path clip-path="url(#p10f923499b)" d="M 105.202036 576.718125 
L 107.936703 576.718125 
L 107.936703 505.129412 
L 105.202036 505.129412 
z
" style="fill:#e377c2;"/>
   </g>
   <g id="patch_196">
    <path clip-path="url(#p10f923499b)" d="M 135.587225 576.718125 
L 138.321891 576.718125 
L 138.321891 496.093561 
L 135.587225 496.093561 
z
" style="fill:#e377c2;"/>
   </g>
   <g id="patch_197">
    <path clip-path="url(#p10f923499b)" d="M 165.972413 576.718125 
L 168.70708 576.718125 
L 168.70708 499.279223 
L 165.972413 499.279223 
z
" style="fill:#e377c2;"/>
   </g>
   <g id="patch_198">
    <path clip-path="url(#p10f923499b)" d="M 196.357602 576.718125 
L 199.092269 576.718125 
L 199.092269 498.716637 
L 196.357602 498.716637 
z
" style="fill:#e377c2;"/>
   </g>
   <g id="patch_199">
    <path clip-path="url(#p10f923499b)" d="M 226.74279 576.718125 
L 229.477457 576.718125 
L 229.477457 492.285225 
L 226.74279 492.285225 
z
" style="fill:#e377c2;"/>
   </g>
   <g id="patch_200">
    <path clip-path="url(#p10f923499b)" d="M 257.127979 576.718125 
L 259.862646 576.718125 
L 259.862646 496.966052 
L 257.127979 496.966052 
z
" style="fill:#e377c2;"/>
   </g>
   <g id="patch_201">
    <path clip-path="url(#p10f923499b)" d="M 287.513167 576.718125 
L 290.247834 576.718125 
L 290.247834 489.877159 
L 287.513167 489.877159 
z
" style="fill:#e377c2;"/>
   </g>
   <g id="patch_202">
    <path clip-path="url(#p10f923499b)" d="M 317.898356 576.718125 
L 320.633023 576.718125 
L 320.633023 490.729982 
L 317.898356 490.729982 
z
" style="fill:#e377c2;"/>
   </g>
   <g id="patch_203">
    <path clip-path="url(#p10f923499b)" d="M 348.283545 576.718125 
L 351.018212 576.718125 
L 351.018212 497.332211 
L 348.283545 497.332211 
z
" style="fill:#e377c2;"/>
   </g>
   <g id="patch_204">
    <path clip-path="url(#p10f923499b)" d="M 378.668733 576.718125 
L 381.4034 576.718125 
L 381.4034 496.755424 
L 378.668733 496.755424 
z
" style="fill:#e377c2;"/>
   </g>
   <g id="patch_205">
    <path clip-path="url(#p10f923499b)" d="M 409.053922 576.718125 
L 411.788589 576.718125 
L 411.788589 498.679331 
L 409.053922 498.679331 
z
" style="fill:#e377c2;"/>
   </g>
   <g id="patch_206">
    <path clip-path="url(#p10f923499b)" d="M 439.43911 576.718125 
L 442.173777 576.718125 
L 442.173777 500.268659 
L 439.43911 500.268659 
z
" style="fill:#e377c2;"/>
   </g>
   <g id="patch_207">
    <path clip-path="url(#p10f923499b)" d="M 469.824299 576.718125 
L 472.558966 576.718125 
L 472.558966 491.253805 
L 469.824299 491.253805 
z
" style="fill:#e377c2;"/>
   </g>
   <g id="patch_208">
    <path clip-path="url(#p10f923499b)" d="M 500.209487 576.718125 
L 502.944154 576.718125 
L 502.944154 491.709889 
L 500.209487 491.709889 
z
" style="fill:#e377c2;"/>
   </g>
   <g id="patch_209">
    <path clip-path="url(#p10f923499b)" d="M 530.594676 576.718125 
L 533.329343 576.718125 
L 533.329343 498.984016 
L 530.594676 498.984016 
z
" style="fill:#e377c2;"/>
   </g>
   <g id="patch_210">
    <path clip-path="url(#p10f923499b)" d="M 560.979865 576.718125 
L 563.714532 576.718125 
L 563.714532 487.686043 
L 560.979865 487.686043 
z
" style="fill:#e377c2;"/>
   </g>
   <g id="patch_211">
    <path clip-path="url(#p10f923499b)" d="M 591.365053 576.718125 
L 594.09972 576.718125 
L 594.09972 489.345707 
L 591.365053 489.345707 
z
" style="fill:#e377c2;"/>
   </g>
   <g id="patch_212">
    <path clip-path="url(#p10f923499b)" d="M 621.750242 576.718125 
L 624.484909 576.718125 
L 624.484909 497.531905 
L 621.750242 497.531905 
z
" style="fill:#e377c2;"/>
   </g>
   <g id="patch_213">
    <path clip-path="url(#p10f923499b)" d="M 652.13543 576.718125 
L 654.870097 576.718125 
L 654.870097 500.95341 
L 652.13543 500.95341 
z
" style="fill:#e377c2;"/>
   </g>
   <g id="patch_214">
    <path clip-path="url(#p10f923499b)" d="M 682.520619 576.718125 
L 685.255286 576.718125 
L 685.255286 497.266129 
L 682.520619 497.266129 
z
" style="fill:#e377c2;"/>
   </g>
   <g id="patch_215">
    <path clip-path="url(#p10f923499b)" d="M 712.905808 576.718125 
L 715.640475 576.718125 
L 715.640475 495.471395 
L 712.905808 495.471395 
z
" style="fill:#e377c2;"/>
   </g>
   <g id="patch_216">
    <path clip-path="url(#p10f923499b)" d="M 743.290996 576.718125 
L 746.025663 576.718125 
L 746.025663 493.425765 
L 743.290996 493.425765 
z
" style="fill:#e377c2;"/>
   </g>
   <g id="patch_217">
    <path clip-path="url(#p10f923499b)" d="M 773.676185 576.718125 
L 776.410852 576.718125 
L 776.410852 498.163855 
L 773.676185 498.163855 
z
" style="fill:#e377c2;"/>
   </g>
   <g id="patch_218">
    <path clip-path="url(#p10f923499b)" d="M 804.061373 576.718125 
L 806.79604 576.718125 
L 806.79604 483.561196 
L 804.061373 483.561196 
z
" style="fill:#e377c2;"/>
   </g>
   <g id="patch_219">
    <path clip-path="url(#p10f923499b)" d="M 834.446562 576.718125 
L 837.181229 576.718125 
L 837.181229 498.260459 
L 834.446562 498.260459 
z
" style="fill:#e377c2;"/>
   </g>
   <g id="patch_220">
    <path clip-path="url(#p10f923499b)" d="M 864.83175 576.718125 
L 867.566417 576.718125 
L 867.566417 504.614857 
L 864.83175 504.614857 
z
" style="fill:#e377c2;"/>
   </g>
   <g id="patch_221">
    <path clip-path="url(#p10f923499b)" d="M 895.216939 576.718125 
L 897.951606 576.718125 
L 897.951606 508.873121 
L 895.216939 508.873121 
z
" style="fill:#e377c2;"/>
   </g>
   <g id="patch_222">
    <path clip-path="url(#p10f923499b)" d="M 925.602128 576.718125 
L 928.336795 576.718125 
L 928.336795 504.654238 
L 925.602128 504.654238 
z
" style="fill:#e377c2;"/>
   </g>
   <g id="patch_223">
    <path clip-path="url(#p10f923499b)" d="M 955.987316 576.718125 
L 958.721983 576.718125 
L 958.721983 507.925005 
L 955.987316 507.925005 
z
" style="fill:#e377c2;"/>
   </g>
   <g id="patch_224">
    <path clip-path="url(#p10f923499b)" d="M 986.372505 576.718125 
L 989.107172 576.718125 
L 989.107172 510.553068 
L 986.372505 510.553068 
z
" style="fill:#e377c2;"/>
   </g>
   <g id="patch_225">
    <path clip-path="url(#p10f923499b)" d="M 1016.757693 576.718125 
L 1019.49236 576.718125 
L 1019.49236 514.585441 
L 1016.757693 514.585441 
z
" style="fill:#e377c2;"/>
   </g>
   <g id="patch_226">
    <path clip-path="url(#p10f923499b)" d="M 1047.142882 576.718125 
L 1049.877549 576.718125 
L 1049.877549 502.311121 
L 1047.142882 502.311121 
z
" style="fill:#e377c2;"/>
   </g>
   <g id="patch_227">
    <path clip-path="url(#p10f923499b)" d="M 107.936703 576.718125 
L 110.67137 576.718125 
L 110.67137 506.196538 
L 107.936703 506.196538 
z
" style="fill:#7f7f7f;"/>
   </g>
   <g id="patch_228">
    <path clip-path="url(#p10f923499b)" d="M 138.321891 576.718125 
L 141.056558 576.718125 
L 141.056558 486.106121 
L 138.321891 486.106121 
z
" style="fill:#7f7f7f;"/>
   </g>
   <g id="patch_229">
    <path clip-path="url(#p10f923499b)" d="M 168.70708 576.718125 
L 171.441747 576.718125 
L 171.441747 497.511055 
L 168.70708 497.511055 
z
" style="fill:#7f7f7f;"/>
   </g>
   <g id="patch_230">
    <path clip-path="url(#p10f923499b)" d="M 199.092269 576.718125 
L 201.826936 576.718125 
L 201.826936 499.376443 
L 199.092269 499.376443 
z
" style="fill:#7f7f7f;"/>
   </g>
   <g id="patch_231">
    <path clip-path="url(#p10f923499b)" d="M 229.477457 576.718125 
L 232.212124 576.718125 
L 232.212124 492.694465 
L 229.477457 492.694465 
z
" style="fill:#7f7f7f;"/>
   </g>
   <g id="patch_232">
    <path clip-path="url(#p10f923499b)" d="M 259.862646 576.718125 
L 262.597313 576.718125 
L 262.597313 497.511619 
L 259.862646 497.511619 
z
" style="fill:#7f7f7f;"/>
   </g>
   <g id="patch_233">
    <path clip-path="url(#p10f923499b)" d="M 290.247834 576.718125 
L 292.982501 576.718125 
L 292.982501 487.072612 
L 290.247834 487.072612 
z
" style="fill:#7f7f7f;"/>
   </g>
   <g id="patch_234">
    <path clip-path="url(#p10f923499b)" d="M 320.633023 576.718125 
L 323.36769 576.718125 
L 323.36769 490.035128 
L 320.633023 490.035128 
z
" style="fill:#7f7f7f;"/>
   </g>
   <g id="patch_235">
    <path clip-path="url(#p10f923499b)" d="M 351.018212 576.718125 
L 353.752879 576.718125 
L 353.752879 496.522101 
L 351.018212 496.522101 
z
" style="fill:#7f7f7f;"/>
   </g>
   <g id="patch_236">
    <path clip-path="url(#p10f923499b)" d="M 381.4034 576.718125 
L 384.138067 576.718125 
L 384.138067 492.114509 
L 381.4034 492.114509 
z
" style="fill:#7f7f7f;"/>
   </g>
   <g id="patch_237">
    <path clip-path="url(#p10f923499b)" d="M 411.788589 576.718125 
L 414.523256 576.718125 
L 414.523256 496.716093 
L 411.788589 496.716093 
z
" style="fill:#7f7f7f;"/>
   </g>
   <g id="patch_238">
    <path clip-path="url(#p10f923499b)" d="M 442.173777 576.718125 
L 444.908444 576.718125 
L 444.908444 496.974246 
L 442.173777 496.974246 
z
" style="fill:#7f7f7f;"/>
   </g>
   <g id="patch_239">
    <path clip-path="url(#p10f923499b)" d="M 472.558966 576.718125 
L 475.293633 576.718125 
L 475.293633 493.886444 
L 472.558966 493.886444 
z
" style="fill:#7f7f7f;"/>
   </g>
   <g id="patch_240">
    <path clip-path="url(#p10f923499b)" d="M 502.944154 576.718125 
L 505.678821 576.718125 
L 505.678821 487.392894 
L 502.944154 487.392894 
z
" style="fill:#7f7f7f;"/>
   </g>
   <g id="patch_241">
    <path clip-path="url(#p10f923499b)" d="M 533.329343 576.718125 
L 536.06401 576.718125 
L 536.06401 494.399435 
L 533.329343 494.399435 
z
" style="fill:#7f7f7f;"/>
   </g>
   <g id="patch_242">
    <path clip-path="url(#p10f923499b)" d="M 563.714532 576.718125 
L 566.449199 576.718125 
L 566.449199 489.167987 
L 563.714532 489.167987 
z
" style="fill:#7f7f7f;"/>
   </g>
   <g id="patch_243">
    <path clip-path="url(#p10f923499b)" d="M 594.09972 576.718125 
L 596.834387 576.718125 
L 596.834387 489.814749 
L 594.09972 489.814749 
z
" style="fill:#7f7f7f;"/>
   </g>
   <g id="patch_244">
    <path clip-path="url(#p10f923499b)" d="M 624.484909 576.718125 
L 627.219576 576.718125 
L 627.219576 501.799319 
L 624.484909 501.799319 
z
" style="fill:#7f7f7f;"/>
   </g>
   <g id="patch_245">
    <path clip-path="url(#p10f923499b)" d="M 654.870097 576.718125 
L 657.604764 576.718125 
L 657.604764 503.431872 
L 654.870097 503.431872 
z
" style="fill:#7f7f7f;"/>
   </g>
   <g id="patch_246">
    <path clip-path="url(#p10f923499b)" d="M 685.255286 576.718125 
L 687.989953 576.718125 
L 687.989953 504.468767 
L 685.255286 504.468767 
z
" style="fill:#7f7f7f;"/>
   </g>
   <g id="patch_247">
    <path clip-path="url(#p10f923499b)" d="M 715.640475 576.718125 
L 718.375142 576.718125 
L 718.375142 495.180174 
L 715.640475 495.180174 
z
" style="fill:#7f7f7f;"/>
   </g>
   <g id="patch_248">
    <path clip-path="url(#p10f923499b)" d="M 746.025663 576.718125 
L 748.76033 576.718125 
L 748.76033 504.284985 
L 746.025663 504.284985 
z
" style="fill:#7f7f7f;"/>
   </g>
   <g id="patch_249">
    <path clip-path="url(#p10f923499b)" d="M 776.410852 576.718125 
L 779.145519 576.718125 
L 779.145519 501.70521 
L 776.410852 501.70521 
z
" style="fill:#7f7f7f;"/>
   </g>
   <g id="patch_250">
    <path clip-path="url(#p10f923499b)" d="M 806.79604 576.718125 
L 809.530707 576.718125 
L 809.530707 488.89832 
L 806.79604 488.89832 
z
" style="fill:#7f7f7f;"/>
   </g>
   <g id="patch_251">
    <path clip-path="url(#p10f923499b)" d="M 837.181229 576.718125 
L 839.915896 576.718125 
L 839.915896 506.975364 
L 837.181229 506.975364 
z
" style="fill:#7f7f7f;"/>
   </g>
   <g id="patch_252">
    <path clip-path="url(#p10f923499b)" d="M 867.566417 576.718125 
L 870.301084 576.718125 
L 870.301084 511.441602 
L 867.566417 511.441602 
z
" style="fill:#7f7f7f;"/>
   </g>
   <g id="patch_253">
    <path clip-path="url(#p10f923499b)" d="M 897.951606 576.718125 
L 900.686273 576.718125 
L 900.686273 513.995051 
L 897.951606 513.995051 
z
" style="fill:#7f7f7f;"/>
   </g>
   <g id="patch_254">
    <path clip-path="url(#p10f923499b)" d="M 928.336795 576.718125 
L 931.071462 576.718125 
L 931.071462 512.531328 
L 928.336795 512.531328 
z
" style="fill:#7f7f7f;"/>
   </g>
   <g id="patch_255">
    <path clip-path="url(#p10f923499b)" d="M 958.721983 576.718125 
L 961.45665 576.718125 
L 961.45665 512.065339 
L 958.721983 512.065339 
z
" style="fill:#7f7f7f;"/>
   </g>
   <g id="patch_256">
    <path clip-path="url(#p10f923499b)" d="M 989.107172 576.718125 
L 991.841839 576.718125 
L 991.841839 511.512844 
L 989.107172 511.512844 
z
" style="fill:#7f7f7f;"/>
   </g>
   <g id="patch_257">
    <path clip-path="url(#p10f923499b)" d="M 1019.49236 576.718125 
L 1022.227027 576.718125 
L 1022.227027 514.701797 
L 1019.49236 514.701797 
z
" style="fill:#7f7f7f;"/>
   </g>
   <g id="patch_258">
    <path clip-path="url(#p10f923499b)" d="M 1049.877549 576.718125 
L 1052.612216 576.718125 
L 1052.612216 506.737329 
L 1049.877549 506.737329 
z
" style="fill:#7f7f7f;"/>
   </g>
   <g id="matplotlib.axis_1">
    <g id="xtick_1">
     <g id="line2d_1">
      <path clip-path="url(#p10f923499b)" d="M 99.732702 576.718125 
L 99.732702 22.318125 
" style="fill:none;stroke:#b0b0b0;stroke-linecap:square;stroke-width:0.8;"/>
     </g>
     <g id="line2d_2">
      <defs>
       <path d="M 0 0 
L 0 3.5 
" id="ma688c5c0d7" style="stroke:#000000;stroke-width:0.8;"/>
      </defs>
      <g>
       <use style="stroke:#000000;stroke-width:0.8;" x="99.732702" xlink:href="#ma688c5c0d7" y="576.718125"/>
      </g>
     </g>
     <g id="text_1">
      <!-- 0 -->
      <g transform="translate(96.551452 591.316563)scale(0.1 -0.1)">
       <defs>
        <path d="M 31.78125 66.40625 
Q 24.171875 66.40625 20.328125 58.90625 
Q 16.5 51.421875 16.5 36.375 
Q 16.5 21.390625 20.328125 13.890625 
Q 24.171875 6.390625 31.78125 6.390625 
Q 39.453125 6.390625 43.28125 13.890625 
Q 47.125 21.390625 47.125 36.375 
Q 47.125 51.421875 43.28125 58.90625 
Q 39.453125 66.40625 31.78125 66.40625 
z
M 31.78125 74.21875 
Q 44.046875 74.21875 50.515625 64.515625 
Q 56.984375 54.828125 56.984375 36.375 
Q 56.984375 17.96875 50.515625 8.265625 
Q 44.046875 -1.421875 31.78125 -1.421875 
Q 19.53125 -1.421875 13.0625 8.265625 
Q 6.59375 17.96875 6.59375 36.375 
Q 6.59375 54.828125 13.0625 64.515625 
Q 19.53125 74.21875 31.78125 74.21875 
z
" id="DejaVuSans-48"/>
       </defs>
       <use xlink:href="#DejaVuSans-48"/>
      </g>
     </g>
    </g>
    <g id="xtick_2">
     <g id="line2d_3">
      <path clip-path="url(#p10f923499b)" d="M 251.658645 576.718125 
L 251.658645 22.318125 
" style="fill:none;stroke:#b0b0b0;stroke-linecap:square;stroke-width:0.8;"/>
     </g>
     <g id="line2d_4">
      <g>
       <use style="stroke:#000000;stroke-width:0.8;" x="251.658645" xlink:href="#ma688c5c0d7" y="576.718125"/>
      </g>
     </g>
     <g id="text_2">
      <!-- 5 -->
      <g transform="translate(248.477395 591.316563)scale(0.1 -0.1)">
       <defs>
        <path d="M 10.796875 72.90625 
L 49.515625 72.90625 
L 49.515625 64.59375 
L 19.828125 64.59375 
L 19.828125 46.734375 
Q 21.96875 47.46875 24.109375 47.828125 
Q 26.265625 48.1875 28.421875 48.1875 
Q 40.625 48.1875 47.75 41.5 
Q 54.890625 34.8125 54.890625 23.390625 
Q 54.890625 11.625 47.5625 5.09375 
Q 40.234375 -1.421875 26.90625 -1.421875 
Q 22.3125 -1.421875 17.546875 -0.640625 
Q 12.796875 0.140625 7.71875 1.703125 
L 7.71875 11.625 
Q 12.109375 9.234375 16.796875 8.0625 
Q 21.484375 6.890625 26.703125 6.890625 
Q 35.15625 6.890625 40.078125 11.328125 
Q 45.015625 15.765625 45.015625 23.390625 
Q 45.015625 31 40.078125 35.4375 
Q 35.15625 39.890625 26.703125 39.890625 
Q 22.75 39.890625 18.8125 39.015625 
Q 14.890625 38.140625 10.796875 36.28125 
z
" id="DejaVuSans-53"/>
       </defs>
       <use xlink:href="#DejaVuSans-53"/>
      </g>
     </g>
    </g>
    <g id="xtick_3">
     <g id="line2d_5">
      <path clip-path="url(#p10f923499b)" d="M 403.584588 576.718125 
L 403.584588 22.318125 
" style="fill:none;stroke:#b0b0b0;stroke-linecap:square;stroke-width:0.8;"/>
     </g>
     <g id="line2d_6">
      <g>
       <use style="stroke:#000000;stroke-width:0.8;" x="403.584588" xlink:href="#ma688c5c0d7" y="576.718125"/>
      </g>
     </g>
     <g id="text_3">
      <!-- 10 -->
      <g transform="translate(397.222088 591.316563)scale(0.1 -0.1)">
       <defs>
        <path d="M 12.40625 8.296875 
L 28.515625 8.296875 
L 28.515625 63.921875 
L 10.984375 60.40625 
L 10.984375 69.390625 
L 28.421875 72.90625 
L 38.28125 72.90625 
L 38.28125 8.296875 
L 54.390625 8.296875 
L 54.390625 0 
L 12.40625 0 
z
" id="DejaVuSans-49"/>
       </defs>
       <use xlink:href="#DejaVuSans-49"/>
       <use x="63.623047" xlink:href="#DejaVuSans-48"/>
      </g>
     </g>
    </g>
    <g id="xtick_4">
     <g id="line2d_7">
      <path clip-path="url(#p10f923499b)" d="M 555.510531 576.718125 
L 555.510531 22.318125 
" style="fill:none;stroke:#b0b0b0;stroke-linecap:square;stroke-width:0.8;"/>
     </g>
     <g id="line2d_8">
      <g>
       <use style="stroke:#000000;stroke-width:0.8;" x="555.510531" xlink:href="#ma688c5c0d7" y="576.718125"/>
      </g>
     </g>
     <g id="text_4">
      <!-- 15 -->
      <g transform="translate(549.148031 591.316563)scale(0.1 -0.1)">
       <use xlink:href="#DejaVuSans-49"/>
       <use x="63.623047" xlink:href="#DejaVuSans-53"/>
      </g>
     </g>
    </g>
    <g id="xtick_5">
     <g id="line2d_9">
      <path clip-path="url(#p10f923499b)" d="M 707.436474 576.718125 
L 707.436474 22.318125 
" style="fill:none;stroke:#b0b0b0;stroke-linecap:square;stroke-width:0.8;"/>
     </g>
     <g id="line2d_10">
      <g>
       <use style="stroke:#000000;stroke-width:0.8;" x="707.436474" xlink:href="#ma688c5c0d7" y="576.718125"/>
      </g>
     </g>
     <g id="text_5">
      <!-- 20 -->
      <g transform="translate(701.073974 591.316563)scale(0.1 -0.1)">
       <defs>
        <path d="M 19.1875 8.296875 
L 53.609375 8.296875 
L 53.609375 0 
L 7.328125 0 
L 7.328125 8.296875 
Q 12.9375 14.109375 22.625 23.890625 
Q 32.328125 33.6875 34.8125 36.53125 
Q 39.546875 41.84375 41.421875 45.53125 
Q 43.3125 49.21875 43.3125 52.78125 
Q 43.3125 58.59375 39.234375 62.25 
Q 35.15625 65.921875 28.609375 65.921875 
Q 23.96875 65.921875 18.8125 64.3125 
Q 13.671875 62.703125 7.8125 59.421875 
L 7.8125 69.390625 
Q 13.765625 71.78125 18.9375 73 
Q 24.125 74.21875 28.421875 74.21875 
Q 39.75 74.21875 46.484375 68.546875 
Q 53.21875 62.890625 53.21875 53.421875 
Q 53.21875 48.921875 51.53125 44.890625 
Q 49.859375 40.875 45.40625 35.40625 
Q 44.1875 33.984375 37.640625 27.21875 
Q 31.109375 20.453125 19.1875 8.296875 
z
" id="DejaVuSans-50"/>
       </defs>
       <use xlink:href="#DejaVuSans-50"/>
       <use x="63.623047" xlink:href="#DejaVuSans-48"/>
      </g>
     </g>
    </g>
    <g id="xtick_6">
     <g id="line2d_11">
      <path clip-path="url(#p10f923499b)" d="M 859.362417 576.718125 
L 859.362417 22.318125 
" style="fill:none;stroke:#b0b0b0;stroke-linecap:square;stroke-width:0.8;"/>
     </g>
     <g id="line2d_12">
      <g>
       <use style="stroke:#000000;stroke-width:0.8;" x="859.362417" xlink:href="#ma688c5c0d7" y="576.718125"/>
      </g>
     </g>
     <g id="text_6">
      <!-- 25 -->
      <g transform="translate(852.999917 591.316563)scale(0.1 -0.1)">
       <use xlink:href="#DejaVuSans-50"/>
       <use x="63.623047" xlink:href="#DejaVuSans-53"/>
      </g>
     </g>
    </g>
    <g id="xtick_7">
     <g id="line2d_13">
      <path clip-path="url(#p10f923499b)" d="M 1011.288359 576.718125 
L 1011.288359 22.318125 
" style="fill:none;stroke:#b0b0b0;stroke-linecap:square;stroke-width:0.8;"/>
     </g>
     <g id="line2d_14">
      <g>
       <use style="stroke:#000000;stroke-width:0.8;" x="1011.288359" xlink:href="#ma688c5c0d7" y="576.718125"/>
      </g>
     </g>
     <g id="text_7">
      <!-- 30 -->
      <g transform="translate(1004.925859 591.316563)scale(0.1 -0.1)">
       <defs>
        <path d="M 40.578125 39.3125 
Q 47.65625 37.796875 51.625 33 
Q 55.609375 28.21875 55.609375 21.1875 
Q 55.609375 10.40625 48.1875 4.484375 
Q 40.765625 -1.421875 27.09375 -1.421875 
Q 22.515625 -1.421875 17.65625 -0.515625 
Q 12.796875 0.390625 7.625 2.203125 
L 7.625 11.71875 
Q 11.71875 9.328125 16.59375 8.109375 
Q 21.484375 6.890625 26.8125 6.890625 
Q 36.078125 6.890625 40.9375 10.546875 
Q 45.796875 14.203125 45.796875 21.1875 
Q 45.796875 27.640625 41.28125 31.265625 
Q 36.765625 34.90625 28.71875 34.90625 
L 20.21875 34.90625 
L 20.21875 43.015625 
L 29.109375 43.015625 
Q 36.375 43.015625 40.234375 45.921875 
Q 44.09375 48.828125 44.09375 54.296875 
Q 44.09375 59.90625 40.109375 62.90625 
Q 36.140625 65.921875 28.71875 65.921875 
Q 24.65625 65.921875 20.015625 65.03125 
Q 15.375 64.15625 9.8125 62.3125 
L 9.8125 71.09375 
Q 15.4375 72.65625 20.34375 73.4375 
Q 25.25 74.21875 29.59375 74.21875 
Q 40.828125 74.21875 47.359375 69.109375 
Q 53.90625 64.015625 53.90625 55.328125 
Q 53.90625 49.265625 50.4375 45.09375 
Q 46.96875 40.921875 40.578125 39.3125 
z
" id="DejaVuSans-51"/>
       </defs>
       <use xlink:href="#DejaVuSans-51"/>
       <use x="63.623047" xlink:href="#DejaVuSans-48"/>
      </g>
     </g>
    </g>
    <g id="xtick_8">
     <g id="line2d_15">
      <defs>
       <path d="M 0 0 
L 0 3 
" id="m55c86da0d2" style="stroke:#000000;stroke-width:0.6;"/>
      </defs>
      <g>
       <use style="stroke:#000000;stroke-width:0.6;" x="69.347513" xlink:href="#m55c86da0d2" y="576.718125"/>
      </g>
     </g>
    </g>
    <g id="xtick_9">
     <g id="line2d_16">
      <g>
       <use style="stroke:#000000;stroke-width:0.6;" x="130.117891" xlink:href="#m55c86da0d2" y="576.718125"/>
      </g>
     </g>
    </g>
    <g id="xtick_10">
     <g id="line2d_17">
      <g>
       <use style="stroke:#000000;stroke-width:0.6;" x="160.503079" xlink:href="#m55c86da0d2" y="576.718125"/>
      </g>
     </g>
    </g>
    <g id="xtick_11">
     <g id="line2d_18">
      <g>
       <use style="stroke:#000000;stroke-width:0.6;" x="190.888268" xlink:href="#m55c86da0d2" y="576.718125"/>
      </g>
     </g>
    </g>
    <g id="xtick_12">
     <g id="line2d_19">
      <g>
       <use style="stroke:#000000;stroke-width:0.6;" x="221.273456" xlink:href="#m55c86da0d2" y="576.718125"/>
      </g>
     </g>
    </g>
    <g id="xtick_13">
     <g id="line2d_20">
      <g>
       <use style="stroke:#000000;stroke-width:0.6;" x="282.043833" xlink:href="#m55c86da0d2" y="576.718125"/>
      </g>
     </g>
    </g>
    <g id="xtick_14">
     <g id="line2d_21">
      <g>
       <use style="stroke:#000000;stroke-width:0.6;" x="312.429022" xlink:href="#m55c86da0d2" y="576.718125"/>
      </g>
     </g>
    </g>
    <g id="xtick_15">
     <g id="line2d_22">
      <g>
       <use style="stroke:#000000;stroke-width:0.6;" x="342.814211" xlink:href="#m55c86da0d2" y="576.718125"/>
      </g>
     </g>
    </g>
    <g id="xtick_16">
     <g id="line2d_23">
      <g>
       <use style="stroke:#000000;stroke-width:0.6;" x="373.199399" xlink:href="#m55c86da0d2" y="576.718125"/>
      </g>
     </g>
    </g>
    <g id="xtick_17">
     <g id="line2d_24">
      <g>
       <use style="stroke:#000000;stroke-width:0.6;" x="433.969776" xlink:href="#m55c86da0d2" y="576.718125"/>
      </g>
     </g>
    </g>
    <g id="xtick_18">
     <g id="line2d_25">
      <g>
       <use style="stroke:#000000;stroke-width:0.6;" x="464.354965" xlink:href="#m55c86da0d2" y="576.718125"/>
      </g>
     </g>
    </g>
    <g id="xtick_19">
     <g id="line2d_26">
      <g>
       <use style="stroke:#000000;stroke-width:0.6;" x="494.740154" xlink:href="#m55c86da0d2" y="576.718125"/>
      </g>
     </g>
    </g>
    <g id="xtick_20">
     <g id="line2d_27">
      <g>
       <use style="stroke:#000000;stroke-width:0.6;" x="525.125342" xlink:href="#m55c86da0d2" y="576.718125"/>
      </g>
     </g>
    </g>
    <g id="xtick_21">
     <g id="line2d_28">
      <g>
       <use style="stroke:#000000;stroke-width:0.6;" x="585.895719" xlink:href="#m55c86da0d2" y="576.718125"/>
      </g>
     </g>
    </g>
    <g id="xtick_22">
     <g id="line2d_29">
      <g>
       <use style="stroke:#000000;stroke-width:0.6;" x="616.280908" xlink:href="#m55c86da0d2" y="576.718125"/>
      </g>
     </g>
    </g>
    <g id="xtick_23">
     <g id="line2d_30">
      <g>
       <use style="stroke:#000000;stroke-width:0.6;" x="646.666096" xlink:href="#m55c86da0d2" y="576.718125"/>
      </g>
     </g>
    </g>
    <g id="xtick_24">
     <g id="line2d_31">
      <g>
       <use style="stroke:#000000;stroke-width:0.6;" x="677.051285" xlink:href="#m55c86da0d2" y="576.718125"/>
      </g>
     </g>
    </g>
    <g id="xtick_25">
     <g id="line2d_32">
      <g>
       <use style="stroke:#000000;stroke-width:0.6;" x="737.821662" xlink:href="#m55c86da0d2" y="576.718125"/>
      </g>
     </g>
    </g>
    <g id="xtick_26">
     <g id="line2d_33">
      <g>
       <use style="stroke:#000000;stroke-width:0.6;" x="768.206851" xlink:href="#m55c86da0d2" y="576.718125"/>
      </g>
     </g>
    </g>
    <g id="xtick_27">
     <g id="line2d_34">
      <g>
       <use style="stroke:#000000;stroke-width:0.6;" x="798.592039" xlink:href="#m55c86da0d2" y="576.718125"/>
      </g>
     </g>
    </g>
    <g id="xtick_28">
     <g id="line2d_35">
      <g>
       <use style="stroke:#000000;stroke-width:0.6;" x="828.977228" xlink:href="#m55c86da0d2" y="576.718125"/>
      </g>
     </g>
    </g>
    <g id="xtick_29">
     <g id="line2d_36">
      <g>
       <use style="stroke:#000000;stroke-width:0.6;" x="889.747605" xlink:href="#m55c86da0d2" y="576.718125"/>
      </g>
     </g>
    </g>
    <g id="xtick_30">
     <g id="line2d_37">
      <g>
       <use style="stroke:#000000;stroke-width:0.6;" x="920.132794" xlink:href="#m55c86da0d2" y="576.718125"/>
      </g>
     </g>
    </g>
    <g id="xtick_31">
     <g id="line2d_38">
      <g>
       <use style="stroke:#000000;stroke-width:0.6;" x="950.517982" xlink:href="#m55c86da0d2" y="576.718125"/>
      </g>
     </g>
    </g>
    <g id="xtick_32">
     <g id="line2d_39">
      <g>
       <use style="stroke:#000000;stroke-width:0.6;" x="980.903171" xlink:href="#m55c86da0d2" y="576.718125"/>
      </g>
     </g>
    </g>
    <g id="xtick_33">
     <g id="line2d_40">
      <g>
       <use style="stroke:#000000;stroke-width:0.6;" x="1041.673548" xlink:href="#m55c86da0d2" y="576.718125"/>
      </g>
     </g>
    </g>
    <g id="xtick_34">
     <g id="line2d_41">
      <g>
       <use style="stroke:#000000;stroke-width:0.6;" x="1072.058737" xlink:href="#m55c86da0d2" y="576.718125"/>
      </g>
     </g>
    </g>
    <g id="text_8">
     <!-- Channels -->
     <g transform="translate(547.571094 604.994688)scale(0.1 -0.1)">
      <defs>
       <path d="M 64.40625 67.28125 
L 64.40625 56.890625 
Q 59.421875 61.53125 53.78125 63.8125 
Q 48.140625 66.109375 41.796875 66.109375 
Q 29.296875 66.109375 22.65625 58.46875 
Q 16.015625 50.828125 16.015625 36.375 
Q 16.015625 21.96875 22.65625 14.328125 
Q 29.296875 6.6875 41.796875 6.6875 
Q 48.140625 6.6875 53.78125 8.984375 
Q 59.421875 11.28125 64.40625 15.921875 
L 64.40625 5.609375 
Q 59.234375 2.09375 53.4375 0.328125 
Q 47.65625 -1.421875 41.21875 -1.421875 
Q 24.65625 -1.421875 15.125 8.703125 
Q 5.609375 18.84375 5.609375 36.375 
Q 5.609375 53.953125 15.125 64.078125 
Q 24.65625 74.21875 41.21875 74.21875 
Q 47.75 74.21875 53.53125 72.484375 
Q 59.328125 70.75 64.40625 67.28125 
z
" id="DejaVuSans-67"/>
       <path d="M 54.890625 33.015625 
L 54.890625 0 
L 45.90625 0 
L 45.90625 32.71875 
Q 45.90625 40.484375 42.875 44.328125 
Q 39.84375 48.1875 33.796875 48.1875 
Q 26.515625 48.1875 22.3125 43.546875 
Q 18.109375 38.921875 18.109375 30.90625 
L 18.109375 0 
L 9.078125 0 
L 9.078125 75.984375 
L 18.109375 75.984375 
L 18.109375 46.1875 
Q 21.34375 51.125 25.703125 53.5625 
Q 30.078125 56 35.796875 56 
Q 45.21875 56 50.046875 50.171875 
Q 54.890625 44.34375 54.890625 33.015625 
z
" id="DejaVuSans-104"/>
       <path d="M 34.28125 27.484375 
Q 23.390625 27.484375 19.1875 25 
Q 14.984375 22.515625 14.984375 16.5 
Q 14.984375 11.71875 18.140625 8.90625 
Q 21.296875 6.109375 26.703125 6.109375 
Q 34.1875 6.109375 38.703125 11.40625 
Q 43.21875 16.703125 43.21875 25.484375 
L 43.21875 27.484375 
z
M 52.203125 31.203125 
L 52.203125 0 
L 43.21875 0 
L 43.21875 8.296875 
Q 40.140625 3.328125 35.546875 0.953125 
Q 30.953125 -1.421875 24.3125 -1.421875 
Q 15.921875 -1.421875 10.953125 3.296875 
Q 6 8.015625 6 15.921875 
Q 6 25.140625 12.171875 29.828125 
Q 18.359375 34.515625 30.609375 34.515625 
L 43.21875 34.515625 
L 43.21875 35.40625 
Q 43.21875 41.609375 39.140625 45 
Q 35.0625 48.390625 27.6875 48.390625 
Q 23 48.390625 18.546875 47.265625 
Q 14.109375 46.140625 10.015625 43.890625 
L 10.015625 52.203125 
Q 14.9375 54.109375 19.578125 55.046875 
Q 24.21875 56 28.609375 56 
Q 40.484375 56 46.34375 49.84375 
Q 52.203125 43.703125 52.203125 31.203125 
z
" id="DejaVuSans-97"/>
       <path d="M 54.890625 33.015625 
L 54.890625 0 
L 45.90625 0 
L 45.90625 32.71875 
Q 45.90625 40.484375 42.875 44.328125 
Q 39.84375 48.1875 33.796875 48.1875 
Q 26.515625 48.1875 22.3125 43.546875 
Q 18.109375 38.921875 18.109375 30.90625 
L 18.109375 0 
L 9.078125 0 
L 9.078125 54.6875 
L 18.109375 54.6875 
L 18.109375 46.1875 
Q 21.34375 51.125 25.703125 53.5625 
Q 30.078125 56 35.796875 56 
Q 45.21875 56 50.046875 50.171875 
Q 54.890625 44.34375 54.890625 33.015625 
z
" id="DejaVuSans-110"/>
       <path d="M 56.203125 29.59375 
L 56.203125 25.203125 
L 14.890625 25.203125 
Q 15.484375 15.921875 20.484375 11.0625 
Q 25.484375 6.203125 34.421875 6.203125 
Q 39.59375 6.203125 44.453125 7.46875 
Q 49.3125 8.734375 54.109375 11.28125 
L 54.109375 2.78125 
Q 49.265625 0.734375 44.1875 -0.34375 
Q 39.109375 -1.421875 33.890625 -1.421875 
Q 20.796875 -1.421875 13.15625 6.1875 
Q 5.515625 13.8125 5.515625 26.8125 
Q 5.515625 40.234375 12.765625 48.109375 
Q 20.015625 56 32.328125 56 
Q 43.359375 56 49.78125 48.890625 
Q 56.203125 41.796875 56.203125 29.59375 
z
M 47.21875 32.234375 
Q 47.125 39.59375 43.09375 43.984375 
Q 39.0625 48.390625 32.421875 48.390625 
Q 24.90625 48.390625 20.390625 44.140625 
Q 15.875 39.890625 15.1875 32.171875 
z
" id="DejaVuSans-101"/>
       <path d="M 9.421875 75.984375 
L 18.40625 75.984375 
L 18.40625 0 
L 9.421875 0 
z
" id="DejaVuSans-108"/>
       <path d="M 44.28125 53.078125 
L 44.28125 44.578125 
Q 40.484375 46.53125 36.375 47.5 
Q 32.28125 48.484375 27.875 48.484375 
Q 21.1875 48.484375 17.84375 46.4375 
Q 14.5 44.390625 14.5 40.28125 
Q 14.5 37.15625 16.890625 35.375 
Q 19.28125 33.59375 26.515625 31.984375 
L 29.59375 31.296875 
Q 39.15625 29.25 43.1875 25.515625 
Q 47.21875 21.78125 47.21875 15.09375 
Q 47.21875 7.46875 41.1875 3.015625 
Q 35.15625 -1.421875 24.609375 -1.421875 
Q 20.21875 -1.421875 15.453125 -0.5625 
Q 10.6875 0.296875 5.421875 2 
L 5.421875 11.28125 
Q 10.40625 8.6875 15.234375 7.390625 
Q 20.0625 6.109375 24.8125 6.109375 
Q 31.15625 6.109375 34.5625 8.28125 
Q 37.984375 10.453125 37.984375 14.40625 
Q 37.984375 18.0625 35.515625 20.015625 
Q 33.0625 21.96875 24.703125 23.78125 
L 21.578125 24.515625 
Q 13.234375 26.265625 9.515625 29.90625 
Q 5.8125 33.546875 5.8125 39.890625 
Q 5.8125 47.609375 11.28125 51.796875 
Q 16.75 56 26.8125 56 
Q 31.78125 56 36.171875 55.265625 
Q 40.578125 54.546875 44.28125 53.078125 
z
" id="DejaVuSans-115"/>
      </defs>
      <use xlink:href="#DejaVuSans-67"/>
      <use x="69.824219" xlink:href="#DejaVuSans-104"/>
      <use x="133.203125" xlink:href="#DejaVuSans-97"/>
      <use x="194.482422" xlink:href="#DejaVuSans-110"/>
      <use x="257.861328" xlink:href="#DejaVuSans-110"/>
      <use x="321.240234" xlink:href="#DejaVuSans-101"/>
      <use x="382.763672" xlink:href="#DejaVuSans-108"/>
      <use x="410.546875" xlink:href="#DejaVuSans-115"/>
     </g>
    </g>
   </g>
   <g id="matplotlib.axis_2">
    <g id="ytick_1">
     <g id="line2d_42">
      <path clip-path="url(#p10f923499b)" d="M 40.603125 576.718125 
L 1100.803125 576.718125 
" style="fill:none;stroke:#b0b0b0;stroke-linecap:square;stroke-width:0.8;"/>
     </g>
     <g id="line2d_43">
      <defs>
       <path d="M 0 0 
L -3.5 0 
" id="m871d8084e5" style="stroke:#000000;stroke-width:0.8;"/>
      </defs>
      <g>
       <use style="stroke:#000000;stroke-width:0.8;" x="40.603125" xlink:href="#m871d8084e5" y="576.718125"/>
      </g>
     </g>
     <g id="text_9">
      <!-- 0 -->
      <g transform="translate(27.240625 580.517344)scale(0.1 -0.1)">
       <use xlink:href="#DejaVuSans-48"/>
      </g>
     </g>
    </g>
    <g id="ytick_2">
     <g id="line2d_44">
      <path clip-path="url(#p10f923499b)" d="M 40.603125 466.937541 
L 1100.803125 466.937541 
" style="fill:none;stroke:#b0b0b0;stroke-linecap:square;stroke-width:0.8;"/>
     </g>
     <g id="line2d_45">
      <g>
       <use style="stroke:#000000;stroke-width:0.8;" x="40.603125" xlink:href="#m871d8084e5" y="466.937541"/>
      </g>
     </g>
     <g id="text_10">
      <!-- 10 -->
      <g transform="translate(20.878125 470.736759)scale(0.1 -0.1)">
       <use xlink:href="#DejaVuSans-49"/>
       <use x="63.623047" xlink:href="#DejaVuSans-48"/>
      </g>
     </g>
    </g>
    <g id="ytick_3">
     <g id="line2d_46">
      <path clip-path="url(#p10f923499b)" d="M 40.603125 357.156956 
L 1100.803125 357.156956 
" style="fill:none;stroke:#b0b0b0;stroke-linecap:square;stroke-width:0.8;"/>
     </g>
     <g id="line2d_47">
      <g>
       <use style="stroke:#000000;stroke-width:0.8;" x="40.603125" xlink:href="#m871d8084e5" y="357.156956"/>
      </g>
     </g>
     <g id="text_11">
      <!-- 20 -->
      <g transform="translate(20.878125 360.956175)scale(0.1 -0.1)">
       <use xlink:href="#DejaVuSans-50"/>
       <use x="63.623047" xlink:href="#DejaVuSans-48"/>
      </g>
     </g>
    </g>
    <g id="ytick_4">
     <g id="line2d_48">
      <path clip-path="url(#p10f923499b)" d="M 40.603125 247.376372 
L 1100.803125 247.376372 
" style="fill:none;stroke:#b0b0b0;stroke-linecap:square;stroke-width:0.8;"/>
     </g>
     <g id="line2d_49">
      <g>
       <use style="stroke:#000000;stroke-width:0.8;" x="40.603125" xlink:href="#m871d8084e5" y="247.376372"/>
      </g>
     </g>
     <g id="text_12">
      <!-- 30 -->
      <g transform="translate(20.878125 251.17559)scale(0.1 -0.1)">
       <use xlink:href="#DejaVuSans-51"/>
       <use x="63.623047" xlink:href="#DejaVuSans-48"/>
      </g>
     </g>
    </g>
    <g id="ytick_5">
     <g id="line2d_50">
      <path clip-path="url(#p10f923499b)" d="M 40.603125 137.595787 
L 1100.803125 137.595787 
" style="fill:none;stroke:#b0b0b0;stroke-linecap:square;stroke-width:0.8;"/>
     </g>
     <g id="line2d_51">
      <g>
       <use style="stroke:#000000;stroke-width:0.8;" x="40.603125" xlink:href="#m871d8084e5" y="137.595787"/>
      </g>
     </g>
     <g id="text_13">
      <!-- 40 -->
      <g transform="translate(20.878125 141.395006)scale(0.1 -0.1)">
       <defs>
        <path d="M 37.796875 64.3125 
L 12.890625 25.390625 
L 37.796875 25.390625 
z
M 35.203125 72.90625 
L 47.609375 72.90625 
L 47.609375 25.390625 
L 58.015625 25.390625 
L 58.015625 17.1875 
L 47.609375 17.1875 
L 47.609375 0 
L 37.796875 0 
L 37.796875 17.1875 
L 4.890625 17.1875 
L 4.890625 26.703125 
z
" id="DejaVuSans-52"/>
       </defs>
       <use xlink:href="#DejaVuSans-52"/>
       <use x="63.623047" xlink:href="#DejaVuSans-48"/>
      </g>
     </g>
    </g>
    <g id="ytick_6">
     <g id="line2d_52">
      <path clip-path="url(#p10f923499b)" d="M 40.603125 27.815203 
L 1100.803125 27.815203 
" style="fill:none;stroke:#b0b0b0;stroke-linecap:square;stroke-width:0.8;"/>
     </g>
     <g id="line2d_53">
      <g>
       <use style="stroke:#000000;stroke-width:0.8;" x="40.603125" xlink:href="#m871d8084e5" y="27.815203"/>
      </g>
     </g>
     <g id="text_14">
      <!-- 50 -->
      <g transform="translate(20.878125 31.614421)scale(0.1 -0.1)">
       <use xlink:href="#DejaVuSans-53"/>
       <use x="63.623047" xlink:href="#DejaVuSans-48"/>
      </g>
     </g>
    </g>
    <g id="text_15">
     <!-- FWHM ENC [keV] -->
     <g transform="translate(14.798438 342.093906)rotate(-90)scale(0.1 -0.1)">
      <defs>
       <path d="M 9.8125 72.90625 
L 51.703125 72.90625 
L 51.703125 64.59375 
L 19.671875 64.59375 
L 19.671875 43.109375 
L 48.578125 43.109375 
L 48.578125 34.8125 
L 19.671875 34.8125 
L 19.671875 0 
L 9.8125 0 
z
" id="DejaVuSans-70"/>
       <path d="M 3.328125 72.90625 
L 13.28125 72.90625 
L 28.609375 11.28125 
L 43.890625 72.90625 
L 54.984375 72.90625 
L 70.3125 11.28125 
L 85.59375 72.90625 
L 95.609375 72.90625 
L 77.296875 0 
L 64.890625 0 
L 49.515625 63.28125 
L 33.984375 0 
L 21.578125 0 
z
" id="DejaVuSans-87"/>
       <path d="M 9.8125 72.90625 
L 19.671875 72.90625 
L 19.671875 43.015625 
L 55.515625 43.015625 
L 55.515625 72.90625 
L 65.375 72.90625 
L 65.375 0 
L 55.515625 0 
L 55.515625 34.71875 
L 19.671875 34.71875 
L 19.671875 0 
L 9.8125 0 
z
" id="DejaVuSans-72"/>
       <path d="M 9.8125 72.90625 
L 24.515625 72.90625 
L 43.109375 23.296875 
L 61.8125 72.90625 
L 76.515625 72.90625 
L 76.515625 0 
L 66.890625 0 
L 66.890625 64.015625 
L 48.09375 14.015625 
L 38.1875 14.015625 
L 19.390625 64.015625 
L 19.390625 0 
L 9.8125 0 
z
" id="DejaVuSans-77"/>
       <path id="DejaVuSans-32"/>
       <path d="M 9.8125 72.90625 
L 55.90625 72.90625 
L 55.90625 64.59375 
L 19.671875 64.59375 
L 19.671875 43.015625 
L 54.390625 43.015625 
L 54.390625 34.71875 
L 19.671875 34.71875 
L 19.671875 8.296875 
L 56.78125 8.296875 
L 56.78125 0 
L 9.8125 0 
z
" id="DejaVuSans-69"/>
       <path d="M 9.8125 72.90625 
L 23.09375 72.90625 
L 55.421875 11.921875 
L 55.421875 72.90625 
L 64.984375 72.90625 
L 64.984375 0 
L 51.703125 0 
L 19.390625 60.984375 
L 19.390625 0 
L 9.8125 0 
z
" id="DejaVuSans-78"/>
       <path d="M 8.59375 75.984375 
L 29.296875 75.984375 
L 29.296875 69 
L 17.578125 69 
L 17.578125 -6.203125 
L 29.296875 -6.203125 
L 29.296875 -13.1875 
L 8.59375 -13.1875 
z
" id="DejaVuSans-91"/>
       <path d="M 9.078125 75.984375 
L 18.109375 75.984375 
L 18.109375 31.109375 
L 44.921875 54.6875 
L 56.390625 54.6875 
L 27.390625 29.109375 
L 57.625 0 
L 45.90625 0 
L 18.109375 26.703125 
L 18.109375 0 
L 9.078125 0 
z
" id="DejaVuSans-107"/>
       <path d="M 28.609375 0 
L 0.78125 72.90625 
L 11.078125 72.90625 
L 34.1875 11.53125 
L 57.328125 72.90625 
L 67.578125 72.90625 
L 39.796875 0 
z
" id="DejaVuSans-86"/>
       <path d="M 30.421875 75.984375 
L 30.421875 -13.1875 
L 9.71875 -13.1875 
L 9.71875 -6.203125 
L 21.390625 -6.203125 
L 21.390625 69 
L 9.71875 69 
L 9.71875 75.984375 
z
" id="DejaVuSans-93"/>
      </defs>
      <use xlink:href="#DejaVuSans-70"/>
      <use x="57.519531" xlink:href="#DejaVuSans-87"/>
      <use x="156.396484" xlink:href="#DejaVuSans-72"/>
      <use x="231.591797" xlink:href="#DejaVuSans-77"/>
      <use x="317.871094" xlink:href="#DejaVuSans-32"/>
      <use x="349.658203" xlink:href="#DejaVuSans-69"/>
      <use x="412.841797" xlink:href="#DejaVuSans-78"/>
      <use x="487.646484" xlink:href="#DejaVuSans-67"/>
      <use x="557.470703" xlink:href="#DejaVuSans-32"/>
      <use x="589.257812" xlink:href="#DejaVuSans-91"/>
      <use x="628.271484" xlink:href="#DejaVuSans-107"/>
      <use x="682.556641" xlink:href="#DejaVuSans-101"/>
      <use x="744.080078" xlink:href="#DejaVuSans-86"/>
      <use x="812.488281" xlink:href="#DejaVuSans-93"/>
     </g>
    </g>
   </g>
   <g id="patch_259">
    <path d="M 40.603125 576.718125 
L 40.603125 22.318125 
" style="fill:none;stroke:#000000;stroke-linecap:square;stroke-linejoin:miter;stroke-width:0.8;"/>
   </g>
   <g id="patch_260">
    <path d="M 1100.803125 576.718125 
L 1100.803125 22.318125 
" style="fill:none;stroke:#000000;stroke-linecap:square;stroke-linejoin:miter;stroke-width:0.8;"/>
   </g>
   <g id="patch_261">
    <path d="M 40.603125 576.718125 
L 1100.803125 576.718125 
" style="fill:none;stroke:#000000;stroke-linecap:square;stroke-linejoin:miter;stroke-width:0.8;"/>
   </g>
   <g id="patch_262">
    <path d="M 40.603125 22.318125 
L 1100.803125 22.318125 
" style="fill:none;stroke:#000000;stroke-linecap:square;stroke-linejoin:miter;stroke-width:0.8;"/>
   </g>
   <g id="text_16">
    <!-- FWHM ENC [keV] (Pedestal rms / Gain with linear fit slope) -->
    <g transform="translate(395.316563 16.318125)scale(0.12 -0.12)">
     <defs>
      <path d="M 31 75.875 
Q 24.46875 64.65625 21.28125 53.65625 
Q 18.109375 42.671875 18.109375 31.390625 
Q 18.109375 20.125 21.3125 9.0625 
Q 24.515625 -2 31 -13.1875 
L 23.1875 -13.1875 
Q 15.875 -1.703125 12.234375 9.375 
Q 8.59375 20.453125 8.59375 31.390625 
Q 8.59375 42.28125 12.203125 53.3125 
Q 15.828125 64.359375 23.1875 75.875 
z
" id="DejaVuSans-40"/>
      <path d="M 19.671875 64.796875 
L 19.671875 37.40625 
L 32.078125 37.40625 
Q 38.96875 37.40625 42.71875 40.96875 
Q 46.484375 44.53125 46.484375 51.125 
Q 46.484375 57.671875 42.71875 61.234375 
Q 38.96875 64.796875 32.078125 64.796875 
z
M 9.8125 72.90625 
L 32.078125 72.90625 
Q 44.34375 72.90625 50.609375 67.359375 
Q 56.890625 61.8125 56.890625 51.125 
Q 56.890625 40.328125 50.609375 34.8125 
Q 44.34375 29.296875 32.078125 29.296875 
L 19.671875 29.296875 
L 19.671875 0 
L 9.8125 0 
z
" id="DejaVuSans-80"/>
      <path d="M 45.40625 46.390625 
L 45.40625 75.984375 
L 54.390625 75.984375 
L 54.390625 0 
L 45.40625 0 
L 45.40625 8.203125 
Q 42.578125 3.328125 38.25 0.953125 
Q 33.9375 -1.421875 27.875 -1.421875 
Q 17.96875 -1.421875 11.734375 6.484375 
Q 5.515625 14.40625 5.515625 27.296875 
Q 5.515625 40.1875 11.734375 48.09375 
Q 17.96875 56 27.875 56 
Q 33.9375 56 38.25 53.625 
Q 42.578125 51.265625 45.40625 46.390625 
z
M 14.796875 27.296875 
Q 14.796875 17.390625 18.875 11.75 
Q 22.953125 6.109375 30.078125 6.109375 
Q 37.203125 6.109375 41.296875 11.75 
Q 45.40625 17.390625 45.40625 27.296875 
Q 45.40625 37.203125 41.296875 42.84375 
Q 37.203125 48.484375 30.078125 48.484375 
Q 22.953125 48.484375 18.875 42.84375 
Q 14.796875 37.203125 14.796875 27.296875 
z
" id="DejaVuSans-100"/>
      <path d="M 18.3125 70.21875 
L 18.3125 54.6875 
L 36.8125 54.6875 
L 36.8125 47.703125 
L 18.3125 47.703125 
L 18.3125 18.015625 
Q 18.3125 11.328125 20.140625 9.421875 
Q 21.96875 7.515625 27.59375 7.515625 
L 36.8125 7.515625 
L 36.8125 0 
L 27.59375 0 
Q 17.1875 0 13.234375 3.875 
Q 9.28125 7.765625 9.28125 18.015625 
L 9.28125 47.703125 
L 2.6875 47.703125 
L 2.6875 54.6875 
L 9.28125 54.6875 
L 9.28125 70.21875 
z
" id="DejaVuSans-116"/>
      <path d="M 41.109375 46.296875 
Q 39.59375 47.171875 37.8125 47.578125 
Q 36.03125 48 33.890625 48 
Q 26.265625 48 22.1875 43.046875 
Q 18.109375 38.09375 18.109375 28.8125 
L 18.109375 0 
L 9.078125 0 
L 9.078125 54.6875 
L 18.109375 54.6875 
L 18.109375 46.1875 
Q 20.953125 51.171875 25.484375 53.578125 
Q 30.03125 56 36.53125 56 
Q 37.453125 56 38.578125 55.875 
Q 39.703125 55.765625 41.0625 55.515625 
z
" id="DejaVuSans-114"/>
      <path d="M 52 44.1875 
Q 55.375 50.25 60.0625 53.125 
Q 64.75 56 71.09375 56 
Q 79.640625 56 84.28125 50.015625 
Q 88.921875 44.046875 88.921875 33.015625 
L 88.921875 0 
L 79.890625 0 
L 79.890625 32.71875 
Q 79.890625 40.578125 77.09375 44.375 
Q 74.3125 48.1875 68.609375 48.1875 
Q 61.625 48.1875 57.5625 43.546875 
Q 53.515625 38.921875 53.515625 30.90625 
L 53.515625 0 
L 44.484375 0 
L 44.484375 32.71875 
Q 44.484375 40.625 41.703125 44.40625 
Q 38.921875 48.1875 33.109375 48.1875 
Q 26.21875 48.1875 22.15625 43.53125 
Q 18.109375 38.875 18.109375 30.90625 
L 18.109375 0 
L 9.078125 0 
L 9.078125 54.6875 
L 18.109375 54.6875 
L 18.109375 46.1875 
Q 21.1875 51.21875 25.484375 53.609375 
Q 29.78125 56 35.6875 56 
Q 41.65625 56 45.828125 52.96875 
Q 50 49.953125 52 44.1875 
z
" id="DejaVuSans-109"/>
      <path d="M 25.390625 72.90625 
L 33.6875 72.90625 
L 8.296875 -9.28125 
L 0 -9.28125 
z
" id="DejaVuSans-47"/>
      <path d="M 59.515625 10.40625 
L 59.515625 29.984375 
L 43.40625 29.984375 
L 43.40625 38.09375 
L 69.28125 38.09375 
L 69.28125 6.78125 
Q 63.578125 2.734375 56.6875 0.65625 
Q 49.8125 -1.421875 42 -1.421875 
Q 24.90625 -1.421875 15.25 8.5625 
Q 5.609375 18.5625 5.609375 36.375 
Q 5.609375 54.25 15.25 64.234375 
Q 24.90625 74.21875 42 74.21875 
Q 49.125 74.21875 55.546875 72.453125 
Q 61.96875 70.703125 67.390625 67.28125 
L 67.390625 56.78125 
Q 61.921875 61.421875 55.765625 63.765625 
Q 49.609375 66.109375 42.828125 66.109375 
Q 29.4375 66.109375 22.71875 58.640625 
Q 16.015625 51.171875 16.015625 36.375 
Q 16.015625 21.625 22.71875 14.15625 
Q 29.4375 6.6875 42.828125 6.6875 
Q 48.046875 6.6875 52.140625 7.59375 
Q 56.25 8.5 59.515625 10.40625 
z
" id="DejaVuSans-71"/>
      <path d="M 9.421875 54.6875 
L 18.40625 54.6875 
L 18.40625 0 
L 9.421875 0 
z
M 9.421875 75.984375 
L 18.40625 75.984375 
L 18.40625 64.59375 
L 9.421875 64.59375 
z
" id="DejaVuSans-105"/>
      <path d="M 4.203125 54.6875 
L 13.1875 54.6875 
L 24.421875 12.015625 
L 35.59375 54.6875 
L 46.1875 54.6875 
L 57.421875 12.015625 
L 68.609375 54.6875 
L 77.59375 54.6875 
L 63.28125 0 
L 52.6875 0 
L 40.921875 44.828125 
L 29.109375 0 
L 18.5 0 
z
" id="DejaVuSans-119"/>
      <path d="M 37.109375 75.984375 
L 37.109375 68.5 
L 28.515625 68.5 
Q 23.6875 68.5 21.796875 66.546875 
Q 19.921875 64.59375 19.921875 59.515625 
L 19.921875 54.6875 
L 34.71875 54.6875 
L 34.71875 47.703125 
L 19.921875 47.703125 
L 19.921875 0 
L 10.890625 0 
L 10.890625 47.703125 
L 2.296875 47.703125 
L 2.296875 54.6875 
L 10.890625 54.6875 
L 10.890625 58.5 
Q 10.890625 67.625 15.140625 71.796875 
Q 19.390625 75.984375 28.609375 75.984375 
z
" id="DejaVuSans-102"/>
      <path d="M 30.609375 48.390625 
Q 23.390625 48.390625 19.1875 42.75 
Q 14.984375 37.109375 14.984375 27.296875 
Q 14.984375 17.484375 19.15625 11.84375 
Q 23.34375 6.203125 30.609375 6.203125 
Q 37.796875 6.203125 41.984375 11.859375 
Q 46.1875 17.53125 46.1875 27.296875 
Q 46.1875 37.015625 41.984375 42.703125 
Q 37.796875 48.390625 30.609375 48.390625 
z
M 30.609375 56 
Q 42.328125 56 49.015625 48.375 
Q 55.71875 40.765625 55.71875 27.296875 
Q 55.71875 13.875 49.015625 6.21875 
Q 42.328125 -1.421875 30.609375 -1.421875 
Q 18.84375 -1.421875 12.171875 6.21875 
Q 5.515625 13.875 5.515625 27.296875 
Q 5.515625 40.765625 12.171875 48.375 
Q 18.84375 56 30.609375 56 
z
" id="DejaVuSans-111"/>
      <path d="M 18.109375 8.203125 
L 18.109375 -20.796875 
L 9.078125 -20.796875 
L 9.078125 54.6875 
L 18.109375 54.6875 
L 18.109375 46.390625 
Q 20.953125 51.265625 25.265625 53.625 
Q 29.59375 56 35.59375 56 
Q 45.5625 56 51.78125 48.09375 
Q 58.015625 40.1875 58.015625 27.296875 
Q 58.015625 14.40625 51.78125 6.484375 
Q 45.5625 -1.421875 35.59375 -1.421875 
Q 29.59375 -1.421875 25.265625 0.953125 
Q 20.953125 3.328125 18.109375 8.203125 
z
M 48.6875 27.296875 
Q 48.6875 37.203125 44.609375 42.84375 
Q 40.53125 48.484375 33.40625 48.484375 
Q 26.265625 48.484375 22.1875 42.84375 
Q 18.109375 37.203125 18.109375 27.296875 
Q 18.109375 17.390625 22.1875 11.75 
Q 26.265625 6.109375 33.40625 6.109375 
Q 40.53125 6.109375 44.609375 11.75 
Q 48.6875 17.390625 48.6875 27.296875 
z
" id="DejaVuSans-112"/>
      <path d="M 8.015625 75.875 
L 15.828125 75.875 
Q 23.140625 64.359375 26.78125 53.3125 
Q 30.421875 42.28125 30.421875 31.390625 
Q 30.421875 20.453125 26.78125 9.375 
Q 23.140625 -1.703125 15.828125 -13.1875 
L 8.015625 -13.1875 
Q 14.5 -2 17.703125 9.0625 
Q 20.90625 20.125 20.90625 31.390625 
Q 20.90625 42.671875 17.703125 53.65625 
Q 14.5 64.65625 8.015625 75.875 
z
" id="DejaVuSans-41"/>
     </defs>
     <use xlink:href="#DejaVuSans-70"/>
     <use x="57.519531" xlink:href="#DejaVuSans-87"/>
     <use x="156.396484" xlink:href="#DejaVuSans-72"/>
     <use x="231.591797" xlink:href="#DejaVuSans-77"/>
     <use x="317.871094" xlink:href="#DejaVuSans-32"/>
     <use x="349.658203" xlink:href="#DejaVuSans-69"/>
     <use x="412.841797" xlink:href="#DejaVuSans-78"/>
     <use x="487.646484" xlink:href="#DejaVuSans-67"/>
     <use x="557.470703" xlink:href="#DejaVuSans-32"/>
     <use x="589.257812" xlink:href="#DejaVuSans-91"/>
     <use x="628.271484" xlink:href="#DejaVuSans-107"/>
     <use x="682.556641" xlink:href="#DejaVuSans-101"/>
     <use x="744.080078" xlink:href="#DejaVuSans-86"/>
     <use x="812.488281" xlink:href="#DejaVuSans-93"/>
     <use x="851.501953" xlink:href="#DejaVuSans-32"/>
     <use x="883.289062" xlink:href="#DejaVuSans-40"/>
     <use x="922.302734" xlink:href="#DejaVuSans-80"/>
     <use x="978.980469" xlink:href="#DejaVuSans-101"/>
     <use x="1040.503906" xlink:href="#DejaVuSans-100"/>
     <use x="1103.980469" xlink:href="#DejaVuSans-101"/>
     <use x="1165.503906" xlink:href="#DejaVuSans-115"/>
     <use x="1217.603516" xlink:href="#DejaVuSans-116"/>
     <use x="1256.8125" xlink:href="#DejaVuSans-97"/>
     <use x="1318.091797" xlink:href="#DejaVuSans-108"/>
     <use x="1345.875" xlink:href="#DejaVuSans-32"/>
     <use x="1377.662109" xlink:href="#DejaVuSans-114"/>
     <use x="1417.025391" xlink:href="#DejaVuSans-109"/>
     <use x="1514.4375" xlink:href="#DejaVuSans-115"/>
     <use x="1566.537109" xlink:href="#DejaVuSans-32"/>
     <use x="1598.324219" xlink:href="#DejaVuSans-47"/>
     <use x="1632.015625" xlink:href="#DejaVuSans-32"/>
     <use x="1663.802734" xlink:href="#DejaVuSans-71"/>
     <use x="1741.292969" xlink:href="#DejaVuSans-97"/>
     <use x="1802.572266" xlink:href="#DejaVuSans-105"/>
     <use x="1830.355469" xlink:href="#DejaVuSans-110"/>
     <use x="1893.734375" xlink:href="#DejaVuSans-32"/>
     <use x="1925.521484" xlink:href="#DejaVuSans-119"/>
     <use x="2007.308594" xlink:href="#DejaVuSans-105"/>
     <use x="2035.091797" xlink:href="#DejaVuSans-116"/>
     <use x="2074.300781" xlink:href="#DejaVuSans-104"/>
     <use x="2137.679688" xlink:href="#DejaVuSans-32"/>
     <use x="2169.466797" xlink:href="#DejaVuSans-108"/>
     <use x="2197.25" xlink:href="#DejaVuSans-105"/>
     <use x="2225.033203" xlink:href="#DejaVuSans-110"/>
     <use x="2288.412109" xlink:href="#DejaVuSans-101"/>
     <use x="2349.935547" xlink:href="#DejaVuSans-97"/>
     <use x="2411.214844" xlink:href="#DejaVuSans-114"/>
     <use x="2452.328125" xlink:href="#DejaVuSans-32"/>
     <use x="2484.115234" xlink:href="#DejaVuSans-102"/>
     <use x="2519.320312" xlink:href="#DejaVuSans-105"/>
     <use x="2547.103516" xlink:href="#DejaVuSans-116"/>
     <use x="2586.3125" xlink:href="#DejaVuSans-32"/>
     <use x="2618.099609" xlink:href="#DejaVuSans-115"/>
     <use x="2670.199219" xlink:href="#DejaVuSans-108"/>
     <use x="2697.982422" xlink:href="#DejaVuSans-111"/>
     <use x="2759.164062" xlink:href="#DejaVuSans-112"/>
     <use x="2822.640625" xlink:href="#DejaVuSans-101"/>
     <use x="2884.164062" xlink:href="#DejaVuSans-41"/>
    </g>
   </g>
   <g id="legend_1">
    <g id="patch_263">
     <path d="M 1119.615125 359.730625 
L 1162.415125 359.730625 
Q 1164.415125 359.730625 1164.415125 357.730625 
L 1164.415125 241.305625 
Q 1164.415125 239.305625 1162.415125 239.305625 
L 1119.615125 239.305625 
Q 1117.615125 239.305625 1117.615125 241.305625 
L 1117.615125 357.730625 
Q 1117.615125 359.730625 1119.615125 359.730625 
z
" style="fill:#ffffff;opacity:0.8;stroke:#cccccc;stroke-linejoin:miter;"/>
    </g>
    <g id="patch_264">
     <path d="M 1121.615125 250.904063 
L 1141.615125 250.904063 
L 1141.615125 243.904063 
L 1121.615125 243.904063 
z
" style="fill:#1f77b4;"/>
    </g>
    <g id="text_17">
     <!-- $\tau_0$ -->
     <g transform="translate(1149.615125 250.904063)scale(0.1 -0.1)">
      <defs>
       <path d="M 32.859375 9.96875 
Q 34.1875 7.625 39.453125 7.625 
L 43.75 7.625 
L 42.28125 0 
L 36.921875 0 
Q 28.125 0 25 4.6875 
Q 21.921875 9.46875 23.96875 19.828125 
L 29 45.703125 
L 8.453125 45.703125 
L 10.203125 54.6875 
L 60.640625 54.6875 
L 58.890625 45.703125 
L 38.1875 45.703125 
L 33.015625 19.28125 
Q 31.640625 12.203125 32.859375 9.96875 
z
" id="DejaVuSans-Oblique-964"/>
      </defs>
      <use transform="translate(0 0.3125)" xlink:href="#DejaVuSans-Oblique-964"/>
      <use transform="translate(60.205078 -16.09375)scale(0.7)" xlink:href="#DejaVuSans-48"/>
     </g>
    </g>
    <g id="patch_265">
     <path d="M 1121.615125 265.582188 
L 1141.615125 265.582188 
L 1141.615125 258.582188 
L 1121.615125 258.582188 
z
" style="fill:#ff7f0e;"/>
    </g>
    <g id="text_18">
     <!-- $\tau_1$ -->
     <g transform="translate(1149.615125 265.582188)scale(0.1 -0.1)">
      <use transform="translate(0 0.3125)" xlink:href="#DejaVuSans-Oblique-964"/>
      <use transform="translate(60.205078 -16.09375)scale(0.7)" xlink:href="#DejaVuSans-49"/>
     </g>
    </g>
    <g id="patch_266">
     <path d="M 1121.615125 280.260313 
L 1141.615125 280.260313 
L 1141.615125 273.260313 
L 1121.615125 273.260313 
z
" style="fill:#2ca02c;"/>
    </g>
    <g id="text_19">
     <!-- $\tau_2$ -->
     <g transform="translate(1149.615125 280.260313)scale(0.1 -0.1)">
      <use transform="translate(0 0.3125)" xlink:href="#DejaVuSans-Oblique-964"/>
      <use transform="translate(60.205078 -16.09375)scale(0.7)" xlink:href="#DejaVuSans-50"/>
     </g>
    </g>
    <g id="patch_267">
     <path d="M 1121.615125 294.938438 
L 1141.615125 294.938438 
L 1141.615125 287.938438 
L 1121.615125 287.938438 
z
" style="fill:#d62728;"/>
    </g>
    <g id="text_20">
     <!-- $\tau_3$ -->
     <g transform="translate(1149.615125 294.938438)scale(0.1 -0.1)">
      <use transform="translate(0 0.3125)" xlink:href="#DejaVuSans-Oblique-964"/>
      <use transform="translate(60.205078 -16.09375)scale(0.7)" xlink:href="#DejaVuSans-51"/>
     </g>
    </g>
    <g id="patch_268">
     <path d="M 1121.615125 309.616563 
L 1141.615125 309.616563 
L 1141.615125 302.616563 
L 1121.615125 302.616563 
z
" style="fill:#9467bd;"/>
    </g>
    <g id="text_21">
     <!-- $\tau_4$ -->
     <g transform="translate(1149.615125 309.616563)scale(0.1 -0.1)">
      <use transform="translate(0 0.3125)" xlink:href="#DejaVuSans-Oblique-964"/>
      <use transform="translate(60.205078 -16.09375)scale(0.7)" xlink:href="#DejaVuSans-52"/>
     </g>
    </g>
    <g id="patch_269">
     <path d="M 1121.615125 324.294688 
L 1141.615125 324.294688 
L 1141.615125 317.294688 
L 1121.615125 317.294688 
z
" style="fill:#8c564b;"/>
    </g>
    <g id="text_22">
     <!-- $\tau_5$ -->
     <g transform="translate(1149.615125 324.294688)scale(0.1 -0.1)">
      <use transform="translate(0 0.3125)" xlink:href="#DejaVuSans-Oblique-964"/>
      <use transform="translate(60.205078 -16.09375)scale(0.7)" xlink:href="#DejaVuSans-53"/>
     </g>
    </g>
    <g id="patch_270">
     <path d="M 1121.615125 338.972813 
L 1141.615125 338.972813 
L 1141.615125 331.972813 
L 1121.615125 331.972813 
z
" style="fill:#e377c2;"/>
    </g>
    <g id="text_23">
     <!-- $\tau_6$ -->
     <g transform="translate(1149.615125 338.972813)scale(0.1 -0.1)">
      <defs>
       <path d="M 33.015625 40.375 
Q 26.375 40.375 22.484375 35.828125 
Q 18.609375 31.296875 18.609375 23.390625 
Q 18.609375 15.53125 22.484375 10.953125 
Q 26.375 6.390625 33.015625 6.390625 
Q 39.65625 6.390625 43.53125 10.953125 
Q 47.40625 15.53125 47.40625 23.390625 
Q 47.40625 31.296875 43.53125 35.828125 
Q 39.65625 40.375 33.015625 40.375 
z
M 52.59375 71.296875 
L 52.59375 62.3125 
Q 48.875 64.0625 45.09375 64.984375 
Q 41.3125 65.921875 37.59375 65.921875 
Q 27.828125 65.921875 22.671875 59.328125 
Q 17.53125 52.734375 16.796875 39.40625 
Q 19.671875 43.65625 24.015625 45.921875 
Q 28.375 48.1875 33.59375 48.1875 
Q 44.578125 48.1875 50.953125 41.515625 
Q 57.328125 34.859375 57.328125 23.390625 
Q 57.328125 12.15625 50.6875 5.359375 
Q 44.046875 -1.421875 33.015625 -1.421875 
Q 20.359375 -1.421875 13.671875 8.265625 
Q 6.984375 17.96875 6.984375 36.375 
Q 6.984375 53.65625 15.1875 63.9375 
Q 23.390625 74.21875 37.203125 74.21875 
Q 40.921875 74.21875 44.703125 73.484375 
Q 48.484375 72.75 52.59375 71.296875 
z
" id="DejaVuSans-54"/>
      </defs>
      <use transform="translate(0 0.3125)" xlink:href="#DejaVuSans-Oblique-964"/>
      <use transform="translate(60.205078 -16.09375)scale(0.7)" xlink:href="#DejaVuSans-54"/>
     </g>
    </g>
    <g id="patch_271">
     <path d="M 1121.615125 353.650938 
L 1141.615125 353.650938 
L 1141.615125 346.650938 
L 1121.615125 346.650938 
z
" style="fill:#7f7f7f;"/>
    </g>
    <g id="text_24">
     <!-- $\tau_7$ -->
     <g transform="translate(1149.615125 353.650938)scale(0.1 -0.1)">
      <defs>
       <path d="M 8.203125 72.90625 
L 55.078125 72.90625 
L 55.078125 68.703125 
L 28.609375 0 
L 18.3125 0 
L 43.21875 64.59375 
L 8.203125 64.59375 
z
" id="DejaVuSans-55"/>
      </defs>
      <use transform="translate(0 0.3125)" xlink:href="#DejaVuSans-Oblique-964"/>
      <use transform="translate(60.205078 -16.09375)scale(0.7)" xlink:href="#DejaVuSans-55"/>
     </g>
    </g>
   </g>
  </g>
 </g>
 <defs>
  <clipPath id="p10f923499b">
   <rect height="554.4" width="1060.2" x="40.603125" y="22.318125"/>
  </clipPath>
 </defs>
</svg>
