<?xml version="1.0" encoding="utf-8" standalone="no"?>
<!DOCTYPE svg PUBLIC "-//W3C//DTD SVG 1.1//EN"
  "http://www.w3.org/Graphics/SVG/1.1/DTD/svg11.dtd">
<!-- Created with matplotlib (https://matplotlib.org/) -->
<svg height="614.274375pt" version="1.1" viewBox="0 0 906.565125 614.274375" width="906.565125pt" xmlns="http://www.w3.org/2000/svg" xmlns:xlink="http://www.w3.org/1999/xlink">
 <metadata>
  <rdf:RDF xmlns:cc="http://creativecommons.org/ns#" xmlns:dc="http://purl.org/dc/elements/1.1/" xmlns:rdf="http://www.w3.org/1999/02/22-rdf-syntax-ns#">
   <cc:Work>
    <dc:type rdf:resource="http://purl.org/dc/dcmitype/StillImage"/>
    <dc:date>2022-12-07T16:00:44.497546</dc:date>
    <dc:format>image/svg+xml</dc:format>
    <dc:creator>
     <cc:Agent>
      <dc:title>Matplotlib v3.3.4, https://matplotlib.org/</dc:title>
     </cc:Agent>
    </dc:creator>
   </cc:Work>
  </rdf:RDF>
 </metadata>
 <defs>
  <style type="text/css">*{stroke-linecap:butt;stroke-linejoin:round;}</style>
 </defs>
 <g id="figure_1">
  <g id="patch_1">
   <path d="M 0 614.274375 
L 906.565125 614.274375 
L 906.565125 0 
L 0 0 
z
" style="fill:#ffffff;"/>
  </g>
  <g id="axes_1">
   <g id="patch_2">
    <path d="M 40.603125 576.718125 
L 835.753125 576.718125 
L 835.753125 22.318125 
L 40.603125 22.318125 
z
" style="fill:#ffffff;"/>
   </g>
   <g id="matplotlib.axis_1">
    <g id="xtick_1">
     <g id="line2d_1">
      <path clip-path="url(#pff4268b438)" d="M 76.746307 576.718125 
L 76.746307 22.318125 
" style="fill:none;stroke:#b0b0b0;stroke-linecap:square;stroke-width:0.8;"/>
     </g>
     <g id="line2d_2">
      <defs>
       <path d="M 0 0 
L 0 3.5 
" id="m506c248a04" style="stroke:#000000;stroke-width:0.8;"/>
      </defs>
      <g>
       <use style="stroke:#000000;stroke-width:0.8;" x="76.746307" xlink:href="#m506c248a04" y="576.718125"/>
      </g>
     </g>
     <g id="text_1">
      <!-- 0 -->
      <g transform="translate(73.565057 591.316563)scale(0.1 -0.1)">
       <defs>
        <path d="M 31.78125 66.40625 
Q 24.171875 66.40625 20.328125 58.90625 
Q 16.5 51.421875 16.5 36.375 
Q 16.5 21.390625 20.328125 13.890625 
Q 24.171875 6.390625 31.78125 6.390625 
Q 39.453125 6.390625 43.28125 13.890625 
Q 47.125 21.390625 47.125 36.375 
Q 47.125 51.421875 43.28125 58.90625 
Q 39.453125 66.40625 31.78125 66.40625 
z
M 31.78125 74.21875 
Q 44.046875 74.21875 50.515625 64.515625 
Q 56.984375 54.828125 56.984375 36.375 
Q 56.984375 17.96875 50.515625 8.265625 
Q 44.046875 -1.421875 31.78125 -1.421875 
Q 19.53125 -1.421875 13.0625 8.265625 
Q 6.59375 17.96875 6.59375 36.375 
Q 6.59375 54.828125 13.0625 64.515625 
Q 19.53125 74.21875 31.78125 74.21875 
z
" id="DejaVuSans-48"/>
       </defs>
       <use xlink:href="#DejaVuSans-48"/>
      </g>
     </g>
    </g>
    <g id="xtick_2">
     <g id="line2d_3">
      <path clip-path="url(#pff4268b438)" d="M 189.69375 576.718125 
L 189.69375 22.318125 
" style="fill:none;stroke:#b0b0b0;stroke-linecap:square;stroke-width:0.8;"/>
     </g>
     <g id="line2d_4">
      <g>
       <use style="stroke:#000000;stroke-width:0.8;" x="189.69375" xlink:href="#m506c248a04" y="576.718125"/>
      </g>
     </g>
     <g id="text_2">
      <!-- 5 -->
      <g transform="translate(186.5125 591.316563)scale(0.1 -0.1)">
       <defs>
        <path d="M 10.796875 72.90625 
L 49.515625 72.90625 
L 49.515625 64.59375 
L 19.828125 64.59375 
L 19.828125 46.734375 
Q 21.96875 47.46875 24.109375 47.828125 
Q 26.265625 48.1875 28.421875 48.1875 
Q 40.625 48.1875 47.75 41.5 
Q 54.890625 34.8125 54.890625 23.390625 
Q 54.890625 11.625 47.5625 5.09375 
Q 40.234375 -1.421875 26.90625 -1.421875 
Q 22.3125 -1.421875 17.546875 -0.640625 
Q 12.796875 0.140625 7.71875 1.703125 
L 7.71875 11.625 
Q 12.109375 9.234375 16.796875 8.0625 
Q 21.484375 6.890625 26.703125 6.890625 
Q 35.15625 6.890625 40.078125 11.328125 
Q 45.015625 15.765625 45.015625 23.390625 
Q 45.015625 31 40.078125 35.4375 
Q 35.15625 39.890625 26.703125 39.890625 
Q 22.75 39.890625 18.8125 39.015625 
Q 14.890625 38.140625 10.796875 36.28125 
z
" id="DejaVuSans-53"/>
       </defs>
       <use xlink:href="#DejaVuSans-53"/>
      </g>
     </g>
    </g>
    <g id="xtick_3">
     <g id="line2d_5">
      <path clip-path="url(#pff4268b438)" d="M 302.641193 576.718125 
L 302.641193 22.318125 
" style="fill:none;stroke:#b0b0b0;stroke-linecap:square;stroke-width:0.8;"/>
     </g>
     <g id="line2d_6">
      <g>
       <use style="stroke:#000000;stroke-width:0.8;" x="302.641193" xlink:href="#m506c248a04" y="576.718125"/>
      </g>
     </g>
     <g id="text_3">
      <!-- 10 -->
      <g transform="translate(296.278693 591.316563)scale(0.1 -0.1)">
       <defs>
        <path d="M 12.40625 8.296875 
L 28.515625 8.296875 
L 28.515625 63.921875 
L 10.984375 60.40625 
L 10.984375 69.390625 
L 28.421875 72.90625 
L 38.28125 72.90625 
L 38.28125 8.296875 
L 54.390625 8.296875 
L 54.390625 0 
L 12.40625 0 
z
" id="DejaVuSans-49"/>
       </defs>
       <use xlink:href="#DejaVuSans-49"/>
       <use x="63.623047" xlink:href="#DejaVuSans-48"/>
      </g>
     </g>
    </g>
    <g id="xtick_4">
     <g id="line2d_7">
      <path clip-path="url(#pff4268b438)" d="M 415.588636 576.718125 
L 415.588636 22.318125 
" style="fill:none;stroke:#b0b0b0;stroke-linecap:square;stroke-width:0.8;"/>
     </g>
     <g id="line2d_8">
      <g>
       <use style="stroke:#000000;stroke-width:0.8;" x="415.588636" xlink:href="#m506c248a04" y="576.718125"/>
      </g>
     </g>
     <g id="text_4">
      <!-- 15 -->
      <g transform="translate(409.226136 591.316563)scale(0.1 -0.1)">
       <use xlink:href="#DejaVuSans-49"/>
       <use x="63.623047" xlink:href="#DejaVuSans-53"/>
      </g>
     </g>
    </g>
    <g id="xtick_5">
     <g id="line2d_9">
      <path clip-path="url(#pff4268b438)" d="M 528.53608 576.718125 
L 528.53608 22.318125 
" style="fill:none;stroke:#b0b0b0;stroke-linecap:square;stroke-width:0.8;"/>
     </g>
     <g id="line2d_10">
      <g>
       <use style="stroke:#000000;stroke-width:0.8;" x="528.53608" xlink:href="#m506c248a04" y="576.718125"/>
      </g>
     </g>
     <g id="text_5">
      <!-- 20 -->
      <g transform="translate(522.17358 591.316563)scale(0.1 -0.1)">
       <defs>
        <path d="M 19.1875 8.296875 
L 53.609375 8.296875 
L 53.609375 0 
L 7.328125 0 
L 7.328125 8.296875 
Q 12.9375 14.109375 22.625 23.890625 
Q 32.328125 33.6875 34.8125 36.53125 
Q 39.546875 41.84375 41.421875 45.53125 
Q 43.3125 49.21875 43.3125 52.78125 
Q 43.3125 58.59375 39.234375 62.25 
Q 35.15625 65.921875 28.609375 65.921875 
Q 23.96875 65.921875 18.8125 64.3125 
Q 13.671875 62.703125 7.8125 59.421875 
L 7.8125 69.390625 
Q 13.765625 71.78125 18.9375 73 
Q 24.125 74.21875 28.421875 74.21875 
Q 39.75 74.21875 46.484375 68.546875 
Q 53.21875 62.890625 53.21875 53.421875 
Q 53.21875 48.921875 51.53125 44.890625 
Q 49.859375 40.875 45.40625 35.40625 
Q 44.1875 33.984375 37.640625 27.21875 
Q 31.109375 20.453125 19.1875 8.296875 
z
" id="DejaVuSans-50"/>
       </defs>
       <use xlink:href="#DejaVuSans-50"/>
       <use x="63.623047" xlink:href="#DejaVuSans-48"/>
      </g>
     </g>
    </g>
    <g id="xtick_6">
     <g id="line2d_11">
      <path clip-path="url(#pff4268b438)" d="M 641.483523 576.718125 
L 641.483523 22.318125 
" style="fill:none;stroke:#b0b0b0;stroke-linecap:square;stroke-width:0.8;"/>
     </g>
     <g id="line2d_12">
      <g>
       <use style="stroke:#000000;stroke-width:0.8;" x="641.483523" xlink:href="#m506c248a04" y="576.718125"/>
      </g>
     </g>
     <g id="text_6">
      <!-- 25 -->
      <g transform="translate(635.121023 591.316563)scale(0.1 -0.1)">
       <use xlink:href="#DejaVuSans-50"/>
       <use x="63.623047" xlink:href="#DejaVuSans-53"/>
      </g>
     </g>
    </g>
    <g id="xtick_7">
     <g id="line2d_13">
      <path clip-path="url(#pff4268b438)" d="M 754.430966 576.718125 
L 754.430966 22.318125 
" style="fill:none;stroke:#b0b0b0;stroke-linecap:square;stroke-width:0.8;"/>
     </g>
     <g id="line2d_14">
      <g>
       <use style="stroke:#000000;stroke-width:0.8;" x="754.430966" xlink:href="#m506c248a04" y="576.718125"/>
      </g>
     </g>
     <g id="text_7">
      <!-- 30 -->
      <g transform="translate(748.068466 591.316563)scale(0.1 -0.1)">
       <defs>
        <path d="M 40.578125 39.3125 
Q 47.65625 37.796875 51.625 33 
Q 55.609375 28.21875 55.609375 21.1875 
Q 55.609375 10.40625 48.1875 4.484375 
Q 40.765625 -1.421875 27.09375 -1.421875 
Q 22.515625 -1.421875 17.65625 -0.515625 
Q 12.796875 0.390625 7.625 2.203125 
L 7.625 11.71875 
Q 11.71875 9.328125 16.59375 8.109375 
Q 21.484375 6.890625 26.8125 6.890625 
Q 36.078125 6.890625 40.9375 10.546875 
Q 45.796875 14.203125 45.796875 21.1875 
Q 45.796875 27.640625 41.28125 31.265625 
Q 36.765625 34.90625 28.71875 34.90625 
L 20.21875 34.90625 
L 20.21875 43.015625 
L 29.109375 43.015625 
Q 36.375 43.015625 40.234375 45.921875 
Q 44.09375 48.828125 44.09375 54.296875 
Q 44.09375 59.90625 40.109375 62.90625 
Q 36.140625 65.921875 28.71875 65.921875 
Q 24.65625 65.921875 20.015625 65.03125 
Q 15.375 64.15625 9.8125 62.3125 
L 9.8125 71.09375 
Q 15.4375 72.65625 20.34375 73.4375 
Q 25.25 74.21875 29.59375 74.21875 
Q 40.828125 74.21875 47.359375 69.109375 
Q 53.90625 64.015625 53.90625 55.328125 
Q 53.90625 49.265625 50.4375 45.09375 
Q 46.96875 40.921875 40.578125 39.3125 
z
" id="DejaVuSans-51"/>
       </defs>
       <use xlink:href="#DejaVuSans-51"/>
       <use x="63.623047" xlink:href="#DejaVuSans-48"/>
      </g>
     </g>
    </g>
    <g id="xtick_8">
     <g id="line2d_15">
      <defs>
       <path d="M 0 0 
L 0 3 
" id="m8b472c1348" style="stroke:#000000;stroke-width:0.6;"/>
      </defs>
      <g>
       <use style="stroke:#000000;stroke-width:0.6;" x="54.156818" xlink:href="#m8b472c1348" y="576.718125"/>
      </g>
     </g>
    </g>
    <g id="xtick_9">
     <g id="line2d_16">
      <g>
       <use style="stroke:#000000;stroke-width:0.6;" x="99.335795" xlink:href="#m8b472c1348" y="576.718125"/>
      </g>
     </g>
    </g>
    <g id="xtick_10">
     <g id="line2d_17">
      <g>
       <use style="stroke:#000000;stroke-width:0.6;" x="121.925284" xlink:href="#m8b472c1348" y="576.718125"/>
      </g>
     </g>
    </g>
    <g id="xtick_11">
     <g id="line2d_18">
      <g>
       <use style="stroke:#000000;stroke-width:0.6;" x="144.514773" xlink:href="#m8b472c1348" y="576.718125"/>
      </g>
     </g>
    </g>
    <g id="xtick_12">
     <g id="line2d_19">
      <g>
       <use style="stroke:#000000;stroke-width:0.6;" x="167.104261" xlink:href="#m8b472c1348" y="576.718125"/>
      </g>
     </g>
    </g>
    <g id="xtick_13">
     <g id="line2d_20">
      <g>
       <use style="stroke:#000000;stroke-width:0.6;" x="212.283239" xlink:href="#m8b472c1348" y="576.718125"/>
      </g>
     </g>
    </g>
    <g id="xtick_14">
     <g id="line2d_21">
      <g>
       <use style="stroke:#000000;stroke-width:0.6;" x="234.872727" xlink:href="#m8b472c1348" y="576.718125"/>
      </g>
     </g>
    </g>
    <g id="xtick_15">
     <g id="line2d_22">
      <g>
       <use style="stroke:#000000;stroke-width:0.6;" x="257.462216" xlink:href="#m8b472c1348" y="576.718125"/>
      </g>
     </g>
    </g>
    <g id="xtick_16">
     <g id="line2d_23">
      <g>
       <use style="stroke:#000000;stroke-width:0.6;" x="280.051705" xlink:href="#m8b472c1348" y="576.718125"/>
      </g>
     </g>
    </g>
    <g id="xtick_17">
     <g id="line2d_24">
      <g>
       <use style="stroke:#000000;stroke-width:0.6;" x="325.230682" xlink:href="#m8b472c1348" y="576.718125"/>
      </g>
     </g>
    </g>
    <g id="xtick_18">
     <g id="line2d_25">
      <g>
       <use style="stroke:#000000;stroke-width:0.6;" x="347.82017" xlink:href="#m8b472c1348" y="576.718125"/>
      </g>
     </g>
    </g>
    <g id="xtick_19">
     <g id="line2d_26">
      <g>
       <use style="stroke:#000000;stroke-width:0.6;" x="370.409659" xlink:href="#m8b472c1348" y="576.718125"/>
      </g>
     </g>
    </g>
    <g id="xtick_20">
     <g id="line2d_27">
      <g>
       <use style="stroke:#000000;stroke-width:0.6;" x="392.999148" xlink:href="#m8b472c1348" y="576.718125"/>
      </g>
     </g>
    </g>
    <g id="xtick_21">
     <g id="line2d_28">
      <g>
       <use style="stroke:#000000;stroke-width:0.6;" x="438.178125" xlink:href="#m8b472c1348" y="576.718125"/>
      </g>
     </g>
    </g>
    <g id="xtick_22">
     <g id="line2d_29">
      <g>
       <use style="stroke:#000000;stroke-width:0.6;" x="460.767614" xlink:href="#m8b472c1348" y="576.718125"/>
      </g>
     </g>
    </g>
    <g id="xtick_23">
     <g id="line2d_30">
      <g>
       <use style="stroke:#000000;stroke-width:0.6;" x="483.357102" xlink:href="#m8b472c1348" y="576.718125"/>
      </g>
     </g>
    </g>
    <g id="xtick_24">
     <g id="line2d_31">
      <g>
       <use style="stroke:#000000;stroke-width:0.6;" x="505.946591" xlink:href="#m8b472c1348" y="576.718125"/>
      </g>
     </g>
    </g>
    <g id="xtick_25">
     <g id="line2d_32">
      <g>
       <use style="stroke:#000000;stroke-width:0.6;" x="551.125568" xlink:href="#m8b472c1348" y="576.718125"/>
      </g>
     </g>
    </g>
    <g id="xtick_26">
     <g id="line2d_33">
      <g>
       <use style="stroke:#000000;stroke-width:0.6;" x="573.715057" xlink:href="#m8b472c1348" y="576.718125"/>
      </g>
     </g>
    </g>
    <g id="xtick_27">
     <g id="line2d_34">
      <g>
       <use style="stroke:#000000;stroke-width:0.6;" x="596.304545" xlink:href="#m8b472c1348" y="576.718125"/>
      </g>
     </g>
    </g>
    <g id="xtick_28">
     <g id="line2d_35">
      <g>
       <use style="stroke:#000000;stroke-width:0.6;" x="618.894034" xlink:href="#m8b472c1348" y="576.718125"/>
      </g>
     </g>
    </g>
    <g id="xtick_29">
     <g id="line2d_36">
      <g>
       <use style="stroke:#000000;stroke-width:0.6;" x="664.073011" xlink:href="#m8b472c1348" y="576.718125"/>
      </g>
     </g>
    </g>
    <g id="xtick_30">
     <g id="line2d_37">
      <g>
       <use style="stroke:#000000;stroke-width:0.6;" x="686.6625" xlink:href="#m8b472c1348" y="576.718125"/>
      </g>
     </g>
    </g>
    <g id="xtick_31">
     <g id="line2d_38">
      <g>
       <use style="stroke:#000000;stroke-width:0.6;" x="709.251989" xlink:href="#m8b472c1348" y="576.718125"/>
      </g>
     </g>
    </g>
    <g id="xtick_32">
     <g id="line2d_39">
      <g>
       <use style="stroke:#000000;stroke-width:0.6;" x="731.841477" xlink:href="#m8b472c1348" y="576.718125"/>
      </g>
     </g>
    </g>
    <g id="xtick_33">
     <g id="line2d_40">
      <g>
       <use style="stroke:#000000;stroke-width:0.6;" x="777.020455" xlink:href="#m8b472c1348" y="576.718125"/>
      </g>
     </g>
    </g>
    <g id="xtick_34">
     <g id="line2d_41">
      <g>
       <use style="stroke:#000000;stroke-width:0.6;" x="799.609943" xlink:href="#m8b472c1348" y="576.718125"/>
      </g>
     </g>
    </g>
    <g id="xtick_35">
     <g id="line2d_42">
      <g>
       <use style="stroke:#000000;stroke-width:0.6;" x="822.199432" xlink:href="#m8b472c1348" y="576.718125"/>
      </g>
     </g>
    </g>
    <g id="text_8">
     <!-- Channels -->
     <g transform="translate(415.046094 604.994688)scale(0.1 -0.1)">
      <defs>
       <path d="M 64.40625 67.28125 
L 64.40625 56.890625 
Q 59.421875 61.53125 53.78125 63.8125 
Q 48.140625 66.109375 41.796875 66.109375 
Q 29.296875 66.109375 22.65625 58.46875 
Q 16.015625 50.828125 16.015625 36.375 
Q 16.015625 21.96875 22.65625 14.328125 
Q 29.296875 6.6875 41.796875 6.6875 
Q 48.140625 6.6875 53.78125 8.984375 
Q 59.421875 11.28125 64.40625 15.921875 
L 64.40625 5.609375 
Q 59.234375 2.09375 53.4375 0.328125 
Q 47.65625 -1.421875 41.21875 -1.421875 
Q 24.65625 -1.421875 15.125 8.703125 
Q 5.609375 18.84375 5.609375 36.375 
Q 5.609375 53.953125 15.125 64.078125 
Q 24.65625 74.21875 41.21875 74.21875 
Q 47.75 74.21875 53.53125 72.484375 
Q 59.328125 70.75 64.40625 67.28125 
z
" id="DejaVuSans-67"/>
       <path d="M 54.890625 33.015625 
L 54.890625 0 
L 45.90625 0 
L 45.90625 32.71875 
Q 45.90625 40.484375 42.875 44.328125 
Q 39.84375 48.1875 33.796875 48.1875 
Q 26.515625 48.1875 22.3125 43.546875 
Q 18.109375 38.921875 18.109375 30.90625 
L 18.109375 0 
L 9.078125 0 
L 9.078125 75.984375 
L 18.109375 75.984375 
L 18.109375 46.1875 
Q 21.34375 51.125 25.703125 53.5625 
Q 30.078125 56 35.796875 56 
Q 45.21875 56 50.046875 50.171875 
Q 54.890625 44.34375 54.890625 33.015625 
z
" id="DejaVuSans-104"/>
       <path d="M 34.28125 27.484375 
Q 23.390625 27.484375 19.1875 25 
Q 14.984375 22.515625 14.984375 16.5 
Q 14.984375 11.71875 18.140625 8.90625 
Q 21.296875 6.109375 26.703125 6.109375 
Q 34.1875 6.109375 38.703125 11.40625 
Q 43.21875 16.703125 43.21875 25.484375 
L 43.21875 27.484375 
z
M 52.203125 31.203125 
L 52.203125 0 
L 43.21875 0 
L 43.21875 8.296875 
Q 40.140625 3.328125 35.546875 0.953125 
Q 30.953125 -1.421875 24.3125 -1.421875 
Q 15.921875 -1.421875 10.953125 3.296875 
Q 6 8.015625 6 15.921875 
Q 6 25.140625 12.171875 29.828125 
Q 18.359375 34.515625 30.609375 34.515625 
L 43.21875 34.515625 
L 43.21875 35.40625 
Q 43.21875 41.609375 39.140625 45 
Q 35.0625 48.390625 27.6875 48.390625 
Q 23 48.390625 18.546875 47.265625 
Q 14.109375 46.140625 10.015625 43.890625 
L 10.015625 52.203125 
Q 14.9375 54.109375 19.578125 55.046875 
Q 24.21875 56 28.609375 56 
Q 40.484375 56 46.34375 49.84375 
Q 52.203125 43.703125 52.203125 31.203125 
z
" id="DejaVuSans-97"/>
       <path d="M 54.890625 33.015625 
L 54.890625 0 
L 45.90625 0 
L 45.90625 32.71875 
Q 45.90625 40.484375 42.875 44.328125 
Q 39.84375 48.1875 33.796875 48.1875 
Q 26.515625 48.1875 22.3125 43.546875 
Q 18.109375 38.921875 18.109375 30.90625 
L 18.109375 0 
L 9.078125 0 
L 9.078125 54.6875 
L 18.109375 54.6875 
L 18.109375 46.1875 
Q 21.34375 51.125 25.703125 53.5625 
Q 30.078125 56 35.796875 56 
Q 45.21875 56 50.046875 50.171875 
Q 54.890625 44.34375 54.890625 33.015625 
z
" id="DejaVuSans-110"/>
       <path d="M 56.203125 29.59375 
L 56.203125 25.203125 
L 14.890625 25.203125 
Q 15.484375 15.921875 20.484375 11.0625 
Q 25.484375 6.203125 34.421875 6.203125 
Q 39.59375 6.203125 44.453125 7.46875 
Q 49.3125 8.734375 54.109375 11.28125 
L 54.109375 2.78125 
Q 49.265625 0.734375 44.1875 -0.34375 
Q 39.109375 -1.421875 33.890625 -1.421875 
Q 20.796875 -1.421875 13.15625 6.1875 
Q 5.515625 13.8125 5.515625 26.8125 
Q 5.515625 40.234375 12.765625 48.109375 
Q 20.015625 56 32.328125 56 
Q 43.359375 56 49.78125 48.890625 
Q 56.203125 41.796875 56.203125 29.59375 
z
M 47.21875 32.234375 
Q 47.125 39.59375 43.09375 43.984375 
Q 39.0625 48.390625 32.421875 48.390625 
Q 24.90625 48.390625 20.390625 44.140625 
Q 15.875 39.890625 15.1875 32.171875 
z
" id="DejaVuSans-101"/>
       <path d="M 9.421875 75.984375 
L 18.40625 75.984375 
L 18.40625 0 
L 9.421875 0 
z
" id="DejaVuSans-108"/>
       <path d="M 44.28125 53.078125 
L 44.28125 44.578125 
Q 40.484375 46.53125 36.375 47.5 
Q 32.28125 48.484375 27.875 48.484375 
Q 21.1875 48.484375 17.84375 46.4375 
Q 14.5 44.390625 14.5 40.28125 
Q 14.5 37.15625 16.890625 35.375 
Q 19.28125 33.59375 26.515625 31.984375 
L 29.59375 31.296875 
Q 39.15625 29.25 43.1875 25.515625 
Q 47.21875 21.78125 47.21875 15.09375 
Q 47.21875 7.46875 41.1875 3.015625 
Q 35.15625 -1.421875 24.609375 -1.421875 
Q 20.21875 -1.421875 15.453125 -0.5625 
Q 10.6875 0.296875 5.421875 2 
L 5.421875 11.28125 
Q 10.40625 8.6875 15.234375 7.390625 
Q 20.0625 6.109375 24.8125 6.109375 
Q 31.15625 6.109375 34.5625 8.28125 
Q 37.984375 10.453125 37.984375 14.40625 
Q 37.984375 18.0625 35.515625 20.015625 
Q 33.0625 21.96875 24.703125 23.78125 
L 21.578125 24.515625 
Q 13.234375 26.265625 9.515625 29.90625 
Q 5.8125 33.546875 5.8125 39.890625 
Q 5.8125 47.609375 11.28125 51.796875 
Q 16.75 56 26.8125 56 
Q 31.78125 56 36.171875 55.265625 
Q 40.578125 54.546875 44.28125 53.078125 
z
" id="DejaVuSans-115"/>
      </defs>
      <use xlink:href="#DejaVuSans-67"/>
      <use x="69.824219" xlink:href="#DejaVuSans-104"/>
      <use x="133.203125" xlink:href="#DejaVuSans-97"/>
      <use x="194.482422" xlink:href="#DejaVuSans-110"/>
      <use x="257.861328" xlink:href="#DejaVuSans-110"/>
      <use x="321.240234" xlink:href="#DejaVuSans-101"/>
      <use x="382.763672" xlink:href="#DejaVuSans-108"/>
      <use x="410.546875" xlink:href="#DejaVuSans-115"/>
     </g>
    </g>
   </g>
   <g id="matplotlib.axis_2">
    <g id="ytick_1">
     <g id="line2d_43">
      <path clip-path="url(#pff4268b438)" d="M 40.603125 536.038952 
L 835.753125 536.038952 
" style="fill:none;stroke:#b0b0b0;stroke-linecap:square;stroke-width:0.8;"/>
     </g>
     <g id="line2d_44">
      <defs>
       <path d="M 0 0 
L -3.5 0 
" id="m59caba34b9" style="stroke:#000000;stroke-width:0.8;"/>
      </defs>
      <g>
       <use style="stroke:#000000;stroke-width:0.8;" x="40.603125" xlink:href="#m59caba34b9" y="536.038952"/>
      </g>
     </g>
     <g id="text_9">
      <!-- 5 -->
      <g transform="translate(27.240625 539.838171)scale(0.1 -0.1)">
       <use xlink:href="#DejaVuSans-53"/>
      </g>
     </g>
    </g>
    <g id="ytick_2">
     <g id="line2d_45">
      <path clip-path="url(#pff4268b438)" d="M 40.603125 458.643086 
L 835.753125 458.643086 
" style="fill:none;stroke:#b0b0b0;stroke-linecap:square;stroke-width:0.8;"/>
     </g>
     <g id="line2d_46">
      <g>
       <use style="stroke:#000000;stroke-width:0.8;" x="40.603125" xlink:href="#m59caba34b9" y="458.643086"/>
      </g>
     </g>
     <g id="text_10">
      <!-- 10 -->
      <g transform="translate(20.878125 462.442304)scale(0.1 -0.1)">
       <use xlink:href="#DejaVuSans-49"/>
       <use x="63.623047" xlink:href="#DejaVuSans-48"/>
      </g>
     </g>
    </g>
    <g id="ytick_3">
     <g id="line2d_47">
      <path clip-path="url(#pff4268b438)" d="M 40.603125 381.247219 
L 835.753125 381.247219 
" style="fill:none;stroke:#b0b0b0;stroke-linecap:square;stroke-width:0.8;"/>
     </g>
     <g id="line2d_48">
      <g>
       <use style="stroke:#000000;stroke-width:0.8;" x="40.603125" xlink:href="#m59caba34b9" y="381.247219"/>
      </g>
     </g>
     <g id="text_11">
      <!-- 15 -->
      <g transform="translate(20.878125 385.046438)scale(0.1 -0.1)">
       <use xlink:href="#DejaVuSans-49"/>
       <use x="63.623047" xlink:href="#DejaVuSans-53"/>
      </g>
     </g>
    </g>
    <g id="ytick_4">
     <g id="line2d_49">
      <path clip-path="url(#pff4268b438)" d="M 40.603125 303.851353 
L 835.753125 303.851353 
" style="fill:none;stroke:#b0b0b0;stroke-linecap:square;stroke-width:0.8;"/>
     </g>
     <g id="line2d_50">
      <g>
       <use style="stroke:#000000;stroke-width:0.8;" x="40.603125" xlink:href="#m59caba34b9" y="303.851353"/>
      </g>
     </g>
     <g id="text_12">
      <!-- 20 -->
      <g transform="translate(20.878125 307.650572)scale(0.1 -0.1)">
       <use xlink:href="#DejaVuSans-50"/>
       <use x="63.623047" xlink:href="#DejaVuSans-48"/>
      </g>
     </g>
    </g>
    <g id="ytick_5">
     <g id="line2d_51">
      <path clip-path="url(#pff4268b438)" d="M 40.603125 226.455487 
L 835.753125 226.455487 
" style="fill:none;stroke:#b0b0b0;stroke-linecap:square;stroke-width:0.8;"/>
     </g>
     <g id="line2d_52">
      <g>
       <use style="stroke:#000000;stroke-width:0.8;" x="40.603125" xlink:href="#m59caba34b9" y="226.455487"/>
      </g>
     </g>
     <g id="text_13">
      <!-- 25 -->
      <g transform="translate(20.878125 230.254706)scale(0.1 -0.1)">
       <use xlink:href="#DejaVuSans-50"/>
       <use x="63.623047" xlink:href="#DejaVuSans-53"/>
      </g>
     </g>
    </g>
    <g id="ytick_6">
     <g id="line2d_53">
      <path clip-path="url(#pff4268b438)" d="M 40.603125 149.059621 
L 835.753125 149.059621 
" style="fill:none;stroke:#b0b0b0;stroke-linecap:square;stroke-width:0.8;"/>
     </g>
     <g id="line2d_54">
      <g>
       <use style="stroke:#000000;stroke-width:0.8;" x="40.603125" xlink:href="#m59caba34b9" y="149.059621"/>
      </g>
     </g>
     <g id="text_14">
      <!-- 30 -->
      <g transform="translate(20.878125 152.85884)scale(0.1 -0.1)">
       <use xlink:href="#DejaVuSans-51"/>
       <use x="63.623047" xlink:href="#DejaVuSans-48"/>
      </g>
     </g>
    </g>
    <g id="ytick_7">
     <g id="line2d_55">
      <path clip-path="url(#pff4268b438)" d="M 40.603125 71.663755 
L 835.753125 71.663755 
" style="fill:none;stroke:#b0b0b0;stroke-linecap:square;stroke-width:0.8;"/>
     </g>
     <g id="line2d_56">
      <g>
       <use style="stroke:#000000;stroke-width:0.8;" x="40.603125" xlink:href="#m59caba34b9" y="71.663755"/>
      </g>
     </g>
     <g id="text_15">
      <!-- 35 -->
      <g transform="translate(20.878125 75.462974)scale(0.1 -0.1)">
       <use xlink:href="#DejaVuSans-51"/>
       <use x="63.623047" xlink:href="#DejaVuSans-53"/>
      </g>
     </g>
    </g>
    <g id="text_16">
     <!-- FWHM ENC [keV] -->
     <g transform="translate(14.798438 342.093906)rotate(-90)scale(0.1 -0.1)">
      <defs>
       <path d="M 9.8125 72.90625 
L 51.703125 72.90625 
L 51.703125 64.59375 
L 19.671875 64.59375 
L 19.671875 43.109375 
L 48.578125 43.109375 
L 48.578125 34.8125 
L 19.671875 34.8125 
L 19.671875 0 
L 9.8125 0 
z
" id="DejaVuSans-70"/>
       <path d="M 3.328125 72.90625 
L 13.28125 72.90625 
L 28.609375 11.28125 
L 43.890625 72.90625 
L 54.984375 72.90625 
L 70.3125 11.28125 
L 85.59375 72.90625 
L 95.609375 72.90625 
L 77.296875 0 
L 64.890625 0 
L 49.515625 63.28125 
L 33.984375 0 
L 21.578125 0 
z
" id="DejaVuSans-87"/>
       <path d="M 9.8125 72.90625 
L 19.671875 72.90625 
L 19.671875 43.015625 
L 55.515625 43.015625 
L 55.515625 72.90625 
L 65.375 72.90625 
L 65.375 0 
L 55.515625 0 
L 55.515625 34.71875 
L 19.671875 34.71875 
L 19.671875 0 
L 9.8125 0 
z
" id="DejaVuSans-72"/>
       <path d="M 9.8125 72.90625 
L 24.515625 72.90625 
L 43.109375 23.296875 
L 61.8125 72.90625 
L 76.515625 72.90625 
L 76.515625 0 
L 66.890625 0 
L 66.890625 64.015625 
L 48.09375 14.015625 
L 38.1875 14.015625 
L 19.390625 64.015625 
L 19.390625 0 
L 9.8125 0 
z
" id="DejaVuSans-77"/>
       <path id="DejaVuSans-32"/>
       <path d="M 9.8125 72.90625 
L 55.90625 72.90625 
L 55.90625 64.59375 
L 19.671875 64.59375 
L 19.671875 43.015625 
L 54.390625 43.015625 
L 54.390625 34.71875 
L 19.671875 34.71875 
L 19.671875 8.296875 
L 56.78125 8.296875 
L 56.78125 0 
L 9.8125 0 
z
" id="DejaVuSans-69"/>
       <path d="M 9.8125 72.90625 
L 23.09375 72.90625 
L 55.421875 11.921875 
L 55.421875 72.90625 
L 64.984375 72.90625 
L 64.984375 0 
L 51.703125 0 
L 19.390625 60.984375 
L 19.390625 0 
L 9.8125 0 
z
" id="DejaVuSans-78"/>
       <path d="M 8.59375 75.984375 
L 29.296875 75.984375 
L 29.296875 69 
L 17.578125 69 
L 17.578125 -6.203125 
L 29.296875 -6.203125 
L 29.296875 -13.1875 
L 8.59375 -13.1875 
z
" id="DejaVuSans-91"/>
       <path d="M 9.078125 75.984375 
L 18.109375 75.984375 
L 18.109375 31.109375 
L 44.921875 54.6875 
L 56.390625 54.6875 
L 27.390625 29.109375 
L 57.625 0 
L 45.90625 0 
L 18.109375 26.703125 
L 18.109375 0 
L 9.078125 0 
z
" id="DejaVuSans-107"/>
       <path d="M 28.609375 0 
L 0.78125 72.90625 
L 11.078125 72.90625 
L 34.1875 11.53125 
L 57.328125 72.90625 
L 67.578125 72.90625 
L 39.796875 0 
z
" id="DejaVuSans-86"/>
       <path d="M 30.421875 75.984375 
L 30.421875 -13.1875 
L 9.71875 -13.1875 
L 9.71875 -6.203125 
L 21.390625 -6.203125 
L 21.390625 69 
L 9.71875 69 
L 9.71875 75.984375 
z
" id="DejaVuSans-93"/>
      </defs>
      <use xlink:href="#DejaVuSans-70"/>
      <use x="57.519531" xlink:href="#DejaVuSans-87"/>
      <use x="156.396484" xlink:href="#DejaVuSans-72"/>
      <use x="231.591797" xlink:href="#DejaVuSans-77"/>
      <use x="317.871094" xlink:href="#DejaVuSans-32"/>
      <use x="349.658203" xlink:href="#DejaVuSans-69"/>
      <use x="412.841797" xlink:href="#DejaVuSans-78"/>
      <use x="487.646484" xlink:href="#DejaVuSans-67"/>
      <use x="557.470703" xlink:href="#DejaVuSans-32"/>
      <use x="589.257812" xlink:href="#DejaVuSans-91"/>
      <use x="628.271484" xlink:href="#DejaVuSans-107"/>
      <use x="682.556641" xlink:href="#DejaVuSans-101"/>
      <use x="744.080078" xlink:href="#DejaVuSans-86"/>
      <use x="812.488281" xlink:href="#DejaVuSans-93"/>
     </g>
    </g>
   </g>
   <g id="line2d_57">
    <path clip-path="url(#pff4268b438)" d="M 76.746307 225.810012 
L 99.335795 227.227963 
L 121.925284 175.821903 
L 144.514773 154.936291 
L 167.104261 132.687423 
L 189.69375 148.721541 
L 212.283239 166.293966 
L 234.872727 138.182644 
L 257.462216 156.145001 
L 280.051705 200.296822 
L 302.641193 228.013016 
L 325.230682 193.975741 
L 347.82017 228.67347 
L 370.409659 197.008024 
L 392.999148 165.39461 
L 415.588636 82.378749 
L 438.178125 68.318671 
L 460.767614 118.630927 
L 483.357102 145.099843 
L 505.946591 142.663419 
L 528.53608 126.598383 
L 551.125568 148.681213 
L 573.715057 114.215783 
L 596.304545 47.518125 
L 618.894034 135.922477 
L 641.483523 162.213709 
L 664.073011 162.979457 
L 686.6625 164.26893 
L 709.251989 187.872542 
L 731.841477 197.331162 
L 754.430966 232.900784 
L 777.020455 241.795603 
" style="fill:none;stroke:#1f77b4;stroke-linecap:square;"/>
    <defs>
     <path d="M 0 -2.5 
L -0.561285 -0.772542 
L -2.377641 -0.772542 
L -0.908178 0.295085 
L -1.469463 2.022542 
L -0 0.954915 
L 1.469463 2.022542 
L 0.908178 0.295085 
L 2.377641 -0.772542 
L 0.561285 -0.772542 
z
" id="m48ebc888dc" style="stroke:#1f77b4;stroke-linejoin:bevel;"/>
    </defs>
    <g clip-path="url(#pff4268b438)">
     <use style="fill:#1f77b4;stroke:#1f77b4;stroke-linejoin:bevel;" x="76.746307" xlink:href="#m48ebc888dc" y="225.810012"/>
     <use style="fill:#1f77b4;stroke:#1f77b4;stroke-linejoin:bevel;" x="99.335795" xlink:href="#m48ebc888dc" y="227.227963"/>
     <use style="fill:#1f77b4;stroke:#1f77b4;stroke-linejoin:bevel;" x="121.925284" xlink:href="#m48ebc888dc" y="175.821903"/>
     <use style="fill:#1f77b4;stroke:#1f77b4;stroke-linejoin:bevel;" x="144.514773" xlink:href="#m48ebc888dc" y="154.936291"/>
     <use style="fill:#1f77b4;stroke:#1f77b4;stroke-linejoin:bevel;" x="167.104261" xlink:href="#m48ebc888dc" y="132.687423"/>
     <use style="fill:#1f77b4;stroke:#1f77b4;stroke-linejoin:bevel;" x="189.69375" xlink:href="#m48ebc888dc" y="148.721541"/>
     <use style="fill:#1f77b4;stroke:#1f77b4;stroke-linejoin:bevel;" x="212.283239" xlink:href="#m48ebc888dc" y="166.293966"/>
     <use style="fill:#1f77b4;stroke:#1f77b4;stroke-linejoin:bevel;" x="234.872727" xlink:href="#m48ebc888dc" y="138.182644"/>
     <use style="fill:#1f77b4;stroke:#1f77b4;stroke-linejoin:bevel;" x="257.462216" xlink:href="#m48ebc888dc" y="156.145001"/>
     <use style="fill:#1f77b4;stroke:#1f77b4;stroke-linejoin:bevel;" x="280.051705" xlink:href="#m48ebc888dc" y="200.296822"/>
     <use style="fill:#1f77b4;stroke:#1f77b4;stroke-linejoin:bevel;" x="302.641193" xlink:href="#m48ebc888dc" y="228.013016"/>
     <use style="fill:#1f77b4;stroke:#1f77b4;stroke-linejoin:bevel;" x="325.230682" xlink:href="#m48ebc888dc" y="193.975741"/>
     <use style="fill:#1f77b4;stroke:#1f77b4;stroke-linejoin:bevel;" x="347.82017" xlink:href="#m48ebc888dc" y="228.67347"/>
     <use style="fill:#1f77b4;stroke:#1f77b4;stroke-linejoin:bevel;" x="370.409659" xlink:href="#m48ebc888dc" y="197.008024"/>
     <use style="fill:#1f77b4;stroke:#1f77b4;stroke-linejoin:bevel;" x="392.999148" xlink:href="#m48ebc888dc" y="165.39461"/>
     <use style="fill:#1f77b4;stroke:#1f77b4;stroke-linejoin:bevel;" x="415.588636" xlink:href="#m48ebc888dc" y="82.378749"/>
     <use style="fill:#1f77b4;stroke:#1f77b4;stroke-linejoin:bevel;" x="438.178125" xlink:href="#m48ebc888dc" y="68.318671"/>
     <use style="fill:#1f77b4;stroke:#1f77b4;stroke-linejoin:bevel;" x="460.767614" xlink:href="#m48ebc888dc" y="118.630927"/>
     <use style="fill:#1f77b4;stroke:#1f77b4;stroke-linejoin:bevel;" x="483.357102" xlink:href="#m48ebc888dc" y="145.099843"/>
     <use style="fill:#1f77b4;stroke:#1f77b4;stroke-linejoin:bevel;" x="505.946591" xlink:href="#m48ebc888dc" y="142.663419"/>
     <use style="fill:#1f77b4;stroke:#1f77b4;stroke-linejoin:bevel;" x="528.53608" xlink:href="#m48ebc888dc" y="126.598383"/>
     <use style="fill:#1f77b4;stroke:#1f77b4;stroke-linejoin:bevel;" x="551.125568" xlink:href="#m48ebc888dc" y="148.681213"/>
     <use style="fill:#1f77b4;stroke:#1f77b4;stroke-linejoin:bevel;" x="573.715057" xlink:href="#m48ebc888dc" y="114.215783"/>
     <use style="fill:#1f77b4;stroke:#1f77b4;stroke-linejoin:bevel;" x="596.304545" xlink:href="#m48ebc888dc" y="47.518125"/>
     <use style="fill:#1f77b4;stroke:#1f77b4;stroke-linejoin:bevel;" x="618.894034" xlink:href="#m48ebc888dc" y="135.922477"/>
     <use style="fill:#1f77b4;stroke:#1f77b4;stroke-linejoin:bevel;" x="641.483523" xlink:href="#m48ebc888dc" y="162.213709"/>
     <use style="fill:#1f77b4;stroke:#1f77b4;stroke-linejoin:bevel;" x="664.073011" xlink:href="#m48ebc888dc" y="162.979457"/>
     <use style="fill:#1f77b4;stroke:#1f77b4;stroke-linejoin:bevel;" x="686.6625" xlink:href="#m48ebc888dc" y="164.26893"/>
     <use style="fill:#1f77b4;stroke:#1f77b4;stroke-linejoin:bevel;" x="709.251989" xlink:href="#m48ebc888dc" y="187.872542"/>
     <use style="fill:#1f77b4;stroke:#1f77b4;stroke-linejoin:bevel;" x="731.841477" xlink:href="#m48ebc888dc" y="197.331162"/>
     <use style="fill:#1f77b4;stroke:#1f77b4;stroke-linejoin:bevel;" x="754.430966" xlink:href="#m48ebc888dc" y="232.900784"/>
     <use style="fill:#1f77b4;stroke:#1f77b4;stroke-linejoin:bevel;" x="777.020455" xlink:href="#m48ebc888dc" y="241.795603"/>
    </g>
   </g>
   <g id="line2d_58">
    <path clip-path="url(#pff4268b438)" d="M 76.746307 420.987254 
L 99.335795 403.071103 
L 121.925284 396.401547 
L 144.514773 378.366966 
L 167.104261 358.721837 
L 189.69375 382.273651 
L 212.283239 380.656338 
L 234.872727 359.925193 
L 257.462216 379.987917 
L 280.051705 397.34029 
L 302.641193 410.808268 
L 325.230682 407.682393 
L 347.82017 412.213553 
L 370.409659 399.385662 
L 392.999148 386.961428 
L 415.588636 333.190221 
L 438.178125 137.030542 
L 460.767614 348.610285 
L 483.357102 354.56042 
L 505.946591 367.35159 
L 528.53608 342.110376 
L 551.125568 339.357874 
L 573.715057 338.892477 
L 596.304545 194.614057 
L 618.894034 327.367636 
L 641.483523 372.812218 
L 664.073011 380.834508 
L 686.6625 381.065774 
L 709.251989 385.036087 
L 731.841477 397.491355 
L 754.430966 413.628929 
L 777.020455 403.359282 
" style="fill:none;stroke:#ff7f0e;stroke-linecap:square;"/>
    <defs>
     <path d="M 0 -2.5 
L -0.561285 -0.772542 
L -2.377641 -0.772542 
L -0.908178 0.295085 
L -1.469463 2.022542 
L -0 0.954915 
L 1.469463 2.022542 
L 0.908178 0.295085 
L 2.377641 -0.772542 
L 0.561285 -0.772542 
z
" id="m93d43bdfe9" style="stroke:#ff7f0e;stroke-linejoin:bevel;"/>
    </defs>
    <g clip-path="url(#pff4268b438)">
     <use style="fill:#ff7f0e;stroke:#ff7f0e;stroke-linejoin:bevel;" x="76.746307" xlink:href="#m93d43bdfe9" y="420.987254"/>
     <use style="fill:#ff7f0e;stroke:#ff7f0e;stroke-linejoin:bevel;" x="99.335795" xlink:href="#m93d43bdfe9" y="403.071103"/>
     <use style="fill:#ff7f0e;stroke:#ff7f0e;stroke-linejoin:bevel;" x="121.925284" xlink:href="#m93d43bdfe9" y="396.401547"/>
     <use style="fill:#ff7f0e;stroke:#ff7f0e;stroke-linejoin:bevel;" x="144.514773" xlink:href="#m93d43bdfe9" y="378.366966"/>
     <use style="fill:#ff7f0e;stroke:#ff7f0e;stroke-linejoin:bevel;" x="167.104261" xlink:href="#m93d43bdfe9" y="358.721837"/>
     <use style="fill:#ff7f0e;stroke:#ff7f0e;stroke-linejoin:bevel;" x="189.69375" xlink:href="#m93d43bdfe9" y="382.273651"/>
     <use style="fill:#ff7f0e;stroke:#ff7f0e;stroke-linejoin:bevel;" x="212.283239" xlink:href="#m93d43bdfe9" y="380.656338"/>
     <use style="fill:#ff7f0e;stroke:#ff7f0e;stroke-linejoin:bevel;" x="234.872727" xlink:href="#m93d43bdfe9" y="359.925193"/>
     <use style="fill:#ff7f0e;stroke:#ff7f0e;stroke-linejoin:bevel;" x="257.462216" xlink:href="#m93d43bdfe9" y="379.987917"/>
     <use style="fill:#ff7f0e;stroke:#ff7f0e;stroke-linejoin:bevel;" x="280.051705" xlink:href="#m93d43bdfe9" y="397.34029"/>
     <use style="fill:#ff7f0e;stroke:#ff7f0e;stroke-linejoin:bevel;" x="302.641193" xlink:href="#m93d43bdfe9" y="410.808268"/>
     <use style="fill:#ff7f0e;stroke:#ff7f0e;stroke-linejoin:bevel;" x="325.230682" xlink:href="#m93d43bdfe9" y="407.682393"/>
     <use style="fill:#ff7f0e;stroke:#ff7f0e;stroke-linejoin:bevel;" x="347.82017" xlink:href="#m93d43bdfe9" y="412.213553"/>
     <use style="fill:#ff7f0e;stroke:#ff7f0e;stroke-linejoin:bevel;" x="370.409659" xlink:href="#m93d43bdfe9" y="399.385662"/>
     <use style="fill:#ff7f0e;stroke:#ff7f0e;stroke-linejoin:bevel;" x="392.999148" xlink:href="#m93d43bdfe9" y="386.961428"/>
     <use style="fill:#ff7f0e;stroke:#ff7f0e;stroke-linejoin:bevel;" x="415.588636" xlink:href="#m93d43bdfe9" y="333.190221"/>
     <use style="fill:#ff7f0e;stroke:#ff7f0e;stroke-linejoin:bevel;" x="438.178125" xlink:href="#m93d43bdfe9" y="137.030542"/>
     <use style="fill:#ff7f0e;stroke:#ff7f0e;stroke-linejoin:bevel;" x="460.767614" xlink:href="#m93d43bdfe9" y="348.610285"/>
     <use style="fill:#ff7f0e;stroke:#ff7f0e;stroke-linejoin:bevel;" x="483.357102" xlink:href="#m93d43bdfe9" y="354.56042"/>
     <use style="fill:#ff7f0e;stroke:#ff7f0e;stroke-linejoin:bevel;" x="505.946591" xlink:href="#m93d43bdfe9" y="367.35159"/>
     <use style="fill:#ff7f0e;stroke:#ff7f0e;stroke-linejoin:bevel;" x="528.53608" xlink:href="#m93d43bdfe9" y="342.110376"/>
     <use style="fill:#ff7f0e;stroke:#ff7f0e;stroke-linejoin:bevel;" x="551.125568" xlink:href="#m93d43bdfe9" y="339.357874"/>
     <use style="fill:#ff7f0e;stroke:#ff7f0e;stroke-linejoin:bevel;" x="573.715057" xlink:href="#m93d43bdfe9" y="338.892477"/>
     <use style="fill:#ff7f0e;stroke:#ff7f0e;stroke-linejoin:bevel;" x="596.304545" xlink:href="#m93d43bdfe9" y="194.614057"/>
     <use style="fill:#ff7f0e;stroke:#ff7f0e;stroke-linejoin:bevel;" x="618.894034" xlink:href="#m93d43bdfe9" y="327.367636"/>
     <use style="fill:#ff7f0e;stroke:#ff7f0e;stroke-linejoin:bevel;" x="641.483523" xlink:href="#m93d43bdfe9" y="372.812218"/>
     <use style="fill:#ff7f0e;stroke:#ff7f0e;stroke-linejoin:bevel;" x="664.073011" xlink:href="#m93d43bdfe9" y="380.834508"/>
     <use style="fill:#ff7f0e;stroke:#ff7f0e;stroke-linejoin:bevel;" x="686.6625" xlink:href="#m93d43bdfe9" y="381.065774"/>
     <use style="fill:#ff7f0e;stroke:#ff7f0e;stroke-linejoin:bevel;" x="709.251989" xlink:href="#m93d43bdfe9" y="385.036087"/>
     <use style="fill:#ff7f0e;stroke:#ff7f0e;stroke-linejoin:bevel;" x="731.841477" xlink:href="#m93d43bdfe9" y="397.491355"/>
     <use style="fill:#ff7f0e;stroke:#ff7f0e;stroke-linejoin:bevel;" x="754.430966" xlink:href="#m93d43bdfe9" y="413.628929"/>
     <use style="fill:#ff7f0e;stroke:#ff7f0e;stroke-linejoin:bevel;" x="777.020455" xlink:href="#m93d43bdfe9" y="403.359282"/>
    </g>
   </g>
   <g id="line2d_59">
    <path clip-path="url(#pff4268b438)" d="M 76.746307 462.931163 
L 99.335795 451.537973 
L 121.925284 453.737838 
L 144.514773 443.8456 
L 167.104261 420.025138 
L 189.69375 447.347345 
L 212.283239 430.493698 
L 234.872727 423.074577 
L 257.462216 439.50373 
L 280.051705 448.068381 
L 302.641193 463.410724 
L 325.230682 453.886627 
L 347.82017 461.680328 
L 370.409659 447.336566 
L 392.999148 438.154998 
L 415.588636 391.555653 
L 438.178125 388.552246 
L 460.767614 418.599428 
L 483.357102 416.794937 
L 505.946591 418.030238 
L 528.53608 395.028205 
L 551.125568 393.25655 
L 573.715057 397.630135 
L 596.304545 370.098356 
L 618.894034 395.005062 
L 641.483523 427.203685 
L 664.073011 444.743009 
L 686.6625 448.059688 
L 709.251989 446.874877 
L 731.841477 454.62373 
L 754.430966 462.046489 
L 777.020455 433.644079 
" style="fill:none;stroke:#2ca02c;stroke-linecap:square;"/>
    <defs>
     <path d="M 0 -2.5 
L -0.561285 -0.772542 
L -2.377641 -0.772542 
L -0.908178 0.295085 
L -1.469463 2.022542 
L -0 0.954915 
L 1.469463 2.022542 
L 0.908178 0.295085 
L 2.377641 -0.772542 
L 0.561285 -0.772542 
z
" id="m6c1a5ce73f" style="stroke:#2ca02c;stroke-linejoin:bevel;"/>
    </defs>
    <g clip-path="url(#pff4268b438)">
     <use style="fill:#2ca02c;stroke:#2ca02c;stroke-linejoin:bevel;" x="76.746307" xlink:href="#m6c1a5ce73f" y="462.931163"/>
     <use style="fill:#2ca02c;stroke:#2ca02c;stroke-linejoin:bevel;" x="99.335795" xlink:href="#m6c1a5ce73f" y="451.537973"/>
     <use style="fill:#2ca02c;stroke:#2ca02c;stroke-linejoin:bevel;" x="121.925284" xlink:href="#m6c1a5ce73f" y="453.737838"/>
     <use style="fill:#2ca02c;stroke:#2ca02c;stroke-linejoin:bevel;" x="144.514773" xlink:href="#m6c1a5ce73f" y="443.8456"/>
     <use style="fill:#2ca02c;stroke:#2ca02c;stroke-linejoin:bevel;" x="167.104261" xlink:href="#m6c1a5ce73f" y="420.025138"/>
     <use style="fill:#2ca02c;stroke:#2ca02c;stroke-linejoin:bevel;" x="189.69375" xlink:href="#m6c1a5ce73f" y="447.347345"/>
     <use style="fill:#2ca02c;stroke:#2ca02c;stroke-linejoin:bevel;" x="212.283239" xlink:href="#m6c1a5ce73f" y="430.493698"/>
     <use style="fill:#2ca02c;stroke:#2ca02c;stroke-linejoin:bevel;" x="234.872727" xlink:href="#m6c1a5ce73f" y="423.074577"/>
     <use style="fill:#2ca02c;stroke:#2ca02c;stroke-linejoin:bevel;" x="257.462216" xlink:href="#m6c1a5ce73f" y="439.50373"/>
     <use style="fill:#2ca02c;stroke:#2ca02c;stroke-linejoin:bevel;" x="280.051705" xlink:href="#m6c1a5ce73f" y="448.068381"/>
     <use style="fill:#2ca02c;stroke:#2ca02c;stroke-linejoin:bevel;" x="302.641193" xlink:href="#m6c1a5ce73f" y="463.410724"/>
     <use style="fill:#2ca02c;stroke:#2ca02c;stroke-linejoin:bevel;" x="325.230682" xlink:href="#m6c1a5ce73f" y="453.886627"/>
     <use style="fill:#2ca02c;stroke:#2ca02c;stroke-linejoin:bevel;" x="347.82017" xlink:href="#m6c1a5ce73f" y="461.680328"/>
     <use style="fill:#2ca02c;stroke:#2ca02c;stroke-linejoin:bevel;" x="370.409659" xlink:href="#m6c1a5ce73f" y="447.336566"/>
     <use style="fill:#2ca02c;stroke:#2ca02c;stroke-linejoin:bevel;" x="392.999148" xlink:href="#m6c1a5ce73f" y="438.154998"/>
     <use style="fill:#2ca02c;stroke:#2ca02c;stroke-linejoin:bevel;" x="415.588636" xlink:href="#m6c1a5ce73f" y="391.555653"/>
     <use style="fill:#2ca02c;stroke:#2ca02c;stroke-linejoin:bevel;" x="438.178125" xlink:href="#m6c1a5ce73f" y="388.552246"/>
     <use style="fill:#2ca02c;stroke:#2ca02c;stroke-linejoin:bevel;" x="460.767614" xlink:href="#m6c1a5ce73f" y="418.599428"/>
     <use style="fill:#2ca02c;stroke:#2ca02c;stroke-linejoin:bevel;" x="483.357102" xlink:href="#m6c1a5ce73f" y="416.794937"/>
     <use style="fill:#2ca02c;stroke:#2ca02c;stroke-linejoin:bevel;" x="505.946591" xlink:href="#m6c1a5ce73f" y="418.030238"/>
     <use style="fill:#2ca02c;stroke:#2ca02c;stroke-linejoin:bevel;" x="528.53608" xlink:href="#m6c1a5ce73f" y="395.028205"/>
     <use style="fill:#2ca02c;stroke:#2ca02c;stroke-linejoin:bevel;" x="551.125568" xlink:href="#m6c1a5ce73f" y="393.25655"/>
     <use style="fill:#2ca02c;stroke:#2ca02c;stroke-linejoin:bevel;" x="573.715057" xlink:href="#m6c1a5ce73f" y="397.630135"/>
     <use style="fill:#2ca02c;stroke:#2ca02c;stroke-linejoin:bevel;" x="596.304545" xlink:href="#m6c1a5ce73f" y="370.098356"/>
     <use style="fill:#2ca02c;stroke:#2ca02c;stroke-linejoin:bevel;" x="618.894034" xlink:href="#m6c1a5ce73f" y="395.005062"/>
     <use style="fill:#2ca02c;stroke:#2ca02c;stroke-linejoin:bevel;" x="641.483523" xlink:href="#m6c1a5ce73f" y="427.203685"/>
     <use style="fill:#2ca02c;stroke:#2ca02c;stroke-linejoin:bevel;" x="664.073011" xlink:href="#m6c1a5ce73f" y="444.743009"/>
     <use style="fill:#2ca02c;stroke:#2ca02c;stroke-linejoin:bevel;" x="686.6625" xlink:href="#m6c1a5ce73f" y="448.059688"/>
     <use style="fill:#2ca02c;stroke:#2ca02c;stroke-linejoin:bevel;" x="709.251989" xlink:href="#m6c1a5ce73f" y="446.874877"/>
     <use style="fill:#2ca02c;stroke:#2ca02c;stroke-linejoin:bevel;" x="731.841477" xlink:href="#m6c1a5ce73f" y="454.62373"/>
     <use style="fill:#2ca02c;stroke:#2ca02c;stroke-linejoin:bevel;" x="754.430966" xlink:href="#m6c1a5ce73f" y="462.046489"/>
     <use style="fill:#2ca02c;stroke:#2ca02c;stroke-linejoin:bevel;" x="777.020455" xlink:href="#m6c1a5ce73f" y="433.644079"/>
    </g>
   </g>
   <g id="line2d_60">
    <path clip-path="url(#pff4268b438)" d="M 76.746307 497.459746 
L 99.335795 484.894594 
L 121.925284 483.585508 
L 144.514773 474.691176 
L 167.104261 463.603678 
L 189.69375 471.766404 
L 212.283239 470.915752 
L 234.872727 463.090658 
L 257.462216 471.976047 
L 280.051705 481.468593 
L 302.641193 493.748809 
L 325.230682 486.27775 
L 347.82017 485.852066 
L 370.409659 474.347863 
L 392.999148 474.707802 
L 415.588636 431.686886 
L 438.178125 429.99899 
L 460.767614 453.937578 
L 483.357102 451.976113 
L 505.946591 451.253719 
L 528.53608 441.810642 
L 551.125568 440.987023 
L 573.715057 441.06038 
L 596.304545 415.645529 
L 618.894034 447.720523 
L 641.483523 468.924221 
L 664.073011 477.817252 
L 686.6625 476.752915 
L 709.251989 482.398393 
L 731.841477 488.976314 
L 754.430966 488.092 
L 777.020455 469.910109 
" style="fill:none;stroke:#d62728;stroke-linecap:square;"/>
    <defs>
     <path d="M 0 -2.5 
L -0.561285 -0.772542 
L -2.377641 -0.772542 
L -0.908178 0.295085 
L -1.469463 2.022542 
L -0 0.954915 
L 1.469463 2.022542 
L 0.908178 0.295085 
L 2.377641 -0.772542 
L 0.561285 -0.772542 
z
" id="m775579bf3c" style="stroke:#d62728;stroke-linejoin:bevel;"/>
    </defs>
    <g clip-path="url(#pff4268b438)">
     <use style="fill:#d62728;stroke:#d62728;stroke-linejoin:bevel;" x="76.746307" xlink:href="#m775579bf3c" y="497.459746"/>
     <use style="fill:#d62728;stroke:#d62728;stroke-linejoin:bevel;" x="99.335795" xlink:href="#m775579bf3c" y="484.894594"/>
     <use style="fill:#d62728;stroke:#d62728;stroke-linejoin:bevel;" x="121.925284" xlink:href="#m775579bf3c" y="483.585508"/>
     <use style="fill:#d62728;stroke:#d62728;stroke-linejoin:bevel;" x="144.514773" xlink:href="#m775579bf3c" y="474.691176"/>
     <use style="fill:#d62728;stroke:#d62728;stroke-linejoin:bevel;" x="167.104261" xlink:href="#m775579bf3c" y="463.603678"/>
     <use style="fill:#d62728;stroke:#d62728;stroke-linejoin:bevel;" x="189.69375" xlink:href="#m775579bf3c" y="471.766404"/>
     <use style="fill:#d62728;stroke:#d62728;stroke-linejoin:bevel;" x="212.283239" xlink:href="#m775579bf3c" y="470.915752"/>
     <use style="fill:#d62728;stroke:#d62728;stroke-linejoin:bevel;" x="234.872727" xlink:href="#m775579bf3c" y="463.090658"/>
     <use style="fill:#d62728;stroke:#d62728;stroke-linejoin:bevel;" x="257.462216" xlink:href="#m775579bf3c" y="471.976047"/>
     <use style="fill:#d62728;stroke:#d62728;stroke-linejoin:bevel;" x="280.051705" xlink:href="#m775579bf3c" y="481.468593"/>
     <use style="fill:#d62728;stroke:#d62728;stroke-linejoin:bevel;" x="302.641193" xlink:href="#m775579bf3c" y="493.748809"/>
     <use style="fill:#d62728;stroke:#d62728;stroke-linejoin:bevel;" x="325.230682" xlink:href="#m775579bf3c" y="486.27775"/>
     <use style="fill:#d62728;stroke:#d62728;stroke-linejoin:bevel;" x="347.82017" xlink:href="#m775579bf3c" y="485.852066"/>
     <use style="fill:#d62728;stroke:#d62728;stroke-linejoin:bevel;" x="370.409659" xlink:href="#m775579bf3c" y="474.347863"/>
     <use style="fill:#d62728;stroke:#d62728;stroke-linejoin:bevel;" x="392.999148" xlink:href="#m775579bf3c" y="474.707802"/>
     <use style="fill:#d62728;stroke:#d62728;stroke-linejoin:bevel;" x="415.588636" xlink:href="#m775579bf3c" y="431.686886"/>
     <use style="fill:#d62728;stroke:#d62728;stroke-linejoin:bevel;" x="438.178125" xlink:href="#m775579bf3c" y="429.99899"/>
     <use style="fill:#d62728;stroke:#d62728;stroke-linejoin:bevel;" x="460.767614" xlink:href="#m775579bf3c" y="453.937578"/>
     <use style="fill:#d62728;stroke:#d62728;stroke-linejoin:bevel;" x="483.357102" xlink:href="#m775579bf3c" y="451.976113"/>
     <use style="fill:#d62728;stroke:#d62728;stroke-linejoin:bevel;" x="505.946591" xlink:href="#m775579bf3c" y="451.253719"/>
     <use style="fill:#d62728;stroke:#d62728;stroke-linejoin:bevel;" x="528.53608" xlink:href="#m775579bf3c" y="441.810642"/>
     <use style="fill:#d62728;stroke:#d62728;stroke-linejoin:bevel;" x="551.125568" xlink:href="#m775579bf3c" y="440.987023"/>
     <use style="fill:#d62728;stroke:#d62728;stroke-linejoin:bevel;" x="573.715057" xlink:href="#m775579bf3c" y="441.06038"/>
     <use style="fill:#d62728;stroke:#d62728;stroke-linejoin:bevel;" x="596.304545" xlink:href="#m775579bf3c" y="415.645529"/>
     <use style="fill:#d62728;stroke:#d62728;stroke-linejoin:bevel;" x="618.894034" xlink:href="#m775579bf3c" y="447.720523"/>
     <use style="fill:#d62728;stroke:#d62728;stroke-linejoin:bevel;" x="641.483523" xlink:href="#m775579bf3c" y="468.924221"/>
     <use style="fill:#d62728;stroke:#d62728;stroke-linejoin:bevel;" x="664.073011" xlink:href="#m775579bf3c" y="477.817252"/>
     <use style="fill:#d62728;stroke:#d62728;stroke-linejoin:bevel;" x="686.6625" xlink:href="#m775579bf3c" y="476.752915"/>
     <use style="fill:#d62728;stroke:#d62728;stroke-linejoin:bevel;" x="709.251989" xlink:href="#m775579bf3c" y="482.398393"/>
     <use style="fill:#d62728;stroke:#d62728;stroke-linejoin:bevel;" x="731.841477" xlink:href="#m775579bf3c" y="488.976314"/>
     <use style="fill:#d62728;stroke:#d62728;stroke-linejoin:bevel;" x="754.430966" xlink:href="#m775579bf3c" y="488.092"/>
     <use style="fill:#d62728;stroke:#d62728;stroke-linejoin:bevel;" x="777.020455" xlink:href="#m775579bf3c" y="469.910109"/>
    </g>
   </g>
   <g id="line2d_61">
    <path clip-path="url(#pff4268b438)" d="M 76.746307 504.399466 
L 99.335795 496.868865 
L 121.925284 495.32173 
L 144.514773 489.020269 
L 167.104261 475.809987 
L 189.69375 492.913249 
L 212.283239 481.057877 
L 234.872727 477.393149 
L 257.462216 485.825505 
L 280.051705 496.810334 
L 302.641193 504.676285 
L 325.230682 500.637693 
L 347.82017 493.778167 
L 370.409659 485.259208 
L 392.999148 490.350945 
L 415.588636 464.197175 
L 438.178125 259.58717 
L 460.767614 474.614024 
L 483.357102 470.932918 
L 505.946591 474.046121 
L 528.53608 465.950615 
L 551.125568 468.847994 
L 573.715057 465.254472 
L 596.304545 450.349173 
L 618.894034 471.463077 
L 641.483523 481.889596 
L 664.073011 497.301911 
L 686.6625 496.501463 
L 709.251989 494.585279 
L 731.841477 503.097898 
L 754.430966 502.46909 
L 777.020455 490.21675 
" style="fill:none;stroke:#9467bd;stroke-linecap:square;"/>
    <defs>
     <path d="M 0 -2.5 
L -0.561285 -0.772542 
L -2.377641 -0.772542 
L -0.908178 0.295085 
L -1.469463 2.022542 
L -0 0.954915 
L 1.469463 2.022542 
L 0.908178 0.295085 
L 2.377641 -0.772542 
L 0.561285 -0.772542 
z
" id="ma02dc43fdb" style="stroke:#9467bd;stroke-linejoin:bevel;"/>
    </defs>
    <g clip-path="url(#pff4268b438)">
     <use style="fill:#9467bd;stroke:#9467bd;stroke-linejoin:bevel;" x="76.746307" xlink:href="#ma02dc43fdb" y="504.399466"/>
     <use style="fill:#9467bd;stroke:#9467bd;stroke-linejoin:bevel;" x="99.335795" xlink:href="#ma02dc43fdb" y="496.868865"/>
     <use style="fill:#9467bd;stroke:#9467bd;stroke-linejoin:bevel;" x="121.925284" xlink:href="#ma02dc43fdb" y="495.32173"/>
     <use style="fill:#9467bd;stroke:#9467bd;stroke-linejoin:bevel;" x="144.514773" xlink:href="#ma02dc43fdb" y="489.020269"/>
     <use style="fill:#9467bd;stroke:#9467bd;stroke-linejoin:bevel;" x="167.104261" xlink:href="#ma02dc43fdb" y="475.809987"/>
     <use style="fill:#9467bd;stroke:#9467bd;stroke-linejoin:bevel;" x="189.69375" xlink:href="#ma02dc43fdb" y="492.913249"/>
     <use style="fill:#9467bd;stroke:#9467bd;stroke-linejoin:bevel;" x="212.283239" xlink:href="#ma02dc43fdb" y="481.057877"/>
     <use style="fill:#9467bd;stroke:#9467bd;stroke-linejoin:bevel;" x="234.872727" xlink:href="#ma02dc43fdb" y="477.393149"/>
     <use style="fill:#9467bd;stroke:#9467bd;stroke-linejoin:bevel;" x="257.462216" xlink:href="#ma02dc43fdb" y="485.825505"/>
     <use style="fill:#9467bd;stroke:#9467bd;stroke-linejoin:bevel;" x="280.051705" xlink:href="#ma02dc43fdb" y="496.810334"/>
     <use style="fill:#9467bd;stroke:#9467bd;stroke-linejoin:bevel;" x="302.641193" xlink:href="#ma02dc43fdb" y="504.676285"/>
     <use style="fill:#9467bd;stroke:#9467bd;stroke-linejoin:bevel;" x="325.230682" xlink:href="#ma02dc43fdb" y="500.637693"/>
     <use style="fill:#9467bd;stroke:#9467bd;stroke-linejoin:bevel;" x="347.82017" xlink:href="#ma02dc43fdb" y="493.778167"/>
     <use style="fill:#9467bd;stroke:#9467bd;stroke-linejoin:bevel;" x="370.409659" xlink:href="#ma02dc43fdb" y="485.259208"/>
     <use style="fill:#9467bd;stroke:#9467bd;stroke-linejoin:bevel;" x="392.999148" xlink:href="#ma02dc43fdb" y="490.350945"/>
     <use style="fill:#9467bd;stroke:#9467bd;stroke-linejoin:bevel;" x="415.588636" xlink:href="#ma02dc43fdb" y="464.197175"/>
     <use style="fill:#9467bd;stroke:#9467bd;stroke-linejoin:bevel;" x="438.178125" xlink:href="#ma02dc43fdb" y="259.58717"/>
     <use style="fill:#9467bd;stroke:#9467bd;stroke-linejoin:bevel;" x="460.767614" xlink:href="#ma02dc43fdb" y="474.614024"/>
     <use style="fill:#9467bd;stroke:#9467bd;stroke-linejoin:bevel;" x="483.357102" xlink:href="#ma02dc43fdb" y="470.932918"/>
     <use style="fill:#9467bd;stroke:#9467bd;stroke-linejoin:bevel;" x="505.946591" xlink:href="#ma02dc43fdb" y="474.046121"/>
     <use style="fill:#9467bd;stroke:#9467bd;stroke-linejoin:bevel;" x="528.53608" xlink:href="#ma02dc43fdb" y="465.950615"/>
     <use style="fill:#9467bd;stroke:#9467bd;stroke-linejoin:bevel;" x="551.125568" xlink:href="#ma02dc43fdb" y="468.847994"/>
     <use style="fill:#9467bd;stroke:#9467bd;stroke-linejoin:bevel;" x="573.715057" xlink:href="#ma02dc43fdb" y="465.254472"/>
     <use style="fill:#9467bd;stroke:#9467bd;stroke-linejoin:bevel;" x="596.304545" xlink:href="#ma02dc43fdb" y="450.349173"/>
     <use style="fill:#9467bd;stroke:#9467bd;stroke-linejoin:bevel;" x="618.894034" xlink:href="#ma02dc43fdb" y="471.463077"/>
     <use style="fill:#9467bd;stroke:#9467bd;stroke-linejoin:bevel;" x="641.483523" xlink:href="#ma02dc43fdb" y="481.889596"/>
     <use style="fill:#9467bd;stroke:#9467bd;stroke-linejoin:bevel;" x="664.073011" xlink:href="#ma02dc43fdb" y="497.301911"/>
     <use style="fill:#9467bd;stroke:#9467bd;stroke-linejoin:bevel;" x="686.6625" xlink:href="#ma02dc43fdb" y="496.501463"/>
     <use style="fill:#9467bd;stroke:#9467bd;stroke-linejoin:bevel;" x="709.251989" xlink:href="#ma02dc43fdb" y="494.585279"/>
     <use style="fill:#9467bd;stroke:#9467bd;stroke-linejoin:bevel;" x="731.841477" xlink:href="#ma02dc43fdb" y="503.097898"/>
     <use style="fill:#9467bd;stroke:#9467bd;stroke-linejoin:bevel;" x="754.430966" xlink:href="#ma02dc43fdb" y="502.46909"/>
     <use style="fill:#9467bd;stroke:#9467bd;stroke-linejoin:bevel;" x="777.020455" xlink:href="#ma02dc43fdb" y="490.21675"/>
    </g>
   </g>
   <g id="line2d_62">
    <path clip-path="url(#pff4268b438)" d="M 76.746307 520.24867 
L 99.335795 510.579456 
L 121.925284 514.324991 
L 144.514773 511.086326 
L 167.104261 494.143187 
L 189.69375 510.057029 
L 212.283239 501.479061 
L 234.872727 502.494894 
L 257.462216 508.689805 
L 280.051705 512.466801 
L 302.641193 514.176222 
L 325.230682 513.887319 
L 347.82017 510.202471 
L 370.409659 504.795702 
L 392.999148 511.816082 
L 415.588636 491.538848 
L 438.178125 495.86288 
L 460.767614 508.811066 
L 483.357102 503.171297 
L 505.946591 494.165328 
L 528.53608 486.823537 
L 551.125568 496.148951 
L 573.715057 501.629955 
L 596.304545 479.656155 
L 618.894034 501.630811 
L 641.483523 512.153166 
L 664.073011 516.542674 
L 686.6625 517.463701 
L 709.251989 516.886172 
L 731.841477 522.654406 
L 754.430966 524.326905 
L 777.020455 505.494664 
" style="fill:none;stroke:#8c564b;stroke-linecap:square;"/>
    <defs>
     <path d="M 0 -2.5 
L -0.561285 -0.772542 
L -2.377641 -0.772542 
L -0.908178 0.295085 
L -1.469463 2.022542 
L -0 0.954915 
L 1.469463 2.022542 
L 0.908178 0.295085 
L 2.377641 -0.772542 
L 0.561285 -0.772542 
z
" id="m968f6166c5" style="stroke:#8c564b;stroke-linejoin:bevel;"/>
    </defs>
    <g clip-path="url(#pff4268b438)">
     <use style="fill:#8c564b;stroke:#8c564b;stroke-linejoin:bevel;" x="76.746307" xlink:href="#m968f6166c5" y="520.24867"/>
     <use style="fill:#8c564b;stroke:#8c564b;stroke-linejoin:bevel;" x="99.335795" xlink:href="#m968f6166c5" y="510.579456"/>
     <use style="fill:#8c564b;stroke:#8c564b;stroke-linejoin:bevel;" x="121.925284" xlink:href="#m968f6166c5" y="514.324991"/>
     <use style="fill:#8c564b;stroke:#8c564b;stroke-linejoin:bevel;" x="144.514773" xlink:href="#m968f6166c5" y="511.086326"/>
     <use style="fill:#8c564b;stroke:#8c564b;stroke-linejoin:bevel;" x="167.104261" xlink:href="#m968f6166c5" y="494.143187"/>
     <use style="fill:#8c564b;stroke:#8c564b;stroke-linejoin:bevel;" x="189.69375" xlink:href="#m968f6166c5" y="510.057029"/>
     <use style="fill:#8c564b;stroke:#8c564b;stroke-linejoin:bevel;" x="212.283239" xlink:href="#m968f6166c5" y="501.479061"/>
     <use style="fill:#8c564b;stroke:#8c564b;stroke-linejoin:bevel;" x="234.872727" xlink:href="#m968f6166c5" y="502.494894"/>
     <use style="fill:#8c564b;stroke:#8c564b;stroke-linejoin:bevel;" x="257.462216" xlink:href="#m968f6166c5" y="508.689805"/>
     <use style="fill:#8c564b;stroke:#8c564b;stroke-linejoin:bevel;" x="280.051705" xlink:href="#m968f6166c5" y="512.466801"/>
     <use style="fill:#8c564b;stroke:#8c564b;stroke-linejoin:bevel;" x="302.641193" xlink:href="#m968f6166c5" y="514.176222"/>
     <use style="fill:#8c564b;stroke:#8c564b;stroke-linejoin:bevel;" x="325.230682" xlink:href="#m968f6166c5" y="513.887319"/>
     <use style="fill:#8c564b;stroke:#8c564b;stroke-linejoin:bevel;" x="347.82017" xlink:href="#m968f6166c5" y="510.202471"/>
     <use style="fill:#8c564b;stroke:#8c564b;stroke-linejoin:bevel;" x="370.409659" xlink:href="#m968f6166c5" y="504.795702"/>
     <use style="fill:#8c564b;stroke:#8c564b;stroke-linejoin:bevel;" x="392.999148" xlink:href="#m968f6166c5" y="511.816082"/>
     <use style="fill:#8c564b;stroke:#8c564b;stroke-linejoin:bevel;" x="415.588636" xlink:href="#m968f6166c5" y="491.538848"/>
     <use style="fill:#8c564b;stroke:#8c564b;stroke-linejoin:bevel;" x="438.178125" xlink:href="#m968f6166c5" y="495.86288"/>
     <use style="fill:#8c564b;stroke:#8c564b;stroke-linejoin:bevel;" x="460.767614" xlink:href="#m968f6166c5" y="508.811066"/>
     <use style="fill:#8c564b;stroke:#8c564b;stroke-linejoin:bevel;" x="483.357102" xlink:href="#m968f6166c5" y="503.171297"/>
     <use style="fill:#8c564b;stroke:#8c564b;stroke-linejoin:bevel;" x="505.946591" xlink:href="#m968f6166c5" y="494.165328"/>
     <use style="fill:#8c564b;stroke:#8c564b;stroke-linejoin:bevel;" x="528.53608" xlink:href="#m968f6166c5" y="486.823537"/>
     <use style="fill:#8c564b;stroke:#8c564b;stroke-linejoin:bevel;" x="551.125568" xlink:href="#m968f6166c5" y="496.148951"/>
     <use style="fill:#8c564b;stroke:#8c564b;stroke-linejoin:bevel;" x="573.715057" xlink:href="#m968f6166c5" y="501.629955"/>
     <use style="fill:#8c564b;stroke:#8c564b;stroke-linejoin:bevel;" x="596.304545" xlink:href="#m968f6166c5" y="479.656155"/>
     <use style="fill:#8c564b;stroke:#8c564b;stroke-linejoin:bevel;" x="618.894034" xlink:href="#m968f6166c5" y="501.630811"/>
     <use style="fill:#8c564b;stroke:#8c564b;stroke-linejoin:bevel;" x="641.483523" xlink:href="#m968f6166c5" y="512.153166"/>
     <use style="fill:#8c564b;stroke:#8c564b;stroke-linejoin:bevel;" x="664.073011" xlink:href="#m968f6166c5" y="516.542674"/>
     <use style="fill:#8c564b;stroke:#8c564b;stroke-linejoin:bevel;" x="686.6625" xlink:href="#m968f6166c5" y="517.463701"/>
     <use style="fill:#8c564b;stroke:#8c564b;stroke-linejoin:bevel;" x="709.251989" xlink:href="#m968f6166c5" y="516.886172"/>
     <use style="fill:#8c564b;stroke:#8c564b;stroke-linejoin:bevel;" x="731.841477" xlink:href="#m968f6166c5" y="522.654406"/>
     <use style="fill:#8c564b;stroke:#8c564b;stroke-linejoin:bevel;" x="754.430966" xlink:href="#m968f6166c5" y="524.326905"/>
     <use style="fill:#8c564b;stroke:#8c564b;stroke-linejoin:bevel;" x="777.020455" xlink:href="#m968f6166c5" y="505.494664"/>
    </g>
   </g>
   <g id="line2d_63">
    <path clip-path="url(#pff4268b438)" d="M 76.746307 522.842046 
L 99.335795 512.973917 
L 121.925284 510.491396 
L 144.514773 514.964935 
L 167.104261 506.439333 
L 189.69375 510.136542 
L 212.283239 506.269425 
L 234.872727 507.657938 
L 257.462216 513.123481 
L 280.051705 514.990204 
L 302.641193 514.608263 
L 325.230682 516.029512 
L 347.82017 503.71463 
L 370.409659 506.535175 
L 392.999148 514.284899 
L 415.588636 500.403321 
L 438.178125 503.676504 
L 460.767614 517.887674 
L 483.357102 516.327919 
L 505.946591 507.681127 
L 528.53608 507.002269 
L 551.125568 511.131899 
L 573.715057 516.563943 
L 596.304545 494.17001 
L 618.894034 519.229694 
L 641.483523 522.124017 
L 664.073011 524.687523 
L 686.6625 519.490266 
L 709.251989 525.186557 
L 731.841477 526.806184 
L 754.430966 532.495874 
L 777.020455 518.373626 
" style="fill:none;stroke:#e377c2;stroke-linecap:square;"/>
    <defs>
     <path d="M 0 -2.5 
L -0.561285 -0.772542 
L -2.377641 -0.772542 
L -0.908178 0.295085 
L -1.469463 2.022542 
L -0 0.954915 
L 1.469463 2.022542 
L 0.908178 0.295085 
L 2.377641 -0.772542 
L 0.561285 -0.772542 
z
" id="m1603a29691" style="stroke:#e377c2;stroke-linejoin:bevel;"/>
    </defs>
    <g clip-path="url(#pff4268b438)">
     <use style="fill:#e377c2;stroke:#e377c2;stroke-linejoin:bevel;" x="76.746307" xlink:href="#m1603a29691" y="522.842046"/>
     <use style="fill:#e377c2;stroke:#e377c2;stroke-linejoin:bevel;" x="99.335795" xlink:href="#m1603a29691" y="512.973917"/>
     <use style="fill:#e377c2;stroke:#e377c2;stroke-linejoin:bevel;" x="121.925284" xlink:href="#m1603a29691" y="510.491396"/>
     <use style="fill:#e377c2;stroke:#e377c2;stroke-linejoin:bevel;" x="144.514773" xlink:href="#m1603a29691" y="514.964935"/>
     <use style="fill:#e377c2;stroke:#e377c2;stroke-linejoin:bevel;" x="167.104261" xlink:href="#m1603a29691" y="506.439333"/>
     <use style="fill:#e377c2;stroke:#e377c2;stroke-linejoin:bevel;" x="189.69375" xlink:href="#m1603a29691" y="510.136542"/>
     <use style="fill:#e377c2;stroke:#e377c2;stroke-linejoin:bevel;" x="212.283239" xlink:href="#m1603a29691" y="506.269425"/>
     <use style="fill:#e377c2;stroke:#e377c2;stroke-linejoin:bevel;" x="234.872727" xlink:href="#m1603a29691" y="507.657938"/>
     <use style="fill:#e377c2;stroke:#e377c2;stroke-linejoin:bevel;" x="257.462216" xlink:href="#m1603a29691" y="513.123481"/>
     <use style="fill:#e377c2;stroke:#e377c2;stroke-linejoin:bevel;" x="280.051705" xlink:href="#m1603a29691" y="514.990204"/>
     <use style="fill:#e377c2;stroke:#e377c2;stroke-linejoin:bevel;" x="302.641193" xlink:href="#m1603a29691" y="514.608263"/>
     <use style="fill:#e377c2;stroke:#e377c2;stroke-linejoin:bevel;" x="325.230682" xlink:href="#m1603a29691" y="516.029512"/>
     <use style="fill:#e377c2;stroke:#e377c2;stroke-linejoin:bevel;" x="347.82017" xlink:href="#m1603a29691" y="503.71463"/>
     <use style="fill:#e377c2;stroke:#e377c2;stroke-linejoin:bevel;" x="370.409659" xlink:href="#m1603a29691" y="506.535175"/>
     <use style="fill:#e377c2;stroke:#e377c2;stroke-linejoin:bevel;" x="392.999148" xlink:href="#m1603a29691" y="514.284899"/>
     <use style="fill:#e377c2;stroke:#e377c2;stroke-linejoin:bevel;" x="415.588636" xlink:href="#m1603a29691" y="500.403321"/>
     <use style="fill:#e377c2;stroke:#e377c2;stroke-linejoin:bevel;" x="438.178125" xlink:href="#m1603a29691" y="503.676504"/>
     <use style="fill:#e377c2;stroke:#e377c2;stroke-linejoin:bevel;" x="460.767614" xlink:href="#m1603a29691" y="517.887674"/>
     <use style="fill:#e377c2;stroke:#e377c2;stroke-linejoin:bevel;" x="483.357102" xlink:href="#m1603a29691" y="516.327919"/>
     <use style="fill:#e377c2;stroke:#e377c2;stroke-linejoin:bevel;" x="505.946591" xlink:href="#m1603a29691" y="507.681127"/>
     <use style="fill:#e377c2;stroke:#e377c2;stroke-linejoin:bevel;" x="528.53608" xlink:href="#m1603a29691" y="507.002269"/>
     <use style="fill:#e377c2;stroke:#e377c2;stroke-linejoin:bevel;" x="551.125568" xlink:href="#m1603a29691" y="511.131899"/>
     <use style="fill:#e377c2;stroke:#e377c2;stroke-linejoin:bevel;" x="573.715057" xlink:href="#m1603a29691" y="516.563943"/>
     <use style="fill:#e377c2;stroke:#e377c2;stroke-linejoin:bevel;" x="596.304545" xlink:href="#m1603a29691" y="494.17001"/>
     <use style="fill:#e377c2;stroke:#e377c2;stroke-linejoin:bevel;" x="618.894034" xlink:href="#m1603a29691" y="519.229694"/>
     <use style="fill:#e377c2;stroke:#e377c2;stroke-linejoin:bevel;" x="641.483523" xlink:href="#m1603a29691" y="522.124017"/>
     <use style="fill:#e377c2;stroke:#e377c2;stroke-linejoin:bevel;" x="664.073011" xlink:href="#m1603a29691" y="524.687523"/>
     <use style="fill:#e377c2;stroke:#e377c2;stroke-linejoin:bevel;" x="686.6625" xlink:href="#m1603a29691" y="519.490266"/>
     <use style="fill:#e377c2;stroke:#e377c2;stroke-linejoin:bevel;" x="709.251989" xlink:href="#m1603a29691" y="525.186557"/>
     <use style="fill:#e377c2;stroke:#e377c2;stroke-linejoin:bevel;" x="731.841477" xlink:href="#m1603a29691" y="526.806184"/>
     <use style="fill:#e377c2;stroke:#e377c2;stroke-linejoin:bevel;" x="754.430966" xlink:href="#m1603a29691" y="532.495874"/>
     <use style="fill:#e377c2;stroke:#e377c2;stroke-linejoin:bevel;" x="777.020455" xlink:href="#m1603a29691" y="518.373626"/>
    </g>
   </g>
   <g id="line2d_64">
    <path clip-path="url(#pff4268b438)" d="M 76.746307 524.222756 
L 99.335795 501.366053 
L 121.925284 506.429982 
L 144.514773 514.848015 
L 167.104261 507.627776 
L 189.69375 512.636741 
L 212.283239 502.248873 
L 234.872727 503.124107 
L 257.462216 510.483605 
L 280.051705 506.92365 
L 302.641193 513.567869 
L 325.230682 510.112304 
L 347.82017 509.309812 
L 370.409659 502.274588 
L 392.999148 504.740262 
L 415.588636 502.02251 
L 438.178125 505.604226 
L 460.767614 522.726003 
L 483.357102 516.864716 
L 505.946591 518.142619 
L 528.53608 508.647624 
L 551.125568 522.461545 
L 573.715057 517.230236 
L 596.304545 501.139957 
L 618.894034 526.853522 
L 641.483523 529.54213 
L 664.073011 528.552271 
L 686.6625 528.941436 
L 709.251989 529.574697 
L 731.841477 529.130261 
L 754.430966 530.023971 
L 777.020455 520.876864 
" style="fill:none;stroke:#7f7f7f;stroke-linecap:square;"/>
    <defs>
     <path d="M 0 -2.5 
L -0.561285 -0.772542 
L -2.377641 -0.772542 
L -0.908178 0.295085 
L -1.469463 2.022542 
L -0 0.954915 
L 1.469463 2.022542 
L 0.908178 0.295085 
L 2.377641 -0.772542 
L 0.561285 -0.772542 
z
" id="m0593c33dd9" style="stroke:#7f7f7f;stroke-linejoin:bevel;"/>
    </defs>
    <g clip-path="url(#pff4268b438)">
     <use style="fill:#7f7f7f;stroke:#7f7f7f;stroke-linejoin:bevel;" x="76.746307" xlink:href="#m0593c33dd9" y="524.222756"/>
     <use style="fill:#7f7f7f;stroke:#7f7f7f;stroke-linejoin:bevel;" x="99.335795" xlink:href="#m0593c33dd9" y="501.366053"/>
     <use style="fill:#7f7f7f;stroke:#7f7f7f;stroke-linejoin:bevel;" x="121.925284" xlink:href="#m0593c33dd9" y="506.429982"/>
     <use style="fill:#7f7f7f;stroke:#7f7f7f;stroke-linejoin:bevel;" x="144.514773" xlink:href="#m0593c33dd9" y="514.848015"/>
     <use style="fill:#7f7f7f;stroke:#7f7f7f;stroke-linejoin:bevel;" x="167.104261" xlink:href="#m0593c33dd9" y="507.627776"/>
     <use style="fill:#7f7f7f;stroke:#7f7f7f;stroke-linejoin:bevel;" x="189.69375" xlink:href="#m0593c33dd9" y="512.636741"/>
     <use style="fill:#7f7f7f;stroke:#7f7f7f;stroke-linejoin:bevel;" x="212.283239" xlink:href="#m0593c33dd9" y="502.248873"/>
     <use style="fill:#7f7f7f;stroke:#7f7f7f;stroke-linejoin:bevel;" x="234.872727" xlink:href="#m0593c33dd9" y="503.124107"/>
     <use style="fill:#7f7f7f;stroke:#7f7f7f;stroke-linejoin:bevel;" x="257.462216" xlink:href="#m0593c33dd9" y="510.483605"/>
     <use style="fill:#7f7f7f;stroke:#7f7f7f;stroke-linejoin:bevel;" x="280.051705" xlink:href="#m0593c33dd9" y="506.92365"/>
     <use style="fill:#7f7f7f;stroke:#7f7f7f;stroke-linejoin:bevel;" x="302.641193" xlink:href="#m0593c33dd9" y="513.567869"/>
     <use style="fill:#7f7f7f;stroke:#7f7f7f;stroke-linejoin:bevel;" x="325.230682" xlink:href="#m0593c33dd9" y="510.112304"/>
     <use style="fill:#7f7f7f;stroke:#7f7f7f;stroke-linejoin:bevel;" x="347.82017" xlink:href="#m0593c33dd9" y="509.309812"/>
     <use style="fill:#7f7f7f;stroke:#7f7f7f;stroke-linejoin:bevel;" x="370.409659" xlink:href="#m0593c33dd9" y="502.274588"/>
     <use style="fill:#7f7f7f;stroke:#7f7f7f;stroke-linejoin:bevel;" x="392.999148" xlink:href="#m0593c33dd9" y="504.740262"/>
     <use style="fill:#7f7f7f;stroke:#7f7f7f;stroke-linejoin:bevel;" x="415.588636" xlink:href="#m0593c33dd9" y="502.02251"/>
     <use style="fill:#7f7f7f;stroke:#7f7f7f;stroke-linejoin:bevel;" x="438.178125" xlink:href="#m0593c33dd9" y="505.604226"/>
     <use style="fill:#7f7f7f;stroke:#7f7f7f;stroke-linejoin:bevel;" x="460.767614" xlink:href="#m0593c33dd9" y="522.726003"/>
     <use style="fill:#7f7f7f;stroke:#7f7f7f;stroke-linejoin:bevel;" x="483.357102" xlink:href="#m0593c33dd9" y="516.864716"/>
     <use style="fill:#7f7f7f;stroke:#7f7f7f;stroke-linejoin:bevel;" x="505.946591" xlink:href="#m0593c33dd9" y="518.142619"/>
     <use style="fill:#7f7f7f;stroke:#7f7f7f;stroke-linejoin:bevel;" x="528.53608" xlink:href="#m0593c33dd9" y="508.647624"/>
     <use style="fill:#7f7f7f;stroke:#7f7f7f;stroke-linejoin:bevel;" x="551.125568" xlink:href="#m0593c33dd9" y="522.461545"/>
     <use style="fill:#7f7f7f;stroke:#7f7f7f;stroke-linejoin:bevel;" x="573.715057" xlink:href="#m0593c33dd9" y="517.230236"/>
     <use style="fill:#7f7f7f;stroke:#7f7f7f;stroke-linejoin:bevel;" x="596.304545" xlink:href="#m0593c33dd9" y="501.139957"/>
     <use style="fill:#7f7f7f;stroke:#7f7f7f;stroke-linejoin:bevel;" x="618.894034" xlink:href="#m0593c33dd9" y="526.853522"/>
     <use style="fill:#7f7f7f;stroke:#7f7f7f;stroke-linejoin:bevel;" x="641.483523" xlink:href="#m0593c33dd9" y="529.54213"/>
     <use style="fill:#7f7f7f;stroke:#7f7f7f;stroke-linejoin:bevel;" x="664.073011" xlink:href="#m0593c33dd9" y="528.552271"/>
     <use style="fill:#7f7f7f;stroke:#7f7f7f;stroke-linejoin:bevel;" x="686.6625" xlink:href="#m0593c33dd9" y="528.941436"/>
     <use style="fill:#7f7f7f;stroke:#7f7f7f;stroke-linejoin:bevel;" x="709.251989" xlink:href="#m0593c33dd9" y="529.574697"/>
     <use style="fill:#7f7f7f;stroke:#7f7f7f;stroke-linejoin:bevel;" x="731.841477" xlink:href="#m0593c33dd9" y="529.130261"/>
     <use style="fill:#7f7f7f;stroke:#7f7f7f;stroke-linejoin:bevel;" x="754.430966" xlink:href="#m0593c33dd9" y="530.023971"/>
     <use style="fill:#7f7f7f;stroke:#7f7f7f;stroke-linejoin:bevel;" x="777.020455" xlink:href="#m0593c33dd9" y="520.876864"/>
    </g>
   </g>
   <g id="line2d_65">
    <path clip-path="url(#pff4268b438)" d="M 76.746307 551.518125 
L 799.609943 551.518125 
L 799.609943 551.518125 
" style="fill:none;stroke:#ff0000;stroke-dasharray:3.7,1.6;stroke-dashoffset:0;"/>
   </g>
   <g id="patch_3">
    <path d="M 40.603125 576.718125 
L 40.603125 22.318125 
" style="fill:none;stroke:#000000;stroke-linecap:square;stroke-linejoin:miter;stroke-width:0.8;"/>
   </g>
   <g id="patch_4">
    <path d="M 835.753125 576.718125 
L 835.753125 22.318125 
" style="fill:none;stroke:#000000;stroke-linecap:square;stroke-linejoin:miter;stroke-width:0.8;"/>
   </g>
   <g id="patch_5">
    <path d="M 40.603125 576.718125 
L 835.753125 576.718125 
" style="fill:none;stroke:#000000;stroke-linecap:square;stroke-linejoin:miter;stroke-width:0.8;"/>
   </g>
   <g id="patch_6">
    <path d="M 40.603125 22.318125 
L 835.753125 22.318125 
" style="fill:none;stroke:#000000;stroke-linecap:square;stroke-linejoin:miter;stroke-width:0.8;"/>
   </g>
   <g id="text_17">
    <!-- FWHM ENC [keV] (Pedestal rms / Gain with polynomial (deg=4) fit slope) -->
    <g transform="translate(219.991875 16.318125)scale(0.12 -0.12)">
     <defs>
      <path d="M 31 75.875 
Q 24.46875 64.65625 21.28125 53.65625 
Q 18.109375 42.671875 18.109375 31.390625 
Q 18.109375 20.125 21.3125 9.0625 
Q 24.515625 -2 31 -13.1875 
L 23.1875 -13.1875 
Q 15.875 -1.703125 12.234375 9.375 
Q 8.59375 20.453125 8.59375 31.390625 
Q 8.59375 42.28125 12.203125 53.3125 
Q 15.828125 64.359375 23.1875 75.875 
z
" id="DejaVuSans-40"/>
      <path d="M 19.671875 64.796875 
L 19.671875 37.40625 
L 32.078125 37.40625 
Q 38.96875 37.40625 42.71875 40.96875 
Q 46.484375 44.53125 46.484375 51.125 
Q 46.484375 57.671875 42.71875 61.234375 
Q 38.96875 64.796875 32.078125 64.796875 
z
M 9.8125 72.90625 
L 32.078125 72.90625 
Q 44.34375 72.90625 50.609375 67.359375 
Q 56.890625 61.8125 56.890625 51.125 
Q 56.890625 40.328125 50.609375 34.8125 
Q 44.34375 29.296875 32.078125 29.296875 
L 19.671875 29.296875 
L 19.671875 0 
L 9.8125 0 
z
" id="DejaVuSans-80"/>
      <path d="M 45.40625 46.390625 
L 45.40625 75.984375 
L 54.390625 75.984375 
L 54.390625 0 
L 45.40625 0 
L 45.40625 8.203125 
Q 42.578125 3.328125 38.25 0.953125 
Q 33.9375 -1.421875 27.875 -1.421875 
Q 17.96875 -1.421875 11.734375 6.484375 
Q 5.515625 14.40625 5.515625 27.296875 
Q 5.515625 40.1875 11.734375 48.09375 
Q 17.96875 56 27.875 56 
Q 33.9375 56 38.25 53.625 
Q 42.578125 51.265625 45.40625 46.390625 
z
M 14.796875 27.296875 
Q 14.796875 17.390625 18.875 11.75 
Q 22.953125 6.109375 30.078125 6.109375 
Q 37.203125 6.109375 41.296875 11.75 
Q 45.40625 17.390625 45.40625 27.296875 
Q 45.40625 37.203125 41.296875 42.84375 
Q 37.203125 48.484375 30.078125 48.484375 
Q 22.953125 48.484375 18.875 42.84375 
Q 14.796875 37.203125 14.796875 27.296875 
z
" id="DejaVuSans-100"/>
      <path d="M 18.3125 70.21875 
L 18.3125 54.6875 
L 36.8125 54.6875 
L 36.8125 47.703125 
L 18.3125 47.703125 
L 18.3125 18.015625 
Q 18.3125 11.328125 20.140625 9.421875 
Q 21.96875 7.515625 27.59375 7.515625 
L 36.8125 7.515625 
L 36.8125 0 
L 27.59375 0 
Q 17.1875 0 13.234375 3.875 
Q 9.28125 7.765625 9.28125 18.015625 
L 9.28125 47.703125 
L 2.6875 47.703125 
L 2.6875 54.6875 
L 9.28125 54.6875 
L 9.28125 70.21875 
z
" id="DejaVuSans-116"/>
      <path d="M 41.109375 46.296875 
Q 39.59375 47.171875 37.8125 47.578125 
Q 36.03125 48 33.890625 48 
Q 26.265625 48 22.1875 43.046875 
Q 18.109375 38.09375 18.109375 28.8125 
L 18.109375 0 
L 9.078125 0 
L 9.078125 54.6875 
L 18.109375 54.6875 
L 18.109375 46.1875 
Q 20.953125 51.171875 25.484375 53.578125 
Q 30.03125 56 36.53125 56 
Q 37.453125 56 38.578125 55.875 
Q 39.703125 55.765625 41.0625 55.515625 
z
" id="DejaVuSans-114"/>
      <path d="M 52 44.1875 
Q 55.375 50.25 60.0625 53.125 
Q 64.75 56 71.09375 56 
Q 79.640625 56 84.28125 50.015625 
Q 88.921875 44.046875 88.921875 33.015625 
L 88.921875 0 
L 79.890625 0 
L 79.890625 32.71875 
Q 79.890625 40.578125 77.09375 44.375 
Q 74.3125 48.1875 68.609375 48.1875 
Q 61.625 48.1875 57.5625 43.546875 
Q 53.515625 38.921875 53.515625 30.90625 
L 53.515625 0 
L 44.484375 0 
L 44.484375 32.71875 
Q 44.484375 40.625 41.703125 44.40625 
Q 38.921875 48.1875 33.109375 48.1875 
Q 26.21875 48.1875 22.15625 43.53125 
Q 18.109375 38.875 18.109375 30.90625 
L 18.109375 0 
L 9.078125 0 
L 9.078125 54.6875 
L 18.109375 54.6875 
L 18.109375 46.1875 
Q 21.1875 51.21875 25.484375 53.609375 
Q 29.78125 56 35.6875 56 
Q 41.65625 56 45.828125 52.96875 
Q 50 49.953125 52 44.1875 
z
" id="DejaVuSans-109"/>
      <path d="M 25.390625 72.90625 
L 33.6875 72.90625 
L 8.296875 -9.28125 
L 0 -9.28125 
z
" id="DejaVuSans-47"/>
      <path d="M 59.515625 10.40625 
L 59.515625 29.984375 
L 43.40625 29.984375 
L 43.40625 38.09375 
L 69.28125 38.09375 
L 69.28125 6.78125 
Q 63.578125 2.734375 56.6875 0.65625 
Q 49.8125 -1.421875 42 -1.421875 
Q 24.90625 -1.421875 15.25 8.5625 
Q 5.609375 18.5625 5.609375 36.375 
Q 5.609375 54.25 15.25 64.234375 
Q 24.90625 74.21875 42 74.21875 
Q 49.125 74.21875 55.546875 72.453125 
Q 61.96875 70.703125 67.390625 67.28125 
L 67.390625 56.78125 
Q 61.921875 61.421875 55.765625 63.765625 
Q 49.609375 66.109375 42.828125 66.109375 
Q 29.4375 66.109375 22.71875 58.640625 
Q 16.015625 51.171875 16.015625 36.375 
Q 16.015625 21.625 22.71875 14.15625 
Q 29.4375 6.6875 42.828125 6.6875 
Q 48.046875 6.6875 52.140625 7.59375 
Q 56.25 8.5 59.515625 10.40625 
z
" id="DejaVuSans-71"/>
      <path d="M 9.421875 54.6875 
L 18.40625 54.6875 
L 18.40625 0 
L 9.421875 0 
z
M 9.421875 75.984375 
L 18.40625 75.984375 
L 18.40625 64.59375 
L 9.421875 64.59375 
z
" id="DejaVuSans-105"/>
      <path d="M 4.203125 54.6875 
L 13.1875 54.6875 
L 24.421875 12.015625 
L 35.59375 54.6875 
L 46.1875 54.6875 
L 57.421875 12.015625 
L 68.609375 54.6875 
L 77.59375 54.6875 
L 63.28125 0 
L 52.6875 0 
L 40.921875 44.828125 
L 29.109375 0 
L 18.5 0 
z
" id="DejaVuSans-119"/>
      <path d="M 18.109375 8.203125 
L 18.109375 -20.796875 
L 9.078125 -20.796875 
L 9.078125 54.6875 
L 18.109375 54.6875 
L 18.109375 46.390625 
Q 20.953125 51.265625 25.265625 53.625 
Q 29.59375 56 35.59375 56 
Q 45.5625 56 51.78125 48.09375 
Q 58.015625 40.1875 58.015625 27.296875 
Q 58.015625 14.40625 51.78125 6.484375 
Q 45.5625 -1.421875 35.59375 -1.421875 
Q 29.59375 -1.421875 25.265625 0.953125 
Q 20.953125 3.328125 18.109375 8.203125 
z
M 48.6875 27.296875 
Q 48.6875 37.203125 44.609375 42.84375 
Q 40.53125 48.484375 33.40625 48.484375 
Q 26.265625 48.484375 22.1875 42.84375 
Q 18.109375 37.203125 18.109375 27.296875 
Q 18.109375 17.390625 22.1875 11.75 
Q 26.265625 6.109375 33.40625 6.109375 
Q 40.53125 6.109375 44.609375 11.75 
Q 48.6875 17.390625 48.6875 27.296875 
z
" id="DejaVuSans-112"/>
      <path d="M 30.609375 48.390625 
Q 23.390625 48.390625 19.1875 42.75 
Q 14.984375 37.109375 14.984375 27.296875 
Q 14.984375 17.484375 19.15625 11.84375 
Q 23.34375 6.203125 30.609375 6.203125 
Q 37.796875 6.203125 41.984375 11.859375 
Q 46.1875 17.53125 46.1875 27.296875 
Q 46.1875 37.015625 41.984375 42.703125 
Q 37.796875 48.390625 30.609375 48.390625 
z
M 30.609375 56 
Q 42.328125 56 49.015625 48.375 
Q 55.71875 40.765625 55.71875 27.296875 
Q 55.71875 13.875 49.015625 6.21875 
Q 42.328125 -1.421875 30.609375 -1.421875 
Q 18.84375 -1.421875 12.171875 6.21875 
Q 5.515625 13.875 5.515625 27.296875 
Q 5.515625 40.765625 12.171875 48.375 
Q 18.84375 56 30.609375 56 
z
" id="DejaVuSans-111"/>
      <path d="M 32.171875 -5.078125 
Q 28.375 -14.84375 24.75 -17.8125 
Q 21.140625 -20.796875 15.09375 -20.796875 
L 7.90625 -20.796875 
L 7.90625 -13.28125 
L 13.1875 -13.28125 
Q 16.890625 -13.28125 18.9375 -11.515625 
Q 21 -9.765625 23.484375 -3.21875 
L 25.09375 0.875 
L 2.984375 54.6875 
L 12.5 54.6875 
L 29.59375 11.921875 
L 46.6875 54.6875 
L 56.203125 54.6875 
z
" id="DejaVuSans-121"/>
      <path d="M 45.40625 27.984375 
Q 45.40625 37.75 41.375 43.109375 
Q 37.359375 48.484375 30.078125 48.484375 
Q 22.859375 48.484375 18.828125 43.109375 
Q 14.796875 37.75 14.796875 27.984375 
Q 14.796875 18.265625 18.828125 12.890625 
Q 22.859375 7.515625 30.078125 7.515625 
Q 37.359375 7.515625 41.375 12.890625 
Q 45.40625 18.265625 45.40625 27.984375 
z
M 54.390625 6.78125 
Q 54.390625 -7.171875 48.1875 -13.984375 
Q 42 -20.796875 29.203125 -20.796875 
Q 24.46875 -20.796875 20.265625 -20.09375 
Q 16.0625 -19.390625 12.109375 -17.921875 
L 12.109375 -9.1875 
Q 16.0625 -11.328125 19.921875 -12.34375 
Q 23.78125 -13.375 27.78125 -13.375 
Q 36.625 -13.375 41.015625 -8.765625 
Q 45.40625 -4.15625 45.40625 5.171875 
L 45.40625 9.625 
Q 42.625 4.78125 38.28125 2.390625 
Q 33.9375 0 27.875 0 
Q 17.828125 0 11.671875 7.65625 
Q 5.515625 15.328125 5.515625 27.984375 
Q 5.515625 40.671875 11.671875 48.328125 
Q 17.828125 56 27.875 56 
Q 33.9375 56 38.28125 53.609375 
Q 42.625 51.21875 45.40625 46.390625 
L 45.40625 54.6875 
L 54.390625 54.6875 
z
" id="DejaVuSans-103"/>
      <path d="M 10.59375 45.40625 
L 73.1875 45.40625 
L 73.1875 37.203125 
L 10.59375 37.203125 
z
M 10.59375 25.484375 
L 73.1875 25.484375 
L 73.1875 17.1875 
L 10.59375 17.1875 
z
" id="DejaVuSans-61"/>
      <path d="M 37.796875 64.3125 
L 12.890625 25.390625 
L 37.796875 25.390625 
z
M 35.203125 72.90625 
L 47.609375 72.90625 
L 47.609375 25.390625 
L 58.015625 25.390625 
L 58.015625 17.1875 
L 47.609375 17.1875 
L 47.609375 0 
L 37.796875 0 
L 37.796875 17.1875 
L 4.890625 17.1875 
L 4.890625 26.703125 
z
" id="DejaVuSans-52"/>
      <path d="M 8.015625 75.875 
L 15.828125 75.875 
Q 23.140625 64.359375 26.78125 53.3125 
Q 30.421875 42.28125 30.421875 31.390625 
Q 30.421875 20.453125 26.78125 9.375 
Q 23.140625 -1.703125 15.828125 -13.1875 
L 8.015625 -13.1875 
Q 14.5 -2 17.703125 9.0625 
Q 20.90625 20.125 20.90625 31.390625 
Q 20.90625 42.671875 17.703125 53.65625 
Q 14.5 64.65625 8.015625 75.875 
z
" id="DejaVuSans-41"/>
      <path d="M 37.109375 75.984375 
L 37.109375 68.5 
L 28.515625 68.5 
Q 23.6875 68.5 21.796875 66.546875 
Q 19.921875 64.59375 19.921875 59.515625 
L 19.921875 54.6875 
L 34.71875 54.6875 
L 34.71875 47.703125 
L 19.921875 47.703125 
L 19.921875 0 
L 10.890625 0 
L 10.890625 47.703125 
L 2.296875 47.703125 
L 2.296875 54.6875 
L 10.890625 54.6875 
L 10.890625 58.5 
Q 10.890625 67.625 15.140625 71.796875 
Q 19.390625 75.984375 28.609375 75.984375 
z
" id="DejaVuSans-102"/>
     </defs>
     <use xlink:href="#DejaVuSans-70"/>
     <use x="57.519531" xlink:href="#DejaVuSans-87"/>
     <use x="156.396484" xlink:href="#DejaVuSans-72"/>
     <use x="231.591797" xlink:href="#DejaVuSans-77"/>
     <use x="317.871094" xlink:href="#DejaVuSans-32"/>
     <use x="349.658203" xlink:href="#DejaVuSans-69"/>
     <use x="412.841797" xlink:href="#DejaVuSans-78"/>
     <use x="487.646484" xlink:href="#DejaVuSans-67"/>
     <use x="557.470703" xlink:href="#DejaVuSans-32"/>
     <use x="589.257812" xlink:href="#DejaVuSans-91"/>
     <use x="628.271484" xlink:href="#DejaVuSans-107"/>
     <use x="682.556641" xlink:href="#DejaVuSans-101"/>
     <use x="744.080078" xlink:href="#DejaVuSans-86"/>
     <use x="812.488281" xlink:href="#DejaVuSans-93"/>
     <use x="851.501953" xlink:href="#DejaVuSans-32"/>
     <use x="883.289062" xlink:href="#DejaVuSans-40"/>
     <use x="922.302734" xlink:href="#DejaVuSans-80"/>
     <use x="978.980469" xlink:href="#DejaVuSans-101"/>
     <use x="1040.503906" xlink:href="#DejaVuSans-100"/>
     <use x="1103.980469" xlink:href="#DejaVuSans-101"/>
     <use x="1165.503906" xlink:href="#DejaVuSans-115"/>
     <use x="1217.603516" xlink:href="#DejaVuSans-116"/>
     <use x="1256.8125" xlink:href="#DejaVuSans-97"/>
     <use x="1318.091797" xlink:href="#DejaVuSans-108"/>
     <use x="1345.875" xlink:href="#DejaVuSans-32"/>
     <use x="1377.662109" xlink:href="#DejaVuSans-114"/>
     <use x="1417.025391" xlink:href="#DejaVuSans-109"/>
     <use x="1514.4375" xlink:href="#DejaVuSans-115"/>
     <use x="1566.537109" xlink:href="#DejaVuSans-32"/>
     <use x="1598.324219" xlink:href="#DejaVuSans-47"/>
     <use x="1632.015625" xlink:href="#DejaVuSans-32"/>
     <use x="1663.802734" xlink:href="#DejaVuSans-71"/>
     <use x="1741.292969" xlink:href="#DejaVuSans-97"/>
     <use x="1802.572266" xlink:href="#DejaVuSans-105"/>
     <use x="1830.355469" xlink:href="#DejaVuSans-110"/>
     <use x="1893.734375" xlink:href="#DejaVuSans-32"/>
     <use x="1925.521484" xlink:href="#DejaVuSans-119"/>
     <use x="2007.308594" xlink:href="#DejaVuSans-105"/>
     <use x="2035.091797" xlink:href="#DejaVuSans-116"/>
     <use x="2074.300781" xlink:href="#DejaVuSans-104"/>
     <use x="2137.679688" xlink:href="#DejaVuSans-32"/>
     <use x="2169.466797" xlink:href="#DejaVuSans-112"/>
     <use x="2232.943359" xlink:href="#DejaVuSans-111"/>
     <use x="2294.125" xlink:href="#DejaVuSans-108"/>
     <use x="2321.908203" xlink:href="#DejaVuSans-121"/>
     <use x="2381.087891" xlink:href="#DejaVuSans-110"/>
     <use x="2444.466797" xlink:href="#DejaVuSans-111"/>
     <use x="2505.648438" xlink:href="#DejaVuSans-109"/>
     <use x="2603.060547" xlink:href="#DejaVuSans-105"/>
     <use x="2630.84375" xlink:href="#DejaVuSans-97"/>
     <use x="2692.123047" xlink:href="#DejaVuSans-108"/>
     <use x="2719.90625" xlink:href="#DejaVuSans-32"/>
     <use x="2751.693359" xlink:href="#DejaVuSans-40"/>
     <use x="2790.707031" xlink:href="#DejaVuSans-100"/>
     <use x="2854.183594" xlink:href="#DejaVuSans-101"/>
     <use x="2915.707031" xlink:href="#DejaVuSans-103"/>
     <use x="2979.183594" xlink:href="#DejaVuSans-61"/>
     <use x="3062.972656" xlink:href="#DejaVuSans-52"/>
     <use x="3126.595703" xlink:href="#DejaVuSans-41"/>
     <use x="3165.609375" xlink:href="#DejaVuSans-32"/>
     <use x="3197.396484" xlink:href="#DejaVuSans-102"/>
     <use x="3232.601562" xlink:href="#DejaVuSans-105"/>
     <use x="3260.384766" xlink:href="#DejaVuSans-116"/>
     <use x="3299.59375" xlink:href="#DejaVuSans-32"/>
     <use x="3331.380859" xlink:href="#DejaVuSans-115"/>
     <use x="3383.480469" xlink:href="#DejaVuSans-108"/>
     <use x="3411.263672" xlink:href="#DejaVuSans-111"/>
     <use x="3472.445312" xlink:href="#DejaVuSans-112"/>
     <use x="3535.921875" xlink:href="#DejaVuSans-101"/>
     <use x="3597.445312" xlink:href="#DejaVuSans-41"/>
    </g>
   </g>
   <g id="legend_1">
    <g id="patch_7">
     <path d="M 854.565125 359.730625 
L 897.365125 359.730625 
Q 899.365125 359.730625 899.365125 357.730625 
L 899.365125 241.305625 
Q 899.365125 239.305625 897.365125 239.305625 
L 854.565125 239.305625 
Q 852.565125 239.305625 852.565125 241.305625 
L 852.565125 357.730625 
Q 852.565125 359.730625 854.565125 359.730625 
z
" style="fill:#ffffff;opacity:0.8;stroke:#cccccc;stroke-linejoin:miter;"/>
    </g>
    <g id="line2d_66">
     <path d="M 856.565125 247.404063 
L 876.565125 247.404063 
" style="fill:none;stroke:#1f77b4;stroke-linecap:square;"/>
    </g>
    <g id="line2d_67">
     <g>
      <use style="fill:#1f77b4;stroke:#1f77b4;stroke-linejoin:bevel;" x="866.565125" xlink:href="#m48ebc888dc" y="247.404063"/>
     </g>
    </g>
    <g id="text_18">
     <!-- $\tau_0$ -->
     <g transform="translate(884.565125 250.904063)scale(0.1 -0.1)">
      <defs>
       <path d="M 32.859375 9.96875 
Q 34.1875 7.625 39.453125 7.625 
L 43.75 7.625 
L 42.28125 0 
L 36.921875 0 
Q 28.125 0 25 4.6875 
Q 21.921875 9.46875 23.96875 19.828125 
L 29 45.703125 
L 8.453125 45.703125 
L 10.203125 54.6875 
L 60.640625 54.6875 
L 58.890625 45.703125 
L 38.1875 45.703125 
L 33.015625 19.28125 
Q 31.640625 12.203125 32.859375 9.96875 
z
" id="DejaVuSans-Oblique-964"/>
      </defs>
      <use transform="translate(0 0.3125)" xlink:href="#DejaVuSans-Oblique-964"/>
      <use transform="translate(60.205078 -16.09375)scale(0.7)" xlink:href="#DejaVuSans-48"/>
     </g>
    </g>
    <g id="line2d_68">
     <path d="M 856.565125 262.082188 
L 876.565125 262.082188 
" style="fill:none;stroke:#ff7f0e;stroke-linecap:square;"/>
    </g>
    <g id="line2d_69">
     <g>
      <use style="fill:#ff7f0e;stroke:#ff7f0e;stroke-linejoin:bevel;" x="866.565125" xlink:href="#m93d43bdfe9" y="262.082188"/>
     </g>
    </g>
    <g id="text_19">
     <!-- $\tau_1$ -->
     <g transform="translate(884.565125 265.582188)scale(0.1 -0.1)">
      <use transform="translate(0 0.3125)" xlink:href="#DejaVuSans-Oblique-964"/>
      <use transform="translate(60.205078 -16.09375)scale(0.7)" xlink:href="#DejaVuSans-49"/>
     </g>
    </g>
    <g id="line2d_70">
     <path d="M 856.565125 276.760313 
L 876.565125 276.760313 
" style="fill:none;stroke:#2ca02c;stroke-linecap:square;"/>
    </g>
    <g id="line2d_71">
     <g>
      <use style="fill:#2ca02c;stroke:#2ca02c;stroke-linejoin:bevel;" x="866.565125" xlink:href="#m6c1a5ce73f" y="276.760313"/>
     </g>
    </g>
    <g id="text_20">
     <!-- $\tau_2$ -->
     <g transform="translate(884.565125 280.260313)scale(0.1 -0.1)">
      <use transform="translate(0 0.3125)" xlink:href="#DejaVuSans-Oblique-964"/>
      <use transform="translate(60.205078 -16.09375)scale(0.7)" xlink:href="#DejaVuSans-50"/>
     </g>
    </g>
    <g id="line2d_72">
     <path d="M 856.565125 291.438438 
L 876.565125 291.438438 
" style="fill:none;stroke:#d62728;stroke-linecap:square;"/>
    </g>
    <g id="line2d_73">
     <g>
      <use style="fill:#d62728;stroke:#d62728;stroke-linejoin:bevel;" x="866.565125" xlink:href="#m775579bf3c" y="291.438438"/>
     </g>
    </g>
    <g id="text_21">
     <!-- $\tau_3$ -->
     <g transform="translate(884.565125 294.938438)scale(0.1 -0.1)">
      <use transform="translate(0 0.3125)" xlink:href="#DejaVuSans-Oblique-964"/>
      <use transform="translate(60.205078 -16.09375)scale(0.7)" xlink:href="#DejaVuSans-51"/>
     </g>
    </g>
    <g id="line2d_74">
     <path d="M 856.565125 306.116563 
L 876.565125 306.116563 
" style="fill:none;stroke:#9467bd;stroke-linecap:square;"/>
    </g>
    <g id="line2d_75">
     <g>
      <use style="fill:#9467bd;stroke:#9467bd;stroke-linejoin:bevel;" x="866.565125" xlink:href="#ma02dc43fdb" y="306.116563"/>
     </g>
    </g>
    <g id="text_22">
     <!-- $\tau_4$ -->
     <g transform="translate(884.565125 309.616563)scale(0.1 -0.1)">
      <use transform="translate(0 0.3125)" xlink:href="#DejaVuSans-Oblique-964"/>
      <use transform="translate(60.205078 -16.09375)scale(0.7)" xlink:href="#DejaVuSans-52"/>
     </g>
    </g>
    <g id="line2d_76">
     <path d="M 856.565125 320.794688 
L 876.565125 320.794688 
" style="fill:none;stroke:#8c564b;stroke-linecap:square;"/>
    </g>
    <g id="line2d_77">
     <g>
      <use style="fill:#8c564b;stroke:#8c564b;stroke-linejoin:bevel;" x="866.565125" xlink:href="#m968f6166c5" y="320.794688"/>
     </g>
    </g>
    <g id="text_23">
     <!-- $\tau_5$ -->
     <g transform="translate(884.565125 324.294688)scale(0.1 -0.1)">
      <use transform="translate(0 0.3125)" xlink:href="#DejaVuSans-Oblique-964"/>
      <use transform="translate(60.205078 -16.09375)scale(0.7)" xlink:href="#DejaVuSans-53"/>
     </g>
    </g>
    <g id="line2d_78">
     <path d="M 856.565125 335.472813 
L 876.565125 335.472813 
" style="fill:none;stroke:#e377c2;stroke-linecap:square;"/>
    </g>
    <g id="line2d_79">
     <g>
      <use style="fill:#e377c2;stroke:#e377c2;stroke-linejoin:bevel;" x="866.565125" xlink:href="#m1603a29691" y="335.472813"/>
     </g>
    </g>
    <g id="text_24">
     <!-- $\tau_6$ -->
     <g transform="translate(884.565125 338.972813)scale(0.1 -0.1)">
      <defs>
       <path d="M 33.015625 40.375 
Q 26.375 40.375 22.484375 35.828125 
Q 18.609375 31.296875 18.609375 23.390625 
Q 18.609375 15.53125 22.484375 10.953125 
Q 26.375 6.390625 33.015625 6.390625 
Q 39.65625 6.390625 43.53125 10.953125 
Q 47.40625 15.53125 47.40625 23.390625 
Q 47.40625 31.296875 43.53125 35.828125 
Q 39.65625 40.375 33.015625 40.375 
z
M 52.59375 71.296875 
L 52.59375 62.3125 
Q 48.875 64.0625 45.09375 64.984375 
Q 41.3125 65.921875 37.59375 65.921875 
Q 27.828125 65.921875 22.671875 59.328125 
Q 17.53125 52.734375 16.796875 39.40625 
Q 19.671875 43.65625 24.015625 45.921875 
Q 28.375 48.1875 33.59375 48.1875 
Q 44.578125 48.1875 50.953125 41.515625 
Q 57.328125 34.859375 57.328125 23.390625 
Q 57.328125 12.15625 50.6875 5.359375 
Q 44.046875 -1.421875 33.015625 -1.421875 
Q 20.359375 -1.421875 13.671875 8.265625 
Q 6.984375 17.96875 6.984375 36.375 
Q 6.984375 53.65625 15.1875 63.9375 
Q 23.390625 74.21875 37.203125 74.21875 
Q 40.921875 74.21875 44.703125 73.484375 
Q 48.484375 72.75 52.59375 71.296875 
z
" id="DejaVuSans-54"/>
      </defs>
      <use transform="translate(0 0.3125)" xlink:href="#DejaVuSans-Oblique-964"/>
      <use transform="translate(60.205078 -16.09375)scale(0.7)" xlink:href="#DejaVuSans-54"/>
     </g>
    </g>
    <g id="line2d_80">
     <path d="M 856.565125 350.150938 
L 876.565125 350.150938 
" style="fill:none;stroke:#7f7f7f;stroke-linecap:square;"/>
    </g>
    <g id="line2d_81">
     <g>
      <use style="fill:#7f7f7f;stroke:#7f7f7f;stroke-linejoin:bevel;" x="866.565125" xlink:href="#m0593c33dd9" y="350.150938"/>
     </g>
    </g>
    <g id="text_25">
     <!-- $\tau_7$ -->
     <g transform="translate(884.565125 353.650938)scale(0.1 -0.1)">
      <defs>
       <path d="M 8.203125 72.90625 
L 55.078125 72.90625 
L 55.078125 68.703125 
L 28.609375 0 
L 18.3125 0 
L 43.21875 64.59375 
L 8.203125 64.59375 
z
" id="DejaVuSans-55"/>
      </defs>
      <use transform="translate(0 0.3125)" xlink:href="#DejaVuSans-Oblique-964"/>
      <use transform="translate(60.205078 -16.09375)scale(0.7)" xlink:href="#DejaVuSans-55"/>
     </g>
    </g>
   </g>
  </g>
 </g>
 <defs>
  <clipPath id="pff4268b438">
   <rect height="554.4" width="795.15" x="40.603125" y="22.318125"/>
  </clipPath>
 </defs>
</svg>
